<?xml version="1.0" encoding="UTF-8"?>
<!DOCTYPE svg PUBLIC "-//W3C//DTD SVG 1.1//EN" "http://www.w3.org/Graphics/SVG/1.1/DTD/svg11.dtd">
<svg xmlns="http://www.w3.org/2000/svg" version="1.1" width="2118px" height="1156px" style="shape-rendering:geometricPrecision; text-rendering:geometricPrecision; image-rendering:optimizeQuality; fill-rule:evenodd; clip-rule:evenodd" xmlns:xlink="http://www.w3.org/1999/xlink">
<g><path style="opacity:1" fill="#656565" d="M 1968.5,701.5 C 1975.8,701.575 1982.8,703.075 1989.5,706C 2000.3,717.089 2008.47,729.922 2014,744.5C 2025.36,769.305 2030.02,795.305 2028,822.5C 2027.13,827.442 2025.3,831.942 2022.5,836C 2016.19,836.257 2010.19,834.924 2004.5,832C 1960.62,810.248 1918.96,785.248 1879.5,757C 1885.44,751.359 1892.1,746.692 1899.5,743C 1911.11,737.861 1922.45,732.194 1933.5,726C 1941.83,723.667 1950.17,721.333 1958.5,719C 1961.83,716.369 1963.67,712.869 1964,708.5C 1965.01,705.798 1966.51,703.465 1968.5,701.5 Z"/></g>
<g><path style="opacity:1" fill="#656565" d="M 422.5,918.5 C 429.285,920.949 436.285,922.949 443.5,924.5C 456.1,927.592 468.434,931.259 480.5,935.5C 487.453,938.478 494.786,940.478 502.5,941.5C 539.937,949.295 577.603,955.795 615.5,961C 618.918,962.908 620.584,965.908 620.5,970C 620.095,977.546 618.262,984.712 615,991.5C 613.431,992.122 611.764,992.456 610,992.5C 590.235,989.8 570.401,987.8 550.5,986.5C 533.507,987.504 516.507,987.671 499.5,987C 472.749,984.323 446.083,980.989 419.5,977C 344.079,972.615 269.745,961.281 196.5,943C 187.504,940.919 178.838,937.919 170.5,934C 168.513,932.681 167.346,930.848 167,928.5C 160.995,922.872 154.495,922.206 147.5,926.5C 133.585,922.374 120.585,916.374 108.5,908.5C 105.8,904.296 103.3,899.963 101,895.5C 99.8333,893.667 98.3333,892.167 96.5,891C 88.9416,889.149 81.2749,887.815 73.5,887C 69.7898,881.75 66.4565,876.25 63.5,870.5C 65.8333,870.167 68.1667,869.833 70.5,869.5C 87.7957,871.115 105.129,871.782 122.5,871.5C 125.087,872.816 128.087,873.483 131.5,873.5C 140.347,873.178 149.014,872.512 157.5,871.5C 177.175,869.78 196.842,866.946 216.5,863C 218.623,862.185 220.623,861.185 222.5,860C 211.238,861.984 199.905,863.984 188.5,866C 182.197,866.942 175.863,867.609 169.5,868C 141.833,868.667 114.167,868.667 86.5,868C 78.1486,867.554 69.8153,866.888 61.5,866C 57.2861,861.454 53.4527,856.621 50,851.5C 49.2506,850.365 49.4173,849.365 50.5,848.5C 56.7074,850.088 63.0408,850.921 69.5,851C 107.18,851.865 144.847,851.532 182.5,850C 186.134,849.844 189.467,848.844 192.5,847C 187.533,847.161 182.533,847.328 177.5,847.5C 143.663,847.168 109.996,847.502 76.5,848.5C 66.4776,848.489 56.4776,847.989 46.5,847C 41.2536,840.657 36.9202,833.824 33.5,826.5C 49.1997,826.474 64.8664,827.14 80.5,828.5C 109.17,831.04 137.837,831.04 166.5,828.5C 167.675,828.719 168.675,828.386 169.5,827.5C 124.51,826.021 79.5105,824.855 34.5,824C 32.3333,823.167 30.8333,821.667 30,819.5C 28.1828,812.279 27.3494,804.946 27.5,797.5C 68.7248,795.762 109.891,796.429 151,799.5C 151.5,799.167 152,798.833 152.5,798.5C 149.702,797.031 146.702,796.198 143.5,796C 105.167,795.667 66.8333,795.333 28.5,795C 27.9781,794.439 27.6448,793.772 27.5,793C 28.9357,784.114 30.6024,775.28 32.5,766.5C 43.1564,765.985 53.823,765.652 64.5,765.5C 92.8604,766.073 121.194,766.906 149.5,768C 141.997,766.031 134.33,765.031 126.5,765C 97.2687,764.161 68.102,763.327 39,762.5C 37.512,763.196 36.012,762.862 34.5,761.5C 36.4417,753.632 39.4417,746.299 43.5,739.5C 44.2674,738.828 44.9341,737.995 45.5,737C 60.3391,736.831 75.0057,736.331 89.5,735.5C 100.838,735.693 112.172,736.027 123.5,736.5C 130.782,737.812 137.949,739.812 145,742.5C 145.765,742.43 146.265,742.097 146.5,741.5C 145.781,739.112 144.115,737.612 141.5,737C 137.916,735.927 134.25,735.26 130.5,735C 102.421,733.727 74.4212,732.561 46.5,731.5C 49.6081,727.103 53.2748,723.27 57.5,720C 67.7595,718.408 78.0928,718.074 88.5,719C 107.618,721.683 126.618,725.017 145.5,729C 150.637,730.268 155.637,731.934 160.5,734C 163.457,737.64 165.29,741.807 166,746.5C 167.865,772.507 174.532,797.174 186,820.5C 188.128,823.63 190.628,826.463 193.5,829C 265.823,869.162 342.156,898.995 422.5,918.5 Z"/></g>
<g><path style="opacity:1" fill="#656565" d="M 1010.5,916.5 C 1010.61,917.117 1010.94,917.617 1011.5,918C 1017.68,919.06 1023.68,920.727 1029.5,923C 1031.39,923.78 1033.05,923.613 1034.5,922.5C 1059.15,930.771 1084.15,937.937 1109.5,944C 1142.68,950.584 1176.01,956.251 1209.5,961C 1213.39,962.937 1215.05,966.103 1214.5,970.5C 1213.91,976.614 1212.74,982.614 1211,988.5C 1209.86,991.859 1207.53,993.192 1204,992.5C 1167.36,986.627 1130.53,984.793 1093.5,987C 1072,985.047 1050.67,982.214 1029.5,978.5C 1015.32,974.914 1000.99,973.914 986.5,975.5C 950.698,972.312 915.031,967.812 879.5,962C 847.627,954.359 815.627,947.359 783.5,941C 777.013,939.06 770.679,936.727 764.5,934C 762.743,931.154 760.743,928.488 758.5,926C 753.789,922.862 749.122,922.862 744.5,926C 742.833,926.667 741.167,926.667 739.5,926C 725.467,921.734 712.634,915.234 701,906.5C 698.797,901.256 695.964,896.422 692.5,892C 690.283,890.725 687.949,889.725 685.5,889C 679.722,888.906 674.056,888.239 668.5,887C 663.617,881.975 660.284,876.142 658.5,869.5C 689.468,871.421 720.468,871.921 751.5,871C 771.358,869.746 791.024,867.079 810.5,863C 812.623,862.185 814.623,861.185 816.5,860C 799.064,863.627 781.397,866.294 763.5,868C 730.816,868.879 698.15,868.546 665.5,867C 661.713,866.84 658.046,866.174 654.5,865C 651.382,860.214 647.882,855.714 644,851.5C 643.251,850.365 643.417,849.365 644.5,848.5C 651.055,850.041 657.722,850.874 664.5,851C 695.833,851.667 727.167,851.667 758.5,851C 766.87,850.739 775.203,850.072 783.5,849C 786.375,848.105 786.708,847.272 784.5,846.5C 779.178,847.299 773.845,847.965 768.5,848.5C 733.167,847.167 697.833,847.167 662.5,848.5C 655.493,848.166 648.493,847.666 641.5,847C 636.095,840.858 631.428,834.191 627.5,827C 673.482,828.344 719.482,828.677 765.5,828C 719.896,826.043 674.23,824.709 628.5,824C 626.333,823.167 624.833,821.667 624,819.5C 623.084,813.001 622.25,806.501 621.5,800C 621.645,799.228 621.978,798.561 622.5,798C 664.225,795.952 705.891,796.285 747.5,799C 744.467,797.156 741.134,796.156 737.5,796C 699.5,795.667 661.5,795.333 623.5,795C 622.884,793.6 622.551,792.1 622.5,790.5C 623.707,782.468 625.04,774.468 626.5,766.5C 663.529,765.22 700.529,765.887 737.5,768.5C 739.833,768.333 742.167,768.167 744.5,768C 730.31,765.398 715.976,764.231 701.5,764.5C 698.695,763.681 695.695,763.181 692.5,763C 673.329,762.171 654.329,762.338 635.5,763.5C 634.167,763.167 632.833,762.833 631.5,762.5C 631.077,761.735 630.743,760.902 630.5,760C 633.141,753.243 635.474,746.41 637.5,739.5C 637.328,738.508 637.662,737.842 638.5,737.5C 653.598,736.848 668.598,736.182 683.5,735.5C 697.173,735.758 710.84,736.258 724.5,737C 729.872,737.424 734.872,738.924 739.5,741.5C 740.594,740.132 740.26,738.965 738.5,738C 730.031,735.524 721.364,734.191 712.5,734C 688.756,733.182 665.089,732.682 641.5,732.5C 646.653,720.581 655.82,715.914 669,718.5C 696.57,720.486 723.737,724.986 750.5,732C 754.333,733.167 756.833,735.667 758,739.5C 761.594,758.581 765.594,777.581 770,796.5C 772.667,803.167 775.333,809.833 778,816.5C 780.448,820.615 783.281,824.448 786.5,828C 857.081,867.789 931.748,897.289 1010.5,916.5 Z"/></g>
<g><path style="opacity:1" fill="#676767" d="M 2007.5,937.5 C 1998.36,938.765 1989.36,940.098 1980.5,941.5C 1975.69,942.487 1970.69,942.821 1965.5,942.5C 1943.52,941.377 1921.52,941.21 1899.5,942C 1897.29,942.191 1895.29,942.691 1893.5,943.5C 1828.09,951.795 1762.42,957.295 1696.5,960C 1672.41,961.571 1648.41,963.904 1624.5,967C 1605.49,968.334 1586.49,968.668 1567.5,968C 1566.5,969.667 1565.5,971.333 1564.5,973C 1539.84,974.652 1515.17,974.818 1490.5,973.5C 1498.46,959.578 1505.96,945.245 1513,930.5C 1514.32,927.57 1514.98,924.57 1515,921.5C 1506.84,939.834 1497.17,957.167 1486,973.5C 1483.83,975.667 1481.67,977.833 1479.5,980C 1438.97,978.529 1398.31,978.029 1357.5,978.5C 1349.43,977.342 1341.43,977.842 1333.5,980C 1327.5,980.167 1321.5,980.333 1315.5,980.5C 1295,979.438 1274.67,979.438 1254.5,980.5C 1244.83,980.291 1235.16,979.958 1225.5,979.5C 1230.94,971.899 1237.6,965.399 1245.5,960C 1246.5,959 1247.5,958 1248.5,957C 1245.9,957.126 1243.57,958.126 1241.5,960C 1234.83,966 1228.17,972 1221.5,978C 1220.17,978.667 1218.83,978.667 1217.5,978C 1216.7,973.92 1216.2,969.753 1216,965.5C 1214.11,961.942 1211.27,959.442 1207.5,958C 1169.24,952.82 1131.24,946.153 1093.5,938C 1071.11,931.536 1048.77,924.869 1026.5,918C 953.459,900.987 883.459,875.654 816.5,842C 813.794,839.577 814.461,838.41 818.5,838.5C 822.37,838.809 826.037,839.476 829.5,840.5C 837.926,842.586 846.593,844.086 855.5,845C 863.131,846.069 870.798,846.569 878.5,846.5C 960.744,856.175 1043.08,865.009 1125.5,873C 1199.48,876.553 1273.15,873.22 1346.5,863C 1369.01,859.293 1390.67,852.96 1411.5,844C 1420.25,842.257 1429.08,841.09 1438,840.5C 1446.54,842.125 1455.04,843.958 1463.5,846C 1470.79,847.509 1477.46,846.176 1483.5,842C 1492.2,832.709 1500.54,823.209 1508.5,813.5C 1511.76,811.906 1514.43,809.573 1516.5,806.5C 1518.85,804.659 1521.52,803.326 1524.5,802.5C 1528.23,802.156 1531.89,801.49 1535.5,800.5C 1541.46,801.715 1547.46,802.715 1553.5,803.5C 1576.95,810.693 1600.95,814.693 1625.5,815.5C 1633,815.433 1640.34,814.266 1647.5,812C 1677.88,801.818 1705.21,786.485 1729.5,766C 1740.91,754.591 1752.91,743.924 1765.5,734C 1773.65,729.627 1782.32,726.794 1791.5,725.5C 1815.76,728.642 1838.43,736.476 1859.5,749C 1893.33,769.75 1927,790.75 1960.5,812C 1981.55,823.941 2003.38,834.108 2026,842.5C 2028.8,848.232 2030.8,854.232 2032,860.5C 2036.77,880.865 2038.43,901.198 2037,921.5C 2036.21,923.587 2035.04,925.421 2033.5,927C 2025.32,931.781 2016.65,935.281 2007.5,937.5 Z"/></g>
<g><path style="opacity:0.16" fill="#383838" d="M 89.5,735.5 C 75.0057,736.331 60.3391,736.831 45.5,737C 44.9341,737.995 44.2674,738.828 43.5,739.5C 43.33,738.178 43.6634,737.011 44.5,736C 59.4963,735.5 74.4963,735.333 89.5,735.5 Z"/></g>
<g><path style="opacity:0.16" fill="#363636" d="M 683.5,735.5 C 668.598,736.182 653.598,736.848 638.5,737.5C 653.129,735.516 668.129,734.85 683.5,735.5 Z"/></g>
<g><path style="opacity:0.485" fill="#3c3c3c" d="M 123.5,736.5 C 131.587,736.567 139.253,738.233 146.5,741.5C 146.265,742.097 145.765,742.43 145,742.5C 137.949,739.812 130.782,737.812 123.5,736.5 Z"/></g>
<g><path style="opacity:0.663" fill="#3a3a3a" d="M 637.5,739.5 C 635.474,746.41 633.141,753.243 630.5,760C 630.743,760.902 631.077,761.735 631.5,762.5C 630.351,762.209 629.684,761.376 629.5,760C 631.504,752.805 634.171,745.971 637.5,739.5 Z"/></g>
<g><path style="opacity:0.549" fill="#494949" d="M 635.5,763.5 C 654.329,762.338 673.329,762.171 692.5,763C 695.695,763.181 698.695,763.681 701.5,764.5C 679.513,763.619 657.513,763.286 635.5,763.5 Z"/></g>
<g><path style="opacity:0.555" fill="#3d3d3d" d="M 1553.5,803.5 C 1547.46,802.715 1541.46,801.715 1535.5,800.5C 1531.89,801.49 1528.23,802.156 1524.5,802.5C 1527.84,800.745 1531.51,799.745 1535.5,799.5C 1541.82,799.991 1547.82,801.324 1553.5,803.5 Z"/></g>
<g><path style="opacity:0.369" fill="#252525" d="M 1516.5,806.5 C 1514.43,809.573 1511.76,811.906 1508.5,813.5C 1510.57,810.427 1513.24,808.094 1516.5,806.5 Z"/></g>
<g><path style="opacity:0.922" fill="#515151" d="M 80.5,828.5 C 109.167,828.5 137.833,828.5 166.5,828.5C 137.837,831.04 109.17,831.04 80.5,828.5 Z"/></g>
<g><path style="opacity:1" fill="#666666" d="M 760.5,933.5 C 760.511,935.017 761.177,936.184 762.5,937C 765.561,939.035 768.895,940.201 772.5,940.5C 784.696,944.132 797.029,947.299 809.5,950C 837.812,955.662 866.145,961.162 894.5,966.5C 893.127,972.713 889.627,977.38 884,980.5C 882.5,980 881,979.5 879.5,979C 840.833,978.333 802.167,978.333 763.5,979C 755.378,979.172 747.378,980.005 739.5,981.5C 721.669,980.338 703.669,979.838 685.5,980C 684.944,980.383 684.611,980.883 684.5,981.5C 666.833,980.833 649.167,980.167 631.5,979.5C 631.351,978.448 631.517,977.448 632,976.5C 638.872,969.959 646.039,963.793 653.5,958C 654.696,957.346 654.696,956.846 653.5,956.5C 644.806,961.686 637.14,968.186 630.5,976C 628.147,977.964 625.647,978.464 623,977.5C 622.811,972.749 622.145,968.083 621,963.5C 619.457,961.622 617.624,960.122 615.5,959C 579.438,953.133 543.438,946.8 507.5,940C 481.049,932.738 454.715,925.072 428.5,917C 358.034,900.259 290.368,875.925 225.5,844C 224.335,842.916 223.002,842.083 221.5,841.5C 220.614,840.675 220.281,839.675 220.5,838.5C 318.74,850.457 417.074,861.624 515.5,872C 538.797,873.832 562.131,874.665 585.5,874.5C 609.169,873.981 632.835,873.815 656.5,874C 659.678,879.355 663.345,884.355 667.5,889C 669.39,890.112 671.39,890.946 673.5,891.5C 679.518,889.734 685.185,890.401 690.5,893.5C 693.752,898.334 696.752,903.334 699.5,908.5C 711.353,917.093 724.353,923.593 738.5,928C 744.12,927.369 749.787,927.036 755.5,927C 758.021,928.558 759.688,930.725 760.5,933.5 Z"/></g>
<g><path style="opacity:0.945" fill="#464646" d="M 829.5,840.5 C 846,842.271 862.333,844.271 878.5,846.5C 870.798,846.569 863.131,846.069 855.5,845C 846.593,844.086 837.926,842.586 829.5,840.5 Z"/></g>
<g><path style="opacity:0.883" fill="#4c4c4c" d="M 76.5,848.5 C 109.996,847.502 143.663,847.168 177.5,847.5C 173.688,848.324 169.688,848.824 165.5,849C 135.822,849.758 106.155,849.591 76.5,848.5 Z"/></g>
<g><path style="opacity:0.869" fill="#4e4e4e" d="M 662.5,848.5 C 697.833,847.167 733.167,847.167 768.5,848.5C 733.173,849.75 697.839,849.75 662.5,848.5 Z"/></g>
<g><path style="opacity:0.851" fill="#474747" d="M 122.5,871.5 C 134.167,871.5 145.833,871.5 157.5,871.5C 149.014,872.512 140.347,873.178 131.5,873.5C 128.087,873.483 125.087,872.816 122.5,871.5 Z"/></g>
<g><path style="opacity:0.294" fill="#3a3a3a" d="M 422.5,918.5 C 429.898,919.43 436.898,921.43 443.5,924.5C 436.285,922.949 429.285,920.949 422.5,918.5 Z"/></g>
<g><path style="opacity:0.369" fill="#3b3b3b" d="M 1010.5,916.5 C 1018.55,918.295 1026.55,920.295 1034.5,922.5C 1033.05,923.613 1031.39,923.78 1029.5,923C 1023.68,920.727 1017.68,919.06 1011.5,918C 1010.94,917.617 1010.61,917.117 1010.5,916.5 Z"/></g>
<g><path style="opacity:1" fill="#646464" d="M 1788.5,983.5 C 1787.21,982.842 1785.71,982.508 1784,982.5C 1767.22,984.349 1750.39,985.516 1733.5,986C 1732.94,986.383 1732.61,986.883 1732.5,987.5C 1690.42,989.002 1648.42,991.669 1606.5,995.5C 1604.7,994.838 1602.7,994.505 1600.5,994.5C 1593.17,995.083 1585.84,995.583 1578.5,996C 1577.58,996.278 1576.92,996.778 1576.5,997.5C 1564.16,997.573 1551.83,997.906 1539.5,998.5C 1533.11,998.546 1526.78,998.046 1520.5,997C 1510.87,992.376 1502.04,986.542 1494,979.5C 1493.52,978.552 1493.35,977.552 1493.5,976.5C 1517.19,976.89 1540.86,976.39 1564.5,975C 1567.2,972.208 1570.54,970.874 1574.5,971C 1593.83,970.172 1613.16,969.505 1632.5,969C 1649.45,966.676 1666.45,964.676 1683.5,963C 1749.78,960.517 1815.62,955.35 1881,947.5C 1913.41,945.879 1945.91,945.045 1978.5,945C 1998.22,943.571 2016.89,938.404 2034.5,929.5C 2035.31,929.808 2035.97,930.308 2036.5,931C 2025.7,946.806 2012.03,959.473 1995.5,969C 1982.6,973.986 1969.26,975.986 1955.5,975C 1947.95,969.483 1939.45,966.65 1930,966.5C 1921.41,967.053 1912.91,968.219 1904.5,970C 1903.07,970.465 1901.9,971.299 1901,972.5C 1900.83,976.667 1898.67,978.833 1894.5,979C 1859.17,980.779 1823.84,982.279 1788.5,983.5 Z"/></g>
<g><path style="opacity:0.604" fill="#373737" d="M 480.5,935.5 C 488.107,936.899 495.44,938.899 502.5,941.5C 494.786,940.478 487.453,938.478 480.5,935.5 Z"/></g>
<g><path style="opacity:0.431" fill="#2d2d2d" d="M 760.5,933.5 C 764.24,936.367 768.24,938.7 772.5,940.5C 768.895,940.201 765.561,939.035 762.5,937C 761.177,936.184 760.511,935.017 760.5,933.5 Z"/></g>
<g><path style="opacity:0.259" fill="#3c3c3c" d="M 2007.5,937.5 C 1998.85,940.308 1989.85,941.641 1980.5,941.5C 1989.36,940.098 1998.36,938.765 2007.5,937.5 Z"/></g>
<g><path style="opacity:0.944" fill="#505050" d="M 1965.5,942.5 C 1941.67,943.498 1917.67,943.831 1893.5,943.5C 1895.29,942.691 1897.29,942.191 1899.5,942C 1921.52,941.21 1943.52,941.377 1965.5,942.5 Z"/></g>
<g><path style="opacity:0.29" fill="#484848" d="M 986.5,975.5 C 1000.99,973.914 1015.32,974.914 1029.5,978.5C 1015.21,976.979 1000.87,975.979 986.5,975.5 Z"/></g>
<g><path style="opacity:0.999" fill="#626262" d="M 898.5,976.5 C 937.178,976.839 975.845,977.673 1014.5,979C 1035.42,982.488 1056.42,985.321 1077.5,987.5C 1077.5,988.5 1077.5,989.5 1077.5,990.5C 1046.51,992.696 1015.51,994.862 984.5,997C 966.842,998.071 949.175,998.405 931.5,998C 925.935,997.368 920.935,995.368 916.5,992C 911.5,988.333 906.5,984.667 901.5,981C 899.859,979.871 898.859,978.371 898.5,976.5 Z"/></g>
<g><path style="opacity:0.337" fill="#484848" d="M 739.5,981.5 C 721.167,981.5 702.833,981.5 684.5,981.5C 684.611,980.883 684.944,980.383 685.5,980C 703.669,979.838 721.669,980.338 739.5,981.5 Z"/></g>
<g><path style="opacity:0.998" fill="#626262" d="M 750.5,980.5 C 762.314,981.427 774.147,982.094 786,982.5C 817.144,980.856 848.311,980.189 879.5,980.5C 878.575,986.442 876.742,992.109 874,997.5C 871.552,1000.47 868.386,1001.97 864.5,1002C 844.195,1003.55 823.861,1003.88 803.5,1003C 801.089,1002.14 799.756,1000.48 799.5,998C 801.203,993.79 802.703,989.623 804,985.5C 800.26,989.311 797.26,993.644 795,998.5C 793.421,1000.04 791.587,1001.21 789.5,1002C 784.319,1002.56 779.152,1002.39 774,1001.5C 748.247,1006.12 722.414,1006.62 696.5,1003C 685.578,1002.75 680.078,997.245 680,986.5C 681.734,985.751 683.567,985.251 685.5,985C 705.508,984.555 725.508,983.889 745.5,983C 747.491,982.626 749.158,981.793 750.5,980.5 Z"/></g>
<g><path style="opacity:0.336" fill="#484848" d="M 1357.5,978.5 C 1351.57,979.087 1345.57,979.92 1339.5,981C 1311.16,981.734 1282.82,981.567 1254.5,980.5C 1274.67,979.438 1295,979.438 1315.5,980.5C 1321.5,980.333 1327.5,980.167 1333.5,980C 1341.43,977.842 1349.43,977.342 1357.5,978.5 Z"/></g>
<g><path style="opacity:0.998" fill="#626262" d="M 1345.5,980.5 C 1356.98,981.474 1368.48,982.141 1380,982.5C 1411.15,980.689 1442.31,980.189 1473.5,981C 1473.83,981.333 1474.17,981.667 1474.5,982C 1472.81,986.074 1471.31,990.24 1470,994.5C 1469.03,996.305 1467.86,997.972 1466.5,999.5C 1461.08,1001.72 1455.41,1002.88 1449.5,1003C 1432.5,1003.67 1415.5,1003.67 1398.5,1003C 1395.82,1002.32 1394.15,1000.65 1393.5,998C 1395.21,993.778 1396.71,989.611 1398,985.5C 1394.84,989.156 1392.17,993.156 1390,997.5C 1388.36,999.81 1386.2,1001.31 1383.5,1002C 1378.49,1002.5 1373.49,1002.33 1368.5,1001.5C 1342.58,1006.14 1316.58,1006.64 1290.5,1003C 1282.38,1002.88 1277.21,999.047 1275,991.5C 1274.5,989.527 1274.34,987.527 1274.5,985.5C 1296.16,984.657 1317.82,983.824 1339.5,983C 1341.72,982.434 1343.72,981.6 1345.5,980.5 Z"/></g>
<g><path style="opacity:0.793" fill="#474747" d="M 1788.5,983.5 C 1769.9,985.697 1751.24,987.03 1732.5,987.5C 1732.61,986.883 1732.94,986.383 1733.5,986C 1750.39,985.516 1767.22,984.349 1784,982.5C 1785.71,982.508 1787.21,982.842 1788.5,983.5 Z"/></g>
<g><path style="opacity:0.531" fill="#3d3d3d" d="M 1606.5,995.5 C 1596.46,995.836 1586.46,996.502 1576.5,997.5C 1576.92,996.778 1577.58,996.278 1578.5,996C 1585.84,995.583 1593.17,995.083 1600.5,994.5C 1602.7,994.505 1604.7,994.838 1606.5,995.5 Z"/></g>
</svg>
