<?xml version="1.0" encoding="UTF-8"?>
<!DOCTYPE svg PUBLIC "-//W3C//DTD SVG 1.1//EN" "http://www.w3.org/Graphics/SVG/1.1/DTD/svg11.dtd">
<svg xmlns="http://www.w3.org/2000/svg" version="1.1" width="2118px" height="1156px" style="shape-rendering:geometricPrecision; text-rendering:geometricPrecision; image-rendering:optimizeQuality; fill-rule:evenodd; clip-rule:evenodd" xmlns:xlink="http://www.w3.org/1999/xlink">
<g><path style="opacity:0.999" fill="#666666" d="M 574.5,596.5 C 587.164,596.9 599.831,597.233 612.5,597.5C 613.167,597.5 613.833,597.5 614.5,597.5C 621.32,599.194 628.32,600.527 635.5,601.5C 637.415,601.216 639.081,601.549 640.5,602.5C 642.438,604.163 644.772,604.829 647.5,604.5C 663.061,608.353 677.728,614.353 691.5,622.5C 691.821,624.048 692.821,624.715 694.5,624.5C 706.455,630.95 717.455,638.783 727.5,648C 706.943,660.546 688.11,675.38 671,692.5C 667.812,696.901 664.645,701.234 661.5,705.5C 660.094,705.973 659.427,706.973 659.5,708.5C 657.879,711.567 655.879,714.401 653.5,717C 652.551,717.617 651.718,717.451 651,716.5C 655.072,701.546 650.905,689.546 638.5,680.5C 638.027,679.094 637.027,678.427 635.5,678.5C 627.524,674.921 619.191,672.421 610.5,671C 575.167,670.333 539.833,670.333 504.5,671C 452.229,674.679 399.895,676.179 347.5,675.5C 342.766,673.855 337.766,673.189 332.5,673.5C 326.828,673.24 321.161,672.907 315.5,672.5C 315.389,671.883 315.056,671.383 314.5,671C 311.833,670.667 309.167,670.333 306.5,670C 303.304,669.195 300.304,669.362 297.5,670.5C 297.167,670.5 296.833,670.5 296.5,670.5C 296.389,669.883 296.056,669.383 295.5,669C 291.514,668.501 287.514,668.334 283.5,668.5C 260.475,667.134 237.475,665.467 214.5,663.5C 208.75,661.85 202.75,661.184 196.5,661.5C 193.833,661.5 191.167,661.5 188.5,661.5C 183.097,659.795 177.43,659.128 171.5,659.5C 156.423,659.376 141.423,658.376 126.5,656.5C 127.005,655.081 128.005,654.415 129.5,654.5C 131.027,654.573 132.027,653.906 132.5,652.5C 134.509,650.935 136.843,649.935 139.5,649.5C 141.027,649.573 142.027,648.906 142.5,647.5C 144.713,646.227 147.046,645.227 149.5,644.5C 154.032,643.895 158.032,642.228 161.5,639.5C 163.701,638.434 166.035,637.767 168.5,637.5C 172.162,637.277 175.495,636.277 178.5,634.5C 184.191,632.293 190.191,630.959 196.5,630.5C 201.795,630.322 206.795,629.322 211.5,627.5C 230.705,623.946 250.038,620.946 269.5,618.5C 281.483,618.026 293.15,616.36 304.5,613.5C 305.167,613.5 305.833,613.5 306.5,613.5C 314.837,613.444 322.837,612.111 330.5,609.5C 335.708,607.992 341.041,606.992 346.5,606.5C 350.817,606.917 354.817,606.25 358.5,604.5C 359.167,604.5 359.833,604.5 360.5,604.5C 366.545,604.572 372.545,604.072 378.5,603C 379.416,602.722 380.082,602.222 380.5,601.5C 381.167,601.5 381.833,601.5 382.5,601.5C 385.428,601.435 388.095,600.768 390.5,599.5C 429.833,599.5 469.167,599.5 508.5,599.5C 530.604,600.187 552.604,599.187 574.5,596.5 Z"/></g>
<g><path style="opacity:0.547" fill="#323232" d="M 574.5,596.5 C 587.184,595.5 599.851,595.834 612.5,597.5C 599.831,597.233 587.164,596.9 574.5,596.5 Z"/></g>
<g><path style="opacity:1" fill="#666666" d="M 1187.5,595.5 C 1193.41,597.456 1199.75,598.123 1206.5,597.5C 1207.17,597.5 1207.83,597.5 1208.5,597.5C 1215.32,599.194 1222.32,600.527 1229.5,601.5C 1247.41,604.958 1264.41,610.958 1280.5,619.5C 1280.82,621.048 1281.82,621.715 1283.5,621.5C 1298.89,629.872 1312.89,640.205 1325.5,652.5C 1327.43,656.1 1330.1,659.1 1333.5,661.5C 1338.5,665.833 1343.17,670.5 1347.5,675.5C 1348.76,678.427 1350.76,680.761 1353.5,682.5C 1355.26,683.326 1356.6,684.659 1357.5,686.5C 1358.04,688.117 1358.37,689.784 1358.5,691.5C 1355.35,698.461 1351.18,704.794 1346,710.5C 1327.97,728.702 1309.8,746.702 1291.5,764.5C 1289.83,765.5 1288.5,766.833 1287.5,768.5C 1284.88,772.791 1281.54,776.457 1277.5,779.5C 1276.09,779.973 1275.43,780.973 1275.5,782.5C 1274.5,784.167 1273.17,785.5 1271.5,786.5C 1270.09,786.973 1269.43,787.973 1269.5,789.5C 1266.8,792.526 1264.14,795.526 1261.5,798.5C 1260.09,798.973 1259.43,799.973 1259.5,801.5C 1257.82,803.54 1256.16,805.54 1254.5,807.5C 1253.09,807.973 1252.43,808.973 1252.5,810.5C 1249.73,815.045 1246.73,819.378 1243.5,823.5C 1242.09,823.973 1241.43,824.973 1241.5,826.5C 1233.76,840.988 1226.26,855.655 1219,870.5C 1213.26,871.475 1207.43,871.808 1201.5,871.5C 1181.15,871.702 1160.82,871.369 1140.5,870.5C 1140.99,868.194 1141.33,865.861 1141.5,863.5C 1142.9,859.71 1144.56,856.043 1146.5,852.5C 1147.91,852.027 1148.57,851.027 1148.5,849.5C 1150.98,843.213 1153.98,837.213 1157.5,831.5C 1158.91,831.027 1159.57,830.027 1159.5,828.5C 1159.99,826.181 1160.99,824.181 1162.5,822.5C 1163.91,822.027 1164.57,821.027 1164.5,819.5C 1166,815.827 1168,812.494 1170.5,809.5C 1171.91,809.027 1172.57,808.027 1172.5,806.5C 1173.91,806.027 1174.57,805.027 1174.5,803.5C 1176.26,802.738 1177.26,801.404 1177.5,799.5C 1179.26,798.738 1180.26,797.404 1180.5,795.5C 1180.74,793.596 1181.74,792.262 1183.5,791.5C 1185.59,790.415 1186.92,788.749 1187.5,786.5C 1189.26,785.738 1190.26,784.404 1190.5,782.5C 1190.83,781.5 1191.5,780.833 1192.5,780.5C 1194.91,779.089 1196.58,777.089 1197.5,774.5C 1199.59,773.415 1200.92,771.749 1201.5,769.5C 1203.21,767.118 1205.21,765.118 1207.5,763.5C 1210.24,761.761 1212.24,759.427 1213.5,756.5C 1214.5,754.833 1215.83,753.5 1217.5,752.5C 1221.23,749.769 1224.23,746.436 1226.5,742.5C 1227.5,740.833 1228.83,739.5 1230.5,738.5C 1232.59,737.415 1233.92,735.749 1234.5,733.5C 1234.43,731.973 1235.09,730.973 1236.5,730.5C 1237.91,730.027 1238.57,729.027 1238.5,727.5C 1241.55,721.402 1244.05,715.069 1246,708.5C 1246.82,703.349 1246.32,698.349 1244.5,693.5C 1244.71,691.821 1244.05,690.821 1242.5,690.5C 1236.22,682.688 1228.22,677.354 1218.5,674.5C 1216.08,672.138 1213.08,671.138 1209.5,671.5C 1172.86,670.525 1136.19,670.192 1099.5,670.5C 1093.49,670.334 1087.49,670.501 1081.5,671C 1080.58,671.278 1079.92,671.778 1079.5,672.5C 1074.17,672.5 1068.83,672.5 1063.5,672.5C 1054.49,672.334 1045.49,672.5 1036.5,673C 1034.29,673.191 1032.29,673.691 1030.5,674.5C 998.842,675.57 967.176,675.737 935.5,675C 929.083,674.418 922.75,673.584 916.5,672.5C 911.056,671.116 905.389,670.45 899.5,670.5C 898.5,670.5 897.5,670.5 896.5,670.5C 891.221,668.689 885.888,668.356 880.5,669.5C 880.167,669.5 879.833,669.5 879.5,669.5C 879.389,668.883 879.056,668.383 878.5,668C 874.179,667.501 869.846,667.334 865.5,667.5C 851.782,667.041 838.116,666.041 824.5,664.5C 819.852,663.546 815.019,662.88 810,662.5C 808.293,662.508 806.793,662.842 805.5,663.5C 805.167,663.5 804.833,663.5 804.5,663.5C 804.082,662.778 803.416,662.278 802.5,662C 798.514,661.501 794.514,661.334 790.5,661.5C 767.116,660.274 743.783,658.608 720.5,656.5C 721.005,655.081 722.005,654.415 723.5,654.5C 725.848,654.408 727.514,653.408 728.5,651.5C 729.93,650.463 731.597,649.796 733.5,649.5C 735.027,649.573 736.027,648.906 736.5,647.5C 744.73,643.053 753.396,639.719 762.5,637.5C 767.722,636.613 772.722,635.279 777.5,633.5C 780.152,633.59 782.485,632.924 784.5,631.5C 796.341,628.599 808.341,626.599 820.5,625.5C 828.501,625.334 836.168,624.001 843.5,621.5C 843.833,621.5 844.167,621.5 844.5,621.5C 851.465,621.601 858.132,620.601 864.5,618.5C 873.775,618.118 882.775,616.785 891.5,614.5C 892.5,614.5 893.5,614.5 894.5,614.5C 900.537,614.874 906.203,613.874 911.5,611.5C 912.167,611.5 912.833,611.5 913.5,611.5C 918.1,611.72 922.433,611.054 926.5,609.5C 932.873,607.292 939.54,605.959 946.5,605.5C 952.861,605.397 959.194,604.897 965.5,604C 968.851,603.943 971.851,603.109 974.5,601.5C 976.435,600.85 978.435,600.517 980.5,600.5C 1021.15,599.529 1061.81,599.195 1102.5,599.5C 1114.5,599.5 1126.5,599.5 1138.5,599.5C 1140.3,600.162 1142.3,600.495 1144.5,600.5C 1147.53,600.713 1150.19,600.047 1152.5,598.5C 1164.02,596.068 1175.69,595.068 1187.5,595.5 Z"/></g>
<g><path style="opacity:0.709" fill="#424242" d="M 1187.5,595.5 C 1193.93,596.13 1200.27,596.797 1206.5,597.5C 1199.75,598.123 1193.41,597.456 1187.5,595.5 Z"/></g>
<g><path style="opacity:0.673" fill="#494949" d="M 508.5,599.5 C 469.167,599.5 429.833,599.5 390.5,599.5C 399.038,598.807 407.704,598.14 416.5,597.5C 447.294,598.159 477.961,598.826 508.5,599.5 Z"/></g>
<g><path style="opacity:0.677" fill="#494949" d="M 1102.5,599.5 C 1061.81,599.195 1021.15,599.529 980.5,600.5C 981.609,599.71 982.942,599.21 984.5,599C 993.368,598.792 1002.2,598.292 1011,597.5C 1041.64,598.156 1072.14,598.822 1102.5,599.5 Z"/></g>
<g><path style="opacity:0.31" fill="#3e3e3e" d="M 1208.5,597.5 C 1215.84,597.733 1222.84,599.066 1229.5,601.5C 1222.32,600.527 1215.32,599.194 1208.5,597.5 Z"/></g>
<g><path style="opacity:0.384" fill="#383838" d="M 614.5,597.5 C 621.839,597.733 628.839,599.066 635.5,601.5C 628.32,600.527 621.32,599.194 614.5,597.5 Z"/></g>
<g><path style="opacity:0.829" fill="#434343" d="M 1152.5,598.5 C 1150.19,600.047 1147.53,600.713 1144.5,600.5C 1142.3,600.495 1140.3,600.162 1138.5,599.5C 1143.19,599.46 1147.86,599.127 1152.5,598.5 Z"/></g>
<g><path style="opacity:0.553" fill="#3c3c3c" d="M 390.5,599.5 C 388.095,600.768 385.428,601.435 382.5,601.5C 384.838,599.96 387.505,599.294 390.5,599.5 Z"/></g>
<g><path style="opacity:0.488" fill="#464646" d="M 380.5,601.5 C 380.082,602.222 379.416,602.722 378.5,603C 372.545,604.072 366.545,604.572 360.5,604.5C 367.031,603.507 373.698,602.507 380.5,601.5 Z"/></g>
<g><path style="opacity:0.565" fill="#3b3b3b" d="M 640.5,602.5 C 643.067,602.721 645.401,603.388 647.5,604.5C 644.772,604.829 642.438,604.163 640.5,602.5 Z"/></g>
<g><path style="opacity:0.54" fill="#444444" d="M 974.5,601.5 C 971.851,603.109 968.851,603.943 965.5,604C 959.194,604.897 952.861,605.397 946.5,605.5C 955.689,604.104 965.023,602.771 974.5,601.5 Z"/></g>
<g><path style="opacity:0.81" fill="#474747" d="M 358.5,604.5 C 354.817,606.25 350.817,606.917 346.5,606.5C 350.267,605.205 354.267,604.539 358.5,604.5 Z"/></g>
<g><path style="opacity:0.804" fill="#414141" d="M 926.5,609.5 C 922.433,611.054 918.1,611.72 913.5,611.5C 917.591,610.105 921.924,609.438 926.5,609.5 Z"/></g>
<g><path style="opacity:0.827" fill="#434343" d="M 330.5,609.5 C 322.837,612.111 314.837,613.444 306.5,613.5C 314.267,611.539 322.267,610.206 330.5,609.5 Z"/></g>
<g><path style="opacity:0.888" fill="#474747" d="M 911.5,611.5 C 906.203,613.874 900.537,614.874 894.5,614.5C 899.948,612.98 905.614,611.98 911.5,611.5 Z"/></g>
<g><path style="opacity:0.698" fill="#474747" d="M 304.5,613.5 C 293.15,616.36 281.483,618.026 269.5,618.5C 280.976,616.438 292.643,614.771 304.5,613.5 Z"/></g>
<g><path style="opacity:0.594" fill="#414141" d="M 891.5,614.5 C 882.775,616.785 873.775,618.118 864.5,618.5C 873.287,616.625 882.287,615.292 891.5,614.5 Z"/></g>
<g><path style="opacity:0.847" fill="#484848" d="M 864.5,618.5 C 858.132,620.601 851.465,621.601 844.5,621.5C 850.979,620.145 857.646,619.145 864.5,618.5 Z"/></g>
<g><path style="opacity:0.612" fill="#2b2b2b" d="M 1280.5,619.5 C 1281.71,619.932 1282.71,620.599 1283.5,621.5C 1281.82,621.715 1280.82,621.048 1280.5,619.5 Z"/></g>
<g><path style="opacity:0.612" fill="#292929" d="M 691.5,622.5 C 692.71,622.932 693.71,623.599 694.5,624.5C 692.821,624.715 691.821,624.048 691.5,622.5 Z"/></g>
<g><path style="opacity:0.849" fill="#474747" d="M 843.5,621.5 C 836.168,624.001 828.501,625.334 820.5,625.5C 827.91,623.443 835.577,622.109 843.5,621.5 Z"/></g>
<g><path style="opacity:0.545" fill="#3a3a3a" d="M 211.5,627.5 C 206.795,629.322 201.795,630.322 196.5,630.5C 201.248,628.862 206.248,627.862 211.5,627.5 Z"/></g>
<g><path style="opacity:0.62" fill="#393939" d="M 784.5,631.5 C 782.485,632.924 780.152,633.59 777.5,633.5C 779.515,632.076 781.848,631.41 784.5,631.5 Z"/></g>
<g><path style="opacity:0.671" fill="#3b3b3b" d="M 178.5,634.5 C 175.495,636.277 172.162,637.277 168.5,637.5C 171.452,635.59 174.786,634.59 178.5,634.5 Z"/></g>
<g><path style="opacity:0.62" fill="#3b3b3b" d="M 777.5,633.5 C 772.722,635.279 767.722,636.613 762.5,637.5C 767.112,635.095 772.112,633.762 777.5,633.5 Z"/></g>
<g><path style="opacity:0.612" fill="#3d3d3d" d="M 161.5,639.5 C 158.032,642.228 154.032,643.895 149.5,644.5C 153.099,642.072 157.099,640.406 161.5,639.5 Z"/></g>
<g><path style="opacity:0.482" fill="#2b2b2b" d="M 142.5,647.5 C 142.027,648.906 141.027,649.573 139.5,649.5C 139.973,648.094 140.973,647.427 142.5,647.5 Z"/></g>
<g><path style="opacity:0.388" fill="#242424" d="M 736.5,647.5 C 736.027,648.906 735.027,649.573 733.5,649.5C 733.973,648.094 734.973,647.427 736.5,647.5 Z"/></g>
<g><path style="opacity:0.451" fill="#2b2b2b" d="M 132.5,652.5 C 132.027,653.906 131.027,654.573 129.5,654.5C 129.973,653.094 130.973,652.427 132.5,652.5 Z"/></g>
<g><path style="opacity:0.322" fill="#2d2d2d" d="M 728.5,651.5 C 727.514,653.408 725.848,654.408 723.5,654.5C 724.659,652.75 726.326,651.75 728.5,651.5 Z"/></g>
<g><path style="opacity:0.255" fill="#1a1a1a" d="M 1325.5,652.5 C 1328.9,654.9 1331.57,657.9 1333.5,661.5C 1330.1,659.1 1327.43,656.1 1325.5,652.5 Z"/></g>
<g><path style="opacity:0.565" fill="#363636" d="M 171.5,659.5 C 177.43,659.128 183.097,659.795 188.5,661.5C 182.651,661.184 176.984,660.518 171.5,659.5 Z"/></g>
<g><path style="opacity:0.349" fill="#444444" d="M 152.5,661.5 C 140.45,661.207 128.45,661.541 116.5,662.5C 116.611,661.883 116.944,661.383 117.5,661C 129.341,660.174 141.007,660.341 152.5,661.5 Z"/></g>
<g><path style="opacity:1" fill="#676767" d="M 152.5,661.5 C 154.5,661.5 156.5,661.5 158.5,661.5C 159.609,662.29 160.942,662.79 162.5,663C 172.15,663.877 181.817,664.377 191.5,664.5C 197.529,664.425 203.529,664.759 209.5,665.5C 214.903,667.205 220.57,667.872 226.5,667.5C 228.5,667.5 230.5,667.5 232.5,667.5C 233.609,668.29 234.942,668.79 236.5,669C 241.823,669.499 247.156,669.666 252.5,669.5C 258.536,669.36 264.536,669.693 270.5,670.5C 277.588,672.239 284.921,672.906 292.5,672.5C 296.234,672.323 299.901,672.656 303.5,673.5C 314.599,675.654 325.933,676.987 337.5,677.5C 337.833,677.5 338.167,677.5 338.5,677.5C 339.609,678.29 340.942,678.79 342.5,679C 360.338,679.829 378.005,679.662 395.5,678.5C 417.842,677.798 440.175,676.798 462.5,675.5C 465.314,676.165 468.314,676.498 471.5,676.5C 482.051,676.203 492.385,675.203 502.5,673.5C 525.656,672.581 548.823,671.914 572,671.5C 584.56,671.344 597.06,672.011 609.5,673.5C 609.611,674.117 609.944,674.617 610.5,675C 612.473,675.495 614.473,675.662 616.5,675.5C 616.833,675.5 617.167,675.5 617.5,675.5C 619.438,677.163 621.772,677.829 624.5,677.5C 632.434,679.553 639.267,683.553 645,689.5C 646.122,691.407 646.955,693.407 647.5,695.5C 648.507,701.144 648.507,706.811 647.5,712.5C 641.869,728.072 632.535,741.072 619.5,751.5C 618.094,751.973 617.427,752.973 617.5,754.5C 610.841,762.492 603.841,770.159 596.5,777.5C 595.094,777.973 594.427,778.973 594.5,780.5C 572.448,807.916 554.448,837.916 540.5,870.5C 530.515,869.644 520.515,868.977 510.5,868.5C 509.833,868.5 509.167,868.5 508.5,868.5C 502.395,867.004 496.062,866.337 489.5,866.5C 488.5,866.5 487.5,866.5 486.5,866.5C 482.455,864.823 478.122,864.156 473.5,864.5C 466.722,864.487 460.055,863.82 453.5,862.5C 448.056,861.116 442.389,860.45 436.5,860.5C 427.036,860.316 417.703,859.316 408.5,857.5C 402.395,856.004 396.062,855.337 389.5,855.5C 383.739,853.943 377.739,853.276 371.5,853.5C 370.167,853.5 368.833,853.5 367.5,853.5C 363.817,851.75 359.817,851.083 355.5,851.5C 355.167,851.5 354.833,851.5 354.5,851.5C 349.402,850.043 344.069,849.376 338.5,849.5C 334.452,849.605 330.452,849.272 326.5,848.5C 326.082,847.778 325.416,847.278 324.5,847C 318.173,846.349 311.84,845.849 305.5,845.5C 298.775,845.227 292.108,844.561 285.5,843.5C 274.742,841.303 263.742,839.97 252.5,839.5C 252.167,839.5 251.833,839.5 251.5,839.5C 244.787,837.45 237.787,836.45 230.5,836.5C 224.712,835.19 218.712,834.523 212.5,834.5C 205.371,833.602 199.371,830.602 194.5,825.5C 194.027,824.094 193.027,823.427 191.5,823.5C 190.833,822.5 190.167,821.5 189.5,820.5C 188.892,817.594 187.559,815.26 185.5,813.5C 184.463,812.07 183.796,810.403 183.5,808.5C 183.448,805.654 182.448,803.32 180.5,801.5C 176.605,792.586 174.271,783.252 173.5,773.5C 173.678,769.878 173.011,766.544 171.5,763.5C 171.5,763.167 171.5,762.833 171.5,762.5C 171.932,759.123 171.265,756.123 169.5,753.5C 168.781,751.236 168.448,748.903 168.5,746.5C 168.662,744.473 168.495,742.473 168,740.5C 167.617,739.944 167.117,739.611 166.5,739.5C 163.899,732.833 158.899,729 151.5,728C 135.208,724.397 118.874,721.23 102.5,718.5C 95.776,716.492 88.776,715.492 81.5,715.5C 76.1667,715.5 70.8333,715.5 65.5,715.5C 65.6535,713.03 66.6535,711.03 68.5,709.5C 69.9063,709.027 70.573,708.027 70.5,706.5C 71.3403,704.147 72.6736,702.147 74.5,700.5C 76.5869,699.415 77.9202,697.749 78.5,695.5C 80.7657,691.564 83.7657,688.231 87.5,685.5C 91.1002,683.57 94.1002,680.903 96.5,677.5C 101.109,672.529 106.443,668.529 112.5,665.5C 114.404,665.262 115.738,664.262 116.5,662.5C 128.45,661.541 140.45,661.207 152.5,661.5 Z"/></g>
<g><path style="opacity:0.557" fill="#383838" d="M 196.5,661.5 C 202.75,661.184 208.75,661.85 214.5,663.5C 208.312,663.243 202.312,662.577 196.5,661.5 Z"/></g>
<g><path style="opacity:1" fill="#676767" d="M 712.5,661.5 C 728.509,661.5 744.509,661.834 760.5,662.5C 761.167,662.5 761.833,662.5 762.5,662.5C 769.937,664.132 777.604,664.799 785.5,664.5C 791.529,664.425 797.529,664.759 803.5,665.5C 803.918,666.222 804.584,666.722 805.5,667C 810.489,667.499 815.489,667.666 820.5,667.5C 824.371,667.185 828.038,667.518 831.5,668.5C 840.963,669.947 850.63,670.613 860.5,670.5C 861.167,670.5 861.833,670.5 862.5,670.5C 870.271,672.155 878.271,672.822 886.5,672.5C 888.167,672.5 889.833,672.5 891.5,672.5C 891.611,673.117 891.944,673.617 892.5,674C 899.815,674.832 907.148,675.332 914.5,675.5C 920.617,675.515 926.617,676.182 932.5,677.5C 933.609,678.29 934.942,678.79 936.5,679C 946.667,679.167 956.833,679.333 967,679.5C 983.026,679.648 998.86,678.982 1014.5,677.5C 1026.83,677.067 1039.16,676.734 1051.5,676.5C 1066.4,676.653 1081.06,675.653 1095.5,673.5C 1128.18,671.777 1160.85,671.444 1193.5,672.5C 1201.64,674.472 1209.97,676.138 1218.5,677.5C 1222.89,678.403 1226.89,680.069 1230.5,682.5C 1230.97,683.906 1231.97,684.573 1233.5,684.5C 1237.3,686.963 1239.97,690.296 1241.5,694.5C 1242.77,700.828 1242.77,707.161 1241.5,713.5C 1239.78,719.935 1236.78,725.602 1232.5,730.5C 1231.09,730.973 1230.43,731.973 1230.5,733.5C 1226.87,738.461 1222.87,743.128 1218.5,747.5C 1216.5,747.5 1215.5,748.5 1215.5,750.5C 1209.83,756.5 1204.17,762.5 1198.5,768.5C 1197.09,768.973 1196.43,769.973 1196.5,771.5C 1193.14,775.192 1189.8,778.859 1186.5,782.5C 1185.09,782.973 1184.43,783.973 1184.5,785.5C 1176.11,796.402 1168.27,807.736 1161,819.5C 1151.6,836.31 1142.76,853.31 1134.5,870.5C 1127.5,870.106 1120.5,869.773 1113.5,869.5C 1105.79,869.193 1098.13,868.526 1090.5,867.5C 1080.1,865.105 1069.43,863.772 1058.5,863.5C 1054.43,863.693 1050.43,863.36 1046.5,862.5C 1037.54,860.731 1028.37,859.398 1019,858.5C 1017.29,858.508 1015.79,858.842 1014.5,859.5C 1004.03,858.223 993.692,856.89 983.5,855.5C 977.739,853.943 971.739,853.276 965.5,853.5C 959.738,853.268 954.072,852.601 948.5,851.5C 943.402,850.043 938.069,849.376 932.5,849.5C 923.943,849.221 915.609,848.221 907.5,846.5C 902.071,844.988 896.404,844.321 890.5,844.5C 881.065,844.023 871.732,843.023 862.5,841.5C 857.417,839.922 852.084,839.255 846.5,839.5C 845.833,839.5 845.167,839.5 844.5,839.5C 840.817,837.75 836.817,837.083 832.5,837.5C 828.785,837.577 825.119,837.244 821.5,836.5C 816.783,834.762 811.783,834.096 806.5,834.5C 801.063,834.11 796.396,832.11 792.5,828.5C 792.027,827.094 791.027,826.427 789.5,826.5C 786.5,824.332 784,821.666 782,818.5C 777.077,808.895 773.244,798.895 770.5,788.5C 770.889,785.447 770.223,782.78 768.5,780.5C 768.5,780.167 768.5,779.833 768.5,779.5C 768.329,774.804 767.829,770.137 767,765.5C 766.722,764.584 766.222,763.918 765.5,763.5C 765.5,762.5 765.5,761.5 765.5,760.5C 765.328,756.466 764.828,752.466 764,748.5C 763.617,747.944 763.117,747.611 762.5,747.5C 761.702,742.939 760.202,738.606 758,734.5C 751.958,729.926 745.125,727.092 737.5,726C 723.847,723.302 710.181,720.802 696.5,718.5C 689.776,716.492 682.776,715.492 675.5,715.5C 670.125,715.828 664.792,715.495 659.5,714.5C 659.942,713.261 660.609,712.261 661.5,711.5C 662.906,711.027 663.573,710.027 663.5,708.5C 663.328,707.508 663.662,706.842 664.5,706.5C 665.906,706.027 666.573,705.027 666.5,703.5C 668.262,702.738 669.262,701.404 669.5,699.5C 671.587,698.415 672.92,696.749 673.5,694.5C 673.5,693.167 674.167,692.5 675.5,692.5C 676.906,692.027 677.573,691.027 677.5,689.5C 677.833,688.5 678.5,687.833 679.5,687.5C 683.1,685.57 686.1,682.903 688.5,679.5C 690.173,676.833 692.507,674.833 695.5,673.5C 697.404,673.262 698.738,672.262 699.5,670.5C 703.553,667.117 707.886,664.117 712.5,661.5 Z"/></g>
<g><path style="opacity:0.722" fill="#464646" d="M 712.5,661.5 C 717.99,660.834 723.657,660.501 729.5,660.5C 740.034,660.442 750.367,661.108 760.5,662.5C 744.509,661.834 728.509,661.5 712.5,661.5 Z"/></g>
<g><path style="opacity:0.545" fill="#363636" d="M 790.5,661.5 C 794.514,661.334 798.514,661.501 802.5,662C 803.416,662.278 804.082,662.778 804.5,663.5C 799.676,663.008 795.01,662.341 790.5,661.5 Z"/></g>
<g><path style="opacity:0.612" fill="#3e3e3e" d="M 158.5,661.5 C 169.673,662.213 180.673,663.213 191.5,664.5C 181.817,664.377 172.15,663.877 162.5,663C 160.942,662.79 159.609,662.29 158.5,661.5 Z"/></g>
<g><path style="opacity:0.259" fill="#2a2a2a" d="M 116.5,662.5 C 115.738,664.262 114.404,665.262 112.5,665.5C 113.262,663.738 114.596,662.738 116.5,662.5 Z"/></g>
<g><path style="opacity:0.392" fill="#3e3e3e" d="M 762.5,662.5 C 770.35,662.749 778.017,663.416 785.5,664.5C 777.604,664.799 769.937,664.132 762.5,662.5 Z"/></g>
<g><path style="opacity:0.227" fill="#343434" d="M 805.5,663.5 C 806.793,662.842 808.293,662.508 810,662.5C 815.019,662.88 819.852,663.546 824.5,664.5C 818.155,664.347 811.822,664.014 805.5,663.5 Z"/></g>
<g><path style="opacity:0.302" fill="#2f2f2f" d="M 209.5,665.5 C 215.349,665.816 221.016,666.482 226.5,667.5C 220.57,667.872 214.903,667.205 209.5,665.5 Z"/></g>
<g><path style="opacity:0.579" fill="#373737" d="M 803.5,665.5 C 809.349,665.816 815.016,666.482 820.5,667.5C 815.489,667.666 810.489,667.499 805.5,667C 804.584,666.722 803.918,666.222 803.5,665.5 Z"/></g>
<g><path style="opacity:0.656" fill="#3b3b3b" d="M 865.5,667.5 C 869.846,667.334 874.179,667.501 878.5,668C 879.056,668.383 879.389,668.883 879.5,669.5C 874.695,668.94 870.029,668.273 865.5,667.5 Z"/></g>
<g><path style="opacity:0.518" fill="#3e3e3e" d="M 232.5,667.5 C 239.332,667.951 245.998,668.617 252.5,669.5C 247.156,669.666 241.823,669.499 236.5,669C 234.942,668.79 233.609,668.29 232.5,667.5 Z"/></g>
<g><path style="opacity:0.584" fill="#353535" d="M 283.5,668.5 C 287.514,668.334 291.514,668.501 295.5,669C 296.056,669.383 296.389,669.883 296.5,670.5C 292.027,669.949 287.693,669.283 283.5,668.5 Z"/></g>
<g><path style="opacity:0.761" fill="#424242" d="M 831.5,668.5 C 841.365,668.468 851.031,669.135 860.5,670.5C 850.63,670.613 840.963,669.947 831.5,668.5 Z"/></g>
<g><path style="opacity:0.065" fill="#2f2f2f" d="M 880.5,669.5 C 885.888,668.356 891.221,668.689 896.5,670.5C 891.167,670.167 885.833,669.833 880.5,669.5 Z"/></g>
<g><path style="opacity:0.529" fill="#3b3b3b" d="M 297.5,670.5 C 300.304,669.362 303.304,669.195 306.5,670C 309.167,670.333 311.833,670.667 314.5,671C 315.056,671.383 315.389,671.883 315.5,672.5C 309.572,671.343 303.572,670.676 297.5,670.5 Z"/></g>
<g><path style="opacity:0.569" fill="#383838" d="M 899.5,670.5 C 905.389,670.45 911.056,671.116 916.5,672.5C 910.611,672.55 904.944,671.884 899.5,670.5 Z"/></g>
<g><path style="opacity:0.566" fill="#303030" d="M 1099.5,670.5 C 1092.98,671.281 1086.31,671.948 1079.5,672.5C 1079.92,671.778 1080.58,671.278 1081.5,671C 1087.49,670.501 1093.49,670.334 1099.5,670.5 Z"/></g>
<g><path style="opacity:0.567" fill="#3b3b3b" d="M 270.5,670.5 C 278.007,670.864 285.341,671.53 292.5,672.5C 284.921,672.906 277.588,672.239 270.5,670.5 Z"/></g>
<g><path style="opacity:0.357" fill="#2b2b2b" d="M 699.5,670.5 C 698.738,672.262 697.404,673.262 695.5,673.5C 696.262,671.738 697.596,670.738 699.5,670.5 Z"/></g>
<g><path style="opacity:0.553" fill="#383838" d="M 862.5,670.5 C 870.686,670.702 878.686,671.369 886.5,672.5C 878.271,672.822 870.271,672.155 862.5,670.5 Z"/></g>
<g><path style="opacity:0.686" fill="#313131" d="M 1209.5,671.5 C 1213.08,671.138 1216.08,672.138 1218.5,674.5C 1215.34,673.669 1212.34,672.669 1209.5,671.5 Z"/></g>
<g><path style="opacity:0.58" fill="#3d3d3d" d="M 1063.5,672.5 C 1052.67,673.452 1041.67,674.118 1030.5,674.5C 1032.29,673.691 1034.29,673.191 1036.5,673C 1045.49,672.5 1054.49,672.334 1063.5,672.5 Z"/></g>
<g><path style="opacity:0.618" fill="#3e3e3e" d="M 332.5,673.5 C 337.766,673.189 342.766,673.855 347.5,675.5C 342.306,675.259 337.306,674.593 332.5,673.5 Z"/></g>
<g><path style="opacity:0.576" fill="#474747" d="M 502.5,673.5 C 492.385,675.203 482.051,676.203 471.5,676.5C 468.314,676.498 465.314,676.165 462.5,675.5C 475.84,674.951 489.173,674.284 502.5,673.5 Z"/></g>
<g><path style="opacity:0.459" fill="#373737" d="M 609.5,673.5 C 612.01,673.927 614.343,674.593 616.5,675.5C 614.473,675.662 612.473,675.495 610.5,675C 609.944,674.617 609.611,674.117 609.5,673.5 Z"/></g>
<g><path style="opacity:0.456" fill="#3b3b3b" d="M 891.5,672.5 C 899.335,673.27 907.002,674.27 914.5,675.5C 907.148,675.332 899.815,674.832 892.5,674C 891.944,673.617 891.611,673.117 891.5,672.5 Z"/></g>
<g><path style="opacity:0.729" fill="#3c3c3c" d="M 1095.5,673.5 C 1081.06,675.653 1066.4,676.653 1051.5,676.5C 1065.99,675.195 1080.66,674.195 1095.5,673.5 Z"/></g>
<g><path style="opacity:0.496" fill="#383838" d="M 1193.5,672.5 C 1202.19,673 1210.53,674.667 1218.5,677.5C 1209.97,676.138 1201.64,674.472 1193.5,672.5 Z"/></g>
<g><path style="opacity:0.512" fill="#383838" d="M 303.5,673.5 C 315.049,674.19 326.382,675.523 337.5,677.5C 325.933,676.987 314.599,675.654 303.5,673.5 Z"/></g>
<g><path style="opacity:0.51" fill="#373737" d="M 617.5,675.5 C 620.067,675.721 622.401,676.388 624.5,677.5C 621.772,677.829 619.438,677.163 617.5,675.5 Z"/></g>
<g><path style="opacity:0.565" fill="#292929" d="M 1347.5,675.5 C 1350.24,677.239 1352.24,679.573 1353.5,682.5C 1350.76,680.761 1348.76,678.427 1347.5,675.5 Z"/></g>
<g><path style="opacity:0.325" fill="#444444" d="M 338.5,677.5 C 357.489,678.283 376.489,678.616 395.5,678.5C 378.005,679.662 360.338,679.829 342.5,679C 340.942,678.79 339.609,678.29 338.5,677.5 Z"/></g>
<g><path style="opacity:0.823" fill="#3f3f3f" d="M 932.5,677.5 C 959.831,678.734 987.164,678.734 1014.5,677.5C 998.86,678.982 983.026,679.648 967,679.5C 956.833,679.333 946.667,679.167 936.5,679C 934.942,678.79 933.609,678.29 932.5,677.5 Z"/></g>
<g><path style="opacity:0.216" fill="#272727" d="M 635.5,678.5 C 637.027,678.427 638.027,679.094 638.5,680.5C 636.973,680.573 635.973,679.906 635.5,678.5 Z"/></g>
<g><path style="opacity:0.714" fill="#3f3f3f" d="M 96.5,677.5 C 94.1002,680.903 91.1002,683.57 87.5,685.5C 89.8998,682.097 92.8998,679.43 96.5,677.5 Z"/></g>
<g><path style="opacity:0.004" fill="#121212" d="M 1230.5,682.5 C 1232.03,682.427 1233.03,683.094 1233.5,684.5C 1231.97,684.573 1230.97,683.906 1230.5,682.5 Z"/></g>
<g><path style="opacity:0.604" fill="#3a3a3a" d="M 688.5,679.5 C 686.1,682.903 683.1,685.57 679.5,687.5C 681.9,684.097 684.9,681.43 688.5,679.5 Z"/></g>
<g><path style="opacity:0.271" fill="#262626" d="M 1357.5,686.5 C 1360.87,687.799 1361.21,689.466 1358.5,691.5C 1358.37,689.784 1358.04,688.117 1357.5,686.5 Z"/></g>
<g><path style="opacity:0.435" fill="#2b2b2b" d="M 677.5,689.5 C 677.573,691.027 676.906,692.027 675.5,692.5C 675.427,690.973 676.094,689.973 677.5,689.5 Z"/></g>
<g><path style="opacity:0.604" fill="#2a2a2a" d="M 1242.5,690.5 C 1244.05,690.821 1244.71,691.821 1244.5,693.5C 1243.6,692.71 1242.93,691.71 1242.5,690.5 Z"/></g>
<g><path style="opacity:0.337" fill="#2a2a2a" d="M 673.5,694.5 C 672.92,696.749 671.587,698.415 669.5,699.5C 670.08,697.251 671.413,695.585 673.5,694.5 Z"/></g>
<g><path style="opacity:0.165" fill="#292929" d="M 78.5,695.5 C 77.9202,697.749 76.5869,699.415 74.5,700.5C 75.0798,698.251 76.4131,696.585 78.5,695.5 Z"/></g>
<g><path style="opacity:0.082" fill="#353535" d="M 647.5,695.5 C 650.103,701.151 650.103,706.818 647.5,712.5C 648.507,706.811 648.507,701.144 647.5,695.5 Z"/></g>
<g><path style="opacity:0.267" fill="#262626" d="M 669.5,699.5 C 669.262,701.404 668.262,702.738 666.5,703.5C 666.738,701.596 667.738,700.262 669.5,699.5 Z"/></g>
<g><path style="opacity:0.265" fill="#353535" d="M 1241.5,694.5 C 1242.99,697.186 1243.66,700.186 1243.5,703.5C 1243.6,707.117 1242.94,710.45 1241.5,713.5C 1242.77,707.161 1242.77,700.828 1241.5,694.5 Z"/></g>
<g><path style="opacity:0.125" fill="#1e1e1e" d="M 666.5,703.5 C 666.573,705.027 665.906,706.027 664.5,706.5C 664.427,704.973 665.094,703.973 666.5,703.5 Z"/></g>
<g><path style="opacity:0.027" fill="#232323" d="M 661.5,705.5 C 661.573,707.027 660.906,708.027 659.5,708.5C 659.427,706.973 660.094,705.973 661.5,705.5 Z"/></g>
<g><path style="opacity:0.169" fill="#292929" d="M 70.5,706.5 C 70.573,708.027 69.9063,709.027 68.5,709.5C 68.427,707.973 69.0937,706.973 70.5,706.5 Z"/></g>
<g><path style="opacity:0.153" fill="#272727" d="M 663.5,708.5 C 663.573,710.027 662.906,711.027 661.5,711.5C 661.427,709.973 662.094,708.973 663.5,708.5 Z"/></g>
<g><path style="opacity:0.71" fill="#383838" d="M 81.5,715.5 C 88.776,715.492 95.776,716.492 102.5,718.5C 95.3013,717.948 88.3013,716.948 81.5,715.5 Z"/></g>
<g><path style="opacity:0.682" fill="#353535" d="M 675.5,715.5 C 682.776,715.492 689.776,716.492 696.5,718.5C 689.301,717.948 682.301,716.948 675.5,715.5 Z"/></g>
<g><path style="opacity:0.208" fill="#282828" d="M 1238.5,727.5 C 1238.57,729.027 1237.91,730.027 1236.5,730.5C 1236.43,728.973 1237.09,727.973 1238.5,727.5 Z"/></g>
<g><path style="opacity:0.004" fill="#171717" d="M 1232.5,730.5 C 1232.57,732.027 1231.91,733.027 1230.5,733.5C 1230.43,731.973 1231.09,730.973 1232.5,730.5 Z"/></g>
<g><path style="opacity:0.294" fill="#2e2e2e" d="M 1234.5,733.5 C 1233.92,735.749 1232.59,737.415 1230.5,738.5C 1231.08,736.251 1232.41,734.585 1234.5,733.5 Z"/></g>
<g><path style="opacity:0.584" fill="#323232" d="M 166.5,739.5 C 167.117,739.611 167.617,739.944 168,740.5C 168.495,742.473 168.662,744.473 168.5,746.5C 167.593,744.343 166.927,742.01 166.5,739.5 Z"/></g>
<g><path style="opacity:0.576" fill="#2e2e2e" d="M 630.5,748.5 C 630.631,747.761 630.464,747.094 630,746.5C 628.871,748.141 627.371,749.141 625.5,749.5C 626.708,746.956 628.708,745.622 631.5,745.5C 631.737,746.791 631.404,747.791 630.5,748.5 Z"/></g>
<g><path style="opacity:0.999" fill="#656565" d="M 630.5,748.5 C 629.367,752.567 628.033,756.567 626.5,760.5C 624.787,761.635 624.12,763.302 624.5,765.5C 622.502,769.126 621.502,773.126 621.5,777.5C 620.484,790.15 620.318,802.817 621,815.5C 621.806,820.418 623.306,825.085 625.5,829.5C 625.427,831.027 626.094,832.027 627.5,832.5C 628.89,833.899 629.89,835.566 630.5,837.5C 630.427,839.027 631.094,840.027 632.5,840.5C 633.222,840.918 633.722,841.584 634,842.5C 634.667,845.167 634.667,847.833 634,850.5C 631,857.167 628,863.833 625,870.5C 618.924,871.476 612.758,871.81 606.5,871.5C 586.142,871.836 565.808,871.336 545.5,870C 547.016,868.103 547.683,865.936 547.5,863.5C 550.385,855.399 554.051,847.733 558.5,840.5C 560.931,838.954 562.264,836.621 562.5,833.5C 562.992,831.181 563.992,829.181 565.5,827.5C 566.906,827.027 567.573,826.027 567.5,824.5C 567.66,822.847 568.326,821.514 569.5,820.5C 570.906,820.027 571.573,819.027 571.5,817.5C 571.328,816.508 571.662,815.842 572.5,815.5C 573.906,815.027 574.573,814.027 574.5,812.5C 578.095,805.638 582.428,799.304 587.5,793.5C 589.914,792.089 591.581,790.089 592.5,787.5C 594.587,786.415 595.92,784.749 596.5,782.5C 598.459,778.874 601.126,775.874 604.5,773.5C 606.914,772.089 608.581,770.089 609.5,767.5C 609.833,766.5 610.5,765.833 611.5,765.5C 614.903,763.1 617.57,760.1 619.5,756.5C 620.167,755.167 621.167,754.167 622.5,753.5C 624.262,752.738 625.262,751.404 625.5,749.5C 627.371,749.141 628.871,748.141 630,746.5C 630.464,747.094 630.631,747.761 630.5,748.5 Z"/></g>
<g><path style="opacity:0.004" fill="#111111" d="M 1218.5,747.5 C 1217.83,748.833 1216.83,749.833 1215.5,750.5C 1215.5,748.5 1216.5,747.5 1218.5,747.5 Z"/></g>
<g><path style="opacity:0.627" fill="#363636" d="M 762.5,747.5 C 763.117,747.611 763.617,747.944 764,748.5C 764.828,752.466 765.328,756.466 765.5,760.5C 764.137,756.368 763.137,752.035 762.5,747.5 Z"/></g>
<g><path style="opacity:0.235" fill="#222222" d="M 1226.5,742.5 C 1224.23,746.436 1221.23,749.769 1217.5,752.5C 1219.77,748.564 1222.77,745.231 1226.5,742.5 Z"/></g>
<g><path style="opacity:0.365" fill="#282828" d="M 625.5,749.5 C 625.262,751.404 624.262,752.738 622.5,753.5C 622.738,751.596 623.738,750.262 625.5,749.5 Z"/></g>
<g><path style="opacity:0.008" fill="#191919" d="M 619.5,751.5 C 619.573,753.027 618.906,754.027 617.5,754.5C 617.427,752.973 618.094,751.973 619.5,751.5 Z"/></g>
<g><path style="opacity:0.082" fill="#303030" d="M 169.5,753.5 C 171.265,756.123 171.932,759.123 171.5,762.5C 170.525,759.689 169.858,756.689 169.5,753.5 Z"/></g>
<g><path style="opacity:0.514" fill="#2f2f2f" d="M 1213.5,756.5 C 1212.24,759.427 1210.24,761.761 1207.5,763.5C 1208.76,760.573 1210.76,758.239 1213.5,756.5 Z"/></g>
<g><path style="opacity:0.427" fill="#2e2e2e" d="M 619.5,756.5 C 617.57,760.1 614.903,763.1 611.5,765.5C 613.43,761.9 616.097,758.9 619.5,756.5 Z"/></g>
<g><path style="opacity:0.216" fill="#262626" d="M 626.5,760.5 C 626.204,762.403 625.537,764.07 624.5,765.5C 624.12,763.302 624.787,761.635 626.5,760.5 Z"/></g>
<g><path style="opacity:0.551" fill="#343434" d="M 765.5,763.5 C 766.222,763.918 766.722,764.584 767,765.5C 767.829,770.137 768.329,774.804 768.5,779.5C 767.141,774.358 766.141,769.025 765.5,763.5 Z"/></g>
<g><path style="opacity:0.004" fill="#141414" d="M 1291.5,764.5 C 1291.17,766.833 1289.83,768.167 1287.5,768.5C 1288.5,766.833 1289.83,765.5 1291.5,764.5 Z"/></g>
<g><path style="opacity:0.659" fill="#373737" d="M 171.5,763.5 C 173.011,766.544 173.678,769.878 173.5,773.5C 171.989,770.456 171.322,767.122 171.5,763.5 Z"/></g>
<g><path style="opacity:0.71" fill="#3a3a3a" d="M 624.5,765.5 C 624.102,769.761 623.102,773.761 621.5,777.5C 621.502,773.126 622.502,769.126 624.5,765.5 Z"/></g>
<g><path style="opacity:0.004" fill="#171717" d="M 1198.5,768.5 C 1198.57,770.027 1197.91,771.027 1196.5,771.5C 1196.43,769.973 1197.09,768.973 1198.5,768.5 Z"/></g>
<g><path style="opacity:0.38" fill="#2b2b2b" d="M 609.5,767.5 C 608.581,770.089 606.914,772.089 604.5,773.5C 605.419,770.911 607.086,768.911 609.5,767.5 Z"/></g>
<g><path style="opacity:0.247" fill="#202020" d="M 1201.5,769.5 C 1200.92,771.749 1199.59,773.415 1197.5,774.5C 1198.08,772.251 1199.41,770.585 1201.5,769.5 Z"/></g>
<g><path style="opacity:0.463" fill="#303030" d="M 1197.5,774.5 C 1196.58,777.089 1194.91,779.089 1192.5,780.5C 1193.42,777.911 1195.09,775.911 1197.5,774.5 Z"/></g>
<g><path style="opacity:0.004" fill="#171717" d="M 596.5,777.5 C 596.573,779.027 595.906,780.027 594.5,780.5C 594.427,778.973 595.094,777.973 596.5,777.5 Z"/></g>
<g><path style="opacity:0.004" fill="#181818" d="M 1277.5,779.5 C 1277.57,781.027 1276.91,782.027 1275.5,782.5C 1275.43,780.973 1276.09,779.973 1277.5,779.5 Z"/></g>
<g><path style="opacity:0.482" fill="#323232" d="M 768.5,780.5 C 770.223,782.78 770.889,785.447 770.5,788.5C 769.469,786.039 768.802,783.373 768.5,780.5 Z"/></g>
<g><path style="opacity:0.004" fill="#191919" d="M 1186.5,782.5 C 1186.57,784.027 1185.91,785.027 1184.5,785.5C 1184.43,783.973 1185.09,782.973 1186.5,782.5 Z"/></g>
<g><path style="opacity:0.459" fill="#292929" d="M 1190.5,782.5 C 1190.26,784.404 1189.26,785.738 1187.5,786.5C 1187.74,784.596 1188.74,783.262 1190.5,782.5 Z"/></g>
<g><path style="opacity:0.361" fill="#2e2e2e" d="M 596.5,782.5 C 595.92,784.749 594.587,786.415 592.5,787.5C 593.08,785.251 594.413,783.585 596.5,782.5 Z"/></g>
<g><path style="opacity:0.004" fill="#151515" d="M 1271.5,786.5 C 1271.57,788.027 1270.91,789.027 1269.5,789.5C 1269.43,787.973 1270.09,786.973 1271.5,786.5 Z"/></g>
<g><path style="opacity:0.337" fill="#2a2a2a" d="M 1187.5,786.5 C 1186.92,788.749 1185.59,790.415 1183.5,791.5C 1184.08,789.251 1185.41,787.585 1187.5,786.5 Z"/></g>
<g><path style="opacity:0.239" fill="#292929" d="M 592.5,787.5 C 591.581,790.089 589.914,792.089 587.5,793.5C 588.419,790.911 590.086,788.911 592.5,787.5 Z"/></g>
<g><path style="opacity:0.384" fill="#2a2a2a" d="M 1180.5,795.5 C 1180.26,797.404 1179.26,798.738 1177.5,799.5C 1177.74,797.596 1178.74,796.262 1180.5,795.5 Z"/></g>
<g><path style="opacity:0.004" fill="#141414" d="M 1261.5,798.5 C 1261.57,800.027 1260.91,801.027 1259.5,801.5C 1259.43,799.973 1260.09,798.973 1261.5,798.5 Z"/></g>
<g><path style="opacity:0.549" fill="#292929" d="M 1177.5,799.5 C 1177.26,801.404 1176.26,802.738 1174.5,803.5C 1174.74,801.596 1175.74,800.262 1177.5,799.5 Z"/></g>
<g><path style="opacity:0.282" fill="#2a2a2a" d="M 180.5,801.5 C 182.448,803.32 183.448,805.654 183.5,808.5C 181.935,806.491 180.935,804.157 180.5,801.5 Z"/></g>
<g><path style="opacity:0.157" fill="#1f1f1f" d="M 1174.5,803.5 C 1174.57,805.027 1173.91,806.027 1172.5,806.5C 1172.43,804.973 1173.09,803.973 1174.5,803.5 Z"/></g>
<g><path style="opacity:0.133" fill="#1e1e1e" d="M 1172.5,806.5 C 1172.57,808.027 1171.91,809.027 1170.5,809.5C 1170.43,807.973 1171.09,806.973 1172.5,806.5 Z"/></g>
<g><path style="opacity:0.004" fill="#161616" d="M 1254.5,807.5 C 1254.57,809.027 1253.91,810.027 1252.5,810.5C 1252.43,808.973 1253.09,807.973 1254.5,807.5 Z"/></g>
<g><path style="opacity:0.902" fill="#303030" d="M 185.5,813.5 C 187.559,815.26 188.892,817.594 189.5,820.5C 187.428,818.65 186.095,816.317 185.5,813.5 Z"/></g>
<g><path style="opacity:0.169" fill="#202020" d="M 574.5,812.5 C 574.573,814.027 573.906,815.027 572.5,815.5C 572.427,813.973 573.094,812.973 574.5,812.5 Z"/></g>
<g><path style="opacity:0.149" fill="#282828" d="M 571.5,817.5 C 571.573,819.027 570.906,820.027 569.5,820.5C 569.427,818.973 570.094,817.973 571.5,817.5 Z"/></g>
<g><path style="opacity:0.122" fill="#242424" d="M 1164.5,819.5 C 1164.57,821.027 1163.91,822.027 1162.5,822.5C 1162.43,820.973 1163.09,819.973 1164.5,819.5 Z"/></g>
<g><path style="opacity:0.298" fill="#222222" d="M 191.5,823.5 C 193.027,823.427 194.027,824.094 194.5,825.5C 192.973,825.573 191.973,824.906 191.5,823.5 Z"/></g>
<g><path style="opacity:0.035" fill="#1d1d1d" d="M 1243.5,823.5 C 1243.57,825.027 1242.91,826.027 1241.5,826.5C 1241.43,824.973 1242.09,823.973 1243.5,823.5 Z"/></g>
<g><path style="opacity:0.129" fill="#262626" d="M 567.5,824.5 C 567.573,826.027 566.906,827.027 565.5,827.5C 565.427,825.973 566.094,824.973 567.5,824.5 Z"/></g>
<g><path style="opacity:0.169" fill="#222222" d="M 789.5,826.5 C 791.027,826.427 792.027,827.094 792.5,828.5C 790.973,828.573 789.973,827.906 789.5,826.5 Z"/></g>
<g><path style="opacity:0.102" fill="#252525" d="M 1159.5,828.5 C 1159.57,830.027 1158.91,831.027 1157.5,831.5C 1157.43,829.973 1158.09,828.973 1159.5,828.5 Z"/></g>
<g><path style="opacity:0.137" fill="#222222" d="M 625.5,829.5 C 626.906,829.973 627.573,830.973 627.5,832.5C 626.094,832.027 625.427,831.027 625.5,829.5 Z"/></g>
<g><path style="opacity:0.68" fill="#3d3d3d" d="M 212.5,834.5 C 218.712,834.523 224.712,835.19 230.5,836.5C 224.274,836.612 218.274,835.946 212.5,834.5 Z"/></g>
<g><path style="opacity:0.651" fill="#3d3d3d" d="M 806.5,834.5 C 811.783,834.096 816.783,834.762 821.5,836.5C 816.29,836.392 811.29,835.725 806.5,834.5 Z"/></g>
<g><path style="opacity:0.598" fill="#3c3c3c" d="M 230.5,836.5 C 237.787,836.45 244.787,837.45 251.5,839.5C 244.308,838.895 237.308,837.895 230.5,836.5 Z"/></g>
<g><path style="opacity:0.871" fill="#383838" d="M 562.5,833.5 C 562.264,836.621 560.931,838.954 558.5,840.5C 559.079,837.669 560.412,835.336 562.5,833.5 Z"/></g>
<g><path style="opacity:0.608" fill="#393939" d="M 832.5,837.5 C 836.817,837.083 840.817,837.75 844.5,839.5C 840.316,839.149 836.316,838.482 832.5,837.5 Z"/></g>
<g><path style="opacity:0.776" fill="#3b3b3b" d="M 252.5,839.5 C 263.742,839.97 274.742,841.303 285.5,843.5C 274.293,842.738 263.293,841.404 252.5,839.5 Z"/></g>
<g><path style="opacity:0.216" fill="#272727" d="M 630.5,837.5 C 631.906,837.973 632.573,838.973 632.5,840.5C 631.094,840.027 630.427,839.027 630.5,837.5 Z"/></g>
<g><path style="opacity:0.435" fill="#424242" d="M 846.5,839.5 C 852.084,839.255 857.417,839.922 862.5,841.5C 856.949,841.473 851.616,840.806 846.5,839.5 Z"/></g>
<g><path style="opacity:0.749" fill="#404040" d="M 890.5,844.5 C 896.404,844.321 902.071,844.988 907.5,846.5C 901.627,846.404 895.96,845.737 890.5,844.5 Z"/></g>
<g><path style="opacity:0.841" fill="#414141" d="M 305.5,845.5 C 311.84,845.849 318.173,846.349 324.5,847C 325.416,847.278 326.082,847.778 326.5,848.5C 319.294,848 312.294,847 305.5,845.5 Z"/></g>
<g><path style="opacity:0.627" fill="#3d3d3d" d="M 338.5,849.5 C 344.069,849.376 349.402,850.043 354.5,851.5C 348.949,851.473 343.616,850.806 338.5,849.5 Z"/></g>
<g><path style="opacity:0.525" fill="#3b3b3b" d="M 932.5,849.5 C 938.069,849.376 943.402,850.043 948.5,851.5C 942.949,851.473 937.616,850.806 932.5,849.5 Z"/></g>
<g><path style="opacity:0.512" fill="#383838" d="M 355.5,851.5 C 359.817,851.083 363.817,851.75 367.5,853.5C 363.316,853.149 359.316,852.482 355.5,851.5 Z"/></g>
<g><path style="opacity:0.063" fill="#171717" d="M 1148.5,849.5 C 1148.57,851.027 1147.91,852.027 1146.5,852.5C 1146.43,850.973 1147.09,849.973 1148.5,849.5 Z"/></g>
<g><path style="opacity:0.663" fill="#3d3d3d" d="M 371.5,853.5 C 377.739,853.276 383.739,853.943 389.5,855.5C 383.288,855.477 377.288,854.81 371.5,853.5 Z"/></g>
<g><path style="opacity:0.773" fill="#414141" d="M 965.5,853.5 C 971.739,853.276 977.739,853.943 983.5,855.5C 977.301,855.348 971.301,854.682 965.5,853.5 Z"/></g>
<g><path style="opacity:0.624" fill="#404040" d="M 389.5,855.5 C 396.062,855.337 402.395,856.004 408.5,857.5C 401.963,857.414 395.63,856.747 389.5,855.5 Z"/></g>
<g><path style="opacity:0.787" fill="#404040" d="M 1014.5,859.5 C 1015.79,858.842 1017.29,858.508 1019,858.5C 1028.37,859.398 1037.54,860.731 1046.5,862.5C 1035.83,861.5 1025.17,860.5 1014.5,859.5 Z"/></g>
<g><path style="opacity:0.602" fill="#3c3c3c" d="M 436.5,860.5 C 442.389,860.45 448.056,861.116 453.5,862.5C 447.611,862.55 441.944,861.884 436.5,860.5 Z"/></g>
<g><path style="opacity:0.796" fill="#3b3b3b" d="M 1058.5,863.5 C 1069.43,863.772 1080.1,865.105 1090.5,867.5C 1079.64,866.642 1068.97,865.309 1058.5,863.5 Z"/></g>
<g><path style="opacity:0.714" fill="#3a3a3a" d="M 473.5,864.5 C 478.122,864.156 482.455,864.823 486.5,866.5C 481.972,866.23 477.639,865.563 473.5,864.5 Z"/></g>
<g><path style="opacity:0.659" fill="#3c3c3c" d="M 489.5,866.5 C 496.062,866.337 502.395,867.004 508.5,868.5C 501.963,868.414 495.63,867.747 489.5,866.5 Z"/></g>
<g><path style="opacity:0.805" fill="#424242" d="M 510.5,868.5 C 520.515,868.977 530.515,869.644 540.5,870.5C 538.866,871.161 537.033,871.494 535,871.5C 526.636,870.917 518.469,869.917 510.5,868.5 Z"/></g>
<g><path style="opacity:0.903" fill="#3a3a3a" d="M 547.5,863.5 C 547.683,865.936 547.016,868.103 545.5,870C 565.808,871.336 586.142,871.836 606.5,871.5C 585.973,872.804 565.307,872.804 544.5,871.5C 544.733,868.458 545.733,865.792 547.5,863.5 Z"/></g>
<g><path style="opacity:0.098" fill="#2c2c2c" d="M 1113.5,869.5 C 1120.5,869.773 1127.5,870.106 1134.5,870.5C 1127.46,871.559 1120.46,871.225 1113.5,869.5 Z"/></g>
<g><path style="opacity:0.879" fill="#3a3a3a" d="M 1141.5,863.5 C 1141.33,865.861 1140.99,868.194 1140.5,870.5C 1160.82,871.369 1181.15,871.702 1201.5,871.5C 1180.65,872.793 1159.65,872.793 1138.5,871.5C 1138.98,868.557 1139.98,865.89 1141.5,863.5 Z"/></g>
</svg>
