<?xml version="1.0" encoding="UTF-8"?>
<!DOCTYPE svg PUBLIC "-//W3C//DTD SVG 1.1//EN" "http://www.w3.org/Graphics/SVG/1.1/DTD/svg11.dtd">
<svg xmlns="http://www.w3.org/2000/svg" version="1.1" width="2118px" height="1156px" style="shape-rendering:geometricPrecision; text-rendering:geometricPrecision; image-rendering:optimizeQuality; fill-rule:evenodd; clip-rule:evenodd" xmlns:xlink="http://www.w3.org/1999/xlink">
<g><path style="opacity:0.997" fill="#666666" d="M 567.5,484.5 C 577.233,484.109 586.9,484.609 596.5,486C 593.551,505.975 599.551,522.641 614.5,536C 639.012,549.751 662.678,564.751 685.5,581C 707.952,597.784 730.119,614.951 752,632.5C 753.009,634.025 753.509,635.692 753.5,637.5C 747.417,639.705 741.417,642.205 735.5,645C 733.246,646.15 730.913,646.484 728.5,646C 688.25,610.855 641.25,593.355 587.5,593.5C 569.637,594.429 551.804,595.763 534,597.5C 486.849,595.629 439.682,595.129 392.5,596C 377.686,599.894 362.686,601.727 347.5,601.5C 420.8,562.515 494.134,523.515 567.5,484.5 Z"/></g>
<g><path style="opacity:0.997" fill="#666666" d="M 1161.5,484.5 C 1171.23,484.109 1180.9,484.609 1190.5,486C 1188.2,505.765 1194.2,522.432 1208.5,536C 1232.51,549.666 1255.84,564.333 1278.5,580C 1298.17,595 1317.83,610 1337.5,625C 1348.41,633.909 1357.91,644.076 1366,655.5C 1366.67,661.833 1366.67,668.167 1366,674.5C 1364.91,678.766 1363.25,682.766 1361,686.5C 1348.53,672.366 1335.7,658.533 1322.5,645C 1265.45,598.697 1200.62,582.864 1128,597.5C 1080.85,595.62 1033.68,595.12 986.5,596C 971.694,599.95 956.694,601.783 941.5,601.5C 1014.93,562.456 1088.26,523.456 1161.5,484.5 Z"/></g>
</svg>
