<?xml version="1.0" encoding="UTF-8"?>
<!DOCTYPE svg PUBLIC "-//W3C//DTD SVG 1.1//EN" "http://www.w3.org/Graphics/SVG/1.1/DTD/svg11.dtd">
<svg xmlns="http://www.w3.org/2000/svg" version="1.1" width="2118px" height="1156px" style="shape-rendering:geometricPrecision; text-rendering:geometricPrecision; image-rendering:optimizeQuality; fill-rule:evenodd; clip-rule:evenodd" xmlns:xlink="http://www.w3.org/1999/xlink">
<g><path style="opacity:0.871" fill="#373737" d="M 936.5,259.5 C 926.484,259.453 916.484,259.787 906.5,260.5C 912.26,259 918.26,258.333 924.5,258.5C 928.681,258.501 932.681,258.834 936.5,259.5 Z"/></g>
<g><path style="opacity:1" fill="#666666" d="M 936.5,259.5 C 940.234,259.323 943.901,259.656 947.5,260.5C 950.544,262.011 953.878,262.678 957.5,262.5C 960.881,262.46 964.214,262.793 967.5,263.5C 967.611,264.117 967.944,264.617 968.5,265C 972.447,266.154 976.447,266.987 980.5,267.5C 981.167,267.5 981.833,267.5 982.5,267.5C 982.611,268.117 982.944,268.617 983.5,269C 987.112,270.15 990.778,270.983 994.5,271.5C 996.099,271.232 997.432,271.566 998.5,272.5C 999.635,274.213 1001.3,274.88 1003.5,274.5C 1005.79,276.267 1008.46,277.267 1011.5,277.5C 1022.93,281.391 1033.93,286.057 1044.5,291.5C 1045.29,293.104 1046.62,293.771 1048.5,293.5C 1071.33,304.742 1093,317.742 1113.5,332.5C 1114.03,334.446 1115.37,335.446 1117.5,335.5C 1118.03,337.446 1119.37,338.446 1121.5,338.5C 1123.23,339.026 1124.56,340.026 1125.5,341.5C 1126.03,343.446 1127.37,344.446 1129.5,344.5C 1131.39,345.604 1133.06,346.937 1134.5,348.5C 1135.03,350.446 1136.37,351.446 1138.5,351.5C 1139.5,351.833 1140.17,352.5 1140.5,353.5C 1141.03,355.446 1142.37,356.446 1144.5,356.5C 1145.5,356.833 1146.17,357.5 1146.5,358.5C 1147.54,360.531 1149.21,361.864 1151.5,362.5C 1153.5,364.167 1155.5,365.833 1157.5,367.5C 1157.5,369.5 1158.5,370.5 1160.5,370.5C 1162.83,372.167 1164.83,374.167 1166.5,376.5C 1168.57,379.573 1171.24,381.906 1174.5,383.5C 1176.77,387.436 1179.77,390.769 1183.5,393.5C 1185.83,394.5 1187.5,396.167 1188.5,398.5C 1190.28,400.948 1191.62,403.615 1192.5,406.5C 1185.2,414.298 1177.7,421.965 1170,429.5C 1167.03,435.256 1163.2,440.422 1158.5,445C 1144.72,449.224 1132.05,455.558 1120.5,464C 1117.79,466.371 1115.46,469.037 1113.5,472C 1112.5,472.667 1111.5,472.667 1110.5,472C 1107.44,470.141 1104.44,468.308 1101.5,466.5C 1101.03,465.094 1100.03,464.427 1098.5,464.5C 1096.18,464.008 1094.18,463.008 1092.5,461.5C 1092.03,460.094 1091.03,459.427 1089.5,459.5C 1079.5,455.164 1069.5,450.831 1059.5,446.5C 1057.82,444.166 1055.49,443.166 1052.5,443.5C 1031.65,436.453 1010.31,431.287 988.5,428C 972.531,426.676 956.531,426.176 940.5,426.5C 935.448,426.45 930.448,426.95 925.5,428C 924.944,428.383 924.611,428.883 924.5,429.5C 908.337,433.752 893.337,440.419 879.5,449.5C 877.5,449.5 876.5,450.5 876.5,452.5C 872.745,457.003 869.745,462.003 867.5,467.5C 865.72,468.99 865.054,470.99 865.5,473.5C 865.5,477.167 865.5,480.833 865.5,484.5C 864.254,487.293 864.587,489.96 866.5,492.5C 868.009,495.678 869.342,499.011 870.5,502.5C 870.427,504.027 871.094,505.027 872.5,505.5C 872.427,507.027 873.094,508.027 874.5,508.5C 875.5,508.833 876.167,509.5 876.5,510.5C 879.167,515.167 882.833,518.833 887.5,521.5C 889.525,523.196 891.525,524.863 893.5,526.5C 894.035,528.446 895.368,529.446 897.5,529.5C 912.033,537.596 926.366,545.929 940.5,554.5C 940.973,555.906 941.973,556.573 943.5,556.5C 952.13,561.809 960.464,567.475 968.5,573.5C 969.326,575.264 970.659,576.598 972.5,577.5C 973.782,578.708 973.782,580.042 972.5,581.5C 957.815,588.84 943.481,596.673 929.5,605C 919.334,607.8 909.001,609.633 898.5,610.5C 894.183,610.083 890.183,610.75 886.5,612.5C 863.552,616.158 840.552,619.491 817.5,622.5C 814.482,622.335 811.482,622.502 808.5,623C 807.584,623.278 806.918,623.778 806.5,624.5C 803.904,625.265 801.237,625.599 798.5,625.5C 795.813,625.336 793.146,625.503 790.5,626C 789.944,626.383 789.611,626.883 789.5,627.5C 780.498,629.5 771.498,631.5 762.5,633.5C 760.097,633.552 757.764,633.219 755.5,632.5C 754.167,632.5 753.5,631.833 753.5,630.5C 752.415,628.413 750.749,627.08 748.5,626.5C 746.833,625.5 745.5,624.167 744.5,622.5C 743.415,620.413 741.749,619.08 739.5,618.5C 738.415,616.413 736.749,615.08 734.5,614.5C 727.262,610.262 720.596,605.262 714.5,599.5C 713.415,597.413 711.749,596.08 709.5,595.5C 707.596,595.262 706.262,594.262 705.5,592.5C 705.027,591.094 704.027,590.427 702.5,590.5C 694.922,585.883 687.922,580.55 681.5,574.5C 681.027,573.094 680.027,572.427 678.5,572.5C 675.883,571.214 673.55,569.547 671.5,567.5C 671.027,566.094 670.027,565.427 668.5,565.5C 668.027,564.094 667.027,563.427 665.5,563.5C 665.027,562.094 664.027,561.427 662.5,561.5C 660.566,560.89 658.899,559.89 657.5,558.5C 657.027,557.094 656.027,556.427 654.5,556.5C 649.571,554.225 644.904,551.559 640.5,548.5C 640.027,547.094 639.027,546.427 637.5,546.5C 635.847,546.34 634.514,545.674 633.5,544.5C 633.027,543.094 632.027,542.427 630.5,542.5C 629.508,542.672 628.842,542.338 628.5,541.5C 628.027,540.094 627.027,539.427 625.5,539.5C 624.508,539.672 623.842,539.338 623.5,538.5C 623.027,537.094 622.027,536.427 620.5,536.5C 618.596,536.262 617.262,535.262 616.5,533.5C 616.027,532.094 615.027,531.427 613.5,531.5C 611.833,530.5 610.5,529.167 609.5,527.5C 609.573,525.973 608.906,524.973 607.5,524.5C 604.799,521.765 603.132,518.431 602.5,514.5C 602.88,512.302 602.213,510.635 600.5,509.5C 600.5,508.833 600.5,508.167 600.5,507.5C 600.347,501.131 600.68,494.797 601.5,488.5C 604.728,487.586 608.061,487.253 611.5,487.5C 612.167,487.5 612.833,487.5 613.5,487.5C 613.611,488.117 613.944,488.617 614.5,489C 621.479,490.363 628.479,491.53 635.5,492.5C 635.833,492.5 636.167,492.5 636.5,492.5C 638.438,494.163 640.772,494.829 643.5,494.5C 648.339,495.266 653.006,496.266 657.5,497.5C 661.223,498.997 665.223,499.663 669.5,499.5C 672.59,499.478 675.257,498.812 677.5,497.5C 678.435,494.887 678.602,492.221 678,489.5C 676.807,487.114 675.64,484.78 674.5,482.5C 673.833,481.167 672.833,480.167 671.5,479.5C 670.5,479.167 669.833,478.5 669.5,477.5C 668.738,475.738 667.404,474.738 665.5,474.5C 664.738,472.738 663.404,471.738 661.5,471.5C 660.508,471.672 659.842,471.338 659.5,470.5C 659.027,469.094 658.027,468.427 656.5,468.5C 650.643,466.07 644.977,463.403 639.5,460.5C 638.588,459.262 638.421,457.928 639,456.5C 640.376,455.295 641.542,453.962 642.5,452.5C 645.427,451.243 647.761,449.243 649.5,446.5C 652.089,445.581 654.089,443.914 655.5,441.5C 657.749,440.92 659.415,439.587 660.5,437.5C 661.262,435.738 662.596,434.738 664.5,434.5C 666.749,433.92 668.415,432.587 669.5,430.5C 670.783,428.185 672.783,426.852 675.5,426.5C 680.482,428.657 685.149,431.323 689.5,434.5C 690.035,436.446 691.368,437.446 693.5,437.5C 695.833,438.833 698.167,440.167 700.5,441.5C 700.821,443.048 701.821,443.715 703.5,443.5C 709.046,446.44 714.713,449.106 720.5,451.5C 721.99,453.28 723.99,453.946 726.5,453.5C 730.234,453.677 733.901,453.344 737.5,452.5C 739.833,452.167 741.167,450.833 741.5,448.5C 742.665,447.504 743.332,446.171 743.5,444.5C 743.239,441.708 742.239,439.375 740.5,437.5C 734.737,426.302 727.737,415.968 719.5,406.5C 719.446,404.368 718.446,403.035 716.5,402.5C 715.5,402.167 714.833,401.5 714.5,400.5C 714.461,399.417 714.127,398.417 713.5,397.5C 715.523,395.147 717.523,392.814 719.5,390.5C 720.262,388.738 721.596,387.738 723.5,387.5C 725.749,386.92 727.415,385.587 728.5,383.5C 730.749,382.92 732.415,381.587 733.5,379.5C 739.398,372.798 745.065,373.131 750.5,380.5C 751.035,382.446 752.368,383.446 754.5,383.5C 755.035,385.446 756.368,386.446 758.5,386.5C 760.332,387.248 761.999,388.248 763.5,389.5C 764.287,391.104 765.62,391.771 767.5,391.5C 768.635,393.213 770.302,393.88 772.5,393.5C 773.791,393.263 774.791,393.596 775.5,394.5C 777.438,396.163 779.772,396.829 782.5,396.5C 785.017,397.973 787.85,398.64 791,398.5C 792.833,398.333 794.667,398.167 796.5,398C 797.056,397.617 797.389,397.117 797.5,396.5C 801.237,394.702 803.237,391.702 803.5,387.5C 803.662,385.473 803.495,383.473 803,381.5C 802.617,380.944 802.117,380.611 801.5,380.5C 801.443,379.391 801.11,378.391 800.5,377.5C 800.771,375.62 800.104,374.287 798.5,373.5C 796.847,370.869 795.181,368.203 793.5,365.5C 793.573,363.973 792.906,362.973 791.5,362.5C 789.833,361.5 788.5,360.167 787.5,358.5C 786.5,355.5 784.5,353.5 781.5,352.5C 779.521,351.188 777.855,349.521 776.5,347.5C 776.879,345.787 777.879,344.787 779.5,344.5C 781.749,343.92 783.415,342.587 784.5,340.5C 789.315,336.53 794.315,332.697 799.5,329C 803.566,328.205 806.899,329.372 809.5,332.5C 810.035,334.446 811.368,335.446 813.5,335.5C 817.833,338.167 822.167,340.833 826.5,343.5C 827.035,345.446 828.368,346.446 830.5,346.5C 830.833,346.5 831.167,346.5 831.5,346.5C 831.821,348.048 832.821,348.715 834.5,348.5C 837.437,349.472 840.103,350.805 842.5,352.5C 849.259,354.385 856.259,354.885 863.5,354C 866.035,353.072 867.035,351.238 866.5,348.5C 866.641,342.369 865.807,336.369 864,330.5C 860.664,323.157 856.831,316.157 852.5,309.5C 853.552,307.744 855.219,307.077 857.5,307.5C 860.86,307.616 864.193,307.949 867.5,308.5C 867.611,309.117 867.944,309.617 868.5,310C 873.489,310.499 878.489,310.666 883.5,310.5C 891.823,309.926 900.156,309.426 908.5,309C 912.855,307.154 917.188,305.321 921.5,303.5C 923.027,303.573 924.027,302.906 924.5,301.5C 926.404,301.262 927.738,300.262 928.5,298.5C 930.733,296.431 931.4,294.097 930.5,291.5C 930.771,289.62 930.104,288.287 928.5,287.5C 927.599,286.71 926.932,285.71 926.5,284.5C 926.573,282.973 925.906,281.973 924.5,281.5C 920.461,276.46 915.794,272.127 910.5,268.5C 908.824,266.166 906.491,265.166 903.5,265.5C 901.355,265.262 899.688,264.262 898.5,262.5C 900.851,260.771 903.518,260.104 906.5,260.5C 916.484,259.787 926.484,259.453 936.5,259.5 Z"/></g>
<g><path style="opacity:1" fill="#676767" d="M 1527.5,258.5 C 1527.92,259.222 1528.58,259.722 1529.5,260C 1533.15,260.499 1536.82,260.665 1540.5,260.5C 1545.57,260.685 1550.57,261.352 1555.5,262.5C 1557.78,264.223 1560.45,264.889 1563.5,264.5C 1569.27,265.423 1574.93,266.756 1580.5,268.5C 1582.62,270.655 1585.28,271.655 1588.5,271.5C 1606.75,277.127 1624.41,284.127 1641.5,292.5C 1641.82,294.048 1642.82,294.715 1644.5,294.5C 1646.78,294.975 1648.78,295.975 1650.5,297.5C 1650.97,298.906 1651.97,299.573 1653.5,299.5C 1665.28,304.643 1676.28,310.976 1686.5,318.5C 1686.97,319.906 1687.97,320.573 1689.5,320.5C 1694.51,323.001 1699.17,326.001 1703.5,329.5C 1704.03,331.446 1705.37,332.446 1707.5,332.5C 1708.03,334.446 1709.37,335.446 1711.5,335.5C 1714.47,337.147 1717.14,339.147 1719.5,341.5C 1719.97,342.906 1720.97,343.573 1722.5,343.5C 1726.15,345.817 1729.48,348.484 1732.5,351.5C 1732.81,353.144 1733.81,354.144 1735.5,354.5C 1739.73,356.785 1743.39,359.785 1746.5,363.5C 1746.97,364.906 1747.97,365.573 1749.5,365.5C 1752.83,368.5 1756.17,371.5 1759.5,374.5C 1760.83,377.833 1763.17,380.167 1766.5,381.5C 1767.17,384.167 1768.83,385.833 1771.5,386.5C 1771.5,388.5 1772.5,389.5 1774.5,389.5C 1775.42,392.089 1777.09,394.089 1779.5,395.5C 1781.17,396.5 1782.5,397.833 1783.5,399.5C 1784.42,402.089 1786.09,404.089 1788.5,405.5C 1789.5,405.833 1790.17,406.5 1790.5,407.5C 1791.08,409.749 1792.41,411.415 1794.5,412.5C 1795.5,412.833 1796.17,413.5 1796.5,414.5C 1796.43,416.027 1797.09,417.027 1798.5,417.5C 1799.5,417.833 1800.17,418.5 1800.5,419.5C 1800.43,421.027 1801.09,422.027 1802.5,422.5C 1803.08,424.749 1804.41,426.415 1806.5,427.5C 1806.43,429.027 1807.09,430.027 1808.5,430.5C 1810.55,432.55 1812.21,434.883 1813.5,437.5C 1813.43,439.027 1814.09,440.027 1815.5,440.5C 1815.43,442.027 1816.09,443.027 1817.5,443.5C 1818.89,444.899 1819.89,446.566 1820.5,448.5C 1820.43,450.027 1821.09,451.027 1822.5,451.5C 1823.67,452.514 1824.34,453.847 1824.5,455.5C 1824.43,457.027 1825.09,458.027 1826.5,458.5C 1833.07,469.686 1838.4,481.52 1842.5,494C 1835.31,502.694 1827.31,510.527 1818.5,517.5C 1817.17,518.167 1816.17,519.167 1815.5,520.5C 1813.83,522.833 1811.83,524.833 1809.5,526.5C 1808.17,526.5 1807.5,527.167 1807.5,528.5C 1802.83,532.167 1798.17,535.833 1793.5,539.5C 1791.97,539.427 1790.97,540.094 1790.5,541.5C 1790.16,542.338 1789.49,542.672 1788.5,542.5C 1786.5,541.5 1784.5,540.5 1782.5,539.5C 1781.5,538.167 1780.5,536.833 1779.5,535.5C 1779.57,533.973 1778.91,532.973 1777.5,532.5C 1776.5,532.167 1775.83,531.5 1775.5,530.5C 1774.92,528.251 1773.59,526.585 1771.5,525.5C 1766.5,521.167 1761.83,516.5 1757.5,511.5C 1755.1,508.097 1752.1,505.43 1748.5,503.5C 1747.17,503.5 1746.5,502.833 1746.5,501.5C 1746.03,500.094 1745.03,499.427 1743.5,499.5C 1742.5,499.167 1741.83,498.5 1741.5,497.5C 1740.42,495.413 1738.75,494.08 1736.5,493.5C 1735.74,491.738 1734.4,490.738 1732.5,490.5C 1731.74,488.738 1730.4,487.738 1728.5,487.5C 1727.74,485.738 1726.4,484.738 1724.5,484.5C 1724.03,483.094 1723.03,482.427 1721.5,482.5C 1721.03,481.094 1720.03,480.427 1718.5,480.5C 1718.03,479.094 1717.03,478.427 1715.5,478.5C 1715.03,477.094 1714.03,476.427 1712.5,476.5C 1712.03,475.094 1711.03,474.427 1709.5,474.5C 1708.51,474.672 1707.84,474.338 1707.5,473.5C 1707.03,472.094 1706.03,471.427 1704.5,471.5C 1703.51,471.672 1702.84,471.338 1702.5,470.5C 1702.03,469.094 1701.03,468.427 1699.5,468.5C 1698.51,468.672 1697.84,468.338 1697.5,467.5C 1697.03,466.094 1696.03,465.427 1694.5,465.5C 1684.21,460.299 1673.88,455.299 1663.5,450.5C 1661.82,448.166 1659.49,447.166 1656.5,447.5C 1653.6,446.871 1650.94,445.871 1648.5,444.5C 1645.69,442.103 1642.36,440.77 1638.5,440.5C 1634.65,440.106 1630.99,439.106 1627.5,437.5C 1624.92,435.528 1621.92,434.528 1618.5,434.5C 1603.66,431.166 1588.66,428.666 1573.5,427C 1557.82,426.325 1542.15,426.492 1526.5,427.5C 1524.14,427.337 1521.81,427.503 1519.5,428C 1518.94,428.383 1518.61,428.883 1518.5,429.5C 1514.6,430.808 1510.6,431.808 1506.5,432.5C 1504.45,432.402 1502.78,433.069 1501.5,434.5C 1493.93,438.287 1486.26,442.121 1478.5,446C 1464.17,456.5 1457.84,470.666 1459.5,488.5C 1459.05,491.01 1459.72,493.01 1461.5,494.5C 1461.12,496.698 1461.79,498.365 1463.5,499.5C 1463.5,499.833 1463.5,500.167 1463.5,500.5C 1463.43,502.027 1464.09,503.027 1465.5,503.5C 1466.34,503.842 1466.67,504.508 1466.5,505.5C 1467.08,507.749 1468.41,509.415 1470.5,510.5C 1475.5,514.833 1480.17,519.5 1484.5,524.5C 1484.97,525.906 1485.97,526.573 1487.5,526.5C 1488.03,528.446 1489.37,529.446 1491.5,529.5C 1503.36,535.929 1515.03,542.596 1526.5,549.5C 1526.97,550.906 1527.97,551.573 1529.5,551.5C 1537.18,555.67 1544.51,560.337 1551.5,565.5C 1552.03,567.446 1553.37,568.446 1555.5,568.5C 1559.74,570.445 1563.4,573.112 1566.5,576.5C 1566.97,577.906 1567.97,578.573 1569.5,578.5C 1571.39,579.604 1573.06,580.937 1574.5,582.5C 1574.97,583.906 1575.97,584.573 1577.5,584.5C 1579.91,585.701 1581.91,587.367 1583.5,589.5C 1583.97,590.906 1584.97,591.573 1586.5,591.5C 1589.58,593.372 1592.25,595.705 1594.5,598.5C 1594.97,599.906 1595.97,600.573 1597.5,600.5C 1598.5,600.833 1599.17,601.5 1599.5,602.5C 1600.54,604.531 1602.21,605.864 1604.5,606.5C 1606.5,608.167 1608.5,609.833 1610.5,611.5C 1610.5,613.5 1611.5,614.5 1613.5,614.5C 1620.5,620.833 1627.17,627.5 1633.5,634.5C 1634.41,635.964 1634.41,637.298 1633.5,638.5C 1610.99,650.189 1590.83,665.189 1573,683.5C 1563.83,694.349 1558.66,706.849 1557.5,721C 1558.07,725.158 1558.57,729.324 1559,733.5C 1561.25,739.006 1563.75,744.34 1566.5,749.5C 1567.08,751.749 1568.41,753.415 1570.5,754.5C 1574.53,758.195 1578.53,761.862 1582.5,765.5C 1582.97,766.906 1583.97,767.573 1585.5,767.5C 1589.9,770.025 1593.9,773.025 1597.5,776.5C 1597.97,777.906 1598.97,778.573 1600.5,778.5C 1605.87,782.179 1611.2,785.846 1616.5,789.5C 1617.03,791.446 1618.37,792.446 1620.5,792.5C 1622.23,793.026 1623.56,794.026 1624.5,795.5C 1624.97,796.906 1625.97,797.573 1627.5,797.5C 1629.33,798.248 1631,799.248 1632.5,800.5C 1633.03,802.446 1634.37,803.446 1636.5,803.5C 1637.71,803.932 1638.71,804.599 1639.5,805.5C 1640.76,806.979 1641.76,808.646 1642.5,810.5C 1635.78,812.437 1628.78,813.437 1621.5,813.5C 1606.5,812.454 1591.83,810.121 1577.5,806.5C 1575.16,804.96 1572.5,804.294 1569.5,804.5C 1567.9,804.768 1566.57,804.434 1565.5,803.5C 1562.5,801.723 1559.16,800.723 1555.5,800.5C 1555.17,800.5 1554.83,800.5 1554.5,800.5C 1552.9,798.926 1550.9,798.259 1548.5,798.5C 1535.26,795.239 1523.26,797.739 1512.5,806C 1507.94,810.395 1503.6,814.895 1499.5,819.5C 1498.09,819.973 1497.43,820.973 1497.5,822.5C 1496.83,823.833 1495.83,824.833 1494.5,825.5C 1493.09,825.973 1492.43,826.973 1492.5,828.5C 1491.83,829.833 1490.83,830.833 1489.5,831.5C 1488.09,831.973 1487.43,832.973 1487.5,834.5C 1479.41,844.024 1469.41,846.691 1457.5,842.5C 1454.92,840.528 1451.92,839.528 1448.5,839.5C 1444.8,839.093 1441.13,838.426 1437.5,837.5C 1423.75,838.716 1410.42,841.716 1397.5,846.5C 1395.45,846.402 1393.78,847.069 1392.5,848.5C 1364.4,858.018 1335.4,863.352 1305.5,864.5C 1299.89,864.073 1294.55,864.74 1289.5,866.5C 1271.54,868.405 1253.54,870.072 1235.5,871.5C 1231.69,870.676 1227.69,870.176 1223.5,870C 1224.38,868.644 1224.71,867.144 1224.5,865.5C 1227.26,858.976 1230.26,852.643 1233.5,846.5C 1235.93,844.954 1237.26,842.621 1237.5,839.5C 1237.33,838.508 1237.66,837.842 1238.5,837.5C 1239.91,837.027 1240.57,836.027 1240.5,834.5C 1240.33,833.508 1240.66,832.842 1241.5,832.5C 1242.91,832.027 1243.57,831.027 1243.5,829.5C 1244.91,829.027 1245.57,828.027 1245.5,826.5C 1245.33,825.508 1245.66,824.842 1246.5,824.5C 1248.26,823.738 1249.26,822.404 1249.5,820.5C 1250.91,820.027 1251.57,819.027 1251.5,817.5C 1252.91,817.027 1253.57,816.027 1253.5,814.5C 1255.59,813.415 1256.92,811.749 1257.5,809.5C 1258.91,809.027 1259.57,808.027 1259.5,806.5C 1261.91,805.089 1263.58,803.089 1264.5,800.5C 1265.91,800.027 1266.57,799.027 1266.5,797.5C 1266.83,796.5 1267.5,795.833 1268.5,795.5C 1270.91,794.089 1272.58,792.089 1273.5,789.5C 1275.43,785.9 1278.1,782.9 1281.5,780.5C 1283.91,779.089 1285.58,777.089 1286.5,774.5C 1287.5,772.833 1288.83,771.5 1290.5,770.5C 1294.57,767.437 1297.9,763.771 1300.5,759.5C 1305.5,753.833 1310.83,748.5 1316.5,743.5C 1325.75,735.759 1334.58,727.426 1343,718.5C 1343.46,717.906 1343.63,717.239 1343.5,716.5C 1343.83,715.5 1344.5,714.833 1345.5,714.5C 1348.24,712.761 1350.24,710.427 1351.5,707.5C 1353.26,706.738 1354.26,705.404 1354.5,703.5C 1355.91,703.027 1356.57,702.027 1356.5,700.5C 1357.91,700.027 1358.57,699.027 1358.5,697.5C 1358.33,696.508 1358.66,695.842 1359.5,695.5C 1361.25,694.341 1362.25,692.674 1362.5,690.5C 1363.8,686.261 1365.46,682.261 1367.5,678.5C 1368.22,678.082 1368.72,677.416 1369,676.5C 1370.41,670.558 1370.74,664.558 1370,658.5C 1369.72,657.584 1369.22,656.918 1368.5,656.5C 1366.93,654.365 1365.6,652.032 1364.5,649.5C 1364.57,647.973 1363.91,646.973 1362.5,646.5C 1360.83,645.5 1359.5,644.167 1358.5,642.5C 1354.17,636.167 1348.83,630.833 1342.5,626.5C 1340.83,625.5 1339.5,624.167 1338.5,622.5C 1337.09,620.086 1335.09,618.419 1332.5,617.5C 1331.42,615.413 1329.75,614.08 1327.5,613.5C 1322.93,611.262 1318.93,608.262 1315.5,604.5C 1315.03,603.094 1314.03,602.427 1312.5,602.5C 1310.61,601.396 1308.94,600.063 1307.5,598.5C 1306.74,596.738 1305.4,595.738 1303.5,595.5C 1302.42,593.413 1300.75,592.08 1298.5,591.5C 1293.93,589.262 1289.93,586.262 1286.5,582.5C 1286.03,581.094 1285.03,580.427 1283.5,580.5C 1282.42,578.413 1280.75,577.08 1278.5,576.5C 1276.97,576.573 1275.97,575.906 1275.5,574.5C 1274.74,572.738 1273.4,571.738 1271.5,571.5C 1271.03,570.094 1270.03,569.427 1268.5,569.5C 1268.03,568.094 1267.03,567.427 1265.5,567.5C 1265.03,566.094 1264.03,565.427 1262.5,565.5C 1262.03,564.094 1261.03,563.427 1259.5,563.5C 1258.29,563.068 1257.29,562.401 1256.5,561.5C 1256.03,560.094 1255.03,559.427 1253.5,559.5C 1253.03,558.094 1252.03,557.427 1250.5,557.5C 1249.51,557.672 1248.84,557.338 1248.5,556.5C 1248.03,555.094 1247.03,554.427 1245.5,554.5C 1244.51,554.672 1243.84,554.338 1243.5,553.5C 1243.03,552.094 1242.03,551.427 1240.5,551.5C 1238.18,551.008 1236.18,550.008 1234.5,548.5C 1234.03,547.094 1233.03,546.427 1231.5,546.5C 1229.85,546.34 1228.51,545.674 1227.5,544.5C 1227.03,543.094 1226.03,542.427 1224.5,542.5C 1223.51,542.672 1222.84,542.338 1222.5,541.5C 1222.03,540.094 1221.03,539.427 1219.5,539.5C 1218.51,539.672 1217.84,539.338 1217.5,538.5C 1216.74,536.738 1215.4,535.738 1213.5,535.5C 1213.03,534.094 1212.03,533.427 1210.5,533.5C 1209.74,531.738 1208.4,530.738 1206.5,530.5C 1205.5,530.167 1204.83,529.5 1204.5,528.5C 1204.45,526.368 1203.45,525.035 1201.5,524.5C 1197.4,518.865 1195.06,512.532 1194.5,505.5C 1194.51,499.41 1195.18,493.41 1196.5,487.5C 1196.81,486.522 1197.48,485.855 1198.5,485.5C 1201.79,486.382 1205.12,487.048 1208.5,487.5C 1208.61,488.117 1208.94,488.617 1209.5,489C 1211.47,489.495 1213.47,489.662 1215.5,489.5C 1219.29,489.659 1222.96,490.325 1226.5,491.5C 1228.44,493.163 1230.77,493.829 1233.5,493.5C 1236.88,493.959 1240.21,494.626 1243.5,495.5C 1245.78,497.223 1248.45,497.889 1251.5,497.5C 1252.17,497.5 1252.83,497.5 1253.5,497.5C 1257.33,499.275 1261.5,500.275 1266,500.5C 1269.9,500.825 1272.07,499.158 1272.5,495.5C 1272.69,491.968 1272.02,488.635 1270.5,485.5C 1270.57,483.973 1269.91,482.973 1268.5,482.5C 1265.14,479.471 1261.81,476.471 1258.5,473.5C 1258.03,472.094 1257.03,471.427 1255.5,471.5C 1254.51,471.672 1253.84,471.338 1253.5,470.5C 1253.03,469.094 1252.03,468.427 1250.5,468.5C 1249.51,468.672 1248.84,468.338 1248.5,467.5C 1247.31,465.025 1245.31,464.025 1242.5,464.5C 1238.18,463.005 1234.18,461.005 1230.5,458.5C 1230.86,457.478 1231.52,456.811 1232.5,456.5C 1233.83,455.833 1234.83,454.833 1235.5,453.5C 1238.09,452.581 1240.09,450.914 1241.5,448.5C 1244.09,447.581 1246.09,445.914 1247.5,443.5C 1250.09,442.581 1252.09,440.914 1253.5,438.5C 1254.26,436.738 1255.6,435.738 1257.5,435.5C 1259.75,434.92 1261.42,433.587 1262.5,431.5C 1264.75,430.92 1266.42,429.587 1267.5,427.5C 1268.95,426.387 1270.61,426.22 1272.5,427C 1280.9,432.524 1289.23,438.024 1297.5,443.5C 1297.97,444.906 1298.97,445.573 1300.5,445.5C 1306.96,448.488 1313.63,450.988 1320.5,453C 1325.56,454.089 1330.22,453.256 1334.5,450.5C 1336.24,448.987 1337.24,446.987 1337.5,444.5C 1337.36,441.594 1336.36,439.261 1334.5,437.5C 1332.09,432.341 1329.42,427.341 1326.5,422.5C 1326.45,420.368 1325.45,419.035 1323.5,418.5C 1323.45,416.368 1322.45,415.035 1320.5,414.5C 1320.45,412.368 1319.45,411.035 1317.5,410.5C 1315.41,409.415 1314.08,407.749 1313.5,405.5C 1313.14,403.81 1312.14,402.81 1310.5,402.5C 1304.81,397.866 1305.48,394.199 1312.5,391.5C 1314.75,390.92 1316.42,389.587 1317.5,387.5C 1319.75,386.92 1321.42,385.587 1322.5,383.5C 1325.99,379.354 1330.32,376.354 1335.5,374.5C 1340.68,376.354 1345.01,379.354 1348.5,383.5C 1348.97,384.906 1349.97,385.573 1351.5,385.5C 1352.5,386.167 1353.5,386.833 1354.5,387.5C 1354.82,389.048 1355.82,389.715 1357.5,389.5C 1358.29,391.104 1359.62,391.771 1361.5,391.5C 1368.4,393.913 1375.4,395.913 1382.5,397.5C 1385.3,398.638 1388.3,398.805 1391.5,398C 1392.06,397.617 1392.39,397.117 1392.5,396.5C 1395.28,394.448 1396.95,391.615 1397.5,388C 1396.53,382.579 1394.86,377.413 1392.5,372.5C 1392.57,370.973 1391.91,369.973 1390.5,369.5C 1389.6,368.71 1388.93,367.71 1388.5,366.5C 1388.45,364.368 1387.45,363.035 1385.5,362.5C 1382.8,360.766 1380.8,358.432 1379.5,355.5C 1377.43,352.427 1374.76,350.094 1371.5,348.5C 1370.28,347.221 1370.62,346.221 1372.5,345.5C 1374.75,344.92 1376.42,343.587 1377.5,341.5C 1380.6,338.067 1384.27,335.4 1388.5,333.5C 1390.4,333.262 1391.74,332.262 1392.5,330.5C 1395.17,327.833 1397.83,327.833 1400.5,330.5C 1400.97,331.906 1401.97,332.573 1403.5,332.5C 1413.64,339.63 1424.31,345.963 1435.5,351.5C 1435.61,352.117 1435.94,352.617 1436.5,353C 1443.29,354.564 1449.96,354.731 1456.5,353.5C 1457.83,353.5 1459.17,353.5 1460.5,353.5C 1461.53,347.537 1461.7,341.537 1461,335.5C 1460.9,333.347 1460.07,331.681 1458.5,330.5C 1454.87,323.858 1451.21,317.191 1447.5,310.5C 1447.5,309.5 1447.5,308.5 1447.5,307.5C 1449.17,307.5 1450.83,307.5 1452.5,307.5C 1466.45,309.719 1480.45,310.386 1494.5,309.5C 1497.3,310.638 1500.3,310.805 1503.5,310C 1505.32,309.8 1506.65,308.966 1507.5,307.5C 1511.63,304.931 1515.97,302.597 1520.5,300.5C 1523.17,299.833 1524.83,298.167 1525.5,295.5C 1524.22,290.282 1521.89,285.615 1518.5,281.5C 1518.45,279.368 1517.45,278.035 1515.5,277.5C 1514.5,274.5 1512.5,272.5 1509.5,271.5C 1509.03,270.094 1508.03,269.427 1506.5,269.5C 1502.65,268.07 1498.98,266.403 1495.5,264.5C 1494.89,263.609 1494.56,262.609 1494.5,261.5C 1505.2,258.889 1516.2,257.889 1527.5,258.5 Z"/></g>
<g><path style="opacity:0.527" fill="#313131" d="M 1527.5,258.5 C 1531.99,258.976 1536.33,259.642 1540.5,260.5C 1536.82,260.665 1533.15,260.499 1529.5,260C 1528.58,259.722 1527.92,259.222 1527.5,258.5 Z"/></g>
<g><path style="opacity:0.7" fill="#383838" d="M 947.5,260.5 C 951.122,260.322 954.456,260.989 957.5,262.5C 953.878,262.678 950.544,262.011 947.5,260.5 Z"/></g>
<g><path style="opacity:0.494" fill="#292929" d="M 1494.5,261.5 C 1494.56,262.609 1494.89,263.609 1495.5,264.5C 1492.32,263.86 1491.98,262.86 1494.5,261.5 Z"/></g>
<g><path style="opacity:0.459" fill="#2f2f2f" d="M 1555.5,262.5 C 1558.37,262.802 1561.04,263.469 1563.5,264.5C 1560.45,264.889 1557.78,264.223 1555.5,262.5 Z"/></g>
<g><path style="opacity:0.365" fill="#282828" d="M 967.5,263.5 C 972.073,264.388 976.406,265.721 980.5,267.5C 976.447,266.987 972.447,266.154 968.5,265C 967.944,264.617 967.611,264.117 967.5,263.5 Z"/></g>
<g><path style="opacity:0.855" fill="#3a3a3a" d="M 903.5,265.5 C 906.491,265.166 908.824,266.166 910.5,268.5C 907.843,268.065 905.509,267.065 903.5,265.5 Z"/></g>
<g><path style="opacity:0.4" fill="#2c2c2c" d="M 982.5,267.5 C 986.785,268.262 990.785,269.595 994.5,271.5C 990.778,270.983 987.112,270.15 983.5,269C 982.944,268.617 982.611,268.117 982.5,267.5 Z"/></g>
<g><path style="opacity:0.271" fill="#272727" d="M 1506.5,269.5 C 1508.03,269.427 1509.03,270.094 1509.5,271.5C 1507.97,271.573 1506.97,270.906 1506.5,269.5 Z"/></g>
<g><path style="opacity:0.373" fill="#313131" d="M 1580.5,268.5 C 1583.4,269.129 1586.06,270.129 1588.5,271.5C 1585.28,271.655 1582.62,270.655 1580.5,268.5 Z"/></g>
<g><path style="opacity:0.671" fill="#2a2a2a" d="M 1509.5,271.5 C 1512.5,272.5 1514.5,274.5 1515.5,277.5C 1513.17,275.833 1511.17,273.833 1509.5,271.5 Z"/></g>
<g><path style="opacity:0.376" fill="#2a2a2a" d="M 998.5,272.5 C 1000.4,272.796 1002.07,273.463 1003.5,274.5C 1001.3,274.88 999.635,274.213 998.5,272.5 Z"/></g>
<g><path style="opacity:0.173" fill="#2b2b2b" d="M 1003.5,274.5 C 1006.54,274.733 1009.21,275.733 1011.5,277.5C 1008.46,277.267 1005.79,276.267 1003.5,274.5 Z"/></g>
<g><path style="opacity:0.22" fill="#212121" d="M 1515.5,277.5 C 1517.45,278.035 1518.45,279.368 1518.5,281.5C 1517.03,280.564 1516.03,279.23 1515.5,277.5 Z"/></g>
<g><path style="opacity:0.004" fill="#141414" d="M 924.5,281.5 C 925.906,281.973 926.573,282.973 926.5,284.5C 925.094,284.027 924.427,283.027 924.5,281.5 Z"/></g>
<g><path style="opacity:0.106" fill="#232323" d="M 928.5,287.5 C 930.104,288.287 930.771,289.62 930.5,291.5C 929.326,290.486 928.66,289.153 928.5,287.5 Z"/></g>
<g><path style="opacity:0.149" fill="#222222" d="M 1044.5,291.5 C 1046.15,291.66 1047.49,292.326 1048.5,293.5C 1046.62,293.771 1045.29,293.104 1044.5,291.5 Z"/></g>
<g><path style="opacity:0.537" fill="#2a2a2a" d="M 1641.5,292.5 C 1642.71,292.932 1643.71,293.599 1644.5,294.5C 1642.82,294.715 1641.82,294.048 1641.5,292.5 Z"/></g>
<g><path style="opacity:0.576" fill="#363636" d="M 1525.5,295.5 C 1524.83,298.167 1523.17,299.833 1520.5,300.5C 1521.83,298.5 1523.5,296.833 1525.5,295.5 Z"/></g>
<g><path style="opacity:0.059" fill="#212121" d="M 1650.5,297.5 C 1652.03,297.427 1653.03,298.094 1653.5,299.5C 1651.97,299.573 1650.97,298.906 1650.5,297.5 Z"/></g>
<g><path style="opacity:0.243" fill="#242424" d="M 928.5,298.5 C 927.738,300.262 926.404,301.262 924.5,301.5C 925.262,299.738 926.596,298.738 928.5,298.5 Z"/></g>
<g><path style="opacity:0.435" fill="#272727" d="M 924.5,301.5 C 924.027,302.906 923.027,303.573 921.5,303.5C 921.973,302.094 922.973,301.427 924.5,301.5 Z"/></g>
<g><path style="opacity:0.02" fill="#262626" d="M 857.5,307.5 C 855.219,307.077 853.552,307.744 852.5,309.5C 851.596,308.791 851.263,307.791 851.5,306.5C 853.735,306.205 855.735,306.539 857.5,307.5 Z"/></g>
<g><path style="opacity:0.706" fill="#292929" d="M 1452.5,307.5 C 1450.83,307.5 1449.17,307.5 1447.5,307.5C 1447.5,308.5 1447.5,309.5 1447.5,310.5C 1446.61,309.739 1445.94,308.739 1445.5,307.5C 1447.97,306.203 1450.31,306.203 1452.5,307.5 Z"/></g>
<g><path style="opacity:0.212" fill="#303030" d="M 867.5,308.5 C 872.969,309.075 878.302,309.741 883.5,310.5C 878.489,310.666 873.489,310.499 868.5,310C 867.944,309.617 867.611,309.117 867.5,308.5 Z"/></g>
<g><path style="opacity:0.496" fill="#3c3c3c" d="M 1507.5,307.5 C 1506.65,308.966 1505.32,309.8 1503.5,310C 1500.3,310.805 1497.3,310.638 1494.5,309.5C 1498.99,309.731 1503.33,309.064 1507.5,307.5 Z"/></g>
<g><path style="opacity:0.043" fill="#1d1d1d" d="M 1686.5,318.5 C 1688.03,318.427 1689.03,319.094 1689.5,320.5C 1687.97,320.573 1686.97,319.906 1686.5,318.5 Z"/></g>
<g><path style="opacity:0.004" fill="#131313" d="M 1400.5,330.5 C 1402.03,330.427 1403.03,331.094 1403.5,332.5C 1401.97,332.573 1400.97,331.906 1400.5,330.5 Z"/></g>
<g><path style="opacity:0.369" fill="#2a2a2a" d="M 1392.5,330.5 C 1391.74,332.262 1390.4,333.262 1388.5,333.5C 1389.26,331.738 1390.6,330.738 1392.5,330.5 Z"/></g>
<g><path style="opacity:0.267" fill="#212121" d="M 1703.5,329.5 C 1705.23,330.026 1706.56,331.026 1707.5,332.5C 1705.37,332.446 1704.03,331.446 1703.5,329.5 Z"/></g>
<g><path style="opacity:0.694" fill="#292929" d="M 809.5,332.5 C 811.23,333.026 812.564,334.026 813.5,335.5C 811.368,335.446 810.035,334.446 809.5,332.5 Z"/></g>
<g><path style="opacity:0.69" fill="#272727" d="M 1113.5,332.5 C 1115.23,333.026 1116.56,334.026 1117.5,335.5C 1115.37,335.446 1114.03,334.446 1113.5,332.5 Z"/></g>
<g><path style="opacity:0.718" fill="#2b2b2b" d="M 1707.5,332.5 C 1709.23,333.026 1710.56,334.026 1711.5,335.5C 1709.37,335.446 1708.03,334.446 1707.5,332.5 Z"/></g>
<g><path style="opacity:0.384" fill="#2b2b2b" d="M 1117.5,335.5 C 1119.23,336.026 1120.56,337.026 1121.5,338.5C 1119.37,338.446 1118.03,337.446 1117.5,335.5 Z"/></g>
<g><path style="opacity:0.004" fill="#151515" d="M 1719.5,341.5 C 1721.03,341.427 1722.03,342.094 1722.5,343.5C 1720.97,343.573 1719.97,342.906 1719.5,341.5 Z"/></g>
<g><path style="opacity:0.204" fill="#444444" d="M 1458.5,330.5 C 1460.07,331.681 1460.9,333.347 1461,335.5C 1461.7,341.537 1461.53,347.537 1460.5,353.5C 1459.17,353.5 1457.83,353.5 1456.5,353.5C 1457.21,352.596 1458.21,352.263 1459.5,352.5C 1460.94,345.086 1460.6,337.753 1458.5,330.5 Z"/></g>
<g><path style="opacity:0.686" fill="#383838" d="M 784.5,340.5 C 783.415,342.587 781.749,343.92 779.5,344.5C 780.585,342.413 782.251,341.08 784.5,340.5 Z"/></g>
<g><path style="opacity:0.357" fill="#2a2a2a" d="M 1125.5,341.5 C 1127.23,342.026 1128.56,343.026 1129.5,344.5C 1127.37,344.446 1126.03,343.446 1125.5,341.5 Z"/></g>
<g><path style="opacity:0.576" fill="#252525" d="M 826.5,343.5 C 828.23,344.026 829.564,345.026 830.5,346.5C 828.368,346.446 827.035,345.446 826.5,343.5 Z"/></g>
<g><path style="opacity:0.643" fill="#363636" d="M 1377.5,341.5 C 1376.42,343.587 1374.75,344.92 1372.5,345.5C 1373.58,343.413 1375.25,342.08 1377.5,341.5 Z"/></g>
<g><path style="opacity:0.643" fill="#292929" d="M 831.5,346.5 C 832.71,346.932 833.71,347.599 834.5,348.5C 832.821,348.715 831.821,348.048 831.5,346.5 Z"/></g>
<g><path style="opacity:0.373" fill="#202020" d="M 1371.5,348.5 C 1374.76,350.094 1377.43,352.427 1379.5,355.5C 1376.24,353.906 1373.57,351.573 1371.5,348.5 Z"/></g>
<g><path style="opacity:0.255" fill="#242424" d="M 1134.5,348.5 C 1136.23,349.026 1137.56,350.026 1138.5,351.5C 1136.37,351.446 1135.03,350.446 1134.5,348.5 Z"/></g>
<g><path style="opacity:0.439" fill="#222222" d="M 781.5,352.5 C 784.5,353.5 786.5,355.5 787.5,358.5C 785.167,356.833 783.167,354.833 781.5,352.5 Z"/></g>
<g><path style="opacity:0.518" fill="#404040" d="M 866.5,348.5 C 867.035,351.238 866.035,353.072 863.5,354C 856.259,354.885 849.259,354.385 842.5,352.5C 849.159,353.222 855.825,353.389 862.5,353C 864.609,352.093 865.942,350.593 866.5,348.5 Z"/></g>
<g><path style="opacity:0.451" fill="#434343" d="M 1435.5,351.5 C 1442.4,352.992 1449.4,353.659 1456.5,353.5C 1449.96,354.731 1443.29,354.564 1436.5,353C 1435.94,352.617 1435.61,352.117 1435.5,351.5 Z"/></g>
<g><path style="opacity:0.247" fill="#2b2b2b" d="M 1732.5,351.5 C 1734.19,351.856 1735.19,352.856 1735.5,354.5C 1733.81,354.144 1732.81,353.144 1732.5,351.5 Z"/></g>
<g><path style="opacity:0.302" fill="#262626" d="M 1140.5,353.5 C 1142.23,354.026 1143.56,355.026 1144.5,356.5C 1142.37,356.446 1141.03,355.446 1140.5,353.5 Z"/></g>
<g><path style="opacity:0.239" fill="#242424" d="M 1146.5,358.5 C 1148.75,359.124 1150.42,360.457 1151.5,362.5C 1149.21,361.864 1147.54,360.531 1146.5,358.5 Z"/></g>
<g><path style="opacity:0.008" fill="#181818" d="M 791.5,362.5 C 792.906,362.973 793.573,363.973 793.5,365.5C 792.094,365.027 791.427,364.027 791.5,362.5 Z"/></g>
<g><path style="opacity:0.004" fill="#151515" d="M 1746.5,363.5 C 1748.03,363.427 1749.03,364.094 1749.5,365.5C 1747.97,365.573 1746.97,364.906 1746.5,363.5 Z"/></g>
<g><path style="opacity:0.349" fill="#282828" d="M 1385.5,362.5 C 1387.45,363.035 1388.45,364.368 1388.5,366.5C 1387.03,365.564 1386.03,364.23 1385.5,362.5 Z"/></g>
<g><path style="opacity:0.29" fill="#1e1e1e" d="M 1157.5,367.5 C 1158.83,368.167 1159.83,369.167 1160.5,370.5C 1158.5,370.5 1157.5,369.5 1157.5,367.5 Z"/></g>
<g><path style="opacity:0.031" fill="#1f1f1f" d="M 1390.5,369.5 C 1391.91,369.973 1392.57,370.973 1392.5,372.5C 1391.09,372.027 1390.43,371.027 1390.5,369.5 Z"/></g>
<g><path style="opacity:0.067" fill="#1b1b1b" d="M 798.5,373.5 C 800.104,374.287 800.771,375.62 800.5,377.5C 799.326,376.486 798.66,375.153 798.5,373.5 Z"/></g>
<g><path style="opacity:0.306" fill="#1f1f1f" d="M 1759.5,374.5 C 1762.17,376.5 1764.5,378.833 1766.5,381.5C 1763.17,380.167 1760.83,377.833 1759.5,374.5 Z"/></g>
<g><path style="opacity:0.004" fill="#1a1a1a" d="M 1166.5,376.5 C 1169.76,378.094 1172.43,380.427 1174.5,383.5C 1171.24,381.906 1168.57,379.573 1166.5,376.5 Z"/></g>
<g><path style="opacity:0.686" fill="#353535" d="M 733.5,379.5 C 732.415,381.587 730.749,382.92 728.5,383.5C 729.585,381.413 731.251,380.08 733.5,379.5 Z"/></g>
<g><path style="opacity:0.369" fill="#2b2b2b" d="M 750.5,380.5 C 752.23,381.026 753.564,382.026 754.5,383.5C 752.368,383.446 751.035,382.446 750.5,380.5 Z"/></g>
<g><path style="opacity:0.349" fill="#252525" d="M 801.5,380.5 C 802.117,380.611 802.617,380.944 803,381.5C 803.495,383.473 803.662,385.473 803.5,387.5C 802.593,385.343 801.927,383.01 801.5,380.5 Z"/></g>
<g><path style="opacity:0.494" fill="#222222" d="M 1766.5,381.5 C 1768.5,382.833 1770.17,384.5 1771.5,386.5C 1768.83,385.833 1767.17,384.167 1766.5,381.5 Z"/></g>
<g><path style="opacity:0.004" fill="#151515" d="M 1348.5,383.5 C 1350.03,383.427 1351.03,384.094 1351.5,385.5C 1349.97,385.573 1348.97,384.906 1348.5,383.5 Z"/></g>
<g><path style="opacity:0.412" fill="#373737" d="M 728.5,383.5 C 727.415,385.587 725.749,386.92 723.5,387.5C 724.585,385.413 726.251,384.08 728.5,383.5 Z"/></g>
<g><path style="opacity:0.388" fill="#232323" d="M 1174.5,383.5 C 1178.23,386.231 1181.23,389.564 1183.5,393.5C 1179.77,390.769 1176.77,387.436 1174.5,383.5 Z"/></g>
<g><path style="opacity:0.282" fill="#292929" d="M 1322.5,383.5 C 1321.42,385.587 1319.75,386.92 1317.5,387.5C 1318.58,385.413 1320.25,384.08 1322.5,383.5 Z"/></g>
<g><path style="opacity:0.282" fill="#242424" d="M 754.5,383.5 C 756.23,384.026 757.564,385.026 758.5,386.5C 756.368,386.446 755.035,385.446 754.5,383.5 Z"/></g>
<g><path style="opacity:0.49" fill="#222222" d="M 1771.5,386.5 C 1772.83,387.167 1773.83,388.167 1774.5,389.5C 1772.5,389.5 1771.5,388.5 1771.5,386.5 Z"/></g>
<g><path style="opacity:0.702" fill="#2a2a2a" d="M 1354.5,387.5 C 1355.71,387.932 1356.71,388.599 1357.5,389.5C 1355.82,389.715 1354.82,389.048 1354.5,387.5 Z"/></g>
<g><path style="opacity:0.071" fill="#181818" d="M 763.5,389.5 C 765.153,389.66 766.486,390.326 767.5,391.5C 765.62,391.771 764.287,391.104 763.5,389.5 Z"/></g>
<g><path style="opacity:0.6" fill="#343434" d="M 1317.5,387.5 C 1316.42,389.587 1314.75,390.92 1312.5,391.5C 1313.58,389.413 1315.25,388.08 1317.5,387.5 Z"/></g>
<g><path style="opacity:0.106" fill="#232323" d="M 1357.5,389.5 C 1359.15,389.66 1360.49,390.326 1361.5,391.5C 1359.62,391.771 1358.29,391.104 1357.5,389.5 Z"/></g>
<g><path style="opacity:0.373" fill="#212121" d="M 1774.5,389.5 C 1776.91,390.911 1778.58,392.911 1779.5,395.5C 1777.09,394.089 1775.42,392.089 1774.5,389.5 Z"/></g>
<g><path style="opacity:0.286" fill="#292929" d="M 767.5,391.5 C 769.403,391.796 771.07,392.463 772.5,393.5C 770.302,393.88 768.635,393.213 767.5,391.5 Z"/></g>
<g><path style="opacity:0.435" fill="#313131" d="M 775.5,394.5 C 778.067,394.721 780.401,395.388 782.5,396.5C 779.772,396.829 777.438,396.163 775.5,394.5 Z"/></g>
<g><path style="opacity:0.341" fill="#2f2f2f" d="M 719.5,390.5 C 717.523,392.814 715.523,395.147 713.5,397.5C 714.127,398.417 714.461,399.417 714.5,400.5C 712.623,399.341 712.123,397.674 713,395.5C 714.777,393.21 716.944,391.543 719.5,390.5 Z"/></g>
<g><path style="opacity:0.376" fill="#353535" d="M 782.5,396.5 C 787.531,397.591 792.531,397.591 797.5,396.5C 797.389,397.117 797.056,397.617 796.5,398C 794.667,398.167 792.833,398.333 791,398.5C 787.85,398.64 785.017,397.973 782.5,396.5 Z"/></g>
<g><path style="opacity:0.796" fill="#3b3b3b" d="M 1392.5,396.5 C 1392.39,397.117 1392.06,397.617 1391.5,398C 1388.3,398.805 1385.3,398.638 1382.5,397.5C 1385.88,397.54 1389.21,397.207 1392.5,396.5 Z"/></g>
<g><path style="opacity:0.541" fill="#272727" d="M 1188.5,398.5 C 1192.35,400.248 1193.68,402.915 1192.5,406.5C 1191.62,403.615 1190.28,400.948 1188.5,398.5 Z"/></g>
<g><path style="opacity:0.612" fill="#292929" d="M 1783.5,399.5 C 1785.91,400.911 1787.58,402.911 1788.5,405.5C 1786.09,404.089 1784.42,402.089 1783.5,399.5 Z"/></g>
<g><path style="opacity:0.325" fill="#2a2a2a" d="M 716.5,402.5 C 718.446,403.035 719.446,404.368 719.5,406.5C 718.026,405.564 717.026,404.23 716.5,402.5 Z"/></g>
<g><path style="opacity:0.224" fill="#272727" d="M 1310.5,402.5 C 1312.14,402.81 1313.14,403.81 1313.5,405.5C 1311.86,405.19 1310.86,404.19 1310.5,402.5 Z"/></g>
<g><path style="opacity:0.627" fill="#2d2d2d" d="M 1790.5,407.5 C 1792.59,408.585 1793.92,410.251 1794.5,412.5C 1792.41,411.415 1791.08,409.749 1790.5,407.5 Z"/></g>
<g><path style="opacity:0.31" fill="#292929" d="M 1317.5,410.5 C 1319.45,411.035 1320.45,412.368 1320.5,414.5C 1319.03,413.564 1318.03,412.23 1317.5,410.5 Z"/></g>
<g><path style="opacity:0.459" fill="#292929" d="M 1796.5,414.5 C 1797.91,414.973 1798.57,415.973 1798.5,417.5C 1797.09,417.027 1796.43,416.027 1796.5,414.5 Z"/></g>
<g><path style="opacity:0.004" fill="#1c1c1c" d="M 1320.5,414.5 C 1322.45,415.035 1323.45,416.368 1323.5,418.5C 1322.03,417.564 1321.03,416.23 1320.5,414.5 Z"/></g>
<g><path style="opacity:0.329" fill="#252525" d="M 1323.5,418.5 C 1325.45,419.035 1326.45,420.368 1326.5,422.5C 1325.03,421.564 1324.03,420.23 1323.5,418.5 Z"/></g>
<g><path style="opacity:0.267" fill="#262626" d="M 1800.5,419.5 C 1801.91,419.973 1802.57,420.973 1802.5,422.5C 1801.09,422.027 1800.43,421.027 1800.5,419.5 Z"/></g>
<g><path style="opacity:0.265" fill="#363636" d="M 940.5,426.5 C 935.294,427.492 929.961,428.492 924.5,429.5C 924.611,428.883 924.944,428.383 925.5,428C 930.448,426.95 935.448,426.45 940.5,426.5 Z"/></g>
<g><path style="opacity:0.145" fill="#252525" d="M 1802.5,422.5 C 1804.59,423.585 1805.92,425.251 1806.5,427.5C 1804.41,426.415 1803.08,424.749 1802.5,422.5 Z"/></g>
<g><path style="opacity:0.718" fill="#373737" d="M 1526.5,427.5 C 1524.04,428.531 1521.37,429.198 1518.5,429.5C 1518.61,428.883 1518.94,428.383 1519.5,428C 1521.81,427.503 1524.14,427.337 1526.5,427.5 Z"/></g>
<g><path style="opacity:0.255" fill="#242424" d="M 1806.5,427.5 C 1807.91,427.973 1808.57,428.973 1808.5,430.5C 1807.09,430.027 1806.43,429.027 1806.5,427.5 Z"/></g>
<g><path style="opacity:0.671" fill="#353535" d="M 1267.5,427.5 C 1266.42,429.587 1264.75,430.92 1262.5,431.5C 1263.58,429.413 1265.25,428.08 1267.5,427.5 Z"/></g>
<g><path style="opacity:0.388" fill="#313131" d="M 1262.5,431.5 C 1261.42,433.587 1259.75,434.92 1257.5,435.5C 1258.58,433.413 1260.25,432.08 1262.5,431.5 Z"/></g>
<g><path style="opacity:0.702" fill="#353535" d="M 669.5,430.5 C 668.415,432.587 666.749,433.92 664.5,434.5C 665.585,432.413 667.251,431.08 669.5,430.5 Z"/></g>
<g><path style="opacity:0.059" fill="#1e1e1e" d="M 1506.5,432.5 C 1505.22,433.931 1503.55,434.598 1501.5,434.5C 1502.78,433.069 1504.45,432.402 1506.5,432.5 Z"/></g>
<g><path style="opacity:0.651" fill="#2d2d2d" d="M 1618.5,434.5 C 1621.92,434.528 1624.92,435.528 1627.5,437.5C 1624.22,437.072 1621.22,436.072 1618.5,434.5 Z"/></g>
<g><path style="opacity:0.588" fill="#242424" d="M 689.5,434.5 C 691.23,435.026 692.564,436.026 693.5,437.5C 691.368,437.446 690.035,436.446 689.5,434.5 Z"/></g>
<g><path style="opacity:0.247" fill="#262626" d="M 660.5,437.5 C 659.415,439.587 657.749,440.92 655.5,441.5C 656.585,439.413 658.251,438.08 660.5,437.5 Z"/></g>
<g><path style="opacity:0.176" fill="#222222" d="M 1813.5,437.5 C 1814.91,437.973 1815.57,438.973 1815.5,440.5C 1814.09,440.027 1813.43,439.027 1813.5,437.5 Z"/></g>
<g><path style="opacity:0.863" fill="#373737" d="M 1638.5,440.5 C 1642.36,440.77 1645.69,442.103 1648.5,444.5C 1644.85,443.733 1641.52,442.4 1638.5,440.5 Z"/></g>
<g><path style="opacity:0.525" fill="#313131" d="M 1253.5,438.5 C 1252.09,440.914 1250.09,442.581 1247.5,443.5C 1248.91,441.086 1250.91,439.419 1253.5,438.5 Z"/></g>
<g><path style="opacity:0.004" fill="#191919" d="M 700.5,441.5 C 701.71,441.932 702.71,442.599 703.5,443.5C 701.821,443.715 700.821,443.048 700.5,441.5 Z"/></g>
<g><path style="opacity:0.645" fill="#444444" d="M 1334.5,437.5 C 1336.36,439.261 1337.36,441.594 1337.5,444.5C 1337.24,446.987 1336.24,448.987 1334.5,450.5C 1336.86,446.196 1336.86,441.863 1334.5,437.5 Z"/></g>
<g><path style="opacity:0.173" fill="#242424" d="M 1815.5,440.5 C 1816.91,440.973 1817.57,441.973 1817.5,443.5C 1816.09,443.027 1815.43,442.027 1815.5,440.5 Z"/></g>
<g><path style="opacity:0.771" fill="#454545" d="M 740.5,437.5 C 742.239,439.375 743.239,441.708 743.5,444.5C 743.332,446.171 742.665,447.504 741.5,448.5C 742.364,444.869 742.031,441.202 740.5,437.5 Z"/></g>
<g><path style="opacity:0.824" fill="#353535" d="M 1052.5,443.5 C 1055.49,443.166 1057.82,444.166 1059.5,446.5C 1056.84,446.065 1054.51,445.065 1052.5,443.5 Z"/></g>
<g><path style="opacity:0.478" fill="#2e2e2e" d="M 655.5,441.5 C 654.089,443.914 652.089,445.581 649.5,446.5C 650.911,444.086 652.911,442.419 655.5,441.5 Z"/></g>
<g><path style="opacity:0.043" fill="#262626" d="M 1297.5,443.5 C 1299.03,443.427 1300.03,444.094 1300.5,445.5C 1298.97,445.573 1297.97,444.906 1297.5,443.5 Z"/></g>
<g><path style="opacity:0.765" fill="#383838" d="M 1247.5,443.5 C 1246.09,445.914 1244.09,447.581 1241.5,448.5C 1242.91,446.086 1244.91,444.419 1247.5,443.5 Z"/></g>
<g><path style="opacity:0.839" fill="#333333" d="M 1656.5,447.5 C 1659.49,447.166 1661.82,448.166 1663.5,450.5C 1660.84,450.065 1658.51,449.065 1656.5,447.5 Z"/></g>
<g><path style="opacity:0.51" fill="#313131" d="M 649.5,446.5 C 647.761,449.243 645.427,451.243 642.5,452.5C 644.239,449.757 646.573,447.757 649.5,446.5 Z"/></g>
<g><path style="opacity:0.31" fill="#2a2a2a" d="M 741.5,448.5 C 741.167,450.833 739.833,452.167 737.5,452.5C 738.5,450.833 739.833,449.5 741.5,448.5 Z"/></g>
<g><path style="opacity:0.008" fill="#121212" d="M 879.5,449.5 C 878.833,450.833 877.833,451.833 876.5,452.5C 876.5,450.5 877.5,449.5 879.5,449.5 Z"/></g>
<g><path style="opacity:0.137" fill="#212121" d="M 1820.5,448.5 C 1821.91,448.973 1822.57,449.973 1822.5,451.5C 1821.09,451.027 1820.43,450.027 1820.5,448.5 Z"/></g>
<g><path style="opacity:0.4" fill="#2a2a2a" d="M 720.5,451.5 C 722.698,451.875 724.698,452.542 726.5,453.5C 723.99,453.946 721.99,453.28 720.5,451.5 Z"/></g>
<g><path style="opacity:0.718" fill="#393939" d="M 1241.5,448.5 C 1240.09,450.914 1238.09,452.581 1235.5,453.5C 1236.91,451.086 1238.91,449.419 1241.5,448.5 Z"/></g>
<g><path style="opacity:0.235" fill="#1f1f1f" d="M 1235.5,453.5 C 1234.83,454.833 1233.83,455.833 1232.5,456.5C 1232.5,454.5 1233.5,453.5 1235.5,453.5 Z"/></g>
<g><path style="opacity:0.259" fill="#2b2b2b" d="M 642.5,452.5 C 641.542,453.962 640.376,455.295 639,456.5C 638.421,457.928 638.588,459.262 639.5,460.5C 636.162,459.807 635.662,458.14 638,455.5C 639.129,453.859 640.629,452.859 642.5,452.5 Z"/></g>
<g><path style="opacity:0.188" fill="#252525" d="M 1824.5,455.5 C 1825.91,455.973 1826.57,456.973 1826.5,458.5C 1825.09,458.027 1824.43,457.027 1824.5,455.5 Z"/></g>
<g><path style="opacity:0.122" fill="#1e1e1e" d="M 1089.5,459.5 C 1091.03,459.427 1092.03,460.094 1092.5,461.5C 1090.97,461.573 1089.97,460.906 1089.5,459.5 Z"/></g>
<g><path style="opacity:0.882" fill="#383838" d="M 1242.5,464.5 C 1245.31,464.025 1247.31,465.025 1248.5,467.5C 1246.46,466.492 1244.46,465.492 1242.5,464.5 Z"/></g>
<g><path style="opacity:0.094" fill="#171717" d="M 1098.5,464.5 C 1100.03,464.427 1101.03,465.094 1101.5,466.5C 1099.97,466.573 1098.97,465.906 1098.5,464.5 Z"/></g>
<g><path style="opacity:0.137" fill="#242424" d="M 1694.5,465.5 C 1696.03,465.427 1697.03,466.094 1697.5,467.5C 1695.97,467.573 1694.97,466.906 1694.5,465.5 Z"/></g>
<g><path style="opacity:0.153" fill="#262626" d="M 656.5,468.5 C 658.027,468.427 659.027,469.094 659.5,470.5C 657.973,470.573 656.973,469.906 656.5,468.5 Z"/></g>
<g><path style="opacity:0.42" fill="#2a2a2a" d="M 867.5,467.5 C 867.125,469.698 866.458,471.698 865.5,473.5C 865.054,470.99 865.72,468.99 867.5,467.5 Z"/></g>
<g><path style="opacity:0.086" fill="#1e1e1e" d="M 1250.5,468.5 C 1252.03,468.427 1253.03,469.094 1253.5,470.5C 1251.97,470.573 1250.97,469.906 1250.5,468.5 Z"/></g>
<g><path style="opacity:0.102" fill="#232323" d="M 1699.5,468.5 C 1701.03,468.427 1702.03,469.094 1702.5,470.5C 1700.97,470.573 1699.97,469.906 1699.5,468.5 Z"/></g>
<g><path style="opacity:0.365" fill="#292929" d="M 661.5,471.5 C 663.404,471.738 664.738,472.738 665.5,474.5C 663.596,474.262 662.262,473.262 661.5,471.5 Z"/></g>
<g><path style="opacity:0.224" fill="#282828" d="M 1255.5,471.5 C 1257.03,471.427 1258.03,472.094 1258.5,473.5C 1256.97,473.573 1255.97,472.906 1255.5,471.5 Z"/></g>
<g><path style="opacity:0.125" fill="#1e1e1e" d="M 1704.5,471.5 C 1706.03,471.427 1707.03,472.094 1707.5,473.5C 1705.97,473.573 1704.97,472.906 1704.5,471.5 Z"/></g>
<g><path style="opacity:0.58" fill="#2b2b2b" d="M 665.5,474.5 C 667.404,474.738 668.738,475.738 669.5,477.5C 667.596,477.262 666.262,476.262 665.5,474.5 Z"/></g>
<g><path style="opacity:0.231" fill="#292929" d="M 1709.5,474.5 C 1711.03,474.427 1712.03,475.094 1712.5,476.5C 1710.97,476.573 1709.97,475.906 1709.5,474.5 Z"/></g>
<g><path style="opacity:0.169" fill="#262626" d="M 1712.5,476.5 C 1714.03,476.427 1715.03,477.094 1715.5,478.5C 1713.97,478.573 1712.97,477.906 1712.5,476.5 Z"/></g>
<g><path style="opacity:0.18" fill="#212121" d="M 1715.5,478.5 C 1717.03,478.427 1718.03,479.094 1718.5,480.5C 1716.97,480.573 1715.97,479.906 1715.5,478.5 Z"/></g>
<g><path style="opacity:0.004" fill="#191919" d="M 671.5,479.5 C 672.833,480.167 673.833,481.167 674.5,482.5C 672.5,482.5 671.5,481.5 671.5,479.5 Z"/></g>
<g><path style="opacity:0.196" fill="#282828" d="M 1718.5,480.5 C 1720.03,480.427 1721.03,481.094 1721.5,482.5C 1719.97,482.573 1718.97,481.906 1718.5,480.5 Z"/></g>
<g><path style="opacity:0.514" fill="#282828" d="M 1721.5,482.5 C 1723.03,482.427 1724.03,483.094 1724.5,484.5C 1722.97,484.573 1721.97,483.906 1721.5,482.5 Z"/></g>
<g><path style="opacity:0.004" fill="#171717" d="M 1268.5,482.5 C 1269.91,482.973 1270.57,483.973 1270.5,485.5C 1269.09,485.027 1268.43,484.027 1268.5,482.5 Z"/></g>
<g><path style="opacity:0.373" fill="#282828" d="M 1724.5,484.5 C 1726.4,484.738 1727.74,485.738 1728.5,487.5C 1726.6,487.262 1725.26,486.262 1724.5,484.5 Z"/></g>
<g><path style="opacity:0.557" fill="#2e2e2e" d="M 611.5,487.5 C 608.061,487.253 604.728,487.586 601.5,488.5C 601.787,486.879 602.787,485.879 604.5,485.5C 606.982,486.067 609.316,486.734 611.5,487.5 Z"/></g>
<g><path style="opacity:0.573" fill="#292929" d="M 1728.5,487.5 C 1730.4,487.738 1731.74,488.738 1732.5,490.5C 1730.6,490.262 1729.26,489.262 1728.5,487.5 Z"/></g>
<g><path style="opacity:0.71" fill="#353535" d="M 613.5,487.5 C 621.063,488.676 628.396,490.343 635.5,492.5C 628.479,491.53 621.479,490.363 614.5,489C 613.944,488.617 613.611,488.117 613.5,487.5 Z"/></g>
<g><path style="opacity:0.604" fill="#313131" d="M 1208.5,487.5 C 1211.01,487.927 1213.34,488.593 1215.5,489.5C 1213.47,489.662 1211.47,489.495 1209.5,489C 1208.94,488.617 1208.61,488.117 1208.5,487.5 Z"/></g>
<g><path style="opacity:0.553" fill="#292929" d="M 1732.5,490.5 C 1734.4,490.738 1735.74,491.738 1736.5,493.5C 1734.6,493.262 1733.26,492.262 1732.5,490.5 Z"/></g>
<g><path style="opacity:0.4" fill="#383838" d="M 865.5,484.5 C 865.833,487.167 866.167,489.833 866.5,492.5C 864.587,489.96 864.254,487.293 865.5,484.5 Z"/></g>
<g><path style="opacity:0.643" fill="#3b3b3b" d="M 1459.5,488.5 C 1460.74,490.214 1461.41,492.214 1461.5,494.5C 1459.72,493.01 1459.05,491.01 1459.5,488.5 Z"/></g>
<g><path style="opacity:0.451" fill="#303030" d="M 1226.5,491.5 C 1229.07,491.721 1231.4,492.388 1233.5,493.5C 1230.77,493.829 1228.44,493.163 1226.5,491.5 Z"/></g>
<g><path style="opacity:0.408" fill="#313131" d="M 636.5,492.5 C 639.067,492.721 641.401,493.388 643.5,494.5C 640.772,494.829 638.438,494.163 636.5,492.5 Z"/></g>
<g><path style="opacity:0.361" fill="#292929" d="M 1736.5,493.5 C 1738.75,494.08 1740.42,495.413 1741.5,497.5C 1739.25,496.92 1737.58,495.587 1736.5,493.5 Z"/></g>
<g><path style="opacity:0.341" fill="#2b2b2b" d="M 1243.5,495.5 C 1246.37,495.802 1249.04,496.469 1251.5,497.5C 1248.45,497.889 1245.78,497.223 1243.5,495.5 Z"/></g>
<g><path style="opacity:0.331" fill="#363636" d="M 601.5,488.5 C 600.68,494.797 600.347,501.131 600.5,507.5C 599.836,505.022 599.503,502.355 599.5,499.5C 599.294,495.531 599.961,491.865 601.5,488.5 Z"/></g>
<g><path style="opacity:0.561" fill="#2a2a2a" d="M 1461.5,494.5 C 1462.54,495.93 1463.2,497.597 1463.5,499.5C 1461.79,498.365 1461.12,496.698 1461.5,494.5 Z"/></g>
<g><path style="opacity:0.643" fill="#2b2b2b" d="M 657.5,497.5 C 664.223,498.651 670.89,498.651 677.5,497.5C 675.257,498.812 672.59,499.478 669.5,499.5C 665.223,499.663 661.223,498.997 657.5,497.5 Z"/></g>
<g><path style="opacity:0.78" fill="#454545" d="M 1272.5,495.5 C 1272.07,499.158 1269.9,500.825 1266,500.5C 1261.5,500.275 1257.33,499.275 1253.5,497.5C 1259.13,498.521 1264.8,498.687 1270.5,498C 1271.07,497.005 1271.73,496.172 1272.5,495.5 Z"/></g>
<g><path style="opacity:0.467" fill="#282828" d="M 1743.5,499.5 C 1745.03,499.427 1746.03,500.094 1746.5,501.5C 1744.97,501.573 1743.97,500.906 1743.5,499.5 Z"/></g>
<g><path style="opacity:0.139" fill="#303030" d="M 1196.5,487.5 C 1195.18,493.41 1194.51,499.41 1194.5,505.5C 1193.35,501.689 1193.19,497.689 1194,493.5C 1194.04,491.026 1194.87,489.026 1196.5,487.5 Z"/></g>
<g><path style="opacity:0.125" fill="#212121" d="M 1463.5,500.5 C 1464.91,500.973 1465.57,501.973 1465.5,503.5C 1464.09,503.027 1463.43,502.027 1463.5,500.5 Z"/></g>
<g><path style="opacity:0.706" fill="#282828" d="M 1748.5,503.5 C 1752.1,505.43 1755.1,508.097 1757.5,511.5C 1753.9,509.57 1750.9,506.903 1748.5,503.5 Z"/></g>
<g><path style="opacity:0.122" fill="#1e1e1e" d="M 870.5,502.5 C 871.906,502.973 872.573,503.973 872.5,505.5C 871.094,505.027 870.427,504.027 870.5,502.5 Z"/></g>
<g><path style="opacity:0.369" fill="#252525" d="M 872.5,505.5 C 873.906,505.973 874.573,506.973 874.5,508.5C 873.094,508.027 872.427,507.027 872.5,505.5 Z"/></g>
<g><path style="opacity:0.239" fill="#222222" d="M 1466.5,505.5 C 1468.59,506.585 1469.92,508.251 1470.5,510.5C 1468.41,509.415 1467.08,507.749 1466.5,505.5 Z"/></g>
<g><path style="opacity:0.404" fill="#2a2a2a" d="M 600.5,509.5 C 602.213,510.635 602.88,512.302 602.5,514.5C 601.463,513.07 600.796,511.403 600.5,509.5 Z"/></g>
<g><path style="opacity:0.439" fill="#222222" d="M 876.5,510.5 C 880.5,513.833 884.167,517.5 887.5,521.5C 882.833,518.833 879.167,515.167 876.5,510.5 Z"/></g>
<g><path style="opacity:0.004" fill="#121212" d="M 1818.5,517.5 C 1818.5,519.5 1817.5,520.5 1815.5,520.5C 1816.17,519.167 1817.17,518.167 1818.5,517.5 Z"/></g>
<g><path style="opacity:0.004" fill="#1a1a1a" d="M 1484.5,524.5 C 1486.03,524.427 1487.03,525.094 1487.5,526.5C 1485.97,526.573 1484.97,525.906 1484.5,524.5 Z"/></g>
<g><path style="opacity:0.004" fill="#151515" d="M 607.5,524.5 C 608.906,524.973 609.573,525.973 609.5,527.5C 608.094,527.027 607.427,526.027 607.5,524.5 Z"/></g>
<g><path style="opacity:0.231" fill="#232323" d="M 1201.5,524.5 C 1203.45,525.035 1204.45,526.368 1204.5,528.5C 1203.03,527.564 1202.03,526.23 1201.5,524.5 Z"/></g>
<g><path style="opacity:0.004" fill="#1b1b1b" d="M 1771.5,525.5 C 1773.59,526.585 1774.92,528.251 1775.5,530.5C 1773.41,529.415 1772.08,527.749 1771.5,525.5 Z"/></g>
<g><path style="opacity:0.004" fill="#111111" d="M 1809.5,526.5 C 1809.17,527.5 1808.5,528.167 1807.5,528.5C 1807.5,527.167 1808.17,526.5 1809.5,526.5 Z"/></g>
<g><path style="opacity:0.004" fill="#1b1b1b" d="M 893.5,526.5 C 895.23,527.026 896.564,528.026 897.5,529.5C 895.368,529.446 894.035,528.446 893.5,526.5 Z"/></g>
<g><path style="opacity:0.369" fill="#272727" d="M 1487.5,526.5 C 1489.23,527.026 1490.56,528.026 1491.5,529.5C 1489.37,529.446 1488.03,528.446 1487.5,526.5 Z"/></g>
<g><path style="opacity:0.427" fill="#242424" d="M 1206.5,530.5 C 1208.4,530.738 1209.74,531.738 1210.5,533.5C 1208.6,533.262 1207.26,532.262 1206.5,530.5 Z"/></g>
<g><path style="opacity:0.49" fill="#272727" d="M 613.5,531.5 C 615.027,531.427 616.027,532.094 616.5,533.5C 614.973,533.573 613.973,532.906 613.5,531.5 Z"/></g>
<g><path style="opacity:0.004" fill="#151515" d="M 1777.5,532.5 C 1778.91,532.973 1779.57,533.973 1779.5,535.5C 1778.09,535.027 1777.43,534.027 1777.5,532.5 Z"/></g>
<g><path style="opacity:0.318" fill="#2a2a2a" d="M 1210.5,533.5 C 1212.03,533.427 1213.03,534.094 1213.5,535.5C 1211.97,535.573 1210.97,534.906 1210.5,533.5 Z"/></g>
<g><path style="opacity:0.345" fill="#272727" d="M 1213.5,535.5 C 1215.4,535.738 1216.74,536.738 1217.5,538.5C 1215.6,538.262 1214.26,537.262 1213.5,535.5 Z"/></g>
<g><path style="opacity:0.165" fill="#262626" d="M 620.5,536.5 C 622.027,536.427 623.027,537.094 623.5,538.5C 621.973,538.573 620.973,537.906 620.5,536.5 Z"/></g>
<g><path style="opacity:0.408" fill="#212121" d="M 1782.5,539.5 C 1784.5,540.5 1786.5,541.5 1788.5,542.5C 1785.8,543.569 1783.8,542.569 1782.5,539.5 Z"/></g>
<g><path style="opacity:0.255" fill="#2b2b2b" d="M 625.5,539.5 C 627.027,539.427 628.027,540.094 628.5,541.5C 626.973,541.573 625.973,540.906 625.5,539.5 Z"/></g>
<g><path style="opacity:0.153" fill="#262626" d="M 1219.5,539.5 C 1221.03,539.427 1222.03,540.094 1222.5,541.5C 1220.97,541.573 1219.97,540.906 1219.5,539.5 Z"/></g>
<g><path style="opacity:0.004" fill="#0f0f0f" d="M 1793.5,539.5 C 1793.03,540.906 1792.03,541.573 1790.5,541.5C 1790.97,540.094 1791.97,539.427 1793.5,539.5 Z"/></g>
<g><path style="opacity:0.18" fill="#292929" d="M 630.5,542.5 C 632.027,542.427 633.027,543.094 633.5,544.5C 631.973,544.573 630.973,543.906 630.5,542.5 Z"/></g>
<g><path style="opacity:0.118" fill="#212121" d="M 1224.5,542.5 C 1226.03,542.427 1227.03,543.094 1227.5,544.5C 1225.97,544.573 1224.97,543.906 1224.5,542.5 Z"/></g>
<g><path style="opacity:0.129" fill="#242424" d="M 637.5,546.5 C 639.027,546.427 640.027,547.094 640.5,548.5C 638.973,548.573 637.973,547.906 637.5,546.5 Z"/></g>
<g><path style="opacity:0.086" fill="#1c1c1c" d="M 1231.5,546.5 C 1233.03,546.427 1234.03,547.094 1234.5,548.5C 1232.97,548.573 1231.97,547.906 1231.5,546.5 Z"/></g>
<g><path style="opacity:0.039" fill="#1c1c1c" d="M 1526.5,549.5 C 1528.03,549.427 1529.03,550.094 1529.5,551.5C 1527.97,551.573 1526.97,550.906 1526.5,549.5 Z"/></g>
<g><path style="opacity:0.196" fill="#262626" d="M 1240.5,551.5 C 1242.03,551.427 1243.03,552.094 1243.5,553.5C 1241.97,553.573 1240.97,552.906 1240.5,551.5 Z"/></g>
<g><path style="opacity:0.035" fill="#1d1d1d" d="M 940.5,554.5 C 942.027,554.427 943.027,555.094 943.5,556.5C 941.973,556.573 940.973,555.906 940.5,554.5 Z"/></g>
<g><path style="opacity:0.165" fill="#242424" d="M 1245.5,554.5 C 1247.03,554.427 1248.03,555.094 1248.5,556.5C 1246.97,556.573 1245.97,555.906 1245.5,554.5 Z"/></g>
<g><path style="opacity:0.165" fill="#212121" d="M 654.5,556.5 C 656.027,556.427 657.027,557.094 657.5,558.5C 655.973,558.573 654.973,557.906 654.5,556.5 Z"/></g>
<g><path style="opacity:0.235" fill="#272727" d="M 1250.5,557.5 C 1252.03,557.427 1253.03,558.094 1253.5,559.5C 1251.97,559.573 1250.97,558.906 1250.5,557.5 Z"/></g>
<g><path style="opacity:0.18" fill="#1e1e1e" d="M 1253.5,559.5 C 1255.03,559.427 1256.03,560.094 1256.5,561.5C 1254.97,561.573 1253.97,560.906 1253.5,559.5 Z"/></g>
<g><path style="opacity:0.239" fill="#292929" d="M 662.5,561.5 C 664.027,561.427 665.027,562.094 665.5,563.5C 663.973,563.573 662.973,562.906 662.5,561.5 Z"/></g>
<g><path style="opacity:0.522" fill="#292929" d="M 665.5,563.5 C 667.027,563.427 668.027,564.094 668.5,565.5C 666.973,565.573 665.973,564.906 665.5,563.5 Z"/></g>
<g><path style="opacity:0.361" fill="#222222" d="M 1259.5,563.5 C 1261.03,563.427 1262.03,564.094 1262.5,565.5C 1260.97,565.573 1259.97,564.906 1259.5,563.5 Z"/></g>
<g><path style="opacity:0.259" fill="#292929" d="M 668.5,565.5 C 670.027,565.427 671.027,566.094 671.5,567.5C 669.973,567.573 668.973,566.906 668.5,565.5 Z"/></g>
<g><path style="opacity:0.176" fill="#1f1f1f" d="M 1262.5,565.5 C 1264.03,565.427 1265.03,566.094 1265.5,567.5C 1263.97,567.573 1262.97,566.906 1262.5,565.5 Z"/></g>
<g><path style="opacity:0.663" fill="#272727" d="M 1551.5,565.5 C 1553.23,566.026 1554.56,567.026 1555.5,568.5C 1553.37,568.446 1552.03,567.446 1551.5,565.5 Z"/></g>
<g><path style="opacity:0.192" fill="#262626" d="M 1265.5,567.5 C 1267.03,567.427 1268.03,568.094 1268.5,569.5C 1266.97,569.573 1265.97,568.906 1265.5,567.5 Z"/></g>
<g><path style="opacity:0.302" fill="#2a2a2a" d="M 1268.5,569.5 C 1270.03,569.427 1271.03,570.094 1271.5,571.5C 1269.97,571.573 1268.97,570.906 1268.5,569.5 Z"/></g>
<g><path style="opacity:0.533" fill="#2b2b2b" d="M 678.5,572.5 C 680.027,572.427 681.027,573.094 681.5,574.5C 679.973,574.573 678.973,573.906 678.5,572.5 Z"/></g>
<g><path style="opacity:0.369" fill="#2b2b2b" d="M 1271.5,571.5 C 1273.4,571.738 1274.74,572.738 1275.5,574.5C 1273.6,574.262 1272.26,573.262 1271.5,571.5 Z"/></g>
<g><path style="opacity:0.227" fill="#242424" d="M 968.5,573.5 C 970.773,573.957 972.106,575.29 972.5,577.5C 970.659,576.598 969.326,575.264 968.5,573.5 Z"/></g>
<g><path style="opacity:0.004" fill="#161616" d="M 1566.5,576.5 C 1568.03,576.427 1569.03,577.094 1569.5,578.5C 1567.97,578.573 1566.97,577.906 1566.5,576.5 Z"/></g>
<g><path style="opacity:0.106" fill="#202020" d="M 1278.5,576.5 C 1280.75,577.08 1282.42,578.413 1283.5,580.5C 1281.25,579.92 1279.58,578.587 1278.5,576.5 Z"/></g>
<g><path style="opacity:0.392" fill="#2b2b2b" d="M 1283.5,580.5 C 1285.03,580.427 1286.03,581.094 1286.5,582.5C 1284.97,582.573 1283.97,581.906 1283.5,580.5 Z"/></g>
<g><path style="opacity:0.004" fill="#151515" d="M 1574.5,582.5 C 1576.03,582.427 1577.03,583.094 1577.5,584.5C 1575.97,584.573 1574.97,583.906 1574.5,582.5 Z"/></g>
<g><path style="opacity:0.004" fill="#161616" d="M 1583.5,589.5 C 1585.03,589.427 1586.03,590.094 1586.5,591.5C 1584.97,591.573 1583.97,590.906 1583.5,589.5 Z"/></g>
<g><path style="opacity:0.216" fill="#222222" d="M 702.5,590.5 C 704.027,590.427 705.027,591.094 705.5,592.5C 703.973,592.573 702.973,591.906 702.5,590.5 Z"/></g>
<g><path style="opacity:0.314" fill="#272727" d="M 1298.5,591.5 C 1300.75,592.08 1302.42,593.413 1303.5,595.5C 1301.25,594.92 1299.58,593.587 1298.5,591.5 Z"/></g>
<g><path style="opacity:0.561" fill="#2a2a2a" d="M 1303.5,595.5 C 1305.4,595.738 1306.74,596.738 1307.5,598.5C 1305.6,598.262 1304.26,597.262 1303.5,595.5 Z"/></g>
<g><path style="opacity:0.157" fill="#242424" d="M 709.5,595.5 C 711.749,596.08 713.415,597.413 714.5,599.5C 712.251,598.92 710.585,597.587 709.5,595.5 Z"/></g>
<g><path style="opacity:0.008" fill="#171717" d="M 1594.5,598.5 C 1596.03,598.427 1597.03,599.094 1597.5,600.5C 1595.97,600.573 1594.97,599.906 1594.5,598.5 Z"/></g>
<g><path style="opacity:0.251" fill="#262626" d="M 1312.5,602.5 C 1314.03,602.427 1315.03,603.094 1315.5,604.5C 1313.97,604.573 1312.97,603.906 1312.5,602.5 Z"/></g>
<g><path style="opacity:0.212" fill="#242424" d="M 1599.5,602.5 C 1601.75,603.124 1603.42,604.457 1604.5,606.5C 1602.21,605.864 1600.54,604.531 1599.5,602.5 Z"/></g>
<g><path style="opacity:0.243" fill="#2e2e2e" d="M 898.5,610.5 C 894.684,611.482 890.684,612.149 886.5,612.5C 890.183,610.75 894.183,610.083 898.5,610.5 Z"/></g>
<g><path style="opacity:0.251" fill="#1b1b1b" d="M 1610.5,611.5 C 1611.83,612.167 1612.83,613.167 1613.5,614.5C 1611.5,614.5 1610.5,613.5 1610.5,611.5 Z"/></g>
<g><path style="opacity:0.263" fill="#262626" d="M 734.5,614.5 C 736.749,615.08 738.415,616.413 739.5,618.5C 737.251,617.92 735.585,616.587 734.5,614.5 Z"/></g>
<g><path style="opacity:0.122" fill="#232323" d="M 1327.5,613.5 C 1329.75,614.08 1331.42,615.413 1332.5,617.5C 1330.25,616.92 1328.58,615.587 1327.5,613.5 Z"/></g>
<g><path style="opacity:0.576" fill="#242424" d="M 1332.5,617.5 C 1335.09,618.419 1337.09,620.086 1338.5,622.5C 1335.91,621.581 1333.91,619.914 1332.5,617.5 Z"/></g>
<g><path style="opacity:0.58" fill="#282828" d="M 739.5,618.5 C 741.749,619.08 743.415,620.413 744.5,622.5C 742.251,621.92 740.585,620.587 739.5,618.5 Z"/></g>
<g><path style="opacity:0.651" fill="#363636" d="M 817.5,622.5 C 814.026,623.525 810.36,624.192 806.5,624.5C 806.918,623.778 807.584,623.278 808.5,623C 811.482,622.502 814.482,622.335 817.5,622.5 Z"/></g>
<g><path style="opacity:0.857" fill="#383838" d="M 798.5,625.5 C 795.727,626.657 792.727,627.324 789.5,627.5C 789.611,626.883 789.944,626.383 790.5,626C 793.146,625.503 795.813,625.336 798.5,625.5 Z"/></g>
<g><path style="opacity:0.42" fill="#212121" d="M 748.5,626.5 C 750.749,627.08 752.415,628.413 753.5,630.5C 751.251,629.92 749.585,628.587 748.5,626.5 Z"/></g>
<g><path style="opacity:0.545" fill="#242424" d="M 1342.5,626.5 C 1348.83,630.833 1354.17,636.167 1358.5,642.5C 1352.83,637.5 1347.5,632.167 1342.5,626.5 Z"/></g>
<g><path style="opacity:0.38" fill="#393939" d="M 755.5,632.5 C 757.764,633.219 760.097,633.552 762.5,633.5C 761.726,634.147 760.726,634.48 759.5,634.5C 757.645,634.66 756.312,633.993 755.5,632.5 Z"/></g>
<g><path style="opacity:0.204" fill="#242424" d="M 1633.5,634.5 C 1636.02,636.002 1636.02,637.335 1633.5,638.5C 1636.02,637.335 1636.02,636.002 1633.5,634.5 Z"/></g>
<g><path style="opacity:0.004" fill="#171717" d="M 1362.5,646.5 C 1363.91,646.973 1364.57,647.973 1364.5,649.5C 1363.09,649.027 1362.43,648.027 1362.5,646.5 Z"/></g>
<g><path style="opacity:0.704" fill="#454545" d="M 1368.5,656.5 C 1369.22,656.918 1369.72,657.584 1370,658.5C 1370.74,664.558 1370.41,670.558 1369,676.5C 1368.72,677.416 1368.22,678.082 1367.5,678.5C 1369,671.18 1369.33,663.846 1368.5,656.5 Z"/></g>
<g><path style="opacity:0.075" fill="#242424" d="M 1362.5,690.5 C 1362.25,692.674 1361.25,694.341 1359.5,695.5C 1359.75,693.326 1360.75,691.659 1362.5,690.5 Z"/></g>
<g><path style="opacity:0.188" fill="#222222" d="M 1358.5,697.5 C 1358.57,699.027 1357.91,700.027 1356.5,700.5C 1356.43,698.973 1357.09,697.973 1358.5,697.5 Z"/></g>
<g><path style="opacity:0.431" fill="#272727" d="M 1356.5,700.5 C 1356.57,702.027 1355.91,703.027 1354.5,703.5C 1354.43,701.973 1355.09,700.973 1356.5,700.5 Z"/></g>
<g><path style="opacity:0.361" fill="#2a2a2a" d="M 1354.5,703.5 C 1354.26,705.404 1353.26,706.738 1351.5,707.5C 1351.74,705.596 1352.74,704.262 1354.5,703.5 Z"/></g>
<g><path style="opacity:0.416" fill="#282828" d="M 1351.5,707.5 C 1350.24,710.427 1348.24,712.761 1345.5,714.5C 1346.76,711.573 1348.76,709.239 1351.5,707.5 Z"/></g>
<g><path style="opacity:0.471" fill="#2c2c2c" d="M 1343.5,716.5 C 1343.63,717.239 1343.46,717.906 1343,718.5C 1334.58,727.426 1325.75,735.759 1316.5,743.5C 1325.17,734.167 1334.17,725.167 1343.5,716.5 Z"/></g>
<g><path style="opacity:0.702" fill="#2e2e2e" d="M 1566.5,749.5 C 1568.59,750.585 1569.92,752.251 1570.5,754.5C 1568.41,753.415 1567.08,751.749 1566.5,749.5 Z"/></g>
<g><path style="opacity:0.004" fill="#161616" d="M 1582.5,765.5 C 1584.03,765.427 1585.03,766.094 1585.5,767.5C 1583.97,767.573 1582.97,766.906 1582.5,765.5 Z"/></g>
<g><path style="opacity:0.322" fill="#272727" d="M 1300.5,759.5 C 1297.9,763.771 1294.57,767.437 1290.5,770.5C 1293.1,766.229 1296.43,762.563 1300.5,759.5 Z"/></g>
<g><path style="opacity:0.031" fill="#212121" d="M 1597.5,776.5 C 1599.03,776.427 1600.03,777.094 1600.5,778.5C 1598.97,778.573 1597.97,777.906 1597.5,776.5 Z"/></g>
<g><path style="opacity:0.392" fill="#2c2c2c" d="M 1286.5,774.5 C 1285.58,777.089 1283.91,779.089 1281.5,780.5C 1282.42,777.911 1284.09,775.911 1286.5,774.5 Z"/></g>
<g><path style="opacity:0.004" fill="#1c1c1c" d="M 1616.5,789.5 C 1618.23,790.026 1619.56,791.026 1620.5,792.5C 1618.37,792.446 1617.03,791.446 1616.5,789.5 Z"/></g>
<g><path style="opacity:0.463" fill="#303030" d="M 1273.5,789.5 C 1272.58,792.089 1270.91,794.089 1268.5,795.5C 1269.42,792.911 1271.09,790.911 1273.5,789.5 Z"/></g>
<g><path style="opacity:0.031" fill="#222222" d="M 1624.5,795.5 C 1626.03,795.427 1627.03,796.094 1627.5,797.5C 1625.97,797.573 1624.97,796.906 1624.5,795.5 Z"/></g>
<g><path style="opacity:0.408" fill="#262626" d="M 1266.5,797.5 C 1266.57,799.027 1265.91,800.027 1264.5,800.5C 1264.43,798.973 1265.09,797.973 1266.5,797.5 Z"/></g>
<g><path style="opacity:0.557" fill="#2a2a2a" d="M 1548.5,798.5 C 1550.9,798.259 1552.9,798.926 1554.5,800.5C 1552.21,800.405 1550.21,799.738 1548.5,798.5 Z"/></g>
<g><path style="opacity:0.722" fill="#363636" d="M 1555.5,800.5 C 1559.16,800.723 1562.5,801.723 1565.5,803.5C 1561.84,803.277 1558.5,802.277 1555.5,800.5 Z"/></g>
<g><path style="opacity:0.004" fill="#191919" d="M 1632.5,800.5 C 1634.23,801.026 1635.56,802.026 1636.5,803.5C 1634.37,803.446 1633.03,802.446 1632.5,800.5 Z"/></g>
<g><path style="opacity:0.18" fill="#252525" d="M 1264.5,800.5 C 1263.58,803.089 1261.91,805.089 1259.5,806.5C 1260.42,803.911 1262.09,801.911 1264.5,800.5 Z"/></g>
<g><path style="opacity:0.741" fill="#373737" d="M 1569.5,804.5 C 1572.5,804.294 1575.16,804.96 1577.5,806.5C 1574.57,806.435 1571.91,805.768 1569.5,804.5 Z"/></g>
<g><path style="opacity:0.392" fill="#292929" d="M 1639.5,805.5 C 1642.85,806.123 1643.85,807.79 1642.5,810.5C 1641.76,808.646 1640.76,806.979 1639.5,805.5 Z"/></g>
<g><path style="opacity:0.255" fill="#272727" d="M 1259.5,806.5 C 1259.57,808.027 1258.91,809.027 1257.5,809.5C 1257.43,807.973 1258.09,806.973 1259.5,806.5 Z"/></g>
<g><path style="opacity:0.118" fill="#212121" d="M 1257.5,809.5 C 1256.92,811.749 1255.59,813.415 1253.5,814.5C 1254.08,812.251 1255.41,810.585 1257.5,809.5 Z"/></g>
<g><path style="opacity:0.376" fill="#212121" d="M 1253.5,814.5 C 1253.57,816.027 1252.91,817.027 1251.5,817.5C 1251.43,815.973 1252.09,814.973 1253.5,814.5 Z"/></g>
<g><path style="opacity:0.204" fill="#262626" d="M 1251.5,817.5 C 1251.57,819.027 1250.91,820.027 1249.5,820.5C 1249.43,818.973 1250.09,817.973 1251.5,817.5 Z"/></g>
<g><path style="opacity:0.004" fill="#151515" d="M 1499.5,819.5 C 1499.57,821.027 1498.91,822.027 1497.5,822.5C 1497.43,820.973 1498.09,819.973 1499.5,819.5 Z"/></g>
<g><path style="opacity:0.282" fill="#252525" d="M 1249.5,820.5 C 1249.26,822.404 1248.26,823.738 1246.5,824.5C 1246.74,822.596 1247.74,821.262 1249.5,820.5 Z"/></g>
<g><path style="opacity:0.008" fill="#181818" d="M 1494.5,825.5 C 1494.57,827.027 1493.91,828.027 1492.5,828.5C 1492.43,826.973 1493.09,825.973 1494.5,825.5 Z"/></g>
<g><path style="opacity:0.192" fill="#282828" d="M 1245.5,826.5 C 1245.57,828.027 1244.91,829.027 1243.5,829.5C 1243.43,827.973 1244.09,826.973 1245.5,826.5 Z"/></g>
<g><path style="opacity:0.114" fill="#222222" d="M 1243.5,829.5 C 1243.57,831.027 1242.91,832.027 1241.5,832.5C 1241.43,830.973 1242.09,829.973 1243.5,829.5 Z"/></g>
<g><path style="opacity:0.004" fill="#181818" d="M 1489.5,831.5 C 1489.57,833.027 1488.91,834.027 1487.5,834.5C 1487.43,832.973 1488.09,831.973 1489.5,831.5 Z"/></g>
<g><path style="opacity:0.122" fill="#242424" d="M 1240.5,834.5 C 1240.57,836.027 1239.91,837.027 1238.5,837.5C 1238.43,835.973 1239.09,834.973 1240.5,834.5 Z"/></g>
<g><path style="opacity:0.686" fill="#2b2b2b" d="M 1448.5,839.5 C 1451.92,839.528 1454.92,840.528 1457.5,842.5C 1454.22,842.072 1451.22,841.072 1448.5,839.5 Z"/></g>
<g><path style="opacity:0.871" fill="#393939" d="M 1237.5,839.5 C 1237.26,842.621 1235.93,844.954 1233.5,846.5C 1234.08,843.669 1235.41,841.336 1237.5,839.5 Z"/></g>
<g><path style="opacity:0.078" fill="#1f1f1f" d="M 1397.5,846.5 C 1396.22,847.931 1394.55,848.598 1392.5,848.5C 1393.78,847.069 1395.45,846.402 1397.5,846.5 Z"/></g>
<g><path style="opacity:0.58" fill="#383838" d="M 1305.5,864.5 C 1300.37,865.665 1295.03,866.332 1289.5,866.5C 1294.55,864.74 1299.89,864.073 1305.5,864.5 Z"/></g>
<g><path style="opacity:0.282" fill="#2d2d2d" d="M 1224.5,865.5 C 1224.71,867.144 1224.38,868.644 1223.5,870C 1227.69,870.176 1231.69,870.676 1235.5,871.5C 1231.17,871.5 1226.83,871.5 1222.5,871.5C 1222.26,869.102 1222.93,867.102 1224.5,865.5 Z"/></g>
</svg>
