<?xml version="1.0" encoding="UTF-8"?>
<!DOCTYPE svg PUBLIC "-//W3C//DTD SVG 1.1//EN" "http://www.w3.org/Graphics/SVG/1.1/DTD/svg11.dtd">
<svg xmlns="http://www.w3.org/2000/svg" version="1.1" width="2118px" height="1156px" style="shape-rendering:geometricPrecision; text-rendering:geometricPrecision; image-rendering:optimizeQuality; fill-rule:evenodd; clip-rule:evenodd" xmlns:xlink="http://www.w3.org/1999/xlink">
<g><path style="opacity:0.354" fill="#383838" d="M 1379.5,264.5 C 1371.71,264.132 1364.05,264.798 1356.5,266.5C 1358.28,265.4 1360.28,264.566 1362.5,264C 1368.35,263.182 1374.02,263.348 1379.5,264.5 Z"/></g>
<g><path style="opacity:0.999" fill="#656565" d="M 797.5,267.5 C 798.183,269.176 799.517,269.843 801.5,269.5C 802.911,271.539 804.911,272.539 807.5,272.5C 808.035,274.446 809.368,275.446 811.5,275.5C 814.533,277.016 817.2,279.016 819.5,281.5C 820.262,283.262 821.596,284.262 823.5,284.5C 826.167,286.833 828.833,289.167 831.5,291.5C 833.43,295.1 836.097,298.1 839.5,300.5C 841.167,301.5 842.5,302.833 843.5,304.5C 844.08,306.749 845.413,308.415 847.5,309.5C 848.5,309.833 849.167,310.5 849.5,311.5C 849.738,313.404 850.738,314.738 852.5,315.5C 852.427,317.027 853.094,318.027 854.5,318.5C 854.427,320.027 855.094,321.027 856.5,321.5C 859.551,325.614 861.551,330.28 862.5,335.5C 862.5,340.167 862.5,344.833 862.5,349.5C 858.063,351.633 853.397,351.966 848.5,350.5C 846.316,348.415 843.649,347.415 840.5,347.5C 835.947,346.438 831.947,344.438 828.5,341.5C 828.027,340.094 827.027,339.427 825.5,339.5C 824.508,339.672 823.842,339.338 823.5,338.5C 823.027,337.094 822.027,336.427 820.5,336.5C 819.738,334.738 818.404,333.738 816.5,333.5C 816.027,332.094 815.027,331.427 813.5,331.5C 812.738,329.738 811.404,328.738 809.5,328.5C 808.508,328.672 807.842,328.338 807.5,327.5C 807.027,326.094 806.027,325.427 804.5,325.5C 804.027,324.094 803.027,323.427 801.5,323.5C 801.027,322.094 800.027,321.427 798.5,321.5C 798.027,320.094 797.027,319.427 795.5,319.5C 794.508,319.672 793.842,319.338 793.5,318.5C 793.027,317.094 792.027,316.427 790.5,316.5C 789.508,316.672 788.842,316.338 788.5,315.5C 788.027,314.094 787.027,313.427 785.5,313.5C 784.508,313.672 783.842,313.338 783.5,312.5C 783.027,311.094 782.027,310.427 780.5,310.5C 778.847,310.34 777.514,309.674 776.5,308.5C 776.027,307.094 775.027,306.427 773.5,306.5C 770.55,305.692 767.883,304.358 765.5,302.5C 765.027,301.094 764.027,300.427 762.5,300.5C 758.71,299.105 755.043,297.438 751.5,295.5C 750.817,293.824 749.483,293.157 747.5,293.5C 744.15,292.497 740.817,291.497 737.5,290.5C 737.389,289.883 737.056,289.383 736.5,289C 737.823,288.184 738.489,287.017 738.5,285.5C 741.833,282.833 744.833,279.833 747.5,276.5C 749.404,276.262 750.738,275.262 751.5,273.5C 753.404,273.262 754.738,272.262 755.5,270.5C 757.027,270.573 758.027,269.906 758.5,268.5C 759.514,267.326 760.847,266.66 762.5,266.5C 764.898,266.741 766.898,266.074 768.5,264.5C 778.342,262.653 788.009,263.653 797.5,267.5 Z"/></g>
<g><path style="opacity:0.999" fill="#666666" d="M 1379.5,264.5 C 1380.17,264.5 1380.83,264.5 1381.5,264.5C 1383.1,266.074 1385.1,266.741 1387.5,266.5C 1388.96,266.433 1390.29,266.766 1391.5,267.5C 1392.29,269.104 1393.62,269.771 1395.5,269.5C 1397.82,269.992 1399.82,270.992 1401.5,272.5C 1401.82,274.048 1402.82,274.715 1404.5,274.5C 1405.03,276.446 1406.37,277.446 1408.5,277.5C 1410.75,278.415 1412.75,279.748 1414.5,281.5C 1414.5,282.833 1415.17,283.5 1416.5,283.5C 1417.5,283.833 1418.17,284.5 1418.5,285.5C 1421.18,289.183 1424.52,292.183 1428.5,294.5C 1428.5,295.833 1429.17,296.5 1430.5,296.5C 1431.42,299.089 1433.09,301.089 1435.5,302.5C 1436.17,302.5 1436.5,302.833 1436.5,303.5C 1436.83,304.5 1437.5,305.167 1438.5,305.5C 1439.42,308.089 1441.09,310.089 1443.5,311.5C 1443.74,313.404 1444.74,314.738 1446.5,315.5C 1446.74,317.404 1447.74,318.738 1449.5,319.5C 1450.34,319.842 1450.67,320.508 1450.5,321.5C 1450.43,323.027 1451.09,324.027 1452.5,324.5C 1454.29,326.426 1455.29,328.759 1455.5,331.5C 1455.41,334.152 1456.08,336.485 1457.5,338.5C 1461.17,347.493 1458.17,351.826 1448.5,351.5C 1446.74,351.408 1445.08,351.075 1443.5,350.5C 1441.49,349.076 1439.15,348.41 1436.5,348.5C 1432.18,347.008 1428.18,345.008 1424.5,342.5C 1424.03,341.094 1423.03,340.427 1421.5,340.5C 1420.51,340.672 1419.84,340.338 1419.5,339.5C 1419.03,338.094 1418.03,337.427 1416.5,337.5C 1416.03,336.094 1415.03,335.427 1413.5,335.5C 1413.03,334.094 1412.03,333.427 1410.5,333.5C 1409.74,331.738 1408.4,330.738 1406.5,330.5C 1406.03,329.094 1405.03,328.427 1403.5,328.5C 1403.03,327.094 1402.03,326.427 1400.5,326.5C 1400.03,325.094 1399.03,324.427 1397.5,324.5C 1397.03,323.094 1396.03,322.427 1394.5,322.5C 1393.51,322.672 1392.84,322.338 1392.5,321.5C 1392.03,320.094 1391.03,319.427 1389.5,319.5C 1388.51,319.672 1387.84,319.338 1387.5,318.5C 1387.03,317.094 1386.03,316.427 1384.5,316.5C 1384.03,315.094 1383.03,314.427 1381.5,314.5C 1380.51,314.672 1379.84,314.338 1379.5,313.5C 1379.03,312.094 1378.03,311.427 1376.5,311.5C 1375.51,311.672 1374.84,311.338 1374.5,310.5C 1374.03,309.094 1373.03,308.427 1371.5,308.5C 1369.18,308.008 1367.18,307.008 1365.5,305.5C 1365.03,304.094 1364.03,303.427 1362.5,303.5C 1356.71,301.104 1351.04,298.437 1345.5,295.5C 1344.82,293.824 1343.48,293.157 1341.5,293.5C 1340.39,293.443 1339.39,293.11 1338.5,292.5C 1337.01,290.72 1335.01,290.054 1332.5,290.5C 1332.17,290.5 1331.83,290.5 1331.5,290.5C 1331.39,289.883 1331.06,289.383 1330.5,289C 1331.82,288.184 1332.49,287.017 1332.5,285.5C 1332.83,284.5 1333.5,283.833 1334.5,283.5C 1336.83,281.833 1338.83,279.833 1340.5,277.5C 1342.75,276.92 1344.42,275.587 1345.5,273.5C 1347.03,273.573 1348.03,272.906 1348.5,271.5C 1350.03,271.573 1351.03,270.906 1351.5,269.5C 1353.03,269.573 1354.03,268.906 1354.5,267.5C 1354.84,266.662 1355.51,266.328 1356.5,266.5C 1364.05,264.798 1371.71,264.132 1379.5,264.5 Z"/></g>
<g><path style="opacity:0.835" fill="#3f3f3f" d="M 768.5,264.5 C 766.898,266.074 764.898,266.741 762.5,266.5C 764.102,264.926 766.102,264.259 768.5,264.5 Z"/></g>
<g><path style="opacity:0.999" fill="#646464" d="M 900.5,267.5 C 901.287,269.104 902.62,269.771 904.5,269.5C 907.157,269.935 909.491,270.935 911.5,272.5C 912.035,274.446 913.368,275.446 915.5,275.5C 916.419,278.089 918.086,280.089 920.5,281.5C 920.427,283.027 921.094,284.027 922.5,284.5C 922.427,286.027 923.094,287.027 924.5,287.5C 924.427,289.027 925.094,290.027 926.5,290.5C 927.833,292.167 927.833,293.833 926.5,295.5C 925.5,295.833 924.833,296.5 924.5,297.5C 919.903,301.142 914.903,304.308 909.5,307C 891.677,308.182 874.01,307.349 856.5,304.5C 856.082,303.778 855.416,303.278 854.5,303C 851.854,302.503 849.187,302.336 846.5,302.5C 842.833,299.5 839.5,296.167 836.5,292.5C 835.167,290.5 833.5,288.833 831.5,287.5C 831.027,286.094 830.027,285.427 828.5,285.5C 828.5,285.167 828.5,284.833 828.5,284.5C 826.1,281.097 823.1,278.43 819.5,276.5C 818.243,275.377 818.576,274.711 820.5,274.5C 824.8,274.281 828.8,273.281 832.5,271.5C 854.805,264.811 877.472,263.477 900.5,267.5 Z"/></g>
<g><path style="opacity:0.329" fill="#313131" d="M 1381.5,264.5 C 1383.79,264.595 1385.79,265.262 1387.5,266.5C 1385.1,266.741 1383.1,266.074 1381.5,264.5 Z"/></g>
<g><path style="opacity:0.851" fill="#404040" d="M 1492.5,267.5 C 1479.52,266.622 1466.52,266.289 1453.5,266.5C 1465.32,264.176 1477.32,264.01 1489.5,266C 1490.74,266.232 1491.74,266.732 1492.5,267.5 Z"/></g>
<g><path style="opacity:0.999" fill="#656565" d="M 1452.5,266.5 C 1452.83,266.5 1453.17,266.5 1453.5,266.5C 1466.52,266.289 1479.52,266.622 1492.5,267.5C 1493.17,267.5 1493.83,267.5 1494.5,267.5C 1495.64,269.213 1497.3,269.88 1499.5,269.5C 1501.82,269.992 1503.82,270.992 1505.5,272.5C 1506.03,274.446 1507.37,275.446 1509.5,275.5C 1510.5,275.833 1511.17,276.5 1511.5,277.5C 1511.74,279.404 1512.74,280.738 1514.5,281.5C 1514.74,283.404 1515.74,284.738 1517.5,285.5C 1517.43,287.027 1518.09,288.027 1519.5,288.5C 1521.38,290.795 1521.88,293.462 1521,296.5C 1515.42,300.377 1509.58,303.877 1503.5,307C 1483,308.366 1462.67,307.2 1442.5,303.5C 1442.03,302.094 1441.03,301.427 1439.5,301.5C 1439.5,299.5 1438.5,298.5 1436.5,298.5C 1430.17,292.833 1424.17,286.833 1418.5,280.5C 1416.75,278.754 1415.42,276.754 1414.5,274.5C 1418.8,274.281 1422.8,273.281 1426.5,271.5C 1431.23,269.739 1436.23,268.739 1441.5,268.5C 1445.49,268.884 1449.16,268.217 1452.5,266.5 Z"/></g>
<g><path style="opacity:0.708" fill="#444444" d="M 1452.5,266.5 C 1449.16,268.217 1445.49,268.884 1441.5,268.5C 1444.95,267.313 1448.61,266.646 1452.5,266.5 Z"/></g>
<g><path style="opacity:0.796" fill="#333333" d="M 797.5,267.5 C 798.995,267.989 800.329,268.655 801.5,269.5C 799.517,269.843 798.183,269.176 797.5,267.5 Z"/></g>
<g><path style="opacity:0.208" fill="#272727" d="M 900.5,267.5 C 902.153,267.66 903.486,268.326 904.5,269.5C 902.62,269.771 901.287,269.104 900.5,267.5 Z"/></g>
<g><path style="opacity:0.408" fill="#2c2c2c" d="M 1354.5,267.5 C 1354.03,268.906 1353.03,269.573 1351.5,269.5C 1351.97,268.094 1352.97,267.427 1354.5,267.5 Z"/></g>
<g><path style="opacity:0.141" fill="#212121" d="M 1391.5,267.5 C 1393.15,267.66 1394.49,268.326 1395.5,269.5C 1393.62,269.771 1392.29,269.104 1391.5,267.5 Z"/></g>
<g><path style="opacity:0.255" fill="#292929" d="M 1494.5,267.5 C 1496.4,267.796 1498.07,268.463 1499.5,269.5C 1497.3,269.88 1495.64,269.213 1494.5,267.5 Z"/></g>
<g><path style="opacity:0.376" fill="#2b2b2b" d="M 758.5,268.5 C 758.027,269.906 757.027,270.573 755.5,270.5C 755.973,269.094 756.973,268.427 758.5,268.5 Z"/></g>
<g><path style="opacity:0.118" fill="#232323" d="M 801.5,269.5 C 803.819,269.992 805.819,270.992 807.5,272.5C 804.911,272.539 802.911,271.539 801.5,269.5 Z"/></g>
<g><path style="opacity:0.569" fill="#353535" d="M 1351.5,269.5 C 1351.03,270.906 1350.03,271.573 1348.5,271.5C 1348.97,270.094 1349.97,269.427 1351.5,269.5 Z"/></g>
<g><path style="opacity:0.388" fill="#313131" d="M 755.5,270.5 C 754.738,272.262 753.404,273.262 751.5,273.5C 752.262,271.738 753.596,270.738 755.5,270.5 Z"/></g>
<g><path style="opacity:0.58" fill="#373737" d="M 832.5,271.5 C 828.8,273.281 824.8,274.281 820.5,274.5C 824.2,272.719 828.2,271.719 832.5,271.5 Z"/></g>
<g><path style="opacity:0.545" fill="#2e2e2e" d="M 1348.5,271.5 C 1348.03,272.906 1347.03,273.573 1345.5,273.5C 1345.97,272.094 1346.97,271.427 1348.5,271.5 Z"/></g>
<g><path style="opacity:0.494" fill="#323232" d="M 1426.5,271.5 C 1422.8,273.281 1418.8,274.281 1414.5,274.5C 1418.2,272.719 1422.2,271.719 1426.5,271.5 Z"/></g>
<g><path style="opacity:0.651" fill="#2b2b2b" d="M 807.5,272.5 C 809.23,273.026 810.564,274.026 811.5,275.5C 809.368,275.446 808.035,274.446 807.5,272.5 Z"/></g>
<g><path style="opacity:0.004" fill="#1c1c1c" d="M 911.5,272.5 C 913.23,273.026 914.564,274.026 915.5,275.5C 913.368,275.446 912.035,274.446 911.5,272.5 Z"/></g>
<g><path style="opacity:0.773" fill="#303030" d="M 1401.5,272.5 C 1402.71,272.932 1403.71,273.599 1404.5,274.5C 1402.82,274.715 1401.82,274.048 1401.5,272.5 Z"/></g>
<g><path style="opacity:0.745" fill="#2c2c2c" d="M 1505.5,272.5 C 1507.23,273.026 1508.56,274.026 1509.5,275.5C 1507.37,275.446 1506.03,274.446 1505.5,272.5 Z"/></g>
<g><path style="opacity:0.522" fill="#353535" d="M 751.5,273.5 C 750.738,275.262 749.404,276.262 747.5,276.5C 748.262,274.738 749.596,273.738 751.5,273.5 Z"/></g>
<g><path style="opacity:0.843" fill="#353535" d="M 1404.5,274.5 C 1406.23,275.026 1407.56,276.026 1408.5,277.5C 1406.37,277.446 1405.03,276.446 1404.5,274.5 Z"/></g>
<g><path style="opacity:0.427" fill="#222222" d="M 819.5,276.5 C 823.1,278.43 826.1,281.097 828.5,284.5C 824.9,282.57 821.9,279.903 819.5,276.5 Z"/></g>
<g><path style="opacity:0.463" fill="#232323" d="M 915.5,275.5 C 917.914,276.911 919.581,278.911 920.5,281.5C 918.086,280.089 916.419,278.089 915.5,275.5 Z"/></g>
<g><path style="opacity:0.714" fill="#343434" d="M 1345.5,273.5 C 1344.42,275.587 1342.75,276.92 1340.5,277.5C 1341.58,275.413 1343.25,274.08 1345.5,273.5 Z"/></g>
<g><path style="opacity:0.294" fill="#202020" d="M 1414.5,274.5 C 1415.42,276.754 1416.75,278.754 1418.5,280.5C 1414.89,279.62 1413.55,277.62 1414.5,274.5 Z"/></g>
<g><path style="opacity:0.282" fill="#232323" d="M 1340.5,277.5 C 1338.83,279.833 1336.83,281.833 1334.5,283.5C 1335.5,280.5 1337.5,278.5 1340.5,277.5 Z"/></g>
<g><path style="opacity:0.58" fill="#2d2d2d" d="M 1511.5,277.5 C 1513.26,278.262 1514.26,279.596 1514.5,281.5C 1512.74,280.738 1511.74,279.404 1511.5,277.5 Z"/></g>
<g><path style="opacity:0.463" fill="#2b2b2b" d="M 747.5,276.5 C 744.833,279.833 741.833,282.833 738.5,285.5C 740.5,281.5 743.5,278.5 747.5,276.5 Z"/></g>
<g><path style="opacity:0.004" fill="#191919" d="M 819.5,281.5 C 821.404,281.738 822.738,282.738 823.5,284.5C 821.596,284.262 820.262,283.262 819.5,281.5 Z"/></g>
<g><path style="opacity:0.388" fill="#202020" d="M 1414.5,281.5 C 1415.5,281.833 1416.17,282.5 1416.5,283.5C 1415.17,283.5 1414.5,282.833 1414.5,281.5 Z"/></g>
<g><path style="opacity:0.306" fill="#2b2b2b" d="M 920.5,281.5 C 921.906,281.973 922.573,282.973 922.5,284.5C 921.094,284.027 920.427,283.027 920.5,281.5 Z"/></g>
<g><path style="opacity:0.478" fill="#313131" d="M 1514.5,281.5 C 1516.26,282.262 1517.26,283.596 1517.5,285.5C 1515.74,284.738 1514.74,283.404 1514.5,281.5 Z"/></g>
<g><path style="opacity:0.235" fill="#1e1e1e" d="M 828.5,285.5 C 830.027,285.427 831.027,286.094 831.5,287.5C 829.973,287.573 828.973,286.906 828.5,285.5 Z"/></g>
<g><path style="opacity:0.282" fill="#2b2b2b" d="M 922.5,284.5 C 923.906,284.973 924.573,285.973 924.5,287.5C 923.094,287.027 922.427,286.027 922.5,284.5 Z"/></g>
<g><path style="opacity:0.224" fill="#212121" d="M 1418.5,285.5 C 1422.46,287.788 1425.79,290.788 1428.5,294.5C 1424.52,292.183 1421.18,289.183 1418.5,285.5 Z"/></g>
<g><path style="opacity:0.173" fill="#272727" d="M 1517.5,285.5 C 1518.91,285.973 1519.57,286.973 1519.5,288.5C 1518.09,288.027 1517.43,287.027 1517.5,285.5 Z"/></g>
<g><path style="opacity:0.282" fill="#2c2c2c" d="M 738.5,285.5 C 738.489,287.017 737.823,288.184 736.5,289C 737.056,289.383 737.389,289.883 737.5,290.5C 734.97,288.67 735.303,287.004 738.5,285.5 Z"/></g>
<g><path style="opacity:0.004" fill="#181818" d="M 831.5,287.5 C 833.5,288.833 835.167,290.5 836.5,292.5C 833.833,291.833 832.167,290.167 831.5,287.5 Z"/></g>
<g><path style="opacity:0.137" fill="#242424" d="M 924.5,287.5 C 925.906,287.973 926.573,288.973 926.5,290.5C 925.094,290.027 924.427,289.027 924.5,287.5 Z"/></g>
<g><path style="opacity:0.102" fill="#212121" d="M 1332.5,285.5 C 1332.49,287.017 1331.82,288.184 1330.5,289C 1331.06,289.383 1331.39,289.883 1331.5,290.5C 1328.97,288.67 1329.3,287.004 1332.5,285.5 Z"/></g>
<g><path style="opacity:0.718" fill="#303030" d="M 1332.5,290.5 C 1335.01,290.054 1337.01,290.72 1338.5,292.5C 1336.3,292.125 1334.3,291.458 1332.5,290.5 Z"/></g>
<g><path style="opacity:0.298" fill="#1b1b1b" d="M 831.5,291.5 C 834.903,293.9 837.57,296.9 839.5,300.5C 836.097,298.1 833.43,295.1 831.5,291.5 Z"/></g>
<g><path style="opacity:0.859" fill="#353535" d="M 747.5,293.5 C 749.483,293.157 750.817,293.824 751.5,295.5C 749.847,295.34 748.514,294.674 747.5,293.5 Z"/></g>
<g><path style="opacity:0.796" fill="#313131" d="M 1341.5,293.5 C 1343.48,293.157 1344.82,293.824 1345.5,295.5C 1343.85,295.34 1342.51,294.674 1341.5,293.5 Z"/></g>
<g><path style="opacity:0.563" fill="#3a3a3a" d="M 747.5,296.5 C 743.802,296.552 740.135,296.886 736.5,297.5C 738.29,296.003 740.456,295.336 743,295.5C 744.707,295.508 746.207,295.842 747.5,296.5 Z"/></g>
<g><path style="opacity:0.533" fill="#3b3b3b" d="M 1341.5,296.5 C 1337.8,296.552 1334.14,296.886 1330.5,297.5C 1332.29,296.003 1334.46,295.336 1337,295.5C 1338.71,295.508 1340.21,295.842 1341.5,296.5 Z"/></g>
<g><path style="opacity:0.435" fill="#222222" d="M 1428.5,294.5 C 1429.5,294.833 1430.17,295.5 1430.5,296.5C 1429.17,296.5 1428.5,295.833 1428.5,294.5 Z"/></g>
<g><path style="opacity:0.999" fill="#646464" d="M 747.5,296.5 C 752.022,298.264 756.355,300.264 760.5,302.5C 760.821,304.048 761.821,304.715 763.5,304.5C 764.492,304.328 765.158,304.662 765.5,305.5C 765.973,306.906 766.973,307.573 768.5,307.5C 768.833,307.5 769.167,307.5 769.5,307.5C 769.821,309.048 770.821,309.715 772.5,309.5C 773.833,310.167 775.167,310.833 776.5,311.5C 776.821,313.048 777.821,313.715 779.5,313.5C 779.821,315.048 780.821,315.715 782.5,315.5C 782.473,317.199 781.806,318.533 780.5,319.5C 774.3,321.004 767.967,321.67 761.5,321.5C 751.935,321.063 742.602,321.73 733.5,323.5C 719.819,323.382 706.152,323.716 692.5,324.5C 691.325,324.719 690.325,324.386 689.5,323.5C 690.127,322.583 690.461,321.583 690.5,320.5C 692.262,319.738 693.262,318.404 693.5,316.5C 693.833,315.5 694.5,314.833 695.5,314.5C 697.404,314.262 698.738,313.262 699.5,311.5C 701.027,311.573 702.027,310.906 702.5,309.5C 709.86,304.986 717.86,301.986 726.5,300.5C 730.162,300.277 733.495,299.277 736.5,297.5C 740.135,296.886 743.802,296.552 747.5,296.5 Z"/></g>
<g><path style="opacity:0.008" fill="#1b1b1b" d="M 926.5,295.5 C 926.5,296.833 925.833,297.5 924.5,297.5C 924.833,296.5 925.5,295.833 926.5,295.5 Z"/></g>
<g><path style="opacity:0.998" fill="#636363" d="M 1341.5,296.5 C 1347.56,298.366 1353.23,301.033 1358.5,304.5C 1359.73,306.796 1361.73,308.13 1364.5,308.5C 1364.83,308.5 1365.17,308.5 1365.5,308.5C 1365.82,310.048 1366.82,310.715 1368.5,310.5C 1372.12,312.137 1375.45,314.137 1378.5,316.5C 1378.44,317.609 1378.11,318.609 1377.5,319.5C 1365.9,321.194 1354.23,322.36 1342.5,323C 1323.82,323.312 1305.16,323.812 1286.5,324.5C 1284.82,324.715 1283.82,324.048 1283.5,322.5C 1284.91,322.027 1285.57,321.027 1285.5,319.5C 1287.26,318.738 1288.26,317.404 1288.5,315.5C 1290.75,314.92 1292.42,313.587 1293.5,311.5C 1295.03,311.573 1296.03,310.906 1296.5,309.5C 1298.18,307.992 1300.18,306.992 1302.5,306.5C 1304.7,306.88 1306.36,306.213 1307.5,304.5C 1311.49,302.394 1315.82,301.061 1320.5,300.5C 1324.16,300.277 1327.5,299.277 1330.5,297.5C 1334.14,296.886 1337.8,296.552 1341.5,296.5 Z"/></g>
<g><path style="opacity:0.416" fill="#222222" d="M 1430.5,296.5 C 1432.91,297.911 1434.58,299.911 1435.5,302.5C 1433.09,301.089 1431.42,299.089 1430.5,296.5 Z"/></g>
<g><path style="opacity:0.682" fill="#3b3b3b" d="M 736.5,297.5 C 733.495,299.277 730.162,300.277 726.5,300.5C 729.505,298.723 732.838,297.723 736.5,297.5 Z"/></g>
<g><path style="opacity:0.604" fill="#343434" d="M 1330.5,297.5 C 1327.5,299.277 1324.16,300.277 1320.5,300.5C 1323.5,298.723 1326.84,297.723 1330.5,297.5 Z"/></g>
<g><path style="opacity:0.592" fill="#2c2c2c" d="M 1436.5,298.5 C 1438.5,298.5 1439.5,299.5 1439.5,301.5C 1438.17,300.833 1437.17,299.833 1436.5,298.5 Z"/></g>
<g><path style="opacity:0.082" fill="#212121" d="M 762.5,300.5 C 764.027,300.427 765.027,301.094 765.5,302.5C 763.973,302.573 762.973,301.906 762.5,300.5 Z"/></g>
<g><path style="opacity:0.925" fill="#444444" d="M 846.5,302.5 C 849.187,302.336 851.854,302.503 854.5,303C 855.416,303.278 856.082,303.778 856.5,304.5C 852.922,304.451 849.589,303.785 846.5,302.5 Z"/></g>
<g><path style="opacity:0.082" fill="#1c1c1c" d="M 1439.5,301.5 C 1441.03,301.427 1442.03,302.094 1442.5,303.5C 1440.97,303.573 1439.97,302.906 1439.5,301.5 Z"/></g>
<g><path style="opacity:0.706" fill="#2f2f2f" d="M 760.5,302.5 C 761.71,302.932 762.71,303.599 763.5,304.5C 761.821,304.715 760.821,304.048 760.5,302.5 Z"/></g>
<g><path style="opacity:0.004" fill="#141414" d="M 1436.5,303.5 C 1437.83,303.5 1438.5,304.167 1438.5,305.5C 1437.5,305.167 1436.83,304.5 1436.5,303.5 Z"/></g>
<g><path style="opacity:0.169" fill="#262626" d="M 1362.5,303.5 C 1364.03,303.427 1365.03,304.094 1365.5,305.5C 1363.97,305.573 1362.97,304.906 1362.5,303.5 Z"/></g>
<g><path style="opacity:0.612" fill="#2a2a2a" d="M 843.5,304.5 C 845.587,305.585 846.92,307.251 847.5,309.5C 845.413,308.415 844.08,306.749 843.5,304.5 Z"/></g>
<g><path style="opacity:0.757" fill="#353535" d="M 1307.5,304.5 C 1306.36,306.213 1304.7,306.88 1302.5,306.5C 1303.93,305.463 1305.6,304.796 1307.5,304.5 Z"/></g>
<g><path style="opacity:0.647" fill="#2a2a2a" d="M 1358.5,304.5 C 1360.88,305.351 1362.88,306.684 1364.5,308.5C 1361.73,308.13 1359.73,306.796 1358.5,304.5 Z"/></g>
<g><path style="opacity:0.067" fill="#212121" d="M 765.5,305.5 C 767.027,305.427 768.027,306.094 768.5,307.5C 766.973,307.573 765.973,306.906 765.5,305.5 Z"/></g>
<g><path style="opacity:0.714" fill="#2c2c2c" d="M 1438.5,305.5 C 1440.91,306.911 1442.58,308.911 1443.5,311.5C 1441.09,310.089 1439.42,308.089 1438.5,305.5 Z"/></g>
<g><path style="opacity:0.129" fill="#242424" d="M 773.5,306.5 C 775.027,306.427 776.027,307.094 776.5,308.5C 774.973,308.573 773.973,307.906 773.5,306.5 Z"/></g>
<g><path style="opacity:0.663" fill="#2c2c2c" d="M 769.5,307.5 C 770.71,307.932 771.71,308.599 772.5,309.5C 770.821,309.715 769.821,309.048 769.5,307.5 Z"/></g>
<g><path style="opacity:0.671" fill="#2a2a2a" d="M 1365.5,308.5 C 1366.71,308.932 1367.71,309.599 1368.5,310.5C 1366.82,310.715 1365.82,310.048 1365.5,308.5 Z"/></g>
<g><path style="opacity:0.259" fill="#2b2b2b" d="M 1371.5,308.5 C 1373.03,308.427 1374.03,309.094 1374.5,310.5C 1372.97,310.573 1371.97,309.906 1371.5,308.5 Z"/></g>
<g><path style="opacity:0.62" fill="#363636" d="M 702.5,309.5 C 702.027,310.906 701.027,311.573 699.5,311.5C 699.973,310.094 700.973,309.427 702.5,309.5 Z"/></g>
<g><path style="opacity:0.514" fill="#2a2a2a" d="M 1296.5,309.5 C 1296.03,310.906 1295.03,311.573 1293.5,311.5C 1293.97,310.094 1294.97,309.427 1296.5,309.5 Z"/></g>
<g><path style="opacity:0.176" fill="#222222" d="M 780.5,310.5 C 782.027,310.427 783.027,311.094 783.5,312.5C 781.973,312.573 780.973,311.906 780.5,310.5 Z"/></g>
<g><path style="opacity:0.533" fill="#333333" d="M 699.5,311.5 C 698.738,313.262 697.404,314.262 695.5,314.5C 696.262,312.738 697.596,311.738 699.5,311.5 Z"/></g>
<g><path style="opacity:0.004" fill="#1a1a1a" d="M 776.5,311.5 C 777.71,311.932 778.71,312.599 779.5,313.5C 777.821,313.715 776.821,313.048 776.5,311.5 Z"/></g>
<g><path style="opacity:0.204" fill="#282828" d="M 1376.5,311.5 C 1378.03,311.427 1379.03,312.094 1379.5,313.5C 1377.97,313.573 1376.97,312.906 1376.5,311.5 Z"/></g>
<g><path style="opacity:0.69" fill="#333333" d="M 1443.5,311.5 C 1445.26,312.262 1446.26,313.596 1446.5,315.5C 1444.74,314.738 1443.74,313.404 1443.5,311.5 Z"/></g>
<g><path style="opacity:0.31" fill="#262626" d="M 849.5,311.5 C 851.262,312.262 852.262,313.596 852.5,315.5C 850.738,314.738 849.738,313.404 849.5,311.5 Z"/></g>
<g><path style="opacity:0.733" fill="#2f2f2f" d="M 779.5,313.5 C 780.71,313.932 781.71,314.599 782.5,315.5C 780.821,315.715 779.821,315.048 779.5,313.5 Z"/></g>
<g><path style="opacity:0.169" fill="#252525" d="M 785.5,313.5 C 787.027,313.427 788.027,314.094 788.5,315.5C 786.973,315.573 785.973,314.906 785.5,313.5 Z"/></g>
<g><path style="opacity:0.494" fill="#2f2f2f" d="M 1293.5,311.5 C 1292.42,313.587 1290.75,314.92 1288.5,315.5C 1289.58,313.413 1291.25,312.08 1293.5,311.5 Z"/></g>
<g><path style="opacity:0.208" fill="#292929" d="M 1381.5,314.5 C 1383.03,314.427 1384.03,315.094 1384.5,316.5C 1382.97,316.573 1381.97,315.906 1381.5,314.5 Z"/></g>
<g><path style="opacity:0.851" fill="#3c3c3c" d="M 782.5,315.5 C 787.585,318.082 786.918,319.416 780.5,319.5C 781.806,318.533 782.473,317.199 782.5,315.5 Z"/></g>
<g><path style="opacity:0.467" fill="#242424" d="M 1288.5,315.5 C 1288.26,317.404 1287.26,318.738 1285.5,319.5C 1285.74,317.596 1286.74,316.262 1288.5,315.5 Z"/></g>
<g><path style="opacity:0.184" fill="#252525" d="M 790.5,316.5 C 792.027,316.427 793.027,317.094 793.5,318.5C 791.973,318.573 790.973,317.906 790.5,316.5 Z"/></g>
<g><path style="opacity:0.224" fill="#272727" d="M 852.5,315.5 C 853.906,315.973 854.573,316.973 854.5,318.5C 853.094,318.027 852.427,317.027 852.5,315.5 Z"/></g>
<g><path style="opacity:0.494" fill="#212121" d="M 1378.5,316.5 C 1381.02,317.86 1380.68,318.86 1377.5,319.5C 1378.11,318.609 1378.44,317.609 1378.5,316.5 Z"/></g>
<g><path style="opacity:0.122" fill="#1a1a1a" d="M 1384.5,316.5 C 1386.03,316.427 1387.03,317.094 1387.5,318.5C 1385.97,318.573 1384.97,317.906 1384.5,316.5 Z"/></g>
<g><path style="opacity:0.427" fill="#2a2a2a" d="M 1446.5,315.5 C 1448.26,316.262 1449.26,317.596 1449.5,319.5C 1447.74,318.738 1446.74,317.404 1446.5,315.5 Z"/></g>
<g><path style="opacity:0.357" fill="#252525" d="M 693.5,316.5 C 693.262,318.404 692.262,319.738 690.5,320.5C 690.738,318.596 691.738,317.262 693.5,316.5 Z"/></g>
<g><path style="opacity:0.275" fill="#2e2e2e" d="M 795.5,319.5 C 797.027,319.427 798.027,320.094 798.5,321.5C 796.973,321.573 795.973,320.906 795.5,319.5 Z"/></g>
<g><path style="opacity:0.184" fill="#262626" d="M 854.5,318.5 C 855.906,318.973 856.573,319.973 856.5,321.5C 855.094,321.027 854.427,320.027 854.5,318.5 Z"/></g>
<g><path style="opacity:0.498" fill="#2b2b2b" d="M 1285.5,319.5 C 1285.57,321.027 1284.91,322.027 1283.5,322.5C 1283.43,320.973 1284.09,319.973 1285.5,319.5 Z"/></g>
<g><path style="opacity:0.196" fill="#252525" d="M 1389.5,319.5 C 1391.03,319.427 1392.03,320.094 1392.5,321.5C 1390.97,321.573 1389.97,320.906 1389.5,319.5 Z"/></g>
<g><path style="opacity:0.882" fill="#404040" d="M 761.5,321.5 C 752.369,322.909 743.035,323.576 733.5,323.5C 742.602,321.73 751.935,321.063 761.5,321.5 Z"/></g>
<g><path style="opacity:0.212" fill="#242424" d="M 798.5,321.5 C 800.027,321.427 801.027,322.094 801.5,323.5C 799.973,323.573 798.973,322.906 798.5,321.5 Z"/></g>
<g><path style="opacity:0.318" fill="#2e2e2e" d="M 1394.5,322.5 C 1396.03,322.427 1397.03,323.094 1397.5,324.5C 1395.97,324.573 1394.97,323.906 1394.5,322.5 Z"/></g>
<g><path style="opacity:0.224" fill="#232323" d="M 1450.5,321.5 C 1451.91,321.973 1452.57,322.973 1452.5,324.5C 1451.09,324.027 1450.43,323.027 1450.5,321.5 Z"/></g>
<g><path style="opacity:0.192" fill="#282828" d="M 690.5,320.5 C 690.461,321.583 690.127,322.583 689.5,323.5C 690.325,324.386 691.325,324.719 692.5,324.5C 691.432,325.434 690.099,325.768 688.5,325.5C 688.12,323.302 688.787,321.635 690.5,320.5 Z"/></g>
<g><path style="opacity:0.173" fill="#252525" d="M 801.5,323.5 C 803.027,323.427 804.027,324.094 804.5,325.5C 802.973,325.573 801.973,324.906 801.5,323.5 Z"/></g>
<g><path style="opacity:0.224" fill="#303030" d="M 1283.5,322.5 C 1283.82,324.048 1284.82,324.715 1286.5,324.5C 1285.43,325.434 1284.1,325.768 1282.5,325.5C 1282.26,324.209 1282.6,323.209 1283.5,322.5 Z"/></g>
<g><path style="opacity:0.306" fill="#282828" d="M 1397.5,324.5 C 1399.03,324.427 1400.03,325.094 1400.5,326.5C 1398.97,326.573 1397.97,325.906 1397.5,324.5 Z"/></g>
<g><path style="opacity:0.165" fill="#242424" d="M 804.5,325.5 C 806.027,325.427 807.027,326.094 807.5,327.5C 805.973,327.573 804.973,326.906 804.5,325.5 Z"/></g>
<g><path style="opacity:0.329" fill="#2b2b2b" d="M 1400.5,326.5 C 1402.03,326.427 1403.03,327.094 1403.5,328.5C 1401.97,328.573 1400.97,327.906 1400.5,326.5 Z"/></g>
<g><path style="opacity:0.698" fill="#333333" d="M 809.5,328.5 C 811.404,328.738 812.738,329.738 813.5,331.5C 811.596,331.262 810.262,330.262 809.5,328.5 Z"/></g>
<g><path style="opacity:0.298" fill="#292929" d="M 1403.5,328.5 C 1405.03,328.427 1406.03,329.094 1406.5,330.5C 1404.97,330.573 1403.97,329.906 1403.5,328.5 Z"/></g>
<g><path style="opacity:0.478" fill="#2c2c2c" d="M 813.5,331.5 C 815.027,331.427 816.027,332.094 816.5,333.5C 814.973,333.573 813.973,332.906 813.5,331.5 Z"/></g>
<g><path style="opacity:0.318" fill="#2a2a2a" d="M 1406.5,330.5 C 1408.4,330.738 1409.74,331.738 1410.5,333.5C 1408.6,333.262 1407.26,332.262 1406.5,330.5 Z"/></g>
<g><path style="opacity:0.359" fill="#393939" d="M 731.5,335.5 C 737.653,334.347 743.986,334.18 750.5,335C 752.852,335.24 754.852,336.073 756.5,337.5C 748.279,335.765 739.945,335.098 731.5,335.5 Z"/></g>
<g><path style="opacity:0.278" fill="#262626" d="M 816.5,333.5 C 818.404,333.738 819.738,334.738 820.5,336.5C 818.596,336.262 817.262,335.262 816.5,333.5 Z"/></g>
<g><path style="opacity:0.204" fill="#212121" d="M 1410.5,333.5 C 1412.03,333.427 1413.03,334.094 1413.5,335.5C 1411.97,335.573 1410.97,334.906 1410.5,333.5 Z"/></g>
<g><path style="opacity:0.714" fill="#373737" d="M 1455.5,331.5 C 1456.92,333.515 1457.59,335.848 1457.5,338.5C 1456.08,336.485 1455.41,334.152 1455.5,331.5 Z"/></g>
<g><path style="opacity:0.999" fill="#656565" d="M 725.5,335.5 C 727.5,335.5 729.5,335.5 731.5,335.5C 739.945,335.098 748.279,335.765 756.5,337.5C 757.492,337.328 758.158,337.662 758.5,338.5C 758.821,340.048 759.821,340.715 761.5,340.5C 763.853,341.34 765.853,342.674 767.5,344.5C 767.973,345.906 768.973,346.573 770.5,346.5C 771.833,347.5 773.167,348.5 774.5,349.5C 774.5,350.833 775.167,351.5 776.5,351.5C 776.5,352.833 777.167,353.5 778.5,353.5C 779.5,353.833 780.167,354.5 780.5,355.5C 780.5,357.5 781.5,358.5 783.5,358.5C 784.08,360.749 785.413,362.415 787.5,363.5C 788.5,363.833 789.167,364.5 789.5,365.5C 789.738,367.404 790.738,368.738 792.5,369.5C 792.427,371.027 793.094,372.027 794.5,372.5C 796.008,374.181 797.008,376.181 797.5,378.5C 798.908,382.686 799.575,387.019 799.5,391.5C 798.942,392.79 797.942,393.623 796.5,394C 792.413,394.762 788.413,394.596 784.5,393.5C 782.485,392.076 780.152,391.41 777.5,391.5C 773.233,390.744 769.233,389.411 765.5,387.5C 765.027,386.094 764.027,385.427 762.5,385.5C 762.027,384.094 761.027,383.427 759.5,383.5C 758.738,381.738 757.404,380.738 755.5,380.5C 754.415,378.413 752.749,377.08 750.5,376.5C 749.738,374.738 748.404,373.738 746.5,373.5C 745.415,371.413 743.749,370.08 741.5,369.5C 740.415,367.413 738.749,366.08 736.5,365.5C 735.738,363.738 734.404,362.738 732.5,362.5C 731.738,360.738 730.404,359.738 728.5,359.5C 728.027,358.094 727.027,357.427 725.5,357.5C 725.027,356.094 724.027,355.427 722.5,355.5C 722.027,354.094 721.027,353.427 719.5,353.5C 717.181,353.008 715.181,352.008 713.5,350.5C 712.738,348.738 711.404,347.738 709.5,347.5C 709.392,345.486 710.058,343.82 711.5,342.5C 713.027,342.573 714.027,341.906 714.5,340.5C 716.181,338.992 718.181,337.992 720.5,337.5C 722.698,337.88 724.365,337.213 725.5,335.5 Z"/></g>
<g><path style="opacity:0.999" fill="#656565" d="M 1357.5,341.5 C 1357.97,342.906 1358.97,343.573 1360.5,343.5C 1361.03,345.446 1362.37,346.446 1364.5,346.5C 1365.17,346.5 1365.5,346.833 1365.5,347.5C 1365.97,348.906 1366.97,349.573 1368.5,349.5C 1368.5,350.833 1369.17,351.5 1370.5,351.5C 1374.17,354.5 1377.5,357.833 1380.5,361.5C 1380.74,363.404 1381.74,364.738 1383.5,365.5C 1385.26,366.262 1386.26,367.596 1386.5,369.5C 1386.43,371.027 1387.09,372.027 1388.5,372.5C 1389.34,372.842 1389.67,373.508 1389.5,374.5C 1389.43,376.027 1390.09,377.027 1391.5,377.5C 1398.53,390.972 1394.53,396.472 1379.5,394C 1377.94,393.79 1376.61,393.29 1375.5,392.5C 1373.16,390.96 1370.5,390.294 1367.5,390.5C 1363.41,389.618 1359.74,387.951 1356.5,385.5C 1355.74,383.738 1354.4,382.738 1352.5,382.5C 1351.74,380.738 1350.4,379.738 1348.5,379.5C 1347.42,377.413 1345.75,376.08 1343.5,375.5C 1342.42,373.413 1340.75,372.08 1338.5,371.5C 1338.03,370.094 1337.03,369.427 1335.5,369.5C 1334.5,369.167 1333.83,368.5 1333.5,367.5C 1332.74,365.738 1331.4,364.738 1329.5,364.5C 1329.03,363.094 1328.03,362.427 1326.5,362.5C 1325.74,360.738 1324.4,359.738 1322.5,359.5C 1322.03,358.094 1321.03,357.427 1319.5,357.5C 1318.74,355.738 1317.4,354.738 1315.5,354.5C 1314.51,354.672 1313.84,354.338 1313.5,353.5C 1313.03,352.094 1312.03,351.427 1310.5,351.5C 1310.17,351.5 1309.83,351.5 1309.5,351.5C 1309.03,350.094 1308.03,349.427 1306.5,349.5C 1306.03,348.094 1305.03,347.427 1303.5,347.5C 1303.39,345.486 1304.06,343.82 1305.5,342.5C 1307.03,342.573 1308.03,341.906 1308.5,340.5C 1310.51,338.935 1312.84,337.935 1315.5,337.5C 1318.15,337.59 1320.49,336.924 1322.5,335.5C 1329.8,334.441 1337.13,334.274 1344.5,335C 1349.44,336.138 1353.78,338.305 1357.5,341.5 Z"/></g>
<g><path style="opacity:0.557" fill="#2c2c2c" d="M 725.5,335.5 C 724.365,337.213 722.698,337.88 720.5,337.5C 721.93,336.463 723.597,335.796 725.5,335.5 Z"/></g>
<g><path style="opacity:0.341" fill="#1d1d1d" d="M 820.5,336.5 C 822.027,336.427 823.027,337.094 823.5,338.5C 821.973,338.573 820.973,337.906 820.5,336.5 Z"/></g>
<g><path style="opacity:0.804" fill="#434343" d="M 1322.5,335.5 C 1320.49,336.924 1318.15,337.59 1315.5,337.5C 1317.51,336.076 1319.85,335.41 1322.5,335.5 Z"/></g>
<g><path style="opacity:0.216" fill="#242424" d="M 1413.5,335.5 C 1415.03,335.427 1416.03,336.094 1416.5,337.5C 1414.97,337.573 1413.97,336.906 1413.5,335.5 Z"/></g>
<g><path style="opacity:0.212" fill="#222222" d="M 1416.5,337.5 C 1418.03,337.427 1419.03,338.094 1419.5,339.5C 1417.97,339.573 1416.97,338.906 1416.5,337.5 Z"/></g>
<g><path style="opacity:0.855" fill="#373737" d="M 758.5,338.5 C 759.71,338.932 760.71,339.599 761.5,340.5C 759.821,340.715 758.821,340.048 758.5,338.5 Z"/></g>
<g><path style="opacity:0.188" fill="#242424" d="M 825.5,339.5 C 827.027,339.427 828.027,340.094 828.5,341.5C 826.973,341.573 825.973,340.906 825.5,339.5 Z"/></g>
<g><path style="opacity:0.494" fill="#343434" d="M 714.5,340.5 C 714.027,341.906 713.027,342.573 711.5,342.5C 711.973,341.094 712.973,340.427 714.5,340.5 Z"/></g>
<g><path style="opacity:0.404" fill="#2c2c2c" d="M 1308.5,340.5 C 1308.03,341.906 1307.03,342.573 1305.5,342.5C 1305.97,341.094 1306.97,340.427 1308.5,340.5 Z"/></g>
<g><path style="opacity:0.004" fill="#181818" d="M 1357.5,341.5 C 1359.03,341.427 1360.03,342.094 1360.5,343.5C 1358.97,343.573 1357.97,342.906 1357.5,341.5 Z"/></g>
<g><path style="opacity:0.188" fill="#252525" d="M 1421.5,340.5 C 1423.03,340.427 1424.03,341.094 1424.5,342.5C 1422.97,342.573 1421.97,341.906 1421.5,340.5 Z"/></g>
<g><path style="opacity:0.885" fill="#424242" d="M 862.5,335.5 C 863.526,338.457 864.193,341.624 864.5,345C 864.693,347.008 864.026,348.508 862.5,349.5C 862.5,344.833 862.5,340.167 862.5,335.5 Z"/></g>
<g><path style="opacity:0.004" fill="#141414" d="M 767.5,344.5 C 769.027,344.427 770.027,345.094 770.5,346.5C 768.973,346.573 767.973,345.906 767.5,344.5 Z"/></g>
<g><path style="opacity:0.796" fill="#2f2f2f" d="M 1360.5,343.5 C 1362.23,344.026 1363.56,345.026 1364.5,346.5C 1362.37,346.446 1361.03,345.446 1360.5,343.5 Z"/></g>
<g><path style="opacity:0.855" fill="#3d3d3d" d="M 711.5,342.5 C 710.058,343.82 709.392,345.486 709.5,347.5C 706.926,344.983 707.592,343.316 711.5,342.5 Z"/></g>
<g><path style="opacity:0.62" fill="#2d2d2d" d="M 1305.5,342.5 C 1304.06,343.82 1303.39,345.486 1303.5,347.5C 1300.93,344.983 1301.59,343.316 1305.5,342.5 Z"/></g>
<g><path style="opacity:0.878" fill="#353535" d="M 840.5,347.5 C 843.649,347.415 846.316,348.415 848.5,350.5C 845.458,350.267 842.792,349.267 840.5,347.5 Z"/></g>
<g><path style="opacity:0.004" fill="#151515" d="M 1365.5,347.5 C 1367.03,347.427 1368.03,348.094 1368.5,349.5C 1366.97,349.573 1365.97,348.906 1365.5,347.5 Z"/></g>
<g><path style="opacity:0.384" fill="#2d2d2d" d="M 709.5,347.5 C 711.404,347.738 712.738,348.738 713.5,350.5C 711.596,350.262 710.262,349.262 709.5,347.5 Z"/></g>
<g><path style="opacity:0.286" fill="#2c2c2c" d="M 1303.5,347.5 C 1305.03,347.427 1306.03,348.094 1306.5,349.5C 1304.97,349.573 1303.97,348.906 1303.5,347.5 Z"/></g>
<g><path style="opacity:0.518" fill="#292929" d="M 1436.5,348.5 C 1439.15,348.41 1441.49,349.076 1443.5,350.5C 1440.85,350.59 1438.51,349.924 1436.5,348.5 Z"/></g>
<g><path style="opacity:0.443" fill="#292929" d="M 702.5,349.5 C 704.786,349.595 706.786,350.262 708.5,351.5C 706.102,351.741 704.102,351.074 702.5,349.5 Z"/></g>
<g><path style="opacity:0.345" fill="#1e1e1e" d="M 774.5,349.5 C 775.5,349.833 776.167,350.5 776.5,351.5C 775.167,351.5 774.5,350.833 774.5,349.5 Z"/></g>
<g><path style="opacity:0.752" fill="#3a3a3a" d="M 1302.5,351.5 C 1295.83,351.5 1289.17,351.5 1282.5,351.5C 1286.29,350.384 1290.29,349.718 1294.5,349.5C 1297.49,349.382 1300.15,350.048 1302.5,351.5 Z"/></g>
<g><path style="opacity:0.086" fill="#1b1b1b" d="M 1306.5,349.5 C 1308.03,349.427 1309.03,350.094 1309.5,351.5C 1307.97,351.573 1306.97,350.906 1306.5,349.5 Z"/></g>
<g><path style="opacity:0.49" fill="#242424" d="M 1368.5,349.5 C 1369.5,349.833 1370.17,350.5 1370.5,351.5C 1369.17,351.5 1368.5,350.833 1368.5,349.5 Z"/></g>
<g><path style="opacity:0.998" fill="#656565" d="M 702.5,349.5 C 704.102,351.074 706.102,351.741 708.5,351.5C 709.167,351.5 709.833,351.5 710.5,351.5C 710.821,353.048 711.821,353.715 713.5,353.5C 715.368,354.263 717.035,355.263 718.5,356.5C 718.821,358.048 719.821,358.715 721.5,358.5C 722.492,358.328 723.158,358.662 723.5,359.5C 724.035,361.446 725.368,362.446 727.5,362.5C 728.539,364.531 730.205,365.864 732.5,366.5C 732.427,368.027 733.094,369.027 734.5,369.5C 734.5,370.5 734.5,371.5 734.5,372.5C 733.5,372.5 732.5,372.5 731.5,372.5C 708.337,373.013 685.337,373.68 662.5,374.5C 655.256,374.724 648.256,376.057 641.5,378.5C 639.973,378.427 638.973,379.094 638.5,380.5C 637.624,380.631 636.957,380.298 636.5,379.5C 637.127,378.583 637.461,377.583 637.5,376.5C 638.906,376.027 639.573,375.027 639.5,373.5C 640.5,373.167 641.167,372.5 641.5,371.5C 643.262,370.738 644.262,369.404 644.5,367.5C 644.833,366.5 645.5,365.833 646.5,365.5C 649.089,364.581 651.089,362.914 652.5,360.5C 654.612,358.229 657.279,356.896 660.5,356.5C 663.228,356.829 665.562,356.163 667.5,354.5C 669.042,353.699 670.708,353.366 672.5,353.5C 676.79,353.802 680.79,353.136 684.5,351.5C 690.456,350.506 696.456,349.839 702.5,349.5 Z"/></g>
<g><path style="opacity:0.998" fill="#636363" d="M 1282.5,351.5 C 1289.17,351.5 1295.83,351.5 1302.5,351.5C 1303.17,351.5 1303.83,351.5 1304.5,351.5C 1304.82,353.048 1305.82,353.715 1307.5,353.5C 1308.83,354.167 1310.17,354.833 1311.5,355.5C 1312.03,357.446 1313.37,358.446 1315.5,358.5C 1316.49,358.328 1317.16,358.662 1317.5,359.5C 1318.03,361.446 1319.37,362.446 1321.5,362.5C 1322.03,364.446 1323.37,365.446 1325.5,365.5C 1327.98,366.804 1329.15,368.804 1329,371.5C 1325.69,372.976 1322.19,373.81 1318.5,374C 1296.17,374.5 1273.84,374.667 1251.5,374.5C 1248.48,374.335 1245.48,374.502 1242.5,375C 1241.94,375.383 1241.61,375.883 1241.5,376.5C 1238.35,377.576 1235.35,378.909 1232.5,380.5C 1231.62,380.631 1230.96,380.298 1230.5,379.5C 1231.63,378.378 1232.3,377.044 1232.5,375.5C 1234.26,374.738 1235.26,373.404 1235.5,371.5C 1239.5,368.167 1243.17,364.5 1246.5,360.5C 1248.03,360.573 1249.03,359.906 1249.5,358.5C 1250.93,357.463 1252.6,356.796 1254.5,356.5C 1257.5,356.706 1260.16,356.04 1262.5,354.5C 1268.88,352.439 1275.55,351.439 1282.5,351.5 Z"/></g>
<g><path style="opacity:0.863" fill="#444444" d="M 684.5,351.5 C 680.79,353.136 676.79,353.802 672.5,353.5C 676.295,352.383 680.295,351.717 684.5,351.5 Z"/></g>
<g><path style="opacity:0.565" fill="#2c2c2c" d="M 710.5,351.5 C 711.71,351.932 712.71,352.599 713.5,353.5C 711.821,353.715 710.821,353.048 710.5,351.5 Z"/></g>
<g><path style="opacity:0.514" fill="#242424" d="M 776.5,351.5 C 777.5,351.833 778.167,352.5 778.5,353.5C 777.167,353.5 776.5,352.833 776.5,351.5 Z"/></g>
<g><path style="opacity:0.694" fill="#2c2c2c" d="M 1304.5,351.5 C 1305.71,351.932 1306.71,352.599 1307.5,353.5C 1305.82,353.715 1304.82,353.048 1304.5,351.5 Z"/></g>
<g><path style="opacity:0.18" fill="#272727" d="M 1310.5,351.5 C 1312.03,351.427 1313.03,352.094 1313.5,353.5C 1311.97,353.573 1310.97,352.906 1310.5,351.5 Z"/></g>
<g><path style="opacity:0.231" fill="#252525" d="M 719.5,353.5 C 721.027,353.427 722.027,354.094 722.5,355.5C 720.973,355.573 719.973,354.906 719.5,353.5 Z"/></g>
<g><path style="opacity:0.788" fill="#3c3c3c" d="M 667.5,354.5 C 665.562,356.163 663.228,356.829 660.5,356.5C 662.515,355.076 664.848,354.41 667.5,354.5 Z"/></g>
<g><path style="opacity:0.475" fill="#272727" d="M 722.5,355.5 C 724.027,355.427 725.027,356.094 725.5,357.5C 723.973,357.573 722.973,356.906 722.5,355.5 Z"/></g>
<g><path style="opacity:0.749" fill="#3b3b3b" d="M 1262.5,354.5 C 1260.16,356.04 1257.5,356.706 1254.5,356.5C 1256.91,355.232 1259.57,354.565 1262.5,354.5 Z"/></g>
<g><path style="opacity:0.337" fill="#282828" d="M 1315.5,354.5 C 1317.4,354.738 1318.74,355.738 1319.5,357.5C 1317.6,357.262 1316.26,356.262 1315.5,354.5 Z"/></g>
<g><path style="opacity:0.604" fill="#323232" d="M 780.5,355.5 C 781.833,356.167 782.833,357.167 783.5,358.5C 781.5,358.5 780.5,357.5 780.5,355.5 Z"/></g>
<g><path style="opacity:0.655" fill="#2a2a2a" d="M 1311.5,355.5 C 1313.23,356.026 1314.56,357.026 1315.5,358.5C 1313.37,358.446 1312.03,357.446 1311.5,355.5 Z"/></g>
<g><path style="opacity:0.824" fill="#343434" d="M 718.5,356.5 C 719.71,356.932 720.71,357.599 721.5,358.5C 719.821,358.715 718.821,358.048 718.5,356.5 Z"/></g>
<g><path style="opacity:0.286" fill="#2b2b2b" d="M 725.5,357.5 C 727.027,357.427 728.027,358.094 728.5,359.5C 726.973,359.573 725.973,358.906 725.5,357.5 Z"/></g>
<g><path style="opacity:0.165" fill="#222222" d="M 1319.5,357.5 C 1321.03,357.427 1322.03,358.094 1322.5,359.5C 1320.97,359.573 1319.97,358.906 1319.5,357.5 Z"/></g>
<g><path style="opacity:0.573" fill="#282828" d="M 783.5,358.5 C 785.587,359.585 786.92,361.251 787.5,363.5C 785.413,362.415 784.08,360.749 783.5,358.5 Z"/></g>
<g><path style="opacity:0.498" fill="#303030" d="M 1249.5,358.5 C 1249.03,359.906 1248.03,360.573 1246.5,360.5C 1246.97,359.094 1247.97,358.427 1249.5,358.5 Z"/></g>
<g><path style="opacity:0.467" fill="#2e2e2e" d="M 728.5,359.5 C 730.404,359.738 731.738,360.738 732.5,362.5C 730.596,362.262 729.262,361.262 728.5,359.5 Z"/></g>
<g><path style="opacity:0.78" fill="#303030" d="M 1317.5,359.5 C 1319.23,360.026 1320.56,361.026 1321.5,362.5C 1319.37,362.446 1318.03,361.446 1317.5,359.5 Z"/></g>
<g><path style="opacity:0.31" fill="#272727" d="M 1322.5,359.5 C 1324.4,359.738 1325.74,360.738 1326.5,362.5C 1324.6,362.262 1323.26,361.262 1322.5,359.5 Z"/></g>
<g><path style="opacity:0.361" fill="#292929" d="M 723.5,359.5 C 725.23,360.026 726.564,361.026 727.5,362.5C 725.368,362.446 724.035,361.446 723.5,359.5 Z"/></g>
<g><path style="opacity:0.482" fill="#272727" d="M 1326.5,362.5 C 1328.03,362.427 1329.03,363.094 1329.5,364.5C 1327.97,364.573 1326.97,363.906 1326.5,362.5 Z"/></g>
<g><path style="opacity:0.475" fill="#252525" d="M 1380.5,361.5 C 1382.26,362.262 1383.26,363.596 1383.5,365.5C 1381.74,364.738 1380.74,363.404 1380.5,361.5 Z"/></g>
<g><path style="opacity:0.565" fill="#313131" d="M 652.5,360.5 C 651.089,362.914 649.089,364.581 646.5,365.5C 647.911,363.086 649.911,361.419 652.5,360.5 Z"/></g>
<g><path style="opacity:0.769" fill="#2a2a2a" d="M 727.5,362.5 C 729.754,363.124 731.421,364.457 732.5,366.5C 730.205,365.864 728.539,364.531 727.5,362.5 Z"/></g>
<g><path style="opacity:0.396" fill="#2b2b2b" d="M 732.5,362.5 C 734.404,362.738 735.738,363.738 736.5,365.5C 734.596,365.262 733.262,364.262 732.5,362.5 Z"/></g>
<g><path style="opacity:0.416" fill="#262626" d="M 1246.5,360.5 C 1243.17,364.5 1239.5,368.167 1235.5,371.5C 1238.17,366.833 1241.83,363.167 1246.5,360.5 Z"/></g>
<g><path style="opacity:0.875" fill="#333333" d="M 1321.5,362.5 C 1323.23,363.026 1324.56,364.026 1325.5,365.5C 1323.37,365.446 1322.03,364.446 1321.5,362.5 Z"/></g>
<g><path style="opacity:0.675" fill="#363636" d="M 1329.5,364.5 C 1331.4,364.738 1332.74,365.738 1333.5,367.5C 1331.6,367.262 1330.26,366.262 1329.5,364.5 Z"/></g>
<g><path style="opacity:0.506" fill="#252525" d="M 789.5,365.5 C 791.262,366.262 792.262,367.596 792.5,369.5C 790.738,368.738 789.738,367.404 789.5,365.5 Z"/></g>
<g><path style="opacity:0.435" fill="#262626" d="M 732.5,366.5 C 733.906,366.973 734.573,367.973 734.5,369.5C 733.094,369.027 732.427,368.027 732.5,366.5 Z"/></g>
<g><path style="opacity:0.137" fill="#242424" d="M 736.5,365.5 C 738.749,366.08 740.415,367.413 741.5,369.5C 739.251,368.92 737.585,367.587 736.5,365.5 Z"/></g>
<g><path style="opacity:0.549" fill="#252525" d="M 741.5,369.5 C 743.749,370.08 745.415,371.413 746.5,373.5C 744.251,372.92 742.585,371.587 741.5,369.5 Z"/></g>
<g><path style="opacity:0.408" fill="#252525" d="M 1335.5,369.5 C 1337.03,369.427 1338.03,370.094 1338.5,371.5C 1336.97,371.573 1335.97,370.906 1335.5,369.5 Z"/></g>
<g><path style="opacity:0.361" fill="#2c2c2c" d="M 644.5,367.5 C 644.262,369.404 643.262,370.738 641.5,371.5C 641.738,369.596 642.738,368.262 644.5,367.5 Z"/></g>
<g><path style="opacity:0.102" fill="#1c1c1c" d="M 792.5,369.5 C 793.906,369.973 794.573,370.973 794.5,372.5C 793.094,372.027 792.427,371.027 792.5,369.5 Z"/></g>
<g><path style="opacity:0.69" fill="#2e2e2e" d="M 1338.5,371.5 C 1340.75,372.08 1342.42,373.413 1343.5,375.5C 1341.25,374.92 1339.58,373.587 1338.5,371.5 Z"/></g>
<g><path style="opacity:0.247" fill="#272727" d="M 1386.5,369.5 C 1387.91,369.973 1388.57,370.973 1388.5,372.5C 1387.09,372.027 1386.43,371.027 1386.5,369.5 Z"/></g>
<g><path style="opacity:0.129" fill="#1b1b1b" d="M 641.5,371.5 C 641.167,372.5 640.5,373.167 639.5,373.5C 639.5,372.167 640.167,371.5 641.5,371.5 Z"/></g>
<g><path style="opacity:0.678" fill="#343434" d="M 1235.5,371.5 C 1235.26,373.404 1234.26,374.738 1232.5,375.5C 1232.74,373.596 1233.74,372.262 1235.5,371.5 Z"/></g>
<g><path style="opacity:0.29" fill="#3a3a3a" d="M 731.5,372.5 C 729.369,373.314 727.036,373.814 724.5,374C 703.836,374.5 683.169,374.667 662.5,374.5C 685.337,373.68 708.337,373.013 731.5,372.5 Z"/></g>
<g><path style="opacity:0.486" fill="#252525" d="M 746.5,373.5 C 748.404,373.738 749.738,374.738 750.5,376.5C 748.596,376.262 747.262,375.262 746.5,373.5 Z"/></g>
<g><path style="opacity:0.188" fill="#282828" d="M 1251.5,374.5 C 1248.32,375.323 1244.98,375.99 1241.5,376.5C 1241.61,375.883 1241.94,375.383 1242.5,375C 1245.48,374.502 1248.48,374.335 1251.5,374.5 Z"/></g>
<g><path style="opacity:0.255" fill="#292929" d="M 639.5,373.5 C 639.573,375.027 638.906,376.027 637.5,376.5C 637.427,374.973 638.094,373.973 639.5,373.5 Z"/></g>
<g><path style="opacity:0.655" fill="#2b2b2b" d="M 1343.5,375.5 C 1345.75,376.08 1347.42,377.413 1348.5,379.5C 1346.25,378.92 1344.58,377.587 1343.5,375.5 Z"/></g>
<g><path style="opacity:0.11" fill="#1f1f1f" d="M 1389.5,374.5 C 1390.91,374.973 1391.57,375.973 1391.5,377.5C 1390.09,377.027 1389.43,376.027 1389.5,374.5 Z"/></g>
<g><path style="opacity:0.337" fill="#282828" d="M 750.5,376.5 C 752.749,377.08 754.415,378.413 755.5,380.5C 753.251,379.92 751.585,378.587 750.5,376.5 Z"/></g>
<g><path style="opacity:0.004" fill="#171717" d="M 641.5,378.5 C 641.027,379.906 640.027,380.573 638.5,380.5C 638.973,379.094 639.973,378.427 641.5,378.5 Z"/></g>
<g><path style="opacity:0.686" fill="#343434" d="M 1348.5,379.5 C 1350.4,379.738 1351.74,380.738 1352.5,382.5C 1350.6,382.262 1349.26,381.262 1348.5,379.5 Z"/></g>
<g><path style="opacity:0.827" fill="#363636" d="M 637.5,376.5 C 637.461,377.583 637.127,378.583 636.5,379.5C 636.957,380.298 637.624,380.631 638.5,380.5C 637.171,382.377 635.838,382.544 634.5,381C 634.899,379.019 635.899,377.519 637.5,376.5 Z"/></g>
<g><path style="opacity:0.635" fill="#2e2e2e" d="M 755.5,380.5 C 757.404,380.738 758.738,381.738 759.5,383.5C 757.596,383.262 756.262,382.262 755.5,380.5 Z"/></g>
<g><path style="opacity:0.784" fill="#3a3a3a" d="M 1232.5,375.5 C 1232.3,377.044 1231.63,378.378 1230.5,379.5C 1230.96,380.298 1231.62,380.631 1232.5,380.5C 1232.5,381.167 1232.17,381.5 1231.5,381.5C 1230.51,381.672 1229.84,381.338 1229.5,380.5C 1229.27,378.067 1230.27,376.401 1232.5,375.5 Z"/></g>
<g><path style="opacity:0.294" fill="#313131" d="M 665.5,382.5 C 672.332,381.061 678.999,381.728 685.5,384.5C 678.906,383.182 672.24,382.515 665.5,382.5 Z"/></g>
<g><path style="opacity:0.898" fill="#353535" d="M 797.5,378.5 C 800.38,382.548 801.046,386.881 799.5,391.5C 799.575,387.019 798.908,382.686 797.5,378.5 Z"/></g>
<g><path style="opacity:0.004" fill="#0a0a0a" d="M 1229.5,380.5 C 1229.84,381.338 1230.51,381.672 1231.5,381.5C 1230.61,382.776 1229.61,382.776 1228.5,381.5C 1228.62,380.893 1228.96,380.56 1229.5,380.5 Z"/></g>
<g><path style="opacity:0.28" fill="#353535" d="M 1259.5,382.5 C 1264.91,381.143 1270.24,381.476 1275.5,383.5C 1270.19,382.902 1264.85,382.569 1259.5,382.5 Z"/></g>
<g><path style="opacity:0.999" fill="#656565" d="M 664.5,382.5 C 664.833,382.5 665.167,382.5 665.5,382.5C 672.24,382.515 678.906,383.182 685.5,384.5C 690.426,384.806 694.759,386.472 698.5,389.5C 698.973,390.906 699.973,391.573 701.5,391.5C 704.5,393.833 707.167,396.5 709.5,399.5C 710.419,402.089 712.086,404.089 714.5,405.5C 715.5,405.833 716.167,406.5 716.5,407.5C 717.08,409.749 718.413,411.415 720.5,412.5C 720.738,414.404 721.738,415.738 723.5,416.5C 724.5,416.833 725.167,417.5 725.5,418.5C 725.427,420.027 726.094,421.027 727.5,421.5C 727.738,423.404 728.738,424.738 730.5,425.5C 730.427,427.027 731.094,428.027 732.5,428.5C 733.338,428.842 733.672,429.508 733.5,430.5C 733.427,432.027 734.094,433.027 735.5,433.5C 736.404,434.209 736.737,435.209 736.5,436.5C 737.162,440.466 737.495,444.466 737.5,448.5C 736.232,450.387 734.399,451.387 732,451.5C 729.292,451.133 726.792,450.466 724.5,449.5C 722.485,448.076 720.152,447.41 717.5,447.5C 714.088,446.925 711.088,445.592 708.5,443.5C 708.027,442.094 707.027,441.427 705.5,441.5C 704.508,441.672 703.842,441.338 703.5,440.5C 703.027,439.094 702.027,438.427 700.5,438.5C 700.027,437.094 699.027,436.427 697.5,436.5C 697.027,435.094 696.027,434.427 694.5,434.5C 694.027,433.094 693.027,432.427 691.5,432.5C 691.027,431.094 690.027,430.427 688.5,430.5C 688.027,429.094 687.027,428.427 685.5,428.5C 684.738,426.738 683.404,425.738 681.5,425.5C 680.738,423.738 679.404,422.738 677.5,422.5C 676.738,420.738 675.404,419.738 673.5,419.5C 672.415,417.413 670.749,416.08 668.5,415.5C 666.833,414.5 665.5,413.167 664.5,411.5C 662.833,409.167 660.833,407.167 658.5,405.5C 653.078,401.954 650.412,397.288 650.5,391.5C 652.833,389.833 654.833,387.833 656.5,385.5C 656.842,384.662 657.508,384.328 658.5,384.5C 660.898,384.741 662.898,384.074 664.5,382.5 Z"/></g>
<g><path style="opacity:0.999" fill="#666666" d="M 1259.5,382.5 C 1264.85,382.569 1270.19,382.902 1275.5,383.5C 1283.56,384.28 1290.56,387.28 1296.5,392.5C 1298.17,394.833 1300.17,396.833 1302.5,398.5C 1304.17,399.5 1305.5,400.833 1306.5,402.5C 1307.08,404.749 1308.41,406.415 1310.5,407.5C 1311.5,407.833 1312.17,408.5 1312.5,409.5C 1312.74,411.404 1313.74,412.738 1315.5,413.5C 1316.08,415.749 1317.41,417.415 1319.5,418.5C 1319.74,420.404 1320.74,421.738 1322.5,422.5C 1322.74,424.404 1323.74,425.738 1325.5,426.5C 1326.34,426.842 1326.67,427.508 1326.5,428.5C 1326.43,430.027 1327.09,431.027 1328.5,431.5C 1329.67,432.514 1330.34,433.847 1330.5,435.5C 1331.2,439.798 1331.53,444.131 1331.5,448.5C 1329.06,451.456 1326.06,452.123 1322.5,450.5C 1320.16,448.96 1317.5,448.294 1314.5,448.5C 1313.21,448.737 1312.21,448.404 1311.5,447.5C 1310.36,445.787 1308.7,445.12 1306.5,445.5C 1304.85,445.34 1303.51,444.674 1302.5,443.5C 1302.03,442.094 1301.03,441.427 1299.5,441.5C 1298.51,441.672 1297.84,441.338 1297.5,440.5C 1297.03,439.094 1296.03,438.427 1294.5,438.5C 1294.03,437.094 1293.03,436.427 1291.5,436.5C 1291.03,435.094 1290.03,434.427 1288.5,434.5C 1288.03,433.094 1287.03,432.427 1285.5,432.5C 1284.74,430.738 1283.4,429.738 1281.5,429.5C 1281.03,428.094 1280.03,427.427 1278.5,427.5C 1277.74,425.738 1276.4,424.738 1274.5,424.5C 1273.74,422.738 1272.4,421.738 1270.5,421.5C 1269.74,419.738 1268.4,418.738 1266.5,418.5C 1265.09,416.086 1263.09,414.419 1260.5,413.5C 1256.17,409.833 1252.17,405.833 1248.5,401.5C 1248.57,399.973 1247.91,398.973 1246.5,398.5C 1245.73,395.904 1245.4,393.237 1245.5,390.5C 1247.17,389.5 1248.5,388.167 1249.5,386.5C 1251.03,386.573 1252.03,385.906 1252.5,384.5C 1255.15,384.59 1257.49,383.924 1259.5,382.5 Z"/></g>
<g><path style="opacity:0.765" fill="#353535" d="M 664.5,382.5 C 662.898,384.074 660.898,384.741 658.5,384.5C 660.102,382.926 662.102,382.259 664.5,382.5 Z"/></g>
<g><path style="opacity:0.706" fill="#383838" d="M 1259.5,382.5 C 1257.49,383.924 1255.15,384.59 1252.5,384.5C 1254.51,383.076 1256.85,382.41 1259.5,382.5 Z"/></g>
<g><path style="opacity:0.404" fill="#2f2f2f" d="M 1352.5,382.5 C 1354.4,382.738 1355.74,383.738 1356.5,385.5C 1354.6,385.262 1353.26,384.262 1352.5,382.5 Z"/></g>
<g><path style="opacity:0.267" fill="#292929" d="M 759.5,383.5 C 761.027,383.427 762.027,384.094 762.5,385.5C 760.973,385.573 759.973,384.906 759.5,383.5 Z"/></g>
<g><path style="opacity:0.545" fill="#2f2f2f" d="M 1252.5,384.5 C 1252.03,385.906 1251.03,386.573 1249.5,386.5C 1249.97,385.094 1250.97,384.427 1252.5,384.5 Z"/></g>
<g><path style="opacity:0.122" fill="#191919" d="M 762.5,385.5 C 764.027,385.427 765.027,386.094 765.5,387.5C 763.973,387.573 762.973,386.906 762.5,385.5 Z"/></g>
<g><path style="opacity:0.396" fill="#2d2d2d" d="M 1249.5,386.5 C 1248.5,388.167 1247.17,389.5 1245.5,390.5C 1245.83,388.167 1247.17,386.833 1249.5,386.5 Z"/></g>
<g><path style="opacity:0.631" fill="#2d2d2d" d="M 656.5,385.5 C 654.833,387.833 652.833,389.833 650.5,391.5C 651.5,388.5 653.5,386.5 656.5,385.5 Z"/></g>
<g><path style="opacity:0.035" fill="#1f1f1f" d="M 698.5,389.5 C 700.027,389.427 701.027,390.094 701.5,391.5C 699.973,391.573 698.973,390.906 698.5,389.5 Z"/></g>
<g><path style="opacity:0.761" fill="#393939" d="M 1367.5,390.5 C 1370.5,390.294 1373.16,390.96 1375.5,392.5C 1372.57,392.435 1369.91,391.768 1367.5,390.5 Z"/></g>
<g><path style="opacity:0.663" fill="#333333" d="M 777.5,391.5 C 780.152,391.41 782.485,392.076 784.5,393.5C 781.848,393.59 779.515,392.924 777.5,391.5 Z"/></g>
<g><path style="opacity:0.004" fill="#181818" d="M 1296.5,392.5 C 1299.5,393.5 1301.5,395.5 1302.5,398.5C 1300.17,396.833 1298.17,394.833 1296.5,392.5 Z"/></g>
<g><path style="opacity:0.704" fill="#414141" d="M 1245.5,390.5 C 1245.4,393.237 1245.73,395.904 1246.5,398.5C 1244.97,397.508 1244.31,396.008 1244.5,394C 1244.51,392.615 1244.85,391.449 1245.5,390.5 Z"/></g>
<g><path style="opacity:0.004" fill="#181818" d="M 1246.5,398.5 C 1247.91,398.973 1248.57,399.973 1248.5,401.5C 1247.09,401.027 1246.43,400.027 1246.5,398.5 Z"/></g>
<g><path style="opacity:0.997" fill="#646464" d="M 650.5,401.5 C 653.5,406.5 657.5,410.5 662.5,413.5C 663.757,416.427 665.757,418.761 668.5,420.5C 659.682,421.493 650.682,421.827 641.5,421.5C 622.89,420.578 604.556,422.245 586.5,426.5C 585.448,426.649 584.448,426.483 583.5,426C 585.706,423.963 587.706,421.797 589.5,419.5C 590.882,417.451 592.548,415.785 594.5,414.5C 597.427,413.243 599.761,411.243 601.5,408.5C 603.404,408.262 604.738,407.262 605.5,405.5C 607.027,405.573 608.027,404.906 608.5,403.5C 611.491,403.834 613.824,402.834 615.5,400.5C 627.184,399.375 638.85,399.709 650.5,401.5 Z"/></g>
<g><path style="opacity:0.604" fill="#282828" d="M 709.5,399.5 C 711.914,400.911 713.581,402.911 714.5,405.5C 712.086,404.089 710.419,402.089 709.5,399.5 Z"/></g>
<g><path style="opacity:0.998" fill="#636363" d="M 1241.5,401.5 C 1243.81,402.793 1246.14,404.126 1248.5,405.5C 1248.5,407.5 1249.5,408.5 1251.5,408.5C 1255.17,411.5 1258.5,414.833 1261.5,418.5C 1261.41,419.496 1261.75,420.329 1262.5,421C 1253.84,421.5 1245.17,421.666 1236.5,421.5C 1218.65,420.767 1200.98,422.101 1183.5,425.5C 1181.52,425.843 1180.18,425.176 1179.5,423.5C 1180.83,421.5 1182.5,419.833 1184.5,418.5C 1188.1,416.57 1191.1,413.903 1193.5,410.5C 1194.5,410.167 1195.17,409.5 1195.5,408.5C 1197.03,408.573 1198.03,407.906 1198.5,406.5C 1198.97,405.094 1199.97,404.427 1201.5,404.5C 1203.03,404.573 1204.03,403.906 1204.5,402.5C 1206.7,402.88 1208.36,402.213 1209.5,400.5C 1220.24,399.192 1230.91,399.525 1241.5,401.5 Z"/></g>
<g><path style="opacity:0.592" fill="#303030" d="M 1209.5,400.5 C 1208.36,402.213 1206.7,402.88 1204.5,402.5C 1205.93,401.463 1207.6,400.796 1209.5,400.5 Z"/></g>
<g><path style="opacity:0.871" fill="#3e3e3e" d="M 615.5,400.5 C 613.824,402.834 611.491,403.834 608.5,403.5C 610.509,401.935 612.843,400.935 615.5,400.5 Z"/></g>
<g><path style="opacity:0.259" fill="#1d1d1d" d="M 650.5,401.5 C 654.833,405.167 658.833,409.167 662.5,413.5C 657.5,410.5 653.5,406.5 650.5,401.5 Z"/></g>
<g><path style="opacity:0.365" fill="#292929" d="M 1241.5,401.5 C 1244.81,401.149 1247.14,402.482 1248.5,405.5C 1246.14,404.126 1243.81,402.793 1241.5,401.5 Z"/></g>
<g><path style="opacity:0.4" fill="#272727" d="M 1204.5,402.5 C 1204.03,403.906 1203.03,404.573 1201.5,404.5C 1201.97,403.094 1202.97,402.427 1204.5,402.5 Z"/></g>
<g><path style="opacity:0.494" fill="#242424" d="M 1306.5,402.5 C 1308.59,403.585 1309.92,405.251 1310.5,407.5C 1308.41,406.415 1307.08,404.749 1306.5,402.5 Z"/></g>
<g><path style="opacity:0.396" fill="#2b2b2b" d="M 608.5,403.5 C 608.027,404.906 607.027,405.573 605.5,405.5C 605.973,404.094 606.973,403.427 608.5,403.5 Z"/></g>
<g><path style="opacity:0.388" fill="#363636" d="M 605.5,405.5 C 604.738,407.262 603.404,408.262 601.5,408.5C 602.262,406.738 603.596,405.738 605.5,405.5 Z"/></g>
<g><path style="opacity:0.004" fill="#161616" d="M 658.5,405.5 C 660.833,407.167 662.833,409.167 664.5,411.5C 661.5,410.5 659.5,408.5 658.5,405.5 Z"/></g>
<g><path style="opacity:0.388" fill="#232323" d="M 1248.5,405.5 C 1249.83,406.167 1250.83,407.167 1251.5,408.5C 1249.5,408.5 1248.5,407.5 1248.5,405.5 Z"/></g>
<g><path style="opacity:0.502" fill="#333333" d="M 1198.5,406.5 C 1198.03,407.906 1197.03,408.573 1195.5,408.5C 1195.97,407.094 1196.97,406.427 1198.5,406.5 Z"/></g>
<g><path style="opacity:0.561" fill="#262626" d="M 716.5,407.5 C 718.587,408.585 719.92,410.251 720.5,412.5C 718.413,411.415 717.08,409.749 716.5,407.5 Z"/></g>
<g><path style="opacity:0.122" fill="#202020" d="M 1195.5,408.5 C 1195.17,409.5 1194.5,410.167 1193.5,410.5C 1193.5,409.167 1194.17,408.5 1195.5,408.5 Z"/></g>
<g><path style="opacity:0.455" fill="#252525" d="M 1312.5,409.5 C 1314.26,410.262 1315.26,411.596 1315.5,413.5C 1313.74,412.738 1312.74,411.404 1312.5,409.5 Z"/></g>
<g><path style="opacity:0.529" fill="#363636" d="M 601.5,408.5 C 599.761,411.243 597.427,413.243 594.5,414.5C 596.239,411.757 598.573,409.757 601.5,408.5 Z"/></g>
<g><path style="opacity:0.682" fill="#303030" d="M 720.5,412.5 C 722.262,413.262 723.262,414.596 723.5,416.5C 721.738,415.738 720.738,414.404 720.5,412.5 Z"/></g>
<g><path style="opacity:0.529" fill="#262626" d="M 1260.5,413.5 C 1263.09,414.419 1265.09,416.086 1266.5,418.5C 1263.91,417.581 1261.91,415.914 1260.5,413.5 Z"/></g>
<g><path style="opacity:0.302" fill="#232323" d="M 662.5,413.5 C 665.167,415.5 667.5,417.833 669.5,420.5C 669.167,420.5 668.833,420.5 668.5,420.5C 665.757,418.761 663.757,416.427 662.5,413.5 Z"/></g>
<g><path style="opacity:0.596" fill="#3c3c3c" d="M 1193.5,410.5 C 1191.1,413.903 1188.1,416.57 1184.5,418.5C 1186.9,415.097 1189.9,412.43 1193.5,410.5 Z"/></g>
<g><path style="opacity:0.702" fill="#2f2f2f" d="M 1315.5,413.5 C 1317.59,414.585 1318.92,416.251 1319.5,418.5C 1317.41,417.415 1316.08,415.749 1315.5,413.5 Z"/></g>
<g><path style="opacity:0.537" fill="#262626" d="M 668.5,415.5 C 670.749,416.08 672.415,417.413 673.5,419.5C 671.251,418.92 669.585,417.587 668.5,415.5 Z"/></g>
<g><path style="opacity:0.631" fill="#2c2c2c" d="M 1266.5,418.5 C 1268.4,418.738 1269.74,419.738 1270.5,421.5C 1268.6,421.262 1267.26,420.262 1266.5,418.5 Z"/></g>
<g><path style="opacity:0.278" fill="#282828" d="M 589.5,419.5 C 587.706,421.797 585.706,423.963 583.5,426C 584.448,426.483 585.448,426.649 586.5,426.5C 585.432,427.434 584.099,427.768 582.5,427.5C 583.393,423.605 585.726,420.938 589.5,419.5 Z"/></g>
<g><path style="opacity:0.427" fill="#292929" d="M 673.5,419.5 C 675.404,419.738 676.738,420.738 677.5,422.5C 675.596,422.262 674.262,421.262 673.5,419.5 Z"/></g>
<g><path style="opacity:0.282" fill="#212121" d="M 725.5,418.5 C 726.906,418.973 727.573,419.973 727.5,421.5C 726.094,421.027 725.427,420.027 725.5,418.5 Z"/></g>
<g><path style="opacity:0.508" fill="#3f3f3f" d="M 1261.5,418.5 C 1262.81,419.145 1263.81,420.145 1264.5,421.5C 1255.01,422.822 1245.67,422.822 1236.5,421.5C 1245.17,421.666 1253.84,421.5 1262.5,421C 1261.75,420.329 1261.41,419.496 1261.5,418.5 Z"/></g>
<g><path style="opacity:0.424" fill="#303030" d="M 1319.5,418.5 C 1321.26,419.262 1322.26,420.596 1322.5,422.5C 1320.74,421.738 1319.74,420.404 1319.5,418.5 Z"/></g>
<g><path style="opacity:0.488" fill="#3d3d3d" d="M 668.5,420.5 C 668.833,420.5 669.167,420.5 669.5,420.5C 670.043,420.56 670.376,420.893 670.5,421.5C 660.675,422.823 651.008,422.823 641.5,421.5C 650.682,421.827 659.682,421.493 668.5,420.5 Z"/></g>
<g><path style="opacity:0.694" fill="#353535" d="M 1270.5,421.5 C 1272.4,421.738 1273.74,422.738 1274.5,424.5C 1272.6,424.262 1271.26,423.262 1270.5,421.5 Z"/></g>
<g><path style="opacity:0.624" fill="#2e2e2e" d="M 727.5,421.5 C 729.262,422.262 730.262,423.596 730.5,425.5C 728.738,424.738 727.738,423.404 727.5,421.5 Z"/></g>
<g><path style="opacity:0.408" fill="#2b2b2b" d="M 677.5,422.5 C 679.404,422.738 680.738,423.738 681.5,425.5C 679.596,425.262 678.262,424.262 677.5,422.5 Z"/></g>
<g><path style="opacity:0.647" fill="#313131" d="M 1274.5,424.5 C 1276.4,424.738 1277.74,425.738 1278.5,427.5C 1276.6,427.262 1275.26,426.262 1274.5,424.5 Z"/></g>
<g><path style="opacity:0.376" fill="#2a2a2a" d="M 1322.5,422.5 C 1324.26,423.262 1325.26,424.596 1325.5,426.5C 1323.74,425.738 1322.74,424.404 1322.5,422.5 Z"/></g>
<g><path style="opacity:0.58" fill="#272727" d="M 681.5,425.5 C 683.404,425.738 684.738,426.738 685.5,428.5C 683.596,428.262 682.262,427.262 681.5,425.5 Z"/></g>
<g><path style="opacity:0.906" fill="#3b3b3b" d="M 1179.5,423.5 C 1180.18,425.176 1181.52,425.843 1183.5,425.5C 1181.4,427.273 1179.07,427.606 1176.5,426.5C 1177.19,425.145 1178.19,424.145 1179.5,423.5 Z"/></g>
<g><path style="opacity:0.216" fill="#252525" d="M 730.5,425.5 C 731.906,425.973 732.573,426.973 732.5,428.5C 731.094,428.027 730.427,427.027 730.5,425.5 Z"/></g>
<g><path style="opacity:0.298" fill="#2a2a2a" d="M 1278.5,427.5 C 1280.03,427.427 1281.03,428.094 1281.5,429.5C 1279.97,429.573 1278.97,428.906 1278.5,427.5 Z"/></g>
<g><path style="opacity:0.2" fill="#232323" d="M 685.5,428.5 C 687.027,428.427 688.027,429.094 688.5,430.5C 686.973,430.573 685.973,429.906 685.5,428.5 Z"/></g>
<g><path style="opacity:0.361" fill="#2a2a2a" d="M 1281.5,429.5 C 1283.4,429.738 1284.74,430.738 1285.5,432.5C 1283.6,432.262 1282.26,431.262 1281.5,429.5 Z"/></g>
<g><path style="opacity:0.263" fill="#2a2a2a" d="M 1326.5,428.5 C 1327.91,428.973 1328.57,429.973 1328.5,431.5C 1327.09,431.027 1326.43,430.027 1326.5,428.5 Z"/></g>
<g><path style="opacity:0.239" fill="#272727" d="M 688.5,430.5 C 690.027,430.427 691.027,431.094 691.5,432.5C 689.973,432.573 688.973,431.906 688.5,430.5 Z"/></g>
<g><path style="opacity:0.169" fill="#242424" d="M 733.5,430.5 C 734.906,430.973 735.573,431.973 735.5,433.5C 734.094,433.027 733.427,432.027 733.5,430.5 Z"/></g>
<g><path style="opacity:0.271" fill="#292929" d="M 691.5,432.5 C 693.027,432.427 694.027,433.094 694.5,434.5C 692.973,434.573 691.973,433.906 691.5,432.5 Z"/></g>
<g><path style="opacity:0.188" fill="#1d1d1d" d="M 1285.5,432.5 C 1287.03,432.427 1288.03,433.094 1288.5,434.5C 1286.97,434.573 1285.97,433.906 1285.5,432.5 Z"/></g>
<g><path style="opacity:0.271" fill="#2a2a2a" d="M 694.5,434.5 C 696.027,434.427 697.027,435.094 697.5,436.5C 695.973,436.573 694.973,435.906 694.5,434.5 Z"/></g>
<g><path style="opacity:0.176" fill="#1d1d1d" d="M 1288.5,434.5 C 1290.03,434.427 1291.03,435.094 1291.5,436.5C 1289.97,436.573 1288.97,435.906 1288.5,434.5 Z"/></g>
<g><path style="opacity:0.231" fill="#252525" d="M 697.5,436.5 C 699.027,436.427 700.027,437.094 700.5,438.5C 698.973,438.573 697.973,437.906 697.5,436.5 Z"/></g>
<g><path style="opacity:0.133" fill="#1f1f1f" d="M 1291.5,436.5 C 1293.03,436.427 1294.03,437.094 1294.5,438.5C 1292.97,438.573 1291.97,437.906 1291.5,436.5 Z"/></g>
<g><path style="opacity:0.196" fill="#222222" d="M 700.5,438.5 C 702.027,438.427 703.027,439.094 703.5,440.5C 701.973,440.573 700.973,439.906 700.5,438.5 Z"/></g>
<g><path style="opacity:0.094" fill="#1c1c1c" d="M 1294.5,438.5 C 1296.03,438.427 1297.03,439.094 1297.5,440.5C 1295.97,440.573 1294.97,439.906 1294.5,438.5 Z"/></g>
<g><path style="opacity:0.176" fill="#262626" d="M 705.5,441.5 C 707.027,441.427 708.027,442.094 708.5,443.5C 706.973,443.573 705.973,442.906 705.5,441.5 Z"/></g>
<g><path style="opacity:0.616" fill="#404040" d="M 736.5,436.5 C 738.017,438.462 738.684,440.795 738.5,443.5C 738.493,445.369 738.16,447.036 737.5,448.5C 737.495,444.466 737.162,440.466 736.5,436.5 Z"/></g>
<g><path style="opacity:0.122" fill="#202020" d="M 1299.5,441.5 C 1301.03,441.427 1302.03,442.094 1302.5,443.5C 1300.97,443.573 1299.97,442.906 1299.5,441.5 Z"/></g>
<g><path style="opacity:0.779" fill="#393939" d="M 1330.5,435.5 C 1332.17,437.98 1333.17,440.813 1333.5,444C 1333.48,445.876 1332.81,447.376 1331.5,448.5C 1331.53,444.131 1331.2,439.798 1330.5,435.5 Z"/></g>
<g><path style="opacity:0.78" fill="#363636" d="M 1306.5,445.5 C 1308.7,445.12 1310.36,445.787 1311.5,447.5C 1309.6,447.204 1307.93,446.537 1306.5,445.5 Z"/></g>
<g><path style="opacity:0.655" fill="#313131" d="M 717.5,447.5 C 720.152,447.41 722.485,448.076 724.5,449.5C 721.848,449.59 719.515,448.924 717.5,447.5 Z"/></g>
<g><path style="opacity:0.998" fill="#646464" d="M 622.5,457.5 C 623.552,459.256 625.219,459.923 627.5,459.5C 627.833,459.5 628.167,459.5 628.5,459.5C 629.552,461.256 631.219,461.923 633.5,461.5C 636.327,462.108 638.993,463.108 641.5,464.5C 642.287,466.104 643.62,466.771 645.5,466.5C 647.954,467.227 650.287,468.227 652.5,469.5C 652.821,471.048 653.821,471.715 655.5,471.5C 656.492,471.328 657.158,471.662 657.5,472.5C 658.035,474.446 659.368,475.446 661.5,475.5C 663.772,476.441 665.772,477.774 667.5,479.5C 667.5,480.833 668.167,481.5 669.5,481.5C 669.738,483.404 670.738,484.738 672.5,485.5C 672.427,487.027 673.094,488.027 674.5,488.5C 675.979,491.143 675.646,493.643 673.5,496C 663.56,496.245 653.893,494.745 644.5,491.5C 642.562,489.837 640.228,489.171 637.5,489.5C 615.427,484.616 593.094,481.949 570.5,481.5C 563.04,480.128 555.374,479.461 547.5,479.5C 538.887,478.293 530.22,477.626 521.5,477.5C 521.629,475.784 521.962,474.117 522.5,472.5C 524.5,471.167 526.167,469.5 527.5,467.5C 529.749,466.92 531.415,465.587 532.5,463.5C 534.027,463.573 535.027,462.906 535.5,461.5C 537.027,461.573 538.027,460.906 538.5,459.5C 540.027,459.573 541.027,458.906 541.5,457.5C 546.07,454.384 551.07,452.05 556.5,450.5C 559.152,450.59 561.485,449.924 563.5,448.5C 583.535,448.03 603.202,451.03 622.5,457.5 Z"/></g>
<g><path style="opacity:0.999" fill="#656565" d="M 1185.5,450.5 C 1194.83,451.497 1203.83,453.497 1212.5,456.5C 1214.1,458.074 1216.1,458.741 1218.5,458.5C 1219.96,458.433 1221.29,458.766 1222.5,459.5C 1224.62,461.655 1227.28,462.655 1230.5,462.5C 1232.4,462.796 1234.07,463.463 1235.5,464.5C 1236.29,466.104 1237.62,466.771 1239.5,466.5C 1240.79,466.263 1241.79,466.596 1242.5,467.5C 1243.29,469.104 1244.62,469.771 1246.5,469.5C 1247.83,470.167 1249.17,470.833 1250.5,471.5C 1250.82,473.048 1251.82,473.715 1253.5,473.5C 1253.81,475.144 1254.81,476.144 1256.5,476.5C 1256.83,476.5 1257.17,476.5 1257.5,476.5C 1258.54,478.531 1260.21,479.864 1262.5,480.5C 1263.5,480.833 1264.17,481.5 1264.5,482.5C 1264.74,484.404 1265.74,485.738 1267.5,486.5C 1269.38,488.795 1269.88,491.462 1269,494.5C 1267.3,495.733 1265.3,496.4 1263,496.5C 1254.63,495.66 1246.46,493.993 1238.5,491.5C 1236.9,489.926 1234.9,489.259 1232.5,489.5C 1215.37,485.672 1198.04,483.339 1180.5,482.5C 1171.39,480.775 1162.06,480.108 1152.5,480.5C 1140.85,480.687 1129.51,479.354 1118.5,476.5C 1117.17,474.5 1117.17,472.5 1118.5,470.5C 1120.17,469.5 1121.5,468.167 1122.5,466.5C 1124.4,466.262 1125.74,465.262 1126.5,463.5C 1128.4,463.262 1129.74,462.262 1130.5,460.5C 1132.18,458.992 1134.18,457.992 1136.5,457.5C 1138.85,457.408 1140.51,456.408 1141.5,454.5C 1141.83,454.5 1142.17,454.5 1142.5,454.5C 1144.97,454.245 1146.97,453.245 1148.5,451.5C 1150.9,451.741 1152.9,451.074 1154.5,449.5C 1157.65,449.077 1160.81,448.744 1164,448.5C 1171.14,449.497 1178.31,450.163 1185.5,450.5 Z"/></g>
<g><path style="opacity:0.251" fill="#3b3b3b" d="M 1185.5,450.5 C 1178.31,450.163 1171.14,449.497 1164,448.5C 1160.81,448.744 1157.65,449.077 1154.5,449.5C 1157.36,447.994 1160.52,447.328 1164,447.5C 1171.38,448.007 1178.54,449.007 1185.5,450.5 Z"/></g>
<g><path style="opacity:0.671" fill="#3c3c3c" d="M 563.5,448.5 C 561.485,449.924 559.152,450.59 556.5,450.5C 558.515,449.076 560.848,448.41 563.5,448.5 Z"/></g>
<g><path style="opacity:0.325" fill="#2f2f2f" d="M 1314.5,448.5 C 1317.5,448.294 1320.16,448.96 1322.5,450.5C 1319.57,450.435 1316.91,449.768 1314.5,448.5 Z"/></g>
<g><path style="opacity:0.812" fill="#3e3e3e" d="M 1154.5,449.5 C 1152.9,451.074 1150.9,451.741 1148.5,451.5C 1150.1,449.926 1152.1,449.259 1154.5,449.5 Z"/></g>
<g><path style="opacity:0.455" fill="#343434" d="M 1148.5,451.5 C 1146.97,453.245 1144.97,454.245 1142.5,454.5C 1144.03,452.755 1146.03,451.755 1148.5,451.5 Z"/></g>
<g><path style="opacity:0.498" fill="#3a3a3a" d="M 1141.5,454.5 C 1140.51,456.408 1138.85,457.408 1136.5,457.5C 1137.66,455.75 1139.33,454.75 1141.5,454.5 Z"/></g>
<g><path style="opacity:0.31" fill="#2e2e2e" d="M 1212.5,456.5 C 1214.79,456.595 1216.79,457.262 1218.5,458.5C 1216.1,458.741 1214.1,458.074 1212.5,456.5 Z"/></g>
<g><path style="opacity:0.376" fill="#262626" d="M 541.5,457.5 C 541.027,458.906 540.027,459.573 538.5,459.5C 538.973,458.094 539.973,457.427 541.5,457.5 Z"/></g>
<g><path style="opacity:0.871" fill="#353535" d="M 622.5,457.5 C 624.306,458.024 625.972,458.691 627.5,459.5C 625.219,459.923 623.552,459.256 622.5,457.5 Z"/></g>
<g><path style="opacity:0.518" fill="#353535" d="M 538.5,459.5 C 538.027,460.906 537.027,461.573 535.5,461.5C 535.973,460.094 536.973,459.427 538.5,459.5 Z"/></g>
<g><path style="opacity:0.839" fill="#343434" d="M 628.5,459.5 C 630.306,460.024 631.972,460.691 633.5,461.5C 631.219,461.923 629.552,461.256 628.5,459.5 Z"/></g>
<g><path style="opacity:0.329" fill="#272727" d="M 1130.5,460.5 C 1129.74,462.262 1128.4,463.262 1126.5,463.5C 1127.26,461.738 1128.6,460.738 1130.5,460.5 Z"/></g>
<g><path style="opacity:0.176" fill="#262626" d="M 1222.5,459.5 C 1225.4,460.129 1228.06,461.129 1230.5,462.5C 1227.28,462.655 1224.62,461.655 1222.5,459.5 Z"/></g>
<g><path style="opacity:0.525" fill="#333333" d="M 535.5,461.5 C 535.027,462.906 534.027,463.573 532.5,463.5C 532.973,462.094 533.973,461.427 535.5,461.5 Z"/></g>
<g><path style="opacity:0.42" fill="#2e2e2e" d="M 1126.5,463.5 C 1125.74,465.262 1124.4,466.262 1122.5,466.5C 1123.26,464.738 1124.6,463.738 1126.5,463.5 Z"/></g>
<g><path style="opacity:0.235" fill="#2b2b2b" d="M 641.5,464.5 C 643.153,464.66 644.486,465.326 645.5,466.5C 643.62,466.771 642.287,466.104 641.5,464.5 Z"/></g>
<g><path style="opacity:0.31" fill="#313131" d="M 1235.5,464.5 C 1237.15,464.66 1238.49,465.326 1239.5,466.5C 1237.62,466.771 1236.29,466.104 1235.5,464.5 Z"/></g>
<g><path style="opacity:0.737" fill="#393939" d="M 532.5,463.5 C 531.415,465.587 529.749,466.92 527.5,467.5C 528.585,465.413 530.251,464.08 532.5,463.5 Z"/></g>
<g><path style="opacity:0.341" fill="#2a2a2a" d="M 1122.5,466.5 C 1121.5,468.167 1120.17,469.5 1118.5,470.5C 1118.83,468.167 1120.17,466.833 1122.5,466.5 Z"/></g>
<g><path style="opacity:0.086" fill="#222222" d="M 1242.5,467.5 C 1244.15,467.66 1245.49,468.326 1246.5,469.5C 1244.62,469.771 1243.29,469.104 1242.5,467.5 Z"/></g>
<g><path style="opacity:0.267" fill="#212121" d="M 527.5,467.5 C 526.167,469.5 524.5,471.167 522.5,472.5C 523.167,469.833 524.833,468.167 527.5,467.5 Z"/></g>
<g><path style="opacity:0.725" fill="#303030" d="M 652.5,469.5 C 653.71,469.932 654.71,470.599 655.5,471.5C 653.821,471.715 652.821,471.048 652.5,469.5 Z"/></g>
<g><path style="opacity:0.004" fill="#1b1b1b" d="M 1250.5,471.5 C 1251.71,471.932 1252.71,472.599 1253.5,473.5C 1251.82,473.715 1250.82,473.048 1250.5,471.5 Z"/></g>
<g><path style="opacity:0.737" fill="#2f2f2f" d="M 657.5,472.5 C 659.23,473.026 660.564,474.026 661.5,475.5C 659.368,475.446 658.035,474.446 657.5,472.5 Z"/></g>
<g><path style="opacity:0.62" fill="#323232" d="M 1118.5,470.5 C 1117.17,472.5 1117.17,474.5 1118.5,476.5C 1114.9,474.692 1114.9,472.692 1118.5,470.5 Z"/></g>
<g><path style="opacity:0.616" fill="#303030" d="M 1253.5,473.5 C 1255.19,473.856 1256.19,474.856 1256.5,476.5C 1254.81,476.144 1253.81,475.144 1253.5,473.5 Z"/></g>
<g><path style="opacity:0.827" fill="#3b3b3b" d="M 522.5,472.5 C 521.962,474.117 521.629,475.784 521.5,477.5C 530.22,477.626 538.887,478.293 547.5,479.5C 547.5,479.833 547.5,480.167 547.5,480.5C 538.83,479.9 530.163,479.233 521.5,478.5C 520.833,478.167 520.167,477.833 519.5,477.5C 519.957,475.402 520.957,473.736 522.5,472.5 Z"/></g>
<g><path style="opacity:0.29" fill="#272727" d="M 1257.5,476.5 C 1259.75,477.124 1261.42,478.457 1262.5,480.5C 1260.21,479.864 1258.54,478.531 1257.5,476.5 Z"/></g>
<g><path style="opacity:0.697" fill="#444444" d="M 547.5,480.5 C 547.5,480.167 547.5,479.833 547.5,479.5C 555.374,479.461 563.04,480.128 570.5,481.5C 562.83,481.222 555.164,480.889 547.5,480.5 Z"/></g>
<g><path style="opacity:0.318" fill="#1f1f1f" d="M 667.5,479.5 C 668.5,479.833 669.167,480.5 669.5,481.5C 668.167,481.5 667.5,480.833 667.5,479.5 Z"/></g>
<g><path style="opacity:0.871" fill="#464646" d="M 1152.5,480.5 C 1162.06,480.108 1171.39,480.775 1180.5,482.5C 1170.99,482.256 1161.65,481.589 1152.5,480.5 Z"/></g>
<g><path style="opacity:0.997" fill="#5f5f5f" d="M 536.5,481.5 C 537.263,482.268 538.263,482.768 539.5,483C 544.155,483.499 548.821,483.666 553.5,483.5C 555.167,483.5 556.833,483.5 558.5,483.5C 559.833,484.5 559.833,485.5 558.5,486.5C 551.314,491.261 543.647,495.261 535.5,498.5C 533.973,498.427 532.973,499.094 532.5,500.5C 522.265,506.117 511.932,511.45 501.5,516.5C 499.821,516.715 498.821,516.048 498.5,514.5C 498.328,513.508 498.662,512.842 499.5,512.5C 501.262,511.738 502.262,510.404 502.5,508.5C 503.906,508.027 504.573,507.027 504.5,505.5C 506.262,504.738 507.262,503.404 507.5,501.5C 508.701,499.091 510.367,497.091 512.5,495.5C 514.262,494.738 515.262,493.404 515.5,491.5C 517.262,490.738 518.262,489.404 518.5,487.5C 519.906,487.027 520.573,486.027 520.5,484.5C 521.906,484.027 522.573,483.027 522.5,481.5C 526.998,480.625 531.665,480.625 536.5,481.5 Z"/></g>
<g><path style="opacity:0.629" fill="#3b3b3b" d="M 536.5,481.5 C 542.339,481.898 548.006,482.565 553.5,483.5C 548.821,483.666 544.155,483.499 539.5,483C 538.263,482.768 537.263,482.268 536.5,481.5 Z"/></g>
<g><path style="opacity:0.369" fill="#242424" d="M 669.5,481.5 C 671.262,482.262 672.262,483.596 672.5,485.5C 670.738,484.738 669.738,483.404 669.5,481.5 Z"/></g>
<g><path style="opacity:0.141" fill="#1d1d1d" d="M 1124.5,481.5 C 1121.16,481.065 1118.16,481.732 1115.5,483.5C 1115.41,482.504 1115.75,481.671 1116.5,481C 1119.37,480.199 1122.03,480.366 1124.5,481.5 Z"/></g>
<g><path style="opacity:0.997" fill="#5f5f5f" d="M 1124.5,481.5 C 1134.54,481.781 1144.54,482.615 1154.5,484C 1155.74,484.69 1155.74,485.19 1154.5,485.5C 1152.97,485.427 1151.97,486.094 1151.5,487.5C 1137.71,495.564 1123.37,502.898 1108.5,509.5C 1106.97,509.427 1105.97,510.094 1105.5,511.5C 1102.48,513.674 1099.15,515.341 1095.5,516.5C 1093.82,516.715 1092.82,516.048 1092.5,514.5C 1094.26,513.738 1095.26,512.404 1095.5,510.5C 1096.91,510.027 1097.57,509.027 1097.5,507.5C 1099.59,506.415 1100.92,504.749 1101.5,502.5C 1103.26,501.738 1104.26,500.404 1104.5,498.5C 1106.26,497.738 1107.26,496.404 1107.5,494.5C 1109.26,493.738 1110.26,492.404 1110.5,490.5C 1111.91,490.027 1112.57,489.027 1112.5,487.5C 1114.26,486.738 1115.26,485.404 1115.5,483.5C 1118.16,481.732 1121.16,481.065 1124.5,481.5 Z"/></g>
<g><path style="opacity:0.114" fill="#1d1d1d" d="M 522.5,481.5 C 522.573,483.027 521.906,484.027 520.5,484.5C 520.427,482.973 521.094,481.973 522.5,481.5 Z"/></g>
<g><path style="opacity:0.506" fill="#2a2a2a" d="M 1264.5,482.5 C 1266.26,483.262 1267.26,484.596 1267.5,486.5C 1265.74,485.738 1264.74,484.404 1264.5,482.5 Z"/></g>
<g><path style="opacity:0.471" fill="#252525" d="M 1115.5,483.5 C 1115.26,485.404 1114.26,486.738 1112.5,487.5C 1112.74,485.596 1113.74,484.262 1115.5,483.5 Z"/></g>
<g><path style="opacity:0.031" fill="#1d1d1d" d="M 558.5,483.5 C 562.5,484.5 562.5,485.5 558.5,486.5C 559.833,485.5 559.833,484.5 558.5,483.5 Z"/></g>
<g><path style="opacity:0.153" fill="#1f1f1f" d="M 520.5,484.5 C 520.573,486.027 519.906,487.027 518.5,487.5C 518.427,485.973 519.094,484.973 520.5,484.5 Z"/></g>
<g><path style="opacity:0.004" fill="#181818" d="M 1154.5,485.5 C 1154.03,486.906 1153.03,487.573 1151.5,487.5C 1151.97,486.094 1152.97,485.427 1154.5,485.5 Z"/></g>
<g><path style="opacity:0.231" fill="#2e2e2e" d="M 672.5,485.5 C 673.906,485.973 674.573,486.973 674.5,488.5C 673.094,488.027 672.427,487.027 672.5,485.5 Z"/></g>
<g><path style="opacity:0.522" fill="#282828" d="M 518.5,487.5 C 518.262,489.404 517.262,490.738 515.5,491.5C 515.738,489.596 516.738,488.262 518.5,487.5 Z"/></g>
<g><path style="opacity:0.408" fill="#242424" d="M 1112.5,487.5 C 1112.57,489.027 1111.91,490.027 1110.5,490.5C 1110.43,488.973 1111.09,487.973 1112.5,487.5 Z"/></g>
<g><path style="opacity:0.627" fill="#323232" d="M 637.5,489.5 C 640.228,489.171 642.562,489.837 644.5,491.5C 641.933,491.279 639.599,490.612 637.5,489.5 Z"/></g>
<g><path style="opacity:0.588" fill="#323232" d="M 1232.5,489.5 C 1234.9,489.259 1236.9,489.926 1238.5,491.5C 1236.21,491.405 1234.21,490.738 1232.5,489.5 Z"/></g>
<g><path style="opacity:0.533" fill="#2c2c2c" d="M 515.5,491.5 C 515.262,493.404 514.262,494.738 512.5,495.5C 512.738,493.596 513.738,492.262 515.5,491.5 Z"/></g>
<g><path style="opacity:0.384" fill="#303030" d="M 1110.5,490.5 C 1110.26,492.404 1109.26,493.738 1107.5,494.5C 1107.74,492.596 1108.74,491.262 1110.5,490.5 Z"/></g>
<g><path style="opacity:0.608" fill="#2c2c2c" d="M 1107.5,494.5 C 1107.26,496.404 1106.26,497.738 1104.5,498.5C 1104.74,496.596 1105.74,495.262 1107.5,494.5 Z"/></g>
<g><path style="opacity:0.004" fill="#181818" d="M 535.5,498.5 C 535.027,499.906 534.027,500.573 532.5,500.5C 532.973,499.094 533.973,498.427 535.5,498.5 Z"/></g>
<g><path style="opacity:0.639" fill="#303030" d="M 1104.5,498.5 C 1104.26,500.404 1103.26,501.738 1101.5,502.5C 1101.74,500.596 1102.74,499.262 1104.5,498.5 Z"/></g>
<g><path style="opacity:0.29" fill="#262626" d="M 507.5,501.5 C 507.262,503.404 506.262,504.738 504.5,505.5C 504.738,503.596 505.738,502.262 507.5,501.5 Z"/></g>
<g><path style="opacity:0.314" fill="#282828" d="M 1101.5,502.5 C 1100.92,504.749 1099.59,506.415 1097.5,507.5C 1098.08,505.251 1099.41,503.585 1101.5,502.5 Z"/></g>
<g><path style="opacity:0.278" fill="#272727" d="M 504.5,505.5 C 504.573,507.027 503.906,508.027 502.5,508.5C 502.427,506.973 503.094,505.973 504.5,505.5 Z"/></g>
<g><path style="opacity:0.608" fill="#2b2b2b" d="M 502.5,508.5 C 502.262,510.404 501.262,511.738 499.5,512.5C 499.738,510.596 500.738,509.262 502.5,508.5 Z"/></g>
<g><path style="opacity:0.267" fill="#282828" d="M 1097.5,507.5 C 1097.57,509.027 1096.91,510.027 1095.5,510.5C 1095.43,508.973 1096.09,507.973 1097.5,507.5 Z"/></g>
<g><path style="opacity:0.004" fill="#191919" d="M 1108.5,509.5 C 1108.03,510.906 1107.03,511.573 1105.5,511.5C 1105.97,510.094 1106.97,509.427 1108.5,509.5 Z"/></g>
<g><path style="opacity:0.6" fill="#2b2b2b" d="M 1095.5,510.5 C 1095.26,512.404 1094.26,513.738 1092.5,514.5C 1092.74,512.596 1093.74,511.262 1095.5,510.5 Z"/></g>
<g><path style="opacity:0.659" fill="#343434" d="M 498.5,514.5 C 498.821,516.048 499.821,516.715 501.5,516.5C 500.22,517.931 498.553,518.598 496.5,518.5C 496.229,516.62 496.896,515.287 498.5,514.5 Z"/></g>
<g><path style="opacity:0.027" fill="#373737" d="M 1092.5,514.5 C 1092.82,516.048 1093.82,516.715 1095.5,516.5C 1094.22,517.931 1092.55,518.598 1090.5,518.5C 1090.23,516.62 1090.9,515.287 1092.5,514.5 Z"/></g>
</svg>
