<?xml version="1.0" encoding="UTF-8"?>
<!DOCTYPE svg PUBLIC "-//W3C//DTD SVG 1.1//EN" "http://www.w3.org/Graphics/SVG/1.1/DTD/svg11.dtd">
<svg xmlns="http://www.w3.org/2000/svg" version="1.1" width="2118px" height="1156px" style="shape-rendering:geometricPrecision; text-rendering:geometricPrecision; image-rendering:optimizeQuality; fill-rule:evenodd; clip-rule:evenodd" xmlns:xlink="http://www.w3.org/1999/xlink">
<g><path style="opacity:0.396" fill="#2a2a2a" d="M 906.5,128.5 C 910.04,128.753 913.373,129.419 916.5,130.5C 912.84,130.841 909.507,130.175 906.5,128.5 Z"/></g>
<g><path style="opacity:0.38" fill="#2b2b2b" d="M 1500.5,128.5 C 1504.04,128.753 1507.37,129.419 1510.5,130.5C 1506.84,130.841 1503.51,130.175 1500.5,128.5 Z"/></g>
<g><path style="opacity:1" fill="#666666" d="M 906.5,128.5 C 909.507,130.175 912.84,130.841 916.5,130.5C 918.621,130.325 920.621,130.659 922.5,131.5C 924.033,133.245 926.033,134.245 928.5,134.5C 931.475,135.655 934.142,137.322 936.5,139.5C 936.738,141.404 937.738,142.738 939.5,143.5C 940.5,143.833 941.167,144.5 941.5,145.5C 941.427,147.027 942.094,148.027 943.5,148.5C 943.427,150.027 944.094,151.027 945.5,151.5C 946.931,152.78 947.598,154.447 947.5,156.5C 947.565,159.428 948.232,162.095 949.5,164.5C 951.417,194.084 942.75,220.084 923.5,242.5C 922.094,242.973 921.427,243.973 921.5,245.5C 921.5,246.167 921.167,246.5 920.5,246.5C 919.094,246.973 918.427,247.973 918.5,249.5C 916.664,252.168 914.331,254.334 911.5,256C 905.604,256.926 899.938,258.592 894.5,261C 888.175,261.5 881.842,261.666 875.5,261.5C 871.818,261.335 868.152,261.501 864.5,262C 863.584,262.278 862.918,262.778 862.5,263.5C 853.519,264.941 844.519,266.275 835.5,267.5C 833.473,267.338 831.473,267.505 829.5,268C 828.944,268.383 828.611,268.883 828.5,269.5C 825.63,270.634 822.63,271.3 819.5,271.5C 816.833,271.5 814.167,271.5 811.5,271.5C 805.188,268.679 798.855,265.845 792.5,263C 785.563,261.712 778.563,261.212 771.5,261.5C 771.5,260.167 771.5,258.833 771.5,257.5C 773.25,253.817 773.917,249.817 773.5,245.5C 773.232,243.901 773.566,242.568 774.5,241.5C 775.924,239.485 776.59,237.152 776.5,234.5C 778.391,226.717 781.391,219.384 785.5,212.5C 786.906,212.027 787.573,211.027 787.5,209.5C 787.328,208.508 787.662,207.842 788.5,207.5C 789.906,207.027 790.573,206.027 790.5,204.5C 790.328,203.508 790.662,202.842 791.5,202.5C 792.906,202.027 793.573,201.027 793.5,199.5C 795.262,198.738 796.262,197.404 796.5,195.5C 798.016,192.467 800.016,189.8 802.5,187.5C 804.587,186.415 805.92,184.749 806.5,182.5C 806.833,181.5 807.5,180.833 808.5,180.5C 813.833,175.833 818.833,170.833 823.5,165.5C 823.5,164.167 824.167,163.5 825.5,163.5C 827.749,162.92 829.415,161.587 830.5,159.5C 838.133,152.344 846.8,146.677 856.5,142.5C 858.027,142.573 859.027,141.906 859.5,140.5C 863.266,138.284 867.266,136.617 871.5,135.5C 876.438,134.769 881.105,133.435 885.5,131.5C 892.171,129.129 899.171,128.129 906.5,128.5 Z"/></g>
<g><path style="opacity:1" fill="#666666" d="M 1500.5,128.5 C 1503.51,130.175 1506.84,130.841 1510.5,130.5C 1517.15,130.71 1522.82,133.043 1527.5,137.5C 1528.26,139.262 1529.6,140.262 1531.5,140.5C 1532.42,143.089 1534.09,145.089 1536.5,146.5C 1541.42,152.144 1543.92,158.811 1544,166.5C 1545.42,181.777 1543.09,196.443 1537,210.5C 1529.74,226.7 1520.24,241.366 1508.5,254.5C 1501.85,256.56 1495.18,258.727 1488.5,261C 1461.31,261.898 1434.65,266.065 1408.5,273.5C 1407.89,273.376 1407.56,273.043 1407.5,272.5C 1407.03,271.094 1406.03,270.427 1404.5,270.5C 1396.47,266.649 1388.13,263.649 1379.5,261.5C 1375.36,260.437 1371.03,259.77 1366.5,259.5C 1366.5,257.5 1366.5,255.5 1366.5,253.5C 1366.5,252.833 1366.5,252.167 1366.5,251.5C 1368.26,247.453 1369.26,243.12 1369.5,238.5C 1372.58,226.236 1377.58,214.903 1384.5,204.5C 1385.91,204.027 1386.57,203.027 1386.5,201.5C 1387.45,199.223 1388.78,197.223 1390.5,195.5C 1392.59,194.415 1393.92,192.749 1394.5,190.5C 1394.74,188.596 1395.74,187.262 1397.5,186.5C 1399.91,185.089 1401.58,183.089 1402.5,180.5C 1402.5,179.833 1402.83,179.5 1403.5,179.5C 1408.17,175.5 1412.5,171.167 1416.5,166.5C 1419.43,165.243 1421.76,163.243 1423.5,160.5C 1425.75,159.92 1427.42,158.587 1428.5,156.5C 1438.72,147.547 1450.39,140.881 1463.5,136.5C 1469.03,135.21 1474.37,133.543 1479.5,131.5C 1486.17,129.129 1493.17,128.129 1500.5,128.5 Z"/></g>
<g><path style="opacity:0.051" fill="#212121" d="M 922.5,131.5 C 924.967,131.755 926.967,132.755 928.5,134.5C 926.033,134.245 924.033,133.245 922.5,131.5 Z"/></g>
<g><path style="opacity:0.537" fill="#343434" d="M 1479.5,131.5 C 1474.37,133.543 1469.03,135.21 1463.5,136.5C 1468.37,133.657 1473.7,131.991 1479.5,131.5 Z"/></g>
<g><path style="opacity:0.624" fill="#373737" d="M 885.5,131.5 C 881.105,133.435 876.438,134.769 871.5,135.5C 875.805,133.254 880.471,131.92 885.5,131.5 Z"/></g>
<g><path style="opacity:0.004" fill="#191919" d="M 1527.5,137.5 C 1529.4,137.738 1530.74,138.738 1531.5,140.5C 1529.6,140.262 1528.26,139.262 1527.5,137.5 Z"/></g>
<g><path style="opacity:0.294" fill="#1d1d1d" d="M 936.5,139.5 C 938.262,140.262 939.262,141.596 939.5,143.5C 937.738,142.738 936.738,141.404 936.5,139.5 Z"/></g>
<g><path style="opacity:0.369" fill="#242424" d="M 859.5,140.5 C 859.027,141.906 858.027,142.573 856.5,142.5C 856.973,141.094 857.973,140.427 859.5,140.5 Z"/></g>
<g><path style="opacity:0.412" fill="#212121" d="M 1531.5,140.5 C 1533.91,141.911 1535.58,143.911 1536.5,146.5C 1534.09,145.089 1532.42,143.089 1531.5,140.5 Z"/></g>
<g><path style="opacity:0.278" fill="#252525" d="M 941.5,145.5 C 942.906,145.973 943.573,146.973 943.5,148.5C 942.094,148.027 941.427,147.027 941.5,145.5 Z"/></g>
<g><path style="opacity:0.188" fill="#282828" d="M 943.5,148.5 C 944.906,148.973 945.573,149.973 945.5,151.5C 944.094,151.027 943.427,150.027 943.5,148.5 Z"/></g>
<g><path style="opacity:0.671" fill="#373737" d="M 1428.5,156.5 C 1427.42,158.587 1425.75,159.92 1423.5,160.5C 1424.58,158.413 1426.25,157.08 1428.5,156.5 Z"/></g>
<g><path style="opacity:0.643" fill="#333333" d="M 830.5,159.5 C 829.415,161.587 827.749,162.92 825.5,163.5C 826.585,161.413 828.251,160.08 830.5,159.5 Z"/></g>
<g><path style="opacity:0.145" fill="#282828" d="M 947.5,156.5 C 949.04,158.838 949.706,161.505 949.5,164.5C 948.232,162.095 947.565,159.428 947.5,156.5 Z"/></g>
<g><path style="opacity:0.58" fill="#393939" d="M 1423.5,160.5 C 1421.76,163.243 1419.43,165.243 1416.5,166.5C 1418.24,163.757 1420.57,161.757 1423.5,160.5 Z"/></g>
<g><path style="opacity:0.329" fill="#282828" d="M 1416.5,166.5 C 1412.5,171.167 1408.17,175.5 1403.5,179.5C 1406.83,174.167 1411.17,169.833 1416.5,166.5 Z"/></g>
<g><path style="opacity:0.553" fill="#2e2e2e" d="M 823.5,165.5 C 818.833,170.833 813.833,175.833 808.5,180.5C 812.5,174.5 817.5,169.5 823.5,165.5 Z"/></g>
<g><path style="opacity:0.31" fill="#2d2d2d" d="M 1402.5,180.5 C 1401.58,183.089 1399.91,185.089 1397.5,186.5C 1398.42,183.911 1400.09,181.911 1402.5,180.5 Z"/></g>
<g><path style="opacity:0.416" fill="#292929" d="M 806.5,182.5 C 805.92,184.749 804.587,186.415 802.5,187.5C 803.08,185.251 804.413,183.585 806.5,182.5 Z"/></g>
<g><path style="opacity:0.133" fill="#282828" d="M 1394.5,190.5 C 1393.92,192.749 1392.59,194.415 1390.5,195.5C 1391.08,193.251 1392.41,191.585 1394.5,190.5 Z"/></g>
<g><path style="opacity:0.341" fill="#292929" d="M 796.5,195.5 C 796.262,197.404 795.262,198.738 793.5,199.5C 793.738,197.596 794.738,196.262 796.5,195.5 Z"/></g>
<g><path style="opacity:0.106" fill="#1e1e1e" d="M 793.5,199.5 C 793.573,201.027 792.906,202.027 791.5,202.5C 791.427,200.973 792.094,199.973 793.5,199.5 Z"/></g>
<g><path style="opacity:0.114" fill="#232323" d="M 1386.5,201.5 C 1386.57,203.027 1385.91,204.027 1384.5,204.5C 1384.43,202.973 1385.09,201.973 1386.5,201.5 Z"/></g>
<g><path style="opacity:0.141" fill="#1e1e1e" d="M 790.5,204.5 C 790.573,206.027 789.906,207.027 788.5,207.5C 788.427,205.973 789.094,204.973 790.5,204.5 Z"/></g>
<g><path style="opacity:0.082" fill="#1d1d1d" d="M 787.5,209.5 C 787.573,211.027 786.906,212.027 785.5,212.5C 785.427,210.973 786.094,209.973 787.5,209.5 Z"/></g>
<g><path style="opacity:0.612" fill="#323232" d="M 776.5,234.5 C 776.59,237.152 775.924,239.485 774.5,241.5C 774.41,238.848 775.076,236.515 776.5,234.5 Z"/></g>
<g><path style="opacity:0.675" fill="#333333" d="M 1369.5,238.5 C 1369.26,243.12 1368.26,247.453 1366.5,251.5C 1366.74,246.88 1367.74,242.547 1369.5,238.5 Z"/></g>
<g><path style="opacity:0.004" fill="#161616" d="M 923.5,242.5 C 923.573,244.027 922.906,245.027 921.5,245.5C 921.427,243.973 922.094,242.973 923.5,242.5 Z"/></g>
<g><path style="opacity:0.004" fill="#141414" d="M 920.5,246.5 C 920.573,248.027 919.906,249.027 918.5,249.5C 918.427,247.973 919.094,246.973 920.5,246.5 Z"/></g>
<g><path style="opacity:0.894" fill="#414141" d="M 773.5,245.5 C 773.917,249.817 773.25,253.817 771.5,257.5C 771.717,253.295 772.383,249.295 773.5,245.5 Z"/></g>
<g><path style="opacity:0.161" fill="#414141" d="M 1366.5,253.5 C 1366.5,255.5 1366.5,257.5 1366.5,259.5C 1371.03,259.77 1375.36,260.437 1379.5,261.5C 1375.15,261.666 1370.82,261.499 1366.5,261C 1365.19,258.395 1365.19,255.895 1366.5,253.5 Z"/></g>
<g><path style="opacity:0.765" fill="#343434" d="M 875.5,261.5 C 871.343,262.449 867.01,263.116 862.5,263.5C 862.918,262.778 863.584,262.278 864.5,262C 868.152,261.501 871.818,261.335 875.5,261.5 Z"/></g>
<g><path style="opacity:0.702" fill="#363636" d="M 835.5,267.5 C 833.401,268.612 831.067,269.279 828.5,269.5C 828.611,268.883 828.944,268.383 829.5,268C 831.473,267.505 833.473,267.338 835.5,267.5 Z"/></g>
<g><path style="opacity:0.608" fill="#292929" d="M 811.5,271.5 C 814.167,271.5 816.833,271.5 819.5,271.5C 816.715,273.605 814.049,273.605 811.5,271.5 Z"/></g>
<g><path style="opacity:0.055" fill="#191919" d="M 1404.5,270.5 C 1406.03,270.427 1407.03,271.094 1407.5,272.5C 1405.97,272.573 1404.97,271.906 1404.5,270.5 Z"/></g>
</svg>
