<?xml version="1.0" encoding="UTF-8"?>
<!DOCTYPE svg PUBLIC "-//W3C//DTD SVG 1.1//EN" "http://www.w3.org/Graphics/SVG/1.1/DTD/svg11.dtd">
<svg xmlns="http://www.w3.org/2000/svg" version="1.1" width="2118px" height="1156px" style="shape-rendering:geometricPrecision; text-rendering:geometricPrecision; image-rendering:optimizeQuality; fill-rule:evenodd; clip-rule:evenodd" xmlns:xlink="http://www.w3.org/1999/xlink">
<g><path style="opacity:0.999" fill="#666666" d="M 990.5,91.5 C 995.234,93.1446 1000.23,93.8112 1005.5,93.5C 1009.64,93.5291 1013.64,94.1958 1017.5,95.5C 1019.51,96.9238 1021.85,97.5905 1024.5,97.5C 1028.85,97.8372 1032.85,99.1706 1036.5,101.5C 1036.82,103.048 1037.82,103.715 1039.5,103.5C 1040.49,103.328 1041.16,103.662 1041.5,104.5C 1042.03,106.446 1043.37,107.446 1045.5,107.5C 1046.83,108.5 1048.17,109.5 1049.5,110.5C 1050.42,113.089 1052.09,115.089 1054.5,116.5C 1055.5,116.833 1056.17,117.5 1056.5,118.5C 1056.43,120.027 1057.09,121.027 1058.5,121.5C 1059.17,121.5 1059.5,121.833 1059.5,122.5C 1059.43,124.027 1060.09,125.027 1061.5,125.5C 1061.43,127.027 1062.09,128.027 1063.5,128.5C 1064.44,130.05 1065.11,131.716 1065.5,133.5C 1066.31,139.464 1066.64,145.464 1066.5,151.5C 1066.1,161.428 1064.27,171.094 1061,180.5C 1055.06,196.157 1049.23,211.823 1043.5,227.5C 1041.72,228.99 1041.05,230.99 1041.5,233.5C 1041.3,236.63 1040.63,239.63 1039.5,242.5C 1036.87,252.171 1036.87,261.838 1039.5,271.5C 1040.43,272.568 1040.77,273.901 1040.5,275.5C 1040.12,277.698 1040.79,279.365 1042.5,280.5C 1042.5,280.833 1042.5,281.167 1042.5,281.5C 1042.5,282.833 1042.5,284.167 1042.5,285.5C 1041.5,285.5 1040.5,285.5 1039.5,285.5C 1034.53,284.012 1029.87,282.012 1025.5,279.5C 1024.36,277.787 1022.7,277.12 1020.5,277.5C 1016.72,276.442 1013.05,275.109 1009.5,273.5C 1008.36,271.787 1006.7,271.12 1004.5,271.5C 999.057,270.14 993.724,268.473 988.5,266.5C 986.898,264.926 984.898,264.259 982.5,264.5C 962.153,259.474 941.486,256.641 920.5,256C 919.584,255.722 918.918,255.222 918.5,254.5C 920.587,253.415 921.92,251.749 922.5,249.5C 924.587,248.415 925.92,246.749 926.5,244.5C 927.906,244.027 928.573,243.027 928.5,241.5C 929.906,241.027 930.573,240.027 930.5,238.5C 931.906,238.027 932.573,237.027 932.5,235.5C 933.906,235.027 934.573,234.027 934.5,232.5C 934.328,231.508 934.662,230.842 935.5,230.5C 936.906,230.027 937.573,229.027 937.5,227.5C 939.896,221.708 942.563,216.041 945.5,210.5C 947.213,209.365 947.88,207.698 947.5,205.5C 947.5,205.167 947.5,204.833 947.5,204.5C 949.213,203.365 949.88,201.698 949.5,199.5C 952.615,185.98 953.282,172.314 951.5,158.5C 951.946,155.99 951.28,153.99 949.5,152.5C 949.771,150.62 949.104,149.287 947.5,148.5C 946.11,147.101 945.11,145.434 944.5,143.5C 944.167,142.5 943.5,141.833 942.5,141.5C 940.833,140.5 939.5,139.167 938.5,137.5C 937.415,135.413 935.749,134.08 933.5,133.5C 933.027,132.094 932.027,131.427 930.5,131.5C 929.391,131.443 928.391,131.11 927.5,130.5C 926.365,128.787 924.698,128.12 922.5,128.5C 899.413,124.681 877.413,128.014 856.5,138.5C 854.973,138.427 853.973,139.094 853.5,140.5C 840.259,148.748 827.593,157.748 815.5,167.5C 814.041,167.567 812.708,167.234 811.5,166.5C 810.526,158.972 811.192,151.639 813.5,144.5C 814.924,142.485 815.59,140.152 815.5,137.5C 817.074,135.898 817.741,133.898 817.5,131.5C 817.66,129.847 818.326,128.514 819.5,127.5C 820.906,127.027 821.573,126.027 821.5,124.5C 822.906,124.027 823.573,123.027 823.5,121.5C 825.262,120.738 826.262,119.404 826.5,117.5C 826.833,116.5 827.5,115.833 828.5,115.5C 831.764,113.906 834.431,111.573 836.5,108.5C 838.404,108.262 839.738,107.262 840.5,105.5C 842.181,103.992 844.181,102.992 846.5,102.5C 849.916,102.472 852.916,101.472 855.5,99.5C 859.567,97.9462 863.9,97.2796 868.5,97.5C 877.389,97.8033 886.056,97.1367 894.5,95.5C 926.392,91.2847 958.392,89.9514 990.5,91.5 Z"/></g>
<g><path style="opacity:0.999" fill="#666666" d="M 1592.5,92.5 C 1596.62,93.7089 1600.95,94.3755 1605.5,94.5C 1607.9,94.448 1610.24,94.7814 1612.5,95.5C 1614.1,97.0739 1616.1,97.7406 1618.5,97.5C 1625.53,98.6176 1631.86,101.284 1637.5,105.5C 1637.5,106.833 1638.17,107.5 1639.5,107.5C 1640.87,109.86 1642.87,111.527 1645.5,112.5C 1646.42,115.089 1648.09,117.089 1650.5,118.5C 1651.5,118.833 1652.17,119.5 1652.5,120.5C 1652.43,122.027 1653.09,123.027 1654.5,123.5C 1655.34,123.842 1655.67,124.508 1655.5,125.5C 1655.43,127.027 1656.09,128.027 1657.5,128.5C 1658.67,129.514 1659.34,130.847 1659.5,132.5C 1659.41,135.152 1660.08,137.485 1661.5,139.5C 1661.95,148.9 1660.95,158.233 1658.5,167.5C 1656.84,169.438 1656.17,171.772 1656.5,174.5C 1654.93,176.102 1654.26,178.102 1654.5,180.5C 1647.03,199.896 1640.37,219.562 1634.5,239.5C 1633.78,239.918 1633.28,240.584 1633,241.5C 1632.5,245.152 1632.33,248.818 1632.5,252.5C 1632.67,259.883 1633.34,267.217 1634.5,274.5C 1634.12,276.698 1634.79,278.365 1636.5,279.5C 1636.5,279.833 1636.5,280.167 1636.5,280.5C 1636.5,282.167 1636.5,283.833 1636.5,285.5C 1635.5,285.5 1634.5,285.5 1633.5,285.5C 1628.53,284.012 1623.87,282.012 1619.5,279.5C 1617.82,277.166 1615.49,276.166 1612.5,276.5C 1612.17,276.5 1611.83,276.5 1611.5,276.5C 1610.82,274.824 1609.48,274.157 1607.5,274.5C 1600.57,272.694 1593.91,270.36 1587.5,267.5C 1585.49,266.076 1583.15,265.41 1580.5,265.5C 1578.16,263.96 1575.5,263.294 1572.5,263.5C 1572.17,263.5 1571.83,263.5 1571.5,263.5C 1569.9,261.926 1567.9,261.259 1565.5,261.5C 1552.25,259.273 1538.91,257.607 1525.5,256.5C 1521.99,255.402 1518.32,254.402 1514.5,253.5C 1515.63,252.378 1516.3,251.044 1516.5,249.5C 1518.59,248.415 1519.92,246.749 1520.5,244.5C 1521.91,244.027 1522.57,243.027 1522.5,241.5C 1524.26,240.738 1525.26,239.404 1525.5,237.5C 1526.91,237.027 1527.57,236.027 1527.5,234.5C 1527.33,233.508 1527.66,232.842 1528.5,232.5C 1529.91,232.027 1530.57,231.027 1530.5,229.5C 1531.91,229.027 1532.57,228.027 1532.5,226.5C 1532.26,225.209 1532.6,224.209 1533.5,223.5C 1534.91,223.027 1535.57,222.027 1535.5,220.5C 1536.23,218.046 1537.23,215.713 1538.5,213.5C 1540.21,212.365 1540.88,210.698 1540.5,208.5C 1542.21,207.365 1542.88,205.698 1542.5,203.5C 1542.43,202.041 1542.77,200.708 1543.5,199.5C 1545.28,198.01 1545.95,196.01 1545.5,193.5C 1546.29,192.391 1546.79,191.058 1547,189.5C 1547.67,180.5 1547.67,171.5 1547,162.5C 1546.62,161.944 1546.12,161.611 1545.5,161.5C 1545.17,158.833 1544.83,156.167 1544.5,153.5C 1544.77,151.62 1544.1,150.287 1542.5,149.5C 1542.57,147.973 1541.91,146.973 1540.5,146.5C 1540.57,144.973 1539.91,143.973 1538.5,143.5C 1535.5,141.167 1532.83,138.5 1530.5,135.5C 1530.03,134.094 1529.03,133.427 1527.5,133.5C 1527.03,132.094 1526.03,131.427 1524.5,131.5C 1522.85,131.34 1521.51,130.674 1520.5,129.5C 1518.16,127.96 1515.5,127.294 1512.5,127.5C 1485.55,124.571 1460.88,130.738 1438.5,146C 1428.32,153.514 1418.16,161.014 1408,168.5C 1407.24,168.43 1406.74,168.097 1406.5,167.5C 1406.55,160.151 1406.88,152.817 1407.5,145.5C 1408.11,139.018 1410.11,133.018 1413.5,127.5C 1414.91,127.027 1415.57,126.027 1415.5,124.5C 1416.91,124.027 1417.57,123.027 1417.5,121.5C 1417.83,120.5 1418.5,119.833 1419.5,119.5C 1423.17,116.5 1426.5,113.167 1429.5,109.5C 1430.26,107.738 1431.6,106.738 1433.5,106.5C 1435.03,106.573 1436.03,105.906 1436.5,104.5C 1440.46,102.007 1444.79,100.173 1449.5,99C 1457.44,97.508 1465.44,96.508 1473.5,96C 1496.18,94.5539 1518.85,92.8872 1541.5,91C 1558.6,90.0639 1575.6,90.5639 1592.5,92.5 Z"/></g>
<g><path style="opacity:0.329" fill="#3a3a3a" d="M 990.5,91.5 C 995.694,91.7407 1000.69,92.4074 1005.5,93.5C 1000.23,93.8112 995.234,93.1446 990.5,91.5 Z"/></g>
<g><path style="opacity:0.361" fill="#2d2d2d" d="M 1592.5,92.5 C 1597.1,92.2796 1601.43,92.9462 1605.5,94.5C 1600.95,94.3755 1596.62,93.7089 1592.5,92.5 Z"/></g>
<g><path style="opacity:0.867" fill="#474747" d="M 894.5,95.5 C 886.056,97.1367 877.389,97.8033 868.5,97.5C 876.949,95.9281 885.616,95.2614 894.5,95.5 Z"/></g>
<g><path style="opacity:0.349" fill="#2c2c2c" d="M 1017.5,95.5 C 1020.15,95.4095 1022.49,96.0762 1024.5,97.5C 1021.85,97.5905 1019.51,96.9238 1017.5,95.5 Z"/></g>
<g><path style="opacity:0.431" fill="#303030" d="M 1612.5,95.5 C 1614.79,95.595 1616.79,96.2616 1618.5,97.5C 1616.1,97.7406 1614.1,97.0739 1612.5,95.5 Z"/></g>
<g><path style="opacity:0.843" fill="#434343" d="M 855.5,99.5 C 852.916,101.472 849.916,102.472 846.5,102.5C 849.145,100.69 852.145,99.6896 855.5,99.5 Z"/></g>
<g><path style="opacity:0.725" fill="#313131" d="M 1036.5,101.5 C 1037.71,101.932 1038.71,102.599 1039.5,103.5C 1037.82,103.715 1036.82,103.048 1036.5,101.5 Z"/></g>
<g><path style="opacity:0.502" fill="#303030" d="M 1436.5,104.5 C 1436.03,105.906 1435.03,106.573 1433.5,106.5C 1433.97,105.094 1434.97,104.427 1436.5,104.5 Z"/></g>
<g><path style="opacity:0.392" fill="#2d2d2d" d="M 840.5,105.5 C 839.738,107.262 838.404,108.262 836.5,108.5C 837.262,106.738 838.596,105.738 840.5,105.5 Z"/></g>
<g><path style="opacity:0.329" fill="#272727" d="M 1041.5,104.5 C 1043.23,105.026 1044.56,106.026 1045.5,107.5C 1043.37,107.446 1042.03,106.446 1041.5,104.5 Z"/></g>
<g><path style="opacity:0.486" fill="#242424" d="M 1637.5,105.5 C 1638.5,105.833 1639.17,106.5 1639.5,107.5C 1638.17,107.5 1637.5,106.833 1637.5,105.5 Z"/></g>
<g><path style="opacity:0.278" fill="#262626" d="M 1639.5,107.5 C 1642.11,108.443 1644.11,110.11 1645.5,112.5C 1642.87,111.527 1640.87,109.86 1639.5,107.5 Z"/></g>
<g><path style="opacity:0.616" fill="#3b3b3b" d="M 836.5,108.5 C 834.431,111.573 831.764,113.906 828.5,115.5C 830.569,112.427 833.236,110.094 836.5,108.5 Z"/></g>
<g><path style="opacity:0.275" fill="#1e1e1e" d="M 1049.5,110.5 C 1051.91,111.911 1053.58,113.911 1054.5,116.5C 1052.09,115.089 1050.42,113.089 1049.5,110.5 Z"/></g>
<g><path style="opacity:0.561" fill="#303030" d="M 1429.5,109.5 C 1426.5,113.167 1423.17,116.5 1419.5,119.5C 1421.83,115.167 1425.17,111.833 1429.5,109.5 Z"/></g>
<g><path style="opacity:0.451" fill="#242424" d="M 1645.5,112.5 C 1647.91,113.911 1649.58,115.911 1650.5,118.5C 1648.09,117.089 1646.42,115.089 1645.5,112.5 Z"/></g>
<g><path style="opacity:0.522" fill="#2b2b2b" d="M 826.5,117.5 C 826.262,119.404 825.262,120.738 823.5,121.5C 823.738,119.596 824.738,118.262 826.5,117.5 Z"/></g>
<g><path style="opacity:0.573" fill="#2f2f2f" d="M 1056.5,118.5 C 1057.91,118.973 1058.57,119.973 1058.5,121.5C 1057.09,121.027 1056.43,120.027 1056.5,118.5 Z"/></g>
<g><path style="opacity:0.137" fill="#232323" d="M 1652.5,120.5 C 1653.91,120.973 1654.57,121.973 1654.5,123.5C 1653.09,123.027 1652.43,122.027 1652.5,120.5 Z"/></g>
<g><path style="opacity:0.306" fill="#323232" d="M 823.5,121.5 C 823.573,123.027 822.906,124.027 821.5,124.5C 821.427,122.973 822.094,121.973 823.5,121.5 Z"/></g>
<g><path style="opacity:0.184" fill="#1e1e1e" d="M 1417.5,121.5 C 1417.57,123.027 1416.91,124.027 1415.5,124.5C 1415.43,122.973 1416.09,121.973 1417.5,121.5 Z"/></g>
<g><path style="opacity:0.18" fill="#282828" d="M 1059.5,122.5 C 1060.91,122.973 1061.57,123.973 1061.5,125.5C 1060.09,125.027 1059.43,124.027 1059.5,122.5 Z"/></g>
<g><path style="opacity:0.196" fill="#2a2a2a" d="M 821.5,124.5 C 821.573,126.027 820.906,127.027 819.5,127.5C 819.427,125.973 820.094,124.973 821.5,124.5 Z"/></g>
<g><path style="opacity:0.094" fill="#1e1e1e" d="M 1415.5,124.5 C 1415.57,126.027 1414.91,127.027 1413.5,127.5C 1413.43,125.973 1414.09,124.973 1415.5,124.5 Z"/></g>
<g><path style="opacity:0.059" fill="#1e1e1e" d="M 1061.5,125.5 C 1062.91,125.973 1063.57,126.973 1063.5,128.5C 1062.09,128.027 1061.43,127.027 1061.5,125.5 Z"/></g>
<g><path style="opacity:0.627" fill="#323232" d="M 1512.5,127.5 C 1515.5,127.294 1518.16,127.96 1520.5,129.5C 1517.57,129.435 1514.91,128.768 1512.5,127.5 Z"/></g>
<g><path style="opacity:0.153" fill="#2c2c2c" d="M 1655.5,125.5 C 1656.91,125.973 1657.57,126.973 1657.5,128.5C 1656.09,128.027 1655.43,127.027 1655.5,125.5 Z"/></g>
<g><path style="opacity:0.62" fill="#313131" d="M 922.5,128.5 C 924.698,128.12 926.365,128.787 927.5,130.5C 925.597,130.204 923.93,129.537 922.5,128.5 Z"/></g>
<g><path style="opacity:0.22" fill="#292929" d="M 930.5,131.5 C 932.027,131.427 933.027,132.094 933.5,133.5C 931.973,133.573 930.973,132.906 930.5,131.5 Z"/></g>
<g><path style="opacity:0.157" fill="#1e1e1e" d="M 1524.5,131.5 C 1526.03,131.427 1527.03,132.094 1527.5,133.5C 1525.97,133.573 1524.97,132.906 1524.5,131.5 Z"/></g>
<g><path style="opacity:0.561" fill="#272727" d="M 933.5,133.5 C 935.749,134.08 937.415,135.413 938.5,137.5C 936.251,136.92 934.585,135.587 933.5,133.5 Z"/></g>
<g><path style="opacity:0.388" fill="#2a2a2a" d="M 1527.5,133.5 C 1529.03,133.427 1530.03,134.094 1530.5,135.5C 1528.97,135.573 1527.97,134.906 1527.5,133.5 Z"/></g>
<g><path style="opacity:0.812" fill="#363636" d="M 817.5,131.5 C 817.741,133.898 817.074,135.898 815.5,137.5C 815.259,135.102 815.926,133.102 817.5,131.5 Z"/></g>
<g><path style="opacity:0.298" fill="#2c2c2c" d="M 1659.5,132.5 C 1660.92,134.515 1661.59,136.848 1661.5,139.5C 1660.08,137.485 1659.41,135.152 1659.5,132.5 Z"/></g>
<g><path style="opacity:0.004" fill="#1b1b1b" d="M 856.5,138.5 C 856.027,139.906 855.027,140.573 853.5,140.5C 853.973,139.094 854.973,138.427 856.5,138.5 Z"/></g>
<g><path style="opacity:0.173" fill="#2d2d2d" d="M 1065.5,133.5 C 1067.03,136.695 1067.7,140.195 1067.5,144C 1067.5,146.69 1067.16,149.19 1066.5,151.5C 1066.64,145.464 1066.31,139.464 1065.5,133.5 Z"/></g>
<g><path style="opacity:0.004" fill="#181818" d="M 942.5,141.5 C 943.5,141.833 944.167,142.5 944.5,143.5C 943.167,143.5 942.5,142.833 942.5,141.5 Z"/></g>
<g><path style="opacity:0.525" fill="#3b3b3b" d="M 815.5,137.5 C 815.59,140.152 814.924,142.485 813.5,144.5C 813.41,141.848 814.076,139.515 815.5,137.5 Z"/></g>
<g><path style="opacity:0.008" fill="#1a1a1a" d="M 1538.5,143.5 C 1539.91,143.973 1540.57,144.973 1540.5,146.5C 1539.09,146.027 1538.43,145.027 1538.5,143.5 Z"/></g>
<g><path style="opacity:0.035" fill="#1e1e1e" d="M 1540.5,146.5 C 1541.91,146.973 1542.57,147.973 1542.5,149.5C 1541.09,149.027 1540.43,148.027 1540.5,146.5 Z"/></g>
<g><path style="opacity:0.082" fill="#222222" d="M 947.5,148.5 C 949.104,149.287 949.771,150.62 949.5,152.5C 948.326,151.486 947.66,150.153 947.5,148.5 Z"/></g>
<g><path style="opacity:0.333" fill="#303030" d="M 1542.5,149.5 C 1544.1,150.287 1544.77,151.62 1544.5,153.5C 1543.33,152.486 1542.66,151.153 1542.5,149.5 Z"/></g>
<g><path style="opacity:0.475" fill="#313131" d="M 949.5,152.5 C 951.28,153.99 951.946,155.99 951.5,158.5C 950.542,156.698 949.875,154.698 949.5,152.5 Z"/></g>
<g><path style="opacity:0.436" fill="#464646" d="M 1407.5,145.5 C 1406.88,152.817 1406.55,160.151 1406.5,167.5C 1405.15,160.11 1405.48,152.777 1407.5,145.5 Z"/></g>
<g><path style="opacity:0.302" fill="#252525" d="M 811.5,166.5 C 812.708,167.234 814.041,167.567 815.5,167.5C 815.083,168.124 814.416,168.457 813.5,168.5C 812.287,168.253 811.62,167.586 811.5,166.5 Z"/></g>
<g><path style="opacity:0.35" fill="#4a4a4a" d="M 1545.5,161.5 C 1546.12,161.611 1546.62,161.944 1547,162.5C 1547.67,171.5 1547.67,180.5 1547,189.5C 1546.79,191.058 1546.29,192.391 1545.5,193.5C 1546.76,182.81 1546.76,172.143 1545.5,161.5 Z"/></g>
<g><path style="opacity:0.443" fill="#2e2e2e" d="M 1658.5,167.5 C 1658.28,170.067 1657.61,172.401 1656.5,174.5C 1656.17,171.772 1656.84,169.438 1658.5,167.5 Z"/></g>
<g><path style="opacity:0.4" fill="#303030" d="M 1656.5,174.5 C 1656.41,176.786 1655.74,178.786 1654.5,180.5C 1654.26,178.102 1654.93,176.102 1656.5,174.5 Z"/></g>
<g><path style="opacity:0.302" fill="#2d2d2d" d="M 1545.5,193.5 C 1545.95,196.01 1545.28,198.01 1543.5,199.5C 1543.88,197.302 1544.54,195.302 1545.5,193.5 Z"/></g>
<g><path style="opacity:0.463" fill="#282828" d="M 949.5,199.5 C 949.88,201.698 949.213,203.365 947.5,204.5C 947.796,202.597 948.463,200.93 949.5,199.5 Z"/></g>
<g><path style="opacity:0.702" fill="#343434" d="M 1542.5,203.5 C 1542.88,205.698 1542.21,207.365 1540.5,208.5C 1540.8,206.597 1541.46,204.93 1542.5,203.5 Z"/></g>
<g><path style="opacity:0.718" fill="#343434" d="M 947.5,205.5 C 947.88,207.698 947.213,209.365 945.5,210.5C 945.796,208.597 946.463,206.93 947.5,205.5 Z"/></g>
<g><path style="opacity:0.71" fill="#353535" d="M 1540.5,208.5 C 1540.88,210.698 1540.21,212.365 1538.5,213.5C 1538.8,211.597 1539.46,209.93 1540.5,208.5 Z"/></g>
<g><path style="opacity:0.071" fill="#242424" d="M 1535.5,220.5 C 1535.57,222.027 1534.91,223.027 1533.5,223.5C 1533.43,221.973 1534.09,220.973 1535.5,220.5 Z"/></g>
<g><path style="opacity:0.255" fill="#2d2d2d" d="M 1532.5,226.5 C 1532.57,228.027 1531.91,229.027 1530.5,229.5C 1530.43,227.973 1531.09,226.973 1532.5,226.5 Z"/></g>
<g><path style="opacity:0.153" fill="#252525" d="M 937.5,227.5 C 937.573,229.027 936.906,230.027 935.5,230.5C 935.427,228.973 936.094,227.973 937.5,227.5 Z"/></g>
<g><path style="opacity:0.451" fill="#2c2c2c" d="M 1043.5,227.5 C 1043.12,229.698 1042.46,231.698 1041.5,233.5C 1041.05,230.99 1041.72,228.99 1043.5,227.5 Z"/></g>
<g><path style="opacity:0.129" fill="#1f1f1f" d="M 1530.5,229.5 C 1530.57,231.027 1529.91,232.027 1528.5,232.5C 1528.43,230.973 1529.09,229.973 1530.5,229.5 Z"/></g>
<g><path style="opacity:0.176" fill="#282828" d="M 934.5,232.5 C 934.573,234.027 933.906,235.027 932.5,235.5C 932.427,233.973 933.094,232.973 934.5,232.5 Z"/></g>
<g><path style="opacity:0.263" fill="#2b2b2b" d="M 1527.5,234.5 C 1527.57,236.027 1526.91,237.027 1525.5,237.5C 1525.43,235.973 1526.09,234.973 1527.5,234.5 Z"/></g>
<g><path style="opacity:0.192" fill="#282828" d="M 932.5,235.5 C 932.573,237.027 931.906,238.027 930.5,238.5C 930.427,236.973 931.094,235.973 932.5,235.5 Z"/></g>
<g><path style="opacity:0.506" fill="#2d2d2d" d="M 930.5,238.5 C 930.573,240.027 929.906,241.027 928.5,241.5C 928.427,239.973 929.094,238.973 930.5,238.5 Z"/></g>
<g><path style="opacity:0.298" fill="#262626" d="M 1525.5,237.5 C 1525.26,239.404 1524.26,240.738 1522.5,241.5C 1522.74,239.596 1523.74,238.262 1525.5,237.5 Z"/></g>
<g><path style="opacity:0.616" fill="#323232" d="M 928.5,241.5 C 928.573,243.027 927.906,244.027 926.5,244.5C 926.427,242.973 927.094,241.973 928.5,241.5 Z"/></g>
<g><path style="opacity:0.204" fill="#2a2a2a" d="M 1522.5,241.5 C 1522.57,243.027 1521.91,244.027 1520.5,244.5C 1520.43,242.973 1521.09,241.973 1522.5,241.5 Z"/></g>
<g><path style="opacity:0.4" fill="#353535" d="M 1634.5,239.5 C 1634.12,244.01 1633.45,248.343 1632.5,252.5C 1632.33,248.818 1632.5,245.152 1633,241.5C 1633.28,240.584 1633.78,239.918 1634.5,239.5 Z"/></g>
<g><path style="opacity:0.416" fill="#343434" d="M 926.5,244.5 C 925.92,246.749 924.587,248.415 922.5,249.5C 923.08,247.251 924.413,245.585 926.5,244.5 Z"/></g>
<g><path style="opacity:0.231" fill="#232323" d="M 1520.5,244.5 C 1519.92,246.749 1518.59,248.415 1516.5,249.5C 1517.08,247.251 1518.41,245.585 1520.5,244.5 Z"/></g>
<g><path style="opacity:0.361" fill="#2a2a2a" d="M 922.5,249.5 C 921.92,251.749 920.587,253.415 918.5,254.5C 919.08,252.251 920.413,250.585 922.5,249.5 Z"/></g>
<g><path style="opacity:0.531" fill="#444444" d="M 1039.5,242.5 C 1038.21,252.169 1038.21,261.836 1039.5,271.5C 1036.87,261.838 1036.87,252.171 1039.5,242.5 Z"/></g>
<g><path style="opacity:0.81" fill="#424242" d="M 1516.5,249.5 C 1516.3,251.044 1515.63,252.378 1514.5,253.5C 1518.32,254.402 1521.99,255.402 1525.5,256.5C 1520.95,256.947 1516.62,256.281 1512.5,254.5C 1513.13,252.214 1514.47,250.548 1516.5,249.5 Z"/></g>
<g><path style="opacity:0.569" fill="#2f2f2f" d="M 1565.5,261.5 C 1567.9,261.259 1569.9,261.926 1571.5,263.5C 1569.21,263.405 1567.21,262.738 1565.5,261.5 Z"/></g>
<g><path style="opacity:0.635" fill="#333333" d="M 1572.5,263.5 C 1575.5,263.294 1578.16,263.96 1580.5,265.5C 1577.57,265.435 1574.91,264.768 1572.5,263.5 Z"/></g>
<g><path style="opacity:0.51" fill="#313131" d="M 982.5,264.5 C 984.898,264.259 986.898,264.926 988.5,266.5C 986.214,266.405 984.214,265.738 982.5,264.5 Z"/></g>
<g><path style="opacity:0.651" fill="#353535" d="M 1580.5,265.5 C 1583.15,265.41 1585.49,266.076 1587.5,267.5C 1584.85,267.59 1582.51,266.924 1580.5,265.5 Z"/></g>
<g><path style="opacity:0.631" fill="#2f2f2f" d="M 1004.5,271.5 C 1006.7,271.12 1008.36,271.787 1009.5,273.5C 1007.6,273.204 1005.93,272.537 1004.5,271.5 Z"/></g>
<g><path style="opacity:0.851" fill="#343434" d="M 1607.5,274.5 C 1609.48,274.157 1610.82,274.824 1611.5,276.5C 1609.85,276.34 1608.51,275.674 1607.5,274.5 Z"/></g>
<g><path style="opacity:0.835" fill="#383838" d="M 1612.5,276.5 C 1615.49,276.166 1617.82,277.166 1619.5,279.5C 1616.84,279.065 1614.51,278.065 1612.5,276.5 Z"/></g>
<g><path style="opacity:0.753" fill="#373737" d="M 1020.5,277.5 C 1022.7,277.12 1024.36,277.787 1025.5,279.5C 1023.6,279.204 1021.93,278.537 1020.5,277.5 Z"/></g>
<g><path style="opacity:0.655" fill="#303030" d="M 1634.5,274.5 C 1635.54,275.93 1636.2,277.597 1636.5,279.5C 1634.79,278.365 1634.12,276.698 1634.5,274.5 Z"/></g>
<g><path style="opacity:0.753" fill="#363636" d="M 1040.5,275.5 C 1041.54,276.93 1042.2,278.597 1042.5,280.5C 1040.79,279.365 1040.12,277.698 1040.5,275.5 Z"/></g>
<g><path style="opacity:0.784" fill="#424242" d="M 1042.5,281.5 C 1043.4,282.209 1043.74,283.209 1043.5,284.5C 1043.5,285.833 1042.83,286.5 1041.5,286.5C 1040.51,286.672 1039.84,286.338 1039.5,285.5C 1040.5,285.5 1041.5,285.5 1042.5,285.5C 1042.5,284.167 1042.5,282.833 1042.5,281.5 Z"/></g>
<g><path style="opacity:0.878" fill="#444444" d="M 1636.5,280.5 C 1637.43,281.568 1637.77,282.901 1637.5,284.5C 1637.5,285.833 1636.83,286.5 1635.5,286.5C 1634.51,286.672 1633.84,286.338 1633.5,285.5C 1634.5,285.5 1635.5,285.5 1636.5,285.5C 1636.5,283.833 1636.5,282.167 1636.5,280.5 Z"/></g>
<g><path style="opacity:0.114" fill="#0b0b0b" d="M 1043.5,284.5 C 1044.4,285.209 1044.74,286.209 1044.5,287.5C 1043.21,287.737 1042.21,287.404 1041.5,286.5C 1042.83,286.5 1043.5,285.833 1043.5,284.5 Z"/></g>
<g><path style="opacity:0.098" fill="#131313" d="M 1637.5,284.5 C 1638.4,285.209 1638.74,286.209 1638.5,287.5C 1637.21,287.737 1636.21,287.404 1635.5,286.5C 1636.83,286.5 1637.5,285.833 1637.5,284.5 Z"/></g>
<g><path style="opacity:0.995" fill="#5d5d5d" d="M 794.5,322.5 C 796.063,325.132 795.73,327.465 793.5,329.5C 787.628,335.533 780.794,340.2 773,343.5C 771.93,343.472 771.097,343.139 770.5,342.5C 769.738,340.738 768.404,339.738 766.5,339.5C 765.508,339.672 764.842,339.338 764.5,338.5C 764.027,337.094 763.027,336.427 761.5,336.5C 743.669,329.049 726.335,330.216 709.5,340C 707.131,343.226 704.131,345.392 700.5,346.5C 696.818,346.665 693.152,346.499 689.5,346C 690.252,345.329 690.586,344.496 690.5,343.5C 695.167,339.5 699.5,335.167 703.5,330.5C 704.625,328.871 705.959,327.371 707.5,326C 734.281,326.338 760.947,324.838 787.5,321.5C 789.921,321.56 792.254,321.893 794.5,322.5 Z"/></g>
<g><path style="opacity:0.995" fill="#5d5d5d" d="M 1370.5,342.5 C 1368.1,342.552 1365.76,342.219 1363.5,341.5C 1363.03,340.094 1362.03,339.427 1360.5,339.5C 1360.03,338.094 1359.03,337.427 1357.5,337.5C 1354.38,336.439 1351.38,335.105 1348.5,333.5C 1347.01,331.72 1345.01,331.054 1342.5,331.5C 1325.37,329.769 1310.37,334.435 1297.5,345.5C 1292.86,346.397 1288.19,346.564 1283.5,346C 1284.82,345.184 1285.49,344.017 1285.5,342.5C 1285.83,341.5 1286.5,340.833 1287.5,340.5C 1289.5,339.167 1291.17,337.5 1292.5,335.5C 1295.3,332.203 1298.3,329.036 1301.5,326C 1316.83,325.667 1332.17,325.333 1347.5,325C 1360.84,323.599 1374.17,322.599 1387.5,322C 1390.39,322.869 1391.56,324.702 1391,327.5C 1384.57,333.104 1377.74,338.104 1370.5,342.5 Z"/></g>
<g><path style="opacity:0.765" fill="#2b2b2b" d="M 794.5,322.5 C 798.309,325.262 797.975,327.596 793.5,329.5C 795.73,327.465 796.063,325.132 794.5,322.5 Z"/></g>
<g><path style="opacity:0.322" fill="#2b2b2b" d="M 1342.5,331.5 C 1345.01,331.054 1347.01,331.72 1348.5,333.5C 1346.3,333.125 1344.3,332.458 1342.5,331.5 Z"/></g>
<g><path style="opacity:0.208" fill="#181818" d="M 1292.5,335.5 C 1291.17,337.5 1289.5,339.167 1287.5,340.5C 1288.17,337.833 1289.83,336.167 1292.5,335.5 Z"/></g>
<g><path style="opacity:0.118" fill="#232323" d="M 761.5,336.5 C 763.027,336.427 764.027,337.094 764.5,338.5C 762.973,338.573 761.973,337.906 761.5,336.5 Z"/></g>
<g><path style="opacity:0.239" fill="#242424" d="M 1357.5,337.5 C 1359.03,337.427 1360.03,338.094 1360.5,339.5C 1358.97,339.573 1357.97,338.906 1357.5,337.5 Z"/></g>
<g><path style="opacity:0.663" fill="#2e2e2e" d="M 766.5,339.5 C 768.404,339.738 769.738,340.738 770.5,342.5C 768.596,342.262 767.262,341.262 766.5,339.5 Z"/></g>
<g><path style="opacity:0.314" fill="#212121" d="M 703.5,330.5 C 699.5,335.167 695.167,339.5 690.5,343.5C 693.833,338.167 698.167,333.833 703.5,330.5 Z"/></g>
<g><path style="opacity:0.282" fill="#2a2a2a" d="M 1360.5,339.5 C 1362.03,339.427 1363.03,340.094 1363.5,341.5C 1361.97,341.573 1360.97,340.906 1360.5,339.5 Z"/></g>
<g><path style="opacity:0.275" fill="#2c2c2c" d="M 1363.5,341.5 C 1365.76,342.219 1368.1,342.552 1370.5,342.5C 1369.73,343.147 1368.73,343.48 1367.5,343.5C 1365.65,343.66 1364.31,342.993 1363.5,341.5 Z"/></g>
<g><path style="opacity:0.515" fill="#3e3e3e" d="M 690.5,343.5 C 690.586,344.496 690.252,345.329 689.5,346C 693.152,346.499 696.818,346.665 700.5,346.5C 696.702,347.483 692.702,347.817 688.5,347.5C 688.229,345.62 688.896,344.287 690.5,343.5 Z"/></g>
<g><path style="opacity:0.525" fill="#3f3f3f" d="M 1285.5,342.5 C 1285.49,344.017 1284.82,345.184 1283.5,346C 1288.19,346.564 1292.86,346.397 1297.5,345.5C 1296.74,346.268 1295.74,346.768 1294.5,347C 1290.51,347.499 1286.51,347.666 1282.5,347.5C 1282.27,345.067 1283.27,343.401 1285.5,342.5 Z"/></g>
<g><path style="opacity:0.918" fill="#3b3b3b" d="M 728.5,379.5 C 723.944,377.558 718.944,376.892 713.5,377.5C 712.5,377.5 711.5,377.5 710.5,377.5C 716.681,376.757 723.015,376.091 729.5,375.5C 731.809,376.987 731.476,378.321 728.5,379.5 Z"/></g>
<g><path style="opacity:0.863" fill="#3d3d3d" d="M 1322.5,379.5 C 1316.93,377.547 1310.93,376.88 1304.5,377.5C 1310.68,376.757 1317.01,376.091 1323.5,375.5C 1325.81,376.987 1325.48,378.321 1322.5,379.5 Z"/></g>
<g><path style="opacity:0.508" fill="#4a4a4a" d="M 710.5,377.5 C 711.5,377.5 712.5,377.5 713.5,377.5C 702.674,378.33 691.674,378.83 680.5,379C 681.737,379.232 682.737,379.732 683.5,380.5C 681.335,380.884 679.668,380.217 678.5,378.5C 689.146,377.501 699.813,377.168 710.5,377.5 Z"/></g>
<g><path style="opacity:0.995" fill="#5f5f5f" d="M 713.5,377.5 C 718.944,376.892 723.944,377.558 728.5,379.5C 720.074,388.974 710.074,390.974 698.5,385.5C 696.497,383.018 693.831,382.018 690.5,382.5C 687.933,382.279 685.599,381.612 683.5,380.5C 682.737,379.732 681.737,379.232 680.5,379C 691.674,378.83 702.674,378.33 713.5,377.5 Z"/></g>
<g><path style="opacity:0.22" fill="#3e3e3e" d="M 1295.5,377.5 C 1288.68,378.329 1281.68,378.829 1274.5,379C 1275.74,379.232 1276.74,379.732 1277.5,380.5C 1275.34,380.884 1273.67,380.217 1272.5,378.5C 1280.14,377.503 1287.8,377.169 1295.5,377.5 Z"/></g>
<g><path style="opacity:0.995" fill="#606060" d="M 1295.5,377.5 C 1298.5,377.5 1301.5,377.5 1304.5,377.5C 1310.93,376.88 1316.93,377.547 1322.5,379.5C 1314.07,388.974 1304.07,390.974 1292.5,385.5C 1290.5,383.018 1287.83,382.018 1284.5,382.5C 1284.17,382.5 1283.83,382.5 1283.5,382.5C 1282.01,380.72 1280.01,380.054 1277.5,380.5C 1276.74,379.732 1275.74,379.232 1274.5,379C 1281.68,378.829 1288.68,378.329 1295.5,377.5 Z"/></g>
<g><path style="opacity:0.467" fill="#313131" d="M 1277.5,380.5 C 1280.01,380.054 1282.01,380.72 1283.5,382.5C 1281.3,382.125 1279.3,381.458 1277.5,380.5 Z"/></g>
<g><path style="opacity:0.867" fill="#363636" d="M 690.5,382.5 C 693.831,382.018 696.497,383.018 698.5,385.5C 695.603,384.871 692.936,383.871 690.5,382.5 Z"/></g>
<g><path style="opacity:0.824" fill="#323232" d="M 1284.5,382.5 C 1287.83,382.018 1290.5,383.018 1292.5,385.5C 1289.6,384.871 1286.94,383.871 1284.5,382.5 Z"/></g>
<g><path style="opacity:0.999" fill="#636363" d="M 646.5,424.5 C 653.66,425.669 660.66,427.003 667.5,428.5C 655.814,437.857 644.148,447.19 632.5,456.5C 630.194,456.007 627.861,455.674 625.5,455.5C 611.973,451.861 598.307,448.861 584.5,446.5C 579.626,445.075 574.959,443.409 570.5,441.5C 573.764,439.906 576.431,437.573 578.5,434.5C 579.262,432.738 580.596,431.738 582.5,431.5C 586.767,430.744 590.767,429.411 594.5,427.5C 595.568,426.566 596.901,426.232 598.5,426.5C 602.79,426.802 606.79,426.136 610.5,424.5C 622.464,423.466 634.464,423.466 646.5,424.5 Z"/></g>
<g><path style="opacity:0.663" fill="#424242" d="M 610.5,424.5 C 606.79,426.136 602.79,426.802 598.5,426.5C 602.295,425.383 606.295,424.717 610.5,424.5 Z"/></g>
<g><path style="opacity:0.098" fill="#373737" d="M 646.5,424.5 C 653.817,425.118 661.151,425.451 668.5,425.5C 668.737,426.791 668.404,427.791 667.5,428.5C 660.66,427.003 653.66,425.669 646.5,424.5 Z"/></g>
<g><path style="opacity:0.998" fill="#626262" d="M 1257.5,425.5 C 1258.61,426.29 1259.94,426.79 1261.5,427C 1260.94,427.383 1260.61,427.883 1260.5,428.5C 1252.15,436.179 1243.49,443.513 1234.5,450.5C 1232.97,450.427 1231.97,451.094 1231.5,452.5C 1229.39,456.398 1226.39,457.731 1222.5,456.5C 1218.92,454.194 1214.92,452.861 1210.5,452.5C 1196.18,449.569 1181.85,446.903 1167.5,444.5C 1166.74,443.732 1165.74,443.232 1164.5,443C 1167.04,440.63 1169.37,438.13 1171.5,435.5C 1173.4,435.262 1174.74,434.262 1175.5,432.5C 1177.97,432.245 1179.97,431.245 1181.5,429.5C 1182.57,428.566 1183.9,428.232 1185.5,428.5C 1188.15,428.59 1190.49,427.924 1192.5,426.5C 1200.35,424.638 1208.35,423.638 1216.5,423.5C 1230.17,424.237 1243.83,424.904 1257.5,425.5 Z"/></g>
<g><path style="opacity:0.561" fill="#343434" d="M 1192.5,426.5 C 1190.49,427.924 1188.15,428.59 1185.5,428.5C 1187.51,427.076 1189.85,426.41 1192.5,426.5 Z"/></g>
<g><path style="opacity:0.016" fill="#1c1c1c" d="M 1257.5,425.5 C 1259.17,425.5 1260.83,425.5 1262.5,425.5C 1262.71,427.179 1262.05,428.179 1260.5,428.5C 1260.61,427.883 1260.94,427.383 1261.5,427C 1259.94,426.79 1258.61,426.29 1257.5,425.5 Z"/></g>
<g><path style="opacity:0.765" fill="#464646" d="M 594.5,427.5 C 590.767,429.411 586.767,430.744 582.5,431.5C 586.085,429.194 590.085,427.861 594.5,427.5 Z"/></g>
<g><path style="opacity:0.325" fill="#323232" d="M 1181.5,429.5 C 1179.97,431.245 1177.97,432.245 1175.5,432.5C 1177.03,430.755 1179.03,429.755 1181.5,429.5 Z"/></g>
<g><path style="opacity:0.431" fill="#2c2c2c" d="M 1175.5,432.5 C 1174.74,434.262 1173.4,435.262 1171.5,435.5C 1172.26,433.738 1173.6,432.738 1175.5,432.5 Z"/></g>
<g><path style="opacity:0.667" fill="#404040" d="M 578.5,434.5 C 576.431,437.573 573.764,439.906 570.5,441.5C 572.569,438.427 575.236,436.094 578.5,434.5 Z"/></g>
<g><path style="opacity:0.404" fill="#282828" d="M 1171.5,435.5 C 1169.37,438.13 1167.04,440.63 1164.5,443C 1165.74,443.232 1166.74,443.732 1167.5,444.5C 1166.17,444.5 1164.83,444.5 1163.5,444.5C 1164.73,440.266 1167.4,437.266 1171.5,435.5 Z"/></g>
<g><path style="opacity:0.871" fill="#464646" d="M 570.5,441.5 C 574.959,443.409 579.626,445.075 584.5,446.5C 579.453,445.993 574.453,445.16 569.5,444C 568.117,442.539 568.451,441.706 570.5,441.5 Z"/></g>
<g><path style="opacity:0.004" fill="#141414" d="M 1234.5,450.5 C 1234.03,451.906 1233.03,452.573 1231.5,452.5C 1231.97,451.094 1232.97,450.427 1234.5,450.5 Z"/></g>
<g><path style="opacity:0.627" fill="#2b2b2b" d="M 1210.5,452.5 C 1214.92,452.861 1218.92,454.194 1222.5,456.5C 1218.22,455.739 1214.22,454.405 1210.5,452.5 Z"/></g>
<g><path style="opacity:0.161" fill="#3b3b3b" d="M 625.5,455.5 C 627.861,455.674 630.194,456.007 632.5,456.5C 630.047,457.645 627.713,457.312 625.5,455.5 Z"/></g>
</svg>
