<?xml version="1.0" standalone="yes"?>
<svg xmlns="http://www.w3.org/2000/svg" width="2118" height="1206">
<path style="fill:#ffffff; stroke:none;" d="M0 0L0 1206L2118 1206L2118 0L0 0z"/>
<path style="fill:#040404; stroke:none;" d="M534 748C535.492 757.643 549.626 764.775 557 770.151C580.383 787.201 606.164 800.415 627 821.004C633.456 827.383 643.931 847.769 653 844C634.772 862.24 621.674 886.68 625 913L624 913C621.895 902.798 622.859 894.961 626.029 885C627.093 881.654 631.253 874.973 628.932 871.589C626.825 868.517 618.376 866.96 615 864.988C604.592 858.909 595.042 851.329 585 844.667C566.813 832.602 546.079 821.443 525 815.427C441.598 791.628 355.025 820 271 820L271 821C354.348 821 440.335 792.838 523 816.427C544.976 822.698 566.091 834.393 585 847C594.68 853.454 603.977 860.62 614 866.546C617.33 868.515 624.974 869.602 627.187 872.589C629.615 875.867 624.294 885.393 623.295 889C620.143 900.376 621.872 908.036 625 919L620 919L620 920L626 920L625 913L626 913C628.256 920.35 633.532 918.647 640 919.089C651.999 919.911 664.043 920.812 676 922.285C728.05 928.697 779.113 940.794 831 948.271C1005.68 973.441 1184.86 982.752 1361 975.039C1412.18 972.798 1464.12 972.43 1515 966C1514.47 941.232 1487.28 914.28 1471 898C1427.92 854.915 1378.9 818.13 1343.14 768C1330.93 750.877 1319.57 733.168 1307.42 716C1304.08 711.266 1299.2 699.453 1292.96 698.377C1287.82 697.49 1282.64 703.747 1279 706.575C1269.52 713.931 1259.06 720.843 1248 725.573C1208.13 742.624 1163.08 757.55 1120 763C1120.75 772.524 1135.82 780.269 1143 785.421C1166.92 802.59 1192.66 816.195 1214 837.015C1222.81 845.608 1238.05 860.147 1231.43 874C1225.11 887.227 1211.58 885.835 1201 879.547C1167.66 859.722 1138.92 836.007 1100 827.424C1024.99 810.885 947.025 829.773 872 834.911C837.212 837.293 800.699 837.19 766 833.83C747.076 831.998 727.864 825.805 709 825.04C700.378 824.69 691.727 827 683 827C693.758 823.598 705.897 823.154 717 820.789C732.849 817.414 748.489 812.374 764 807.72C769.526 806.062 787.048 803.87 789.839 798.49C792.843 792.698 775.405 777.177 771.92 773C754.386 751.985 739.5 728.739 724.333 706C720.935 700.906 713.166 684.431 706.816 683.427C701.82 682.636 696.511 689.026 693 691.789C683.999 698.873 673.638 706.165 663 710.547C623.333 726.886 577.024 744.604 534 748z"/>
<path style="fill:#333333; stroke:none;" d="M535 749C542.543 763.888 567.13 775.082 581 783.45C606.491 798.828 632.786 819.207 648 845C657.031 838.824 664.663 831.624 675 827.453C685.902 823.054 698.548 823.21 710 820.789C735.912 815.311 764.747 808.751 789 798C784.531 786.445 772.655 776.651 765.003 767C751.101 749.466 738.737 730.605 726.333 712C721.649 704.974 717.085 697.848 712.14 691.001C710.668 688.962 708.788 685.305 705.907 685.167C701.785 684.971 697.009 690.797 694 693.113C684.688 700.281 674.738 706.848 664 711.688C645.153 720.184 624.595 725.802 605 732.333C582.974 739.675 558.472 748.806 535 749z"/>
<path style="fill:#1d1d1d; stroke:none;" d="M707 684L708 685L707 684M703 685L704 686L703 685M702 686L703 687L702 686M709 687L710 688L709 687M697 690L698 691L697 690M711 690L712 691L711 690M696 691L697 692L696 691M692 694L693 695L692 694M714 694L715 695L714 694M689 696L690 697L689 696M688 697L689 698L688 697M716 697L717 698L716 697M685 699L686 700L685 699M1290 699L1291 700L1290 699z"/>
<path style="fill:#454545; stroke:none;" d="M1291 699L1292 700L1291 699z"/>
<path style="fill:#333333; stroke:none;" d="M1121 765L1121 766C1151.8 789.77 1186.32 808.578 1215 835.093C1225.36 844.665 1240.33 861.087 1232.43 876.246C1227.25 886.183 1214.19 888.322 1204.75 883.797C1178.16 871.064 1156.73 850.029 1129 838.695C1058.52 809.889 977.988 826.213 905 833.83C866.116 837.888 826.001 838.201 787 836.957C753.006 835.873 712.75 819.018 679.714 829.829C667.954 833.678 658.661 841.349 650.039 849.911C643.819 856.088 639.18 863.186 635.248 871C630.799 879.839 625.947 889.895 625.731 900C625.626 904.933 624.962 911.653 628.931 915.415C632.053 918.376 638.031 917.841 642 918.085C652.742 918.745 663.292 919.404 674 920.656C727.397 926.898 779.533 941.767 833 946.944C867.358 950.272 901.62 955.793 936 959.231C1033.72 969.002 1132.06 974.624 1230 976.985C1324.26 979.258 1420.03 972.903 1514 965C1512.05 952.449 1503.27 940.038 1495.92 929.949C1477.24 904.31 1453.35 884.96 1430.04 863.83C1377.38 816.104 1329.55 760.938 1294 699L1278.07 709.704L1245.17 728.62L1155 758.338L1121 765z"/>
<path style="fill:#1d1d1d; stroke:none;" d="M718 700L719 701L718 700z"/>
<path style="fill:#454545; stroke:none;" d="M1294 700L1295 701L1294 700z"/>
<path style="fill:#1d1d1d; stroke:none;" d="M682 701L683 702L682 701z"/>
<path style="fill:#454545; stroke:none;" d="M1288 701L1289 702L1288 701z"/>
<path style="fill:#1d1d1d; stroke:none;" d="M1295 701L1296 702L1295 701z"/>
<path style="fill:#454545; stroke:none;" d="M1287 702L1288 703L1287 702z"/>
<path style="fill:#1d1d1d; stroke:none;" d="M679 703L680 704L679 703M720 703L721 704L720 703M1285 703L1286 704L1285 703z"/>
<path style="fill:#454545; stroke:none;" d="M1296 703L1297 704L1296 703z"/>
<path style="fill:#1d1d1d; stroke:none;" d="M677 704L678 705L677 704M1284 704L1285 705L1284 704M674 706L675 707L674 706M722 706L723 707L722 706z"/>
<path style="fill:#454545; stroke:none;" d="M1282 706L1283 707L1282 706M1298 706L1299 707L1298 706z"/>
<path style="fill:#1d1d1d; stroke:none;" d="M672 707L673 708L672 707z"/>
<path style="fill:#454545; stroke:none;" d="M1281 707L1282 708L1281 707z"/>
<path style="fill:#1d1d1d; stroke:none;" d="M1279 708L1280 709L1279 708M724 709L725 710L724 709z"/>
<path style="fill:#454545; stroke:none;" d="M1278 709L1279 710L1278 709M1300 709L1301 710L1300 709M1277 710L1278 711L1277 710z"/>
<path style="fill:#1d1d1d; stroke:none;" d="M664 711L665 712L664 711M662 712L663 713L662 712M726 712L727 713L726 712z"/>
<path style="fill:#454545; stroke:none;" d="M1274 712L1275 713L1274 712M1302 712L1303 713L1302 712z"/>
<path style="fill:#1d1d1d; stroke:none;" d="M659 713L660 714L659 713M1272 713L1273 714L1272 713z"/>
<path style="fill:#454545; stroke:none;" d="M1271 714L1272 715L1271 714z"/>
<path style="fill:#1d1d1d; stroke:none;" d="M654 715L655 716L654 715M728 715L729 716L728 715M1269 715L1270 716L1269 715z"/>
<path style="fill:#454545; stroke:none;" d="M1304 715L1305 716L1304 715z"/>
<path style="fill:#1d1d1d; stroke:none;" d="M651 716L652 717L651 716z"/>
<path style="fill:#454545; stroke:none;" d="M1268 716L1269 717L1268 716M1305 716L1306 717L1305 716z"/>
<path style="fill:#1d1d1d; stroke:none;" d="M648 717L649 718L648 717M1266 717L1267 718L1266 717M1306 717L1307 718L1306 717M645 718L646 719L645 718M730 718L731 719L730 718z"/>
<path style="fill:#454545; stroke:none;" d="M1265 718L1266 719L1265 718M1306 718L1307 719L1306 718z"/>
<path style="fill:#1d1d1d; stroke:none;" d="M642 719L643 720L642 719z"/>
<path style="fill:#454545; stroke:none;" d="M1307 719L1308 720L1307 719z"/>
<path style="fill:#1d1d1d; stroke:none;" d="M639 720L640 721L639 720M1261 720L1262 721L1261 720z"/>
<path style="fill:#454545; stroke:none;" d="M1262 720L1263 721L1262 720z"/>
<path style="fill:#1d1d1d; stroke:none;" d="M1308 720L1309 721L1308 720M637 721L638 722L637 721M732 721L733 722L732 721z"/>
<path style="fill:#454545; stroke:none;" d="M1260 721L1261 722L1260 721M1308 721L1309 722L1308 721z"/>
<path style="fill:#1d1d1d; stroke:none;" d="M634 722L635 723L634 722z"/>
<path style="fill:#454545; stroke:none;" d="M1309 722L1310 723L1309 722z"/>
<path style="fill:#1d1d1d; stroke:none;" d="M631 723L632 724L631 723M1256 723L1257 724L1256 723M1310 723L1311 724L1310 723M628 724L629 725L628 724M734 724L735 725L734 724M1254 724L1255 725L1254 724z"/>
<path style="fill:#454545; stroke:none;" d="M1255 724L1256 725L1255 724z"/>
<path style="fill:#1d1d1d; stroke:none;" d="M625 725L626 726L625 725M1252 725L1253 726L1252 725z"/>
<path style="fill:#454545; stroke:none;" d="M1253 725L1254 726L1253 725M1311 725L1312 726L1311 725z"/>
<path style="fill:#1d1d1d; stroke:none;" d="M622 726L623 727L622 726z"/>
<path style="fill:#454545; stroke:none;" d="M1251 726L1252 727L1251 726z"/>
<path style="fill:#1d1d1d; stroke:none;" d="M1312 726L1313 727L1312 726M619 727L620 728L619 727M736 727L737 728L736 727M1247 727L1248 728L1247 727z"/>
<path style="fill:#454545; stroke:none;" d="M1248 727L1249 728L1248 727z"/>
<path style="fill:#1d1d1d; stroke:none;" d="M616 728L617 729L616 728z"/>
<path style="fill:#454545; stroke:none;" d="M1245 728L1246 729L1245 728M1313 728L1314 729L1313 728z"/>
<path style="fill:#1d1d1d; stroke:none;" d="M613 729L614 730L613 729z"/>
<path style="fill:#454545; stroke:none;" d="M1243 729L1244 730L1243 729z"/>
<path style="fill:#1d1d1d; stroke:none;" d="M1314 729L1315 730L1314 729M610 730L611 731L610 730M738 730L739 731L738 730M1239 730L1240 731L1239 730z"/>
<path style="fill:#454545; stroke:none;" d="M1240 730L1241 731L1240 730z"/>
<path style="fill:#1d1d1d; stroke:none;" d="M607 731L608 732L607 731M739 731L740 732L739 731z"/>
<path style="fill:#454545; stroke:none;" d="M1237 731L1238 732L1237 731M1315 731L1316 732L1315 731z"/>
<path style="fill:#1d1d1d; stroke:none;" d="M604 732L605 733L604 732z"/>
<path style="fill:#454545; stroke:none;" d="M1234 732L1235 733L1234 732z"/>
<path style="fill:#1d1d1d; stroke:none;" d="M1316 732L1317 733L1316 732M601 733L602 734L601 733z"/>
<path style="fill:#454545; stroke:none;" d="M1231.67 733.333L1232.33 733.667L1231.67 733.333z"/>
<path style="fill:#1d1d1d; stroke:none;" d="M598 734L599 735L598 734M741 734L742 735L741 734z"/>
<path style="fill:#454545; stroke:none;" d="M1229 734L1230 735L1229 734M1317 734L1318 735L1317 734z"/>
<path style="fill:#1d1d1d; stroke:none;" d="M595 735L596 736L595 735z"/>
<path style="fill:#454545; stroke:none;" d="M1226 735L1227 736L1226 735z"/>
<path style="fill:#1d1d1d; stroke:none;" d="M1318 735L1319 736L1318 735M592 736L593 737L592 736z"/>
<path style="fill:#454545; stroke:none;" d="M1223 736L1224 737L1223 736z"/>
<path style="fill:#1d1d1d; stroke:none;" d="M588 737L589 738L588 737M743 737L744 738L743 737M1219 737L1220 738L1219 737z"/>
<path style="fill:#454545; stroke:none;" d="M1220 737L1221 738L1220 737M1319 737L1320 738L1319 737z"/>
<path style="fill:#1d1d1d; stroke:none;" d="M585 738L586 739L585 738M1216 738L1217 739L1216 738z"/>
<path style="fill:#454545; stroke:none;" d="M1217 738L1218 739L1217 738z"/>
<path style="fill:#1d1d1d; stroke:none;" d="M582 739L583 740L582 739M1213 739L1214 740L1213 739z"/>
<path style="fill:#454545; stroke:none;" d="M1214 739L1215 740L1214 739z"/>
<path style="fill:#1d1d1d; stroke:none;" d="M578 740L579 741L578 740M745 740L746 741L745 740M1210 740L1211 741L1210 740z"/>
<path style="fill:#454545; stroke:none;" d="M1211 740L1212 741L1211 740M1321 740L1322 741L1321 740z"/>
<path style="fill:#1d1d1d; stroke:none;" d="M575 741L576 742L575 741M1207 741L1208 742L1207 741z"/>
<path style="fill:#454545; stroke:none;" d="M1208 741L1209 742L1208 741z"/>
<path style="fill:#1d1d1d; stroke:none;" d="M571 742L572 743L571 742z"/>
<path style="fill:#454545; stroke:none;" d="M1205 742L1206 743L1205 742z"/>
<path style="fill:#1d1d1d; stroke:none;" d="M567 743L568 744L567 743M747 743L748 744L747 743z"/>
<path style="fill:#454545; stroke:none;" d="M1202 743L1203 744L1202 743M1323 743L1324 744L1323 743z"/>
<path style="fill:#1d1d1d; stroke:none;" d="M563 744L564 745L563 744z"/>
<path style="fill:#454545; stroke:none;" d="M1199 744L1200 745L1199 744z"/>
<path style="fill:#1d1d1d; stroke:none;" d="M558.667 745.333L559.333 745.667L558.667 745.333M1195 745L1196 746L1195 745z"/>
<path style="fill:#454545; stroke:none;" d="M1196 745L1197 746L1196 745z"/>
<path style="fill:#1d1d1d; stroke:none;" d="M553.667 746.333L554.333 746.667L553.667 746.333M1192 746L1193 747L1192 746z"/>
<path style="fill:#454545; stroke:none;" d="M1193 746L1194 747L1193 746M1325 746L1326 747L1325 746z"/>
<path style="fill:#1d1d1d; stroke:none;" d="M547.667 747.333L548.333 747.667L547.667 747.333M750 747L751 748L750 747M1189 747L1190 748L1189 747z"/>
<path style="fill:#454545; stroke:none;" d="M1190 747L1191 748L1190 747M1326 747L1327 748L1326 747z"/>
<path style="fill:#1d1d1d; stroke:none;" d="M540 748L540 749L543 749L540 748M1186 748L1187 749L1186 748z"/>
<path style="fill:#454545; stroke:none;" d="M1187 748L1188 749L1187 748z"/>
<path style="fill:#1d1d1d; stroke:none;" d="M1327 748L1328 749L1327 748M1183 749L1184 750L1183 749z"/>
<path style="fill:#454545; stroke:none;" d="M1184 749L1185 750L1184 749z"/>
<path style="fill:#1d1d1d; stroke:none;" d="M752 750L753 751L752 750M1180 750L1181 751L1180 750z"/>
<path style="fill:#454545; stroke:none;" d="M1181 750L1182 751L1181 750M1328 750L1329 751L1328 750M1178 751L1179 752L1178 751z"/>
<path style="fill:#1d1d1d; stroke:none;" d="M1329 751L1330 752L1329 751z"/>
<path style="fill:#454545; stroke:none;" d="M1175 752L1176 753L1175 752z"/>
<path style="fill:#1d1d1d; stroke:none;" d="M538 753L539 754L538 753M1170 753L1171 754L1170 753z"/>
<path style="fill:#454545; stroke:none;" d="M1171.67 753.333L1172.33 753.667L1171.67 753.333M1330 753L1331 754L1330 753z"/>
<path style="fill:#1d1d1d; stroke:none;" d="M539 754L540 755L539 754M755 754L756 755L755 754M1167 754L1168 755L1167 754z"/>
<path style="fill:#454545; stroke:none;" d="M1168 754L1169 755L1168 754z"/>
<path style="fill:#1d1d1d; stroke:none;" d="M1331 754L1332 755L1331 754z"/>
<path style="fill:#454545; stroke:none;" d="M1164.67 755.333L1165.33 755.667L1164.67 755.333M1161 756L1162 757L1161 756M1332 756L1333 757L1332 756z"/>
<path style="fill:#1d1d1d; stroke:none;" d="M543 757L544 758L543 757M757 757L758 758L757 757M1156 757L1157 758L1156 757z"/>
<path style="fill:#454545; stroke:none;" d="M1157.67 757.333L1158.33 757.667L1157.67 757.333z"/>
<path style="fill:#1d1d1d; stroke:none;" d="M544 758L545 759L544 758M1152 758L1153 759L1152 758z"/>
<path style="fill:#454545; stroke:none;" d="M1153.67 758.333L1154.33 758.667L1153.67 758.333z"/>
<path style="fill:#1d1d1d; stroke:none;" d="M1148 759L1149 760L1148 759z"/>
<path style="fill:#454545; stroke:none;" d="M1149.67 759.333L1150.33 759.667L1149.67 759.333M1334 759L1335 760L1334 759z"/>
<path style="fill:#1d1d1d; stroke:none;" d="M1143 760L1144 761L1143 760z"/>
<path style="fill:#454545; stroke:none;" d="M1144.67 760.333L1145.33 760.667L1144.67 760.333M1335 760L1336 761L1335 760z"/>
<path style="fill:#1d1d1d; stroke:none;" d="M548 761L549 762L548 761M760 761L761 762L760 761M1138 761L1139 762L1138 761z"/>
<path style="fill:#454545; stroke:none;" d="M1139.67 761.333L1140.33 761.667L1139.67 761.333z"/>
<path style="fill:#1d1d1d; stroke:none;" d="M1336 761L1337 762L1336 761M1132 762L1133 763L1132 762z"/>
<path style="fill:#454545; stroke:none;" d="M1133 762L1133 763L1136 763L1133 762M1336 762L1337 763L1336 762M1126 763L1126 764L1129 764L1126 763M1337 763L1338 764L1337 763z"/>
<path style="fill:#1d1d1d; stroke:none;" d="M552 764L553 765L552 764z"/>
<path style="fill:#454545; stroke:none;" d="M1121 764L1122 765L1121 764z"/>
<path style="fill:#1d1d1d; stroke:none;" d="M1338 764L1339 765L1338 764M553 765L554 766L553 765M763 765L764 766L763 765M764 766L765 767L764 766M1121 766L1122 767L1121 766z"/>
<path style="fill:#454545; stroke:none;" d="M1339 766L1340 767L1339 766z"/>
<path style="fill:#1d1d1d; stroke:none;" d="M556 767L557 768L556 767z"/>
<path style="fill:#454545; stroke:none;" d="M1123 767L1124 768L1123 767z"/>
<path style="fill:#1d1d1d; stroke:none;" d="M557 768L558 769L557 768z"/>
<path style="fill:#454545; stroke:none;" d="M1124 768L1125 769L1124 768M1341 769L1342 770L1341 769z"/>
<path style="fill:#1d1d1d; stroke:none;" d="M560 770L561 771L560 770M767 770L768 771L767 770M1126 770L1127 771L1126 770z"/>
<path style="fill:#454545; stroke:none;" d="M1342 770L1343 771L1342 770M1128 771L1129 772L1128 771z"/>
<path style="fill:#1d1d1d; stroke:none;" d="M1343 771L1344 772L1343 771z"/>
<path style="fill:#454545; stroke:none;" d="M1129 772L1130 773L1129 772z"/>
<path style="fill:#1d1d1d; stroke:none;" d="M564 773L565 774L564 773z"/>
<path style="fill:#454545; stroke:none;" d="M1344 773L1345 774L1344 773z"/>
<path style="fill:#1d1d1d; stroke:none;" d="M1131 774L1132 775L1131 774M771 775L772 776L771 775z"/>
<path style="fill:#454545; stroke:none;" d="M1133 775L1134 776L1133 775z"/>
<path style="fill:#1d1d1d; stroke:none;" d="M569 776L570 777L569 776M772 776L773 777L772 776z"/>
<path style="fill:#454545; stroke:none;" d="M1134 776L1135 777L1134 776M1346 776L1347 777L1346 776z"/>
<path style="fill:#1d1d1d; stroke:none;" d="M1135 777L1136 778L1135 777z"/>
<path style="fill:#454545; stroke:none;" d="M1347 777L1348 778L1347 777z"/>
<path style="fill:#1d1d1d; stroke:none;" d="M572 778L573 779L572 778z"/>
<path style="fill:#454545; stroke:none;" d="M1137 778L1138 779L1137 778z"/>
<path style="fill:#1d1d1d; stroke:none;" d="M1348 778L1349 779L1348 778M574 779L575 780L574 779z"/>
<path style="fill:#454545; stroke:none;" d="M1138 779L1139 780L1138 779M1349 780L1350 781L1349 780z"/>
<path style="fill:#1d1d1d; stroke:none;" d="M1140 781L1141 782L1140 781z"/>
<path style="fill:#454545; stroke:none;" d="M1350 781L1351 782L1350 781z"/>
<path style="fill:#1d1d1d; stroke:none;" d="M579 782L580 783L579 782M777 782L778 783L777 782z"/>
<path style="fill:#454545; stroke:none;" d="M1142 782L1143 783L1142 782z"/>
<path style="fill:#1d1d1d; stroke:none;" d="M581 783L582 784L581 783M778 783L779 784L778 783M1352 783L1353 784L1352 783z"/>
<path style="fill:#454545; stroke:none;" d="M1145 784L1146 785L1145 784z"/>
<path style="fill:#1d1d1d; stroke:none;" d="M584 785L585 786L584 785z"/>
<path style="fill:#454545; stroke:none;" d="M1146 785L1147 786L1146 785M1353 785L1354 786L1353 785z"/>
<path style="fill:#1d1d1d; stroke:none;" d="M1147 786L1148 787L1147 786z"/>
<path style="fill:#454545; stroke:none;" d="M1354 786L1355 787L1354 786z"/>
<path style="fill:#1d1d1d; stroke:none;" d="M587 787L588 788L587 787z"/>
<path style="fill:#454545; stroke:none;" d="M1149 787L1150 788L1149 787M1355 787L1356 788L1355 787z"/>
<path style="fill:#1d1d1d; stroke:none;" d="M590 789L591 790L590 789M783 789L784 790L783 789z"/>
<path style="fill:#454545; stroke:none;" d="M1152 789L1153 790L1152 789z"/>
<path style="fill:#1d1d1d; stroke:none;" d="M1357 789L1358 790L1357 789M591 790L592 791L591 790M784 790L785 791L784 790z"/>
<path style="fill:#454545; stroke:none;" d="M1155 791L1156 792L1155 791M1358 791L1359 792L1358 791z"/>
<path style="fill:#1d1d1d; stroke:none;" d="M594 792L595 793L594 792M1156 792L1157 793L1156 792z"/>
<path style="fill:#454545; stroke:none;" d="M1359 792L1360 793L1359 792M1158 793L1159 794L1158 793M1360 793L1361 794L1360 793z"/>
<path style="fill:#1d1d1d; stroke:none;" d="M597 794L598 795L597 794M787 794L788 795L787 794z"/>
<path style="fill:#454545; stroke:none;" d="M1160 794L1161 795L1160 794M1361 794L1362 795L1361 794z"/>
<path style="fill:#1d1d1d; stroke:none;" d="M598 795L599 796L598 795M1161 795L1162 796L1161 795z"/>
<path style="fill:#454545; stroke:none;" d="M1162 795L1163 796L1162 795z"/>
<path style="fill:#1d1d1d; stroke:none;" d="M789 797L790 798L789 797z"/>
<path style="fill:#454545; stroke:none;" d="M1165 797L1166 798L1165 797z"/>
<path style="fill:#1d1d1d; stroke:none;" d="M1364 797L1365 798L1364 797M602 798L603 799L602 798M788 798L789 799L788 798z"/>
<path style="fill:#454545; stroke:none;" d="M1167 798L1168 799L1167 798z"/>
<path style="fill:#1d1d1d; stroke:none;" d="M1365 798L1366 799L1365 798M785 799L786 800L785 799M1168 799L1169 800L1168 799z"/>
<path style="fill:#454545; stroke:none;" d="M1169 799L1170 800L1169 799z"/>
<path style="fill:#1d1d1d; stroke:none;" d="M782 800L783 801L782 800z"/>
<path style="fill:#454545; stroke:none;" d="M1366 800L1367 801L1366 800z"/>
<path style="fill:#1d1d1d; stroke:none;" d="M606 801L607 802L606 801M779 801L780 802L779 801z"/>
<path style="fill:#454545; stroke:none;" d="M1172 801L1173 802L1172 801M1367 801L1368 802L1367 801z"/>
<path style="fill:#1d1d1d; stroke:none;" d="M776 802L777 803L776 802z"/>
<path style="fill:#454545; stroke:none;" d="M1368 802L1369 803L1368 802z"/>
<path style="fill:#1d1d1d; stroke:none;" d="M772.667 803.333L773.333 803.667L772.667 803.333z"/>
<path style="fill:#454545; stroke:none;" d="M1175 803L1176 804L1175 803M1369 803L1370 804L1369 803z"/>
<path style="fill:#1d1d1d; stroke:none;" d="M610 804L611 805L610 804M769 804L770 805L769 804z"/>
<path style="fill:#454545; stroke:none;" d="M1176 804L1177 805L1176 804M1370 804L1371 805L1370 804z"/>
<path style="fill:#1d1d1d; stroke:none;" d="M611 805L612 806L611 805M766 805L767 806L766 805M1177 805L1178 806L1177 805z"/>
<path style="fill:#454545; stroke:none;" d="M1371 805L1372 806L1371 805z"/>
<path style="fill:#1d1d1d; stroke:none;" d="M762.667 806.333L763.333 806.667L762.667 806.333z"/>
<path style="fill:#454545; stroke:none;" d="M1179 806L1180 807L1179 806z"/>
<path style="fill:#1d1d1d; stroke:none;" d="M759 807L760 808L759 807M1180 807L1181 808L1180 807M414 808L414 809L422 809L414 808z"/>
<path style="fill:#333333; stroke:none;" d="M625 919C619.642 900.257 624.006 890.261 629 872C611.565 868.392 597.638 854.624 583 845.218C558.822 829.68 531.774 816.159 503 812.282C437.265 803.427 374.348 813.586 309 819.83C263.66 824.163 215.235 824.571 170 819.155C154.339 817.28 137.651 811.895 122 811.586C89.4979 810.945 61.736 828.516 47.7809 858C42.4662 869.229 35.7044 885.698 41.2832 897.941C45.0923 906.301 67.045 903.532 75 904.089C107.869 906.393 140.751 912.909 173 919.4C268.421 938.604 366.179 946.459 463 953.089C493.333 955.167 523.619 956.709 554 958.039C566.915 958.605 582.102 962.062 594.895 959.852C606.984 957.764 597.25 939.625 598.333 933C600.742 918.258 613.314 919 625 919z"/>
<path style="fill:#1d1d1d; stroke:none;" d="M455 808L455 809L462 809L455 808M615 808L616 809L615 808M756 808L757 809L756 808z"/>
<path style="fill:#454545; stroke:none;" d="M1182 808L1183 809L1182 808z"/>
<path style="fill:#1d1d1d; stroke:none;" d="M1374 808L1375 809L1374 808M398 809L398 810L402 810L398 809M473 809L473 810L478 810L473 809M616 809L617 810L616 809M752 809L753 810L752 809z"/>
<path style="fill:#454545; stroke:none;" d="M1183 809L1184 810L1183 809z"/>
<path style="fill:#1d1d1d; stroke:none;" d="M1375 809L1376 810L1375 809z"/>
<path style="fill:#040404; stroke:none;" d="M104 812L104 813L122 811.263L206 821L177 818.714L123 810.105L104 812z"/>
<path style="fill:#1d1d1d; stroke:none;" d="M386 810L386 811L389 811L386 810M486 810L486 811L490 811L486 810M749 810L750 811L749 810M1184 810L1185 811L1184 810M1376 810L1377 811L1376 810M118 811L118 812L121 812L118 811M123.667 811.333L124.333 811.667L123.667 811.333M376 811L376 812L379 812L376 811M496 811L496 812L499 812L496 811M745 811L746 812L745 811z"/>
<path style="fill:#454545; stroke:none;" d="M1186 811L1187 812L1186 811z"/>
<path style="fill:#1d1d1d; stroke:none;" d="M1377 811L1378 812L1377 811M113.667 812.333L114.333 812.667L113.667 812.333M127.667 812.333L128.333 812.667L127.667 812.333M367 812L367 813L370 813L367 812M504.667 812.333L505.333 812.667L504.667 812.333M620 812L621 813L620 812M742 812L743 813L742 812z"/>
<path style="fill:#454545; stroke:none;" d="M1187 812L1188 813L1187 812z"/>
<path style="fill:#040404; stroke:none;" d="M618 920L618 919C606.63 919.001 596.969 923.6 598.34 937C598.761 941.117 601.559 944.872 601.458 949C601.357 953.16 598.56 957.248 597 961C578.037 956.485 555.486 958.814 536 957.961C503.328 956.53 470.636 954.147 438 951.911C340.102 945.2 243.594 931.84 147 914.424C123.112 910.117 99.0782 907.126 75 904.286C66.3845 903.269 53.0706 905.817 45.213 902.397C34.0224 897.526 40.5837 876.9 43.3449 869C51.5413 845.551 74.4677 814.246 102 814C94.3556 810.793 85.4178 816.301 79 820.204C59.9092 831.817 46.453 851.647 40.4282 873C38.2936 880.565 34.6392 897.35 42.6381 902.972C45.6819 905.112 51.4778 903.962 55 904.004C63.6409 904.107 72.3823 905.393 81 906.086C110.847 908.485 140.675 914.336 170 920.2C264.865 939.17 361.748 947.498 458 954.089C487.978 956.142 518.034 957.037 548 959.089C562.971 960.115 581.028 963.585 595.895 961.397C602.15 960.476 603.498 949.811 602.214 945C598.518 931.152 601.478 920.046 618 920z"/>
<path style="fill:#1d1d1d; stroke:none;" d="M102 813L102 814L109 814L102 813M132.667 813.333L133.333 813.667L132.667 813.333M359 813L359 814L362 814L359 813M510.667 813.333L511.333 813.667L510.667 813.333M621 813L622 814L621 813M738 813L739 814L738 813M94.6667 814.333L95.3333 814.667L94.6667 814.333M138.667 814.333L139.333 814.667L138.667 814.333M351 814L351 815L354 815L351 814M515 814L516 815L515 814M734.667 814.333L735.333 814.667L734.667 814.333z"/>
<path style="fill:#454545; stroke:none;" d="M1190 814L1191 815L1190 814M1379 814L1380 815L1379 814z"/>
<path style="fill:#1d1d1d; stroke:none;" d="M92 815L93 816L92 815M144.667 815.333L145.333 815.667L144.667 815.333M344.667 815.333L345.333 815.667L344.667 815.333M519 815L520 816L519 815M731 815L732 816L731 815z"/>
<path style="fill:#454545; stroke:none;" d="M1191 815L1192 816L1191 815M1380 815L1381 816L1380 815z"/>
<path style="fill:#1d1d1d; stroke:none;" d="M89 816L90 817L89 816M150 816L150 817L153 817L150 816M336 816L336 817L339 817L336 816M523 816L524 817L523 816M727 816L728 817L727 816z"/>
<path style="fill:#454545; stroke:none;" d="M1381 816L1382 817L1381 816z"/>
<path style="fill:#1d1d1d; stroke:none;" d="M87 817L88 818L87 817M157.667 817.333L158.333 817.667L157.667 817.333M328 817L328 818L331 818L328 817M526 817L527 818L526 817M724 817L725 818L724 817M1193 817L1194 818L1193 817z"/>
<path style="fill:#454545; stroke:none;" d="M1382 817L1383 818L1382 817z"/>
<path style="fill:#1d1d1d; stroke:none;" d="M85 818L86 819L85 818M164.667 818.333L165.333 818.667L164.667 818.333M319 818L319 819L322 819L319 818M529 818L530 819L529 818M627 818L628 819L627 818M720 818L721 819L720 818z"/>
<path style="fill:#454545; stroke:none;" d="M1195 818L1196 819L1195 818M1383 818L1384 819L1383 818z"/>
<path style="fill:#1d1d1d; stroke:none;" d="M83 819L84 820L83 819M172.667 819.333L173.333 819.667L172.667 819.333M308 819L308 820L312 820L308 819M532 819L533 820L532 819M628 819L629 820L628 819M715.667 819.333L716.333 819.667L715.667 819.333z"/>
<path style="fill:#454545; stroke:none;" d="M1196 819L1197 820L1196 819M1384 819L1385 820L1384 819z"/>
<path style="fill:#1d1d1d; stroke:none;" d="M81 820L82 821L81 820M180 820L180 821L184 821L180 820M294 820L294 821L300 821L294 820M534 820L535 821L534 820M629 820L630 821L629 820M711 820L712 821L711 820M1197 820L1198 821L1197 820z"/>
<path style="fill:#454545; stroke:none;" d="M1385 820L1386 821L1385 820z"/>
<path style="fill:#1d1d1d; stroke:none;" d="M197 821L197 822L208 822L197 821z"/>
<path style="fill:#040404; stroke:none;" d="M208 821L208 822L270 822L250 821L208 821z"/>
<path style="fill:#1d1d1d; stroke:none;" d="M270 821L270 822L280 822L270 821M537 821L538 822L537 821M630 821L631 822L630 821M706.667 821.333L707.333 821.667L706.667 821.333z"/>
<path style="fill:#454545; stroke:none;" d="M1386 821L1387 822L1386 821z"/>
<path style="fill:#1d1d1d; stroke:none;" d="M78 822L79 823L78 822M539 822L540 823L539 822M631 822L632 823L631 822M700.667 822.333L701.333 822.667L700.667 822.333z"/>
<path style="fill:#454545; stroke:none;" d="M1200 822L1201 823L1200 822M1387 822L1388 823L1387 822z"/>
<path style="fill:#1d1d1d; stroke:none;" d="M542 823L543 824L542 823M632 823L633 824L632 823M694.667 823.333L695.333 823.667L694.667 823.333M998.667 823.333L999.333 823.667L998.667 823.333z"/>
<path style="fill:#454545; stroke:none;" d="M1003 823L1003 824L1016 824L1003 823M1038 823L1038 824L1050 824L1038 823z"/>
<path style="fill:#1d1d1d; stroke:none;" d="M1052.67 823.333L1053.33 823.667L1052.67 823.333z"/>
<path style="fill:#454545; stroke:none;" d="M1201 823L1202 824L1201 823M1388 823L1389 824L1388 823z"/>
<path style="fill:#1d1d1d; stroke:none;" d="M75 824L76 825L75 824M544 824L545 825L544 824M633 824L634 825L633 824M686.667 824.333L687.333 824.667L686.667 824.333M982 824L983 825L982 824z"/>
<path style="fill:#454545; stroke:none;" d="M985 824L985 825L991 825L985 824M1061 824L1061 825L1066 825L1061 824z"/>
<path style="fill:#1d1d1d; stroke:none;" d="M1067.67 824.333L1068.33 824.667L1067.67 824.333z"/>
<path style="fill:#454545; stroke:none;" d="M1389 824L1390 825L1389 824z"/>
<path style="fill:#1d1d1d; stroke:none;" d="M74 825L75 826L74 825M546 825L547 826L546 825M634 825L635 826L634 825M680.667 825.333L681.333 825.667L680.667 825.333M970 825L971 826L970 825z"/>
<path style="fill:#454545; stroke:none;" d="M972 825L972 826L977 826L972 825M1073 825L1073 826L1077 826L1073 825z"/>
<path style="fill:#1d1d1d; stroke:none;" d="M1078 825L1079 826L1078 825M1203 825L1204 826L1203 825z"/>
<path style="fill:#454545; stroke:none;" d="M1390 825L1391 826L1390 825z"/>
<path style="fill:#1d1d1d; stroke:none;" d="M548 826L549 827L548 826M635 826L636 827L635 826M677 826L678 827L677 826M703 826L704 827L703 826z"/>
<path style="fill:#454545; stroke:none;" d="M704 826L704 827L707 827L704 826M710 826L711 827L710 826z"/>
<path style="fill:#1d1d1d; stroke:none;" d="M711 826L712 827L711 826M960 826L961 827L960 826z"/>
<path style="fill:#454545; stroke:none;" d="M962 826L962 827L966 827L962 826M1083 826L1083 827L1086 827L1083 826z"/>
<path style="fill:#1d1d1d; stroke:none;" d="M1086 826L1087 827L1086 826z"/>
<path style="fill:#454545; stroke:none;" d="M1205 826L1206 827L1205 826M1391 826L1392 827L1391 826z"/>
<path style="fill:#1d1d1d; stroke:none;" d="M674 827L675 828L674 827z"/>
<path style="fill:#ffffff; stroke:none;" d="M653 844C662.623 838.007 671.368 829.744 683 828C674.086 824.839 657.851 837.261 653 844z"/>
<path style="fill:#1d1d1d; stroke:none;" d="M698 827L699 828L698 827z"/>
<path style="fill:#454545; stroke:none;" d="M699.667 827.333L700.333 827.667L699.667 827.333M713.667 827.333L714.333 827.667L713.667 827.333z"/>
<path style="fill:#1d1d1d; stroke:none;" d="M951 827L952 828L951 827z"/>
<path style="fill:#454545; stroke:none;" d="M953 827L953 828L956 828L953 827M1090 827L1090 828L1093 828L1090 827z"/>
<path style="fill:#1d1d1d; stroke:none;" d="M1093 827L1094 828L1093 827z"/>
<path style="fill:#454545; stroke:none;" d="M1206 827L1207 828L1206 827M1392 827L1393 828L1392 827z"/>
<path style="fill:#1d1d1d; stroke:none;" d="M70 828L71 829L70 828M672 828L673 829L672 828M684 828L685 829L684 828z"/>
<path style="fill:#454545; stroke:none;" d="M688 828L688 829L695 829L688 828M718 828L718 829L721 829L718 828z"/>
<path style="fill:#1d1d1d; stroke:none;" d="M721 828L722 829L721 828z"/>
<path style="fill:#454545; stroke:none;" d="M945 828L945 829L948 829L945 828M1096.67 828.333L1097.33 828.667L1096.67 828.333z"/>
<path style="fill:#1d1d1d; stroke:none;" d="M1098 828L1099 829L1098 828z"/>
<path style="fill:#454545; stroke:none;" d="M1207 828L1208 829L1207 828M1393 828L1394 829L1393 828z"/>
<path style="fill:#1d1d1d; stroke:none;" d="M69 829L70 830L69 829M670 829L671 830L670 829z"/>
<path style="fill:#454545; stroke:none;" d="M681 829L682 830L681 829M724.667 829.333L725.333 829.667L724.667 829.333z"/>
<path style="fill:#1d1d1d; stroke:none;" d="M936 829L937 830L936 829z"/>
<path style="fill:#454545; stroke:none;" d="M937 829L937 830L940 830L937 829M1101 829L1102 830L1101 829M1394 829L1395 830L1394 829z"/>
<path style="fill:#1d1d1d; stroke:none;" d="M68 830L69 831L68 830M557 830L558 831L557 830M668 830L669 831L668 830M677 830L678 831L677 830z"/>
<path style="fill:#454545; stroke:none;" d="M678 830L679 831L678 830M730.667 830.333L731.333 830.667L730.667 830.333M930 830L930 831L933 831L930 830M1105 830L1106 831L1105 830z"/>
<path style="fill:#1d1d1d; stroke:none;" d="M1209 830L1210 831L1209 830M67 831L68 832L67 831M639 831L640 832L639 831M666 831L667 832L666 831z"/>
<path style="fill:#454545; stroke:none;" d="M736 831L736 832L739 832L736 831M922 831L922 832L925 832L922 831M1108.67 831.333L1109.33 831.667L1108.67 831.333z"/>
<path style="fill:#1d1d1d; stroke:none;" d="M1210 831L1211 832L1210 831M640 832L641 833L640 832M664 832L665 833L664 832z"/>
<path style="fill:#454545; stroke:none;" d="M673 832L674 833L673 832M743 832L743 833L746 833L743 832z"/>
<path style="fill:#1d1d1d; stroke:none;" d="M746 832L747 833L746 832M912 832L913 833L912 832z"/>
<path style="fill:#454545; stroke:none;" d="M914 832L914 833L917 833L914 832M1112 832L1113 833L1112 832z"/>
<path style="fill:#1d1d1d; stroke:none;" d="M1113 832L1114 833L1113 832z"/>
<path style="fill:#454545; stroke:none;" d="M1212 832L1213 833L1212 832M671 833L672 834L671 833M750 833L750 834L753 834L750 833z"/>
<path style="fill:#1d1d1d; stroke:none;" d="M903 833L904 834L903 833z"/>
<path style="fill:#454545; stroke:none;" d="M904 833L904 834L908 834L904 833M1115 833L1116 834L1115 833z"/>
<path style="fill:#1d1d1d; stroke:none;" d="M1116 833L1117 834L1116 833z"/>
<path style="fill:#454545; stroke:none;" d="M1213 833L1214 834L1213 833z"/>
<path style="fill:#1d1d1d; stroke:none;" d="M661 834L662 835L661 834z"/>
<path style="fill:#454545; stroke:none;" d="M669 834L670 835L669 834M758 834L758 835L761 835L758 834z"/>
<path style="fill:#1d1d1d; stroke:none;" d="M892 834L893 835L892 834z"/>
<path style="fill:#454545; stroke:none;" d="M894 834L894 835L898 835L894 834M1118 834L1119 835L1118 834M1214 834L1215 835L1214 834z"/>
<path style="fill:#1d1d1d; stroke:none;" d="M566 835L567 836L566 835M642 835L643 836L642 835z"/>
<path style="fill:#454545; stroke:none;" d="M766 835L766 836L771 836L766 835z"/>
<path style="fill:#1d1d1d; stroke:none;" d="M772 835L773 836L772 835M877 835L878 836L877 835z"/>
<path style="fill:#454545; stroke:none;" d="M880 835L880 836L886 836L880 835M1120.67 835.333L1121.33 835.667L1120.67 835.333M1215 835L1216 836L1215 835z"/>
<path style="fill:#1d1d1d; stroke:none;" d="M62 836L63 837L62 836M568 836L569 837L568 836M658 836L659 837L658 836z"/>
<path style="fill:#454545; stroke:none;" d="M666 836L667 837L666 836M782 836L782 837L794 837L782 836z"/>
<path style="fill:#1d1d1d; stroke:none;" d="M801 836L801 837L805 837L801 836M845 836L845 837L849 837L845 836z"/>
<path style="fill:#454545; stroke:none;" d="M856 836L856 837L868 837L856 836M1123 836L1124 837L1123 836z"/>
<path style="fill:#1d1d1d; stroke:none;" d="M1124 836L1125 837L1124 836z"/>
<path style="fill:#454545; stroke:none;" d="M1216 836L1217 837L1216 836z"/>
<path style="fill:#1d1d1d; stroke:none;" d="M61 837L62 838L61 837z"/>
<path style="fill:#454545; stroke:none;" d="M1126 837L1127 838L1126 837M1217 837L1218 838L1217 837z"/>
<path style="fill:#1d1d1d; stroke:none;" d="M60 838L61 839L60 838M644 838L645 839L644 838z"/>
<path style="fill:#454545; stroke:none;" d="M663 838L664 839L663 838M1128 838L1129 839L1128 838z"/>
<path style="fill:#1d1d1d; stroke:none;" d="M1129 838L1130 839L1129 838z"/>
<path style="fill:#454545; stroke:none;" d="M1218 838L1219 839L1218 838z"/>
<path style="fill:#1d1d1d; stroke:none;" d="M573 839L574 840L573 839z"/>
<path style="fill:#454545; stroke:none;" d="M1130 839L1131 840L1130 839z"/>
<path style="fill:#1d1d1d; stroke:none;" d="M1131 839L1132 840L1131 839z"/>
<path style="fill:#454545; stroke:none;" d="M1219 839L1220 840L1219 839z"/>
<path style="fill:#1d1d1d; stroke:none;" d="M575 840L576 841L575 840M645 840L646 841L645 840M653 840L654 841L653 840z"/>
<path style="fill:#454545; stroke:none;" d="M660 840L661 841L660 840M1220 840L1221 841L1220 840z"/>
<path style="fill:#1d1d1d; stroke:none;" d="M652 841L653 842L652 841z"/>
<path style="fill:#454545; stroke:none;" d="M659 841L660 842L659 841M1135 841L1136 842L1135 841M1221 841L1222 842L1221 841M1406 841L1407 842L1406 841z"/>
<path style="fill:#1d1d1d; stroke:none;" d="M57 842L58 843L57 842M578 842L579 843L578 842M646 842L647 843L646 842M651 842L652 843L651 842M657 842L658 843L657 842z"/>
<path style="fill:#454545; stroke:none;" d="M1137 842L1138 843L1137 842M1222 842L1223 843L1222 842M1407 842L1408 843L1407 842z"/>
<path style="fill:#1d1d1d; stroke:none;" d="M56 843L57 844L56 843M650 843L651 844L650 843z"/>
<path style="fill:#454545; stroke:none;" d="M1139 843L1140 844L1139 843M1223 843L1224 844L1223 843M1408 843L1409 844L1408 843z"/>
<path style="fill:#1d1d1d; stroke:none;" d="M581 844L582 845L581 844M647 844L648 845L647 844z"/>
<path style="fill:#454545; stroke:none;" d="M655 844L656 845L655 844M1141 844L1142 845L1141 844M1409 844L1410 845L1409 844M654 845L655 846L654 845M1143 845L1144 846L1143 845M1410 845L1411 846L1410 845z"/>
<path style="fill:#1d1d1d; stroke:none;" d="M54 846L55 847L54 846z"/>
<path style="fill:#454545; stroke:none;" d="M653 846L654 847L653 846M1145 846L1146 847L1145 846z"/>
<path style="fill:#1d1d1d; stroke:none;" d="M1225 846L1226 847L1225 846z"/>
<path style="fill:#454545; stroke:none;" d="M1411 846L1412 847L1411 846M652 847L653 848L652 847M1147 847L1148 848L1147 847M1226 847L1227 848L1226 847M1412 847L1413 848L1412 847z"/>
<path style="fill:#1d1d1d; stroke:none;" d="M587 848L588 849L587 848z"/>
<path style="fill:#454545; stroke:none;" d="M651 848L652 849L651 848M1227 848L1228 849L1227 848M1413 848L1414 849L1413 848z"/>
<path style="fill:#1d1d1d; stroke:none;" d="M52 849L53 850L52 849z"/>
<path style="fill:#454545; stroke:none;" d="M650 849L651 850L650 849M1414 849L1415 850L1414 849z"/>
<path style="fill:#1d1d1d; stroke:none;" d="M590 850L591 851L590 850z"/>
<path style="fill:#454545; stroke:none;" d="M649 850L650 851L649 850M1152 850L1153 851L1152 850z"/>
<path style="fill:#1d1d1d; stroke:none;" d="M1153 850L1154 851L1153 850M1228 850L1229 851L1228 850z"/>
<path style="fill:#454545; stroke:none;" d="M1415 850L1416 851L1415 850M648 851L649 852L648 851M1154 851L1155 852L1154 851M1229 851L1230 852L1229 851M1416 851L1417 852L1416 851z"/>
<path style="fill:#1d1d1d; stroke:none;" d="M593 852L594 853L593 852z"/>
<path style="fill:#454545; stroke:none;" d="M647 852L648 853L647 852M1156 852L1157 853L1156 852M1417 852L1418 853L1417 852z"/>
<path style="fill:#1d1d1d; stroke:none;" d="M1158 853L1159 854L1158 853z"/>
<path style="fill:#454545; stroke:none;" d="M1418 853L1419 854L1418 853z"/>
<path style="fill:#1d1d1d; stroke:none;" d="M49 854L50 855L49 854M645 854L646 855L645 854z"/>
<path style="fill:#454545; stroke:none;" d="M1159 854L1160 855L1159 854z"/>
<path style="fill:#1d1d1d; stroke:none;" d="M597 855L598 856L597 855z"/>
<path style="fill:#454545; stroke:none;" d="M1161 855L1162 856L1161 855z"/>
<path style="fill:#1d1d1d; stroke:none;" d="M1421 855L1422 856L1421 855M48 856L49 857L48 856z"/>
<path style="fill:#454545; stroke:none;" d="M644 856L645 857L644 856z"/>
<path style="fill:#1d1d1d; stroke:none;" d="M1163 856L1164 857L1163 856M1422 856L1423 857L1422 856M600 857L601 858L600 857z"/>
<path style="fill:#454545; stroke:none;" d="M643 857L644 858L643 857M1164 857L1165 858L1164 857M1232 857L1233 858L1232 857z"/>
<path style="fill:#1d1d1d; stroke:none;" d="M1423 857L1424 858L1423 857M1424 858L1425 859L1424 858M603 859L604 860L603 859z"/>
<path style="fill:#454545; stroke:none;" d="M1167 859L1168 860L1167 859M1233.33 859.667L1233.67 860.333L1233.33 859.667M641 860L642 861L641 860M1169 860L1170 861L1169 860M1426 860L1427 861L1426 860z"/>
<path style="fill:#1d1d1d; stroke:none;" d="M606 861L607 862L606 861z"/>
<path style="fill:#454545; stroke:none;" d="M640 861L641 862L640 861M1170 861L1171 862L1170 861z"/>
<path style="fill:#1d1d1d; stroke:none;" d="M1171 861L1172 862L1171 861z"/>
<path style="fill:#454545; stroke:none;" d="M1427 861L1428 862L1427 861z"/>
<path style="fill:#1d1d1d; stroke:none;" d="M639 862L640 863L639 862z"/>
<path style="fill:#454545; stroke:none;" d="M1172 862L1173 863L1172 862M1428 862L1429 863L1428 862z"/>
<path style="fill:#1d1d1d; stroke:none;" d="M45 863L46 864L45 863M609 863L610 864L609 863z"/>
<path style="fill:#454545; stroke:none;" d="M639 863L640 864L639 863z"/>
<path style="fill:#1d1d1d; stroke:none;" d="M1174 863L1175 864L1174 863z"/>
<path style="fill:#454545; stroke:none;" d="M1234 863L1234 871L1235 871L1234 863M1429 863L1430 864L1429 863M638 864L639 865L638 864M1175 864L1176 865L1175 864M1430 864L1431 865L1430 864z"/>
<path style="fill:#1d1d1d; stroke:none;" d="M44 865L45 866L44 865M612 865L613 866L612 865z"/>
<path style="fill:#454545; stroke:none;" d="M1176 865L1177 866L1176 865z"/>
<path style="fill:#1d1d1d; stroke:none;" d="M1177 865L1178 866L1177 865z"/>
<path style="fill:#454545; stroke:none;" d="M1431 865L1432 866L1431 865M637 866L638 867L637 866M1178 866L1179 867L1178 866z"/>
<path style="fill:#1d1d1d; stroke:none;" d="M1433 866L1434 867L1433 866z"/>
<path style="fill:#454545; stroke:none;" d="M1179 867L1180 868L1179 867z"/>
<path style="fill:#1d1d1d; stroke:none;" d="M1434 867L1435 868L1434 867M43 868L44 869L43 868M617 868L618 869L617 868z"/>
<path style="fill:#454545; stroke:none;" d="M636 868L637 869L636 868z"/>
<path style="fill:#1d1d1d; stroke:none;" d="M619 869L620 870L619 869M635 869L636 870L635 869z"/>
<path style="fill:#454545; stroke:none;" d="M1182 869L1183 870L1182 869M1436 869L1437 870L1436 869z"/>
<path style="fill:#1d1d1d; stroke:none;" d="M622 870L623 871L622 870z"/>
<path style="fill:#454545; stroke:none;" d="M635 870L636 871L635 870z"/>
<path style="fill:#1d1d1d; stroke:none;" d="M1184 870L1185 871L1184 870z"/>
<path style="fill:#454545; stroke:none;" d="M1437 870L1438 871L1437 870z"/>
<path style="fill:#1d1d1d; stroke:none;" d="M42 871L43 872L42 871M626.667 871.333L627.333 871.667L626.667 871.333M634 871L635 872L634 871z"/>
<path style="fill:#454545; stroke:none;" d="M1185 871L1186 872L1185 871M1438 871L1439 872L1438 871M634 872L635 873L634 872M1186 872L1187 873L1186 872z"/>
<path style="fill:#1d1d1d; stroke:none;" d="M1187 872L1188 873L1187 872z"/>
<path style="fill:#454545; stroke:none;" d="M1439 872L1440 873L1439 872z"/>
<path style="fill:#1d1d1d; stroke:none;" d="M633 873L634 874L633 873M1441 873L1442 874L1441 873M41 874L42 875L41 874M628 874L629 875L628 874z"/>
<path style="fill:#454545; stroke:none;" d="M633 874L634 875L633 874M1189 874L1190 875L1189 874M1233 874L1234 875L1233 874z"/>
<path style="fill:#1d1d1d; stroke:none;" d="M1442 874L1443 875L1442 874M627 876L628 877L627 876z"/>
<path style="fill:#454545; stroke:none;" d="M632 876L633 877L632 876M1192 876L1193 877L1192 876M1232 876L1233 877L1232 876M1444 876L1445 877L1444 876M1445 877L1446 878L1445 877z"/>
<path style="fill:#1d1d1d; stroke:none;" d="M40 878L41 879L40 878z"/>
<path style="fill:#454545; stroke:none;" d="M631 878L632 879L631 878M1195 878L1196 879L1195 878M1231 878L1232 879L1231 878M1446 878L1447 879L1446 878z"/>
<path style="fill:#1d1d1d; stroke:none;" d="M626 879L627 880L626 879z"/>
<path style="fill:#454545; stroke:none;" d="M1230 879L1231 880L1230 879z"/>
<path style="fill:#1d1d1d; stroke:none;" d="M1448 879L1449 880L1448 879M630 880L631 881L630 880z"/>
<path style="fill:#454545; stroke:none;" d="M1198 880L1199 881L1198 880z"/>
<path style="fill:#1d1d1d; stroke:none;" d="M1449 880L1450 881L1449 880M625 881L626 882L625 881z"/>
<path style="fill:#454545; stroke:none;" d="M630 881L631 882L630 881M1200 881L1201 882L1200 881M1228 881L1229 882L1228 881M1227 882L1228 883L1227 882M1451 882L1452 883L1451 882z"/>
<path style="fill:#1d1d1d; stroke:none;" d="M39 883L39 886L40 886L39 883z"/>
<path style="fill:#454545; stroke:none;" d="M629.333 883.667L629.667 884.333L629.333 883.667M1203 883L1204 884L1203 883z"/>
<path style="fill:#1d1d1d; stroke:none;" d="M1204 883L1205 884L1204 883M1225 883L1226 884L1225 883z"/>
<path style="fill:#454545; stroke:none;" d="M1452 883L1453 884L1452 883z"/>
<path style="fill:#1d1d1d; stroke:none;" d="M624 884L625 885L624 884z"/>
<path style="fill:#454545; stroke:none;" d="M1205 884L1206 885L1205 884M1224 884L1225 885L1224 884M1453 884L1454 885L1453 884M1208.67 885.333L1209.33 885.667L1208.67 885.333z"/>
<path style="fill:#1d1d1d; stroke:none;" d="M1210 885L1211 886L1210 885z"/>
<path style="fill:#454545; stroke:none;" d="M1221 885L1222 886L1221 885M1454 885L1455 886L1454 885M1214 886L1214 887L1217 887L1214 886z"/>
<path style="fill:#1d1d1d; stroke:none;" d="M623.333 887.667L623.667 888.333L623.333 887.667z"/>
<path style="fill:#454545; stroke:none;" d="M628 887L629 888L628 887z"/>
<path style="fill:#1d1d1d; stroke:none;" d="M1457 887L1458 888L1457 887M1458 888L1459 889L1458 888M1459 889L1460 890L1459 889z"/>
<path style="fill:#454545; stroke:none;" d="M627 890L628 891L627 890z"/>
<path style="fill:#1d1d1d; stroke:none;" d="M39.3333 891.667L39.6667 892.333L39.3333 891.667M622 891L623 892L622 891z"/>
<path style="fill:#454545; stroke:none;" d="M1461 891L1462 892L1461 891M1462 892L1463 893L1462 892M1463 893L1464 894L1463 893M626.333 894.667L626.667 895.333L626.333 894.667M1464 894L1465 895L1464 894M1465 895L1466 896L1465 895z"/>
<path style="fill:#1d1d1d; stroke:none;" d="M40 896L41 897L40 896M621.333 896.667L621.667 897.333L621.333 896.667z"/>
<path style="fill:#454545; stroke:none;" d="M1466 896L1467 897L1466 896M1467 897L1468 898L1467 897z"/>
<path style="fill:#1d1d1d; stroke:none;" d="M41 898L42 899L41 898z"/>
<path style="fill:#454545; stroke:none;" d="M1468 898L1469 899L1468 898M1469 899L1470 900L1469 899M625 900L625 907L626 907L625 900M1470 900L1471 901L1470 900M1471 901L1472 902L1471 901z"/>
<path style="fill:#1d1d1d; stroke:none;" d="M43 902L43 903L48 903L43 902z"/>
<path style="fill:#454545; stroke:none;" d="M1472 902L1473 903L1472 902z"/>
<path style="fill:#1d1d1d; stroke:none;" d="M62 903L62 904L67 904L62 903z"/>
<path style="fill:#454545; stroke:none;" d="M1473 903L1474 904L1473 903z"/>
<path style="fill:#1d1d1d; stroke:none;" d="M76 904L76 905L79 905L76 904z"/>
<path style="fill:#454545; stroke:none;" d="M1474 904L1475 905L1474 904z"/>
<path style="fill:#1d1d1d; stroke:none;" d="M86.6667 905.333L87.3333 905.667L86.6667 905.333z"/>
<path style="fill:#454545; stroke:none;" d="M1475 905L1476 906L1475 905z"/>
<path style="fill:#1d1d1d; stroke:none;" d="M94 906L94 907L97 907L94 906z"/>
<path style="fill:#454545; stroke:none;" d="M1476 906L1477 907L1476 906z"/>
<path style="fill:#1d1d1d; stroke:none;" d="M102.667 907.333L103.333 907.667L102.667 907.333M109 908L109 909L112 909L109 908M621.333 908.667L621.667 909.333L621.333 908.667M116 909L116 910L119 910L116 909M123.667 910.333L124.333 910.667L123.667 910.333z"/>
<path style="fill:#454545; stroke:none;" d="M626 910L627 911L626 910z"/>
<path style="fill:#1d1d1d; stroke:none;" d="M1480 910L1481 911L1480 910M129.667 911.333L130.333 911.667L129.667 911.333M1481 911L1482 912L1481 911M135.667 912.333L136.333 912.667L135.667 912.333M622 912L623 913L622 912M141.667 913.333L142.333 913.667L141.667 913.333z"/>
<path style="fill:#454545; stroke:none;" d="M627 913L628 914L627 913M1482 913L1483 914L1482 913z"/>
<path style="fill:#1d1d1d; stroke:none;" d="M147.667 914.333L148.333 914.667L147.667 914.333M623 914L624 915L623 914z"/>
<path style="fill:#454545; stroke:none;" d="M1483 914L1484 915L1483 914z"/>
<path style="fill:#1d1d1d; stroke:none;" d="M152.667 915.333L153.333 915.667L152.667 915.333z"/>
<path style="fill:#454545; stroke:none;" d="M628 915L629 916L628 915M1484 915L1485 916L1484 915z"/>
<path style="fill:#1d1d1d; stroke:none;" d="M158.667 916.333L159.333 916.667L158.667 916.333M624 916L625 917L624 916M163.667 917.333L164.333 917.667L163.667 917.333z"/>
<path style="fill:#454545; stroke:none;" d="M629 917L629 918L635 918L629 917z"/>
<path style="fill:#1d1d1d; stroke:none;" d="M1486 917L1487 918L1486 917M168 918L169 919L168 918M645 918L646 919L645 918z"/>
<path style="fill:#454545; stroke:none;" d="M648 918L648 919L654 919L648 918z"/>
<path style="fill:#1d1d1d; stroke:none;" d="M1487 918L1488 919L1487 918M173 919L174 920L173 919M607 919L608 920L607 919M618.667 919.333L619.333 919.667L618.667 919.333M660 919L661 920L660 919z"/>
<path style="fill:#454545; stroke:none;" d="M661 919L661 920L666 920L661 919z"/>
<path style="fill:#1d1d1d; stroke:none;" d="M178 920L179 921L178 920M670 920L671 921L670 920z"/>
<path style="fill:#454545; stroke:none;" d="M672 920L672 921L675 921L672 920M1488 920L1489 921L1488 920z"/>
<path style="fill:#1d1d1d; stroke:none;" d="M183 921L184 922L183 921z"/>
<path style="fill:#454545; stroke:none;" d="M680 921L680 922L683 922L680 921M1489 921L1490 922L1489 921z"/>
<path style="fill:#1d1d1d; stroke:none;" d="M188.667 922.333L189.333 922.667L188.667 922.333z"/>
<path style="fill:#454545; stroke:none;" d="M688 922L688 923L691 923L688 922z"/>
<path style="fill:#1d1d1d; stroke:none;" d="M1490 922L1491 923L1490 922M193.667 923.333L194.333 923.667L193.667 923.333M694 923L695 924L694 923z"/>
<path style="fill:#454545; stroke:none;" d="M695 923L695 924L698 924L695 923z"/>
<path style="fill:#1d1d1d; stroke:none;" d="M199.667 924.333L200.333 924.667L199.667 924.333M701 924L702 925L701 924z"/>
<path style="fill:#454545; stroke:none;" d="M702 924L702 925L705 925L702 924M1491 924L1492 925L1491 924z"/>
<path style="fill:#1d1d1d; stroke:none;" d="M204.667 925.333L205.333 925.667L204.667 925.333z"/>
<path style="fill:#454545; stroke:none;" d="M709 925L709 926L712 926L709 925M1492 925L1493 926L1492 925z"/>
<path style="fill:#1d1d1d; stroke:none;" d="M211.667 926.333L212.333 926.667L211.667 926.333M714 926L715 927L714 926z"/>
<path style="fill:#454545; stroke:none;" d="M715 926L715 927L718 927L715 926z"/>
<path style="fill:#1d1d1d; stroke:none;" d="M217.667 927.333L218.333 927.667L217.667 927.333M720 927L721 928L720 927z"/>
<path style="fill:#454545; stroke:none;" d="M721 927L721 928L724 928L721 927z"/>
<path style="fill:#1d1d1d; stroke:none;" d="M1494 927L1495 928L1494 927M223.667 928.333L224.333 928.667L223.667 928.333M599 928L600 929L599 928M726 928L727 929L726 928z"/>
<path style="fill:#454545; stroke:none;" d="M728.667 928.333L729.333 928.667L728.667 928.333M1494 928L1495 929L1494 928z"/>
<path style="fill:#1d1d1d; stroke:none;" d="M229 929L229 930L232 930L229 929M732 929L733 930L732 929z"/>
<path style="fill:#454545; stroke:none;" d="M733.667 929.333L734.333 929.667L733.667 929.333M1495 929L1496 930L1495 929z"/>
<path style="fill:#1d1d1d; stroke:none;" d="M236.667 930.333L237.333 930.667L236.667 930.333z"/>
<path style="fill:#454545; stroke:none;" d="M739.667 930.333L740.333 930.667L739.667 930.333z"/>
<path style="fill:#1d1d1d; stroke:none;" d="M1496 930L1497 931L1496 930M243.667 931.333L244.333 931.667L243.667 931.333M598.333 931.667L598.667 932.333L598.333 931.667M743 931L744 932L743 931z"/>
<path style="fill:#454545; stroke:none;" d="M744.667 931.333L745.333 931.667L744.667 931.333z"/>
<path style="fill:#1d1d1d; stroke:none;" d="M250.667 932.333L251.333 932.667L250.667 932.333M748 932L749 933L748 932z"/>
<path style="fill:#454545; stroke:none;" d="M749.667 932.333L750.333 932.667L749.667 932.333M1497 932L1498 933L1497 932z"/>
<path style="fill:#1d1d1d; stroke:none;" d="M257 933L257 934L260 934L257 933z"/>
<path style="fill:#454545; stroke:none;" d="M754.667 933.333L755.333 933.667L754.667 933.333z"/>
<path style="fill:#1d1d1d; stroke:none;" d="M265.667 934.333L266.333 934.667L265.667 934.333z"/>
<path style="fill:#454545; stroke:none;" d="M759.667 934.333L760.333 934.667L759.667 934.333z"/>
<path style="fill:#1d1d1d; stroke:none;" d="M272 935L272 936L275 936L272 935z"/>
<path style="fill:#454545; stroke:none;" d="M764.667 935.333L765.333 935.667L764.667 935.333M1499 935L1500 936L1499 935z"/>
<path style="fill:#1d1d1d; stroke:none;" d="M280 936L280 937L283 937L280 936z"/>
<path style="fill:#454545; stroke:none;" d="M769.667 936.333L770.333 936.667L769.667 936.333z"/>
<path style="fill:#1d1d1d; stroke:none;" d="M288 937L288 938L291 938L288 937z"/>
<path style="fill:#454545; stroke:none;" d="M774.667 937.333L775.333 937.667L774.667 937.333z"/>
<path style="fill:#1d1d1d; stroke:none;" d="M297 938L297 939L300 939L297 938M598.333 938.667L598.667 939.333L598.333 938.667M778 938L779 939L778 938z"/>
<path style="fill:#454545; stroke:none;" d="M779.667 938.333L780.333 938.667L779.667 938.333M1501 938L1502 939L1501 938z"/>
<path style="fill:#1d1d1d; stroke:none;" d="M305 939L305 940L308 940L305 939z"/>
<path style="fill:#454545; stroke:none;" d="M785.667 939.333L786.333 939.667L785.667 939.333z"/>
<path style="fill:#1d1d1d; stroke:none;" d="M1502 939L1503 940L1502 939M314 940L314 941L317 941L314 940M789 940L790 941L789 940z"/>
<path style="fill:#454545; stroke:none;" d="M791.667 940.333L792.333 940.667L791.667 940.333z"/>
<path style="fill:#1d1d1d; stroke:none;" d="M324 941L324 942L327 942L324 941M795 941L796 942L795 941z"/>
<path style="fill:#454545; stroke:none;" d="M796 941L796 942L799 942L796 941M1503 941L1504 942L1503 941z"/>
<path style="fill:#1d1d1d; stroke:none;" d="M333 942L333 943L336 943L333 942M599 942L600 943L599 942M801 942L802 943L801 942z"/>
<path style="fill:#454545; stroke:none;" d="M802 942L802 943L805 943L802 942z"/>
<path style="fill:#1d1d1d; stroke:none;" d="M1504 942L1505 943L1504 942M343 943L343 944L346 944L343 943z"/>
<path style="fill:#454545; stroke:none;" d="M809.667 943.333L810.333 943.667L809.667 943.333M1504 943L1505 944L1504 943z"/>
<path style="fill:#1d1d1d; stroke:none;" d="M353 944L353 945L356 945L353 944M600 944L601 945L600 944z"/>
<path style="fill:#454545; stroke:none;" d="M815.667 944.333L816.333 944.667L815.667 944.333z"/>
<path style="fill:#1d1d1d; stroke:none;" d="M363 945L363 946L367 946L363 945M820 945L821 946L820 945z"/>
<path style="fill:#454545; stroke:none;" d="M822.667 945.333L823.333 945.667L822.667 945.333z"/>
<path style="fill:#1d1d1d; stroke:none;" d="M374 946L374 947L377 947L374 946M601.333 946.667L601.667 947.333L601.333 946.667M827 946L828 947L827 946z"/>
<path style="fill:#454545; stroke:none;" d="M829.667 946.333L830.333 946.667L829.667 946.333M1506 946L1507 947L1506 946z"/>
<path style="fill:#1d1d1d; stroke:none;" d="M385 947L385 948L389 948L385 947M834 947L835 948L834 947z"/>
<path style="fill:#454545; stroke:none;" d="M835 947L835 948L838 948L835 947z"/>
<path style="fill:#1d1d1d; stroke:none;" d="M397 948L397 949L400 949L397 948M841 948L842 949L841 948z"/>
<path style="fill:#454545; stroke:none;" d="M843 948L843 949L846 949L843 948M1507 948L1508 949L1507 948z"/>
<path style="fill:#1d1d1d; stroke:none;" d="M408 949L408 950L413 950L408 949M601.333 949.667L601.667 950.333L601.333 949.667z"/>
<path style="fill:#454545; stroke:none;" d="M850 949L850 950L853 950L850 949z"/>
<path style="fill:#1d1d1d; stroke:none;" d="M421 950L421 951L425 951L421 950M856 950L857 951L856 950z"/>
<path style="fill:#454545; stroke:none;" d="M858 950L858 951L861 951L858 950M1508 950L1509 951L1508 950z"/>
<path style="fill:#1d1d1d; stroke:none;" d="M434 951L434 952L438 952L434 951M864 951L865 952L864 951z"/>
<path style="fill:#454545; stroke:none;" d="M866 951L866 952L869 952L866 951z"/>
<path style="fill:#1d1d1d; stroke:none;" d="M448 952L448 953L452 953L448 952M872 952L873 953L872 952z"/>
<path style="fill:#454545; stroke:none;" d="M874 952L874 953L877 953L874 952M1509 952L1510 953L1509 952z"/>
<path style="fill:#1d1d1d; stroke:none;" d="M462 953L462 954L467 954L462 953M600 953L601 954L600 953z"/>
<path style="fill:#454545; stroke:none;" d="M882 953L882 954L885 954L882 953z"/>
<path style="fill:#1d1d1d; stroke:none;" d="M477 954L477 955L483 955L477 954M889 954L890 955L889 954z"/>
<path style="fill:#454545; stroke:none;" d="M891 954L891 955L894 955L891 954M1510 954L1511 955L1510 954z"/>
<path style="fill:#1d1d1d; stroke:none;" d="M494 955L494 956L500 956L494 955M898 955L899 956L898 955z"/>
<path style="fill:#454545; stroke:none;" d="M900 955L900 956L903 956L900 955z"/>
<path style="fill:#1d1d1d; stroke:none;" d="M511 956L511 957L517 957L511 956M907 956L908 957L907 956z"/>
<path style="fill:#454545; stroke:none;" d="M909 956L909 957L912 957L909 956M1511 956L1512 957L1511 956z"/>
<path style="fill:#1d1d1d; stroke:none;" d="M531 957L531 958L537 958L531 957M916 957L917 958L916 957z"/>
<path style="fill:#454545; stroke:none;" d="M918 957L918 958L922 958L918 957z"/>
<path style="fill:#1d1d1d; stroke:none;" d="M552 958L552 959L559 959L552 958M926 958L927 959L926 958z"/>
<path style="fill:#454545; stroke:none;" d="M928 958L928 959L932 959L928 958z"/>
<path style="fill:#1d1d1d; stroke:none;" d="M574 959L574 960L581 960L574 959M936 959L937 960L936 959z"/>
<path style="fill:#454545; stroke:none;" d="M938 959L938 960L942 960L938 959M1512 959L1513 960L1512 959z"/>
<path style="fill:#1d1d1d; stroke:none;" d="M595.667 960.333L596.333 960.667L595.667 960.333M947 960L948 961L947 960z"/>
<path style="fill:#454545; stroke:none;" d="M949 960L949 961L953 961L949 960z"/>
<path style="fill:#1d1d1d; stroke:none;" d="M958 961L959 962L958 961z"/>
<path style="fill:#454545; stroke:none;" d="M960 961L960 962L964 962L960 961M1513 961L1514 962L1513 961z"/>
<path style="fill:#1d1d1d; stroke:none;" d="M969 962L970 963L969 962z"/>
<path style="fill:#454545; stroke:none;" d="M971 962L971 963L975 963L971 962z"/>
<path style="fill:#1d1d1d; stroke:none;" d="M980 963L981 964L980 963z"/>
<path style="fill:#454545; stroke:none;" d="M983 963L983 964L987 964L983 963z"/>
<path style="fill:#1d1d1d; stroke:none;" d="M992 964L993 965L992 964z"/>
<path style="fill:#454545; stroke:none;" d="M994 964L994 965L999 965L994 964z"/>
<path style="fill:#1d1d1d; stroke:none;" d="M1005 965L1006 966L1005 965z"/>
<path style="fill:#454545; stroke:none;" d="M1007 965L1007 966L1012 966L1007 965M1504 965L1504 966L1509 966L1504 965z"/>
<path style="fill:#1d1d1d; stroke:none;" d="M1018 966L1019 967L1018 966z"/>
<path style="fill:#454545; stroke:none;" d="M1021 966L1021 967L1026 967L1021 966M1490 966L1490 967L1496 967L1490 966z"/>
<path style="fill:#1d1d1d; stroke:none;" d="M1497 966L1498 967L1497 966M1032 967L1033 968L1032 967z"/>
<path style="fill:#454545; stroke:none;" d="M1034 967L1034 968L1040 968L1034 967M1475 967L1475 968L1481 968L1475 967z"/>
<path style="fill:#1d1d1d; stroke:none;" d="M1482.67 967.333L1483.33 967.667L1482.67 967.333M1046.67 968.333L1047.33 968.667L1046.67 968.333z"/>
<path style="fill:#454545; stroke:none;" d="M1049 968L1049 969L1055 969L1049 968M1460 968L1460 969L1466 969L1460 968z"/>
<path style="fill:#1d1d1d; stroke:none;" d="M1468 968L1469 969L1468 968M1061.67 969.333L1062.33 969.667L1061.67 969.333z"/>
<path style="fill:#454545; stroke:none;" d="M1064 969L1064 970L1071 970L1064 969M1444 969L1444 970L1450 970L1444 969z"/>
<path style="fill:#1d1d1d; stroke:none;" d="M1452 969L1453 970L1452 969M1078 970L1079 971L1078 970z"/>
<path style="fill:#454545; stroke:none;" d="M1081 970L1081 971L1087 971L1081 970M1427 970L1427 971L1434 971L1427 970z"/>
<path style="fill:#1d1d1d; stroke:none;" d="M1435.67 970.333L1436.33 970.667L1435.67 970.333M1095 971L1096 972L1095 971z"/>
<path style="fill:#454545; stroke:none;" d="M1098 971L1098 972L1106 972L1098 971M1410 971L1410 972L1417 972L1410 971z"/>
<path style="fill:#1d1d1d; stroke:none;" d="M1419 971L1420 972L1419 971M1114 972L1115 973L1114 972z"/>
<path style="fill:#454545; stroke:none;" d="M1117 972L1117 973L1125 973L1117 972M1390 972L1390 973L1398 973L1390 972z"/>
<path style="fill:#1d1d1d; stroke:none;" d="M1400.67 972.333L1401.33 972.667L1400.67 972.333M1134.67 973.333L1135.33 973.667L1134.67 973.333z"/>
<path style="fill:#454545; stroke:none;" d="M1138 973L1138 974L1146 974L1138 973M1365 973L1365 974L1375 974L1365 973z"/>
<path style="fill:#1d1d1d; stroke:none;" d="M1378.67 973.333L1379.33 973.667L1378.67 973.333M1156.67 974.333L1157.33 974.667L1156.67 974.333z"/>
<path style="fill:#454545; stroke:none;" d="M1161 974L1161 975L1171 975L1161 974M1343 974L1343 975L1351 975L1343 974z"/>
<path style="fill:#1d1d1d; stroke:none;" d="M1353.67 974.333L1354.33 974.667L1353.67 974.333M1181.67 975.333L1182.33 975.667L1181.67 975.333z"/>
<path style="fill:#454545; stroke:none;" d="M1186 975L1186 976L1200 976L1186 975M1322 975L1322 976L1331 976L1322 975z"/>
<path style="fill:#1d1d1d; stroke:none;" d="M1333.67 975.333L1334.33 975.667L1333.67 975.333M1221 976L1221 977L1225 977L1221 976z"/>
<path style="fill:#454545; stroke:none;" d="M1239 976L1239 977L1290 977C1276.87 971.492 1253.31 976 1239 976z"/>
<path style="fill:#1d1d1d; stroke:none;" d="M1301 976L1301 977L1306 977L1301 976z"/>
</svg>
