<?xml version="1.0" standalone="yes"?>
<svg xmlns="http://www.w3.org/2000/svg" width="2118" height="1206">
<path style="fill:#ffffff; stroke:none;" d="M0 0L0 1206L2118 1206L2118 0L0 0z"/>
<path style="fill:#040404; stroke:none;" d="M1111 481C1111 507.056 1103.66 543.837 1074 552.362C1060.27 556.308 1041.28 553 1027 553L1027 554C1041.87 554 1061.71 557.469 1076 553.362C1105.62 544.848 1112 507.813 1112 482C1136.71 500.896 1157.66 534.59 1173.6 561C1177.55 567.544 1189.32 581.118 1188.75 588.957C1188.39 593.914 1177.54 597.971 1174 600.808C1163.48 609.236 1155.29 620.17 1157 634C1137.64 635.581 1112.27 643.019 1096 653.699C1088.87 658.385 1086.2 667.05 1079.73 672.005C1075.64 675.131 1069.67 675.872 1065 677.873C1058.2 680.786 1051.98 685.502 1045 687.892C1032.75 692.088 1004.08 686.015 999.434 703.001C995.133 718.737 1017.16 713 1026 713C1016.26 724.327 990.844 729.202 977 734.424C935.357 750.131 893.22 764.593 851 778.667L812 791.667C807.974 793.009 800.679 796.912 796.425 795.458C790.921 793.576 785.278 784.319 781.579 780C770.027 766.51 759.276 752.728 749.33 738C739.844 723.953 730.245 709.931 720.586 696C718.041 692.328 710.939 684.723 711.73 680.001C712.825 673.462 724.89 667.606 730 664.425C750.855 651.442 776.439 646.792 800 640.873C820.098 635.824 840.93 630.804 858 618.572C873.887 607.186 885.901 589.709 903 580.312C937.948 561.105 981.74 555 1021 555L1021 554C980.756 554 931.705 559.221 897 581.699C889.752 586.393 884.269 593.07 878 598.911C867.339 608.842 856.146 619.057 843 625.63C820.611 636.824 793.929 640.499 770 647.29C751.593 652.514 721.518 659.139 710.758 677.015C706.949 683.342 715.663 691.994 719 697C731.112 715.168 743.58 733.062 756.025 751C764.326 762.966 773.738 774.026 783.282 785C786.57 788.781 790.879 795.932 796.001 797.212C799.843 798.172 805.376 795.512 809 794.33C819.021 791.064 829.001 787.666 839 784.333C877.111 771.63 915.276 758.85 953 745.053C971.752 738.195 990.459 731.217 1009 723.8C1015.27 721.293 1025.76 719.594 1027 712C1020.69 712 999.288 716.344 1000.29 705.996C1002.06 687.659 1034.37 692.552 1046 689.211C1053.35 687.099 1059.99 681.95 1067 678.862C1071.35 676.945 1077.01 676.212 1080.79 673.297C1087.57 668.076 1090.61 659.511 1098 654.699C1114.6 643.894 1138.48 637.628 1158 635C1157.75 621.105 1164.23 611.445 1175 602.616C1178.98 599.356 1189.71 595.376 1190.58 589.957C1191.81 582.271 1180.8 569.333 1177 563C1163.64 540.74 1148.29 519.727 1131.42 500C1126.2 493.895 1119.34 482.344 1111 481z"/>
<path style="fill:#333333; stroke:none;" d="M1112 482C1112 509.126 1105.75 540.057 1078 552.583C1070.98 555.753 1060.59 555 1053 555C1037 555 1021 554.814 1005 555.004C975.206 555.358 942.505 563.462 915 574.604C893.857 583.169 881.27 599.527 864 613.54C851.887 623.369 838.878 629.799 824 634.28C795.232 642.945 762.723 646.673 736 660.781C729.404 664.263 713.835 671.289 711.711 679.039C710.199 684.56 718.161 692.741 721 697C731.302 712.453 741.694 727.84 752.424 743C762.006 756.538 771.881 769.546 782.845 782C786.336 785.966 790.96 793.606 796.17 795.306C800.495 796.718 806.939 793.353 811 792L848 779.667C892.487 764.838 937.411 750.327 981 733C991.631 728.774 1002.38 724.853 1013 720.6C1017.6 718.757 1023.35 717.389 1026 713C1019.29 713.004 996.996 718.509 998.642 706C1001.3 685.796 1032.95 691.792 1046 687.671C1051.97 685.783 1057.24 681.41 1063 678.862C1068.19 676.566 1075.19 675.541 1079.74 672.157C1088.37 665.74 1091.96 656.022 1102 650.439C1119.11 640.922 1139.03 639.779 1157 633C1152.49 613.827 1176.19 599.146 1190 591C1181.79 562.499 1156.61 533.762 1138.4 511C1130.6 501.257 1122.23 489.224 1112 482z"/>
<path style="fill:#1d1d1d; stroke:none;" d="M1113 482L1114 483L1113 482M1114 483L1115 484L1114 483M1115 484L1116 485L1115 484M1120 490L1121 491L1120 490M1121 491L1122 492L1121 491M1122 492L1123 493L1122 492M1123 493L1124 494L1123 493z"/>
<path style="fill:#040404; stroke:none;" d="M1697 496C1697 523.408 1689.84 554.23 1662 566.586C1656.08 569.212 1648.33 568 1642 568C1628.35 568 1614.65 567.68 1601 568.015C1567.48 568.836 1532.23 574.955 1501 587.604C1478.51 596.713 1465.62 614.119 1447 628.575C1434.04 638.635 1420.52 644.222 1405 648.975C1377.75 657.322 1347.59 660.781 1322 673.756C1314.11 677.759 1301.16 683.732 1297.03 692.004C1294.37 697.329 1298.72 702.677 1301.42 707C1308.44 718.214 1316.14 729.156 1323.72 740C1356.96 787.575 1394.54 829.466 1438 868.05C1458.83 886.542 1479.48 904.444 1496.12 927C1501.78 934.677 1506.98 942.458 1511.25 951C1513.13 954.757 1514.74 961.614 1518.39 963.972C1522.77 966.791 1530.23 964.416 1535 964.089L1580 961.089C1637.97 957.116 1696.91 949.373 1755 948.999C1772.32 948.888 1789.66 946.029 1807 946C1812.42 945.991 1822.3 947.004 1825.72 941.772C1830.21 934.91 1831.02 923.906 1832.6 916C1837.11 893.474 1839 870.931 1839 848C1839 755.785 1813.93 664.87 1767.58 585C1753.46 560.681 1737.65 537.069 1718.95 516C1713.06 509.36 1706.29 497.433 1697 496z"/>
<path style="fill:#454545; stroke:none;" d="M1698 497L1698 505L1699 505L1698 497z"/>
<path style="fill:#333333; stroke:none;" d="M1699 497C1698.92 506.41 1698.02 516.708 1695.7 525.83C1691.21 543.384 1678.68 564.053 1660 569.363C1652.45 571.509 1642.81 570 1635 570C1615.59 570 1596.31 568.722 1577 570.938C1546.13 574.481 1509.51 581.34 1483.09 598.615C1472.83 605.325 1464.94 615.485 1455.93 623.679C1449.06 629.924 1437.24 634.786 1432 642C1426.72 641.99 1422.04 645.549 1417 647.116C1405.1 650.818 1393.05 654.253 1381 657.37C1358.75 663.125 1335.18 667.306 1315.41 679.593C1310.08 682.906 1299.1 688.117 1297.86 694.997C1296.82 700.828 1305.99 710.572 1309.14 715C1320.8 731.387 1331.9 748.274 1343.34 764.83C1365.41 796.743 1394.31 826.348 1423.09 852.246C1450.76 877.145 1479.93 900.297 1501.54 931C1508.9 941.464 1513.36 952.703 1519 964C1541.17 958.904 1567.21 960.903 1590 959.181C1644.64 955.053 1699.32 950.75 1754 947.371C1776.53 945.979 1803.42 948.854 1825 942C1825.51 927.673 1832.18 912.335 1834.41 898C1838.02 874.836 1837.82 851.27 1837.82 828C1837.82 742.157 1805.55 651.744 1761.91 578.92C1744.68 550.164 1724.04 519.552 1699 497z"/>
<path style="fill:#1d1d1d; stroke:none;" d="M1111 498L1111 502L1112 502L1111 498M1127 498L1128 499L1127 498z"/>
<path style="fill:#454545; stroke:none;" d="M1700 498L1701 499L1700 498z"/>
<path style="fill:#1d1d1d; stroke:none;" d="M1128 499L1129 500L1128 499z"/>
<path style="fill:#454545; stroke:none;" d="M1701 499L1702 500L1701 499z"/>
<path style="fill:#1d1d1d; stroke:none;" d="M1129 500L1130 501L1129 500z"/>
<path style="fill:#454545; stroke:none;" d="M1702 500L1703 501L1702 500M1703 501L1704 502L1703 501z"/>
<path style="fill:#1d1d1d; stroke:none;" d="M1706 504L1707 505L1706 504M1707 505L1708 506L1707 505M1110.33 506.667L1110.67 507.333L1110.33 506.667M1134 506L1135 507L1134 506M1135 507L1136 508L1135 507z"/>
<path style="fill:#454545; stroke:none;" d="M1708 507L1709 508L1708 507M1709 508L1710 509L1709 508M1710 509L1711 510L1710 509M1711 510L1712 511L1711 510z"/>
<path style="fill:#1d1d1d; stroke:none;" d="M1109 511L1110 512L1109 511M1138 511L1139 512L1138 511M1139 512L1140 513L1139 512M1713 512L1714 513L1713 512M1714 513L1715 514L1714 513M1697 514L1698 515L1697 514M1108 515L1109 516L1108 515z"/>
<path style="fill:#454545; stroke:none;" d="M1715 515L1716 516L1715 515z"/>
<path style="fill:#1d1d1d; stroke:none;" d="M1142 516L1143 517L1142 516z"/>
<path style="fill:#454545; stroke:none;" d="M1697.33 516.667L1697.67 517.333L1697.33 516.667M1716 516L1717 517L1716 516z"/>
<path style="fill:#1d1d1d; stroke:none;" d="M1143 517L1144 518L1143 517z"/>
<path style="fill:#454545; stroke:none;" d="M1717 517L1718 518L1717 517z"/>
<path style="fill:#1d1d1d; stroke:none;" d="M1107 518L1108 519L1107 518M1719 519L1720 520L1719 519M1106 520L1107 521L1106 520M1720 520L1721 521L1720 520M1146 521L1147 522L1146 521M1696 521L1697 522L1696 521z"/>
<path style="fill:#454545; stroke:none;" d="M1696.33 522.667L1696.67 523.333L1696.33 522.667M1721 522L1722 523L1721 522z"/>
<path style="fill:#1d1d1d; stroke:none;" d="M1105 523L1106 524L1105 523z"/>
<path style="fill:#454545; stroke:none;" d="M1722 523L1723 524L1722 523M1723 524L1724 525L1723 524z"/>
<path style="fill:#1d1d1d; stroke:none;" d="M1104 525L1105 526L1104 525M1149 525L1150 526L1149 525M1725 526L1726 527L1725 526M1103 527L1104 528L1103 527z"/>
<path style="fill:#454545; stroke:none;" d="M1695 527L1696 528L1695 527M1726 528L1727 529L1726 528z"/>
<path style="fill:#1d1d1d; stroke:none;" d="M1102 529L1103 530L1102 529M1152 529L1153 530L1152 529z"/>
<path style="fill:#454545; stroke:none;" d="M1727 529L1728 530L1727 529M1694 530L1695 531L1694 530z"/>
<path style="fill:#1d1d1d; stroke:none;" d="M1729 531L1730 532L1729 531M1100 532L1101 533L1100 532M1155 533L1156 534L1155 533z"/>
<path style="fill:#454545; stroke:none;" d="M1693 533L1694 534L1693 533M1730 533L1731 534L1730 533M1731 534L1732 535L1731 534z"/>
<path style="fill:#1d1d1d; stroke:none;" d="M1098 535L1099 536L1098 535M1692 535L1693 536L1692 535M1732 535L1733 536L1732 535M1157 536L1158 537L1157 536z"/>
<path style="fill:#454545; stroke:none;" d="M1692 536L1693 537L1692 536M1733 537L1734 538L1733 537M1691 538L1692 539L1691 538M1734 538L1735 539L1734 538z"/>
<path style="fill:#1d1d1d; stroke:none;" d="M1095 539L1096 540L1095 539M1159 539L1160 540L1159 539M1094 540L1095 541L1094 540M1160 540L1161 541L1160 540M1093 541L1094 542L1093 541z"/>
<path style="fill:#454545; stroke:none;" d="M1736 541L1737 542L1736 541z"/>
<path style="fill:#1d1d1d; stroke:none;" d="M1092 542L1093 543L1092 542z"/>
<path style="fill:#454545; stroke:none;" d="M1737 542L1738 543L1737 542z"/>
<path style="fill:#1d1d1d; stroke:none;" d="M1091 543L1092 544L1091 543M1162 543L1163 544L1162 543M1090 544L1091 545L1090 544z"/>
<path style="fill:#454545; stroke:none;" d="M1688 544L1689 545L1688 544M1739 545L1740 546L1739 545z"/>
<path style="fill:#1d1d1d; stroke:none;" d="M1164 546L1165 547L1164 546z"/>
<path style="fill:#454545; stroke:none;" d="M1687 546L1688 547L1687 546M1740 546L1741 547L1740 546z"/>
<path style="fill:#1d1d1d; stroke:none;" d="M1086 547L1087 548L1086 547M1686 547L1687 548L1686 547M1741 547L1742 548L1741 547M1083 549L1084 550L1083 549M1166 549L1167 550L1166 549z"/>
<path style="fill:#454545; stroke:none;" d="M1685 549L1686 550L1685 549M1742 549L1743 550L1742 549z"/>
<path style="fill:#1d1d1d; stroke:none;" d="M1080 551L1081 552L1080 551M1683 551L1684 552L1683 551M1078 552L1079 553L1078 552M1168 552L1169 553L1168 552z"/>
<path style="fill:#454545; stroke:none;" d="M1744 552L1745 553L1744 552z"/>
<path style="fill:#1d1d1d; stroke:none;" d="M1076 553L1077 554L1076 553z"/>
<path style="fill:#454545; stroke:none;" d="M1682 553L1683 554L1682 553M1745 553L1746 554L1745 553z"/>
<path style="fill:#1d1d1d; stroke:none;" d="M1021 554L1021 555L1066 555C1054.3 550.09 1033.74 554 1021 554z"/>
<path style="fill:#454545; stroke:none;" d="M1681 554L1682 555L1681 554z"/>
<path style="fill:#1d1d1d; stroke:none;" d="M1746 554L1747 555L1746 554M994 555L994 556L999 556L994 555M1170 555L1171 556L1170 555z"/>
<path style="fill:#454545; stroke:none;" d="M1746 555L1747 556L1746 555z"/>
<path style="fill:#1d1d1d; stroke:none;" d="M986.667 556.333L987.333 556.667L986.667 556.333z"/>
<path style="fill:#454545; stroke:none;" d="M1747 556L1748 557L1747 556z"/>
<path style="fill:#1d1d1d; stroke:none;" d="M979.667 557.333L980.333 557.667L979.667 557.333M1748 557L1749 558L1748 557M973.667 558.333L974.333 558.667L973.667 558.333M968.667 559.333L969.333 559.667L968.667 559.333z"/>
<path style="fill:#454545; stroke:none;" d="M1676 559L1677 560L1676 559M1749 559L1750 560L1749 559z"/>
<path style="fill:#1d1d1d; stroke:none;" d="M963.667 560.333L964.333 560.667L963.667 560.333M1173 560L1174 561L1173 560z"/>
<path style="fill:#454545; stroke:none;" d="M1675 560L1676 561L1675 560z"/>
<path style="fill:#1d1d1d; stroke:none;" d="M1750 560L1751 561L1750 560M958.667 561.333L959.333 561.667L958.667 561.333z"/>
<path style="fill:#454545; stroke:none;" d="M1674 561L1675 562L1674 561z"/>
<path style="fill:#1d1d1d; stroke:none;" d="M954 562L955 563L954 562z"/>
<path style="fill:#454545; stroke:none;" d="M1751 562L1752 563L1751 562z"/>
<path style="fill:#1d1d1d; stroke:none;" d="M950 563L951 564L950 563z"/>
<path style="fill:#454545; stroke:none;" d="M1671 563L1672 564L1671 563z"/>
<path style="fill:#1d1d1d; stroke:none;" d="M1752 563L1753 564L1752 563M946 564L947 565L946 564M942 565L943 566L942 565M1176 565L1177 566L1176 565M1667 565L1668 566L1667 565z"/>
<path style="fill:#454545; stroke:none;" d="M1668 565L1669 566L1668 565M1753 565L1754 566L1753 565z"/>
<path style="fill:#1d1d1d; stroke:none;" d="M938 566L939 567L938 566z"/>
<path style="fill:#454545; stroke:none;" d="M1666 566L1667 567L1666 566z"/>
<path style="fill:#1d1d1d; stroke:none;" d="M1754 566L1755 567L1754 566M935 567L936 568L935 567z"/>
<path style="fill:#454545; stroke:none;" d="M1664 567L1665 568L1664 567M1754 567L1755 568L1754 567z"/>
<path style="fill:#1d1d1d; stroke:none;" d="M931.667 568.333L932.333 568.667L931.667 568.333M1178 568L1179 569L1178 568z"/>
<path style="fill:#454545; stroke:none;" d="M1662 568L1663 569L1662 568z"/>
<path style="fill:#1d1d1d; stroke:none;" d="M928 569L929 570L928 569M1597 569L1597 570L1600 570L1597 569z"/>
<path style="fill:#454545; stroke:none;" d="M1607 569L1607 570L1661 570L1643 569L1607 569z"/>
<path style="fill:#1d1d1d; stroke:none;" d="M925 570L926 571L925 570M1179 570L1180 571L1179 570M1578 570L1579 571L1578 570z"/>
<path style="fill:#454545; stroke:none;" d="M1580 570L1580 571L1586 571L1580 570M1756 570L1757 571L1756 570z"/>
<path style="fill:#1d1d1d; stroke:none;" d="M923 571L924 572L923 571M1570 571L1571 572L1570 571z"/>
<path style="fill:#454545; stroke:none;" d="M1572 571L1572 572L1575 572L1572 571z"/>
<path style="fill:#1d1d1d; stroke:none;" d="M920 572L921 573L920 572M1180 572L1181 573L1180 572M1564 572L1565 573L1564 572z"/>
<path style="fill:#454545; stroke:none;" d="M1565 572L1565 573L1568 573L1565 572z"/>
<path style="fill:#1d1d1d; stroke:none;" d="M917 573L918 574L917 573M1558 573L1559 574L1558 573z"/>
<path style="fill:#454545; stroke:none;" d="M1559 573L1559 574L1562 574L1559 573M1758 573L1759 574L1758 573z"/>
<path style="fill:#1d1d1d; stroke:none;" d="M915 574L916 575L915 574M1553 574L1554 575L1553 574z"/>
<path style="fill:#454545; stroke:none;" d="M1554.67 574.333L1555.33 574.667L1554.67 574.333z"/>
<path style="fill:#1d1d1d; stroke:none;" d="M1759 574L1760 575L1759 574M912 575L913 576L912 575M1182 575L1183 576L1182 575M1548 575L1549 576L1548 575z"/>
<path style="fill:#454545; stroke:none;" d="M1549.67 575.333L1550.33 575.667L1549.67 575.333M1759 575L1760 576L1759 575z"/>
<path style="fill:#1d1d1d; stroke:none;" d="M910 576L911 577L910 576M1543 576L1544 577L1543 576z"/>
<path style="fill:#454545; stroke:none;" d="M1544.67 576.333L1545.33 576.667L1544.67 576.333z"/>
<path style="fill:#1d1d1d; stroke:none;" d="M908 577L909 578L908 577M1183 577L1184 578L1183 577M1539 577L1540 578L1539 577z"/>
<path style="fill:#454545; stroke:none;" d="M1540.67 577.333L1541.33 577.667L1540.67 577.333z"/>
<path style="fill:#1d1d1d; stroke:none;" d="M906 578L907 579L906 578z"/>
<path style="fill:#454545; stroke:none;" d="M1536 578L1537 579L1536 578M1761 578L1762 579L1761 578z"/>
<path style="fill:#1d1d1d; stroke:none;" d="M1184 579L1185 580L1184 579z"/>
<path style="fill:#454545; stroke:none;" d="M1532 579L1533 580L1532 579z"/>
<path style="fill:#1d1d1d; stroke:none;" d="M1762 579L1763 580L1762 579M902 580L903 581L902 580M1527 580L1528 581L1527 580z"/>
<path style="fill:#454545; stroke:none;" d="M1528 580L1529 581L1528 580M1762 580L1763 581L1762 580z"/>
<path style="fill:#1d1d1d; stroke:none;" d="M900 581L901 582L900 581z"/>
<path style="fill:#454545; stroke:none;" d="M1524.67 581.333L1525.33 581.667L1524.67 581.333z"/>
<path style="fill:#1d1d1d; stroke:none;" d="M1520 582L1521 583L1520 582z"/>
<path style="fill:#454545; stroke:none;" d="M1521 582L1522 583L1521 582z"/>
<path style="fill:#1d1d1d; stroke:none;" d="M897 583L898 584L897 583z"/>
<path style="fill:#454545; stroke:none;" d="M1518 583L1519 584L1518 583M1764 583L1765 584L1764 583z"/>
<path style="fill:#1d1d1d; stroke:none;" d="M1187 584L1188 585L1187 584z"/>
<path style="fill:#454545; stroke:none;" d="M1514.67 584.333L1515.33 584.667L1514.67 584.333z"/>
<path style="fill:#1d1d1d; stroke:none;" d="M1765 584L1766 585L1765 584M894 585L895 586L894 585z"/>
<path style="fill:#454545; stroke:none;" d="M1512 585L1513 586L1512 585M1765 585L1766 586L1765 585z"/>
<path style="fill:#1d1d1d; stroke:none;" d="M893 586L894 587L893 586M1188 586L1189 587L1188 586z"/>
<path style="fill:#454545; stroke:none;" d="M1509 586L1510 587L1509 586z"/>
<path style="fill:#1d1d1d; stroke:none;" d="M1505 587L1506 588L1505 587z"/>
<path style="fill:#454545; stroke:none;" d="M1506 587L1507 588L1506 587z"/>
<path style="fill:#1d1d1d; stroke:none;" d="M1189 588L1190 589L1189 588z"/>
<path style="fill:#454545; stroke:none;" d="M1503 588L1504 589L1503 588M1767 588L1768 589L1767 588z"/>
<path style="fill:#1d1d1d; stroke:none;" d="M1500 589L1501 590L1500 589z"/>
<path style="fill:#454545; stroke:none;" d="M1501 589L1502 590L1501 589M1498 590L1499 591L1498 590M1768 590L1769 591L1768 590M1496 591L1497 592L1496 591z"/>
<path style="fill:#1d1d1d; stroke:none;" d="M1187 592L1188 593L1187 592z"/>
<path style="fill:#454545; stroke:none;" d="M1494 592L1495 593L1494 592M1769 592L1770 593L1769 592z"/>
<path style="fill:#1d1d1d; stroke:none;" d="M1185 593L1186 594L1185 593M1491 593L1492 594L1491 593z"/>
<path style="fill:#454545; stroke:none;" d="M1492 593L1493 594L1492 593z"/>
<path style="fill:#1d1d1d; stroke:none;" d="M1770 593L1771 594L1770 593M1183 594L1184 595L1183 594z"/>
<path style="fill:#454545; stroke:none;" d="M1490 594L1491 595L1490 594M1770 594L1771 595L1770 594M1488 595L1489 596L1488 595M1486 596L1487 597L1486 596z"/>
<path style="fill:#1d1d1d; stroke:none;" d="M1178 597L1179 598L1178 597M1484 597L1485 598L1484 597z"/>
<path style="fill:#454545; stroke:none;" d="M1772 597L1773 598L1772 597M1483 598L1484 599L1483 598z"/>
<path style="fill:#1d1d1d; stroke:none;" d="M1481 599L1482 600L1481 599z"/>
<path style="fill:#454545; stroke:none;" d="M1773 599L1774 600L1773 599z"/>
<path style="fill:#1d1d1d; stroke:none;" d="M1174 600L1175 601L1174 600M1173 601L1174 602L1173 601z"/>
<path style="fill:#454545; stroke:none;" d="M1479 601L1480 602L1479 601M1774 601L1775 602L1774 601M1478 602L1479 603L1478 602z"/>
<path style="fill:#1d1d1d; stroke:none;" d="M1775 602L1776 603L1775 602M875 603L876 604L875 603z"/>
<path style="fill:#454545; stroke:none;" d="M1775 603L1776 604L1775 603z"/>
<path style="fill:#1d1d1d; stroke:none;" d="M874 604L875 605L874 604M1776 604L1777 605L1776 604M873 605L874 606L873 605M1474 605L1475 606L1474 605z"/>
<path style="fill:#454545; stroke:none;" d="M1776 605L1777 606L1776 605z"/>
<path style="fill:#1d1d1d; stroke:none;" d="M872 606L873 607L872 606M1473 606L1474 607L1473 606M1777 606L1778 607L1777 606M871 607L872 608L871 607M1472 607L1473 608L1472 607z"/>
<path style="fill:#454545; stroke:none;" d="M1777 607L1778 608L1777 607z"/>
<path style="fill:#1d1d1d; stroke:none;" d="M1471 608L1472 609L1471 608M1778 608L1779 609L1778 608M1165 609L1166 610L1165 609M1470 609L1471 610L1470 609z"/>
<path style="fill:#454545; stroke:none;" d="M1778 609L1779 610L1778 609z"/>
<path style="fill:#1d1d1d; stroke:none;" d="M1164 610L1165 611L1164 610M1469 610L1470 611L1469 610M1468 611L1469 612L1468 611M865 612L866 613L865 612M1467 612L1468 613L1467 612M864 613L865 614L864 613M1466 613L1467 614L1466 613M1161 614L1162 615L1161 614M1465 614L1466 615L1465 614M1464 615L1465 616L1464 615M860 616L861 617L860 616M1463 616L1464 617L1463 616M1159 617L1160 618L1159 617M1462 617L1463 618L1462 617M856 619L857 620L856 619M1158 619L1159 620L1158 619M853 621L854 622L853 621M1157 621L1158 622L1157 621z"/>
<path style="fill:#454545; stroke:none;" d="M1458 621L1459 622L1458 621M1784 621L1785 622L1784 621M1457 622L1458 623L1457 622z"/>
<path style="fill:#1d1d1d; stroke:none;" d="M1785 622L1786 623L1785 622M850 623L851 624L850 623z"/>
<path style="fill:#454545; stroke:none;" d="M1456 623L1457 624L1456 623M1785 623L1786 624L1785 623z"/>
<path style="fill:#1d1d1d; stroke:none;" d="M848 624L849 625L848 624M1156.33 624.667L1156.67 625.333L1156.33 624.667z"/>
<path style="fill:#454545; stroke:none;" d="M1455 624L1456 625L1455 624z"/>
<path style="fill:#1d1d1d; stroke:none;" d="M1786 624L1787 625L1786 624M1453 625L1454 626L1453 625z"/>
<path style="fill:#454545; stroke:none;" d="M1786 625L1787 626L1786 625z"/>
<path style="fill:#1d1d1d; stroke:none;" d="M1452 626L1453 627L1452 626M1787 626L1788 627L1787 626z"/>
<path style="fill:#454545; stroke:none;" d="M1787 627L1788 628L1787 627z"/>
<path style="fill:#1d1d1d; stroke:none;" d="M840 628L841 629L840 628z"/>
<path style="fill:#454545; stroke:none;" d="M1450 628L1451 629L1450 628z"/>
<path style="fill:#1d1d1d; stroke:none;" d="M838 629L839 630L838 629z"/>
<path style="fill:#454545; stroke:none;" d="M1449 629L1450 630L1449 629M1788 629L1789 630L1788 629z"/>
<path style="fill:#1d1d1d; stroke:none;" d="M835 630L836 631L835 630M1156.33 630.667L1156.67 631.333L1156.33 630.667M1447 630L1448 631L1447 630M832 631L833 632L832 631z"/>
<path style="fill:#454545; stroke:none;" d="M1789 631L1790 632L1789 631z"/>
<path style="fill:#1d1d1d; stroke:none;" d="M829 632L830 633L829 632z"/>
<path style="fill:#454545; stroke:none;" d="M1445 632L1446 633L1445 632z"/>
<path style="fill:#1d1d1d; stroke:none;" d="M826 633L827 634L826 633M1156 633L1157 634L1156 633M1443 633L1444 634L1443 633z"/>
<path style="fill:#454545; stroke:none;" d="M1790 633L1791 634L1790 633z"/>
<path style="fill:#1d1d1d; stroke:none;" d="M823 634L824 635L823 634M1152 634L1153 635L1152 634z"/>
<path style="fill:#454545; stroke:none;" d="M1442 634L1443 635L1442 634z"/>
<path style="fill:#1d1d1d; stroke:none;" d="M819 635L820 636L819 635M1148 635L1149 636L1148 635M1440 635L1441 636L1440 635z"/>
<path style="fill:#454545; stroke:none;" d="M1441 635L1442 636L1441 635z"/>
<path style="fill:#1d1d1d; stroke:none;" d="M816 636L817 637L816 636M1143.67 636.333L1144.33 636.667L1143.67 636.333z"/>
<path style="fill:#454545; stroke:none;" d="M1439 636L1440 637L1439 636M1791 636L1792 637L1791 636z"/>
<path style="fill:#1d1d1d; stroke:none;" d="M812 637L813 638L812 637M1139.67 637.333L1140.33 637.667L1139.67 637.333M1437 637L1438 638L1437 637M1792 637L1793 638L1792 637M808.667 638.333L809.333 638.667L808.667 638.333M1136 638L1137 639L1136 638z"/>
<path style="fill:#454545; stroke:none;" d="M1436 638L1437 639L1436 638M1792 638L1793 639L1792 638z"/>
<path style="fill:#1d1d1d; stroke:none;" d="M805 639L806 640L805 639M1132 639L1133 640L1132 639z"/>
<path style="fill:#454545; stroke:none;" d="M1434 639L1435 640L1434 639z"/>
<path style="fill:#1d1d1d; stroke:none;" d="M801 640L802 641L801 640M1128 640L1129 641L1128 640z"/>
<path style="fill:#454545; stroke:none;" d="M1793 640L1794 641L1793 640z"/>
<path style="fill:#1d1d1d; stroke:none;" d="M797 641L798 642L797 641M1125 641L1126 642L1125 641z"/>
<path style="fill:#454545; stroke:none;" d="M1431 641L1432 642L1431 641z"/>
<path style="fill:#1d1d1d; stroke:none;" d="M793 642L794 643L793 642M1122 642L1123 643L1122 642M789.667 643.333L790.333 643.667L789.667 643.333M1118 643L1119 644L1118 643M785.667 644.333L786.333 644.667L785.667 644.333M1423 644L1424 645L1423 644z"/>
<path style="fill:#454545; stroke:none;" d="M1424 644L1425 645L1424 644z"/>
<path style="fill:#1d1d1d; stroke:none;" d="M1795 644L1796 645L1795 644M782 645L783 646L782 645M1113 645L1114 646L1113 645z"/>
<path style="fill:#454545; stroke:none;" d="M1421 645L1422 646L1421 645M1795 645L1796 646L1795 645z"/>
<path style="fill:#1d1d1d; stroke:none;" d="M778 646L779 647L778 646M1110 646L1111 647L1110 646z"/>
<path style="fill:#454545; stroke:none;" d="M1418.67 646.333L1419.33 646.667L1418.67 646.333z"/>
<path style="fill:#1d1d1d; stroke:none;" d="M774 647L775 648L774 647M1108 647L1109 648L1108 647z"/>
<path style="fill:#454545; stroke:none;" d="M1415 647L1416 648L1415 647M1796 647L1797 648L1796 647z"/>
<path style="fill:#1d1d1d; stroke:none;" d="M770.667 648.333L771.333 648.667L770.667 648.333M1105 648L1106 649L1105 648M1411 648L1412 649L1411 648z"/>
<path style="fill:#454545; stroke:none;" d="M1412 648L1413 649L1412 648z"/>
<path style="fill:#1d1d1d; stroke:none;" d="M767 649L768 650L767 649M1103 649L1104 650L1103 649z"/>
<path style="fill:#454545; stroke:none;" d="M1409 649L1410 650L1409 649z"/>
<path style="fill:#1d1d1d; stroke:none;" d="M763 650L764 651L763 650M1101 650L1102 651L1101 650M1404 650L1405 651L1404 650z"/>
<path style="fill:#454545; stroke:none;" d="M1405.67 650.333L1406.33 650.667L1405.67 650.333M1797 650L1798 651L1797 650z"/>
<path style="fill:#1d1d1d; stroke:none;" d="M760 651L761 652L760 651z"/>
<path style="fill:#454545; stroke:none;" d="M1402 651L1403 652L1402 651z"/>
<path style="fill:#1d1d1d; stroke:none;" d="M1798 651L1799 652L1798 651M756.667 652.333L757.333 652.667L756.667 652.333M1397 652L1398 653L1397 652z"/>
<path style="fill:#454545; stroke:none;" d="M1398.67 652.333L1399.33 652.667L1398.67 652.333M1798 652L1799 653L1798 652z"/>
<path style="fill:#1d1d1d; stroke:none;" d="M753 653L754 654L753 653M1096 653L1097 654L1096 653z"/>
<path style="fill:#454545; stroke:none;" d="M1394.67 653.333L1395.33 653.667L1394.67 653.333z"/>
<path style="fill:#1d1d1d; stroke:none;" d="M750 654L751 655L750 654z"/>
<path style="fill:#454545; stroke:none;" d="M1391 654L1392 655L1391 654z"/>
<path style="fill:#1d1d1d; stroke:none;" d="M747 655L748 656L747 655M1093 655L1094 656L1093 655M1386 655L1387 656L1386 655z"/>
<path style="fill:#454545; stroke:none;" d="M1387 655L1388 656L1387 655M1799 655L1800 656L1799 655z"/>
<path style="fill:#1d1d1d; stroke:none;" d="M1382 656L1383 657L1382 656z"/>
<path style="fill:#454545; stroke:none;" d="M1383.67 656.333L1384.33 656.667L1383.67 656.333z"/>
<path style="fill:#1d1d1d; stroke:none;" d="M1800 656L1801 657L1800 656M742 657L743 658L742 657M1378 657L1379 658L1378 657z"/>
<path style="fill:#454545; stroke:none;" d="M1379.67 657.333L1380.33 657.667L1379.67 657.333M1800 657L1801 658L1800 657z"/>
<path style="fill:#1d1d1d; stroke:none;" d="M740 658L741 659L740 658z"/>
<path style="fill:#454545; stroke:none;" d="M1375.67 658.333L1376.33 658.667L1375.67 658.333z"/>
<path style="fill:#1d1d1d; stroke:none;" d="M738 659L739 660L738 659M1089 659L1090 660L1089 659z"/>
<path style="fill:#454545; stroke:none;" d="M1371.67 659.333L1372.33 659.667L1371.67 659.333z"/>
<path style="fill:#1d1d1d; stroke:none;" d="M736 660L737 661L736 660z"/>
<path style="fill:#454545; stroke:none;" d="M1368 660L1369 661L1368 660M1801 660L1802 661L1801 660z"/>
<path style="fill:#1d1d1d; stroke:none;" d="M734 661L735 662L734 661M1088 661L1089 662L1088 661z"/>
<path style="fill:#454545; stroke:none;" d="M1364 661L1365 662L1364 661z"/>
<path style="fill:#1d1d1d; stroke:none;" d="M1802 661L1803 662L1802 661M1087 662L1088 663L1087 662M1359 662L1360 663L1359 662z"/>
<path style="fill:#454545; stroke:none;" d="M1360.67 662.333L1361.33 662.667L1360.67 662.333M1802 662L1803 663L1802 662z"/>
<path style="fill:#1d1d1d; stroke:none;" d="M731 663L732 664L731 663z"/>
<path style="fill:#454545; stroke:none;" d="M1357 663L1358 664L1357 663z"/>
<path style="fill:#1d1d1d; stroke:none;" d="M729 664L730 665L729 664M1352 664L1353 665L1352 664z"/>
<path style="fill:#454545; stroke:none;" d="M1353 664L1354 665L1353 664M1349.67 665.333L1350.33 665.667L1349.67 665.333M1803 665L1804 666L1803 665z"/>
<path style="fill:#1d1d1d; stroke:none;" d="M726 666L727 667L726 666M1345 666L1346 667L1345 666z"/>
<path style="fill:#454545; stroke:none;" d="M1346 666L1347 667L1346 666M1343 667L1344 668L1343 667M1804 667L1805 668L1804 667z"/>
<path style="fill:#1d1d1d; stroke:none;" d="M723 668L724 669L723 668M1082 668L1083 669L1082 668z"/>
<path style="fill:#454545; stroke:none;" d="M1339.67 668.333L1340.33 668.667L1339.67 668.333M1336 669L1337 670L1336 669z"/>
<path style="fill:#1d1d1d; stroke:none;" d="M1805 669L1806 670L1805 669M720 670L721 671L720 670z"/>
<path style="fill:#454545; stroke:none;" d="M1333.67 670.333L1334.33 670.667L1333.67 670.333M1805 670L1806 671L1805 670z"/>
<path style="fill:#1d1d1d; stroke:none;" d="M1081 671L1082 672L1081 671M1330 671L1331 672L1330 671z"/>
<path style="fill:#454545; stroke:none;" d="M1331 671L1332 672L1331 671z"/>
<path style="fill:#1d1d1d; stroke:none;" d="M716 673L717 674L716 673M1077 673L1078 674L1077 673z"/>
<path style="fill:#454545; stroke:none;" d="M1326 673L1327 674L1326 673M1806 673L1807 674L1806 673z"/>
<path style="fill:#1d1d1d; stroke:none;" d="M715 674L716 675L715 674M1074 674L1075 675L1074 674z"/>
<path style="fill:#454545; stroke:none;" d="M1324 674L1325 675L1324 674z"/>
<path style="fill:#1d1d1d; stroke:none;" d="M1071 675L1072 676L1071 675M1068 676L1069 677L1068 676z"/>
<path style="fill:#454545; stroke:none;" d="M1807 676L1808 677L1807 676z"/>
<path style="fill:#1d1d1d; stroke:none;" d="M1318 677L1319 678L1318 677z"/>
<path style="fill:#454545; stroke:none;" d="M1319 677L1320 678L1319 677z"/>
<path style="fill:#1d1d1d; stroke:none;" d="M1063 678L1064 679L1063 678z"/>
<path style="fill:#454545; stroke:none;" d="M1317 678L1318 679L1317 678M1808 678L1809 679L1808 678z"/>
<path style="fill:#1d1d1d; stroke:none;" d="M710.333 679.667L710.667 680.333L710.333 679.667M1061 679L1062 680L1061 679M1059 680L1060 681L1059 680M1313 680L1314 681L1313 680z"/>
<path style="fill:#454545; stroke:none;" d="M1314 680L1315 681L1314 680z"/>
<path style="fill:#1d1d1d; stroke:none;" d="M1809 680L1810 681L1809 680M1057 681L1058 682L1057 681z"/>
<path style="fill:#454545; stroke:none;" d="M1312 681L1313 682L1312 681M1809 681L1810 682L1809 681z"/>
<path style="fill:#1d1d1d; stroke:none;" d="M711 682L712 683L711 682M1055 682L1056 683L1055 682M1310 682L1311 683L1310 682M1053 683L1054 684L1053 683z"/>
<path style="fill:#454545; stroke:none;" d="M1309 683L1310 684L1309 683z"/>
<path style="fill:#1d1d1d; stroke:none;" d="M1810 683L1811 684L1810 683M1307 684L1308 685L1307 684z"/>
<path style="fill:#454545; stroke:none;" d="M1810 684L1811 685L1810 684z"/>
<path style="fill:#1d1d1d; stroke:none;" d="M713 685L714 686L713 685M1050 685L1051 686L1050 685z"/>
<path style="fill:#454545; stroke:none;" d="M1306 685L1307 686L1306 685M1305 686L1306 687L1305 686z"/>
<path style="fill:#1d1d1d; stroke:none;" d="M1811 686L1812 687L1811 686M1303 687L1304 688L1303 687z"/>
<path style="fill:#454545; stroke:none;" d="M1811 687L1812 688L1811 687z"/>
<path style="fill:#1d1d1d; stroke:none;" d="M715 688L716 689L715 688M1042.67 688.333L1043.33 688.667L1042.67 688.333M1030 689L1030 690L1035 690L1030 689z"/>
<path style="fill:#454545; stroke:none;" d="M1301 689L1302 690L1301 689z"/>
<path style="fill:#1d1d1d; stroke:none;" d="M1812 689L1813 690L1812 689M1020 690L1020 691L1023 691L1020 690z"/>
<path style="fill:#454545; stroke:none;" d="M1300 690L1301 691L1300 690M1812 690L1813 691L1812 690z"/>
<path style="fill:#1d1d1d; stroke:none;" d="M717 691L718 692L717 691M1015 691L1016 692L1015 691z"/>
<path style="fill:#454545; stroke:none;" d="M1299 691L1300 692L1299 691z"/>
<path style="fill:#1d1d1d; stroke:none;" d="M1012 692L1013 693L1012 692z"/>
<path style="fill:#454545; stroke:none;" d="M1298 692L1299 693L1298 692z"/>
<path style="fill:#1d1d1d; stroke:none;" d="M1813 692L1814 693L1813 692M718 693L719 694L718 693M1009 693L1010 694L1009 693z"/>
<path style="fill:#454545; stroke:none;" d="M1297 693L1298 694L1297 693M1813 693L1814 694L1813 693z"/>
<path style="fill:#1d1d1d; stroke:none;" d="M719 694L720 695L719 694M1007 694L1008 695L1007 694M1005 695L1006 696L1005 695M1814 695L1815 696L1814 695z"/>
<path style="fill:#454545; stroke:none;" d="M1814 696L1815 697L1814 696z"/>
<path style="fill:#1d1d1d; stroke:none;" d="M721 697L722 698L721 697M1297 697L1298 698L1297 697z"/>
<path style="fill:#454545; stroke:none;" d="M1298 698L1299 699L1298 698M1815.33 699.667L1815.67 700.333L1815.33 699.667z"/>
<path style="fill:#1d1d1d; stroke:none;" d="M723 700L724 701L723 700z"/>
<path style="fill:#454545; stroke:none;" d="M1300 701L1301 702L1300 701z"/>
<path style="fill:#1d1d1d; stroke:none;" d="M1300 702L1301 703L1300 702M725 703L726 704L725 703z"/>
<path style="fill:#454545; stroke:none;" d="M1301 703L1302 704L1301 703M1816 703L1817 704L1816 703z"/>
<path style="fill:#1d1d1d; stroke:none;" d="M998 705L998 710L999 710L998 705M1302 705L1303 706L1302 705M1817 705L1818 706L1817 705M727 706L728 707L727 706z"/>
<path style="fill:#454545; stroke:none;" d="M1303 706L1304 707L1303 706M1817.33 706.667L1817.67 707.333L1817.33 706.667z"/>
<path style="fill:#1d1d1d; stroke:none;" d="M1304 708L1305 709L1304 708M729 709L730 710L729 709z"/>
<path style="fill:#454545; stroke:none;" d="M1305 709L1306 710L1305 709M1818 710L1819 711L1818 710z"/>
<path style="fill:#1d1d1d; stroke:none;" d="M999 711L1000 712L999 711M1306 711L1307 712L1306 711M731 712L732 713L731 712z"/>
<path style="fill:#454545; stroke:none;" d="M1307 712L1308 713L1307 712z"/>
<path style="fill:#1d1d1d; stroke:none;" d="M1819 712L1820 713L1819 712M1001 713L1002 714L1001 713M1011 713L1011 714L1017 714L1011 713z"/>
<path style="fill:#454545; stroke:none;" d="M1819 713L1820 714L1819 713z"/>
<path style="fill:#1d1d1d; stroke:none;" d="M1308 714L1309 715L1308 714M733 715L734 716L733 715z"/>
<path style="fill:#454545; stroke:none;" d="M1309 715L1310 716L1309 715z"/>
<path style="fill:#1d1d1d; stroke:none;" d="M1022 716L1023 717L1022 716z"/>
<path style="fill:#454545; stroke:none;" d="M1310 716L1311 717L1310 716z"/>
<path style="fill:#1d1d1d; stroke:none;" d="M1020 717L1021 718L1020 717M1310 717L1311 718L1310 717z"/>
<path style="fill:#454545; stroke:none;" d="M1820 717L1821 718L1820 717z"/>
<path style="fill:#1d1d1d; stroke:none;" d="M735 718L736 719L735 718z"/>
<path style="fill:#454545; stroke:none;" d="M1311 718L1312 719L1311 718z"/>
<path style="fill:#1d1d1d; stroke:none;" d="M1015 719L1016 720L1015 719z"/>
<path style="fill:#454545; stroke:none;" d="M1312 719L1313 720L1312 719z"/>
<path style="fill:#1d1d1d; stroke:none;" d="M1312 720L1313 721L1312 720z"/>
<path style="fill:#454545; stroke:none;" d="M1821.33 720.667L1821.67 721.333L1821.33 720.667z"/>
<path style="fill:#1d1d1d; stroke:none;" d="M737 721L738 722L737 721M1010 721L1011 722L1010 721z"/>
<path style="fill:#454545; stroke:none;" d="M1313 721L1314 722L1313 721z"/>
<path style="fill:#1d1d1d; stroke:none;" d="M738 722L739 723L738 722z"/>
<path style="fill:#454545; stroke:none;" d="M1314 722L1315 723L1314 722z"/>
<path style="fill:#1d1d1d; stroke:none;" d="M1005 723L1006 724L1005 723z"/>
<path style="fill:#454545; stroke:none;" d="M1822.33 724.667L1822.67 725.333L1822.33 724.667z"/>
<path style="fill:#1d1d1d; stroke:none;" d="M740 725L741 726L740 725M1000 725L1001 726L1000 725z"/>
<path style="fill:#454545; stroke:none;" d="M1316 725L1317 726L1316 725z"/>
<path style="fill:#1d1d1d; stroke:none;" d="M997 726L998 727L997 726M995 727L996 728L995 727M1823 727L1824 728L1823 727M742 728L743 729L742 728M992 728L993 729L992 728z"/>
<path style="fill:#454545; stroke:none;" d="M1318 728L1319 729L1318 728M1823.33 728.667L1823.67 729.333L1823.33 728.667z"/>
<path style="fill:#1d1d1d; stroke:none;" d="M990 729L991 730L990 729M987 730L988 731L987 730M744 731L745 732L744 731M984 731L985 732L984 731z"/>
<path style="fill:#454545; stroke:none;" d="M1320 731L1321 732L1320 731z"/>
<path style="fill:#1d1d1d; stroke:none;" d="M1824 731L1825 732L1824 731M982 732L983 733L982 732z"/>
<path style="fill:#454545; stroke:none;" d="M1824.33 732.667L1824.67 733.333L1824.33 732.667z"/>
<path style="fill:#1d1d1d; stroke:none;" d="M979 733L980 734L979 733z"/>
<path style="fill:#454545; stroke:none;" d="M1322 734L1323 735L1322 734z"/>
<path style="fill:#1d1d1d; stroke:none;" d="M747 735L748 736L747 735M974 735L975 736L974 735M971 736L972 737L971 736M1323 736L1324 737L1323 736z"/>
<path style="fill:#454545; stroke:none;" d="M1324 737L1325 738L1324 737M1825 737L1826 738L1825 737z"/>
<path style="fill:#1d1d1d; stroke:none;" d="M749 738L750 739L749 738M966 738L967 739L966 738M963 739L964 740L963 739M1325 739L1326 740L1325 739M960 740L961 741L960 740z"/>
<path style="fill:#454545; stroke:none;" d="M1326 740L1327 741L1326 740z"/>
<path style="fill:#1d1d1d; stroke:none;" d="M1826 740L1827 741L1826 740M751 741L752 742L751 741M958 741L959 742L958 741z"/>
<path style="fill:#454545; stroke:none;" d="M1327 741L1328 742L1327 741M1826.33 741.667L1826.67 742.333L1826.33 741.667z"/>
<path style="fill:#1d1d1d; stroke:none;" d="M955 742L956 743L955 742M952 743L953 744L952 743M753 744L754 745L753 744M950 744L951 745L950 744z"/>
<path style="fill:#454545; stroke:none;" d="M1329 744L1330 745L1329 744z"/>
<path style="fill:#1d1d1d; stroke:none;" d="M754 745L755 746L754 745M947 745L948 746L947 745M944 746L945 747L944 746z"/>
<path style="fill:#454545; stroke:none;" d="M1827 746L1828 747L1827 746z"/>
<path style="fill:#1d1d1d; stroke:none;" d="M941 747L942 748L941 747z"/>
<path style="fill:#454545; stroke:none;" d="M1331 747L1332 748L1331 747z"/>
<path style="fill:#1d1d1d; stroke:none;" d="M756 748L757 749L756 748M938 748L939 749L938 748M935 749L936 750L935 749M1332 749L1333 750L1332 749M1828 749L1829 750L1828 749M933 750L934 751L933 750z"/>
<path style="fill:#454545; stroke:none;" d="M1333 750L1334 751L1333 750M1828.33 750.667L1828.67 751.333L1828.33 750.667z"/>
<path style="fill:#1d1d1d; stroke:none;" d="M758 751L759 752L758 751M930 751L931 752L930 751M759 752L760 753L759 752M927 752L928 753L927 752M1334 752L1335 753L1334 752M924 753L925 754L924 753z"/>
<path style="fill:#454545; stroke:none;" d="M1335 753L1336 754L1335 753z"/>
<path style="fill:#1d1d1d; stroke:none;" d="M921 754L922 755L921 754z"/>
<path style="fill:#454545; stroke:none;" d="M1336 754L1337 755L1336 754z"/>
<path style="fill:#1d1d1d; stroke:none;" d="M1829 754L1830 755L1829 754M761 755L762 756L761 755M918 755L919 756L918 755z"/>
<path style="fill:#454545; stroke:none;" d="M1829.33 755.667L1829.67 756.333L1829.33 755.667z"/>
<path style="fill:#1d1d1d; stroke:none;" d="M915 756L916 757L915 756z"/>
<path style="fill:#454545; stroke:none;" d="M1338 757L1339 758L1338 757z"/>
<path style="fill:#1d1d1d; stroke:none;" d="M763 758L764 759L763 758M910 758L911 759L910 758M764 759L765 760L764 759M907 759L908 760L907 759M1339 759L1340 760L1339 759M904 760L905 761L904 760z"/>
<path style="fill:#454545; stroke:none;" d="M1340 760L1341 761L1340 760z"/>
<path style="fill:#1d1d1d; stroke:none;" d="M901 761L902 762L901 761z"/>
<path style="fill:#454545; stroke:none;" d="M1830.33 761.667L1830.67 762.333L1830.33 761.667z"/>
<path style="fill:#1d1d1d; stroke:none;" d="M766 762L767 763L766 762M898 762L899 763L898 762M1341 762L1342 763L1341 762M767 763L768 764L767 763M895 763L896 764L895 763z"/>
<path style="fill:#454545; stroke:none;" d="M1342 763L1343 764L1342 763z"/>
<path style="fill:#1d1d1d; stroke:none;" d="M892 764L893 765L892 764z"/>
<path style="fill:#454545; stroke:none;" d="M1343 764L1344 765L1343 764z"/>
<path style="fill:#1d1d1d; stroke:none;" d="M889 765L890 766L889 765M1831 765L1832 766L1831 765M886 766L887 767L886 766M770 767L771 768L770 767M883 767L884 768L883 767z"/>
<path style="fill:#454545; stroke:none;" d="M1345 767L1346 768L1345 767M1831.33 767.667L1831.67 768.333L1831.33 767.667z"/>
<path style="fill:#1d1d1d; stroke:none;" d="M771 768L772 769L771 768M880 768L881 769L880 768M877 769L878 770L877 769M1346 769L1347 770L1346 769M874 770L875 771L874 770z"/>
<path style="fill:#454545; stroke:none;" d="M1347 770L1348 771L1347 770z"/>
<path style="fill:#1d1d1d; stroke:none;" d="M871 771L872 772L871 771z"/>
<path style="fill:#454545; stroke:none;" d="M1348 771L1349 772L1348 771z"/>
<path style="fill:#1d1d1d; stroke:none;" d="M868 772L869 773L868 772M1349 773L1350 774L1349 773z"/>
<path style="fill:#454545; stroke:none;" d="M1832.33 773.667L1832.67 774.333L1832.33 773.667z"/>
<path style="fill:#1d1d1d; stroke:none;" d="M776 774L777 775L776 774M863 774L864 775L863 774z"/>
<path style="fill:#454545; stroke:none;" d="M1350 774L1351 775L1350 774z"/>
<path style="fill:#1d1d1d; stroke:none;" d="M777 775L778 776L777 775M860 775L861 776L860 775z"/>
<path style="fill:#454545; stroke:none;" d="M1351 775L1352 776L1351 775z"/>
<path style="fill:#1d1d1d; stroke:none;" d="M857 776L858 777L857 776M854 777L855 778L854 777M1352 777L1353 778L1352 777M851 778L852 779L851 778z"/>
<path style="fill:#454545; stroke:none;" d="M1353 778L1354 779L1353 778z"/>
<path style="fill:#1d1d1d; stroke:none;" d="M848 779L849 780L848 779z"/>
<path style="fill:#454545; stroke:none;" d="M1354 779L1355 780L1354 779M1833 779L1833 782L1834 782L1833 779z"/>
<path style="fill:#1d1d1d; stroke:none;" d="M845 780L846 781L845 780M782 781L783 782L782 781M842 781L843 782L842 781M783 782L784 783L783 782M839 782L840 783L839 782M1356 782L1357 783L1356 782M784 783L785 784L784 783M836 783L837 784L836 783M833 784L834 785L833 784z"/>
<path style="fill:#454545; stroke:none;" d="M1358 784L1359 785L1358 784z"/>
<path style="fill:#1d1d1d; stroke:none;" d="M830 785L831 786L830 785z"/>
<path style="fill:#454545; stroke:none;" d="M1359 785L1360 786L1359 785z"/>
<path style="fill:#1d1d1d; stroke:none;" d="M827 786L828 787L827 786z"/>
<path style="fill:#454545; stroke:none;" d="M1834 786L1834 789L1835 789L1834 786z"/>
<path style="fill:#1d1d1d; stroke:none;" d="M824 787L825 788L824 787M821 788L822 789L821 788M1361 788L1362 789L1361 788M818 789L819 790L818 789M790 790L791 791L790 790M815 790L816 791L815 790z"/>
<path style="fill:#454545; stroke:none;" d="M1363 790L1364 791L1363 790z"/>
<path style="fill:#1d1d1d; stroke:none;" d="M791 791L792 792L791 791M812 791L813 792L812 791z"/>
<path style="fill:#454545; stroke:none;" d="M1364 791L1365 792L1364 791z"/>
<path style="fill:#1d1d1d; stroke:none;" d="M792 792L793 793L792 792M809 792L810 793L809 792z"/>
<path style="fill:#454545; stroke:none;" d="M1365 792L1366 793L1365 792z"/>
<path style="fill:#1d1d1d; stroke:none;" d="M1835 792L1836 793L1835 792M793 793L794 794L793 793M806 793L807 794L806 793z"/>
<path style="fill:#454545; stroke:none;" d="M1366 793L1367 794L1366 793z"/>
<path style="fill:#1d1d1d; stroke:none;" d="M803 794L804 795L803 794z"/>
<path style="fill:#454545; stroke:none;" d="M1835 794L1835 798L1836 798L1835 794z"/>
<path style="fill:#1d1d1d; stroke:none;" d="M799 795L800 796L799 795M796 796L797 797L796 796M1368 796L1369 797L1368 796M1369 797L1370 798L1369 797z"/>
<path style="fill:#454545; stroke:none;" d="M1372 800L1373 801L1372 800M1373 801L1374 802L1373 801M1374 802L1375 803L1374 802z"/>
<path style="fill:#1d1d1d; stroke:none;" d="M1836 802L1837 803L1836 802z"/>
<path style="fill:#454545; stroke:none;" d="M1375 803L1376 804L1375 803M1376 804L1377 805L1376 804M1836 804L1836 810L1837 810L1836 804M1377 805L1378 806L1377 805z"/>
<path style="fill:#1d1d1d; stroke:none;" d="M1379 808L1380 809L1379 808M1380 809L1381 810L1380 809M1381 810L1382 811L1381 810z"/>
<path style="fill:#454545; stroke:none;" d="M1386 815L1387 816L1386 815M1387 816L1388 817L1387 816M1388 817L1389 818L1388 817M1389 818L1390 819L1389 818M1390 819L1391 820L1390 819M1391 820L1392 821L1391 820M1392 821L1393 822L1392 821z"/>
<path style="fill:#1d1d1d; stroke:none;" d="M1837 821L1837 825L1838 825L1837 821z"/>
<path style="fill:#454545; stroke:none;" d="M1393 822L1394 823L1393 822M1394 823L1395 824L1394 823M1395 824L1396 825L1395 824M1396 825L1397 826L1396 825M1397 826L1398 827L1397 826M1398 827L1399 828L1398 827M1399 828L1400 829L1399 828M1400 829L1401 830L1400 829M1401 830L1402 831L1401 830M1402 831L1403 832L1402 831M1837 831L1837 850L1838 850L1837 831M1403 832L1404 833L1403 832M1404 833L1405 834L1404 833M1405 834L1406 835L1405 834M1406 835L1407 836L1406 835M1407 836L1408 837L1407 836M1408 837L1409 838L1408 837M1409 838L1410 839L1409 838M1410 839L1411 840L1410 839M1411 840L1412 841L1411 840M1412 841L1413 842L1412 841M1413 842L1414 843L1413 842M1414 843L1415 844L1414 843M1415 844L1416 845L1415 844M1416 845L1417 846L1416 845M1417 846L1418 847L1417 846M1418 847L1419 848L1418 847M1419 848L1420 849L1419 848z"/>
<path style="fill:#1d1d1d; stroke:none;" d="M1422 851L1423 852L1422 851M1423 852L1424 853L1423 852M1424 853L1425 854L1424 853z"/>
<path style="fill:#454545; stroke:none;" d="M1428 856L1429 857L1428 856M1429 857L1430 858L1429 857M1430 858L1431 859L1430 858M1431 859L1432 860L1431 859M1432 860L1433 861L1432 860z"/>
<path style="fill:#1d1d1d; stroke:none;" d="M1434 862L1435 863L1434 862M1435 863L1436 864L1435 863M1837.33 863.667L1837.67 864.333L1837.33 863.667z"/>
<path style="fill:#454545; stroke:none;" d="M1438 865L1439 866L1438 865M1439 866L1440 867L1439 866M1440 867L1441 868L1440 867z"/>
<path style="fill:#1d1d1d; stroke:none;" d="M1443 870L1444 871L1443 870z"/>
<path style="fill:#454545; stroke:none;" d="M1445 871L1446 872L1445 871M1446 872L1447 873L1446 872M1447 873L1448 874L1447 873z"/>
<path style="fill:#1d1d1d; stroke:none;" d="M1449 875L1450 876L1449 875M1450 876L1451 877L1450 876z"/>
<path style="fill:#454545; stroke:none;" d="M1836 877L1836 882L1837 882L1836 877M1453 878L1454 879L1453 878M1454 879L1455 880L1454 879M1455 880L1456 881L1455 880M1456 881L1457 882L1456 881z"/>
<path style="fill:#1d1d1d; stroke:none;" d="M1458 883L1459 884L1458 883M1836 883L1837 884L1836 883M1459 884L1460 885L1459 884z"/>
<path style="fill:#454545; stroke:none;" d="M1463 887L1464 888L1463 887M1835 887L1835 890L1836 890L1835 887M1464 888L1465 889L1464 888M1465 889L1466 890L1465 889M1466 890L1467 891L1466 890M1467 891L1468 892L1467 891z"/>
<path style="fill:#1d1d1d; stroke:none;" d="M1835 891L1836 892L1835 891z"/>
<path style="fill:#454545; stroke:none;" d="M1468 892L1469 893L1468 892M1834.33 895.667L1834.67 896.333L1834.33 895.667M1477 901L1478 902L1477 901M1833.33 901.667L1833.67 902.333L1833.33 901.667M1478 902L1479 903L1478 902M1479 903L1480 904L1479 903M1480 904L1481 905L1480 904M1481 905L1482 906L1481 905M1482 906L1483 907L1482 906M1832.33 907.667L1832.67 908.333L1832.33 907.667z"/>
<path style="fill:#1d1d1d; stroke:none;" d="M1484 909L1485 910L1484 909M1832 909L1833 910L1832 909z"/>
<path style="fill:#454545; stroke:none;" d="M1487 912L1488 913L1487 912M1831.33 912.667L1831.67 913.333L1831.33 912.667M1488 913L1489 914L1488 913z"/>
<path style="fill:#1d1d1d; stroke:none;" d="M1831 914L1832 915L1831 914M1489 915L1490 916L1489 915z"/>
<path style="fill:#454545; stroke:none;" d="M1491 917L1492 918L1491 917M1830.33 917.667L1830.67 918.333L1830.33 917.667M1492 918L1493 919L1492 918z"/>
<path style="fill:#1d1d1d; stroke:none;" d="M1830 919L1831 920L1830 919M1493 920L1494 921L1493 920z"/>
<path style="fill:#454545; stroke:none;" d="M1495 922L1496 923L1495 922M1829 922L1830 923L1829 922z"/>
<path style="fill:#1d1d1d; stroke:none;" d="M1496 924L1497 925L1496 924z"/>
<path style="fill:#454545; stroke:none;" d="M1498 926L1499 927L1498 926M1828.33 926.667L1828.67 927.333L1828.33 926.667z"/>
<path style="fill:#1d1d1d; stroke:none;" d="M1499 928L1500 929L1499 928M1828 928L1829 929L1828 928z"/>
<path style="fill:#454545; stroke:none;" d="M1500 929L1501 930L1500 929M1501 930L1502 931L1501 930M1827.33 930.667L1827.67 931.333L1827.33 930.667z"/>
<path style="fill:#1d1d1d; stroke:none;" d="M1501 931L1502 932L1501 931z"/>
<path style="fill:#454545; stroke:none;" d="M1502 932L1503 933L1502 932z"/>
<path style="fill:#1d1d1d; stroke:none;" d="M1827 932L1828 933L1827 932z"/>
<path style="fill:#454545; stroke:none;" d="M1503 933L1504 934L1503 933M1826.33 934.667L1826.67 935.333L1826.33 934.667M1505 936L1506 937L1505 936z"/>
<path style="fill:#1d1d1d; stroke:none;" d="M1505 937L1506 938L1505 937z"/>
<path style="fill:#454545; stroke:none;" d="M1506 938L1507 939L1506 938M1825 938L1826 939L1825 938z"/>
<path style="fill:#1d1d1d; stroke:none;" d="M1507 940L1508 941L1507 940z"/>
<path style="fill:#454545; stroke:none;" d="M1824 940L1825 941L1824 940M1508 941L1509 942L1508 941M1823 942L1824 943L1823 942M1509 943L1510 944L1509 943M1820.67 943.333L1821.33 943.667L1820.67 943.333M1807 944L1807 945L1814 945L1807 944z"/>
<path style="fill:#1d1d1d; stroke:none;" d="M1815 944L1816 945L1815 944z"/>
<path style="fill:#454545; stroke:none;" d="M1786 945L1786 946L1793 946L1786 945z"/>
<path style="fill:#1d1d1d; stroke:none;" d="M1795.67 945.333L1796.33 945.667L1795.67 945.333z"/>
<path style="fill:#454545; stroke:none;" d="M1768 946L1768 947L1774 947L1768 946z"/>
<path style="fill:#1d1d1d; stroke:none;" d="M1776.67 946.333L1777.33 946.667L1776.67 946.333M1511 947L1512 948L1511 947z"/>
<path style="fill:#454545; stroke:none;" d="M1752 947L1752 948L1758 948L1752 947z"/>
<path style="fill:#1d1d1d; stroke:none;" d="M1760 947L1761 948L1760 947z"/>
<path style="fill:#454545; stroke:none;" d="M1512 948L1513 949L1512 948M1737 948L1737 949L1743 949L1737 948z"/>
<path style="fill:#1d1d1d; stroke:none;" d="M1744.67 948.333L1745.33 948.667L1744.67 948.333M1512 949L1513 950L1512 949z"/>
<path style="fill:#454545; stroke:none;" d="M1722 949L1722 950L1728 950L1722 949z"/>
<path style="fill:#1d1d1d; stroke:none;" d="M1729.67 949.333L1730.33 949.667L1729.67 949.333z"/>
<path style="fill:#454545; stroke:none;" d="M1513 950L1514 951L1513 950M1708 950L1708 951L1713 951L1708 950z"/>
<path style="fill:#1d1d1d; stroke:none;" d="M1715 950L1716 951L1715 950M1513 951L1514 952L1513 951z"/>
<path style="fill:#454545; stroke:none;" d="M1693 951L1693 952L1699 952L1693 951z"/>
<path style="fill:#1d1d1d; stroke:none;" d="M1700 951L1701 952L1700 951z"/>
<path style="fill:#454545; stroke:none;" d="M1514 952L1515 953L1514 952M1679 952L1679 953L1685 953L1679 952z"/>
<path style="fill:#1d1d1d; stroke:none;" d="M1686 952L1687 953L1686 952z"/>
<path style="fill:#454545; stroke:none;" d="M1665 953L1665 954L1671 954L1665 953z"/>
<path style="fill:#1d1d1d; stroke:none;" d="M1672 953L1673 954L1672 953z"/>
<path style="fill:#454545; stroke:none;" d="M1652 954L1652 955L1657 955L1652 954z"/>
<path style="fill:#1d1d1d; stroke:none;" d="M1658 954L1659 955L1658 954z"/>
<path style="fill:#454545; stroke:none;" d="M1515 955L1516 956L1515 955M1638 955L1638 956L1643 956L1638 955z"/>
<path style="fill:#1d1d1d; stroke:none;" d="M1644.67 955.333L1645.33 955.667L1644.67 955.333z"/>
<path style="fill:#454545; stroke:none;" d="M1624 956L1624 957L1629 957L1624 956z"/>
<path style="fill:#1d1d1d; stroke:none;" d="M1630.67 956.333L1631.33 956.667L1630.67 956.333z"/>
<path style="fill:#454545; stroke:none;" d="M1516 957L1517 958L1516 957M1609 957L1609 958L1615 958L1609 957z"/>
<path style="fill:#1d1d1d; stroke:none;" d="M1616 957L1617 958L1616 957z"/>
<path style="fill:#454545; stroke:none;" d="M1595 958L1595 959L1601 959L1595 958z"/>
<path style="fill:#1d1d1d; stroke:none;" d="M1602 958L1603 959L1602 958z"/>
<path style="fill:#454545; stroke:none;" d="M1581 959L1581 960L1587 960L1581 959z"/>
<path style="fill:#1d1d1d; stroke:none;" d="M1588 959L1589 960L1588 959z"/>
<path style="fill:#454545; stroke:none;" d="M1517 960L1518 961L1517 960M1567 960L1567 961L1573 961L1567 960z"/>
<path style="fill:#1d1d1d; stroke:none;" d="M1574 960L1575 961L1574 960z"/>
<path style="fill:#454545; stroke:none;" d="M1553 961L1553 962L1559 962L1553 961z"/>
<path style="fill:#1d1d1d; stroke:none;" d="M1560 961L1561 962L1560 961z"/>
<path style="fill:#454545; stroke:none;" d="M1537 962L1537 963L1543 963L1537 962z"/>
<path style="fill:#1d1d1d; stroke:none;" d="M1545 962L1546 963L1545 962z"/>
<path style="fill:#454545; stroke:none;" d="M1520 963L1520 964L1527 964L1520 963z"/>
<path style="fill:#1d1d1d; stroke:none;" d="M1529 963L1530 964L1529 963z"/>
</svg>
