<?xml version="1.0" standalone="yes"?>
<svg xmlns="http://www.w3.org/2000/svg" width="2118" height="1206">
<path style="fill:#ffffff; stroke:none;" d="M0 0L0 1206L2118 1206L2118 0L0 0z"/>
<path style="fill:#030303; stroke:none;" d="M1050 248C1074.73 248 1097.21 251.786 1120 261.862C1131.65 267.012 1146.63 279.395 1159 281.203C1164.4 281.993 1169.58 273.318 1173 270.039C1184.03 259.477 1196.81 250.086 1210 242.424C1213.31 240.502 1224.47 236.525 1221.91 231.271C1216.98 221.143 1198.53 211.93 1189 206.694C1150.33 185.457 1107.82 187.206 1074 216.425C1065.2 224.031 1052.29 236.132 1050 248z"/>
<path style="fill:#1e1e1e; stroke:none;" d="M1124 193L1124 194L1127 194L1124 193z"/>
<path style="fill:#333333; stroke:none;" d="M1051 247C1073.76 247 1094.81 249.393 1116 258.427C1130.54 264.627 1146.61 277.254 1162 280C1176.2 259.836 1200.56 245.28 1222 234C1215.31 224.586 1203.71 217.47 1194 211.425C1142.82 179.562 1081.16 192.836 1051 247z"/>
<path style="fill:#1e1e1e; stroke:none;" d="M1145 193L1145 194L1148 194L1145 193M1119 194L1120 195L1119 194M1151.67 194.333L1152.33 194.667L1151.67 194.333M1114.67 195.333L1115.33 195.667L1114.67 195.333M1156.67 195.333L1157.33 195.667L1156.67 195.333M1111 196L1112 197L1111 196M1160 196L1161 197L1160 196M1108 197L1109 198L1108 197M1163 197L1164 198L1163 197M1105 198L1106 199L1105 198M1166 198L1167 199L1166 198M1169 199L1170 200L1169 199M1100 200L1101 201L1100 200M1172 200L1173 201L1172 200M1098 201L1099 202L1098 201M1174 201L1175 202L1174 201M1096 202L1097 203L1096 202M1094 203L1095 204L1094 203M1179 203L1180 204L1179 203M1092 204L1093 205L1092 204M1181 204L1182 205L1181 204M1183 205L1184 206L1183 205M1089 206L1090 207L1089 206M1185 206L1186 207L1185 206z"/>
<path style="fill:#030303; stroke:none;" d="M1636 264C1659.93 262.973 1681.87 266.358 1704 276.306C1716.45 281.904 1731.82 293.919 1744.99 296.442C1750.49 297.497 1755.6 289.361 1759 286.004C1769.98 275.153 1782.71 265.832 1796 258.011C1799.91 255.71 1810.9 252.098 1807.95 245.999C1803.65 237.083 1789.13 229.749 1781 224.684C1743.68 201.438 1697.65 199.354 1663 228.59C1653.21 236.853 1637.39 250.469 1636 264z"/>
<path style="fill:#1e1e1e; stroke:none;" d="M1720 207L1720 208L1725 208L1720 207M1086 208L1087 209L1086 208M1709 208L1710 209L1709 208z"/>
<path style="fill:#454545; stroke:none;" d="M1710 208L1710 209L1713 209L1710 208z"/>
<path style="fill:#333333; stroke:none;" d="M1638 262C1663.59 262 1686.76 266.168 1710.17 276.867C1718.91 280.864 1727.29 285.767 1736 289.889C1739.11 291.363 1743.24 295.015 1746.91 294.183C1751.82 293.07 1756.76 285.525 1760.17 282.089C1766.66 275.539 1774.71 270.062 1782.17 264.656C1789.42 259.402 1803.82 254.799 1808 247C1792.79 236.122 1779.48 224.228 1762 216.721C1725.65 201.111 1685.81 207.421 1657.91 236C1650.57 243.524 1641.4 251.749 1638 262z"/>
<path style="fill:#454545; stroke:none;" d="M1731 208L1731 209L1734 209L1731 208z"/>
<path style="fill:#1e1e1e; stroke:none;" d="M1190 209L1191 210L1190 209z"/>
<path style="fill:#454545; stroke:none;" d="M1705.67 209.333L1706.33 209.667L1705.67 209.333M1738.67 209.333L1739.33 209.667L1738.67 209.333z"/>
<path style="fill:#1e1e1e; stroke:none;" d="M1740 209L1741 210L1740 209M1192 210L1193 211L1192 210z"/>
<path style="fill:#454545; stroke:none;" d="M1700.67 210.333L1701.33 210.667L1700.67 210.333M1742.67 210.333L1743.33 210.667L1742.67 210.333z"/>
<path style="fill:#1e1e1e; stroke:none;" d="M1744 210L1745 211L1744 210M1082 211L1083 212L1082 211M1696 211L1697 212L1696 211z"/>
<path style="fill:#454545; stroke:none;" d="M1697 211L1698 212L1697 211M1746.67 211.333L1747.33 211.667L1746.67 211.333z"/>
<path style="fill:#1e1e1e; stroke:none;" d="M1081 212L1082 213L1081 212M1195 212L1196 213L1195 212M1693 212L1694 213L1693 212z"/>
<path style="fill:#454545; stroke:none;" d="M1694 212L1695 213L1694 212M1750 212L1751 213L1750 212M1691 213L1692 214L1691 213M1753 213L1754 214L1753 213z"/>
<path style="fill:#1e1e1e; stroke:none;" d="M1198 214L1199 215L1198 214z"/>
<path style="fill:#454545; stroke:none;" d="M1689 214L1690 215L1689 214M1755.67 214.333L1756.33 214.667L1755.67 214.333M1686 215L1687 216L1686 215M1758 215L1759 216L1758 215z"/>
<path style="fill:#1e1e1e; stroke:none;" d="M1759 215L1760 216L1759 215M1076 216L1077 217L1076 216M1201 216L1202 217L1201 216z"/>
<path style="fill:#454545; stroke:none;" d="M1684 216L1685 217L1684 216z"/>
<path style="fill:#1e1e1e; stroke:none;" d="M1075 217L1076 218L1075 217z"/>
<path style="fill:#454545; stroke:none;" d="M1682 217L1683 218L1682 217M1763 217L1764 218L1763 217z"/>
<path style="fill:#1e1e1e; stroke:none;" d="M1074 218L1075 219L1074 218M1204 218L1205 219L1204 218z"/>
<path style="fill:#454545; stroke:none;" d="M1680 218L1681 219L1680 218M1765 218L1766 219L1765 218z"/>
<path style="fill:#1e1e1e; stroke:none;" d="M1073 219L1074 220L1073 219M1205 219L1206 220L1205 219z"/>
<path style="fill:#454545; stroke:none;" d="M1767 219L1768 220L1767 219z"/>
<path style="fill:#1e1e1e; stroke:none;" d="M1072 220L1073 221L1072 220M1676 220L1677 221L1676 220z"/>
<path style="fill:#454545; stroke:none;" d="M1677 220L1678 221L1677 220M1769 220L1770 221L1769 220z"/>
<path style="fill:#1e1e1e; stroke:none;" d="M1071 221L1072 222L1071 221M1208 221L1209 222L1208 221z"/>
<path style="fill:#454545; stroke:none;" d="M1675 221L1676 222L1675 221M1771 221L1772 222L1771 221z"/>
<path style="fill:#1e1e1e; stroke:none;" d="M1070 222L1071 223L1070 222M1209 222L1210 223L1209 222M1673 222L1674 223L1673 222z"/>
<path style="fill:#454545; stroke:none;" d="M1773 222L1774 223L1773 222z"/>
<path style="fill:#1e1e1e; stroke:none;" d="M1069 223L1070 224L1069 223z"/>
<path style="fill:#454545; stroke:none;" d="M1672 223L1673 224L1672 223z"/>
<path style="fill:#1e1e1e; stroke:none;" d="M1068 224L1069 225L1068 224z"/>
<path style="fill:#454545; stroke:none;" d="M1671 224L1672 225L1671 224z"/>
<path style="fill:#1e1e1e; stroke:none;" d="M1777 224L1778 225L1777 224M1067 225L1068 226L1067 225M1213 225L1214 226L1213 225M1669 225L1670 226L1669 225z"/>
<path style="fill:#454545; stroke:none;" d="M1778 225L1779 226L1778 225z"/>
<path style="fill:#1e1e1e; stroke:none;" d="M1066 226L1067 227L1066 226M1214 226L1215 227L1214 226M1065 227L1066 228L1065 227z"/>
<path style="fill:#454545; stroke:none;" d="M1667 227L1668 228L1667 227M1781 227L1782 228L1781 227z"/>
<path style="fill:#1e1e1e; stroke:none;" d="M1782 227L1783 228L1782 227M1064 228L1065 229L1064 228z"/>
<path style="fill:#454545; stroke:none;" d="M1666 228L1667 229L1666 228M1783 228L1784 229L1783 228z"/>
<path style="fill:#1e1e1e; stroke:none;" d="M1664 229L1665 230L1664 229M1785 229L1786 230L1785 229M1663 230L1664 231L1663 230z"/>
<path style="fill:#454545; stroke:none;" d="M1786 230L1787 231L1786 230z"/>
<path style="fill:#1e1e1e; stroke:none;" d="M1220 231L1221 232L1220 231M1788 231L1789 232L1788 231M1221 232L1222 233L1221 232M1060 233L1061 234L1060 233z"/>
<path style="fill:#454545; stroke:none;" d="M1660 233L1661 234L1660 233M1790 233L1791 234L1790 233z"/>
<path style="fill:#1e1e1e; stroke:none;" d="M1059 234L1060 235L1059 234M1220 234L1221 235L1220 234z"/>
<path style="fill:#454545; stroke:none;" d="M1659 234L1660 235L1659 234z"/>
<path style="fill:#1e1e1e; stroke:none;" d="M1792 234L1793 235L1792 234z"/>
<path style="fill:#454545; stroke:none;" d="M1658 235L1659 236L1658 235M1793 235L1794 236L1793 235M1657 236L1658 237L1657 236M1794 236L1795 237L1794 236z"/>
<path style="fill:#1e1e1e; stroke:none;" d="M1215 237L1216 238L1215 237z"/>
<path style="fill:#454545; stroke:none;" d="M1656 237L1657 238L1656 237z"/>
<path style="fill:#1e1e1e; stroke:none;" d="M1796 237L1797 238L1796 237M1056 238L1057 239L1056 238M1213 238L1214 239L1213 238z"/>
<path style="fill:#454545; stroke:none;" d="M1655 238L1656 239L1655 238z"/>
<path style="fill:#1e1e1e; stroke:none;" d="M1211 239L1212 240L1211 239z"/>
<path style="fill:#454545; stroke:none;" d="M1654 239L1655 240L1654 239M1798 239L1799 240L1798 239M1653 240L1654 241L1653 240M1799 240L1800 241L1799 240z"/>
<path style="fill:#1e1e1e; stroke:none;" d="M1054 241L1055 242L1054 241M1206 242L1207 243L1206 242M1802 242L1803 243L1802 242M1204 243L1205 244L1204 243M1650 243L1651 244L1650 243M1052 244L1053 245L1052 244M1649 244L1650 245L1649 244z"/>
<path style="fill:#454545; stroke:none;" d="M1804 244L1805 245L1804 244z"/>
<path style="fill:#1e1e1e; stroke:none;" d="M1201 245L1202 246L1201 245z"/>
<path style="fill:#454545; stroke:none;" d="M1805 245L1806 246L1805 245M1648 246L1649 247L1648 246M1806 246L1807 247L1806 246z"/>
<path style="fill:#1e1e1e; stroke:none;" d="M1074.67 247.333L1075.33 247.667L1074.67 247.333M1198 247L1199 248L1198 247z"/>
<path style="fill:#454545; stroke:none;" d="M1647 247L1648 248L1647 247z"/>
<path style="fill:#1e1e1e; stroke:none;" d="M1081.67 248.333L1082.33 248.667L1081.67 248.333z"/>
<path style="fill:#454545; stroke:none;" d="M1646 248L1647 249L1646 248z"/>
<path style="fill:#1e1e1e; stroke:none;" d="M1086.67 249.333L1087.33 249.667L1086.67 249.333M1195 249L1196 250L1195 249M1807 249L1808 250L1807 249M1091 250L1092 251L1091 250M1194 250L1195 251L1194 250M1644 250L1645 251L1644 250M1095 251L1096 252L1095 251z"/>
<path style="fill:#454545; stroke:none;" d="M1803 251L1804 252L1803 251z"/>
<path style="fill:#1e1e1e; stroke:none;" d="M1099 252L1100 253L1099 252M1191 252L1192 253L1191 252z"/>
<path style="fill:#454545; stroke:none;" d="M1643 252L1644 253L1643 252M1801 252L1802 253L1801 252z"/>
<path style="fill:#1e1e1e; stroke:none;" d="M1102 253L1103 254L1102 253z"/>
<path style="fill:#454545; stroke:none;" d="M1642 253L1643 254L1642 253M1799 253L1800 254L1799 253z"/>
<path style="fill:#1e1e1e; stroke:none;" d="M1800 253L1801 254L1800 253M1105 254L1106 255L1105 254M1641 254L1642 255L1641 254M1798 254L1799 255L1798 254M1108 255L1109 256L1108 255M1187 255L1188 256L1187 255z"/>
<path style="fill:#454545; stroke:none;" d="M1641 255L1642 256L1641 255z"/>
<path style="fill:#1e1e1e; stroke:none;" d="M1111 256L1112 257L1111 256z"/>
<path style="fill:#454545; stroke:none;" d="M1640 256L1641 257L1640 256M1794 256L1795 257L1794 256z"/>
<path style="fill:#1e1e1e; stroke:none;" d="M1113 257L1114 258L1113 257M1639 257L1640 258L1639 257z"/>
<path style="fill:#454545; stroke:none;" d="M1792 257L1793 258L1792 257z"/>
<path style="fill:#1e1e1e; stroke:none;" d="M1793 257L1794 258L1793 257M1116 258L1117 259L1116 258M1183 258L1184 259L1183 258M1118 259L1119 260L1118 259M1182 259L1183 260L1182 259z"/>
<path style="fill:#454545; stroke:none;" d="M1638 259L1639 260L1638 259M1789 259L1790 260L1789 259z"/>
<path style="fill:#1e1e1e; stroke:none;" d="M1120 260L1121 261L1120 260M1788 260L1789 261L1788 260z"/>
<path style="fill:#454545; stroke:none;" d="M1637 261L1638 262L1637 261M1786 261L1787 262L1786 261z"/>
<path style="fill:#1e1e1e; stroke:none;" d="M1125 262L1126 263L1125 262M1637 262L1637 263L1640 263L1637 262M1657.67 262.333L1658.33 262.667L1657.67 262.333z"/>
<path style="fill:#454545; stroke:none;" d="M1660 262L1660 263L1663 263L1660 262z"/>
<path style="fill:#1e1e1e; stroke:none;" d="M1785 262L1786 263L1785 262M1127 263L1128 264L1127 263M1177 263L1178 264L1177 263z"/>
<path style="fill:#454545; stroke:none;" d="M1667.67 263.333L1668.33 263.667L1667.67 263.333M1783 263L1784 264L1783 263z"/>
<path style="fill:#1e1e1e; stroke:none;" d="M1129 264L1130 265L1129 264M1176 264L1177 265L1176 264z"/>
<path style="fill:#454545; stroke:none;" d="M1672.67 264.333L1673.33 264.667L1672.67 264.333z"/>
<path style="fill:#1e1e1e; stroke:none;" d="M1782 264L1783 265L1782 264M1131 265L1132 266L1131 265M1175 265L1176 266L1175 265M1676 265L1677 266L1676 265z"/>
<path style="fill:#454545; stroke:none;" d="M1677.67 265.333L1678.33 265.667L1677.67 265.333M1780 265L1781 266L1780 265z"/>
<path style="fill:#1e1e1e; stroke:none;" d="M1133 266L1134 267L1133 266M1680 266L1681 267L1680 266z"/>
<path style="fill:#454545; stroke:none;" d="M1681.67 266.333L1682.33 266.667L1681.67 266.333z"/>
<path style="fill:#1e1e1e; stroke:none;" d="M1135 267L1136 268L1135 267z"/>
<path style="fill:#454545; stroke:none;" d="M1685 267L1686 268L1685 267z"/>
<path style="fill:#1e1e1e; stroke:none;" d="M1778 267L1779 268L1778 267M1137 268L1138 269L1137 268M1687 268L1688 269L1687 268z"/>
<path style="fill:#454545; stroke:none;" d="M1688 268L1689 269L1688 268M1776 268L1777 269L1776 268z"/>
<path style="fill:#1e1e1e; stroke:none;" d="M1139 269L1140 270L1139 269z"/>
<path style="fill:#454545; stroke:none;" d="M1691 269L1692 270L1691 269z"/>
<path style="fill:#1e1e1e; stroke:none;" d="M1141 270L1142 271L1141 270M1693 270L1694 271L1693 270z"/>
<path style="fill:#454545; stroke:none;" d="M1694 270L1695 271L1694 270z"/>
<path style="fill:#1e1e1e; stroke:none;" d="M1774 270L1775 271L1774 270M1143 271L1144 272L1143 271M1696 271L1697 272L1696 271z"/>
<path style="fill:#454545; stroke:none;" d="M1697 271L1698 272L1697 271M1772 271L1773 272L1772 271z"/>
<path style="fill:#1e1e1e; stroke:none;" d="M1145 272L1146 273L1145 272z"/>
<path style="fill:#454545; stroke:none;" d="M1700 272L1701 273L1700 272z"/>
<path style="fill:#1e1e1e; stroke:none;" d="M1147 273L1148 274L1147 273M1701 273L1702 274L1701 273z"/>
<path style="fill:#454545; stroke:none;" d="M1702 273L1703 274L1702 273z"/>
<path style="fill:#1e1e1e; stroke:none;" d="M1770 273L1771 274L1770 273M1149 274L1150 275L1149 274z"/>
<path style="fill:#454545; stroke:none;" d="M1704 274L1705 275L1704 274M1768 274L1769 275L1768 274z"/>
<path style="fill:#1e1e1e; stroke:none;" d="M1151 275L1152 276L1151 275z"/>
<path style="fill:#454545; stroke:none;" d="M1707 275L1708 276L1707 275M1767 275L1768 276L1767 275z"/>
<path style="fill:#1e1e1e; stroke:none;" d="M1164 276L1165 277L1164 276M1708 276L1709 277L1708 276z"/>
<path style="fill:#454545; stroke:none;" d="M1709 276L1710 277L1709 276z"/>
<path style="fill:#1e1e1e; stroke:none;" d="M1163 277L1164 278L1163 277M1710 277L1711 278L1710 277z"/>
<path style="fill:#454545; stroke:none;" d="M1711 277L1712 278L1711 277z"/>
<path style="fill:#1e1e1e; stroke:none;" d="M1765 277L1766 278L1765 277M1156 278L1157 279L1156 278M1162 278L1163 279L1162 278z"/>
<path style="fill:#454545; stroke:none;" d="M1713 278L1714 279L1713 278z"/>
<path style="fill:#1e1e1e; stroke:none;" d="M1764 278L1765 279L1764 278M1158 279L1159 280L1158 279z"/>
<path style="fill:#454545; stroke:none;" d="M1715 279L1716 280L1715 279M1762 279L1763 280L1762 279z"/>
<path style="fill:#1e1e1e; stroke:none;" d="M1160 280L1161 281L1160 280z"/>
<path style="fill:#454545; stroke:none;" d="M1717 280L1718 281L1717 280M1761 280L1762 281L1761 280M1760 281L1761 282L1760 281M1759 282L1760 283L1759 282M1758 283L1759 284L1758 283M1753 288L1754 289L1753 288M1735 289L1736 290L1735 289M1752 289L1753 290L1752 289M1737 290L1738 291L1737 290M1751 290L1752 291L1751 290z"/>
<path style="fill:#1e1e1e; stroke:none;" d="M1738 291L1739 292L1738 291z"/>
<path style="fill:#454545; stroke:none;" d="M1739 291L1740 292L1739 291M1750 291L1751 292L1750 291z"/>
<path style="fill:#1e1e1e; stroke:none;" d="M1740 292L1741 293L1740 292z"/>
<path style="fill:#454545; stroke:none;" d="M1742 293L1743 294L1742 293M1744 294L1745 295L1744 294z"/>
<path style="fill:#1e1e1e; stroke:none;" d="M1748 294L1749 295L1748 294M1745 295L1746 296L1745 295z"/>
<path style="fill:#454545; stroke:none;" d="M1746 295L1747 296L1746 295z"/>
<path style="fill:#1e1e1e; stroke:none;" d="M1747 295L1748 296L1747 295z"/>
<path style="fill:#030303; stroke:none;" d="M957 498L957 499C965.557 498.999 971.568 496.846 979 492.572C981.965 490.867 986.231 486.791 989.829 488.748C1001.82 495.266 1008.48 525.697 1025 523.138C1034.97 521.595 1039.85 508.268 1035.35 500C1028.15 486.78 1014.87 477.617 1006.76 465C1001.7 457.125 1003.69 445.052 1000.64 436C996.455 423.553 984.449 413.267 981.419 401C979.695 394.02 983.079 386.842 984 380C996.721 385.385 1008.36 397.855 1019 406.576C1036.86 421.217 1055.72 434.557 1074 448.651C1083.77 456.18 1101.08 466.113 1106.97 477.089C1109.83 482.417 1108.31 493.215 1107.41 499C1104.43 518.149 1095.53 541.971 1075 548.377C1055.29 554.523 1028.53 550 1008 550C1015.64 553.206 1027.73 551 1036 551C1049.19 551 1066.59 553.863 1079 548.637C1099.94 539.815 1108.97 513.033 1109 492C1109.01 487.238 1110.17 480.578 1108.4 476.089C1105.52 468.831 1093.96 461.974 1088 457.2C1069.99 442.762 1051.29 429.203 1033 415.119C1021.16 406.002 1009.84 396.237 998 387.119C994.996 384.806 989.491 378.581 985.228 379.748C981.875 380.665 981.243 386.185 980.666 389C978.332 400.381 982.194 406.849 988.329 416C994.244 424.822 999.245 434.586 1001.57 445C1003.01 451.396 1001.77 459.114 1004.69 465C1011.85 479.461 1028.18 488.246 1034.86 503C1037.86 509.633 1033.2 515.792 1028 519.681C1022.23 523.995 1017.43 519.569 1013.61 514.996C1008.02 508.296 997.808 487.991 988.911 486.376C984.698 485.611 980.387 489.624 977 491.572C970.408 495.363 964.66 497.978 957 498z"/>
<path style="fill:#1e1e1e; stroke:none;" d="M984 380L985 381L984 380z"/>
<path style="fill:#333333; stroke:none;" d="M985 380C974.667 404.015 994.328 416.416 1001.25 438C1004.63 448.536 1002.24 459.927 1009.29 469C1016.69 478.526 1039.55 495.763 1037.48 509C1036.38 516.044 1027.82 525.938 1020 522.551C1006.3 516.618 1002.63 492.776 988.985 488.255C982.577 486.133 971.917 497.732 965 498.787C943.942 501.999 919.436 498 898 498C898.572 510.527 913.67 538.033 894.996 545.258C890.417 547.029 883.575 545.968 881.603 540.956C877.623 530.838 882.141 512.483 871.363 505.029C867.938 502.66 862.429 505.159 859 506.344C847.848 510.198 836.804 515.066 827 521.671C820.587 525.992 807.151 534.394 806.516 543C805.928 550.978 814.679 562.804 817.86 570C821.336 577.86 833.741 598.097 820.985 603.107C804.4 609.618 796.509 573.784 793 563L792 563C782.695 577.867 764.939 580.821 749 584.211C743.732 585.331 732.416 585.672 728.619 589.728C725.348 593.221 730.127 599.595 731.572 603C736.008 613.456 738.99 635.169 722 636.192C708.007 637.035 705.464 616.611 702.33 607C701.328 603.926 700.393 597.866 696.775 596.788C693.219 595.728 688.081 598.771 685 600.258C672.884 606.109 662.085 614.44 652 623.286C649.267 625.684 643.208 629.942 643.207 634C643.206 637.11 646.865 639.859 648.711 642C654.806 649.064 671.225 666.528 657.995 673.86C643.454 681.919 638.408 668.143 632.189 658C630.372 655.036 627.867 649.533 623.96 649.022C618.405 648.294 608.036 656.735 603 659.247C587.823 666.816 571.26 672.663 555 677.424C547.346 679.666 537.877 680.614 535 689C542.167 691.824 550.198 695.922 554.047 703C558.664 711.49 550.05 719.335 542 719.903C530.423 720.719 519.844 712.172 510 707.247C505.313 704.902 500.151 700.949 495 704.048C480.613 712.703 484.157 722.907 496.001 731.96C508.639 741.62 525.363 744.987 541 743.911C567.262 742.102 593.278 731.574 618 723.333C638.047 716.651 660.046 710.99 678 699.564C698.135 686.751 713.319 666.625 735 656.32C770.46 639.466 812.612 639.587 847 620.688C864.365 611.145 874.878 595.415 890 583.518C902.582 573.619 918.791 567.873 934 563.424C957.166 556.648 981.817 551.098 1006 550.039C1038.58 548.613 1082.02 560.334 1099.73 525C1105.63 513.229 1112.23 491.092 1107.4 478C1103.39 467.147 1084.94 456.763 1076 449.881C1058.06 436.063 1039.52 422.93 1022 408.576C1010.38 399.058 998.407 386.844 985 380z"/>
<path style="fill:#1e1e1e; stroke:none;" d="M986 380L987 381L986 380M983 383L984 384L983 383M990 383L991 384L990 383M991 384L992 385L991 384M982 387L983 388L982 387M995 387L996 388L995 387M999 390L1000 391L999 390M981.333 391.667L981.667 392.333L981.333 391.667M1000 391L1001 392L1000 391M1004 394L1005 395L1004 394z"/>
<path style="fill:#030303; stroke:none;" d="M1542 513L1542 514C1550.59 514 1556.39 512.27 1564 508.218C1566.88 506.686 1571.38 502.347 1574.83 503.907C1587.61 509.684 1592.91 540.785 1610 538.138C1620.12 536.57 1624.74 523.282 1620.2 515C1612.86 501.636 1597.5 492.637 1591.01 479C1588.9 474.554 1590.31 468.772 1589.83 464C1589.1 456.728 1586.74 449.604 1583.69 443C1579.38 433.659 1569.59 424.986 1567.39 415C1565.97 408.53 1569.05 401.086 1571 395L1608 423.8L1695 492C1690.38 482.302 1677.31 474.589 1669 468.003C1647.56 451.005 1625.06 435.398 1604 417.919C1596.47 411.672 1582.84 396.175 1573.05 394.662C1567.62 393.821 1566.57 404.31 1566.17 408C1564.43 424.253 1580.21 437.255 1585.56 452C1590.66 466.031 1586.5 478.334 1597.07 490C1604.43 498.11 1627.32 516.98 1618.57 529C1604.85 547.84 1591.5 520.812 1583 510C1580.88 507.305 1578.44 502.708 1574.91 501.711C1570.84 500.561 1566.3 504.876 1563 506.688C1555.94 510.567 1550.09 512.995 1542 513z"/>
<path style="fill:#1e1e1e; stroke:none;" d="M1005 395L1006 396L1005 395z"/>
<path style="fill:#333333; stroke:none;" d="M1571 395C1569.06 401.076 1566.18 408.537 1567.34 415C1569.69 427.983 1583.01 439.06 1587.25 452C1590.14 460.819 1587.9 474.405 1592.6 482C1600.46 494.692 1618.49 505.056 1622.31 520C1624.53 528.682 1612.91 542.323 1604 537.138C1592.4 530.383 1582.74 512.769 1575 502C1566.18 505.342 1558.85 513.392 1549 513.957C1533.72 514.833 1518.31 513 1503 513C1498.11 513 1489.77 511.399 1485.32 513.603C1482.03 515.234 1483.7 519.407 1484.59 522C1487.32 529.911 1489.95 538.537 1488.7 547C1487.43 555.57 1475.61 568.142 1467.6 557.772C1464.77 554.098 1465.53 546.507 1464.75 542C1463.26 533.458 1460.37 525.486 1456 518C1437.65 523.972 1420.03 530.403 1405 542.921C1400.24 546.887 1391.98 553.069 1392.24 560C1392.71 572.21 1404.27 586.549 1408.57 598C1410.35 602.714 1413.51 610.204 1410.25 614.867C1406.33 620.494 1397.67 619.892 1393.64 614.891C1386.48 606.017 1381.54 590.995 1379 580L1360 592.547L1311 605C1313.95 615.234 1321.88 624.728 1320.34 636C1318.76 647.658 1307.13 656.911 1297.21 646.811C1288.36 637.793 1288.75 621.912 1283 611C1261.12 616.198 1242.42 633.585 1227 649L1227 650C1234.75 657.772 1246.08 668.698 1248.3 680C1250.16 689.419 1234.37 693.636 1228.04 689.397C1220.88 684.598 1215.18 670.51 1211 663C1188.23 671.337 1167.48 684.153 1144 691.656C1135.7 694.308 1123.19 694.717 1120 704C1127.17 706.824 1135.2 710.922 1139.05 718C1143.66 726.49 1135.05 734.335 1127 734.903C1111.92 735.965 1093.51 712.54 1080 720.232C1066.23 728.075 1071.05 737.093 1081 745.815C1093.27 756.571 1111.14 760.003 1127 758.911C1155.79 756.927 1185.07 745.278 1212 735.692C1229.61 729.424 1248.01 724.532 1264 714.575C1285.37 701.27 1301.15 681.313 1324 670.258C1358.4 653.615 1399.45 654.123 1433 635.688C1450.37 626.142 1460.88 610.569 1476 598.669C1488.27 589.01 1504.18 583.184 1519 578.72C1551.5 568.932 1584.2 565 1618 565C1643.84 565 1669.46 568.437 1684.55 543C1691.56 531.177 1698.92 505.732 1693.4 492.17C1689.15 481.74 1670.76 471.403 1662 464.651C1643.73 450.569 1624.85 437.196 1607 422.576C1595.96 413.533 1584.07 400.826 1571 395z"/>
<path style="fill:#1e1e1e; stroke:none;" d="M1570 396L1571 397L1570 396M1575 397L1576 398L1575 397M1009 398L1010 399L1009 398M1576 398L1577 399L1576 398M1010 399L1011 400L1010 399M1569 399L1570 400L1569 399M1580 401L1581 402L1580 401M981 402L982 403L981 402M1014 402L1015 403L1014 402M1015 403L1016 404L1015 403M1568 403L1569 404L1568 403M982 404L983 405L982 404M1584 404L1585 405L1584 404M1585 405L1586 406L1585 405M984 407L985 408L984 407M1020 407L1021 408L1020 407M1567.33 407.667L1567.67 408.333L1567.33 407.667M1021 408L1022 409L1021 408M1589 408L1590 409L1589 408M1590 409L1591 410L1590 409M986 410L987 411L986 410M987 411L988 412L987 411M1025 411L1026 412L1025 411M1026 412L1027 413L1026 412M1594 412L1595 413L1594 412M1595 413L1596 414L1595 413M989 414L990 415L989 414M1030 415L1031 416L1030 415M1567 416L1568 417L1567 416M1599 416L1600 417L1599 416M991 417L992 418L991 417M1600 417L1601 418L1600 417M1034 418L1035 419L1034 418M992 419L993 420L992 419M1035 419L1036 420L1035 419M1569 420L1570 421L1569 420M1605 421L1606 422L1605 421M994 422L995 423L994 422M1039 422L1040 423L1039 422M1606 422L1607 423L1606 422M1571 423L1572 424L1571 423M995 424L996 425L995 424M1043 425L1044 426L1043 425M1610 425L1611 426L1610 425M996 426L997 427L996 426M1573 426L1574 427L1573 426M1611 426L1612 427L1611 426M997 428L998 429L997 428M1047 428L1048 429L1047 428M1615 429L1616 430L1615 429M998 430L999 431L998 430M1576 430L1577 431L1576 430M1051 431L1052 432L1051 431M1619 432L1620 433L1619 432M1620 433L1621 434L1620 433M1055 434L1056 435L1055 434M1000 435L1001 436L1000 435M1579 435L1580 436L1579 435M1624 436L1625 437L1624 436M1059 437L1060 438L1059 437M1001 438L1002 439L1001 438M1628 439L1629 440L1628 439M1063 440L1064 441L1063 440M1002 442L1003 443L1002 442M1583 442L1584 443L1583 442M1632 442L1633 443L1632 442M1067 443L1068 444L1067 443M1636 445L1637 446L1636 445M1003.33 446.667L1003.67 447.333L1003.33 446.667M1071 446L1072 447L1071 446M1072 447L1073 448L1072 447M1585 447L1586 448L1585 447M1640 448L1641 449L1640 448M1075 449L1076 450L1075 449M1586 449L1587 450L1586 449M1076 450L1077 451L1076 450M1644 451L1645 452L1644 451M1587 452L1588 453L1587 452M1080 453L1081 454L1080 453M1081 454L1082 455L1081 454M1648 454L1649 455L1648 454M1588 456L1589 457L1588 456M1085 457L1086 458L1085 457M1652 457L1653 458L1652 457M1086 458L1087 459L1086 458M1653 458L1654 459L1653 458M1004.33 460.667L1004.67 461.333L1004.33 460.667M1589.33 460.667L1589.67 461.333L1589.33 460.667M1656 460L1657 461L1656 460M1090 461L1091 462L1090 461M1657 461L1658 462L1657 461M1091 462L1092 463L1091 462M1005 463L1006 464L1005 463M1661 464L1662 465L1661 464M1007 466L1008 467L1007 466M1097 467L1098 468L1097 467M1665 467L1666 468L1665 467M1098 468L1099 469L1098 468M1666 468L1667 469L1666 468M1099 469L1100 470L1099 469M1590 469L1590 480L1591 480L1590 469M1010 470L1011 471L1010 470M1011 471L1012 472L1011 471M1670 471L1671 472L1670 471M1012 472L1013 473L1012 472M1671 472L1672 473L1671 472M1105 474L1106 475L1105 474M1106 475L1107 476L1106 475M1675 475L1676 476L1675 475M1107 476L1108 477L1107 476M1676 476L1677 477L1676 476M1016 477L1017 478L1016 477M1017 478L1018 479L1017 478M1018 479L1019 480L1018 479M1681 480L1682 481L1681 480M1682 481L1683 482L1682 481M1683 482L1684 483L1683 482M1595 485L1596 486L1595 485M1024 486L1025 487L1024 486M1596 486L1597 487L1596 486M986 487L987 488L986 487M989 487L990 488L989 487M1025 487L1026 488L1025 487M1597 487L1598 488L1597 487M1689 487L1690 488L1689 487M990 488L991 489L990 488M1026 488L1027 489L1026 488M1690 488L1691 489L1690 488M991 489L992 490L991 489M1691 489L1692 490L1691 489M982 490L983 491L982 490M980 491L981 492L980 491M1694 492L1694 502L1695 502L1694 492M994 493L995 494L994 493M1030 493L1031 494L1030 493M975 494L976 495L975 494M995 494L996 495L995 494M1603 494L1604 495L1603 494M973 495L974 496L973 495M1604 495L1605 496L1604 495M971 496L972 497L971 496M1107 496L1107 499L1108 499L1107 496z"/>
<path style="fill:#030303; stroke:none;" d="M700 595C682.949 595.143 667.531 608.342 655 618.614C650.866 622.003 644.351 626.038 642.047 631.004C636.906 642.087 673.995 661.468 657.952 671.995C636.742 685.912 639.338 650.059 624.826 646.828C619.287 645.594 608.987 654.819 604 657.216C588.388 664.721 571.648 671.065 555 675.859C547.002 678.162 536.99 679.235 534 688L535 688C541.642 678.511 554.614 678.001 565 674.308C585.805 666.91 606.571 659.422 625 647C628.412 653.858 636.033 670.766 642.39 674.821C648.078 678.449 662.048 675.203 663.473 667.985C666.306 653.628 643.886 645.753 643.461 634C643.28 628.98 651.616 624.046 655 621.25C667.19 611.177 682.495 597.45 699 596C700.765 606.258 704.917 624.242 712.213 631.891C719.549 639.583 731.383 635.768 734.211 626C736.638 617.615 734.182 608.659 730.691 601C729.12 597.554 725.8 592.886 729.333 589.564C734.401 584.799 746.443 584.851 753 583.349C769.38 579.595 781.663 575.976 793 563C796.718 574.427 800.451 591.652 808.637 600.721C812.825 605.361 823.234 605.227 825.837 598.892C827.973 593.694 825.075 586.874 823.189 582C818.489 569.855 808.802 556.927 806.472 544.17C805.506 538.877 813.643 533.244 817 530.039C828.843 518.734 850.162 505.476 866.996 504.047C872.624 503.569 874.664 509.715 876.396 514C880.611 524.426 877.575 552.884 895.957 544.991C911.795 538.19 900.561 509.945 897 499C915.119 494.686 937.384 498 956 498C944.306 493.093 923.729 497 911 497C907.681 497 898.219 495.358 896.697 499.318C895.508 502.411 898.039 507.09 898.999 510C902.175 519.625 907.149 541.837 891.999 544.566C887.31 545.41 883.096 542.676 882.228 537.995C880.359 527.914 881.805 510.954 872.606 503.607C867.9 499.848 858.743 504.786 854 506.576C836.694 513.108 817.528 522.347 806.576 538C803.021 543.082 805.861 548.031 808.258 553C813.168 563.175 818.109 573.457 822.189 584C824.296 589.445 827.728 597.876 820.894 601.424C807.808 608.218 801.082 581.26 798.053 573C797.132 570.488 796.082 563.45 792.812 562.921C788.946 562.296 782.358 571.494 779 573.521C768.266 580 754.104 581.779 742 584.2C737.797 585.04 729.572 585.323 727.029 589.303C724.516 593.234 727.509 598.428 729.245 602C732.373 608.436 735.146 615.741 733.471 623C731.086 633.335 721.025 638.601 713.213 629.956C705.718 621.663 702.899 605.622 700 595z"/>
<path style="fill:#1e1e1e; stroke:none;" d="M969 497L970 498L969 497M997 497L998 498L997 497M1033 497L1034 498L1033 497M944 498L944 499L957 499L944 498M967 498L968 499L967 498M998 498L999 499L998 498M1034 498L1035 499L1034 498M897.333 499.667L897.667 500.333L897.333 499.667M1608 500L1609 501L1608 500M1036 501L1037 502L1036 501M1609 501L1610 502L1609 501M1001 502L1002 503L1001 502M1572 502L1573 503L1572 502M1610 502L1611 503L1610 502z"/>
<path style="fill:#030303; stroke:none;" d="M1694 502C1694 510.207 1693.63 518.067 1691.28 526C1686.83 540.993 1678.14 556.417 1663 562.648C1655.22 565.848 1646.22 565 1638 565L1594 565L1594 566L1639 566C1647.43 566 1657.01 566.908 1665 563.647C1679.44 557.752 1687.57 543.217 1691.97 529C1694.35 521.333 1697.23 509.69 1694 502z"/>
<path style="fill:#1e1e1e; stroke:none;" d="M868 503L868 504L871 504L868 503M898 503L899 504L898 503M1571 503L1572 504L1571 503M864 504L865 505L864 504M1037 504L1037 510L1038 510L1037 504M1106 504L1107 505L1106 504M1576 504L1577 505L1576 504M861 505L862 506L861 505M872 505L873 506L872 505M1568 505L1569 506L1568 505M858 506L859 507L858 506M899 506L900 507L899 506M1004 506L1005 507L1004 506M1613 506L1614 507L1613 506M855 507L856 508L855 507M873 507L874 508L873 507M1005 507L1006 508L1005 507M1565 507L1566 508L1565 507M1614 507L1615 508L1614 507M853 508L854 509L853 508M1563 508L1564 509L1563 508M1579 508L1580 509L1579 508M850 509L851 510L850 509M874 509L875 510L874 509M900 509L901 510L900 509M1105 509L1106 510L1105 509M1561 509L1562 510L1561 509M1580 509L1581 510L1580 509M848 510L849 511L848 510M1559 510L1560 511L1559 510M845 511L846 512L845 511M875 511L876 512L875 511M1008 511L1009 512L1008 511M1557 511L1558 512L1557 511M843 512L844 513L843 512M901 512L902 513L901 512M1104 512L1105 513L1104 512z"/>
<path style="fill:#030303; stroke:none;" d="M1310 603C1310.69 616.367 1329.1 637.195 1311.96 647.991C1296.12 657.964 1290.98 628.011 1288 619C1287.11 616.297 1286.34 611.617 1283.58 610.132C1279.18 607.763 1269.84 614.272 1266 616.258C1254.73 622.091 1244.15 630.285 1235 639.039C1232.39 641.535 1227.42 645.155 1226.92 649C1226.48 652.368 1230.16 655.717 1232.16 658C1238.79 665.603 1255.72 683.094 1239 688.891C1221.01 695.128 1223.54 666.507 1210.82 662.711C1205.2 661.036 1194.99 669.857 1190 672.219C1173.63 679.971 1156.38 686.491 1139 691.576C1131.1 693.885 1122 694.2 1119 703L1120 703C1125.86 694.01 1138.32 693.486 1148 690.33C1170.23 683.084 1189.77 672.148 1211 663C1214.27 669.918 1221.39 686.097 1228.1 689.821C1234.12 693.155 1248.12 690.081 1248.59 681.996C1249.32 669.33 1233.02 657.624 1227 648L1250 628.887L1283 610C1287.15 620.759 1288.53 637.263 1296.22 645.956C1304.34 655.119 1317.61 650.748 1319.67 639C1321.97 625.903 1314.28 615.977 1311 604C1335.38 602.009 1359.89 594.559 1379 580C1381.62 591.345 1390.55 626.699 1407.78 617.347C1413.78 614.088 1411.03 605.026 1409.3 600C1405.59 589.22 1400.04 579.324 1395.31 569C1393.24 564.476 1390.71 559.675 1393.69 555C1403.27 539.971 1423.67 529.127 1440 523.344C1443.86 521.977 1452.58 516.786 1456.36 519.697C1468.65 529.15 1458.36 565.378 1479 560.606C1492.39 557.508 1489.08 536.433 1486.28 527C1485.4 524.042 1481.62 517.445 1483.81 514.603C1486.2 511.508 1494.56 513 1498 513L1540 513C1528.31 508.093 1507.73 512 1495 512C1491.8 512 1483.17 510.477 1481.7 514.318C1480.51 517.411 1483.04 522.09 1484 525C1487.18 534.625 1492.15 556.837 1477 559.566C1472.81 560.32 1468.62 558.158 1467.43 553.982C1464.38 543.236 1467.18 527.299 1458.03 518.607C1454.11 514.882 1444.23 520.187 1440 521.692C1423.08 527.72 1403.07 537.724 1392.65 553C1385.15 564.003 1402.57 587.234 1406.8 598C1408.86 603.256 1412.94 611.842 1406.77 615.911C1393.75 624.51 1386.45 597.006 1383.43 589C1382.47 586.473 1381.42 579.638 1377.81 579.636C1373.07 579.633 1365.18 588.946 1360 590.935C1344.47 596.9 1326.47 600.782 1310 603z"/>
<path style="fill:#1e1e1e; stroke:none;" d="M1555 512L1556 513L1555 512M1618 512L1619 513L1618 512M841 513L842 514L841 513M1036 513L1037 514L1036 513M1483 513L1484 514L1483 513M1527 513L1527 514L1542 514L1527 513M1553 513L1554 514L1553 513M1583 513L1584 514L1583 513M1693 513L1693 516L1694 516L1693 513M839 514L840 515L839 514M876 514L877 515L876 514M1482 514L1482 517L1483 517L1482 514M837 515L838 516L837 515M1011 515L1012 516L1011 515M1620 515L1621 516L1620 515M835 516L836 517L835 516M877 516L878 517L877 516M902 516L903 517L902 516M1012 516L1013 517L1012 516M1034 516L1035 517L1034 516M1103 516L1104 517L1103 516M1033 517L1034 518L1033 517M1586 517L1587 518L1586 517M1032 518L1033 519L1032 518M1102 518L1103 519L1102 518M1453.67 518.333L1454.33 518.667L1453.67 518.333M1456 518L1457 519L1456 518M830 519L831 520L830 519M878 519L879 520L878 519M1031 519L1032 520L1031 519M1450.67 519.333L1451.33 519.667L1450.67 519.333M1622 519L1622 525L1623 525L1622 519M1030 520L1031 521L1030 520M1447.67 520.333L1448.33 520.667L1447.67 520.333M1457 520L1458 521L1457 520M1692.33 520.667L1692.67 521.333L1692.33 520.667M827 521L828 522L827 521M903 521L903 525L904 525L903 521M1101 521L1102 522L1101 521M1445 521L1446 522L1445 521M1484 521L1485 522L1484 521M1589 521L1590 522L1589 521M1018 522L1019 523L1018 522M1442 522L1443 523L1442 522M1458 522L1459 523L1458 522M1590 522L1591 523L1590 522M824 523L825 524L824 523M879 523L880 524L879 523M1022.67 523.333L1023.33 523.667L1022.67 523.333M1025 523L1026 524L1025 523M1100 523L1101 524L1100 523M1439 523L1440 524L1439 523M1436 524L1437 525L1436 524M1459 524L1460 525L1459 524M1485 524L1486 525L1485 524M1099 525L1100 526L1099 525M1434 525L1435 526L1434 525M1691 525L1692 526L1691 525M820 526L821 527L820 526M1432 526L1433 527L1432 526M1460 526L1461 527L1460 526M1593 526L1594 527L1593 526M819 527L820 528L819 527M1098 527L1099 528L1098 527M1486 527L1487 528L1486 527M880 528L880 531L881 531L880 528M1427 528L1428 529L1427 528M1621 528L1622 529L1621 528M1690 528L1691 529L1690 528M1425 529L1426 530L1425 529M1461 529L1462 530L1461 529M1096 530L1097 531L1096 530M1423 530L1424 531L1423 530M1596 530L1597 531L1596 530M903 531L903 534L904 534L903 531M1487 531L1488 532L1487 531M1597 531L1598 532L1597 531M1619 531L1620 532L1619 531M1689 531L1690 532L1689 531M1462 532L1463 533L1462 532M1618 532L1619 533L1618 532M1094 533L1095 534L1094 533M1418 533L1419 534L1418 533M1617 533L1618 534L1617 533M1616 534L1617 535L1616 534M1688 534L1689 535L1688 534M1463 535L1464 536L1463 535M1615 535L1616 536L1615 535M1413 536L1414 537L1413 536M1488 536L1488 540L1489 540L1488 536M902 537L903 538L902 537M1091 537L1092 538L1091 537M1603 537L1604 538L1603 537M808 538L809 539L808 538M1090 538L1091 539L1090 538M1606 538L1606 539L1609 539L1606 538M1610 538L1611 539L1610 538M807 539L808 540L807 539M901 539L902 540L901 539M1089 539L1090 540L1089 539M1409 539L1410 540L1409 539M1464.33 539.667L1464.67 540.333L1464.33 539.667M806 540L807 541L806 540M1088 540L1089 541L1088 540M900 541L901 542L900 541M805 542L806 543L805 542M881 542L882 543L881 542M1405 542L1406 543L1405 542M1084 543L1085 544L1084 543M1404 543L1405 544L1404 543M897 544L898 545L897 544M1403 544L1404 545L1403 544M1465 544L1465 547L1466 547L1465 544M1683 544L1684 545L1683 544M885 545L886 546L885 545M895 545L896 546L895 545M1081 545L1082 546L1081 545M1079 546L1080 547L1079 546M1488 546L1488 549L1489 549L1488 546M807 547L808 548L807 547M1077 547L1078 548L1077 547M1681 547L1682 548L1681 547M1074.67 548.333L1075.33 548.667L1074.67 548.333M808 549L809 550L808 549M1061 549L1061 550L1070 550L1061 549M1001 550L1001 551L1008 551L1001 550M809 551L810 552L809 551M991.667 551.333L992.333 551.667L991.667 551.333z"/>
<path style="fill:#030303; stroke:none;" d="M534 689L534 690C540.721 693.186 548.156 696.377 552.258 703.001C557.607 711.637 548.084 718.713 540 718.656C524.917 718.55 514.474 702.559 500 701.257C493.621 700.683 481.371 710.101 482.478 717C483.614 724.088 491.464 730.967 497 734.779C514.68 746.955 536.837 746.632 557 742.6C587.051 736.591 616.166 725.989 645 715.692C659.45 710.532 673.509 705.269 686 696.115C703.923 682.979 718.527 665.683 739 656.309C773.198 640.65 814.116 640.853 847 622.561C866.312 611.818 878.047 593.267 896 581.356C925.69 561.657 971.714 552 1007 552C996.067 547.412 977.223 553.556 966 555.8C941.323 560.735 914.12 566.621 893 581.029C877.244 591.777 866.402 608.12 850 618.564C816.593 639.835 772.756 638.925 737 655.309C713.236 666.197 697.344 687.837 675 700.989C644.178 719.131 604.36 729.134 570 738.575C547.253 744.825 522.082 747.905 501 735.073C495.628 731.803 480.487 720.515 485.426 713.015C487.92 709.227 495.108 702.367 500 702.866C515.137 704.409 525.477 721.202 542 719.812C551.49 719.013 559.098 710.338 553.258 701.004C549.163 694.459 541.144 690.954 534 689z"/>
<path style="fill:#1e1e1e; stroke:none;" d="M1396 551L1397 552L1396 551M1678 551L1679 552L1678 551M983 552L983 553L986 553L983 552M1395 552L1396 553L1395 552M1487 552L1488 553L1487 552M1677 552L1678 553L1677 552M977.667 553.333L978.333 553.667L977.667 553.333M1394 553L1395 554L1394 553M1676 553L1677 554L1676 553M971.667 554.333L972.333 554.667L971.667 554.333M1393 554L1394 555L1393 554M1486 554L1487 555L1486 554M1675 554L1676 555L1675 554M966.667 555.333L967.333 555.667L966.667 555.333M1674 555L1675 556L1674 555M961.667 556.333L962.333 556.667L961.667 556.333M1485 556L1486 557L1485 556M1673 556L1674 557L1673 556M956.667 557.333L957.333 557.667L956.667 557.333M1466 557L1467 558L1466 557M812 558L813 559L812 558M952 558L953 559L952 558M1391.33 558.667L1391.67 559.333L1391.33 558.667M948 559L949 560L948 559M1482 559L1483 560L1482 559M1669 559L1670 560L1669 559M813 560L814 561L813 560M944 560L945 561L944 560M1470 560L1471 561L1470 560M1480 560L1481 561L1480 560M1667 560L1668 561L1667 560M940 561L941 562L940 561M814 562L815 563L814 562M937 562L938 563L937 562M1392 562L1393 563L1392 562M933 563L934 564L933 563M1661 563L1662 564L1661 563M791 564L792 565L791 564M793 564L794 565L793 564M815 564L816 565L815 564M930 564L931 565L930 564M1647 564L1647 565L1656 565L1647 564M790 565L791 566L790 565M927 565L928 566L927 565M1587 565L1587 566L1594 566L1587 565M816 566L817 567L816 566M924 566L925 567L924 566M1577.67 566.333L1578.33 566.667L1577.67 566.333z"/>
<path style="fill:#030303; stroke:none;" d="M1119 704L1119 705C1125.72 708.186 1133.16 711.377 1137.26 718.001C1142.37 726.252 1133.82 733.165 1126 733.62C1110.97 734.496 1100.47 718.2 1086 717.228C1079.73 716.808 1067.26 724.905 1068.7 732.001C1070.24 739.632 1077.92 746.161 1084 750.251C1101.57 762.063 1123.12 761.336 1143 757.611C1173.26 751.942 1203.19 741.195 1232 730.424C1247.43 724.655 1261.67 719.086 1275 709.105C1291.11 697.044 1304.46 680.862 1323 672.309C1358.09 656.118 1400.45 656.264 1434 637.127C1452.45 626.6 1463.85 608.764 1481 597.093C1510.73 576.868 1557.42 567 1593 567C1582.07 562.415 1563.25 568.634 1552 570.803C1527.27 575.573 1498.76 581.747 1478 596.786C1462.84 607.768 1452.02 623.234 1436 633.655C1402.84 655.228 1357.99 654.906 1322 670.862C1298.06 681.478 1281.45 704.046 1259 717.396C1230.24 734.496 1192.05 743.438 1160 752.573C1136.39 759.302 1108.92 763.963 1087 749.91C1082.14 746.795 1067.51 736.286 1070.88 729.089C1072.91 724.753 1081.05 718.388 1086 718.743C1100.79 719.805 1111.02 736.369 1127 734.823C1136.44 733.909 1144.14 725.408 1138.26 716.004C1134.16 709.459 1126.14 705.954 1119 704z"/>
<path style="fill:#1e1e1e; stroke:none;" d="M794 567L795 568L794 567M921 567L922 568L921 567M1394 567L1395 568L1394 567M1570.67 567.333L1571.33 567.667L1570.67 567.333M788 568L789 569L788 568M918 568L919 569L918 568M1564.67 568.333L1565.33 568.667L1564.67 568.333M787 569L788 570L787 569M916 569L917 570L916 569M1395 569L1396 570L1395 569M1558.67 569.333L1559.33 569.667L1558.67 569.333M786 570L787 571L786 570M795 570L796 571L795 570M913 570L914 571L913 570M1552.67 570.333L1553.33 570.667L1552.67 570.333M785 571L786 572L785 571M911 571L912 572L911 571M1396 571L1397 572L1396 571M1547.67 571.333L1548.33 571.667L1547.67 571.333M1543 572L1544 573L1543 572M782 573L783 574L782 573M796 573L797 574L796 573M819 573L820 574L819 573M906 573L907 574L906 573M1397 573L1398 574L1397 573M1538.67 573.333L1539.33 573.667L1538.67 573.333M904 574L905 575L904 574M1534 574L1535 575L1534 574M820 575L821 576L820 575M902 575L903 576L902 575M1398 575L1399 576L1398 575M1530 575L1531 576L1530 575M900 576L901 577L900 576M1526.67 576.333L1527.33 576.667L1526.67 576.333M774 577L775 578L774 577M1399 577L1400 578L1399 577M1523 577L1524 578L1523 577M771 578L772 579L771 578M798 578L799 579L798 578M1519.67 578.333L1520.33 578.667L1519.67 578.333M768 579L769 580L768 579M895 579L896 580L895 579M1400 579L1401 580L1400 579M1516 579L1517 580L1516 579M764.667 580.333L765.333 580.667L764.667 580.333M822 580L823 581L822 580M1377 580L1378 581L1377 580M1513 580L1514 581L1513 580M760.667 581.333L761.333 581.667L760.667 581.333M799 581L800 582L799 581M892 581L893 582L892 581M1376 581L1377 582L1376 581M1401 581L1402 582L1401 581M1510 581L1511 582L1510 581M756.667 582.333L757.333 582.667L756.667 582.333M1375 582L1376 583L1375 582M1379 582L1380 583L1379 582M1507 582L1508 583L1507 582M752 583L753 584L752 583M800 583L801 584L800 583M889 583L890 584L889 583M747 584L748 585L747 584M888 584L889 585L888 584M1502 584L1503 585L1502 584M742.667 585.333L743.333 585.667L742.667 585.333M824 585L825 586L824 585M1380 585L1381 586L1380 585M1499 585L1500 586L1499 585M737.667 586.333L738.333 586.667L737.667 586.333M801 586L802 587L801 586M1497 586L1498 587L1497 586M733 587L734 588L733 587M1370 587L1371 588L1370 587M1495 587L1496 588L1495 587M729 588L730 589L729 588M802 588L803 589L802 588M825 588L826 589L825 588M1381 588L1382 589L1381 588M1404 588L1405 589L1404 588M803 590L804 591L803 590M1405 590L1406 591L1405 590M1488 590L1489 591L1488 590M881 591L882 592L881 591M1362 591L1363 592L1362 591M826.333 592.667L826.667 593.333L826.333 592.667M880 592L881 593L880 592M1360 592L1361 593L1360 592M1406 592L1407 593L1406 592M879 593L880 594L879 593M1357 593L1358 594L1357 593M1383 593L1384 594L1383 593M1483 593L1484 594L1483 593M727 594L728 595L727 594M1354 594L1355 595L1354 594M1481 594L1482 595L1481 594M805 595L806 596L805 595M1350.67 595.333L1351.33 595.667L1350.67 595.333M1407 595L1408 596L1407 595M694 596L695 597L694 596M698 596L699 597L698 596M728 596L729 597L728 596M1347 596L1348 597L1347 596M1384 596L1385 597L1384 596M1478 596L1479 597L1478 596M691 597L692 598L691 597M806 597L807 598L806 597M826.333 597.667L826.667 598.333L826.333 597.667M1342.67 597.333L1343.33 597.667L1342.67 597.333M1408 597L1409 598L1408 597M729 598L730 599L729 598M1338 598L1339 599L1338 598M1385 598L1386 599L1385 598M807 599L808 600L807 599M1333.67 599.333L1334.33 599.667L1333.67 599.333M1474 599L1475 600L1474 599M684 600L685 601L684 600M730 600L731 601L730 600M825 600L826 601L825 600M1329 600L1330 601L1329 600M1409 600L1410 601L1409 600M1473 600L1474 601L1473 600M682 601L683 602L682 601M700 601L701 602L700 601M1324.67 601.333L1325.33 601.667L1324.67 601.333M1472 601L1473 602L1472 601M731 602L732 603L731 602M823 602L824 603L823 602M1319.67 602.333L1320.33 602.667L1319.67 602.333M1471 602L1472 603L1471 602M812 603L813 604L812 603M820 603L821 604L820 603M1315 603L1316 604L1315 603M1387 603L1388 604L1387 603M1410 603L1411 604L1410 603M1470 603L1471 604L1470 603M701 604L702 605L701 604M1311 604L1312 605L1311 604M1469 604L1470 605L1469 604M675 605L676 606L675 605M732 605L733 606L732 605M867 605L868 606L867 605M1388 605L1389 606L1388 605M1468 605L1469 606L1468 605M866 606L867 607L866 606M1467 606L1468 607L1467 606M672 607L673 608L672 607M702 607L703 608L702 607M733 607L734 608L733 607M1389 607L1390 608L1389 607M1411.33 608.667L1411.67 609.333L1411.33 608.667M669 609L670 610L669 609M703 610L704 611L703 610M861 610L862 611L861 610M1282 610L1283 611L1282 610M734 611L735 612L734 611M1280 611L1281 612L1280 611M1283 611L1284 612L1283 611M1313 611L1314 612L1313 611M665 612L666 613L665 612M1277 612L1278 613L1277 612M1411.33 612.667L1411.67 613.333L1411.33 612.667M1462 612L1463 613L1462 612M664 613L665 614L664 613M857 613L858 614L857 613M1275 613L1276 614L1275 613M1284 613L1285 614L1284 613M1314 613L1315 614L1314 613M1461 613L1462 614L1461 613M704 614L705 615L704 614M1273 614L1274 615L1273 614M1460 614L1461 615L1460 614M1315 615L1316 616L1315 615M1410 615L1411 616L1410 615M1459 615L1460 616L1459 615M660 616L661 617L660 616M735 616L735 621L736 621L735 616M853 616L854 617L853 616M1285 616L1286 617L1285 616M1458 616L1459 617L1458 616M705 617L706 618L705 617M1316 617L1317 618L1316 617M1408 617L1409 618L1408 617M850 618L851 619L850 618M1265 618L1266 619L1265 618M1397.67 618.333L1398.33 618.667L1397.67 618.333M1404.67 618.333L1405.33 618.667L1404.67 618.333M1263 619L1264 620L1263 619M1286 619L1287 620L1286 619M655 620L656 621L655 620M1317 620L1318 621L1317 620M654 621L655 622L654 621M706 621L707 622L706 621M845 621L846 622L845 621M1452 621L1453 622L1452 621M843 622L844 623L843 622M1258 622L1259 623L1258 622M1287 622L1288 623L1287 622M1318 622L1319 623L1318 622M1451 622L1452 623L1451 622M841 623L842 624L841 623M707 624L708 625L707 624M839 624L840 625L839 624M1255 624L1256 625L1255 624M649 625L650 626L649 625M734 625L735 626L734 625M1254 625L1255 626L1254 625M1288 625L1289 626L1288 625M648 626L649 627L648 626M708 626L709 627L708 626M834 626L835 627L834 626M1319 626L1320 627L1319 626M1446 626L1447 627L1446 626M647 627L648 628L647 627M831 627L832 628L831 627M1251 627L1252 628L1251 627M646 628L647 629L646 628M709 628L710 629L709 628M733 628L734 629L733 628M828 628L829 629L828 628M645 629L646 630L645 629M825 629L826 630L825 629M1289 629L1290 630L1289 629M1442 629L1443 630L1442 629M644 630L645 631L644 630M732 630L733 631L732 630M822 630L823 631L822 630M1247 630L1248 631L1247 630M643 631L644 632L643 631M711 631L712 632L711 631M818 631L819 632L818 631M1246 631L1247 632L1246 631M1320 631L1320 636L1321 636L1320 631M1439 631L1440 632L1439 631M642 632L643 633L642 632M712 632L713 633L712 632M814.667 632.333L815.333 632.667L814.667 632.333M713 633L714 634L713 633M811 633L812 634L811 633M1290 633L1291 634L1290 633M1436 633L1437 634L1436 633M728 634L729 635L728 634M807 634L808 635L807 634M716 635L717 636L716 635M726 635L727 636L726 635M803 635L804 636L803 635M1241 635L1242 636L1241 635M1433 635L1434 636L1433 635M719 636L719 637L722 637L719 636M799 636L800 637L799 636M1240 636L1241 637L1240 636M1291 636L1292 637L1291 636M1431 636L1432 637L1431 636M644 637L645 638L644 637M795 637L796 638L795 637M1239 637L1240 638L1239 637M1429 637L1430 638L1429 637M645 638L646 639L645 638M791 638L792 639L791 638M1427 638L1428 639L1427 638M646 639L647 640L646 639M787 639L788 640L787 639M1292 639L1293 640L1292 639M1425 639L1426 640L1425 639M647 640L648 641L647 640M783.667 640.333L784.333 640.667L783.667 640.333M1319 640L1320 641L1319 640M1423 640L1424 641L1423 640M648 641L649 642L648 641M779.667 641.333L780.333 641.667L779.667 641.333M1420 641L1421 642L1420 641M649 642L650 643L649 642M776 642L777 643L776 642M1417 642L1418 643L1417 642M772 643L773 644L772 643M1318 643L1319 644L1318 643M1414 643L1415 644L1414 643M768 644L769 645L768 644M1411 644L1412 645L1411 644M765 645L766 646L765 645M1295 645L1296 646L1295 645M1317 645L1318 646L1317 645M1408 645L1409 646L1408 645M761.667 646.333L762.333 646.667L761.667 646.333M1296 646L1297 647L1296 646M1404.67 646.333L1405.33 646.667L1404.67 646.333M624 647L625 648L624 647M653 647L654 648L653 647M758 647L759 648L758 647M1297 647L1298 648L1297 647M1401 647L1402 648L1401 647M622 648L623 649L622 648M625 648L626 649L625 648M755 648L756 649L755 648M1227 648L1228 649L1227 648M1298 648L1299 649L1298 648M1397 648L1398 649L1397 648M752 649L753 650L752 649M1313 649L1314 650L1313 649M1393 649L1394 650L1393 649M619 650L620 651L619 650M749 650L750 651L749 650M1301 650L1302 651L1301 650M1311 650L1312 651L1311 650M1389 650L1390 651L1389 650M656 651L657 652L656 651M746 651L747 652L746 651M1305 651L1305 652L1309 652L1305 651M1385 651L1386 652L1385 651M628 652L629 653L628 652M743 652L744 653L743 652M1381 652L1382 653L1381 652M614 653L615 654L614 653M741 653L742 654L741 653M1230 653L1231 654L1230 653M1377.67 653.333L1378.33 653.667L1377.67 653.333M612 654L613 655L612 654M658 654L659 655L658 654M1231 654L1232 655L1231 654M1373.67 654.333L1374.33 654.667L1373.67 654.333M610 655L611 656L610 655M630 655L631 656L630 655M736 655L737 656L736 655M1232 655L1233 656L1232 655M1369.67 655.333L1370.33 655.667L1369.67 655.333M659 656L660 657L659 656M734 656L735 657L734 656M1233 656L1234 657L1233 656M1366 656L1367 657L1366 656M732 657L733 658L732 657M1234 657L1235 658L1234 657M1362 657L1363 658L1362 657M632 658L633 659L632 658M730 658L731 659L730 658M1358 658L1359 659L1358 658M602 659L603 660L602 659M1355 659L1356 660L1355 659M600 660L601 661L600 660M633 660L634 661L633 660M727 660L728 661L727 660M1351 660L1352 661L1351 660M598 661L599 662L598 661M725 661L726 662L725 661M1348 661L1349 662L1348 661M596 662L597 663L596 662M1238 662L1239 663L1238 662M1344 662L1345 663L1344 662M593 663L594 664L593 663M635 663L636 664L635 663M722 663L723 664L722 663M1341 663L1342 664L1341 663M591 664L592 665L591 664M663 664L664 665L663 664M1207 664L1208 665L1207 664M1211 664L1212 665L1211 664M1338 664L1339 665L1338 664M636 665L637 666L636 665M1205 665L1206 666L1205 665M1335 665L1336 666L1335 665M586 666L587 667L586 666M718 666L719 667L718 666M1241 666L1242 667L1241 666M1332 666L1333 667L1332 666M583 667L584 668L583 667M637 667L638 668L637 667M1202 667L1203 668L1202 667M1213 667L1214 668L1213 667M1330 667L1331 668L1330 667M581 668L582 669L581 668M1200 668L1201 669L1200 668M1327 668L1328 669L1327 668M578 669L579 670L578 669M663 669L664 670L663 669M714 669L715 670L714 669M1243 669L1244 670L1243 669M1325 669L1326 670L1325 669M575 670L576 671L575 670M713 670L714 671L713 670M1215 670L1216 671L1215 670M572 671L573 672L572 671M712 671L713 672L712 671M1244 671L1245 672L1244 671M569 672L570 673L569 672M567 673L568 674L567 673M640 673L641 674L640 673M659 673L660 674L659 673M1217 673L1218 674L1217 673M564 674L565 675L564 674M657 674L658 675L657 674M1188 674L1189 675L1188 674M561 675L562 676L561 675M642 675L643 676L642 675M653 675L654 676L653 675M1186 675L1187 676L1186 675M1218 675L1219 676L1218 675M1313 675L1314 676L1313 675M558 676L559 677L558 676M1184 676L1185 677L1184 676M554 677L555 678L554 677M1182 677L1183 678L1182 677M1310 677L1311 678L1310 677M551 678L552 679L551 678M704 678L705 679L704 678M1220 678L1221 679L1220 678M548 679L549 680L548 679M703 679L704 680L703 679M1177 679L1178 680L1177 679M1248 679L1249 680L1248 679M1307 679L1308 680L1307 679M544.667 680.333L545.333 680.667L544.667 680.333M702 680L703 681L702 680M1175 680L1176 681L1175 680M1221 680L1222 681L1221 680M540 681L541 682L540 681M701 681L702 682L701 681M1172 681L1173 682L1172 681M1304 681L1305 682L1304 681M538 682L539 683L538 682M1170 682L1171 683L1170 682M1222 682L1223 683L1222 682M1303 682L1304 683L1303 682M1167 683L1168 684L1167 683M1164 684L1165 685L1164 684M1223 684L1224 685L1223 684M1248 684L1249 685L1248 684M695 686L696 687L695 686M1159 686L1160 687L1159 686M1224 686L1225 687L1224 686M1298 686L1299 687L1298 686M694 687L695 688L694 687M1156 687L1157 688L1156 687M1297 687L1298 688L1297 687M534 688L535 689L534 688M1153 688L1154 689L1153 688M1244 688L1245 689L1244 688M1296 688L1297 689L1296 688M536 689L537 690L536 689M1150 689L1151 690L1150 689M1242 689L1243 690L1242 689M1295 689L1296 690L1295 689M538 690L539 691L538 690M690 690L691 691L690 690M1147 690L1148 691L1147 690M1228 690L1229 691L1228 690M1238.67 690.333L1239.33 690.667L1238.67 690.333M541 691L542 692L541 691M1144 691L1145 692L1144 691M1140.67 692.333L1141.33 692.667L1140.67 692.333M686 693L687 694L686 693M1137 693L1138 694L1137 693M546 694L547 695L546 694M1134 694L1135 695L1134 694M683 695L684 696L683 695M1130.67 695.333L1131.33 695.667L1130.67 695.333M682 696L683 697L682 696M1125.67 696.333L1126.33 696.667L1125.67 696.333M1287 696L1288 697L1287 696M1123 697L1124 698L1123 697M1286 697L1287 698L1286 697M679 698L680 699L679 698M1122 698L1123 699L1122 698M1285 698L1286 699L1285 698M674 701L675 702L674 701M500 702L501 703L500 702M554 702L555 703L554 702M1280 702L1281 703L1280 702M495 703L496 704L495 703M502 703L503 704L502 703M1119 703L1120 704L1119 703M1279 703L1280 704L1279 703M494 704L495 705L494 704M504 704L505 705L504 704M1121 704L1122 705L1121 704M506 705L507 706L506 705M667 705L668 706L667 705M1123 705L1124 706L1123 705M508 706L509 707L508 706M555 706L555 709L556 709L555 706M664 706L665 707L664 706M1126 706L1127 707L1126 706M1275 706L1276 707L1275 706M510 707L511 708L510 707M662 707L663 708L662 707M489 708L490 709L489 708M512 708L513 709L512 708M660 708L661 709L660 708M488 709L489 710L488 709M514 709L515 710L514 709M657 709L658 710L657 709M1131 709L1132 710L1131 709M1271 709L1272 710L1271 709M487 710L488 711L487 710M654 710L655 711L654 710M486 711L487 712L486 711M652 711L653 712L652 711M1268 711L1269 712L1268 711M485 712L486 713L485 712M519 712L520 713L519 712M554 712L555 713L554 712M649 712L650 713L649 712M484 713L485 714L484 713M521 713L522 714L521 713M646 713L647 714L646 713M1265 713L1266 714L1265 713M483 714L484 715L483 714M643 714L644 715L643 714M1262 715L1263 716L1262 715M483 716L484 717L483 716M638 716L639 717L638 716M1260 716L1261 717L1260 716M529 717L530 718L529 717M550 717L551 718L550 717M635 717L636 718L635 717M1139 717L1140 718L1139 717M484 718L485 719L484 718M531 718L532 719L531 718M548 718L549 719L548 718M632 718L633 719L632 718M1083 718L1084 719L1083 718M1086 718L1087 719L1086 718M1257 718L1258 719L1257 718M535.667 719.333L536.333 719.667L535.667 719.333M544.667 719.333L545.333 719.667L544.667 719.333M629 719L630 720L629 719M1089 719L1090 720L1089 719M1255 719L1256 720L1255 719M626 720L627 721L626 720M1079 720L1080 721L1079 720M1253 720L1254 721L1253 720M486 721L487 722L486 721M623 721L624 722L623 721M1140 721L1140 724L1141 724L1140 721M1251 721L1252 722L1251 721M620 722L621 723L620 722M1248 722L1249 723L1248 722M617 723L618 724L617 723M1097 723L1098 724L1097 723M1246 723L1247 724L1246 723M488 724L489 725L488 724M614 724L615 725L614 724M1099 724L1100 725L1099 724M1243 724L1244 725L1243 724M611 725L612 726L611 725M608 726L609 727L608 726M1072 726L1073 727L1072 726M1238 726L1239 727L1238 726M605 727L606 728L605 727M1071 727L1072 728L1071 727M1104 727L1105 728L1104 727M1139 727L1140 728L1139 727M1235 727L1236 728L1235 727M602 728L603 729L602 728M1070 728L1071 729L1070 728M1106 728L1107 729L1106 728M1232 728L1233 729L1232 728M599 729L600 730L599 729M1069 729L1070 730L1069 729M1108 729L1109 730L1108 729M1230 729L1231 730L1230 729M494 730L495 731L494 730M596 730L597 731L596 730M1227 730L1228 731L1227 730M495 731L496 732L495 731M593 731L594 732L593 731M1069 731L1070 732L1069 731M1224 731L1225 732L1224 731M590 732L591 733L590 732M1114 732L1115 733L1114 732M1135 732L1136 733L1135 732M1221 732L1222 733L1221 732M587 733L588 734L587 733M1116 733L1117 734L1116 733M1133 733L1134 734L1133 733M1218 733L1219 734L1218 733M499 734L500 735L499 734M583 734L584 735L583 734M1071 734L1072 735L1071 734M1120 734L1121 735L1120 734M1129.67 734.333L1130.33 734.667L1129.67 734.333M1215 734L1216 735L1215 734M501 735L502 736L501 735M580 735L581 736L580 735M1212 735L1213 736L1212 735M577 736L578 737L577 736M1072 736L1073 737L1072 736M1209 736L1210 737L1209 736M573 737L574 738L573 737M1207 737L1208 738L1207 737M507 738L508 739L507 738M569.667 738.333L570.333 738.667L569.667 738.333M1204 738L1205 739L1204 738M509 739L510 740L509 739M565.667 739.333L566.333 739.667L565.667 739.333M1201 739L1202 740L1201 739M512 740L513 741L512 740M560.667 740.333L561.333 740.667L560.667 740.333M1075 740L1076 741L1075 740M1198 740L1199 741L1198 740M515 741L516 742L515 741M555 741L556 742L555 741M1076 741L1077 742L1076 741M1195 741L1196 742L1195 741M518.667 742.333L519.333 742.667L518.667 742.333M550 742L551 743L550 742M1077 742L1078 743L1077 742M1192 742L1193 743L1192 742M523 743L523 744L526 744L523 743M544.667 743.333L545.333 743.667L544.667 743.333M1078 743L1079 744L1078 743M1189 743L1190 744L1189 743M1079 744L1080 745L1079 744M1185 744L1186 745L1185 744M1080 745L1081 746L1080 745M1182 745L1183 746L1182 745M1179 746L1180 747L1179 746M1176 747L1177 748L1176 747M1084 748L1085 749L1084 748M1173 748L1174 749L1173 748M1170 749L1171 750L1170 749M1087 750L1088 751L1087 750M1166 750L1167 751L1166 750M1089 751L1090 752L1089 751M1163 751L1164 752L1163 751M1091 752L1092 753L1091 752M1159.67 752.333L1160.33 752.667L1159.67 752.333M1093 753L1094 754L1093 753M1156 753L1157 754L1156 753M1095 754L1096 755L1095 754M1151.67 754.333L1152.33 754.667L1151.67 754.333M1098 755L1099 756L1098 755M1146.67 755.333L1147.33 755.667L1146.67 755.333M1101 756L1102 757L1101 756M1141.67 756.333L1142.33 756.667L1141.67 756.333M1105 757L1106 758L1105 757M1136.67 757.333L1137.33 757.667L1136.67 757.333M1109 758L1109 759L1112 759L1109 758M1130.67 758.333L1131.33 758.667L1130.67 758.333z"/>
</svg>
