<?xml version="1.0" encoding="UTF-8"?>
<!DOCTYPE svg PUBLIC "-//W3C//DTD SVG 1.1//EN" "http://www.w3.org/Graphics/SVG/1.1/DTD/svg11.dtd">
<svg xmlns="http://www.w3.org/2000/svg" version="1.1" width="2591px" height="1206px" style="shape-rendering:geometricPrecision; text-rendering:geometricPrecision; image-rendering:optimizeQuality; fill-rule:evenodd; clip-rule:evenodd" xmlns:xlink="http://www.w3.org/1999/xlink">
<g><path style="opacity:1" fill="#676767" d="M 875.5,725.5 C 878.123,727.265 881.123,727.932 884.5,727.5C 907.266,730.739 929.933,734.406 952.5,738.5C 956.21,740.136 960.21,740.802 964.5,740.5C 1002.18,746.074 1039.85,751.741 1077.5,757.5C 1077.92,758.222 1078.58,758.722 1079.5,759C 1082.15,759.497 1084.81,759.664 1087.5,759.5C 1095.89,760.032 1104.23,761.032 1112.5,762.5C 1112.92,763.222 1113.58,763.722 1114.5,764C 1117.15,764.497 1119.81,764.664 1122.5,764.5C 1128.57,764.676 1134.57,765.343 1140.5,766.5C 1143.88,768.082 1147.54,768.749 1151.5,768.5C 1152.83,768.5 1154.17,768.5 1155.5,768.5C 1159.18,770.25 1163.18,770.917 1167.5,770.5C 1175.61,770.771 1183.61,771.771 1191.5,773.5C 1199.58,775.436 1207.92,776.436 1216.5,776.5C 1223.87,776.801 1231.2,777.467 1238.5,778.5C 1238.92,779.222 1239.58,779.722 1240.5,780C 1247.81,780.942 1255.14,781.442 1262.5,781.5C 1264.17,781.5 1265.83,781.5 1267.5,781.5C 1276.55,783.802 1285.88,784.802 1295.5,784.5C 1299.17,784.5 1302.83,784.5 1306.5,784.5C 1307.61,785.29 1308.94,785.79 1310.5,786C 1317.49,786.5 1324.49,786.666 1331.5,786.5C 1340.18,786.584 1348.85,786.917 1357.5,787.5C 1357.92,788.222 1358.58,788.722 1359.5,789C 1362.48,789.498 1365.48,789.665 1368.5,789.5C 1371.17,789.5 1373.83,789.5 1376.5,789.5C 1376.92,790.222 1377.58,790.722 1378.5,791C 1387.14,791.927 1395.81,792.427 1404.5,792.5C 1429.83,794.25 1455.16,795.916 1480.5,797.5C 1485.24,798.999 1490.24,799.666 1495.5,799.5C 1499.02,799.498 1502.35,799.165 1505.5,798.5C 1510.15,798.998 1514.82,799.331 1519.5,799.5C 1520.95,800.302 1522.62,800.802 1524.5,801C 1532.16,801.5 1539.83,801.666 1547.5,801.5C 1594.5,802.919 1641.5,804.253 1688.5,805.5C 1692.31,806.324 1696.31,806.824 1700.5,807C 1726.83,807.5 1753.16,807.667 1779.5,807.5C 1803.17,807.5 1826.83,807.5 1850.5,807.5C 1872.84,807.667 1895.17,807.5 1917.5,807C 1920.69,806.819 1923.69,806.319 1926.5,805.5C 1951.17,804.666 1975.84,803.666 2000.5,802.5C 2008.72,802.677 2016.72,802.01 2024.5,800.5C 2026.26,799.539 2028.26,799.205 2030.5,799.5C 2038.07,799.843 2045.4,799.177 2052.5,797.5C 2098.29,793.335 2144.29,790.002 2190.5,787.5C 2200.05,787.725 2209.38,787.058 2218.5,785.5C 2303.42,778.816 2388.42,773.15 2473.5,768.5C 2482.39,768.803 2491.06,768.137 2499.5,766.5C 2508.8,765.415 2518.13,765.248 2527.5,766C 2531.17,767.668 2533.33,770.501 2534,774.5C 2534.67,783.833 2534.67,793.167 2534,802.5C 2530.55,843.187 2526.89,883.854 2523,924.5C 2521.89,934.928 2520.22,945.261 2518,955.5C 2517.35,957.723 2515.85,958.89 2513.5,959C 2339.86,967.665 2166.2,975.665 1992.5,983C 1849.85,989.191 1707.19,994.691 1564.5,999.5C 1553.99,999.828 1543.65,999.494 1533.5,998.5C 1532.61,993.927 1531.28,989.594 1529.5,985.5C 1527.6,980.671 1525.93,975.671 1524.5,970.5C 1524.92,968.219 1524.26,966.552 1522.5,965.5C 1518.43,955.689 1514.09,946.022 1509.5,936.5C 1509.71,934.821 1509.05,933.821 1507.5,933.5C 1507.5,933.167 1507.5,932.833 1507.5,932.5C 1507.71,930.821 1507.05,929.821 1505.5,929.5C 1504.66,929.158 1504.33,928.492 1504.5,927.5C 1504.13,924.733 1502.8,922.733 1500.5,921.5C 1499.11,920.101 1498.11,918.434 1497.5,916.5C 1497.45,914.368 1496.45,913.035 1494.5,912.5C 1494.57,910.973 1493.91,909.973 1492.5,909.5C 1492.45,907.368 1491.45,906.035 1489.5,905.5C 1489.45,903.368 1488.45,902.035 1486.5,901.5C 1485.5,901.167 1484.83,900.5 1484.5,899.5C 1484.5,898.167 1483.83,897.5 1482.5,897.5C 1480.83,895.5 1479.17,893.5 1477.5,891.5C 1476.58,888.911 1474.91,886.911 1472.5,885.5C 1470.5,884.167 1468.83,882.5 1467.5,880.5C 1465.1,877.097 1462.1,874.43 1458.5,872.5C 1457.5,872.167 1456.83,871.5 1456.5,870.5C 1455.09,868.086 1453.09,866.419 1450.5,865.5C 1450.03,864.094 1449.03,863.427 1447.5,863.5C 1446.42,861.413 1444.75,860.08 1442.5,859.5C 1442.03,858.094 1441.03,857.427 1439.5,857.5C 1439.03,856.094 1438.03,855.427 1436.5,855.5C 1435.74,853.738 1434.4,852.738 1432.5,852.5C 1430.85,852.34 1429.51,851.674 1428.5,850.5C 1428.03,849.094 1427.03,848.427 1425.5,848.5C 1425.03,847.094 1424.03,846.427 1422.5,846.5C 1421.51,846.672 1420.84,846.338 1420.5,845.5C 1420.03,844.094 1419.03,843.427 1417.5,843.5C 1408.76,839.463 1400.1,835.463 1391.5,831.5C 1390.36,829.787 1388.7,829.12 1386.5,829.5C 1385.21,829.737 1384.21,829.404 1383.5,828.5C 1382.36,826.787 1380.7,826.12 1378.5,826.5C 1378.17,826.5 1377.83,826.5 1377.5,826.5C 1376.36,824.787 1374.7,824.12 1372.5,824.5C 1370.9,824.768 1369.57,824.434 1368.5,823.5C 1366.9,821.926 1364.9,821.259 1362.5,821.5C 1357.74,820.809 1353.07,819.809 1348.5,818.5C 1346.49,817.076 1344.15,816.41 1341.5,816.5C 1330.2,815.078 1318.87,813.911 1307.5,813C 1259.76,813.52 1212.43,809.687 1165.5,801.5C 1161.82,799.75 1157.82,799.083 1153.5,799.5C 1123.41,795.725 1093.41,791.392 1063.5,786.5C 1060.78,785.087 1057.78,784.42 1054.5,784.5C 1044.74,783.725 1035.08,782.392 1025.5,780.5C 1022.78,779.087 1019.78,778.42 1016.5,778.5C 968.315,771.58 920.315,763.58 872.5,754.5C 870.162,752.96 867.495,752.294 864.5,752.5C 849.994,750.583 835.661,747.916 821.5,744.5C 819.095,743.232 816.428,742.565 813.5,742.5C 814.5,740.5 815.5,738.5 816.5,736.5C 820.234,733.769 823.234,730.436 825.5,726.5C 826.167,725.167 827.167,724.167 828.5,723.5C 830.749,722.92 832.415,721.587 833.5,719.5C 834.097,718.861 834.93,718.528 836,718.5C 849.132,721.105 862.298,723.438 875.5,725.5 Z"/></g>
<g><path style="opacity:1" fill="#656565" d="M 147.5,723.5 C 150.123,725.265 153.123,725.932 156.5,725.5C 160.733,725.539 164.733,726.205 168.5,727.5C 172.591,728.895 176.924,729.562 181.5,729.5C 188.516,730.392 195.516,731.392 202.5,732.5C 205.123,734.265 208.123,734.932 211.5,734.5C 220.839,735.739 230.172,737.072 239.5,738.5C 242.123,740.265 245.123,740.932 248.5,740.5C 251.518,740.704 254.518,741.037 257.5,741.5C 260.123,743.265 263.123,743.932 266.5,743.5C 277.616,744.631 288.616,746.298 299.5,748.5C 303.236,749.989 307.236,750.656 311.5,750.5C 312.5,750.5 313.5,750.5 314.5,750.5C 317.171,752.118 320.171,752.785 323.5,752.5C 324.833,752.5 326.167,752.5 327.5,752.5C 327.918,753.222 328.584,753.722 329.5,754C 332.146,754.497 334.813,754.664 337.5,754.5C 354.513,756.74 371.513,759.073 388.5,761.5C 398.825,764.453 409.492,766.12 420.5,766.5C 423.609,766.264 426.609,766.597 429.5,767.5C 433.21,769.136 437.21,769.802 441.5,769.5C 454.408,770.363 467.075,772.029 479.5,774.5C 490.946,776.55 502.612,777.883 514.5,778.5C 532.925,781.41 551.591,783.41 570.5,784.5C 576.857,784.476 583.19,784.81 589.5,785.5C 604.925,787.907 620.591,788.907 636.5,788.5C 643.363,788.638 650.03,789.304 656.5,790.5C 669.287,792.355 682.287,793.355 695.5,793.5C 718.192,794.883 740.859,796.549 763.5,798.5C 764.209,799.404 765.209,799.737 766.5,799.5C 766.5,800.833 766.5,802.167 766.5,803.5C 759.602,825.659 755.268,848.326 753.5,871.5C 752.883,871.611 752.383,871.944 752,872.5C 751.184,871.177 750.017,870.511 748.5,870.5C 748.027,869.094 747.027,868.427 745.5,868.5C 744.738,866.738 743.404,865.738 741.5,865.5C 740.738,863.738 739.404,862.738 737.5,862.5C 736.738,860.738 735.404,859.738 733.5,859.5C 733.027,858.094 732.027,857.427 730.5,857.5C 730.027,856.094 729.027,855.427 727.5,855.5C 727.027,854.094 726.027,853.427 724.5,853.5C 724.027,852.094 723.027,851.427 721.5,851.5C 721.027,850.094 720.027,849.427 718.5,849.5C 716.847,849.34 715.514,848.674 714.5,847.5C 714.027,846.094 713.027,845.427 711.5,845.5C 705.182,843.008 699.182,840.008 693.5,836.5C 692.365,834.787 690.698,834.12 688.5,834.5C 686.716,834.107 685.05,833.441 683.5,832.5C 682.365,830.787 680.698,830.12 678.5,830.5C 675.402,829.784 672.402,828.784 669.5,827.5C 668.365,825.787 666.698,825.12 664.5,825.5C 661.659,825.44 658.993,824.774 656.5,823.5C 654.898,821.926 652.898,821.259 650.5,821.5C 641.473,819.961 632.473,818.294 623.5,816.5C 622.391,815.71 621.058,815.21 619.5,815C 615.179,814.501 610.846,814.334 606.5,814.5C 605.5,814.5 604.5,814.5 603.5,814.5C 600.359,813.679 597.025,813.179 593.5,813C 579.171,812.5 564.837,812.333 550.5,812.5C 516.197,811.295 482.197,807.628 448.5,801.5C 445.155,799.783 441.489,799.116 437.5,799.5C 384.36,792.432 331.36,784.432 278.5,775.5C 275.829,773.882 272.829,773.215 269.5,773.5C 262.442,772.823 255.442,771.823 248.5,770.5C 246.162,768.96 243.495,768.294 240.5,768.5C 212.993,764.667 185.66,760 158.5,754.5C 156.162,752.96 153.495,752.294 150.5,752.5C 136.409,750.582 122.409,748.082 108.5,745C 107.244,744.583 106.577,743.75 106.5,742.5C 108.262,741.738 109.262,740.404 109.5,738.5C 110.5,738.167 111.167,737.5 111.5,736.5C 113.587,735.415 114.92,733.749 115.5,731.5C 117.5,731.5 118.5,730.5 118.5,728.5C 118.833,727.5 119.5,726.833 120.5,726.5C 123.089,725.581 125.089,723.914 126.5,721.5C 133.431,720.92 140.431,721.586 147.5,723.5 Z"/></g>
<g><path style="opacity:0.733" fill="#313131" d="M 833.5,719.5 C 832.415,721.587 830.749,722.92 828.5,723.5C 829.585,721.413 831.251,720.08 833.5,719.5 Z"/></g>
<g><path style="opacity:0.788" fill="#393939" d="M 126.5,721.5 C 125.089,723.914 123.089,725.581 120.5,726.5C 121.911,724.086 123.911,722.419 126.5,721.5 Z"/></g>
<g><path style="opacity:0.745" fill="#313131" d="M 147.5,723.5 C 150.727,723.676 153.727,724.343 156.5,725.5C 153.123,725.932 150.123,725.265 147.5,723.5 Z"/></g>
<g><path style="opacity:0.627" fill="#2a2a2a" d="M 875.5,725.5 C 878.689,725.858 881.689,726.525 884.5,727.5C 881.123,727.932 878.123,727.265 875.5,725.5 Z"/></g>
<g><path style="opacity:0.082" fill="#272727" d="M 168.5,727.5 C 173.076,727.438 177.409,728.105 181.5,729.5C 176.924,729.562 172.591,728.895 168.5,727.5 Z"/></g>
<g><path style="opacity:0.62" fill="#2a2a2a" d="M 825.5,726.5 C 823.234,730.436 820.234,733.769 816.5,736.5C 818.766,732.564 821.766,729.231 825.5,726.5 Z"/></g>
<g><path style="opacity:0.702" fill="#333333" d="M 118.5,728.5 C 118.5,730.5 117.5,731.5 115.5,731.5C 116.167,730.167 117.167,729.167 118.5,728.5 Z"/></g>
<g><path style="opacity:1" fill="#666666" d="M 1789.5,737.5 C 1811.17,737.532 1832.84,737.865 1854.5,738.5C 1856.17,738.5 1857.83,738.5 1859.5,738.5C 1865.26,740.057 1871.26,740.724 1877.5,740.5C 1890.32,742.064 1902.99,744.398 1915.5,747.5C 1916.99,749.28 1918.99,749.946 1921.5,749.5C 1934.47,752.044 1946.8,756.377 1958.5,762.5C 1958.82,764.048 1959.82,764.715 1961.5,764.5C 1961.83,764.5 1962.17,764.5 1962.5,764.5C 1963.91,766.539 1965.91,767.539 1968.5,767.5C 1968.82,769.048 1969.82,769.715 1971.5,769.5C 1973.15,769.66 1974.49,770.326 1975.5,771.5C 1975.97,772.906 1976.97,773.573 1978.5,773.5C 1979.49,773.328 1980.16,773.662 1980.5,774.5C 1981.03,776.446 1982.37,777.446 1984.5,777.5C 1985.54,779.531 1987.21,780.864 1989.5,781.5C 1991.09,784.764 1993.43,787.431 1996.5,789.5C 1996.43,791.027 1997.09,792.027 1998.5,792.5C 1999.34,792.842 1999.67,793.508 1999.5,794.5C 1999.5,795.5 1999.5,796.5 1999.5,797.5C 1997.9,797.232 1996.57,797.566 1995.5,798.5C 1977.23,800.019 1958.89,800.686 1940.5,800.5C 1907.66,800.168 1875,800.502 1842.5,801.5C 1777.83,801.313 1713.17,800.98 1648.5,800.5C 1634.49,800.5 1620.49,800.166 1606.5,799.5C 1587.06,797.107 1567.39,796.107 1547.5,796.5C 1493.05,794.679 1438.71,791.345 1384.5,786.5C 1380.12,784.789 1375.45,784.123 1370.5,784.5C 1370.17,784.5 1369.83,784.5 1369.5,784.5C 1369.74,782.102 1369.07,780.102 1367.5,778.5C 1365.96,772.94 1364.96,767.274 1364.5,761.5C 1364.66,759.473 1364.5,757.473 1364,755.5C 1363.62,754.944 1363.12,754.611 1362.5,754.5C 1361.64,749.702 1360.97,744.869 1360.5,740C 1360.51,737.967 1360.84,736.134 1361.5,734.5C 1364.15,734.59 1366.49,733.924 1368.5,732.5C 1377.29,731.861 1386.12,731.528 1395,731.5C 1526.49,734.564 1657.99,736.564 1789.5,737.5 Z"/></g>
<g><path style="opacity:0.576" fill="#282828" d="M 202.5,732.5 C 205.689,732.858 208.689,733.525 211.5,734.5C 208.123,734.932 205.123,734.265 202.5,732.5 Z"/></g>
<g><path style="opacity:1" fill="#656565" d="M 662.5,733.5 C 664.167,733.5 665.833,733.5 667.5,733.5C 683.33,734.56 698.996,734.56 714.5,733.5C 730.496,733.981 746.496,734.315 762.5,734.5C 774.037,734.841 785.37,735.841 796.5,737.5C 795.094,737.973 794.427,738.973 794.5,740.5C 784.977,757.381 776.644,774.881 769.5,793C 734.029,792.991 698.695,790.825 663.5,786.5C 663.068,785.29 662.401,784.29 661.5,783.5C 659.965,777.961 658.965,772.294 658.5,766.5C 658.889,763.447 658.223,760.78 656.5,758.5C 654.576,751.096 653.909,743.763 654.5,736.5C 657.397,735.871 660.064,734.871 662.5,733.5 Z"/></g>
<g><path style="opacity:0.527" fill="#333333" d="M 667.5,733.5 C 682.989,733.176 698.655,733.176 714.5,733.5C 698.996,734.56 683.33,734.56 667.5,733.5 Z"/></g>
<g><path style="opacity:0.863" fill="#3a3a3a" d="M 1368.5,732.5 C 1366.49,733.924 1364.15,734.59 1361.5,734.5C 1363.44,732.837 1365.77,732.171 1368.5,732.5 Z"/></g>
<g><path style="opacity:0.502" fill="#272727" d="M 115.5,731.5 C 114.92,733.749 113.587,735.415 111.5,736.5C 112.08,734.251 113.413,732.585 115.5,731.5 Z"/></g>
<g><path style="opacity:0.142" fill="#171717" d="M 762.5,734.5 C 774.167,734.5 785.833,734.5 797.5,734.5C 797.737,735.791 797.404,736.791 796.5,737.5C 785.37,735.841 774.037,734.841 762.5,734.5 Z"/></g>
<g><path style="opacity:0.596" fill="#262626" d="M 662.5,733.5 C 660.064,734.871 657.397,735.871 654.5,736.5C 656.617,734.345 659.284,733.345 662.5,733.5 Z"/></g>
<g><path style="opacity:0.278" fill="#191919" d="M 111.5,736.5 C 111.167,737.5 110.5,738.167 109.5,738.5C 109.5,737.167 110.167,736.5 111.5,736.5 Z"/></g>
<g><path style="opacity:0.62" fill="#333333" d="M 1789.5,737.5 C 1811.19,736.175 1832.85,736.508 1854.5,738.5C 1832.84,737.865 1811.17,737.532 1789.5,737.5 Z"/></g>
<g><path style="opacity:0.008" fill="#141414" d="M 796.5,737.5 C 796.573,739.027 795.906,740.027 794.5,740.5C 794.427,738.973 795.094,737.973 796.5,737.5 Z"/></g>
<g><path style="opacity:0.071" fill="#242424" d="M 1859.5,738.5 C 1865.7,738.652 1871.7,739.318 1877.5,740.5C 1871.26,740.724 1865.26,740.057 1859.5,738.5 Z"/></g>
<g><path style="opacity:0.706" fill="#2e2e2e" d="M 109.5,738.5 C 109.262,740.404 108.262,741.738 106.5,742.5C 106.738,740.596 107.738,739.262 109.5,738.5 Z"/></g>
<g><path style="opacity:0.525" fill="#262626" d="M 239.5,738.5 C 242.689,738.858 245.689,739.525 248.5,740.5C 245.123,740.932 242.123,740.265 239.5,738.5 Z"/></g>
<g><path style="opacity:0.353" fill="#212121" d="M 816.5,736.5 C 815.5,738.5 814.5,740.5 813.5,742.5C 812.431,739.804 813.431,737.804 816.5,736.5 Z"/></g>
<g><path style="opacity:0.62" fill="#2e2e2e" d="M 952.5,738.5 C 956.705,738.717 960.705,739.383 964.5,740.5C 960.21,740.802 956.21,740.136 952.5,738.5 Z"/></g>
<g><path style="opacity:0.31" fill="#282828" d="M 257.5,741.5 C 260.689,741.858 263.689,742.525 266.5,743.5C 263.123,743.932 260.123,743.265 257.5,741.5 Z"/></g>
<g><path style="opacity:0.694" fill="#2a2a2a" d="M 813.5,742.5 C 816.428,742.565 819.095,743.232 821.5,744.5C 818.505,744.706 815.838,744.04 813.5,742.5 Z"/></g>
<g><path style="opacity:0.035" fill="#171717" d="M 94.5,745.5 C 93.0413,745.433 91.7079,745.766 90.5,746.5C 90.62,745.414 91.2867,744.747 92.5,744.5C 93.4164,744.543 94.0831,744.876 94.5,745.5 Z"/></g>
<g><path style="opacity:1" fill="#676767" d="M 798.5,743.5 C 799.167,743.5 799.833,743.5 800.5,743.5C 803.008,745.554 806.008,746.554 809.5,746.5C 810.5,746.5 811.5,746.5 812.5,746.5C 812.611,747.117 812.944,747.617 813.5,748C 816.793,748.826 820.126,749.326 823.5,749.5C 829.274,749.962 834.94,750.962 840.5,752.5C 842.78,754.223 845.447,754.889 848.5,754.5C 849.5,754.5 850.5,754.5 851.5,754.5C 853.78,756.223 856.447,756.889 859.5,756.5C 880.887,759.911 902.22,763.578 923.5,767.5C 928.126,769.664 933.126,770.664 938.5,770.5C 946.421,771.097 954.087,772.43 961.5,774.5C 965.591,775.895 969.924,776.562 974.5,776.5C 983.889,777.444 993.222,778.778 1002.5,780.5C 1002.92,781.222 1003.58,781.722 1004.5,782C 1007.15,782.497 1009.81,782.664 1012.5,782.5C 1036.27,785.705 1059.94,789.372 1083.5,793.5C 1093.85,796.267 1104.52,797.933 1115.5,798.5C 1116.17,798.5 1116.83,798.5 1117.5,798.5C 1120.54,800.011 1123.88,800.678 1127.5,800.5C 1134.6,802.228 1141.93,803.228 1149.5,803.5C 1150.5,803.5 1151.5,803.5 1152.5,803.5C 1157.83,805.667 1163.5,806.667 1169.5,806.5C 1183.22,807.756 1196.88,809.423 1210.5,811.5C 1211.26,812.268 1212.26,812.768 1213.5,813C 1223.14,814.231 1232.8,815.064 1242.5,815.5C 1255.42,816.48 1268.42,816.814 1281.5,816.5C 1292.21,816.237 1302.87,816.57 1313.5,817.5C 1319.29,818.81 1325.29,819.477 1331.5,819.5C 1336.27,819.526 1340.93,820.193 1345.5,821.5C 1345.61,822.117 1345.94,822.617 1346.5,823C 1349.79,823.826 1353.13,824.326 1356.5,824.5C 1358.29,824.366 1359.96,824.699 1361.5,825.5C 1362.64,827.213 1364.3,827.88 1366.5,827.5C 1372.22,828.257 1377.55,829.924 1382.5,832.5C 1383.78,833.931 1385.45,834.598 1387.5,834.5C 1397.37,837.771 1406.71,842.104 1415.5,847.5C 1415.82,849.048 1416.82,849.715 1418.5,849.5C 1420.15,849.66 1421.49,850.326 1422.5,851.5C 1422.97,852.906 1423.97,853.573 1425.5,853.5C 1428.54,854.68 1431.21,856.347 1433.5,858.5C 1434.03,860.446 1435.37,861.446 1437.5,861.5C 1438.03,863.446 1439.37,864.446 1441.5,864.5C 1442.03,866.446 1443.37,867.446 1445.5,867.5C 1445.83,868.5 1446.5,869.167 1447.5,869.5C 1449.4,869.738 1450.74,870.738 1451.5,872.5C 1452.26,874.262 1453.6,875.262 1455.5,875.5C 1457.5,876.833 1459.17,878.5 1460.5,880.5C 1464.5,885.167 1468.83,889.5 1473.5,893.5C 1474.5,893.833 1475.17,894.5 1475.5,895.5C 1476.76,898.427 1478.76,900.761 1481.5,902.5C 1481.74,904.404 1482.74,905.738 1484.5,906.5C 1485.5,906.833 1486.17,907.5 1486.5,908.5C 1486.74,910.404 1487.74,911.738 1489.5,912.5C 1489.43,914.027 1490.09,915.027 1491.5,915.5C 1491.43,917.027 1492.09,918.027 1493.5,918.5C 1493.43,920.027 1494.09,921.027 1495.5,921.5C 1495.74,923.404 1496.74,924.738 1498.5,925.5C 1499.67,926.514 1500.34,927.847 1500.5,929.5C 1500.43,931.027 1501.09,932.027 1502.5,932.5C 1502.43,934.027 1503.09,935.027 1504.5,935.5C 1511.45,946.735 1516.78,958.735 1520.5,971.5C 1520.41,974.152 1521.08,976.485 1522.5,978.5C 1522.12,980.698 1522.79,982.365 1524.5,983.5C 1526.13,987.659 1527.13,991.992 1527.5,996.5C 1527.44,997.609 1527.11,998.609 1526.5,999.5C 1433.47,995.232 1340.47,990.399 1247.5,985C 1194.72,977.743 1142.38,968.243 1090.5,956.5C 1088.16,954.96 1085.5,954.294 1082.5,954.5C 1078.71,954.341 1075.04,953.675 1071.5,952.5C 1069.16,950.96 1066.5,950.294 1063.5,950.5C 1056.73,949.546 1050.06,948.212 1043.5,946.5C 1041.49,945.076 1039.15,944.41 1036.5,944.5C 1031.04,944.008 1025.71,943.008 1020.5,941.5C 1018.16,939.96 1015.5,939.294 1012.5,939.5C 1009.06,939.212 1005.73,938.546 1002.5,937.5C 1000.16,935.96 997.495,935.294 994.5,935.5C 993.833,935.5 993.167,935.5 992.5,935.5C 990.562,933.837 988.228,933.171 985.5,933.5C 982.061,933.212 978.728,932.546 975.5,931.5C 973.162,929.96 970.495,929.294 967.5,929.5C 964.37,929.3 961.37,928.634 958.5,927.5C 956.162,925.96 953.495,925.294 950.5,925.5C 945.88,925.26 941.547,924.26 937.5,922.5C 934.781,921.087 931.781,920.42 928.5,920.5C 919.428,918.753 910.428,916.753 901.5,914.5C 899.562,912.837 897.228,912.171 894.5,912.5C 891.572,912.435 888.905,911.768 886.5,910.5C 883.781,909.087 880.781,908.42 877.5,908.5C 877.167,908.5 876.833,908.5 876.5,908.5C 874.898,906.926 872.898,906.259 870.5,906.5C 865.588,906.102 860.921,905.102 856.5,903.5C 854.485,902.076 852.152,901.41 849.5,901.5C 847.901,901.768 846.568,901.434 845.5,900.5C 843.162,898.96 840.495,898.294 837.5,898.5C 837.167,898.5 836.833,898.5 836.5,898.5C 834.898,896.926 832.898,896.259 830.5,896.5C 829.833,896.5 829.167,896.5 828.5,896.5C 826.898,894.926 824.898,894.259 822.5,894.5C 821.833,894.5 821.167,894.5 820.5,894.5C 816.509,892.394 812.176,891.061 807.5,890.5C 806.833,890.5 806.167,890.5 805.5,890.5C 802.619,888.32 799.286,887.32 795.5,887.5C 795.167,887.5 794.833,887.5 794.5,887.5C 792.898,885.926 790.898,885.259 788.5,885.5C 785.733,885.142 783.067,884.475 780.5,883.5C 777.916,881.528 774.916,880.528 771.5,880.5C 769.485,879.076 767.152,878.41 764.5,878.5C 762.738,878.643 761.071,878.309 759.5,877.5C 758.241,865.031 758.907,852.698 761.5,840.5C 762.768,838.095 763.435,835.428 763.5,832.5C 763.42,829.219 764.087,826.219 765.5,823.5C 767.04,821.162 767.706,818.495 767.5,815.5C 767.5,815.167 767.5,814.833 767.5,814.5C 769.806,810.915 771.139,806.915 771.5,802.5C 771.41,799.848 772.076,797.515 773.5,795.5C 775.213,794.365 775.88,792.698 775.5,790.5C 775.5,790.167 775.5,789.833 775.5,789.5C 777.213,788.365 777.88,786.698 777.5,784.5C 778.674,783.486 779.34,782.153 779.5,780.5C 779.5,780.167 779.5,779.833 779.5,779.5C 781.834,777.824 782.834,775.491 782.5,772.5C 782.328,771.508 782.662,770.842 783.5,770.5C 785.834,768.824 786.834,766.491 786.5,763.5C 787.992,759.182 789.992,755.182 792.5,751.5C 794.408,750.514 795.408,748.848 795.5,746.5C 796.833,745.833 797.833,744.833 798.5,743.5 Z"/></g>
<g><path style="opacity:0.455" fill="#252525" d="M 800.5,743.5 C 803.746,744.054 806.746,745.054 809.5,746.5C 806.008,746.554 803.008,745.554 800.5,743.5 Z"/></g>
<g><path style="opacity:0.192" fill="#161616" d="M 798.5,743.5 C 797.833,744.833 796.833,745.833 795.5,746.5C 795.5,744.5 796.5,743.5 798.5,743.5 Z"/></g>
<g><path style="opacity:1" fill="#676767" d="M 94.5,745.5 C 94.8333,745.5 95.1667,745.5 95.5,745.5C 98.3214,747.712 101.655,748.712 105.5,748.5C 107.903,748.448 110.236,748.781 112.5,749.5C 114.78,751.223 117.447,751.889 120.5,751.5C 122.5,751.833 124.5,752.167 126.5,752.5C 128.78,754.223 131.447,754.889 134.5,754.5C 162.048,759.012 189.381,764.012 216.5,769.5C 222.589,771.236 228.922,772.236 235.5,772.5C 260.855,776.371 286.189,780.371 311.5,784.5C 314.123,786.265 317.123,786.932 320.5,786.5C 330.238,787.352 339.905,788.685 349.5,790.5C 349.918,791.222 350.584,791.722 351.5,792C 354.146,792.497 356.813,792.664 359.5,792.5C 375.883,794.555 392.216,796.888 408.5,799.5C 408.918,800.222 409.584,800.722 410.5,801C 413.146,801.497 415.813,801.664 418.5,801.5C 418.833,801.5 419.167,801.5 419.5,801.5C 423.567,803.054 427.9,803.72 432.5,803.5C 435.902,803.342 439.236,803.676 442.5,804.5C 442.918,805.222 443.584,805.722 444.5,806C 447.146,806.497 449.813,806.664 452.5,806.5C 453.167,806.5 453.833,806.5 454.5,806.5C 458.567,808.054 462.9,808.72 467.5,808.5C 470.902,808.342 474.236,808.676 477.5,809.5C 480.876,811.082 484.542,811.749 488.5,811.5C 489.833,811.5 491.167,811.5 492.5,811.5C 498.854,813.631 505.521,814.631 512.5,814.5C 522.488,815.332 532.488,815.998 542.5,816.5C 544.631,817.314 546.964,817.814 549.5,818C 565.163,818.5 580.83,818.667 596.5,818.5C 609.982,818.442 623.315,819.776 636.5,822.5C 641.114,824.83 646.114,826.164 651.5,826.5C 652.167,826.5 652.833,826.5 653.5,826.5C 656.008,828.554 659.008,829.554 662.5,829.5C 670.443,831.37 678.11,834.037 685.5,837.5C 686.287,839.104 687.62,839.771 689.5,839.5C 690.492,839.328 691.158,839.662 691.5,840.5C 692.514,841.674 693.847,842.34 695.5,842.5C 698.744,843.463 701.744,844.796 704.5,846.5C 704.973,847.906 705.973,848.573 707.5,848.5C 707.833,848.5 708.167,848.5 708.5,848.5C 708.821,850.048 709.821,850.715 711.5,850.5C 712.492,850.328 713.158,850.662 713.5,851.5C 713.973,852.906 714.973,853.573 716.5,853.5C 717.492,853.328 718.158,853.662 718.5,854.5C 719.035,856.446 720.368,857.446 722.5,857.5C 723.492,857.328 724.158,857.662 724.5,858.5C 725.733,860.796 727.733,862.13 730.5,862.5C 732.389,863.604 734.055,864.937 735.5,866.5C 735.973,867.906 736.973,868.573 738.5,868.5C 741.784,870.117 744.451,872.45 746.5,875.5C 746.973,876.906 747.973,877.573 749.5,877.5C 751.167,878.5 752.5,879.833 753.5,881.5C 754.5,883.167 755.833,884.5 757.5,885.5C 759.167,887.833 761.167,889.833 763.5,891.5C 764.167,891.5 764.5,891.833 764.5,892.5C 765.5,894.167 766.833,895.5 768.5,896.5C 769.5,896.833 770.167,897.5 770.5,898.5C 770.738,900.404 771.738,901.738 773.5,902.5C 774.5,902.833 775.167,903.5 775.5,904.5C 775.738,906.404 776.738,907.738 778.5,908.5C 779.08,910.749 780.413,912.415 782.5,913.5C 782.738,915.404 783.738,916.738 785.5,917.5C 785.427,919.027 786.094,920.027 787.5,920.5C 787.427,922.027 788.094,923.027 789.5,923.5C 789.427,925.027 790.094,926.027 791.5,926.5C 791.427,928.027 792.094,929.027 793.5,929.5C 794.674,930.514 795.34,931.847 795.5,933.5C 795.427,935.027 796.094,936.027 797.5,936.5C 798.674,937.514 799.34,938.847 799.5,940.5C 799.427,942.027 800.094,943.027 801.5,943.5C 801.5,943.833 801.5,944.167 801.5,944.5C 801.427,946.027 802.094,947.027 803.5,947.5C 806.018,951.877 808.018,956.544 809.5,961.5C 809.166,964.491 810.166,966.824 812.5,968.5C 812.5,968.833 812.5,969.167 812.5,969.5C 812.12,971.698 812.787,973.365 814.5,974.5C 815.434,975.568 815.768,976.901 815.5,978.5C 815.12,980.698 815.787,982.365 817.5,983.5C 817.5,983.833 817.5,984.167 817.5,984.5C 817.259,986.898 817.926,988.898 819.5,990.5C 820.301,992.042 820.634,993.708 820.5,995.5C 820.5,996.833 820.5,998.167 820.5,999.5C 816.298,999.183 812.298,999.517 808.5,1000.5C 766.832,998.53 725.166,996.53 683.5,994.5C 682.048,993.698 680.382,993.198 678.5,993C 672.175,992.5 665.842,992.334 659.5,992.5C 618.148,990.749 576.815,988.582 535.5,986C 493.553,979.977 451.886,972.477 410.5,963.5C 408.162,961.96 405.495,961.294 402.5,961.5C 395.394,960.679 388.394,959.345 381.5,957.5C 379.162,955.96 376.495,955.294 373.5,955.5C 362.033,953.673 350.699,951.34 339.5,948.5C 337.162,946.96 334.495,946.294 331.5,946.5C 323.086,945.217 314.753,943.551 306.5,941.5C 304.562,939.837 302.228,939.171 299.5,939.5C 296.061,939.212 292.728,938.546 289.5,937.5C 287.162,935.96 284.495,935.294 281.5,935.5C 275.044,934.635 268.71,933.302 262.5,931.5C 260.162,929.96 257.495,929.294 254.5,929.5C 248.087,928.418 241.754,927.084 235.5,925.5C 233.562,923.837 231.228,923.171 228.5,923.5C 216.844,921.706 205.51,919.039 194.5,915.5C 190.841,913.658 186.841,912.658 182.5,912.5C 177.38,911.969 172.38,910.969 167.5,909.5C 165.898,907.926 163.898,907.259 161.5,907.5C 158.061,907.212 154.728,906.546 151.5,905.5C 149.562,903.837 147.228,903.171 144.5,903.5C 144.167,903.5 143.833,903.5 143.5,903.5C 141.898,901.926 139.898,901.259 137.5,901.5C 135.435,901.483 133.435,901.15 131.5,900.5C 129.562,898.837 127.228,898.171 124.5,898.5C 124.167,898.5 123.833,898.5 123.5,898.5C 121.898,896.926 119.898,896.259 117.5,896.5C 113.035,895.967 108.702,894.967 104.5,893.5C 101.916,891.528 98.9164,890.528 95.5,890.5C 91.0352,889.967 86.7019,888.967 82.5,887.5C 79.9164,885.528 76.9164,884.528 73.5,884.5C 71.1617,882.96 68.4951,882.294 65.5,882.5C 63.8984,880.926 61.8984,880.259 59.5,880.5C 57.7857,879.262 55.7857,878.595 53.5,878.5C 53.4283,867.817 53.7616,857.15 54.5,846.5C 54.5,846.167 54.5,845.833 54.5,845.5C 55.9034,842.091 56.5701,838.425 56.5,834.5C 57.2317,828.906 58.565,823.573 60.5,818.5C 61.9238,816.485 62.5905,814.152 62.5,811.5C 62.5,811.167 62.5,810.833 62.5,810.5C 64.2132,809.365 64.8799,807.698 64.5,805.5C 65.9238,803.485 66.5905,801.152 66.5,798.5C 66.2627,797.209 66.596,796.209 67.5,795.5C 69.2132,794.365 69.8799,792.698 69.5,790.5C 69.5,790.167 69.5,789.833 69.5,789.5C 71.2132,788.365 71.8799,786.698 71.5,784.5C 73.2132,783.365 73.8799,781.698 73.5,779.5C 75.9893,772.528 78.9893,765.861 82.5,759.5C 84.4077,758.514 85.4077,756.848 85.5,754.5C 85.9925,752.181 86.9925,750.181 88.5,748.5C 89.5,748.167 90.1667,747.5 90.5,746.5C 91.7079,745.766 93.0413,745.433 94.5,745.5 Z"/></g>
<g><path style="opacity:0.529" fill="#292929" d="M 95.5,745.5 C 99.0248,746.21 102.358,747.21 105.5,748.5C 101.655,748.712 98.3214,747.712 95.5,745.5 Z"/></g>
<g><path style="opacity:0.149" fill="#161616" d="M 90.5,746.5 C 90.1667,747.5 89.5,748.167 88.5,748.5C 88.5,747.167 89.1667,746.5 90.5,746.5 Z"/></g>
<g><path style="opacity:0.6" fill="#272727" d="M 812.5,746.5 C 816.373,747.134 820.039,748.134 823.5,749.5C 820.126,749.326 816.793,748.826 813.5,748C 812.944,747.617 812.611,747.117 812.5,746.5 Z"/></g>
<g><path style="opacity:0.51" fill="#282828" d="M 1915.5,747.5 C 1917.7,747.875 1919.7,748.542 1921.5,749.5C 1918.99,749.946 1916.99,749.28 1915.5,747.5 Z"/></g>
<g><path style="opacity:0.22" fill="#272727" d="M 299.5,748.5 C 303.733,748.539 307.733,749.205 311.5,750.5C 307.236,750.656 303.236,749.989 299.5,748.5 Z"/></g>
<g><path style="opacity:0.008" fill="#171717" d="M 112.5,749.5 C 115.373,749.802 118.039,750.469 120.5,751.5C 117.447,751.889 114.78,751.223 112.5,749.5 Z"/></g>
<g><path style="opacity:0.925" fill="#303030" d="M 795.5,746.5 C 795.408,748.848 794.408,750.514 792.5,751.5C 792.75,749.326 793.75,747.659 795.5,746.5 Z"/></g>
<g><path style="opacity:0.502" fill="#272727" d="M 314.5,750.5 C 317.727,750.676 320.727,751.343 323.5,752.5C 320.171,752.785 317.171,752.118 314.5,750.5 Z"/></g>
<g><path style="opacity:0.616" fill="#292929" d="M 126.5,752.5 C 129.373,752.802 132.039,753.469 134.5,754.5C 131.447,754.889 128.78,754.223 126.5,752.5 Z"/></g>
<g><path style="opacity:0.012" fill="#1c1c1c" d="M 150.5,752.5 C 153.495,752.294 156.162,752.96 158.5,754.5C 155.572,754.435 152.905,753.768 150.5,752.5 Z"/></g>
<g><path style="opacity:0.357" fill="#2d2d2d" d="M 327.5,752.5 C 331.011,752.899 334.344,753.566 337.5,754.5C 334.813,754.664 332.146,754.497 329.5,754C 328.584,753.722 327.918,753.222 327.5,752.5 Z"/></g>
<g><path style="opacity:0.635" fill="#2d2d2d" d="M 840.5,752.5 C 843.373,752.802 846.039,753.469 848.5,754.5C 845.447,754.889 842.78,754.223 840.5,752.5 Z"/></g>
<g><path style="opacity:0.008" fill="#191919" d="M 864.5,752.5 C 867.495,752.294 870.162,752.96 872.5,754.5C 869.572,754.435 866.905,753.768 864.5,752.5 Z"/></g>
<g><path style="opacity:0.108" fill="#202020" d="M 851.5,754.5 C 854.373,754.802 857.039,755.469 859.5,756.5C 856.447,756.889 853.78,756.223 851.5,754.5 Z"/></g>
<g><path style="opacity:0.604" fill="#2a2a2a" d="M 1362.5,754.5 C 1363.12,754.611 1363.62,754.944 1364,755.5C 1364.5,757.473 1364.66,759.473 1364.5,761.5C 1363.59,759.343 1362.93,757.01 1362.5,754.5 Z"/></g>
<g><path style="opacity:0.894" fill="#2e2e2e" d="M 85.5,754.5 C 85.4077,756.848 84.4077,758.514 82.5,759.5C 82.7497,757.326 83.7497,755.659 85.5,754.5 Z"/></g>
<g><path style="opacity:0.478" fill="#2d2d2d" d="M 1077.5,757.5 C 1081.01,757.899 1084.34,758.566 1087.5,759.5C 1084.81,759.664 1082.15,759.497 1079.5,759C 1078.58,758.722 1077.92,758.222 1077.5,757.5 Z"/></g>
<g><path style="opacity:0.62" fill="#292929" d="M 656.5,758.5 C 658.223,760.78 658.889,763.447 658.5,766.5C 657.469,764.039 656.802,761.373 656.5,758.5 Z"/></g>
<g><path style="opacity:0.475" fill="#2d2d2d" d="M 388.5,761.5 C 399.326,762.997 409.993,764.664 420.5,766.5C 409.492,766.12 398.825,764.453 388.5,761.5 Z"/></g>
<g><path style="opacity:0.471" fill="#2c2c2c" d="M 1112.5,762.5 C 1116.01,762.899 1119.34,763.566 1122.5,764.5C 1119.81,764.664 1117.15,764.497 1114.5,764C 1113.58,763.722 1112.92,763.222 1112.5,762.5 Z"/></g>
<g><path style="opacity:0.824" fill="#333333" d="M 1958.5,762.5 C 1959.71,762.932 1960.71,763.599 1961.5,764.5C 1959.82,764.715 1958.82,764.048 1958.5,762.5 Z"/></g>
<g><path style="opacity:0.118" fill="#151515" d="M 1962.5,764.5 C 1964.82,764.992 1966.82,765.992 1968.5,767.5C 1965.91,767.539 1963.91,766.539 1962.5,764.5 Z"/></g>
<g><path style="opacity:0.62" fill="#282828" d="M 1140.5,766.5 C 1144.39,766.646 1148.05,767.313 1151.5,768.5C 1147.54,768.749 1143.88,768.082 1140.5,766.5 Z"/></g>
<g><path style="opacity:0.82" fill="#363636" d="M 2499.5,766.5 C 2491.06,768.137 2482.39,768.803 2473.5,768.5C 2481.96,767.001 2490.62,766.335 2499.5,766.5 Z"/></g>
<g><path style="opacity:0.48" fill="#2c2c2c" d="M 429.5,767.5 C 433.705,767.717 437.705,768.383 441.5,769.5C 437.21,769.802 433.21,769.136 429.5,767.5 Z"/></g>
<g><path style="opacity:0.843" fill="#363636" d="M 786.5,763.5 C 786.834,766.491 785.834,768.824 783.5,770.5C 783.707,767.759 784.707,765.426 786.5,763.5 Z"/></g>
<g><path style="opacity:0.651" fill="#2b2b2b" d="M 923.5,767.5 C 928.684,768.193 933.684,769.193 938.5,770.5C 933.126,770.664 928.126,769.664 923.5,767.5 Z"/></g>
<g><path style="opacity:0.808" fill="#2f2f2f" d="M 1968.5,767.5 C 1969.71,767.932 1970.71,768.599 1971.5,769.5C 1969.82,769.715 1968.82,769.048 1968.5,767.5 Z"/></g>
<g><path style="opacity:0.608" fill="#2a2a2a" d="M 216.5,769.5 C 223.078,769.764 229.411,770.764 235.5,772.5C 228.922,772.236 222.589,771.236 216.5,769.5 Z"/></g>
<g><path style="opacity:0.18" fill="#1a1a1a" d="M 240.5,768.5 C 243.495,768.294 246.162,768.96 248.5,770.5C 245.572,770.435 242.905,769.768 240.5,768.5 Z"/></g>
<g><path style="opacity:0.494" fill="#2b2b2b" d="M 1155.5,768.5 C 1159.68,768.851 1163.68,769.518 1167.5,770.5C 1163.18,770.917 1159.18,770.25 1155.5,768.5 Z"/></g>
<g><path style="opacity:0.008" fill="#111111" d="M 1975.5,771.5 C 1977.03,771.427 1978.03,772.094 1978.5,773.5C 1976.97,773.573 1975.97,772.906 1975.5,771.5 Z"/></g>
<g><path style="opacity:0.143" fill="#191919" d="M 269.5,773.5 C 272.829,773.215 275.829,773.882 278.5,775.5C 275.273,775.324 272.273,774.657 269.5,773.5 Z"/></g>
<g><path style="opacity:0.635" fill="#2e2e2e" d="M 961.5,774.5 C 966.076,774.438 970.409,775.105 974.5,776.5C 969.924,776.562 965.591,775.895 961.5,774.5 Z"/></g>
<g><path style="opacity:0.459" fill="#313131" d="M 1191.5,773.5 C 1200.03,774.002 1208.37,775.002 1216.5,776.5C 1207.92,776.436 1199.58,775.436 1191.5,773.5 Z"/></g>
<g><path style="opacity:0.388" fill="#2b2b2b" d="M 479.5,774.5 C 491.388,775.117 503.054,776.45 514.5,778.5C 502.612,777.883 490.946,776.55 479.5,774.5 Z"/></g>
<g><path style="opacity:0.898" fill="#2f2f2f" d="M 782.5,772.5 C 782.834,775.491 781.834,777.824 779.5,779.5C 779.935,776.843 780.935,774.509 782.5,772.5 Z"/></g>
<g><path style="opacity:0.812" fill="#2c2c2c" d="M 1980.5,774.5 C 1982.23,775.026 1983.56,776.026 1984.5,777.5C 1982.37,777.446 1981.03,776.446 1980.5,774.5 Z"/></g>
<g><path style="opacity:0.009" fill="#191919" d="M 1016.5,778.5 C 1019.78,778.42 1022.78,779.087 1025.5,780.5C 1022.22,780.58 1019.22,779.913 1016.5,778.5 Z"/></g>
<g><path style="opacity:0.431" fill="#2f2f2f" d="M 1238.5,778.5 C 1246.65,779.378 1254.65,780.378 1262.5,781.5C 1255.14,781.442 1247.81,780.942 1240.5,780C 1239.58,779.722 1238.92,779.222 1238.5,778.5 Z"/></g>
<g><path style="opacity:0.427" fill="#252525" d="M 1984.5,777.5 C 1986.75,778.124 1988.42,779.457 1989.5,781.5C 1987.21,780.864 1985.54,779.531 1984.5,777.5 Z"/></g>
<g><path style="opacity:0.298" fill="#313131" d="M 514.5,778.5 C 533.365,779.985 552.032,781.985 570.5,784.5C 551.591,783.41 532.925,781.41 514.5,778.5 Z"/></g>
<g><path style="opacity:0.412" fill="#1b1b1b" d="M 779.5,780.5 C 779.34,782.153 778.674,783.486 777.5,784.5C 777.229,782.62 777.896,781.287 779.5,780.5 Z"/></g>
<g><path style="opacity:0.02" fill="#1b1b1b" d="M 1002.5,780.5 C 1006.01,780.899 1009.34,781.566 1012.5,782.5C 1009.81,782.664 1007.15,782.497 1004.5,782C 1003.58,781.722 1002.92,781.222 1002.5,780.5 Z"/></g>
<g><path style="opacity:0.592" fill="#323232" d="M 1367.5,778.5 C 1369.07,780.102 1369.74,782.102 1369.5,784.5C 1368.26,782.786 1367.59,780.786 1367.5,778.5 Z"/></g>
<g><path style="opacity:0.737" fill="#2b2b2b" d="M 73.5,779.5 C 73.8799,781.698 73.2132,783.365 71.5,784.5C 71.7959,782.597 72.4625,780.93 73.5,779.5 Z"/></g>
<g><path style="opacity:0.545" fill="#1f1f1f" d="M 1989.5,781.5 C 1992.57,783.569 1994.91,786.236 1996.5,789.5C 1993.43,787.431 1991.09,784.764 1989.5,781.5 Z"/></g>
<g><path style="opacity:0.822" fill="#343434" d="M 1267.5,781.5 C 1277.02,782.068 1286.36,783.068 1295.5,784.5C 1285.88,784.802 1276.55,783.802 1267.5,781.5 Z"/></g>
<g><path style="opacity:0.053" fill="#0c0c0c" d="M 661.5,783.5 C 662.401,784.29 663.068,785.29 663.5,786.5C 661.952,786.179 661.285,785.179 661.5,783.5 Z"/></g>
<g><path style="opacity:0.837" fill="#3d3d3d" d="M 1370.5,784.5 C 1375.45,784.123 1380.12,784.789 1384.5,786.5C 1379.59,786.638 1374.92,785.972 1370.5,784.5 Z"/></g>
<g><path style="opacity:0.29" fill="#272727" d="M 311.5,784.5 C 314.689,784.858 317.689,785.525 320.5,786.5C 317.123,786.932 314.123,786.265 311.5,784.5 Z"/></g>
<g><path style="opacity:0.009" fill="#181818" d="M 1054.5,784.5 C 1057.78,784.42 1060.78,785.087 1063.5,786.5C 1060.22,786.58 1057.22,785.913 1054.5,784.5 Z"/></g>
<g><path style="opacity:0.627" fill="#333333" d="M 1306.5,784.5 C 1314.99,785.004 1323.33,785.67 1331.5,786.5C 1324.49,786.666 1317.49,786.5 1310.5,786C 1308.94,785.79 1307.61,785.29 1306.5,784.5 Z"/></g>
<g><path style="opacity:0.804" fill="#3e3e3e" d="M 2218.5,785.5 C 2209.38,787.058 2200.05,787.725 2190.5,787.5C 2199.65,786.344 2208.98,785.677 2218.5,785.5 Z"/></g>
<g><path style="opacity:0.678" fill="#272727" d="M 71.5,784.5 C 71.8799,786.698 71.2132,788.365 69.5,789.5C 69.7959,787.597 70.4625,785.93 71.5,784.5 Z"/></g>
<g><path style="opacity:0.91" fill="#383838" d="M 589.5,785.5 C 605.341,786.14 621.008,787.14 636.5,788.5C 620.591,788.907 604.925,787.907 589.5,785.5 Z"/></g>
<g><path style="opacity:0.678" fill="#262626" d="M 777.5,784.5 C 777.88,786.698 777.213,788.365 775.5,789.5C 775.796,787.597 776.463,785.93 777.5,784.5 Z"/></g>
<g><path style="opacity:0.567" fill="#2b2b2b" d="M 1357.5,787.5 C 1361.36,787.808 1365.03,788.475 1368.5,789.5C 1365.48,789.665 1362.48,789.498 1359.5,789C 1358.58,788.722 1357.92,788.222 1357.5,787.5 Z"/></g>
<g><path style="opacity:0.469" fill="#333333" d="M 656.5,790.5 C 669.691,790.951 682.691,791.951 695.5,793.5C 682.287,793.355 669.287,792.355 656.5,790.5 Z"/></g>
<g><path style="opacity:0.647" fill="#313131" d="M 1376.5,789.5 C 1385.99,790.39 1395.32,791.39 1404.5,792.5C 1395.81,792.427 1387.14,791.927 1378.5,791C 1377.58,790.722 1376.92,790.222 1376.5,789.5 Z"/></g>
<g><path style="opacity:0.302" fill="#292929" d="M 349.5,790.5 C 353.011,790.899 356.344,791.566 359.5,792.5C 356.813,792.664 354.146,792.497 351.5,792C 350.584,791.722 349.918,791.222 349.5,790.5 Z"/></g>
<g><path style="opacity:0.263" fill="#202020" d="M 1996.5,789.5 C 1997.91,789.973 1998.57,790.973 1998.5,792.5C 1997.09,792.027 1996.43,791.027 1996.5,789.5 Z"/></g>
<g><path style="opacity:0.82" fill="#2d2d2d" d="M 69.5,790.5 C 69.8799,792.698 69.2132,794.365 67.5,795.5C 67.4021,793.447 68.0687,791.78 69.5,790.5 Z"/></g>
<g><path style="opacity:0.796" fill="#2f2f2f" d="M 775.5,790.5 C 775.88,792.698 775.213,794.365 773.5,795.5C 773.796,793.597 774.463,791.93 775.5,790.5 Z"/></g>
<g><path style="opacity:0.392" fill="#2e2e2e" d="M 1083.5,793.5 C 1094.35,794.811 1105.02,796.477 1115.5,798.5C 1104.52,797.933 1093.85,796.267 1083.5,793.5 Z"/></g>
<g><path style="opacity:0.892" fill="#3a3a3a" d="M 1547.5,796.5 C 1567.39,796.107 1587.06,797.107 1606.5,799.5C 1586.66,798.855 1566.99,797.855 1547.5,796.5 Z"/></g>
<g><path style="opacity:0.016" fill="#191919" d="M 1999.5,794.5 C 2000.43,795.568 2000.77,796.901 2000.5,798.5C 1998.83,798.5 1997.17,798.5 1995.5,798.5C 1996.57,797.566 1997.9,797.232 1999.5,797.5C 1999.5,796.5 1999.5,795.5 1999.5,794.5 Z"/></g>
<g><path style="opacity:0.275" fill="#292929" d="M 763.5,798.5 C 764.833,798.5 766.167,798.5 767.5,798.5C 767.784,800.415 767.451,802.081 766.5,803.5C 766.5,802.167 766.5,800.833 766.5,799.5C 765.209,799.737 764.209,799.404 763.5,798.5 Z"/></g>
<g><path style="opacity:0.887" fill="#373737" d="M 1480.5,797.5 C 1488.83,797.884 1497.16,798.218 1505.5,798.5C 1502.35,799.165 1499.02,799.498 1495.5,799.5C 1490.24,799.666 1485.24,798.999 1480.5,797.5 Z"/></g>
<g><path style="opacity:0.91" fill="#3f3f3f" d="M 2052.5,797.5 C 2045.4,799.177 2038.07,799.843 2030.5,799.5C 2037.62,798.072 2044.95,797.406 2052.5,797.5 Z"/></g>
<g><path style="opacity:0.918" fill="#414141" d="M 437.5,799.5 C 441.489,799.116 445.155,799.783 448.5,801.5C 444.64,801.192 440.974,800.525 437.5,799.5 Z"/></g>
<g><path style="opacity:0.625" fill="#282828" d="M 1117.5,798.5 C 1121.08,798.549 1124.41,799.215 1127.5,800.5C 1123.88,800.678 1120.54,800.011 1117.5,798.5 Z"/></g>
<g><path style="opacity:0.914" fill="#414141" d="M 1153.5,799.5 C 1157.82,799.083 1161.82,799.75 1165.5,801.5C 1161.32,801.149 1157.32,800.482 1153.5,799.5 Z"/></g>
<g><path style="opacity:0.506" fill="#2d2d2d" d="M 408.5,799.5 C 412.011,799.899 415.344,800.566 418.5,801.5C 415.813,801.664 413.146,801.497 410.5,801C 409.584,800.722 408.918,800.222 408.5,799.5 Z"/></g>
<g><path style="opacity:0.756" fill="#353535" d="M 1519.5,799.5 C 1528.99,799.988 1538.33,800.655 1547.5,801.5C 1539.83,801.666 1532.16,801.5 1524.5,801C 1522.62,800.802 1520.95,800.302 1519.5,799.5 Z"/></g>
<g><path style="opacity:0.871" fill="#2e2e2e" d="M 1648.5,800.5 C 1713.17,800.98 1777.83,801.313 1842.5,801.5C 1843.17,801.5 1843.5,801.833 1843.5,802.5C 1794.17,802.667 1744.83,802.5 1695.5,802C 1679.66,801.831 1663.99,801.331 1648.5,800.5 Z"/></g>
<g><path style="opacity:0.761" fill="#3c3c3c" d="M 1842.5,801.5 C 1875,800.502 1907.66,800.168 1940.5,800.5C 1908.34,801.673 1876.01,802.34 1843.5,802.5C 1843.5,801.833 1843.17,801.5 1842.5,801.5 Z"/></g>
<g><path style="opacity:0.635" fill="#282828" d="M 66.5,798.5 C 66.5905,801.152 65.9238,803.485 64.5,805.5C 64.4095,802.848 65.0762,800.515 66.5,798.5 Z"/></g>
<g><path style="opacity:0.433" fill="#2f2f2f" d="M 1127.5,800.5 C 1135.07,800.772 1142.4,801.772 1149.5,803.5C 1141.93,803.228 1134.6,802.228 1127.5,800.5 Z"/></g>
<g><path style="opacity:0.716" fill="#3c3c3c" d="M 2024.5,800.5 C 2016.72,802.01 2008.72,802.677 2000.5,802.5C 2008.31,801.283 2016.31,800.616 2024.5,800.5 Z"/></g>
<g><path style="opacity:0.388" fill="#323232" d="M 419.5,801.5 C 424.049,801.624 428.382,802.291 432.5,803.5C 427.9,803.72 423.567,803.054 419.5,801.5 Z"/></g>
<g><path style="opacity:0.435" fill="#2f2f2f" d="M 442.5,804.5 C 446.011,804.899 449.344,805.566 452.5,806.5C 449.813,806.664 447.146,806.497 444.5,806C 443.584,805.722 442.918,805.222 442.5,804.5 Z"/></g>
<g><path style="opacity:0.792" fill="#303030" d="M 771.5,802.5 C 771.139,806.915 769.806,810.915 767.5,814.5C 768.261,810.216 769.595,806.216 771.5,802.5 Z"/></g>
<g><path style="opacity:0.435" fill="#333333" d="M 1152.5,803.5 C 1158.36,804.141 1164.02,805.141 1169.5,806.5C 1163.5,806.667 1157.83,805.667 1152.5,803.5 Z"/></g>
<g><path style="opacity:0.149" fill="#2f2f2f" d="M 1688.5,805.5 C 1719,806.056 1749.33,806.723 1779.5,807.5C 1753.16,807.667 1726.83,807.5 1700.5,807C 1696.31,806.824 1692.31,806.324 1688.5,805.5 Z"/></g>
<g><path style="opacity:0.619" fill="#323232" d="M 1926.5,805.5 C 1923.69,806.319 1920.69,806.819 1917.5,807C 1895.17,807.5 1872.84,807.667 1850.5,807.5C 1875.67,806.733 1901.01,806.066 1926.5,805.5 Z"/></g>
<g><path style="opacity:0.302" fill="#2d2d2d" d="M 454.5,806.5 C 459.049,806.624 463.382,807.291 467.5,808.5C 462.9,808.72 458.567,808.054 454.5,806.5 Z"/></g>
<g><path style="opacity:0.792" fill="#303030" d="M 64.5,805.5 C 64.8799,807.698 64.2132,809.365 62.5,810.5C 62.7959,808.597 63.4625,806.93 64.5,805.5 Z"/></g>
<g><path style="opacity:0.598" fill="#262626" d="M 477.5,809.5 C 481.387,809.646 485.054,810.313 488.5,811.5C 484.542,811.749 480.876,811.082 477.5,809.5 Z"/></g>
<g><path style="opacity:0.893" fill="#3c3c3c" d="M 550.5,812.5 C 564.837,812.333 579.171,812.5 593.5,813C 597.025,813.179 600.359,813.679 603.5,814.5C 585.661,814.202 567.995,813.535 550.5,812.5 Z"/></g>
<g><path style="opacity:0.369" fill="#2f2f2f" d="M 492.5,811.5 C 499.347,812.186 506.014,813.186 512.5,814.5C 505.521,814.631 498.854,813.631 492.5,811.5 Z"/></g>
<g><path style="opacity:0.435" fill="#2c2c2c" d="M 1210.5,811.5 C 1221.13,812.896 1231.79,813.896 1242.5,814.5C 1242.5,814.833 1242.5,815.167 1242.5,815.5C 1232.8,815.064 1223.14,814.231 1213.5,813C 1212.26,812.768 1211.26,812.268 1210.5,811.5 Z"/></g>
<g><path style="opacity:0.624" fill="#272727" d="M 62.5,811.5 C 62.5905,814.152 61.9238,816.485 60.5,818.5C 60.4095,815.848 61.0762,813.515 62.5,811.5 Z"/></g>
<g><path style="opacity:0.722" fill="#353535" d="M 606.5,814.5 C 610.846,814.334 615.179,814.501 619.5,815C 621.058,815.21 622.391,815.71 623.5,816.5C 617.661,816.102 611.994,815.435 606.5,814.5 Z"/></g>
<g><path style="opacity:0.267" fill="#2c2c2c" d="M 1242.5,815.5 C 1242.5,815.167 1242.5,814.833 1242.5,814.5C 1255.66,815.023 1268.66,815.689 1281.5,816.5C 1268.42,816.814 1255.42,816.48 1242.5,815.5 Z"/></g>
<g><path style="opacity:0.658" fill="#393939" d="M 542.5,816.5 C 560.661,817.035 578.661,817.701 596.5,818.5C 580.83,818.667 565.163,818.5 549.5,818C 546.964,817.814 544.631,817.314 542.5,816.5 Z"/></g>
<g><path style="opacity:0.006" fill="#181818" d="M 1341.5,816.5 C 1344.15,816.41 1346.49,817.076 1348.5,818.5C 1345.85,818.59 1343.51,817.924 1341.5,816.5 Z"/></g>
<g><path style="opacity:0.431" fill="#323232" d="M 1313.5,817.5 C 1319.73,817.388 1325.73,818.054 1331.5,819.5C 1325.29,819.477 1319.29,818.81 1313.5,817.5 Z"/></g>
<g><path style="opacity:0.835" fill="#323232" d="M 767.5,815.5 C 767.706,818.495 767.04,821.162 765.5,823.5C 765.294,820.505 765.96,817.838 767.5,815.5 Z"/></g>
<g><path style="opacity:0.722" fill="#2c2c2c" d="M 650.5,821.5 C 652.898,821.259 654.898,821.926 656.5,823.5C 654.214,823.405 652.214,822.738 650.5,821.5 Z"/></g>
<g><path style="opacity:0.69" fill="#2a2a2a" d="M 1362.5,821.5 C 1364.9,821.259 1366.9,821.926 1368.5,823.5C 1366.21,823.405 1364.21,822.738 1362.5,821.5 Z"/></g>
<g><path style="opacity:0.651" fill="#282828" d="M 1345.5,821.5 C 1349.37,822.134 1353.04,823.134 1356.5,824.5C 1353.13,824.326 1349.79,823.826 1346.5,823C 1345.94,822.617 1345.61,822.117 1345.5,821.5 Z"/></g>
<g><path style="opacity:0.478" fill="#242424" d="M 636.5,822.5 C 641.745,823.342 646.745,824.675 651.5,826.5C 646.114,826.164 641.114,824.83 636.5,822.5 Z"/></g>
<g><path style="opacity:0.741" fill="#2f2f2f" d="M 1372.5,824.5 C 1374.7,824.12 1376.36,824.787 1377.5,826.5C 1375.6,826.204 1373.93,825.537 1372.5,824.5 Z"/></g>
<g><path style="opacity:0.765" fill="#2f2f2f" d="M 664.5,825.5 C 666.698,825.12 668.365,825.787 669.5,827.5C 667.597,827.204 665.93,826.537 664.5,825.5 Z"/></g>
<g><path style="opacity:0.561" fill="#2c2c2c" d="M 1361.5,825.5 C 1363.4,825.796 1365.07,826.463 1366.5,827.5C 1364.3,827.88 1362.64,827.213 1361.5,825.5 Z"/></g>
<g><path style="opacity:0.796" fill="#303030" d="M 1378.5,826.5 C 1380.7,826.12 1382.36,826.787 1383.5,828.5C 1381.6,828.204 1379.93,827.537 1378.5,826.5 Z"/></g>
<g><path style="opacity:0.514" fill="#252525" d="M 653.5,826.5 C 656.746,827.054 659.746,828.054 662.5,829.5C 659.008,829.554 656.008,828.554 653.5,826.5 Z"/></g>
<g><path style="opacity:0.816" fill="#313131" d="M 1386.5,829.5 C 1388.7,829.12 1390.36,829.787 1391.5,831.5C 1389.6,831.204 1387.93,830.537 1386.5,829.5 Z"/></g>
<g><path style="opacity:0.733" fill="#2a2a2a" d="M 678.5,830.5 C 680.698,830.12 682.365,830.787 683.5,832.5C 681.597,832.204 679.93,831.537 678.5,830.5 Z"/></g>
<g><path style="opacity:0.255" fill="#1e1e1e" d="M 1382.5,832.5 C 1384.55,832.402 1386.22,833.069 1387.5,834.5C 1385.45,834.598 1383.78,833.931 1382.5,832.5 Z"/></g>
<g><path style="opacity:0.831" fill="#313131" d="M 688.5,834.5 C 690.698,834.12 692.365,834.787 693.5,836.5C 691.597,836.204 689.93,835.537 688.5,834.5 Z"/></g>
<g><path style="opacity:0.216" fill="#1f1f1f" d="M 685.5,837.5 C 687.153,837.66 688.486,838.326 689.5,839.5C 687.62,839.771 686.287,839.104 685.5,837.5 Z"/></g>
<g><path style="opacity:0.459" fill="#242424" d="M 763.5,832.5 C 763.435,835.428 762.768,838.095 761.5,840.5C 761.294,837.505 761.96,834.838 763.5,832.5 Z"/></g>
<g><path style="opacity:0.114" fill="#1a1a1a" d="M 691.5,840.5 C 693.38,840.229 694.713,840.896 695.5,842.5C 693.847,842.34 692.514,841.674 691.5,840.5 Z"/></g>
<g><path style="opacity:0.349" fill="#2d2d2d" d="M 56.5,834.5 C 56.5701,838.425 55.9034,842.091 54.5,845.5C 54.4299,841.575 55.0966,837.909 56.5,834.5 Z"/></g>
<g><path style="opacity:0.243" fill="#1c1c1c" d="M 1417.5,843.5 C 1419.03,843.427 1420.03,844.094 1420.5,845.5C 1418.97,845.573 1417.97,844.906 1417.5,843.5 Z"/></g>
<g><path style="opacity:0.004" fill="#101010" d="M 704.5,846.5 C 706.027,846.427 707.027,847.094 707.5,848.5C 705.973,848.573 704.973,847.906 704.5,846.5 Z"/></g>
<g><path style="opacity:0.145" fill="#181818" d="M 711.5,845.5 C 713.027,845.427 714.027,846.094 714.5,847.5C 712.973,847.573 711.973,846.906 711.5,845.5 Z"/></g>
<g><path style="opacity:0.18" fill="#191919" d="M 1422.5,846.5 C 1424.03,846.427 1425.03,847.094 1425.5,848.5C 1423.97,848.573 1422.97,847.906 1422.5,846.5 Z"/></g>
<g><path style="opacity:0.89" fill="#333333" d="M 1415.5,847.5 C 1416.71,847.932 1417.71,848.599 1418.5,849.5C 1416.82,849.715 1415.82,849.048 1415.5,847.5 Z"/></g>
<g><path style="opacity:0.737" fill="#292929" d="M 708.5,848.5 C 709.71,848.932 710.71,849.599 711.5,850.5C 709.821,850.715 708.821,850.048 708.5,848.5 Z"/></g>
<g><path style="opacity:0.086" fill="#111111" d="M 1425.5,848.5 C 1427.03,848.427 1428.03,849.094 1428.5,850.5C 1426.97,850.573 1425.97,849.906 1425.5,848.5 Z"/></g>
<g><path style="opacity:0.278" fill="#1f1f1f" d="M 718.5,849.5 C 720.027,849.427 721.027,850.094 721.5,851.5C 719.973,851.573 718.973,850.906 718.5,849.5 Z"/></g>
<g><path style="opacity:0.004" fill="#0d0d0d" d="M 713.5,851.5 C 715.027,851.427 716.027,852.094 716.5,853.5C 714.973,853.573 713.973,852.906 713.5,851.5 Z"/></g>
<g><path style="opacity:0.004" fill="#0d0d0d" d="M 1422.5,851.5 C 1424.03,851.427 1425.03,852.094 1425.5,853.5C 1423.97,853.573 1422.97,852.906 1422.5,851.5 Z"/></g>
<g><path style="opacity:0.212" fill="#1f1f1f" d="M 721.5,851.5 C 723.027,851.427 724.027,852.094 724.5,853.5C 722.973,853.573 721.973,852.906 721.5,851.5 Z"/></g>
<g><path style="opacity:0.431" fill="#252525" d="M 1432.5,852.5 C 1434.4,852.738 1435.74,853.738 1436.5,855.5C 1434.6,855.262 1433.26,854.262 1432.5,852.5 Z"/></g>
<g><path style="opacity:0.212" fill="#171717" d="M 724.5,853.5 C 726.027,853.427 727.027,854.094 727.5,855.5C 725.973,855.573 724.973,854.906 724.5,853.5 Z"/></g>
<g><path style="opacity:0.788" fill="#2c2c2c" d="M 718.5,854.5 C 720.23,855.026 721.564,856.026 722.5,857.5C 720.368,857.446 719.035,856.446 718.5,854.5 Z"/></g>
<g><path style="opacity:0.22" fill="#1a1a1a" d="M 727.5,855.5 C 729.027,855.427 730.027,856.094 730.5,857.5C 728.973,857.573 727.973,856.906 727.5,855.5 Z"/></g>
<g><path style="opacity:0.243" fill="#1a1a1a" d="M 1436.5,855.5 C 1438.03,855.427 1439.03,856.094 1439.5,857.5C 1437.97,857.573 1436.97,856.906 1436.5,855.5 Z"/></g>
<g><path style="opacity:0.286" fill="#1e1e1e" d="M 730.5,857.5 C 732.027,857.427 733.027,858.094 733.5,859.5C 731.973,859.573 730.973,858.906 730.5,857.5 Z"/></g>
<g><path style="opacity:0.314" fill="#232323" d="M 1439.5,857.5 C 1441.03,857.427 1442.03,858.094 1442.5,859.5C 1440.97,859.573 1439.97,858.906 1439.5,857.5 Z"/></g>
<g><path style="opacity:0.02" fill="#1c1c1c" d="M 1433.5,858.5 C 1435.23,859.026 1436.56,860.026 1437.5,861.5C 1435.37,861.446 1434.03,860.446 1433.5,858.5 Z"/></g>
<g><path style="opacity:0.004" fill="#1b1b1b" d="M 724.5,858.5 C 726.882,859.351 728.882,860.684 730.5,862.5C 727.733,862.13 725.733,860.796 724.5,858.5 Z"/></g>
<g><path style="opacity:0.42" fill="#222222" d="M 733.5,859.5 C 735.404,859.738 736.738,860.738 737.5,862.5C 735.596,862.262 734.262,861.262 733.5,859.5 Z"/></g>
<g><path style="opacity:0.863" fill="#2c2c2c" d="M 1437.5,861.5 C 1439.23,862.026 1440.56,863.026 1441.5,864.5C 1439.37,864.446 1438.03,863.446 1437.5,861.5 Z"/></g>
<g><path style="opacity:0.125" fill="#1a1a1a" d="M 1442.5,859.5 C 1444.75,860.08 1446.42,861.413 1447.5,863.5C 1445.25,862.92 1443.58,861.587 1442.5,859.5 Z"/></g>
<g><path style="opacity:0.515" fill="#404040" d="M 54.5,846.5 C 53.7616,857.15 53.4283,867.817 53.5,878.5C 55.7857,878.595 57.7857,879.262 59.5,880.5C 56.314,880.663 53.6473,879.663 51.5,877.5C 52.0468,866.999 53.0468,856.665 54.5,846.5 Z"/></g>
<g><path style="opacity:0.416" fill="#222222" d="M 737.5,862.5 C 739.404,862.738 740.738,863.738 741.5,865.5C 739.596,865.262 738.262,864.262 737.5,862.5 Z"/></g>
<g><path style="opacity:0.506" fill="#242424" d="M 1447.5,863.5 C 1449.03,863.427 1450.03,864.094 1450.5,865.5C 1448.97,865.573 1447.97,864.906 1447.5,863.5 Z"/></g>
<g><path style="opacity:0.576" fill="#222222" d="M 741.5,865.5 C 743.404,865.738 744.738,866.738 745.5,868.5C 743.596,868.262 742.262,867.262 741.5,865.5 Z"/></g>
<g><path style="opacity:0.788" fill="#2a2a2a" d="M 1450.5,865.5 C 1453.09,866.419 1455.09,868.086 1456.5,870.5C 1453.91,869.581 1451.91,867.914 1450.5,865.5 Z"/></g>
<g><path style="opacity:0.012" fill="#151515" d="M 735.5,866.5 C 737.027,866.427 738.027,867.094 738.5,868.5C 736.973,868.573 735.973,867.906 735.5,866.5 Z"/></g>
<g><path style="opacity:0.549" fill="#2c2c2c" d="M 1441.5,864.5 C 1443.23,865.026 1444.56,866.026 1445.5,867.5C 1443.37,867.446 1442.03,866.446 1441.5,864.5 Z"/></g>
<g><path style="opacity:0.004" fill="#0e0e0e" d="M 1445.5,867.5 C 1446.83,867.5 1447.5,868.167 1447.5,869.5C 1446.5,869.167 1445.83,868.5 1445.5,867.5 Z"/></g>
<g><path style="opacity:0.341" fill="#242424" d="M 745.5,868.5 C 747.027,868.427 748.027,869.094 748.5,870.5C 746.973,870.573 745.973,869.906 745.5,868.5 Z"/></g>
<g><path style="opacity:0.063" fill="#1c1c1c" d="M 748.5,870.5 C 750.017,870.511 751.184,871.177 752,872.5C 752.383,871.944 752.883,871.611 753.5,871.5C 751.67,874.03 750.004,873.697 748.5,870.5 Z"/></g>
<g><path style="opacity:0.008" fill="#151515" d="M 1451.5,872.5 C 1453.4,872.738 1454.74,873.738 1455.5,875.5C 1453.6,875.262 1452.26,874.262 1451.5,872.5 Z"/></g>
<g><path style="opacity:0.604" fill="#1f1f1f" d="M 1458.5,872.5 C 1462.1,874.43 1465.1,877.097 1467.5,880.5C 1463.9,878.57 1460.9,875.903 1458.5,872.5 Z"/></g>
<g><path style="opacity:0.027" fill="#191919" d="M 746.5,875.5 C 748.027,875.427 749.027,876.094 749.5,877.5C 747.973,877.573 746.973,876.906 746.5,875.5 Z"/></g>
<g><path style="opacity:0.773" fill="#333333" d="M 764.5,878.5 C 767.152,878.41 769.485,879.076 771.5,880.5C 768.848,880.59 766.515,879.924 764.5,878.5 Z"/></g>
<g><path style="opacity:0.733" fill="#2a2a2a" d="M 59.5,880.5 C 61.8984,880.259 63.8984,880.926 65.5,882.5C 63.2143,882.405 61.2143,881.738 59.5,880.5 Z"/></g>
<g><path style="opacity:0.796" fill="#292929" d="M 771.5,880.5 C 774.916,880.528 777.916,881.528 780.5,883.5C 777.146,883.253 774.146,882.253 771.5,880.5 Z"/></g>
<g><path style="opacity:0.016" fill="#181818" d="M 1460.5,880.5 C 1465.83,883.833 1470.17,888.167 1473.5,893.5C 1468.83,889.5 1464.5,885.167 1460.5,880.5 Z"/></g>
<g><path style="opacity:0.004" fill="#141414" d="M 753.5,881.5 C 755.833,881.833 757.167,883.167 757.5,885.5C 755.833,884.5 754.5,883.167 753.5,881.5 Z"/></g>
<g><path style="opacity:0.737" fill="#2e2e2e" d="M 65.5,882.5 C 68.4951,882.294 71.1617,882.96 73.5,884.5C 70.5718,884.435 67.9052,883.768 65.5,882.5 Z"/></g>
<g><path style="opacity:0.757" fill="#282828" d="M 73.5,884.5 C 76.9164,884.528 79.9164,885.528 82.5,887.5C 79.2154,887.072 76.2154,886.072 73.5,884.5 Z"/></g>
<g><path style="opacity:0.91" fill="#2f2f2f" d="M 771.5,885.5 C 769.801,885.34 768.134,885.506 766.5,886C 767.252,886.671 767.586,887.504 767.5,888.5C 764.771,886.861 764.438,885.195 766.5,883.5C 768.422,883.801 770.088,884.467 771.5,885.5 Z"/></g>
<g><path style="opacity:0.035" fill="#1a1a1a" d="M 757.5,885.5 C 760.5,886.5 762.5,888.5 763.5,891.5C 761.167,889.833 759.167,887.833 757.5,885.5 Z"/></g>
<g><path style="opacity:1" fill="#656565" d="M 771.5,885.5 C 776.933,886.525 782.267,887.858 787.5,889.5C 789.102,891.074 791.102,891.741 793.5,891.5C 794.167,891.5 794.833,891.5 795.5,891.5C 796.99,893.28 798.99,893.946 801.5,893.5C 803.292,893.366 804.958,893.699 806.5,894.5C 808.102,896.074 810.102,896.741 812.5,896.5C 815.903,896.851 819.237,897.518 822.5,898.5C 825.452,900.41 828.786,901.41 832.5,901.5C 833.167,901.5 833.833,901.5 834.5,901.5C 837.321,903.712 840.655,904.712 844.5,904.5C 846.292,904.366 847.958,904.699 849.5,905.5C 855.436,908.236 861.77,909.902 868.5,910.5C 868.833,910.5 869.167,910.5 869.5,910.5C 871.102,912.074 873.102,912.741 875.5,912.5C 876.5,912.5 877.5,912.5 878.5,912.5C 879.99,914.28 881.99,914.946 884.5,914.5C 890.921,915.418 897.255,916.752 903.5,918.5C 904.99,920.28 906.99,920.946 909.5,920.5C 910.167,920.5 910.833,920.5 911.5,920.5C 913.438,922.163 915.772,922.829 918.5,922.5C 920.5,922.833 922.5,923.167 924.5,923.5C 925.99,925.28 927.99,925.946 930.5,925.5C 932.621,925.325 934.621,925.659 936.5,926.5C 939.763,928.568 943.43,929.568 947.5,929.5C 949.861,929.674 952.194,930.007 954.5,930.5C 954.611,931.117 954.944,931.617 955.5,932C 957.473,932.495 959.473,932.662 961.5,932.5C 963.216,932.629 964.883,932.962 966.5,933.5C 968.438,935.163 970.772,935.829 973.5,935.5C 974.5,935.5 975.5,935.5 976.5,935.5C 976.611,936.117 976.944,936.617 977.5,937C 980.793,937.826 984.126,938.326 987.5,938.5C 987.833,938.5 988.167,938.5 988.5,938.5C 990.438,940.163 992.772,940.829 995.5,940.5C 996.5,940.5 997.5,940.5 998.5,940.5C 998.611,941.117 998.944,941.617 999.5,942C 1003.11,942.936 1006.78,943.436 1010.5,943.5C 1013.86,944.04 1017.2,944.706 1020.5,945.5C 1022.44,947.163 1024.77,947.829 1027.5,947.5C 1032.82,948.495 1038.16,949.495 1043.5,950.5C 1043.61,951.117 1043.94,951.617 1044.5,952C 1049.77,953.288 1055.11,954.122 1060.5,954.5C 1068.86,956.04 1077.2,957.706 1085.5,959.5C 1085.61,960.117 1085.94,960.617 1086.5,961C 1088.47,961.495 1090.47,961.662 1092.5,961.5C 1093.17,961.5 1093.83,961.5 1094.5,961.5C 1096.78,963.223 1099.45,963.889 1102.5,963.5C 1109.85,964.704 1117.19,966.037 1124.5,967.5C 1126.78,969.223 1129.45,969.889 1132.5,969.5C 1137.41,969.898 1142.08,970.898 1146.5,972.5C 1151.89,974.375 1157.56,975.375 1163.5,975.5C 1163.83,975.5 1164.17,975.5 1164.5,975.5C 1166.78,977.223 1169.45,977.889 1172.5,977.5C 1180.93,978.293 1189.26,979.627 1197.5,981.5C 1201.8,983.557 1206.47,984.557 1211.5,984.5C 1212.04,984.56 1212.38,984.893 1212.5,985.5C 1211.62,986.251 1210.62,986.751 1209.5,987C 1196.51,988.039 1183.51,988.873 1170.5,989.5C 1157.47,988.208 1144.47,988.541 1131.5,990.5C 1040.92,994.855 950.254,998.522 859.5,1001.5C 848.679,1000.51 837.679,1000.17 826.5,1000.5C 826.737,999.209 826.404,998.209 825.5,997.5C 823.506,990.515 821.506,983.515 819.5,976.5C 819.741,974.102 819.074,972.102 817.5,970.5C 813.566,960.378 809.233,950.378 804.5,940.5C 804.715,938.821 804.048,937.821 802.5,937.5C 800.733,935.062 799.399,932.395 798.5,929.5C 798.573,927.973 797.906,926.973 796.5,926.5C 796.715,924.821 796.048,923.821 794.5,923.5C 793.662,923.158 793.328,922.492 793.5,921.5C 793.446,919.368 792.446,918.035 790.5,917.5C 790.573,915.973 789.906,914.973 788.5,914.5C 788.573,912.973 787.906,911.973 786.5,911.5C 785.833,911.5 785.5,911.167 785.5,910.5C 785.573,908.973 784.906,907.973 783.5,907.5C 782.833,907.5 782.5,907.167 782.5,906.5C 781.864,904.205 780.531,902.539 778.5,901.5C 777.5,901.167 776.833,900.5 776.5,899.5C 776.573,897.973 775.906,896.973 774.5,896.5C 773.5,896.167 772.833,895.5 772.5,894.5C 772.5,893.167 771.833,892.5 770.5,892.5C 769.5,891.167 768.5,889.833 767.5,888.5C 767.586,887.504 767.252,886.671 766.5,886C 768.134,885.506 769.801,885.34 771.5,885.5 Z"/></g>
<g><path style="opacity:0.659" fill="#252525" d="M 788.5,885.5 C 790.898,885.259 792.898,885.926 794.5,887.5C 792.214,887.405 790.214,886.738 788.5,885.5 Z"/></g>
<g><path style="opacity:0.008" fill="#151515" d="M 1472.5,885.5 C 1474.91,886.911 1476.58,888.911 1477.5,891.5C 1475.09,890.089 1473.42,888.089 1472.5,885.5 Z"/></g>
<g><path style="opacity:0.824" fill="#292929" d="M 795.5,887.5 C 799.286,887.32 802.619,888.32 805.5,890.5C 801.884,890.101 798.55,889.101 795.5,887.5 Z"/></g>
<g><path style="opacity:0.796" fill="#2c2c2c" d="M 95.5,890.5 C 98.9164,890.528 101.916,891.528 104.5,893.5C 101.215,893.072 98.2154,892.072 95.5,890.5 Z"/></g>
<g><path style="opacity:0.392" fill="#232323" d="M 787.5,889.5 C 789.786,889.595 791.786,890.262 793.5,891.5C 791.102,891.741 789.102,891.074 787.5,889.5 Z"/></g>
<g><path style="opacity:0.78" fill="#282828" d="M 807.5,890.5 C 812.176,891.061 816.509,892.394 820.5,894.5C 815.835,893.922 811.501,892.589 807.5,890.5 Z"/></g>
<g><path style="opacity:0.004" fill="#111111" d="M 764.5,892.5 C 766.833,892.833 768.167,894.167 768.5,896.5C 766.833,895.5 765.5,894.167 764.5,892.5 Z"/></g>
<g><path style="opacity:0.541" fill="#212121" d="M 770.5,892.5 C 771.833,892.5 772.5,893.167 772.5,894.5C 771.5,894.167 770.833,893.5 770.5,892.5 Z"/></g>
<g><path style="opacity:0.573" fill="#2b2b2b" d="M 795.5,891.5 C 797.698,891.875 799.698,892.542 801.5,893.5C 798.99,893.946 796.99,893.28 795.5,891.5 Z"/></g>
<g><path style="opacity:0.725" fill="#2b2b2b" d="M 822.5,894.5 C 824.898,894.259 826.898,894.926 828.5,896.5C 826.214,896.405 824.214,895.738 822.5,894.5 Z"/></g>
<g><path style="opacity:0.431" fill="#282828" d="M 806.5,894.5 C 808.786,894.595 810.786,895.262 812.5,896.5C 810.102,896.741 808.102,896.074 806.5,894.5 Z"/></g>
<g><path style="opacity:0.612" fill="#232323" d="M 117.5,896.5 C 119.898,896.259 121.898,896.926 123.5,898.5C 121.214,898.405 119.214,897.738 117.5,896.5 Z"/></g>
<g><path style="opacity:0.776" fill="#303030" d="M 830.5,896.5 C 832.898,896.259 834.898,896.926 836.5,898.5C 834.214,898.405 832.214,897.738 830.5,896.5 Z"/></g>
<g><path style="opacity:0.741" fill="#252525" d="M 1475.5,895.5 C 1478.24,897.239 1480.24,899.573 1481.5,902.5C 1478.76,900.761 1476.76,898.427 1475.5,895.5 Z"/></g>
<g><path style="opacity:0.004" fill="#151515" d="M 774.5,896.5 C 775.906,896.973 776.573,897.973 776.5,899.5C 775.094,899.027 774.427,898.027 774.5,896.5 Z"/></g>
<g><path style="opacity:0.392" fill="#1b1b1b" d="M 1482.5,897.5 C 1483.83,897.5 1484.5,898.167 1484.5,899.5C 1483.5,899.167 1482.83,898.5 1482.5,897.5 Z"/></g>
<g><path style="opacity:0.651" fill="#242424" d="M 124.5,898.5 C 127.228,898.171 129.562,898.837 131.5,900.5C 128.933,900.279 126.599,899.612 124.5,898.5 Z"/></g>
<g><path style="opacity:0.788" fill="#303030" d="M 837.5,898.5 C 840.495,898.294 843.162,898.96 845.5,900.5C 842.572,900.435 839.905,899.768 837.5,898.5 Z"/></g>
<g><path style="opacity:0.573" fill="#232323" d="M 770.5,898.5 C 772.262,899.262 773.262,900.596 773.5,902.5C 771.738,901.738 770.738,900.404 770.5,898.5 Z"/></g>
<g><path style="opacity:0.345" fill="#1c1c1c" d="M 822.5,898.5 C 826.116,898.899 829.45,899.899 832.5,901.5C 828.786,901.41 825.452,900.41 822.5,898.5 Z"/></g>
<g><path style="opacity:0.706" fill="#282828" d="M 137.5,901.5 C 139.898,901.259 141.898,901.926 143.5,903.5C 141.214,903.405 139.214,902.738 137.5,901.5 Z"/></g>
<g><path style="opacity:0.518" fill="#262626" d="M 834.5,901.5 C 838.025,902.21 841.358,903.21 844.5,904.5C 840.655,904.712 837.321,903.712 834.5,901.5 Z"/></g>
<g><path style="opacity:0.059" fill="#181818" d="M 849.5,901.5 C 852.152,901.41 854.485,902.076 856.5,903.5C 853.848,903.59 851.515,902.924 849.5,901.5 Z"/></g>
<g><path style="opacity:0.667" fill="#262626" d="M 144.5,903.5 C 147.228,903.171 149.562,903.837 151.5,905.5C 148.933,905.279 146.599,904.612 144.5,903.5 Z"/></g>
<g><path style="opacity:0.38" fill="#232323" d="M 778.5,901.5 C 780.531,902.539 781.864,904.205 782.5,906.5C 780.457,905.421 779.124,903.754 778.5,901.5 Z"/></g>
<g><path style="opacity:0.725" fill="#2e2e2e" d="M 1481.5,902.5 C 1483.26,903.262 1484.26,904.596 1484.5,906.5C 1482.74,905.738 1481.74,904.404 1481.5,902.5 Z"/></g>
<g><path style="opacity:0.525" fill="#2d2d2d" d="M 1486.5,901.5 C 1488.45,902.035 1489.45,903.368 1489.5,905.5C 1488.03,904.564 1487.03,903.23 1486.5,901.5 Z"/></g>
<g><path style="opacity:0.608" fill="#262626" d="M 775.5,904.5 C 777.262,905.262 778.262,906.596 778.5,908.5C 776.738,907.738 775.738,906.404 775.5,904.5 Z"/></g>
<g><path style="opacity:0.855" fill="#2d2d2d" d="M 1489.5,905.5 C 1491.45,906.035 1492.45,907.368 1492.5,909.5C 1491.03,908.564 1490.03,907.23 1489.5,905.5 Z"/></g>
<g><path style="opacity:0.451" fill="#252525" d="M 849.5,905.5 C 856.061,906.722 862.394,908.389 868.5,910.5C 861.77,909.902 855.436,908.236 849.5,905.5 Z"/></g>
<g><path style="opacity:0.741" fill="#2c2c2c" d="M 870.5,906.5 C 872.898,906.259 874.898,906.926 876.5,908.5C 874.214,908.405 872.214,907.738 870.5,906.5 Z"/></g>
<g><path style="opacity:0.608" fill="#242424" d="M 161.5,907.5 C 163.898,907.259 165.898,907.926 167.5,909.5C 165.214,909.405 163.214,908.738 161.5,907.5 Z"/></g>
<g><path style="opacity:0.008" fill="#121212" d="M 783.5,907.5 C 784.906,907.973 785.573,908.973 785.5,910.5C 784.094,910.027 783.427,909.027 783.5,907.5 Z"/></g>
<g><path style="opacity:0.655" fill="#2a2a2a" d="M 877.5,908.5 C 880.781,908.42 883.781,909.087 886.5,910.5C 883.219,910.58 880.219,909.913 877.5,908.5 Z"/></g>
<g><path style="opacity:0.337" fill="#1a1a1a" d="M 1486.5,908.5 C 1488.26,909.262 1489.26,910.596 1489.5,912.5C 1487.74,911.738 1486.74,910.404 1486.5,908.5 Z"/></g>
<g><path style="opacity:0.008" fill="#131313" d="M 1492.5,909.5 C 1493.91,909.973 1494.57,910.973 1494.5,912.5C 1493.09,912.027 1492.43,911.027 1492.5,909.5 Z"/></g>
<g><path style="opacity:0.478" fill="#2b2b2b" d="M 869.5,910.5 C 871.786,910.595 873.786,911.262 875.5,912.5C 873.102,912.741 871.102,912.074 869.5,910.5 Z"/></g>
<g><path style="opacity:0.176" fill="#1f1f1f" d="M 778.5,908.5 C 780.587,909.585 781.92,911.251 782.5,913.5C 780.413,912.415 779.08,910.749 778.5,908.5 Z"/></g>
<g><path style="opacity:0.024" fill="#141414" d="M 786.5,911.5 C 787.906,911.973 788.573,912.973 788.5,914.5C 787.094,914.027 786.427,913.027 786.5,911.5 Z"/></g>
<g><path style="opacity:0.749" fill="#292929" d="M 894.5,912.5 C 897.228,912.171 899.562,912.837 901.5,914.5C 898.933,914.279 896.599,913.612 894.5,912.5 Z"/></g>
<g><path style="opacity:0.788" fill="#292929" d="M 1494.5,912.5 C 1496.45,913.035 1497.45,914.368 1497.5,916.5C 1496.03,915.564 1495.03,914.23 1494.5,912.5 Z"/></g>
<g><path style="opacity:0.941" fill="#3f3f3f" d="M 182.5,912.5 C 186.841,912.658 190.841,913.658 194.5,915.5C 190.163,915.416 186.163,914.416 182.5,912.5 Z"/></g>
<g><path style="opacity:0.6" fill="#272727" d="M 878.5,912.5 C 880.698,912.875 882.698,913.542 884.5,914.5C 881.99,914.946 879.99,914.28 878.5,912.5 Z"/></g>
<g><path style="opacity:0.294" fill="#1f1f1f" d="M 1489.5,912.5 C 1490.91,912.973 1491.57,913.973 1491.5,915.5C 1490.09,915.027 1489.43,914.027 1489.5,912.5 Z"/></g>
<g><path style="opacity:0.353" fill="#1e1e1e" d="M 782.5,913.5 C 784.262,914.262 785.262,915.596 785.5,917.5C 783.738,916.738 782.738,915.404 782.5,913.5 Z"/></g>
<g><path style="opacity:0.004" fill="#0e0e0e" d="M 788.5,914.5 C 789.906,914.973 790.573,915.973 790.5,917.5C 789.094,917.027 788.427,916.027 788.5,914.5 Z"/></g>
<g><path style="opacity:0.831" fill="#2c2c2c" d="M 790.5,917.5 C 792.446,918.035 793.446,919.368 793.5,921.5C 792.026,920.564 791.026,919.23 790.5,917.5 Z"/></g>
<g><path style="opacity:0.376" fill="#242424" d="M 1491.5,915.5 C 1492.91,915.973 1493.57,916.973 1493.5,918.5C 1492.09,918.027 1491.43,917.027 1491.5,915.5 Z"/></g>
<g><path style="opacity:0.255" fill="#191919" d="M 785.5,917.5 C 786.906,917.973 787.573,918.973 787.5,920.5C 786.094,920.027 785.427,919.027 785.5,917.5 Z"/></g>
<g><path style="opacity:0.545" fill="#262626" d="M 903.5,918.5 C 905.698,918.875 907.698,919.542 909.5,920.5C 906.99,920.946 904.99,920.28 903.5,918.5 Z"/></g>
<g><path style="opacity:0.714" fill="#2e2e2e" d="M 928.5,920.5 C 931.781,920.42 934.781,921.087 937.5,922.5C 934.219,922.58 931.219,921.913 928.5,920.5 Z"/></g>
<g><path style="opacity:0.416" fill="#2a2a2a" d="M 1493.5,918.5 C 1494.91,918.973 1495.57,919.973 1495.5,921.5C 1494.09,921.027 1493.43,920.027 1493.5,918.5 Z"/></g>
<g><path style="opacity:0.38" fill="#1e1e1e" d="M 911.5,920.5 C 914.067,920.721 916.401,921.388 918.5,922.5C 915.772,922.829 913.438,922.163 911.5,920.5 Z"/></g>
<g><path style="opacity:0.243" fill="#1c1c1c" d="M 787.5,920.5 C 788.906,920.973 789.573,921.973 789.5,923.5C 788.094,923.027 787.427,922.027 787.5,920.5 Z"/></g>
<g><path style="opacity:0.725" fill="#282828" d="M 228.5,923.5 C 231.228,923.171 233.562,923.837 235.5,925.5C 232.933,925.279 230.599,924.612 228.5,923.5 Z"/></g>
<g><path style="opacity:0.871" fill="#313131" d="M 794.5,923.5 C 796.048,923.821 796.715,924.821 796.5,926.5C 795.599,925.71 794.932,924.71 794.5,923.5 Z"/></g>
<g><path style="opacity:0.376" fill="#222222" d="M 1495.5,921.5 C 1497.26,922.262 1498.26,923.596 1498.5,925.5C 1496.74,924.738 1495.74,923.404 1495.5,921.5 Z"/></g>
<g><path style="opacity:0.557" fill="#262626" d="M 924.5,923.5 C 926.698,923.875 928.698,924.542 930.5,925.5C 927.99,925.946 925.99,925.28 924.5,923.5 Z"/></g>
<g><path style="opacity:0.231" fill="#1b1b1b" d="M 789.5,923.5 C 790.906,923.973 791.573,924.973 791.5,926.5C 790.094,926.027 789.427,925.027 789.5,923.5 Z"/></g>
<g><path style="opacity:0.424" fill="#2d2d2d" d="M 950.5,925.5 C 953.495,925.294 956.162,925.96 958.5,927.5C 955.572,927.435 952.905,926.768 950.5,925.5 Z"/></g>
<g><path style="opacity:0.059" fill="#202020" d="M 1500.5,921.5 C 1502.8,922.733 1504.13,924.733 1504.5,927.5C 1502.68,925.882 1501.35,923.882 1500.5,921.5 Z"/></g>
<g><path style="opacity:0.455" fill="#282828" d="M 936.5,926.5 C 940.397,927.055 944.063,928.055 947.5,929.5C 943.43,929.568 939.763,928.568 936.5,926.5 Z"/></g>
<g><path style="opacity:0.133" fill="#151515" d="M 791.5,926.5 C 792.906,926.973 793.573,927.973 793.5,929.5C 792.094,929.027 791.427,928.027 791.5,926.5 Z"/></g>
<g><path style="opacity:0.125" fill="#1c1c1c" d="M 796.5,926.5 C 797.906,926.973 798.573,927.973 798.5,929.5C 797.094,929.027 796.427,928.027 796.5,926.5 Z"/></g>
<g><path style="opacity:0.894" fill="#343434" d="M 1505.5,929.5 C 1507.05,929.821 1507.71,930.821 1507.5,932.5C 1506.6,931.71 1505.93,930.71 1505.5,929.5 Z"/></g>
<g><path style="opacity:0.02" fill="#1c1c1c" d="M 254.5,929.5 C 257.495,929.294 260.162,929.96 262.5,931.5C 259.572,931.435 256.905,930.768 254.5,929.5 Z"/></g>
<g><path style="opacity:0.018" fill="#1b1b1b" d="M 967.5,929.5 C 970.495,929.294 973.162,929.96 975.5,931.5C 972.572,931.435 969.905,930.768 967.5,929.5 Z"/></g>
<g><path style="opacity:0.014" fill="#1a1a1a" d="M 954.5,930.5 C 957.01,930.927 959.343,931.593 961.5,932.5C 959.473,932.662 957.473,932.495 955.5,932C 954.944,931.617 954.611,931.117 954.5,930.5 Z"/></g>
<g><path style="opacity:0.361" fill="#272727" d="M 1500.5,929.5 C 1501.91,929.973 1502.57,930.973 1502.5,932.5C 1501.09,932.027 1500.43,931.027 1500.5,929.5 Z"/></g>
<g><path style="opacity:0.714" fill="#272727" d="M 985.5,933.5 C 988.228,933.171 990.562,933.837 992.5,935.5C 989.933,935.279 987.599,934.612 985.5,933.5 Z"/></g>
<g><path style="opacity:0.729" fill="#292929" d="M 1507.5,933.5 C 1509.05,933.821 1509.71,934.821 1509.5,936.5C 1508.6,935.71 1507.93,934.71 1507.5,933.5 Z"/></g>
<g><path style="opacity:0.592" fill="#292929" d="M 966.5,933.5 C 969.067,933.721 971.401,934.388 973.5,935.5C 970.772,935.829 968.438,935.163 966.5,933.5 Z"/></g>
<g><path style="opacity:0.145" fill="#171717" d="M 1502.5,932.5 C 1503.91,932.973 1504.57,933.973 1504.5,935.5C 1503.09,935.027 1502.43,934.027 1502.5,932.5 Z"/></g>
<g><path style="opacity:0.267" fill="#212121" d="M 795.5,933.5 C 796.906,933.973 797.573,934.973 797.5,936.5C 796.094,936.027 795.427,935.027 795.5,933.5 Z"/></g>
<g><path style="opacity:0.361" fill="#272727" d="M 281.5,935.5 C 284.495,935.294 287.162,935.96 289.5,937.5C 286.572,937.435 283.905,936.768 281.5,935.5 Z"/></g>
<g><path style="opacity:0.529" fill="#212121" d="M 976.5,935.5 C 980.373,936.134 984.039,937.134 987.5,938.5C 984.126,938.326 980.793,937.826 977.5,937C 976.944,936.617 976.611,936.117 976.5,935.5 Z"/></g>
<g><path style="opacity:0.318" fill="#252525" d="M 994.5,935.5 C 997.495,935.294 1000.16,935.96 1002.5,937.5C 999.572,937.435 996.905,936.768 994.5,935.5 Z"/></g>
<g><path style="opacity:0.835" fill="#303030" d="M 802.5,937.5 C 804.048,937.821 804.715,938.821 804.5,940.5C 803.599,939.71 802.932,938.71 802.5,937.5 Z"/></g>
<g><path style="opacity:0.714" fill="#2a2a2a" d="M 299.5,939.5 C 302.228,939.171 304.562,939.837 306.5,941.5C 303.933,941.279 301.599,940.612 299.5,939.5 Z"/></g>
<g><path style="opacity:0.557" fill="#2a2a2a" d="M 988.5,938.5 C 991.067,938.721 993.401,939.388 995.5,940.5C 992.772,940.829 990.438,940.163 988.5,938.5 Z"/></g>
<g><path style="opacity:0.012" fill="#1a1a1a" d="M 1012.5,939.5 C 1015.5,939.294 1018.16,939.96 1020.5,941.5C 1017.57,941.435 1014.91,940.768 1012.5,939.5 Z"/></g>
<g><path style="opacity:0.092" fill="#141414" d="M 799.5,940.5 C 800.906,940.973 801.573,941.973 801.5,943.5C 800.094,943.027 799.427,942.027 799.5,940.5 Z"/></g>
<g><path style="opacity:0.561" fill="#232323" d="M 998.5,940.5 C 1002.67,941.262 1006.67,942.262 1010.5,943.5C 1006.78,943.436 1003.11,942.936 999.5,942C 998.944,941.617 998.611,941.117 998.5,940.5 Z"/></g>
<g><path style="opacity:0.01" fill="#1b1b1b" d="M 1036.5,944.5 C 1039.15,944.41 1041.49,945.076 1043.5,946.5C 1040.85,946.59 1038.51,945.924 1036.5,944.5 Z"/></g>
<g><path style="opacity:0.184" fill="#1a1a1a" d="M 801.5,944.5 C 802.906,944.973 803.573,945.973 803.5,947.5C 802.094,947.027 801.427,946.027 801.5,944.5 Z"/></g>
<g><path style="opacity:0.451" fill="#232323" d="M 1020.5,945.5 C 1023.07,945.721 1025.4,946.388 1027.5,947.5C 1024.77,947.829 1022.44,947.163 1020.5,945.5 Z"/></g>
<g><path style="opacity:0.302" fill="#262626" d="M 331.5,946.5 C 334.495,946.294 337.162,946.96 339.5,948.5C 336.572,948.435 333.905,947.768 331.5,946.5 Z"/></g>
<g><path style="opacity:0.635" fill="#272727" d="M 1043.5,950.5 C 1049.34,951.597 1055,952.93 1060.5,954.5C 1055.11,954.122 1049.77,953.288 1044.5,952C 1043.94,951.617 1043.61,951.117 1043.5,950.5 Z"/></g>
<g><path style="opacity:0.016" fill="#1a1a1a" d="M 1063.5,950.5 C 1066.5,950.294 1069.16,950.96 1071.5,952.5C 1068.57,952.435 1065.91,951.768 1063.5,950.5 Z"/></g>
<g><path style="opacity:0.056" fill="#1a1a1a" d="M 1082.5,954.5 C 1085.5,954.294 1088.16,954.96 1090.5,956.5C 1087.57,956.435 1084.91,955.768 1082.5,954.5 Z"/></g>
<g><path style="opacity:0.01" fill="#191919" d="M 373.5,955.5 C 376.495,955.294 379.162,955.96 381.5,957.5C 378.572,957.435 375.905,956.768 373.5,955.5 Z"/></g>
<g><path style="opacity:0.686" fill="#2b2b2b" d="M 1085.5,959.5 C 1088.01,959.927 1090.34,960.593 1092.5,961.5C 1090.47,961.662 1088.47,961.495 1086.5,961C 1085.94,960.617 1085.61,960.117 1085.5,959.5 Z"/></g>
<g><path style="opacity:0.016" fill="#1a1a1a" d="M 402.5,961.5 C 405.495,961.294 408.162,961.96 410.5,963.5C 407.572,963.435 404.905,962.768 402.5,961.5 Z"/></g>
<g><path style="opacity:0.604" fill="#2c2c2c" d="M 1094.5,961.5 C 1097.37,961.802 1100.04,962.469 1102.5,963.5C 1099.45,963.889 1096.78,963.223 1094.5,961.5 Z"/></g>
<g><path style="opacity:0.914" fill="#333333" d="M 809.5,961.5 C 811.065,963.509 812.065,965.843 812.5,968.5C 810.166,966.824 809.166,964.491 809.5,961.5 Z"/></g>
<g><path style="opacity:0.933" fill="#333333" d="M 1522.5,965.5 C 1524.26,966.552 1524.92,968.219 1524.5,970.5C 1523.69,968.972 1523.02,967.306 1522.5,965.5 Z"/></g>
<g><path style="opacity:0.51" fill="#222222" d="M 1124.5,967.5 C 1127.37,967.802 1130.04,968.469 1132.5,969.5C 1129.45,969.889 1126.78,969.223 1124.5,967.5 Z"/></g>
<g><path style="opacity:0.875" fill="#323232" d="M 812.5,969.5 C 813.931,970.78 814.598,972.447 814.5,974.5C 812.787,973.365 812.12,971.698 812.5,969.5 Z"/></g>
<g><path style="opacity:0.518" fill="#282828" d="M 1146.5,972.5 C 1152.4,972.883 1158.07,973.883 1163.5,975.5C 1157.56,975.375 1151.89,974.375 1146.5,972.5 Z"/></g>
<g><path style="opacity:0.31" fill="#222222" d="M 817.5,970.5 C 819.074,972.102 819.741,974.102 819.5,976.5C 818.262,974.786 817.595,972.786 817.5,970.5 Z"/></g>
<g><path style="opacity:0.694" fill="#2c2c2c" d="M 1520.5,971.5 C 1521.92,973.515 1522.59,975.848 1522.5,978.5C 1521.08,976.485 1520.41,974.152 1520.5,971.5 Z"/></g>
<g><path style="opacity:0.671" fill="#2c2c2c" d="M 1164.5,975.5 C 1167.37,975.802 1170.04,976.469 1172.5,977.5C 1169.45,977.889 1166.78,977.223 1164.5,975.5 Z"/></g>
<g><path style="opacity:0.808" fill="#343434" d="M 815.5,978.5 C 816.537,979.93 817.204,981.597 817.5,983.5C 815.787,982.365 815.12,980.698 815.5,978.5 Z"/></g>
<g><path style="opacity:0.816" fill="#2e2e2e" d="M 1522.5,978.5 C 1523.93,979.78 1524.6,981.447 1524.5,983.5C 1522.79,982.365 1522.12,980.698 1522.5,978.5 Z"/></g>
<g><path style="opacity:0.671" fill="#2c2c2c" d="M 1197.5,981.5 C 1202.38,982.085 1207.04,983.085 1211.5,984.5C 1206.47,984.557 1201.8,983.557 1197.5,981.5 Z"/></g>
<g><path style="opacity:0.647" fill="#252525" d="M 817.5,984.5 C 818.738,986.214 819.405,988.214 819.5,990.5C 817.926,988.898 817.259,986.898 817.5,984.5 Z"/></g>
<g><path style="opacity:0.923" fill="#3f3f3f" d="M 1170.5,989.5 C 1157.51,990.036 1144.51,990.369 1131.5,990.5C 1144.47,988.541 1157.47,988.208 1170.5,989.5 Z"/></g>
<g><path style="opacity:0.024" fill="#202020" d="M 1529.5,985.5 C 1531.28,989.594 1532.61,993.927 1533.5,998.5C 1533.17,998.5 1532.83,998.5 1532.5,998.5C 1531.03,994.298 1530.03,989.965 1529.5,985.5 Z"/></g>
<g><path style="opacity:0.667" fill="#313131" d="M 659.5,992.5 C 665.842,992.334 672.175,992.5 678.5,993C 680.382,993.198 682.048,993.698 683.5,994.5C 675.307,994.384 667.307,993.717 659.5,992.5 Z"/></g>
<g><path style="opacity:0.1" fill="#010101" d="M 1527.5,996.5 C 1528.89,997.947 1528.55,998.947 1526.5,999.5C 1527.11,998.609 1527.44,997.609 1527.5,996.5 Z"/></g>
<g><path style="opacity:0.489" fill="#323232" d="M 820.5,995.5 C 821.451,996.919 821.784,998.585 821.5,1000.5C 817.167,1000.5 812.833,1000.5 808.5,1000.5C 812.298,999.517 816.298,999.183 820.5,999.5C 820.5,998.167 820.5,996.833 820.5,995.5 Z"/></g>
<g><path style="opacity:0.019" fill="#000000" d="M 1532.5,998.5 C 1532.83,998.5 1533.17,998.5 1533.5,998.5C 1543.65,999.494 1553.99,999.828 1564.5,999.5C 1559.34,1000.17 1554.01,1000.5 1548.5,1000.5C 1542.79,1000.49 1537.46,999.828 1532.5,998.5 Z"/></g>
<g><path style="opacity:0.282" fill="#282828" d="M 825.5,997.5 C 826.404,998.209 826.737,999.209 826.5,1000.5C 837.679,1000.17 848.679,1000.51 859.5,1001.5C 848.167,1001.5 836.833,1001.5 825.5,1001.5C 825.5,1000.17 825.5,998.833 825.5,997.5 Z"/></g>
</svg>
