<?xml version="1.0" encoding="UTF-8"?>
<!DOCTYPE svg PUBLIC "-//W3C//DTD SVG 1.1//EN" "http://www.w3.org/Graphics/SVG/1.1/DTD/svg11.dtd">
<svg xmlns="http://www.w3.org/2000/svg" version="1.1" width="2591px" height="1206px" style="shape-rendering:geometricPrecision; text-rendering:geometricPrecision; image-rendering:optimizeQuality; fill-rule:evenodd; clip-rule:evenodd" xmlns:xlink="http://www.w3.org/1999/xlink">
<g><path style="opacity:0.914" fill="#414141" d="M 2433.5,342.5 C 2420.53,341.599 2407.53,341.265 2394.5,341.5C 2399.93,340.069 2405.6,339.402 2411.5,339.5C 2419.13,339.369 2426.46,340.369 2433.5,342.5 Z"/></g>
<g><path style="opacity:1" fill="#656565" d="M 2394.5,341.5 C 2407.53,341.265 2420.53,341.599 2433.5,342.5C 2438.02,343.097 2442.02,344.763 2445.5,347.5C 2446.73,349.796 2448.73,351.13 2451.5,351.5C 2452.5,351.833 2453.17,352.5 2453.5,353.5C 2453.74,355.404 2454.74,356.738 2456.5,357.5C 2457.23,362.13 2457.56,366.797 2457.5,371.5C 2454.21,384.404 2448.55,396.071 2440.5,406.5C 2439.09,406.973 2438.43,407.973 2438.5,409.5C 2437.09,409.973 2436.43,410.973 2436.5,412.5C 2435.88,414.754 2434.54,416.421 2432.5,417.5C 2431.09,417.973 2430.43,418.973 2430.5,420.5C 2430.17,421.5 2429.5,422.167 2428.5,422.5C 2427.09,422.973 2426.43,423.973 2426.5,425.5C 2422.44,430.562 2417.77,434.895 2412.5,438.5C 2411.5,438.833 2410.83,439.5 2410.5,440.5C 2409.06,442.063 2407.39,443.396 2405.5,444.5C 2403.97,444.427 2402.97,445.094 2402.5,446.5C 2400.85,448.326 2398.85,449.66 2396.5,450.5C 2394.97,450.427 2393.97,451.094 2393.5,452.5C 2376.52,463.441 2357.85,469.941 2337.5,472C 2318.13,473.569 2299.13,471.736 2280.5,466.5C 2277.92,464.528 2274.92,463.528 2271.5,463.5C 2265.16,462.496 2259.16,460.496 2253.5,457.5C 2252.36,455.787 2250.7,455.12 2248.5,455.5C 2247.82,453.824 2246.48,453.157 2244.5,453.5C 2241.84,453.065 2239.51,452.065 2237.5,450.5C 2237.03,449.094 2236.03,448.427 2234.5,448.5C 2233.39,448.443 2232.39,448.11 2231.5,447.5C 2231.03,446.094 2230.03,445.427 2228.5,445.5C 2226.18,445.008 2224.18,444.008 2222.5,442.5C 2222.03,441.094 2221.03,440.427 2219.5,440.5C 2218.51,440.672 2217.84,440.338 2217.5,439.5C 2217.03,438.094 2216.03,437.427 2214.5,437.5C 2214.03,436.094 2213.03,435.427 2211.5,435.5C 2210.51,435.672 2209.84,435.338 2209.5,434.5C 2209.03,433.094 2208.03,432.427 2206.5,432.5C 2206.03,431.094 2205.03,430.427 2203.5,430.5C 2202.42,428.413 2200.75,427.08 2198.5,426.5C 2197.74,424.738 2196.4,423.738 2194.5,423.5C 2193.42,421.413 2191.75,420.08 2189.5,419.5C 2188.42,417.413 2186.75,416.08 2184.5,415.5C 2183.09,413.086 2181.09,411.419 2178.5,410.5C 2177.09,408.086 2175.09,406.419 2172.5,405.5C 2171.42,403.413 2169.75,402.08 2167.5,401.5C 2166.5,401.167 2165.83,400.5 2165.5,399.5C 2164.74,397.738 2163.4,396.738 2161.5,396.5C 2160.5,396.167 2159.83,395.5 2159.5,394.5C 2158.42,392.413 2156.75,391.08 2154.5,390.5C 2153.5,390.167 2152.83,389.5 2152.5,388.5C 2151.74,386.738 2150.4,385.738 2148.5,385.5C 2147.5,385.167 2146.83,384.5 2146.5,383.5C 2145.09,381.086 2143.09,379.419 2140.5,378.5C 2139.5,378.167 2138.83,377.5 2138.5,376.5C 2136.43,373.427 2133.76,371.094 2130.5,369.5C 2128.83,368.5 2127.5,367.167 2126.5,365.5C 2124.42,363.427 2122.75,361.093 2121.5,358.5C 2124.43,357.243 2126.76,355.243 2128.5,352.5C 2130.83,351.167 2133.17,349.833 2135.5,348.5C 2135.97,349.906 2136.97,350.573 2138.5,350.5C 2139.5,350.833 2140.17,351.5 2140.5,352.5C 2141.26,354.262 2142.6,355.262 2144.5,355.5C 2146.17,356.5 2147.5,357.833 2148.5,359.5C 2149.17,360.833 2150.17,361.833 2151.5,362.5C 2152.5,362.833 2153.17,363.5 2153.5,364.5C 2155.24,367.243 2157.57,369.243 2160.5,370.5C 2162.17,371.5 2163.5,372.833 2164.5,374.5C 2165.5,376.167 2166.83,377.5 2168.5,378.5C 2170.75,379.08 2172.42,380.413 2173.5,382.5C 2174.58,384.587 2176.25,385.92 2178.5,386.5C 2179.83,387.167 2180.83,388.167 2181.5,389.5C 2181.97,390.906 2182.97,391.573 2184.5,391.5C 2185.5,391.833 2186.17,392.5 2186.5,393.5C 2187.03,395.446 2188.37,396.446 2190.5,396.5C 2191.26,398.262 2192.6,399.262 2194.5,399.5C 2195.54,401.531 2197.21,402.864 2199.5,403.5C 2201.39,404.604 2203.06,405.937 2204.5,407.5C 2204.97,408.906 2205.97,409.573 2207.5,409.5C 2208.03,411.446 2209.37,412.446 2211.5,412.5C 2212.03,414.446 2213.37,415.446 2215.5,415.5C 2218.51,416.669 2221.18,418.336 2223.5,420.5C 2224.03,422.446 2225.37,423.446 2227.5,423.5C 2229.15,423.66 2230.49,424.326 2231.5,425.5C 2231.82,427.048 2232.82,427.715 2234.5,427.5C 2236.15,427.66 2237.49,428.326 2238.5,429.5C 2238.97,430.906 2239.97,431.573 2241.5,431.5C 2246.47,432.988 2251.13,434.988 2255.5,437.5C 2256.78,438.931 2258.45,439.598 2260.5,439.5C 2265.44,440.646 2270.1,442.313 2274.5,444.5C 2276.51,445.924 2278.85,446.59 2281.5,446.5C 2283.1,448.074 2285.1,448.741 2287.5,448.5C 2306.77,453.252 2326.11,453.585 2345.5,449.5C 2348.72,449.655 2351.38,448.655 2353.5,446.5C 2356.49,446.834 2358.82,445.834 2360.5,443.5C 2360.84,442.662 2361.51,442.328 2362.5,442.5C 2364.03,442.573 2365.03,441.906 2365.5,440.5C 2366.51,439.326 2367.85,438.66 2369.5,438.5C 2371.4,438.262 2372.74,437.262 2373.5,435.5C 2375.03,435.573 2376.03,434.906 2376.5,433.5C 2378.03,433.573 2379.03,432.906 2379.5,431.5C 2382.09,430.581 2384.09,428.914 2385.5,426.5C 2391.5,422.5 2396.5,417.5 2400.5,411.5C 2400.83,410.5 2401.5,409.833 2402.5,409.5C 2404.26,408.738 2405.26,407.404 2405.5,405.5C 2407.59,404.415 2408.92,402.749 2409.5,400.5C 2409.33,399.508 2409.66,398.842 2410.5,398.5C 2411.91,398.027 2412.57,397.027 2412.5,395.5C 2412.33,394.508 2412.66,393.842 2413.5,393.5C 2414.91,393.027 2415.57,392.027 2415.5,390.5C 2415.5,390.167 2415.5,389.833 2415.5,389.5C 2417.54,388.089 2418.54,386.089 2418.5,383.5C 2418.33,382.508 2418.66,381.842 2419.5,381.5C 2421.21,380.365 2421.88,378.698 2421.5,376.5C 2422.28,372.854 2422.45,369.188 2422,365.5C 2420.51,362.686 2418.34,360.686 2415.5,359.5C 2414.36,357.787 2412.7,357.12 2410.5,357.5C 2405.82,357.334 2401.15,357.501 2396.5,358C 2393.2,358.487 2390.2,359.653 2387.5,361.5C 2393.48,362.503 2399.48,362.503 2405.5,361.5C 2409.12,361.398 2412.45,362.065 2415.5,363.5C 2415.43,365.027 2416.09,366.027 2417.5,366.5C 2417.96,377.292 2414.63,386.959 2407.5,395.5C 2406.09,395.973 2405.43,396.973 2405.5,398.5C 2404.4,400.389 2403.06,402.055 2401.5,403.5C 2400.09,403.973 2399.43,404.973 2399.5,406.5C 2398.5,408.167 2397.17,409.5 2395.5,410.5C 2393.41,411.585 2392.08,413.251 2391.5,415.5C 2390.83,416.833 2389.83,417.833 2388.5,418.5C 2386.25,419.08 2384.58,420.413 2383.5,422.5C 2382.5,424.167 2381.17,425.5 2379.5,426.5C 2377.97,426.427 2376.97,427.094 2376.5,428.5C 2352.17,447.894 2324.83,453.561 2294.5,445.5C 2291.5,443.723 2288.16,442.723 2284.5,442.5C 2282.71,442.634 2281.04,442.301 2279.5,441.5C 2278.36,439.787 2276.7,439.12 2274.5,439.5C 2271.92,439.606 2269.59,438.939 2267.5,437.5C 2266.36,435.787 2264.7,435.12 2262.5,435.5C 2260.82,433.166 2258.49,432.166 2255.5,432.5C 2249.41,430.622 2243.75,427.955 2238.5,424.5C 2238.03,423.094 2237.03,422.427 2235.5,422.5C 2233.18,422.008 2231.18,421.008 2229.5,419.5C 2229.03,418.094 2228.03,417.427 2226.5,417.5C 2226.03,416.094 2225.03,415.427 2223.5,415.5C 2222.51,415.672 2221.84,415.338 2221.5,414.5C 2221.03,413.094 2220.03,412.427 2218.5,412.5C 2216.19,411.625 2215.53,410.292 2216.5,408.5C 2218.03,408.573 2219.03,407.906 2219.5,406.5C 2219.84,405.662 2220.51,405.328 2221.5,405.5C 2223.03,405.573 2224.03,404.906 2224.5,403.5C 2227.52,401.326 2230.85,399.659 2234.5,398.5C 2238.16,398.498 2241.16,397.165 2243.5,394.5C 2245.15,394.34 2246.49,393.674 2247.5,392.5C 2249.43,390.707 2251.76,389.707 2254.5,389.5C 2256.82,389.008 2258.82,388.008 2260.5,386.5C 2263.49,386.834 2265.82,385.834 2267.5,383.5C 2268.51,382.326 2269.85,381.66 2271.5,381.5C 2274.49,381.834 2276.82,380.834 2278.5,378.5C 2280.7,378.88 2282.36,378.213 2283.5,376.5C 2286.98,374.597 2290.65,372.93 2294.5,371.5C 2296.7,371.88 2298.36,371.213 2299.5,369.5C 2301.7,369.88 2303.36,369.213 2304.5,367.5C 2306.7,367.88 2308.36,367.213 2309.5,365.5C 2311.7,365.88 2313.36,365.213 2314.5,363.5C 2316.42,362.637 2318.42,361.971 2320.5,361.5C 2323.72,361.655 2326.38,360.655 2328.5,358.5C 2328.83,358.5 2329.17,358.5 2329.5,358.5C 2331.7,358.88 2333.36,358.213 2334.5,356.5C 2337.5,354.723 2340.84,353.723 2344.5,353.5C 2348.92,353.139 2352.92,351.806 2356.5,349.5C 2360.24,347.898 2364.24,346.898 2368.5,346.5C 2371.43,346.435 2374.09,345.768 2376.5,344.5C 2382.22,342.585 2388.22,341.585 2394.5,341.5 Z"/></g>
<g><path style="opacity:0.992" fill="#4a4a4a" d="M 1692.5,341.5 C 1692.44,342.609 1692.11,343.609 1691.5,344.5C 1688.44,346.132 1685.11,347.299 1681.5,348C 1670.99,349.468 1660.66,351.634 1650.5,354.5C 1651.51,353.604 1651.51,352.938 1650.5,352.5C 1651.17,351.833 1651.83,351.167 1652.5,350.5C 1655.5,350.706 1658.16,350.04 1660.5,348.5C 1662.91,347.232 1665.57,346.565 1668.5,346.5C 1672.48,346.258 1676.15,345.258 1679.5,343.5C 1683.68,342.093 1688.02,341.426 1692.5,341.5 Z"/></g>
<g><path style="opacity:0.008" fill="#141414" d="M 1692.5,341.5 C 1693.89,342.947 1693.55,343.947 1691.5,344.5C 1692.11,343.609 1692.44,342.609 1692.5,341.5 Z"/></g>
<g><path style="opacity:0.647" fill="#2b2b2b" d="M 1679.5,343.5 C 1676.15,345.258 1672.48,346.258 1668.5,346.5C 1671.85,344.742 1675.52,343.742 1679.5,343.5 Z"/></g>
<g><path style="opacity:0.639" fill="#2c2c2c" d="M 2376.5,344.5 C 2374.09,345.768 2371.43,346.435 2368.5,346.5C 2370.84,344.96 2373.5,344.294 2376.5,344.5 Z"/></g>
<g><path style="opacity:0.443" fill="#242424" d="M 1436.5,355.5 C 1433.59,353.934 1430.92,351.934 1428.5,349.5C 1427.06,350.952 1425.39,351.952 1423.5,352.5C 1424.57,350.429 1426.24,349.095 1428.5,348.5C 1431.78,350.109 1434.44,352.442 1436.5,355.5 Z"/></g>
<g><path style="opacity:0.02" fill="#141414" d="M 2135.5,348.5 C 2137.03,348.427 2138.03,349.094 2138.5,350.5C 2136.97,350.573 2135.97,349.906 2135.5,348.5 Z"/></g>
<g><path style="opacity:0.999" fill="#646464" d="M 1436.5,355.5 C 1439.83,358.167 1442.83,361.167 1445.5,364.5C 1448.89,368.898 1452.89,372.564 1457.5,375.5C 1459.5,376.833 1461.17,378.5 1462.5,380.5C 1463.26,382.262 1464.6,383.262 1466.5,383.5C 1467.83,384.167 1468.83,385.167 1469.5,386.5C 1470.26,388.262 1471.6,389.262 1473.5,389.5C 1474.54,391.531 1476.21,392.864 1478.5,393.5C 1479.5,393.833 1480.17,394.5 1480.5,395.5C 1480.97,396.906 1481.97,397.573 1483.5,397.5C 1484.5,397.833 1485.17,398.5 1485.5,399.5C 1485.97,400.906 1486.97,401.573 1488.5,401.5C 1489.17,401.5 1489.5,401.833 1489.5,402.5C 1489.97,403.906 1490.97,404.573 1492.5,404.5C 1493.5,404.833 1494.17,405.5 1494.5,406.5C 1494.97,407.906 1495.97,408.573 1497.5,408.5C 1497.97,409.906 1498.97,410.573 1500.5,410.5C 1501.03,412.446 1502.37,413.446 1504.5,413.5C 1505.71,413.932 1506.71,414.599 1507.5,415.5C 1508.03,417.446 1509.37,418.446 1511.5,418.5C 1511.97,419.906 1512.97,420.573 1514.5,420.5C 1516.23,422.877 1518.56,424.544 1521.5,425.5C 1522.17,425.5 1522.5,425.833 1522.5,426.5C 1523.11,427.391 1523.44,428.391 1523.5,429.5C 1513.37,430.795 1503.37,430.795 1493.5,429.5C 1492.74,427.738 1491.4,426.738 1489.5,426.5C 1488.42,424.413 1486.75,423.08 1484.5,422.5C 1483.42,420.413 1481.75,419.08 1479.5,418.5C 1478.09,416.086 1476.09,414.419 1473.5,413.5C 1472.42,411.413 1470.75,410.08 1468.5,409.5C 1467.09,407.086 1465.09,405.419 1462.5,404.5C 1461.09,402.086 1459.09,400.419 1456.5,399.5C 1455.5,399.167 1454.83,398.5 1454.5,397.5C 1453.42,395.413 1451.75,394.08 1449.5,393.5C 1448.5,393.167 1447.83,392.5 1447.5,391.5C 1445.76,388.757 1443.43,386.757 1440.5,385.5C 1439.5,385.167 1438.83,384.5 1438.5,383.5C 1437.42,381.413 1435.75,380.08 1433.5,379.5C 1432.5,379.167 1431.83,378.5 1431.5,377.5C 1428.77,373.766 1425.44,370.766 1421.5,368.5C 1419.2,366.706 1417.04,364.706 1415,362.5C 1414.26,361.251 1414.43,360.251 1415.5,359.5C 1418.76,357.906 1421.43,355.573 1423.5,352.5C 1425.39,351.952 1427.06,350.952 1428.5,349.5C 1430.92,351.934 1433.59,353.934 1436.5,355.5 Z"/></g>
<g><path style="opacity:0.647" fill="#2a2a2a" d="M 1660.5,348.5 C 1658.16,350.04 1655.5,350.706 1652.5,350.5C 1654.91,349.232 1657.57,348.565 1660.5,348.5 Z"/></g>
<g><path style="opacity:0.004" fill="#1c1c1c" d="M 2445.5,347.5 C 2447.88,348.351 2449.88,349.684 2451.5,351.5C 2448.73,351.13 2446.73,349.796 2445.5,347.5 Z"/></g>
<g><path style="opacity:0.706" fill="#2d2d2d" d="M 2135.5,348.5 C 2133.17,349.833 2130.83,351.167 2128.5,352.5C 2130.09,349.139 2132.42,347.806 2135.5,348.5 Z"/></g>
<g><path style="opacity:0.753" fill="#323232" d="M 2356.5,349.5 C 2352.92,351.806 2348.92,353.139 2344.5,353.5C 2348.22,351.595 2352.22,350.261 2356.5,349.5 Z"/></g>
<g><path style="opacity:0.741" fill="#303030" d="M 1652.5,350.5 C 1651.83,351.167 1651.17,351.833 1650.5,352.5C 1648.19,352.993 1645.86,353.326 1643.5,353.5C 1646.22,351.928 1649.22,350.928 1652.5,350.5 Z"/></g>
<g><path style="opacity:0.999" fill="#616161" d="M 1650.5,352.5 C 1651.51,352.938 1651.51,353.604 1650.5,354.5C 1636.69,359.135 1625.19,367.135 1616,378.5C 1613.36,382.228 1612.52,386.228 1613.5,390.5C 1613.02,391.478 1612.36,392.311 1611.5,393C 1596.55,397.489 1581.55,401.822 1566.5,406C 1553.95,410.607 1541.95,416.274 1530.5,423C 1528.61,423.78 1526.95,423.613 1525.5,422.5C 1525.03,421.094 1524.03,420.427 1522.5,420.5C 1521.51,420.672 1520.84,420.338 1520.5,419.5C 1520.03,418.094 1519.03,417.427 1517.5,417.5C 1517.03,416.094 1516.03,415.427 1514.5,415.5C 1513.74,413.738 1512.4,412.738 1510.5,412.5C 1510.5,411.5 1510.5,410.5 1510.5,409.5C 1512.03,409.573 1513.03,408.906 1513.5,407.5C 1514.51,406.326 1515.85,405.66 1517.5,405.5C 1519.03,405.573 1520.03,404.906 1520.5,403.5C 1523.38,401.895 1526.38,400.561 1529.5,399.5C 1531.15,399.34 1532.49,398.674 1533.5,397.5C 1535.43,395.707 1537.76,394.707 1540.5,394.5C 1542.97,394.245 1544.97,393.245 1546.5,391.5C 1548.85,389.659 1551.52,388.326 1554.5,387.5C 1556.7,387.88 1558.36,387.213 1559.5,385.5C 1560.87,385.657 1562.21,385.49 1563.5,385C 1565.43,384.098 1567.1,382.931 1568.5,381.5C 1569.93,380.463 1571.6,379.796 1573.5,379.5C 1576.48,379.818 1578.81,378.818 1580.5,376.5C 1583.49,376.834 1585.82,375.834 1587.5,373.5C 1587.84,372.662 1588.51,372.328 1589.5,372.5C 1591.7,372.88 1593.36,372.213 1594.5,370.5C 1596.7,370.88 1598.36,370.213 1599.5,368.5C 1601.7,368.88 1603.36,368.213 1604.5,366.5C 1606.7,366.88 1608.36,366.213 1609.5,364.5C 1611.7,364.88 1613.36,364.213 1614.5,362.5C 1614.83,362.5 1615.17,362.5 1615.5,362.5C 1617.7,362.88 1619.36,362.213 1620.5,360.5C 1621.57,359.566 1622.9,359.232 1624.5,359.5C 1631.17,358.276 1637.5,356.276 1643.5,353.5C 1645.86,353.326 1648.19,352.993 1650.5,352.5 Z"/></g>
<g><path style="opacity:0.031" fill="#181818" d="M 2140.5,352.5 C 2142.4,352.738 2143.74,353.738 2144.5,355.5C 2142.6,355.262 2141.26,354.262 2140.5,352.5 Z"/></g>
<g><path style="opacity:0.753" fill="#2c2c2c" d="M 2453.5,353.5 C 2455.26,354.262 2456.26,355.596 2456.5,357.5C 2454.74,356.738 2453.74,355.404 2453.5,353.5 Z"/></g>
<g><path style="opacity:0.596" fill="#2c2c2c" d="M 1423.5,352.5 C 1421.43,355.573 1418.76,357.906 1415.5,359.5C 1417.57,356.427 1420.24,354.094 1423.5,352.5 Z"/></g>
<g><path style="opacity:0.6" fill="#2b2b2b" d="M 2128.5,352.5 C 2126.76,355.243 2124.43,357.243 2121.5,358.5C 2123.24,355.757 2125.57,353.757 2128.5,352.5 Z"/></g>
<g><path style="opacity:0.784" fill="#353535" d="M 1643.5,353.5 C 1637.5,356.276 1631.17,358.276 1624.5,359.5C 1630.5,356.724 1636.83,354.724 1643.5,353.5 Z"/></g>
<g><path style="opacity:0.831" fill="#333333" d="M 2334.5,356.5 C 2333.36,358.213 2331.7,358.88 2329.5,358.5C 2330.93,357.463 2332.6,356.796 2334.5,356.5 Z"/></g>
<g><path style="opacity:0.745" fill="#292929" d="M 2410.5,357.5 C 2412.7,357.12 2414.36,357.787 2415.5,359.5C 2413.6,359.204 2411.93,358.537 2410.5,357.5 Z"/></g>
<g><path style="opacity:0.373" fill="#1d1d1d" d="M 2121.5,358.5 C 2122.75,361.093 2124.42,363.427 2126.5,365.5C 2122.59,364.323 2120.92,361.989 2121.5,358.5 Z"/></g>
<g><path style="opacity:0.004" fill="#0c0c0c" d="M 2148.5,359.5 C 2150.5,359.5 2151.5,360.5 2151.5,362.5C 2150.17,361.833 2149.17,360.833 2148.5,359.5 Z"/></g>
<g><path style="opacity:0.776" fill="#323232" d="M 2328.5,358.5 C 2326.38,360.655 2323.72,361.655 2320.5,361.5C 2322.94,360.129 2325.6,359.129 2328.5,358.5 Z"/></g>
<g><path style="opacity:0.8" fill="#2a2a2a" d="M 1620.5,360.5 C 1619.36,362.213 1617.7,362.88 1615.5,362.5C 1616.78,361.069 1618.45,360.402 1620.5,360.5 Z"/></g>
<g><path style="opacity:0.69" fill="#252525" d="M 1614.5,362.5 C 1613.36,364.213 1611.7,364.88 1609.5,364.5C 1610.93,363.463 1612.6,362.796 1614.5,362.5 Z"/></g>
<g><path style="opacity:0.451" fill="#303030" d="M 2456.5,357.5 C 2457.97,360.017 2458.64,362.85 2458.5,366C 2458.49,368.033 2458.16,369.866 2457.5,371.5C 2457.56,366.797 2457.23,362.13 2456.5,357.5 Z"/></g>
<g><path style="opacity:0.016" fill="#171717" d="M 1445.5,364.5 C 1450.11,367.436 1454.11,371.102 1457.5,375.5C 1452.89,372.564 1448.89,368.898 1445.5,364.5 Z"/></g>
<g><path style="opacity:0.004" fill="#191919" d="M 2153.5,364.5 C 2156.43,365.757 2158.76,367.757 2160.5,370.5C 2157.57,369.243 2155.24,367.243 2153.5,364.5 Z"/></g>
<g><path style="opacity:0.698" fill="#262626" d="M 2314.5,363.5 C 2313.36,365.213 2311.7,365.88 2309.5,365.5C 2310.93,364.463 2312.6,363.796 2314.5,363.5 Z"/></g>
<g><path style="opacity:0.788" fill="#2d2d2d" d="M 1609.5,364.5 C 1608.36,366.213 1606.7,366.88 1604.5,366.5C 1605.93,365.463 1607.6,364.796 1609.5,364.5 Z"/></g>
<g><path style="opacity:0.451" fill="#292929" d="M 2415.5,363.5 C 2416.91,363.973 2417.57,364.973 2417.5,366.5C 2416.09,366.027 2415.43,365.027 2415.5,363.5 Z"/></g>
<g><path style="opacity:0.753" fill="#282828" d="M 2309.5,365.5 C 2308.36,367.213 2306.7,367.88 2304.5,367.5C 2305.93,366.463 2307.6,365.796 2309.5,365.5 Z"/></g>
<g><path style="opacity:0.796" fill="#2c2c2c" d="M 1604.5,366.5 C 1603.36,368.213 1601.7,368.88 1599.5,368.5C 1600.93,367.463 1602.6,366.796 1604.5,366.5 Z"/></g>
<g><path style="opacity:0.686" fill="#1d1d1d" d="M 1421.5,368.5 C 1425.44,370.766 1428.77,373.766 1431.5,377.5C 1427.56,375.234 1424.23,372.234 1421.5,368.5 Z"/></g>
<g><path style="opacity:0.729" fill="#262626" d="M 2304.5,367.5 C 2303.36,369.213 2301.7,369.88 2299.5,369.5C 2300.93,368.463 2302.6,367.796 2304.5,367.5 Z"/></g>
<g><path style="opacity:0.812" fill="#303030" d="M 1599.5,368.5 C 1598.36,370.213 1596.7,370.88 1594.5,370.5C 1595.93,369.463 1597.6,368.796 1599.5,368.5 Z"/></g>
<g><path style="opacity:0.71" fill="#242424" d="M 2130.5,369.5 C 2133.76,371.094 2136.43,373.427 2138.5,376.5C 2135.24,374.906 2132.57,372.573 2130.5,369.5 Z"/></g>
<g><path style="opacity:0.698" fill="#282828" d="M 2299.5,369.5 C 2298.36,371.213 2296.7,371.88 2294.5,371.5C 2295.93,370.463 2297.6,369.796 2299.5,369.5 Z"/></g>
<g><path style="opacity:0.792" fill="#2c2c2c" d="M 1594.5,370.5 C 1593.36,372.213 1591.7,372.88 1589.5,372.5C 1590.93,371.463 1592.6,370.796 1594.5,370.5 Z"/></g>
<g><path style="opacity:0.004" fill="#111111" d="M 2164.5,374.5 C 2166.83,374.833 2168.17,376.167 2168.5,378.5C 2166.83,377.5 2165.5,376.167 2164.5,374.5 Z"/></g>
<g><path style="opacity:0.941" fill="#3c3c3c" d="M 1587.5,373.5 C 1585.82,375.834 1583.49,376.834 1580.5,376.5C 1582.51,374.935 1584.84,373.935 1587.5,373.5 Z"/></g>
<g><path style="opacity:0.871" fill="#303030" d="M 2283.5,376.5 C 2282.36,378.213 2280.7,378.88 2278.5,378.5C 2279.78,377.069 2281.45,376.402 2283.5,376.5 Z"/></g>
<g><path style="opacity:0.933" fill="#383838" d="M 1580.5,376.5 C 1578.81,378.818 1576.48,379.818 1573.5,379.5C 1575.6,378.088 1577.94,377.088 1580.5,376.5 Z"/></g>
<g><path style="opacity:0.596" fill="#202020" d="M 1433.5,379.5 C 1435.75,380.08 1437.42,381.413 1438.5,383.5C 1436.25,382.92 1434.58,381.587 1433.5,379.5 Z"/></g>
<g><path style="opacity:0.808" fill="#333333" d="M 2421.5,376.5 C 2421.88,378.698 2421.21,380.365 2419.5,381.5C 2419.8,379.597 2420.46,377.93 2421.5,376.5 Z"/></g>
<g><path style="opacity:0.024" fill="#151515" d="M 1462.5,380.5 C 1464.4,380.738 1465.74,381.738 1466.5,383.5C 1464.6,383.262 1463.26,382.262 1462.5,380.5 Z"/></g>
<g><path style="opacity:0.867" fill="#353535" d="M 2278.5,378.5 C 2276.82,380.834 2274.49,381.834 2271.5,381.5C 2273.51,379.935 2275.84,378.935 2278.5,378.5 Z"/></g>
<g><path style="opacity:0.314" fill="#1b1b1b" d="M 2140.5,378.5 C 2143.09,379.419 2145.09,381.086 2146.5,383.5C 2143.91,382.581 2141.91,380.914 2140.5,378.5 Z"/></g>
<g><path style="opacity:0.004" fill="#141414" d="M 2173.5,382.5 C 2175.75,383.08 2177.42,384.413 2178.5,386.5C 2176.25,385.92 2174.58,384.587 2173.5,382.5 Z"/></g>
<g><path style="opacity:0.467" fill="#2a2a2a" d="M 1568.5,381.5 C 1567.1,382.931 1565.43,384.098 1563.5,385C 1562.21,385.49 1560.87,385.657 1559.5,385.5C 1562.05,383.416 1565.05,382.083 1568.5,381.5 Z"/></g>
<g><path style="opacity:0.71" fill="#222222" d="M 1440.5,385.5 C 1443.43,386.757 1445.76,388.757 1447.5,391.5C 1444.57,390.243 1442.24,388.243 1440.5,385.5 Z"/></g>
<g><path style="opacity:0.565" fill="#222222" d="M 2148.5,385.5 C 2150.4,385.738 2151.74,386.738 2152.5,388.5C 2150.6,388.262 2149.26,387.262 2148.5,385.5 Z"/></g>
<g><path style="opacity:0.941" fill="#3c3c3c" d="M 2267.5,383.5 C 2265.82,385.834 2263.49,386.834 2260.5,386.5C 2262.51,384.935 2264.84,383.935 2267.5,383.5 Z"/></g>
<g><path style="opacity:0.02" fill="#151515" d="M 1469.5,386.5 C 1471.4,386.738 1472.74,387.738 1473.5,389.5C 1471.6,389.262 1470.26,388.262 1469.5,386.5 Z"/></g>
<g><path style="opacity:0.765" fill="#2c2c2c" d="M 1559.5,385.5 C 1558.36,387.213 1556.7,387.88 1554.5,387.5C 1555.93,386.463 1557.6,385.796 1559.5,385.5 Z"/></g>
<g><path style="opacity:0.047" fill="#171717" d="M 2260.5,386.5 C 2258.82,388.008 2256.82,389.008 2254.5,389.5C 2255.91,387.461 2257.91,386.461 2260.5,386.5 Z"/></g>
<g><path style="opacity:0.075" fill="#131313" d="M 2418.5,383.5 C 2418.54,386.089 2417.54,388.089 2415.5,389.5C 2415.99,387.181 2416.99,385.181 2418.5,383.5 Z"/></g>
<g><path style="opacity:0.016" fill="#161616" d="M 2181.5,389.5 C 2183.03,389.427 2184.03,390.094 2184.5,391.5C 2182.97,391.573 2181.97,390.906 2181.5,389.5 Z"/></g>
<g><path style="opacity:0.004" fill="#191919" d="M 1473.5,389.5 C 1475.75,390.124 1477.42,391.457 1478.5,393.5C 1476.21,392.864 1474.54,391.531 1473.5,389.5 Z"/></g>
<g><path style="opacity:0.667" fill="#242424" d="M 2154.5,390.5 C 2156.75,391.08 2158.42,392.413 2159.5,394.5C 2157.25,393.92 2155.58,392.587 2154.5,390.5 Z"/></g>
<g><path style="opacity:0.212" fill="#161616" d="M 2415.5,390.5 C 2415.57,392.027 2414.91,393.027 2413.5,393.5C 2413.43,391.973 2414.09,390.973 2415.5,390.5 Z"/></g>
<g><path style="opacity:0.62" fill="#202020" d="M 1449.5,393.5 C 1451.75,394.08 1453.42,395.413 1454.5,397.5C 1452.25,396.92 1450.58,395.587 1449.5,393.5 Z"/></g>
<g><path style="opacity:0.541" fill="#2b2b2b" d="M 1546.5,391.5 C 1544.97,393.245 1542.97,394.245 1540.5,394.5C 1542.03,392.755 1544.03,391.755 1546.5,391.5 Z"/></g>
<g><path style="opacity:0.435" fill="#1b1b1b" d="M 2247.5,392.5 C 2246.49,393.674 2245.15,394.34 2243.5,394.5C 2244.29,392.896 2245.62,392.229 2247.5,392.5 Z"/></g>
<g><path style="opacity:0.918" fill="#2f2f2f" d="M 2186.5,393.5 C 2188.23,394.026 2189.56,395.026 2190.5,396.5C 2188.37,396.446 2187.03,395.446 2186.5,393.5 Z"/></g>
<g><path style="opacity:0.004" fill="#121212" d="M 1480.5,395.5 C 1482.03,395.427 1483.03,396.094 1483.5,397.5C 1481.97,397.573 1480.97,396.906 1480.5,395.5 Z"/></g>
<g><path style="opacity:0.576" fill="#232323" d="M 2161.5,396.5 C 2163.4,396.738 2164.74,397.738 2165.5,399.5C 2163.6,399.262 2162.26,398.262 2161.5,396.5 Z"/></g>
<g><path style="opacity:0.004" fill="#101010" d="M 2190.5,396.5 C 2192.4,396.738 2193.74,397.738 2194.5,399.5C 2192.6,399.262 2191.26,398.262 2190.5,396.5 Z"/></g>
<g><path style="opacity:0.918" fill="#3c3c3c" d="M 2243.5,394.5 C 2241.16,397.165 2238.16,398.498 2234.5,398.5C 2237.09,396.408 2240.09,395.075 2243.5,394.5 Z"/></g>
<g><path style="opacity:0.004" fill="#0f0f0f" d="M 2407.5,395.5 C 2407.57,397.027 2406.91,398.027 2405.5,398.5C 2405.43,396.973 2406.09,395.973 2407.5,395.5 Z"/></g>
<g><path style="opacity:0.255" fill="#1d1d1d" d="M 2412.5,395.5 C 2412.57,397.027 2411.91,398.027 2410.5,398.5C 2410.43,396.973 2411.09,395.973 2412.5,395.5 Z"/></g>
<g><path style="opacity:0.4" fill="#181818" d="M 1533.5,397.5 C 1532.49,398.674 1531.15,399.34 1529.5,399.5C 1530.29,397.896 1531.62,397.229 1533.5,397.5 Z"/></g>
<g><path style="opacity:0.004" fill="#131313" d="M 1485.5,399.5 C 1487.03,399.427 1488.03,400.094 1488.5,401.5C 1486.97,401.573 1485.97,400.906 1485.5,399.5 Z"/></g>
<g><path style="opacity:0.004" fill="#1a1a1a" d="M 2194.5,399.5 C 2196.75,400.124 2198.42,401.457 2199.5,403.5C 2197.21,402.864 2195.54,401.531 2194.5,399.5 Z"/></g>
<g><path style="opacity:0.596" fill="#212121" d="M 2167.5,401.5 C 2169.75,402.08 2171.42,403.413 2172.5,405.5C 2170.25,404.92 2168.58,403.587 2167.5,401.5 Z"/></g>
<g><path style="opacity:0.016" fill="#0e0e0e" d="M 1489.5,402.5 C 1491.03,402.427 1492.03,403.094 1492.5,404.5C 1490.97,404.573 1489.97,403.906 1489.5,402.5 Z"/></g>
<g><path style="opacity:0.176" fill="#161616" d="M 1456.5,399.5 C 1459.09,400.419 1461.09,402.086 1462.5,404.5C 1459.91,403.581 1457.91,401.914 1456.5,399.5 Z"/></g>
<g><path style="opacity:0.431" fill="#1c1c1c" d="M 1520.5,403.5 C 1520.03,404.906 1519.03,405.573 1517.5,405.5C 1517.97,404.094 1518.97,403.427 1520.5,403.5 Z"/></g>
<g><path style="opacity:0.569" fill="#232323" d="M 2224.5,403.5 C 2224.03,404.906 2223.03,405.573 2221.5,405.5C 2221.97,404.094 2222.97,403.427 2224.5,403.5 Z"/></g>
<g><path style="opacity:0.008" fill="#101010" d="M 2401.5,403.5 C 2401.57,405.027 2400.91,406.027 2399.5,406.5C 2399.43,404.973 2400.09,403.973 2401.5,403.5 Z"/></g>
<g><path style="opacity:0.243" fill="#1e1e1e" d="M 2409.5,400.5 C 2408.92,402.749 2407.59,404.415 2405.5,405.5C 2406.08,403.251 2407.41,401.585 2409.5,400.5 Z"/></g>
<g><path style="opacity:0.027" fill="#161616" d="M 1494.5,406.5 C 1496.03,406.427 1497.03,407.094 1497.5,408.5C 1495.97,408.573 1494.97,407.906 1494.5,406.5 Z"/></g>
<g><path style="opacity:0.616" fill="#222222" d="M 2405.5,405.5 C 2405.26,407.404 2404.26,408.738 2402.5,409.5C 2402.74,407.596 2403.74,406.262 2405.5,405.5 Z"/></g>
<g><path style="opacity:0.016" fill="#141414" d="M 2204.5,407.5 C 2206.03,407.427 2207.03,408.094 2207.5,409.5C 2205.97,409.573 2204.97,408.906 2204.5,407.5 Z"/></g>
<g><path style="opacity:0.663" fill="#2d2d2d" d="M 2219.5,406.5 C 2219.03,407.906 2218.03,408.573 2216.5,408.5C 2216.97,407.094 2217.97,406.427 2219.5,406.5 Z"/></g>
<g><path style="opacity:0.004" fill="#121212" d="M 2440.5,406.5 C 2440.57,408.027 2439.91,409.027 2438.5,409.5C 2438.43,407.973 2439.09,406.973 2440.5,406.5 Z"/></g>
<g><path style="opacity:0.278" fill="#181818" d="M 1462.5,404.5 C 1465.09,405.419 1467.09,407.086 1468.5,409.5C 1465.91,408.581 1463.91,406.914 1462.5,404.5 Z"/></g>
<g><path style="opacity:0.004" fill="#0c0c0c" d="M 1497.5,408.5 C 1499.03,408.427 1500.03,409.094 1500.5,410.5C 1498.97,410.573 1497.97,409.906 1497.5,408.5 Z"/></g>
<g><path style="opacity:0.549" fill="#242424" d="M 1513.5,407.5 C 1513.03,408.906 1512.03,409.573 1510.5,409.5C 1510.97,408.094 1511.97,407.427 1513.5,407.5 Z"/></g>
<g><path style="opacity:0.275" fill="#1d1d1d" d="M 2172.5,405.5 C 2175.09,406.419 2177.09,408.086 2178.5,410.5C 2175.91,409.581 2173.91,407.914 2172.5,405.5 Z"/></g>
<g><path style="opacity:0.745" fill="#272727" d="M 1510.5,409.5 C 1510.5,410.5 1510.5,411.5 1510.5,412.5C 1507.83,411.5 1507.83,410.5 1510.5,409.5 Z"/></g>
<g><path style="opacity:0.82" fill="#292929" d="M 2207.5,409.5 C 2209.23,410.026 2210.56,411.026 2211.5,412.5C 2209.37,412.446 2208.03,411.446 2207.5,409.5 Z"/></g>
<g><path style="opacity:0.008" fill="#101010" d="M 2438.5,409.5 C 2438.57,411.027 2437.91,412.027 2436.5,412.5C 2436.43,410.973 2437.09,409.973 2438.5,409.5 Z"/></g>
<g><path style="opacity:0.004" fill="#1a1a1a" d="M 1500.5,410.5 C 1502.23,411.026 1503.56,412.026 1504.5,413.5C 1502.37,413.446 1501.03,412.446 1500.5,410.5 Z"/></g>
<g><path style="opacity:0.325" fill="#202020" d="M 1468.5,409.5 C 1470.75,410.08 1472.42,411.413 1473.5,413.5C 1471.25,412.92 1469.58,411.587 1468.5,409.5 Z"/></g>
<g><path style="opacity:0.008" fill="#131313" d="M 2395.5,410.5 C 2394.92,412.749 2393.59,414.415 2391.5,415.5C 2392.08,413.251 2393.41,411.585 2395.5,410.5 Z"/></g>
<g><path style="opacity:0.431" fill="#212121" d="M 1510.5,412.5 C 1512.4,412.738 1513.74,413.738 1514.5,415.5C 1512.6,415.262 1511.26,414.262 1510.5,412.5 Z"/></g>
<g><path style="opacity:0.314" fill="#1b1b1b" d="M 2178.5,410.5 C 2181.09,411.419 2183.09,413.086 2184.5,415.5C 2181.91,414.581 2179.91,412.914 2178.5,410.5 Z"/></g>
<g><path style="opacity:0.902" fill="#2f2f2f" d="M 2211.5,412.5 C 2213.23,413.026 2214.56,414.026 2215.5,415.5C 2213.37,415.446 2212.03,414.446 2211.5,412.5 Z"/></g>
<g><path style="opacity:0.22" fill="#181818" d="M 2218.5,412.5 C 2220.03,412.427 2221.03,413.094 2221.5,414.5C 2219.97,414.573 2218.97,413.906 2218.5,412.5 Z"/></g>
<g><path style="opacity:0.678" fill="#222222" d="M 2184.5,415.5 C 2186.75,416.08 2188.42,417.413 2189.5,419.5C 2187.25,418.92 2185.58,417.587 2184.5,415.5 Z"/></g>
<g><path style="opacity:0.016" fill="#1b1b1b" d="M 1507.5,415.5 C 1509.23,416.026 1510.56,417.026 1511.5,418.5C 1509.37,418.446 1508.03,417.446 1507.5,415.5 Z"/></g>
<g><path style="opacity:0.243" fill="#1c1c1c" d="M 1514.5,415.5 C 1516.03,415.427 1517.03,416.094 1517.5,417.5C 1515.97,417.573 1514.97,416.906 1514.5,415.5 Z"/></g>
<g><path style="opacity:0.353" fill="#232323" d="M 2223.5,415.5 C 2225.03,415.427 2226.03,416.094 2226.5,417.5C 2224.97,417.573 2223.97,416.906 2223.5,415.5 Z"/></g>
<g><path style="opacity:0.569" fill="#2c2c2c" d="M 2400.5,411.5 C 2396.5,417.5 2391.5,422.5 2385.5,426.5C 2390.17,421.167 2395.17,416.167 2400.5,411.5 Z"/></g>
<g><path style="opacity:0.243" fill="#202020" d="M 1473.5,413.5 C 1476.09,414.419 1478.09,416.086 1479.5,418.5C 1476.91,417.581 1474.91,415.914 1473.5,413.5 Z"/></g>
<g><path style="opacity:0.733" fill="#252525" d="M 1479.5,418.5 C 1481.75,419.08 1483.42,420.413 1484.5,422.5C 1482.25,421.92 1480.58,420.587 1479.5,418.5 Z"/></g>
<g><path style="opacity:0.02" fill="#111111" d="M 1511.5,418.5 C 1513.03,418.427 1514.03,419.094 1514.5,420.5C 1512.97,420.573 1511.97,419.906 1511.5,418.5 Z"/></g>
<g><path style="opacity:0.243" fill="#191919" d="M 1517.5,417.5 C 1519.03,417.427 1520.03,418.094 1520.5,419.5C 1518.97,419.573 1517.97,418.906 1517.5,417.5 Z"/></g>
<g><path style="opacity:0.153" fill="#161616" d="M 2226.5,417.5 C 2228.03,417.427 2229.03,418.094 2229.5,419.5C 2227.97,419.573 2226.97,418.906 2226.5,417.5 Z"/></g>
<g><path style="opacity:0.02" fill="#171717" d="M 2432.5,417.5 C 2432.57,419.027 2431.91,420.027 2430.5,420.5C 2430.43,418.973 2431.09,417.973 2432.5,417.5 Z"/></g>
<g><path style="opacity:0.275" fill="#202020" d="M 1522.5,420.5 C 1524.03,420.427 1525.03,421.094 1525.5,422.5C 1523.97,422.573 1522.97,421.906 1522.5,420.5 Z"/></g>
<g><path style="opacity:0.804" fill="#2c2c2c" d="M 2223.5,420.5 C 2225.23,421.026 2226.56,422.026 2227.5,423.5C 2225.37,423.446 2224.03,422.446 2223.5,420.5 Z"/></g>
<g><path style="opacity:0.012" fill="#101010" d="M 2388.5,418.5 C 2387.42,420.587 2385.75,421.92 2383.5,422.5C 2384.58,420.413 2386.25,419.08 2388.5,418.5 Z"/></g>
<g><path style="opacity:0.078" fill="#1c1c1c" d="M 1514.5,420.5 C 1517.4,421.443 1519.73,423.11 1521.5,425.5C 1518.56,424.544 1516.23,422.877 1514.5,420.5 Z"/></g>
<g><path style="opacity:0.239" fill="#1d1d1d" d="M 2189.5,419.5 C 2191.75,420.08 2193.42,421.413 2194.5,423.5C 2192.25,422.92 2190.58,421.587 2189.5,419.5 Z"/></g>
<g><path style="opacity:0.671" fill="#272727" d="M 2194.5,423.5 C 2196.4,423.738 2197.74,424.738 2198.5,426.5C 2196.6,426.262 2195.26,425.262 2194.5,423.5 Z"/></g>
<g><path style="opacity:0.165" fill="#161616" d="M 2235.5,422.5 C 2237.03,422.427 2238.03,423.094 2238.5,424.5C 2236.97,424.573 2235.97,423.906 2235.5,422.5 Z"/></g>
<g><path style="opacity:0.016" fill="#151515" d="M 2428.5,422.5 C 2428.57,424.027 2427.91,425.027 2426.5,425.5C 2426.43,423.973 2427.09,422.973 2428.5,422.5 Z"/></g>
<g><path style="opacity:0.286" fill="#202020" d="M 1484.5,422.5 C 1486.75,423.08 1488.42,424.413 1489.5,426.5C 1487.25,425.92 1485.58,424.587 1484.5,422.5 Z"/></g>
<g><path style="opacity:0.718" fill="#232323" d="M 1489.5,426.5 C 1491.4,426.738 1492.74,427.738 1493.5,429.5C 1491.6,429.262 1490.26,428.262 1489.5,426.5 Z"/></g>
<g><path style="opacity:0.004" fill="#0c0c0c" d="M 1522.5,426.5 C 1524.55,427.053 1524.89,428.053 1523.5,429.5C 1523.44,428.391 1523.11,427.391 1522.5,426.5 Z"/></g>
<g><path style="opacity:0.824" fill="#2d2d2d" d="M 2231.5,425.5 C 2232.71,425.932 2233.71,426.599 2234.5,427.5C 2232.82,427.715 2231.82,427.048 2231.5,425.5 Z"/></g>
<g><path style="opacity:0.004" fill="#080808" d="M 2379.5,426.5 C 2379.03,427.906 2378.03,428.573 2376.5,428.5C 2376.97,427.094 2377.97,426.427 2379.5,426.5 Z"/></g>
<g><path style="opacity:0.18" fill="#1e1e1e" d="M 2198.5,426.5 C 2200.75,427.08 2202.42,428.413 2203.5,430.5C 2201.25,429.92 2199.58,428.587 2198.5,426.5 Z"/></g>
<g><path style="opacity:0.635" fill="#2b2b2b" d="M 2385.5,426.5 C 2384.09,428.914 2382.09,430.581 2379.5,431.5C 2380.91,429.086 2382.91,427.419 2385.5,426.5 Z"/></g>
<g><path style="opacity:0.082" fill="#151515" d="M 2238.5,429.5 C 2240.03,429.427 2241.03,430.094 2241.5,431.5C 2239.97,431.573 2238.97,430.906 2238.5,429.5 Z"/></g>
<g><path style="opacity:0.267" fill="#171717" d="M 2203.5,430.5 C 2205.03,430.427 2206.03,431.094 2206.5,432.5C 2204.97,432.573 2203.97,431.906 2203.5,430.5 Z"/></g>
<g><path style="opacity:0.91" fill="#333333" d="M 2255.5,432.5 C 2258.49,432.166 2260.82,433.166 2262.5,435.5C 2259.84,435.065 2257.51,434.065 2255.5,432.5 Z"/></g>
<g><path style="opacity:0.525" fill="#252525" d="M 2379.5,431.5 C 2379.03,432.906 2378.03,433.573 2376.5,433.5C 2376.97,432.094 2377.97,431.427 2379.5,431.5 Z"/></g>
<g><path style="opacity:0.212" fill="#161616" d="M 2206.5,432.5 C 2208.03,432.427 2209.03,433.094 2209.5,434.5C 2207.97,434.573 2206.97,433.906 2206.5,432.5 Z"/></g>
<g><path style="opacity:0.365" fill="#1a1a1a" d="M 2376.5,433.5 C 2376.03,434.906 2375.03,435.573 2373.5,435.5C 2373.97,434.094 2374.97,433.427 2376.5,433.5 Z"/></g>
<g><path style="opacity:0.718" fill="#272727" d="M 2262.5,435.5 C 2264.7,435.12 2266.36,435.787 2267.5,437.5C 2265.6,437.204 2263.93,436.537 2262.5,435.5 Z"/></g>
<g><path style="opacity:0.341" fill="#222222" d="M 2211.5,435.5 C 2213.03,435.427 2214.03,436.094 2214.5,437.5C 2212.97,437.573 2211.97,436.906 2211.5,435.5 Z"/></g>
<g><path style="opacity:0.322" fill="#1a1a1a" d="M 2373.5,435.5 C 2372.74,437.262 2371.4,438.262 2369.5,438.5C 2370.26,436.738 2371.6,435.738 2373.5,435.5 Z"/></g>
<g><path style="opacity:0.173" fill="#141414" d="M 2214.5,437.5 C 2216.03,437.427 2217.03,438.094 2217.5,439.5C 2215.97,439.573 2214.97,438.906 2214.5,437.5 Z"/></g>
<g><path style="opacity:0.294" fill="#222222" d="M 2255.5,437.5 C 2257.55,437.402 2259.22,438.069 2260.5,439.5C 2258.45,439.598 2256.78,438.931 2255.5,437.5 Z"/></g>
<g><path style="opacity:0.82" fill="#313131" d="M 2274.5,439.5 C 2276.7,439.12 2278.36,439.787 2279.5,441.5C 2277.6,441.204 2275.93,440.537 2274.5,439.5 Z"/></g>
<g><path style="opacity:0.004" fill="#0b0b0b" d="M 2412.5,438.5 C 2412.5,439.833 2411.83,440.5 2410.5,440.5C 2410.83,439.5 2411.5,438.833 2412.5,438.5 Z"/></g>
<g><path style="opacity:0.161" fill="#131313" d="M 2219.5,440.5 C 2221.03,440.427 2222.03,441.094 2222.5,442.5C 2220.97,442.573 2219.97,441.906 2219.5,440.5 Z"/></g>
<g><path style="opacity:0.427" fill="#1c1c1c" d="M 2365.5,440.5 C 2365.03,441.906 2364.03,442.573 2362.5,442.5C 2362.97,441.094 2363.97,440.427 2365.5,440.5 Z"/></g>
<g><path style="opacity:0.792" fill="#292929" d="M 2284.5,442.5 C 2288.16,442.723 2291.5,443.723 2294.5,445.5C 2290.84,445.277 2287.5,444.277 2284.5,442.5 Z"/></g>
<g><path style="opacity:0.033" fill="#171717" d="M 2274.5,444.5 C 2277.15,444.41 2279.49,445.076 2281.5,446.5C 2278.85,446.59 2276.51,445.924 2274.5,444.5 Z"/></g>
<g><path style="opacity:0.878" fill="#373737" d="M 2360.5,443.5 C 2358.82,445.834 2356.49,446.834 2353.5,446.5C 2355.51,444.935 2357.84,443.935 2360.5,443.5 Z"/></g>
<g><path style="opacity:0.016" fill="#0b0b0b" d="M 2405.5,444.5 C 2405.03,445.906 2404.03,446.573 2402.5,446.5C 2402.97,445.094 2403.97,444.427 2405.5,444.5 Z"/></g>
<g><path style="opacity:0.086" fill="#141414" d="M 2228.5,445.5 C 2230.03,445.427 2231.03,446.094 2231.5,447.5C 2229.97,447.573 2228.97,446.906 2228.5,445.5 Z"/></g>
<g><path style="opacity:0.478" fill="#2a2a2a" d="M 2281.5,446.5 C 2283.79,446.595 2285.79,447.262 2287.5,448.5C 2285.1,448.741 2283.1,448.074 2281.5,446.5 Z"/></g>
<g><path style="opacity:0.78" fill="#373737" d="M 2353.5,446.5 C 2351.38,448.655 2348.72,449.655 2345.5,449.5C 2347.94,448.129 2350.6,447.129 2353.5,446.5 Z"/></g>
<g><path style="opacity:0.165" fill="#171717" d="M 2234.5,448.5 C 2236.03,448.427 2237.03,449.094 2237.5,450.5C 2235.97,450.573 2234.97,449.906 2234.5,448.5 Z"/></g>
<g><path style="opacity:0.004" fill="#0e0e0e" d="M 2396.5,450.5 C 2396.03,451.906 2395.03,452.573 2393.5,452.5C 2393.97,451.094 2394.97,450.427 2396.5,450.5 Z"/></g>
<g><path style="opacity:0.937" fill="#343434" d="M 2244.5,453.5 C 2246.48,453.157 2247.82,453.824 2248.5,455.5C 2246.85,455.34 2245.51,454.674 2244.5,453.5 Z"/></g>
<g><path style="opacity:0.769" fill="#2b2b2b" d="M 2248.5,455.5 C 2250.7,455.12 2252.36,455.787 2253.5,457.5C 2251.6,457.204 2249.93,456.537 2248.5,455.5 Z"/></g>
<g><path style="opacity:0.78" fill="#282828" d="M 2271.5,463.5 C 2274.92,463.528 2277.92,464.528 2280.5,466.5C 2277.22,466.072 2274.22,465.072 2271.5,463.5 Z"/></g>
</svg>
