<?xml version="1.0" encoding="UTF-8"?>
<!DOCTYPE svg PUBLIC "-//W3C//DTD SVG 1.1//EN" "http://www.w3.org/Graphics/SVG/1.1/DTD/svg11.dtd">
<svg xmlns="http://www.w3.org/2000/svg" version="1.1" width="2591px" height="1206px" style="shape-rendering:geometricPrecision; text-rendering:geometricPrecision; image-rendering:optimizeQuality; fill-rule:evenodd; clip-rule:evenodd" xmlns:xlink="http://www.w3.org/1999/xlink">
<g><path style="opacity:1" fill="#656565" d="M 2009.5,274.5 C 2013.16,276.342 2017.16,277.342 2021.5,277.5C 2030.23,278.967 2038.57,281.634 2046.5,285.5C 2046.82,287.048 2047.82,287.715 2049.5,287.5C 2057.6,290.383 2065.26,294.05 2072.5,298.5C 2072.82,300.048 2073.82,300.715 2075.5,300.5C 2080.41,302.739 2085.07,305.406 2089.5,308.5C 2089.82,310.048 2090.82,310.715 2092.5,310.5C 2093.49,310.328 2094.16,310.662 2094.5,311.5C 2094.82,313.048 2095.82,313.715 2097.5,313.5C 2097.82,315.048 2098.82,315.715 2100.5,315.5C 2101.49,315.328 2102.16,315.662 2102.5,316.5C 2103.03,318.446 2104.37,319.446 2106.5,319.5C 2109.71,321.265 2112.71,323.265 2115.5,325.5C 2116.03,327.446 2117.37,328.446 2119.5,328.5C 2119.83,329.5 2120.5,330.167 2121.5,330.5C 2125.7,332.19 2129.2,334.857 2132,338.5C 2132.44,341.614 2131.28,343.948 2128.5,345.5C 2127.5,345.833 2126.83,346.5 2126.5,347.5C 2125.5,347.833 2124.83,348.5 2124.5,349.5C 2120.46,354.031 2115.79,357.865 2110.5,361C 2092.74,370.212 2074.74,378.878 2056.5,387C 1931.28,435.516 1806.95,486.183 1683.5,539C 1648.97,556.401 1613.64,572.068 1577.5,586C 1509.94,618.52 1439.27,641.853 1365.5,656C 1344.18,661.081 1323.18,667.247 1302.5,674.5C 1301.89,674.376 1301.56,674.043 1301.5,673.5C 1301.45,671.368 1300.45,670.035 1298.5,669.5C 1297.47,667.483 1296.47,665.483 1295.5,663.5C 1295.71,661.821 1295.05,660.821 1293.5,660.5C 1293.5,660.167 1293.5,659.833 1293.5,659.5C 1293.71,657.821 1293.05,656.821 1291.5,656.5C 1290.89,655.609 1290.56,654.609 1290.5,653.5C 1290.71,651.821 1290.05,650.821 1288.5,650.5C 1288.5,650.167 1288.5,649.833 1288.5,649.5C 1288.71,647.821 1288.05,646.821 1286.5,646.5C 1285.89,645.609 1285.56,644.609 1285.5,643.5C 1285.71,641.821 1285.05,640.821 1283.5,640.5C 1281.55,636.271 1279.89,631.938 1278.5,627.5C 1277.27,623.178 1277.27,618.845 1278.5,614.5C 1279.08,611.669 1280.41,609.336 1282.5,607.5C 1284.26,606.738 1285.26,605.404 1285.5,603.5C 1287.83,600.5 1290.5,597.833 1293.5,595.5C 1296.43,594.243 1298.76,592.243 1300.5,589.5C 1301.44,588.026 1302.77,587.026 1304.5,586.5C 1306.03,586.573 1307.03,585.906 1307.5,584.5C 1310.17,584.167 1312.83,583.833 1315.5,583.5C 1315.83,583.5 1316.17,583.5 1316.5,583.5C 1316.82,585.048 1317.82,585.715 1319.5,585.5C 1319.82,587.048 1320.82,587.715 1322.5,587.5C 1323.03,589.446 1324.37,590.446 1326.5,590.5C 1328.39,591.604 1330.06,592.937 1331.5,594.5C 1332.03,596.446 1333.37,597.446 1335.5,597.5C 1336.03,599.446 1337.37,600.446 1339.5,600.5C 1341.43,601.11 1343.1,602.11 1344.5,603.5C 1344.82,605.048 1345.82,605.715 1347.5,605.5C 1348.83,606.167 1350.17,606.833 1351.5,607.5C 1351.82,609.048 1352.82,609.715 1354.5,609.5C 1358.35,610.93 1362.02,612.597 1365.5,614.5C 1367.78,616.223 1370.45,616.889 1373.5,616.5C 1374.83,616.5 1376.17,616.5 1377.5,616.5C 1379.7,616.88 1381.36,616.213 1382.5,614.5C 1382.83,614.5 1383.17,614.5 1383.5,614.5C 1385.03,614.573 1386.03,613.906 1386.5,612.5C 1388.03,612.573 1389.03,611.906 1389.5,610.5C 1393.68,604.054 1394.68,597.054 1392.5,589.5C 1392.84,587.517 1392.18,586.183 1390.5,585.5C 1390.5,585.167 1390.5,584.833 1390.5,584.5C 1390.71,582.821 1390.05,581.821 1388.5,581.5C 1386.12,579.116 1384.12,576.45 1382.5,573.5C 1381.74,571.738 1380.4,570.738 1378.5,570.5C 1377.5,570.167 1376.83,569.5 1376.5,568.5C 1375.74,566.738 1374.4,565.738 1372.5,565.5C 1372.03,564.094 1371.03,563.427 1369.5,563.5C 1368.51,563.672 1367.84,563.338 1367.5,562.5C 1366.4,561.395 1365.73,560.062 1365.5,558.5C 1371.18,554.992 1377.18,551.992 1383.5,549.5C 1385.03,549.573 1386.03,548.906 1386.5,547.5C 1390.18,544.992 1394.18,542.992 1398.5,541.5C 1401.49,541.834 1403.82,540.834 1405.5,538.5C 1409.19,536.331 1413.19,534.664 1417.5,533.5C 1419.04,533.453 1420.04,534.12 1420.5,535.5C 1420.74,537.404 1421.74,538.738 1423.5,539.5C 1423.74,541.404 1424.74,542.738 1426.5,543.5C 1427.5,543.833 1428.17,544.5 1428.5,545.5C 1428.43,547.027 1429.09,548.027 1430.5,548.5C 1430.43,550.027 1431.09,551.027 1432.5,551.5C 1432.74,553.404 1433.74,554.738 1435.5,555.5C 1436.5,555.833 1437.17,556.5 1437.5,557.5C 1437.43,559.027 1438.09,560.027 1439.5,560.5C 1440.5,560.833 1441.17,561.5 1441.5,562.5C 1441.43,564.027 1442.09,565.027 1443.5,565.5C 1443.83,566.5 1444.5,567.167 1445.5,567.5C 1449.98,572.245 1455.32,575.745 1461.5,578C 1463.83,578.667 1466.17,578.667 1468.5,578C 1470.41,576.878 1472.41,576.045 1474.5,575.5C 1476.26,574.738 1477.26,573.404 1477.5,571.5C 1479.98,570.313 1480.98,568.313 1480.5,565.5C 1482.1,556.72 1481.6,548.053 1479,539.5C 1476.19,531.226 1472.35,523.559 1467.5,516.5C 1467.37,514.708 1467.7,513.042 1468.5,511.5C 1470.03,511.573 1471.03,510.906 1471.5,509.5C 1474.72,509.655 1477.38,508.655 1479.5,506.5C 1479.83,506.5 1480.17,506.5 1480.5,506.5C 1483.5,506.706 1486.16,506.04 1488.5,504.5C 1491.94,502.796 1495.61,501.462 1499.5,500.5C 1503.36,500.23 1506.69,498.897 1509.5,496.5C 1510.21,495.596 1511.21,495.263 1512.5,495.5C 1512.43,497.027 1513.09,498.027 1514.5,498.5C 1516.08,500.663 1517.42,502.996 1518.5,505.5C 1518.43,507.027 1519.09,508.027 1520.5,508.5C 1521.67,509.514 1522.34,510.847 1522.5,512.5C 1522.43,514.027 1523.09,515.027 1524.5,515.5C 1525.34,515.842 1525.67,516.508 1525.5,517.5C 1525.43,519.027 1526.09,520.027 1527.5,520.5C 1528.34,520.842 1528.67,521.508 1528.5,522.5C 1528.74,524.404 1529.74,525.738 1531.5,526.5C 1531.43,528.027 1532.09,529.027 1533.5,529.5C 1533.74,531.404 1534.74,532.738 1536.5,533.5C 1539.67,536.498 1543,539.331 1546.5,542C 1551.23,543.934 1555.9,543.768 1560.5,541.5C 1562.03,541.573 1563.03,540.906 1563.5,539.5C 1564.26,537.632 1565.26,535.965 1566.5,534.5C 1567.12,534.389 1567.62,534.056 1568,533.5C 1568.82,528.648 1568.65,523.981 1567.5,519.5C 1566.51,515.924 1565.85,512.258 1565.5,508.5C 1565.74,506.102 1565.07,504.102 1563.5,502.5C 1561.04,494.089 1557.38,486.256 1552.5,479C 1554.37,476.23 1557.03,474.73 1560.5,474.5C 1562.03,474.573 1563.03,473.906 1563.5,472.5C 1569.93,468.954 1576.59,465.954 1583.5,463.5C 1585.03,463.573 1586.03,462.906 1586.5,461.5C 1588.05,460.559 1589.72,459.893 1591.5,459.5C 1594.48,459.037 1597.48,458.704 1600.5,458.5C 1602.26,459.262 1603.26,460.596 1603.5,462.5C 1603.74,464.404 1604.74,465.738 1606.5,466.5C 1606.43,468.027 1607.09,469.027 1608.5,469.5C 1608.43,471.027 1609.09,472.027 1610.5,472.5C 1610.43,474.027 1611.09,475.027 1612.5,475.5C 1612.43,477.027 1613.09,478.027 1614.5,478.5C 1614.43,480.027 1615.09,481.027 1616.5,481.5C 1616.74,483.404 1617.74,484.738 1619.5,485.5C 1619.74,487.404 1620.74,488.738 1622.5,489.5C 1622.43,491.027 1623.09,492.027 1624.5,492.5C 1627.96,495.462 1631.3,498.629 1634.5,502C 1638.59,504.053 1642.92,504.887 1647.5,504.5C 1650.86,504.784 1653.19,503.451 1654.5,500.5C 1657.45,499.191 1658.78,496.857 1658.5,493.5C 1660.41,490.96 1660.75,488.293 1659.5,485.5C 1659.5,481.167 1659.5,476.833 1659.5,472.5C 1659.6,469.781 1659.27,467.115 1658.5,464.5C 1658.25,463.287 1657.59,462.62 1656.5,462.5C 1653.23,454.024 1650.56,445.357 1648.5,436.5C 1648.33,434.379 1648.66,432.379 1649.5,430.5C 1656.73,426.051 1664.4,422.385 1672.5,419.5C 1675.49,419.834 1677.82,418.834 1679.5,416.5C 1680.17,416.5 1680.83,416.5 1681.5,416.5C 1681.83,418.833 1683.17,420.167 1685.5,420.5C 1686.08,422.749 1687.41,424.415 1689.5,425.5C 1691.17,426.5 1692.5,427.833 1693.5,429.5C 1693.74,431.404 1694.74,432.738 1696.5,433.5C 1698.63,435.091 1700.3,437.091 1701.5,439.5C 1701.43,441.027 1702.09,442.027 1703.5,442.5C 1704.5,442.833 1705.17,443.5 1705.5,444.5C 1705.43,446.027 1706.09,447.027 1707.5,447.5C 1708.5,447.833 1709.17,448.5 1709.5,449.5C 1710.08,451.749 1711.41,453.415 1713.5,454.5C 1717.54,458.542 1721.87,462.209 1726.5,465.5C 1726.82,467.048 1727.82,467.715 1729.5,467.5C 1733.69,469.623 1738.03,469.956 1742.5,468.5C 1744.4,468.262 1745.74,467.262 1746.5,465.5C 1747.91,465.027 1748.57,464.027 1748.5,462.5C 1752.64,450.265 1751.8,438.265 1746,426.5C 1743.82,422.806 1741.66,419.139 1739.5,415.5C 1739.57,413.973 1738.91,412.973 1737.5,412.5C 1732.9,407.395 1728.06,402.395 1723,397.5C 1723.03,395.522 1724.2,394.522 1726.5,394.5C 1728.03,394.573 1729.03,393.906 1729.5,392.5C 1731.43,390.707 1733.76,389.707 1736.5,389.5C 1738.03,389.573 1739.03,388.906 1739.5,387.5C 1750.37,381.897 1761.37,376.563 1772.5,371.5C 1773.61,371.557 1774.61,371.89 1775.5,372.5C 1777.17,373.5 1778.5,374.833 1779.5,376.5C 1779.74,378.404 1780.74,379.738 1782.5,380.5C 1782.43,382.027 1783.09,383.027 1784.5,383.5C 1784.74,385.404 1785.74,386.738 1787.5,387.5C 1788.34,387.842 1788.67,388.508 1788.5,389.5C 1788.43,391.027 1789.09,392.027 1790.5,392.5C 1791.34,392.842 1791.67,393.508 1791.5,394.5C 1791.43,396.027 1792.09,397.027 1793.5,397.5C 1794.67,398.514 1795.34,399.847 1795.5,401.5C 1795.43,403.027 1796.09,404.027 1797.5,404.5C 1798.34,404.842 1798.67,405.508 1798.5,406.5C 1798.43,408.027 1799.09,409.027 1800.5,409.5C 1800.74,411.404 1801.74,412.738 1803.5,413.5C 1804.49,414.795 1805.49,416.128 1806.5,417.5C 1806.83,419.833 1808.17,421.167 1810.5,421.5C 1813.79,423.776 1817.46,425.11 1821.5,425.5C 1823.86,425.663 1826.19,425.497 1828.5,425C 1829.06,424.617 1829.39,424.117 1829.5,423.5C 1831.65,421.206 1833.32,418.54 1834.5,415.5C 1837.07,407.515 1837.07,399.515 1834.5,391.5C 1833.63,389.283 1833.3,386.95 1833.5,384.5C 1833.68,380.714 1832.68,377.381 1830.5,374.5C 1829.6,373.791 1829.26,372.791 1829.5,371.5C 1829.84,369.517 1829.18,368.183 1827.5,367.5C 1825.52,363.531 1823.52,359.531 1821.5,355.5C 1821.71,353.821 1821.05,352.821 1819.5,352.5C 1816.51,349.826 1816.84,347.826 1820.5,346.5C 1822.03,346.573 1823.03,345.906 1823.5,344.5C 1825.18,342.992 1827.18,341.992 1829.5,341.5C 1831.03,341.573 1832.03,340.906 1832.5,339.5C 1832.84,338.662 1833.51,338.328 1834.5,338.5C 1836.03,338.573 1837.03,337.906 1837.5,336.5C 1838.9,335.11 1840.57,334.11 1842.5,333.5C 1844.03,333.573 1845.03,332.906 1845.5,331.5C 1845.84,330.662 1846.51,330.328 1847.5,330.5C 1849.44,329.85 1851.44,329.517 1853.5,329.5C 1857.37,331.029 1860.7,333.363 1863.5,336.5C 1864.42,339.089 1866.09,341.089 1868.5,342.5C 1870.17,343.5 1871.5,344.833 1872.5,346.5C 1872.43,348.027 1873.09,349.027 1874.5,349.5C 1875.5,349.833 1876.17,350.5 1876.5,351.5C 1876.43,353.027 1877.09,354.027 1878.5,354.5C 1880.22,356.223 1881.55,358.223 1882.5,360.5C 1882.74,362.404 1883.74,363.738 1885.5,364.5C 1885.74,366.404 1886.74,367.738 1888.5,368.5C 1888.74,370.404 1889.74,371.738 1891.5,372.5C 1892.5,372.833 1893.17,373.5 1893.5,374.5C 1893.74,376.404 1894.74,377.738 1896.5,378.5C 1898.83,380.167 1900.83,382.167 1902.5,384.5C 1902.82,386.048 1903.82,386.715 1905.5,386.5C 1909.55,387.928 1913.55,388.261 1917.5,387.5C 1919.03,387.573 1920.03,386.906 1920.5,385.5C 1920.83,384.5 1921.5,383.833 1922.5,383.5C 1923.91,383.027 1924.57,382.027 1924.5,380.5C 1924.97,378.421 1925.64,376.421 1926.5,374.5C 1928.16,372.562 1928.83,370.228 1928.5,367.5C 1928.5,364.5 1928.5,361.5 1928.5,358.5C 1928.66,356.143 1928.5,353.81 1928,351.5C 1927.62,350.944 1927.12,350.611 1926.5,350.5C 1924.05,344.209 1920.55,338.543 1916,333.5C 1907.63,325.298 1899.46,316.965 1891.5,308.5C 1892.69,307.728 1893.69,306.728 1894.5,305.5C 1894.84,304.662 1895.51,304.328 1896.5,304.5C 1900.14,303.886 1903.8,303.552 1907.5,303.5C 1919.01,305.335 1929.68,309.335 1939.5,315.5C 1941.26,317.559 1943.59,318.892 1946.5,319.5C 1946.83,319.5 1947.17,319.5 1947.5,319.5C 1947.82,321.048 1948.82,321.715 1950.5,321.5C 1950.83,321.5 1951.17,321.5 1951.5,321.5C 1951.82,323.048 1952.82,323.715 1954.5,323.5C 1955.49,323.328 1956.16,323.662 1956.5,324.5C 1956.82,326.048 1957.82,326.715 1959.5,326.5C 1966.38,329.878 1972.88,333.878 1979,338.5C 1979.76,342.819 1980.43,347.152 1981,351.5C 1982,354.832 1983.5,357.832 1985.5,360.5C 1985.83,361.5 1986.5,362.167 1987.5,362.5C 1987.83,362.5 1988.17,362.5 1988.5,362.5C 1988.82,364.048 1989.82,364.715 1991.5,364.5C 2001.11,367.556 2010.44,366.889 2019.5,362.5C 2021.4,362.262 2022.74,361.262 2023.5,359.5C 2023.83,358.5 2024.5,357.833 2025.5,357.5C 2026.91,357.027 2027.57,356.027 2027.5,354.5C 2028.91,354.027 2029.57,353.027 2029.5,351.5C 2029.5,351.167 2029.5,350.833 2029.5,350.5C 2030.97,349.653 2031.8,348.32 2032,346.5C 2032.8,343.304 2032.64,340.304 2031.5,337.5C 2031.44,334.659 2030.77,331.993 2029.5,329.5C 2029.71,327.821 2029.05,326.821 2027.5,326.5C 2025.17,324.833 2023.17,322.833 2021.5,320.5C 2021.03,319.094 2020.03,318.427 2018.5,318.5C 2017.39,318.443 2016.39,318.11 2015.5,317.5C 2014.01,315.72 2012.01,315.054 2009.5,315.5C 2005.11,314.641 2001.77,312.307 1999.5,308.5C 1999.03,307.094 1998.03,306.427 1996.5,306.5C 1995.5,306.167 1994.83,305.5 1994.5,304.5C 1994.03,303.094 1993.03,302.427 1991.5,302.5C 1990.74,300.738 1989.4,299.738 1987.5,299.5C 1987.03,298.094 1986.03,297.427 1984.5,297.5C 1984.03,296.094 1983.03,295.427 1981.5,295.5C 1981.03,294.094 1980.03,293.427 1978.5,293.5C 1978.03,292.094 1977.03,291.427 1975.5,291.5C 1975.03,290.094 1974.03,289.427 1972.5,289.5C 1971.51,289.672 1970.84,289.338 1970.5,288.5C 1970.03,287.094 1969.03,286.427 1967.5,286.5C 1964.55,285.692 1961.88,284.358 1959.5,282.5C 1959.03,281.094 1958.03,280.427 1956.5,280.5C 1955.23,279.923 1955.23,279.257 1956.5,278.5C 1958.07,277.691 1959.74,277.357 1961.5,277.5C 1963.9,277.741 1965.9,277.074 1967.5,275.5C 1981.44,272.123 1995.44,271.79 2009.5,274.5 Z"/></g>
<g><path style="opacity:1" fill="#656565" d="M 1343.5,288.5 C 1343.82,290.048 1344.82,290.715 1346.5,290.5C 1348.28,290.893 1349.95,291.559 1351.5,292.5C 1351.82,294.048 1352.82,294.715 1354.5,294.5C 1356.28,294.893 1357.95,295.559 1359.5,296.5C 1359.82,298.048 1360.82,298.715 1362.5,298.5C 1366.96,300.564 1371.29,302.898 1375.5,305.5C 1375.82,307.048 1376.82,307.715 1378.5,307.5C 1379.49,307.328 1380.16,307.662 1380.5,308.5C 1380.82,310.048 1381.82,310.715 1383.5,310.5C 1385.37,311.263 1387.04,312.263 1388.5,313.5C 1388.82,315.048 1389.82,315.715 1391.5,315.5C 1392.49,315.328 1393.16,315.662 1393.5,316.5C 1394.03,318.446 1395.37,319.446 1397.5,319.5C 1400.51,320.669 1403.18,322.336 1405.5,324.5C 1406.03,326.446 1407.37,327.446 1409.5,327.5C 1413.9,330.025 1417.9,333.025 1421.5,336.5C 1422.33,338.264 1423.66,339.598 1425.5,340.5C 1425.66,341.873 1425.49,343.207 1425,344.5C 1419.43,350.742 1413.26,356.242 1406.5,361C 1389.87,370.149 1372.87,378.483 1355.5,386C 1224.87,436.655 1095.2,489.655 966.5,545C 940.575,558.629 913.908,570.629 886.5,581C 844.942,599.963 802.609,616.963 759.5,632C 720.428,644.351 680.761,654.351 640.5,662C 625.671,665.999 611.005,670.499 596.5,675.5C 594.285,675.084 592.951,673.75 592.5,671.5C 592.715,669.821 592.048,668.821 590.5,668.5C 585.362,659.89 581.029,650.89 577.5,641.5C 577.715,639.821 577.048,638.821 575.5,638.5C 573.014,633.545 571.014,628.378 569.5,623C 569.858,619.022 571.191,615.522 573.5,612.5C 574.906,612.027 575.573,611.027 575.5,609.5C 578.792,604.54 582.792,600.207 587.5,596.5C 590.089,595.581 592.089,593.914 593.5,591.5C 597.995,585.735 603.662,583.735 610.5,585.5C 610.821,587.048 611.821,587.715 613.5,587.5C 614.71,587.932 615.71,588.599 616.5,589.5C 616.973,590.906 617.973,591.573 619.5,591.5C 625.5,595.833 631.5,600.167 637.5,604.5C 637.821,606.048 638.821,606.715 640.5,606.5C 640.821,608.048 641.821,608.715 643.5,608.5C 652.346,614.263 662.013,617.097 672.5,617C 674.854,616.153 677.188,615.32 679.5,614.5C 681.404,614.262 682.738,613.262 683.5,611.5C 683.932,610.29 684.599,609.29 685.5,608.5C 686.805,606.603 687.471,604.269 687.5,601.5C 687.497,598.975 687.163,596.641 686.5,594.5C 686.5,594.167 686.5,593.833 686.5,593.5C 686.923,591.219 686.256,589.552 684.5,588.5C 682.754,584.673 680.754,581.007 678.5,577.5C 677.089,575.086 675.089,573.419 672.5,572.5C 671.5,572.167 670.833,571.5 670.5,570.5C 669.738,568.738 668.404,567.738 666.5,567.5C 666.027,566.094 665.027,565.427 663.5,565.5C 663.027,564.094 662.027,563.427 660.5,563.5C 657.949,563.332 657.282,562.332 658.5,560.5C 660.027,560.573 661.027,559.906 661.5,558.5C 664.491,558.834 666.824,557.834 668.5,555.5C 668.842,554.662 669.508,554.328 670.5,554.5C 672.027,554.573 673.027,553.906 673.5,552.5C 675.181,550.992 677.181,549.992 679.5,549.5C 681.027,549.573 682.027,548.906 682.5,547.5C 686.165,547.498 689.165,546.165 691.5,543.5C 695.416,540.743 699.75,538.743 704.5,537.5C 707.327,537.416 709.994,536.75 712.5,535.5C 712.738,537.404 713.738,538.738 715.5,539.5C 716.5,539.833 717.167,540.5 717.5,541.5C 717.427,543.027 718.094,544.027 719.5,544.5C 720.5,544.833 721.167,545.5 721.5,546.5C 721.427,548.027 722.094,549.027 723.5,549.5C 723.738,551.404 724.738,552.738 726.5,553.5C 726.738,555.404 727.738,556.738 729.5,557.5C 729.738,559.404 730.738,560.738 732.5,561.5C 733.5,561.833 734.167,562.5 734.5,563.5C 734.738,565.404 735.738,566.738 737.5,567.5C 741.38,571.545 745.713,575.045 750.5,578C 754.395,579.266 758.395,579.766 762.5,579.5C 765.313,579.975 767.313,578.975 768.5,576.5C 768.5,575.833 768.833,575.5 769.5,575.5C 770.906,575.027 771.573,574.027 771.5,572.5C 774.23,564.445 775.23,556.111 774.5,547.5C 774.829,544.772 774.163,542.438 772.5,540.5C 770.991,537.322 769.658,533.989 768.5,530.5C 768.715,528.821 768.048,527.821 766.5,527.5C 765.662,527.158 765.328,526.492 765.5,525.5C 765.715,523.821 765.048,522.821 763.5,522.5C 763.715,520.821 763.048,519.821 761.5,519.5C 760.662,519.158 760.328,518.492 760.5,517.5C 760.392,515.486 761.058,513.82 762.5,512.5C 769.593,508.468 777.259,505.802 785.5,504.5C 787.698,504.88 789.365,504.213 790.5,502.5C 795.471,500.508 800.471,498.508 805.5,496.5C 806.919,497.005 807.585,498.005 807.5,499.5C 807.427,501.027 808.094,502.027 809.5,502.5C 810.674,503.514 811.34,504.847 811.5,506.5C 811.427,508.027 812.094,509.027 813.5,509.5C 814.338,509.842 814.672,510.508 814.5,511.5C 814.427,513.027 815.094,514.027 816.5,514.5C 817.338,514.842 817.672,515.508 817.5,516.5C 817.427,518.027 818.094,519.027 819.5,519.5C 820.338,519.842 820.672,520.508 820.5,521.5C 820.427,523.027 821.094,524.027 822.5,524.5C 822.427,526.027 823.094,527.027 824.5,527.5C 824.427,529.027 825.094,530.027 826.5,530.5C 829.471,533.808 832.471,537.141 835.5,540.5C 836.035,542.446 837.368,543.446 839.5,543.5C 840.635,545.213 842.302,545.88 844.5,545.5C 847.539,544.99 850.539,544.323 853.5,543.5C 856.5,542.5 858.5,540.5 859.5,537.5C 860.479,534.246 861.146,530.913 861.5,527.5C 860.738,522.17 860.072,516.836 859.5,511.5C 859.946,508.99 859.28,506.99 857.5,505.5C 855.722,500.175 853.722,494.842 851.5,489.5C 851.715,487.821 851.048,486.821 849.5,486.5C 848.177,484.529 846.844,482.529 845.5,480.5C 845.624,479.893 845.957,479.56 846.5,479.5C 848.027,479.573 849.027,478.906 849.5,477.5C 855.26,474.287 861.26,471.62 867.5,469.5C 869.027,469.573 870.027,468.906 870.5,467.5C 874.043,465.562 877.71,463.895 881.5,462.5C 884.491,462.834 886.824,461.834 888.5,459.5C 890.068,458.527 891.735,458.36 893.5,459C 895.888,461.629 897.888,464.462 899.5,467.5C 899.427,469.027 900.094,470.027 901.5,470.5C 901.427,472.027 902.094,473.027 903.5,473.5C 903.427,475.027 904.094,476.027 905.5,476.5C 905.427,478.027 906.094,479.027 907.5,479.5C 907.427,481.027 908.094,482.027 909.5,482.5C 909.738,484.404 910.738,485.738 912.5,486.5C 912.427,488.027 913.094,489.027 914.5,489.5C 915.5,489.833 916.167,490.5 916.5,491.5C 916.427,493.027 917.094,494.027 918.5,494.5C 922.769,499.267 927.769,503.1 933.5,506C 937.357,506.758 941.023,506.258 944.5,504.5C 946.027,504.573 947.027,503.906 947.5,502.5C 947.5,501.833 947.833,501.5 948.5,501.5C 949.906,501.027 950.573,500.027 950.5,498.5C 950.971,496.421 951.637,494.421 952.5,492.5C 954.019,489.474 954.685,486.141 954.5,482.5C 954.333,480.167 954.167,477.833 954,475.5C 953.617,474.944 953.117,474.611 952.5,474.5C 950.466,466.094 948.133,457.761 945.5,449.5C 945.741,447.102 945.074,445.102 943.5,443.5C 941.892,440.062 941.058,436.396 941,432.5C 945.223,429.804 949.723,427.804 954.5,426.5C 956.967,426.245 958.967,425.245 960.5,423.5C 963.491,423.834 965.824,422.834 967.5,420.5C 967.842,419.662 968.508,419.328 969.5,419.5C 972.277,418.472 974.61,418.805 976.5,420.5C 978.027,420.427 979.027,421.094 979.5,422.5C 979.738,424.404 980.738,425.738 982.5,426.5C 983.5,426.833 984.167,427.5 984.5,428.5C 985.08,430.749 986.413,432.415 988.5,433.5C 989.5,433.833 990.167,434.5 990.5,435.5C 990.738,437.404 991.738,438.738 993.5,439.5C 994.5,439.833 995.167,440.5 995.5,441.5C 995.427,443.027 996.094,444.027 997.5,444.5C 998.5,444.833 999.167,445.5 999.5,446.5C 999.427,448.027 1000.09,449.027 1001.5,449.5C 1002.5,449.833 1003.17,450.5 1003.5,451.5C 1003.43,453.027 1004.09,454.027 1005.5,454.5C 1005.83,454.5 1006.17,454.5 1006.5,454.5C 1006.74,456.404 1007.74,457.738 1009.5,458.5C 1010.5,458.833 1011.17,459.5 1011.5,460.5C 1011.81,462.144 1012.81,463.144 1014.5,463.5C 1016.8,464.475 1018.8,465.808 1020.5,467.5C 1020.82,469.048 1021.82,469.715 1023.5,469.5C 1023.83,469.5 1024.17,469.5 1024.5,469.5C 1028.41,473.464 1032.41,473.464 1036.5,469.5C 1039.5,468.5 1041.5,466.5 1042.5,463.5C 1044.28,456.649 1044.95,449.649 1044.5,442.5C 1044.95,439.99 1044.28,437.99 1042.5,436.5C 1042.5,435.833 1042.5,435.167 1042.5,434.5C 1042.77,432.62 1042.1,431.287 1040.5,430.5C 1039.19,427.872 1037.85,425.205 1036.5,422.5C 1036.71,420.821 1036.05,419.821 1034.5,419.5C 1029.1,411.928 1023.1,404.761 1016.5,398C 1028.95,390.443 1041.95,383.943 1055.5,378.5C 1057.03,378.573 1058.03,377.906 1058.5,376.5C 1061.49,376.834 1063.82,375.834 1065.5,373.5C 1066.25,372.427 1067.25,372.26 1068.5,373C 1072.83,376.484 1076.16,380.651 1078.5,385.5C 1078.43,387.027 1079.09,388.027 1080.5,388.5C 1080.43,390.027 1081.09,391.027 1082.5,391.5C 1084.56,394.24 1086.23,397.24 1087.5,400.5C 1087.43,402.027 1088.09,403.027 1089.5,403.5C 1093.13,408.81 1096.8,414.144 1100.5,419.5C 1101.17,422.167 1102.83,423.833 1105.5,424.5C 1110.7,426.686 1116.03,427.019 1121.5,425.5C 1124.37,425.631 1126.03,424.297 1126.5,421.5C 1127.64,417.929 1128.31,414.262 1128.5,410.5C 1129.16,408.022 1129.5,405.355 1129.5,402.5C 1129.58,397.588 1128.91,392.921 1127.5,388.5C 1126.39,386.401 1125.72,384.067 1125.5,381.5C 1125.83,378.772 1125.16,376.438 1123.5,374.5C 1120.05,366.26 1116.05,358.26 1111.5,350.5C 1112.69,349.728 1113.69,348.728 1114.5,347.5C 1115.51,346.326 1116.85,345.66 1118.5,345.5C 1120.03,345.573 1121.03,344.906 1121.5,343.5C 1122.51,342.326 1123.85,341.66 1125.5,341.5C 1127.03,341.573 1128.03,340.906 1128.5,339.5C 1130.03,339.573 1131.03,338.906 1131.5,337.5C 1131.84,336.662 1132.51,336.328 1133.5,336.5C 1135.03,336.573 1136.03,335.906 1136.5,334.5C 1138.03,334.573 1139.03,333.906 1139.5,332.5C 1142.22,330.327 1145.22,329.994 1148.5,331.5C 1149.03,333.446 1150.37,334.446 1152.5,334.5C 1153.83,335.5 1155.17,336.5 1156.5,337.5C 1156.43,339.027 1157.09,340.027 1158.5,340.5C 1159.5,340.833 1160.17,341.5 1160.5,342.5C 1161.17,343.833 1162.17,344.833 1163.5,345.5C 1164.5,345.833 1165.17,346.5 1165.5,347.5C 1165.43,349.027 1166.09,350.027 1167.5,350.5C 1169.98,352.8 1171.98,355.467 1173.5,358.5C 1173.74,360.404 1174.74,361.738 1176.5,362.5C 1176.74,364.404 1177.74,365.738 1179.5,366.5C 1179.43,368.027 1180.09,369.027 1181.5,369.5C 1183.63,371.091 1185.3,373.091 1186.5,375.5C 1186.74,377.404 1187.74,378.738 1189.5,379.5C 1192.67,382.498 1196,385.331 1199.5,388C 1203.46,389.734 1207.46,389.901 1211.5,388.5C 1213.03,388.573 1214.03,387.906 1214.5,386.5C 1216.26,385.738 1217.26,384.404 1217.5,382.5C 1218.86,378.747 1220.19,375.081 1221.5,371.5C 1222.65,366.35 1222.82,361.016 1222,355.5C 1221.72,354.584 1221.22,353.918 1220.5,353.5C 1220.88,351.302 1220.21,349.635 1218.5,348.5C 1218.5,348.167 1218.5,347.833 1218.5,347.5C 1218.71,345.821 1218.05,344.821 1216.5,344.5C 1215.08,341.991 1213.41,339.657 1211.5,337.5C 1210.86,335.205 1209.53,333.539 1207.5,332.5C 1199.83,325.5 1192.5,318.167 1185.5,310.5C 1185.5,309.833 1185.5,309.167 1185.5,308.5C 1187.03,308.573 1188.03,307.906 1188.5,306.5C 1197.3,303.621 1205.96,304.288 1214.5,308.5C 1215.18,310.176 1216.52,310.843 1218.5,310.5C 1222.06,311.282 1225.4,312.616 1228.5,314.5C 1228.82,316.048 1229.82,316.715 1231.5,316.5C 1231.83,316.5 1232.17,316.5 1232.5,316.5C 1232.82,318.048 1233.82,318.715 1235.5,318.5C 1235.83,318.5 1236.17,318.5 1236.5,318.5C 1236.82,320.048 1237.82,320.715 1239.5,320.5C 1239.83,320.5 1240.17,320.5 1240.5,320.5C 1240.82,322.048 1241.82,322.715 1243.5,322.5C 1251.74,326.74 1259.74,331.407 1267.5,336.5C 1267.82,338.048 1268.82,338.715 1270.5,338.5C 1271.82,341.806 1272.82,345.139 1273.5,348.5C 1273.5,349.5 1273.5,350.5 1273.5,351.5C 1273.12,353.698 1273.79,355.365 1275.5,356.5C 1275.5,356.833 1275.5,357.167 1275.5,357.5C 1275.43,359.027 1276.09,360.027 1277.5,360.5C 1278.5,360.833 1279.17,361.5 1279.5,362.5C 1280.03,364.446 1281.37,365.446 1283.5,365.5C 1283.83,365.5 1284.17,365.5 1284.5,365.5C 1284.82,367.048 1285.82,367.715 1287.5,367.5C 1292.47,368.422 1297.47,368.588 1302.5,368C 1306.19,366.487 1309.85,364.987 1313.5,363.5C 1316.83,362.167 1319.17,359.833 1320.5,356.5C 1321.91,356.027 1322.57,355.027 1322.5,353.5C 1322.8,351.597 1323.46,349.93 1324.5,348.5C 1326.72,344.103 1327.06,339.437 1325.5,334.5C 1325.25,333.287 1324.59,332.62 1323.5,332.5C 1323.5,332.167 1323.5,331.833 1323.5,331.5C 1323.45,329.368 1322.45,328.035 1320.5,327.5C 1316.29,322.901 1311.29,319.567 1305.5,317.5C 1303.9,315.926 1301.9,315.259 1299.5,315.5C 1295.52,312.848 1291.85,309.848 1288.5,306.5C 1287.74,304.738 1286.4,303.738 1284.5,303.5C 1284.03,302.094 1283.03,301.427 1281.5,301.5C 1280.74,299.738 1279.4,298.738 1277.5,298.5C 1276.51,298.672 1275.84,298.338 1275.5,297.5C 1274.74,295.738 1273.4,294.738 1271.5,294.5C 1270.51,294.672 1269.84,294.338 1269.5,293.5C 1269.03,292.094 1268.03,291.427 1266.5,291.5C 1265.51,291.672 1264.84,291.338 1264.5,290.5C 1264.03,289.094 1263.03,288.427 1261.5,288.5C 1259.85,288.34 1258.51,287.674 1257.5,286.5C 1257.03,285.094 1256.03,284.427 1254.5,284.5C 1252.74,284.123 1251.08,283.456 1249.5,282.5C 1248.23,281.743 1248.23,281.077 1249.5,280.5C 1252.15,280.59 1254.49,279.924 1256.5,278.5C 1260.89,276.735 1265.56,275.568 1270.5,275C 1296.07,272.912 1320.4,277.412 1343.5,288.5 Z"/></g>
<g><path style="opacity:0.843" fill="#343434" d="M 2009.5,274.5 C 2013.84,274.584 2017.84,275.584 2021.5,277.5C 2017.16,277.342 2013.16,276.342 2009.5,274.5 Z"/></g>
<g><path style="opacity:0.522" fill="#282828" d="M 1967.5,275.5 C 1965.9,277.074 1963.9,277.741 1961.5,277.5C 1963.21,276.262 1965.21,275.595 1967.5,275.5 Z"/></g>
<g><path style="opacity:0.529" fill="#383838" d="M 1256.5,278.5 C 1254.49,279.924 1252.15,280.59 1249.5,280.5C 1251.51,279.076 1253.85,278.41 1256.5,278.5 Z"/></g>
<g><path style="opacity:0.086" fill="#1d1d1d" d="M 1956.5,280.5 C 1958.03,280.427 1959.03,281.094 1959.5,282.5C 1957.97,282.573 1956.97,281.906 1956.5,280.5 Z"/></g>
<g><path style="opacity:0.075" fill="#1f1f1f" d="M 1254.5,284.5 C 1256.03,284.427 1257.03,285.094 1257.5,286.5C 1255.97,286.573 1254.97,285.906 1254.5,284.5 Z"/></g>
<g><path style="opacity:0.722" fill="#323232" d="M 2046.5,285.5 C 2047.71,285.932 2048.71,286.599 2049.5,287.5C 2047.82,287.715 2046.82,287.048 2046.5,285.5 Z"/></g>
<g><path style="opacity:0.192" fill="#2f2f2f" d="M 1967.5,286.5 C 1969.03,286.427 1970.03,287.094 1970.5,288.5C 1968.97,288.573 1967.97,287.906 1967.5,286.5 Z"/></g>
<g><path style="opacity:0.098" fill="#1e1e1e" d="M 1261.5,288.5 C 1263.03,288.427 1264.03,289.094 1264.5,290.5C 1262.97,290.573 1261.97,289.906 1261.5,288.5 Z"/></g>
<g><path style="opacity:0.631" fill="#303030" d="M 1343.5,288.5 C 1344.71,288.932 1345.71,289.599 1346.5,290.5C 1344.82,290.715 1343.82,290.048 1343.5,288.5 Z"/></g>
<g><path style="opacity:0.275" fill="#333333" d="M 1972.5,289.5 C 1974.03,289.427 1975.03,290.094 1975.5,291.5C 1973.97,291.573 1972.97,290.906 1972.5,289.5 Z"/></g>
<g><path style="opacity:0.196" fill="#282828" d="M 1266.5,291.5 C 1268.03,291.427 1269.03,292.094 1269.5,293.5C 1267.97,293.573 1266.97,292.906 1266.5,291.5 Z"/></g>
<g><path style="opacity:0.243" fill="#2e2e2e" d="M 1975.5,291.5 C 1977.03,291.427 1978.03,292.094 1978.5,293.5C 1976.97,293.573 1975.97,292.906 1975.5,291.5 Z"/></g>
<g><path style="opacity:0.776" fill="#343434" d="M 1351.5,292.5 C 1352.71,292.932 1353.71,293.599 1354.5,294.5C 1352.82,294.715 1351.82,294.048 1351.5,292.5 Z"/></g>
<g><path style="opacity:0.224" fill="#2a2a2a" d="M 1978.5,293.5 C 1980.03,293.427 1981.03,294.094 1981.5,295.5C 1979.97,295.573 1978.97,294.906 1978.5,293.5 Z"/></g>
<g><path style="opacity:0.353" fill="#303030" d="M 1271.5,294.5 C 1273.4,294.738 1274.74,295.738 1275.5,297.5C 1273.6,297.262 1272.26,296.262 1271.5,294.5 Z"/></g>
<g><path style="opacity:0.498" fill="#2d2d2d" d="M 1981.5,295.5 C 1983.03,295.427 1984.03,296.094 1984.5,297.5C 1982.97,297.573 1981.97,296.906 1981.5,295.5 Z"/></g>
<g><path style="opacity:0.675" fill="#2e2e2e" d="M 1359.5,296.5 C 1360.71,296.932 1361.71,297.599 1362.5,298.5C 1360.82,298.715 1359.82,298.048 1359.5,296.5 Z"/></g>
<g><path style="opacity:0.71" fill="#323232" d="M 1277.5,298.5 C 1279.4,298.738 1280.74,299.738 1281.5,301.5C 1279.6,301.262 1278.26,300.262 1277.5,298.5 Z"/></g>
<g><path style="opacity:0.271" fill="#313131" d="M 1984.5,297.5 C 1986.03,297.427 1987.03,298.094 1987.5,299.5C 1985.97,299.573 1984.97,298.906 1984.5,297.5 Z"/></g>
<g><path style="opacity:0.631" fill="#2d2d2d" d="M 1987.5,299.5 C 1989.4,299.738 1990.74,300.738 1991.5,302.5C 1989.6,302.262 1988.26,301.262 1987.5,299.5 Z"/></g>
<g><path style="opacity:0.663" fill="#2f2f2f" d="M 2072.5,298.5 C 2073.71,298.932 2074.71,299.599 2075.5,300.5C 2073.82,300.715 2072.82,300.048 2072.5,298.5 Z"/></g>
<g><path style="opacity:0.494" fill="#2f2f2f" d="M 1281.5,301.5 C 1283.03,301.427 1284.03,302.094 1284.5,303.5C 1282.97,303.573 1281.97,302.906 1281.5,301.5 Z"/></g>
<g><path style="opacity:0.361" fill="#323232" d="M 1907.5,303.5 C 1903.8,303.552 1900.14,303.886 1896.5,304.5C 1900.04,302.431 1903.71,302.098 1907.5,303.5 Z"/></g>
<g><path style="opacity:0.486" fill="#2e2e2e" d="M 1991.5,302.5 C 1993.03,302.427 1994.03,303.094 1994.5,304.5C 1992.97,304.573 1991.97,303.906 1991.5,302.5 Z"/></g>
<g><path style="opacity:0.651" fill="#323232" d="M 1284.5,303.5 C 1286.4,303.738 1287.74,304.738 1288.5,306.5C 1286.6,306.262 1285.26,305.262 1284.5,303.5 Z"/></g>
<g><path style="opacity:0.71" fill="#303030" d="M 1375.5,305.5 C 1376.71,305.932 1377.71,306.599 1378.5,307.5C 1376.82,307.715 1375.82,307.048 1375.5,305.5 Z"/></g>
<g><path style="opacity:0.616" fill="#303030" d="M 1894.5,305.5 C 1893.69,306.728 1892.69,307.728 1891.5,308.5C 1890.96,308.44 1890.62,308.107 1890.5,307.5C 1891.58,306.295 1892.91,305.628 1894.5,305.5 Z"/></g>
<g><path style="opacity:0.275" fill="#252525" d="M 1996.5,306.5 C 1998.03,306.427 1999.03,307.094 1999.5,308.5C 1997.97,308.573 1996.97,307.906 1996.5,306.5 Z"/></g>
<g><path style="opacity:0.4" fill="#2a2a2a" d="M 1188.5,306.5 C 1188.03,307.906 1187.03,308.573 1185.5,308.5C 1185.97,307.094 1186.97,306.427 1188.5,306.5 Z"/></g>
<g><path style="opacity:0.153" fill="#252525" d="M 1185.5,308.5 C 1185.5,309.167 1185.5,309.833 1185.5,310.5C 1182.83,309.833 1182.83,309.167 1185.5,308.5 Z"/></g>
<g><path style="opacity:0.835" fill="#343434" d="M 1214.5,308.5 C 1216,308.989 1217.33,309.655 1218.5,310.5C 1216.52,310.843 1215.18,310.176 1214.5,308.5 Z"/></g>
<g><path style="opacity:0.729" fill="#303030" d="M 1380.5,308.5 C 1381.71,308.932 1382.71,309.599 1383.5,310.5C 1381.82,310.715 1380.82,310.048 1380.5,308.5 Z"/></g>
<g><path style="opacity:0.741" fill="#323232" d="M 2089.5,308.5 C 2090.71,308.932 2091.71,309.599 2092.5,310.5C 2090.82,310.715 2089.82,310.048 2089.5,308.5 Z"/></g>
<g><path style="opacity:0.729" fill="#2e2e2e" d="M 2094.5,311.5 C 2095.71,311.932 2096.71,312.599 2097.5,313.5C 2095.82,313.715 2094.82,313.048 2094.5,311.5 Z"/></g>
<g><path style="opacity:0.847" fill="#333333" d="M 1388.5,313.5 C 1389.71,313.932 1390.71,314.599 1391.5,315.5C 1389.82,315.715 1388.82,315.048 1388.5,313.5 Z"/></g>
<g><path style="opacity:0.804" fill="#323232" d="M 2097.5,313.5 C 2098.71,313.932 2099.71,314.599 2100.5,315.5C 2098.82,315.715 2097.82,315.048 2097.5,313.5 Z"/></g>
<g><path style="opacity:0.718" fill="#313131" d="M 1228.5,314.5 C 1229.71,314.932 1230.71,315.599 1231.5,316.5C 1229.82,316.715 1228.82,316.048 1228.5,314.5 Z"/></g>
<g><path style="opacity:0.878" fill="#3e3e3e" d="M 1299.5,315.5 C 1301.9,315.259 1303.9,315.926 1305.5,317.5C 1303.1,317.741 1301.1,317.074 1299.5,315.5 Z"/></g>
<g><path style="opacity:0.569" fill="#2a2a2a" d="M 2009.5,315.5 C 2012.01,315.054 2014.01,315.72 2015.5,317.5C 2013.3,317.125 2011.3,316.458 2009.5,315.5 Z"/></g>
<g><path style="opacity:0.922" fill="#343434" d="M 1939.5,315.5 C 1942.32,316.095 1944.65,317.428 1946.5,319.5C 1943.59,318.892 1941.26,317.559 1939.5,315.5 Z"/></g>
<g><path style="opacity:0.729" fill="#323232" d="M 1232.5,316.5 C 1233.71,316.932 1234.71,317.599 1235.5,318.5C 1233.82,318.715 1232.82,318.048 1232.5,316.5 Z"/></g>
<g><path style="opacity:0.737" fill="#2c2c2c" d="M 1393.5,316.5 C 1395.23,317.026 1396.56,318.026 1397.5,319.5C 1395.37,319.446 1394.03,318.446 1393.5,316.5 Z"/></g>
<g><path style="opacity:0.639" fill="#292929" d="M 2102.5,316.5 C 2104.23,317.026 2105.56,318.026 2106.5,319.5C 2104.37,319.446 2103.03,318.446 2102.5,316.5 Z"/></g>
<g><path style="opacity:0.478" fill="#2d2d2d" d="M 2018.5,318.5 C 2020.03,318.427 2021.03,319.094 2021.5,320.5C 2019.97,320.573 2018.97,319.906 2018.5,318.5 Z"/></g>
<g><path style="opacity:0.667" fill="#313131" d="M 1236.5,318.5 C 1237.71,318.932 1238.71,319.599 1239.5,320.5C 1237.82,320.715 1236.82,320.048 1236.5,318.5 Z"/></g>
<g><path style="opacity:0.788" fill="#343434" d="M 1947.5,319.5 C 1948.71,319.932 1949.71,320.599 1950.5,321.5C 1948.82,321.715 1947.82,321.048 1947.5,319.5 Z"/></g>
<g><path style="opacity:0.561" fill="#2c2c2c" d="M 1240.5,320.5 C 1241.71,320.932 1242.71,321.599 1243.5,322.5C 1241.82,322.715 1240.82,322.048 1240.5,320.5 Z"/></g>
<g><path style="opacity:0.995" fill="#595959" d="M 2015.5,321.5 C 2015.83,321.5 2016.17,321.5 2016.5,321.5C 2017.03,323.446 2018.37,324.446 2020.5,324.5C 2027.84,330.027 2030.34,337.36 2028,346.5C 2020.22,361.988 2008.39,366.655 1992.5,360.5C 1992.03,359.094 1991.03,358.427 1989.5,358.5C 1984.57,354.399 1982.57,349.066 1983.5,342.5C 1984.82,342.33 1985.99,342.663 1987,343.5C 1988.18,351.839 1993.01,356.172 2001.5,356.5C 2005.32,355.962 2008.99,354.962 2012.5,353.5C 2014.83,353.167 2016.17,351.833 2016.5,349.5C 2018.11,346.009 2019.11,342.342 2019.5,338.5C 2019.71,334.915 2018.37,332.249 2015.5,330.5C 2015.03,329.094 2014.03,328.427 2012.5,328.5C 2011.66,328.158 2011.33,327.492 2011.5,326.5C 2011.5,324.833 2011.5,323.167 2011.5,321.5C 2012.83,321.5 2014.17,321.5 2015.5,321.5 Z"/></g>
<g><path style="opacity:0.996" fill="#565656" d="M 1303.5,356.5 C 1305.03,356.573 1306.03,355.906 1306.5,354.5C 1312.23,348.652 1313.57,341.985 1310.5,334.5C 1310.57,332.973 1309.91,331.973 1308.5,331.5C 1306.59,331.426 1305.42,330.426 1305,328.5C 1304.5,326.19 1304.34,323.857 1304.5,321.5C 1315.24,324.075 1321.24,330.908 1322.5,342C 1320.35,354.485 1313.02,362.152 1300.5,365C 1285.44,366.269 1277.61,359.436 1277,344.5C 1277.72,343.549 1278.55,343.383 1279.5,344C 1283.21,356.357 1291.21,360.523 1303.5,356.5 Z"/></g>
<g><path style="opacity:0.62" fill="#2c2c2c" d="M 1951.5,321.5 C 1952.71,321.932 1953.71,322.599 1954.5,323.5C 1952.82,323.715 1951.82,323.048 1951.5,321.5 Z"/></g>
<g><path style="opacity:0.71" fill="#2c2c2c" d="M 2016.5,321.5 C 2018.23,322.026 2019.56,323.026 2020.5,324.5C 2018.37,324.446 2017.03,323.446 2016.5,321.5 Z"/></g>
<g><path style="opacity:0.157" fill="#313131" d="M 2015.5,321.5 C 2014.17,321.5 2012.83,321.5 2011.5,321.5C 2011.5,323.167 2011.5,324.833 2011.5,326.5C 2010.54,324.735 2010.21,322.735 2010.5,320.5C 2012.41,320.216 2014.08,320.549 2015.5,321.5 Z"/></g>
<g><path style="opacity:0.694" fill="#2b2b2b" d="M 1405.5,324.5 C 1407.23,325.026 1408.56,326.026 1409.5,327.5C 1407.37,327.446 1406.03,326.446 1405.5,324.5 Z"/></g>
<g><path style="opacity:0.718" fill="#313131" d="M 1956.5,324.5 C 1957.71,324.932 1958.71,325.599 1959.5,326.5C 1957.82,326.715 1956.82,326.048 1956.5,324.5 Z"/></g>
<g><path style="opacity:0.784" fill="#343434" d="M 2027.5,326.5 C 2029.05,326.821 2029.71,327.821 2029.5,329.5C 2028.6,328.71 2027.93,327.71 2027.5,326.5 Z"/></g>
<g><path style="opacity:0.765" fill="#2c2c2c" d="M 2115.5,325.5 C 2117.23,326.026 2118.56,327.026 2119.5,328.5C 2117.37,328.446 2116.03,327.446 2115.5,325.5 Z"/></g>
<g><path style="opacity:0.722" fill="#303030" d="M 1320.5,327.5 C 1322.45,328.035 1323.45,329.368 1323.5,331.5C 1322.03,330.564 1321.03,329.23 1320.5,327.5 Z"/></g>
<g><path style="opacity:0.114" fill="#242424" d="M 1853.5,329.5 C 1851.44,329.517 1849.44,329.85 1847.5,330.5C 1848.13,329.053 1849.3,328.387 1851,328.5C 1852.07,328.528 1852.9,328.861 1853.5,329.5 Z"/></g>
<g><path style="opacity:0.541" fill="#2e2e2e" d="M 2012.5,328.5 C 2014.03,328.427 2015.03,329.094 2015.5,330.5C 2013.97,330.573 2012.97,329.906 2012.5,328.5 Z"/></g>
<g><path style="opacity:0.004" fill="#191919" d="M 2119.5,328.5 C 2120.83,328.5 2121.5,329.167 2121.5,330.5C 2120.5,330.167 2119.83,329.5 2119.5,328.5 Z"/></g>
<g><path style="opacity:0.816" fill="#2c2c2c" d="M 2015.5,330.5 C 2018.37,332.249 2019.71,334.915 2019.5,338.5C 2018.2,335.899 2016.87,333.232 2015.5,330.5 Z"/></g>
<g><path style="opacity:0.765" fill="#2c2c2c" d="M 1148.5,331.5 C 1150.23,332.026 1151.56,333.026 1152.5,334.5C 1150.37,334.446 1149.03,333.446 1148.5,331.5 Z"/></g>
<g><path style="opacity:0.004" fill="#161616" d="M 1308.5,331.5 C 1309.91,331.973 1310.57,332.973 1310.5,334.5C 1309.09,334.027 1308.43,333.027 1308.5,331.5 Z"/></g>
<g><path style="opacity:0.467" fill="#333333" d="M 1845.5,331.5 C 1845.03,332.906 1844.03,333.573 1842.5,333.5C 1842.97,332.094 1843.97,331.427 1845.5,331.5 Z"/></g>
<g><path style="opacity:0.322" fill="#282828" d="M 1139.5,332.5 C 1139.03,333.906 1138.03,334.573 1136.5,334.5C 1136.97,333.094 1137.97,332.427 1139.5,332.5 Z"/></g>
<g><path style="opacity:0.227" fill="#282828" d="M 1207.5,332.5 C 1209.53,333.539 1210.86,335.205 1211.5,337.5C 1209.46,336.421 1208.12,334.754 1207.5,332.5 Z"/></g>
<g><path style="opacity:0.467" fill="#303030" d="M 1136.5,334.5 C 1136.03,335.906 1135.03,336.573 1133.5,336.5C 1133.97,335.094 1134.97,334.427 1136.5,334.5 Z"/></g>
<g><path style="opacity:0.631" fill="#494949" d="M 1323.5,332.5 C 1324.59,332.62 1325.25,333.287 1325.5,334.5C 1327.06,339.437 1326.72,344.103 1324.5,348.5C 1326.05,343.022 1325.72,337.688 1323.5,332.5 Z"/></g>
<g><path style="opacity:0.529" fill="#292929" d="M 1267.5,336.5 C 1268.71,336.932 1269.71,337.599 1270.5,338.5C 1268.82,338.715 1267.82,338.048 1267.5,336.5 Z"/></g>
<g><path style="opacity:0.443" fill="#333333" d="M 1837.5,336.5 C 1837.03,337.906 1836.03,338.573 1834.5,338.5C 1834.97,337.094 1835.97,336.427 1837.5,336.5 Z"/></g>
<g><path style="opacity:0.271" fill="#212121" d="M 1863.5,336.5 C 1865.91,337.911 1867.58,339.911 1868.5,342.5C 1866.09,341.089 1864.42,339.089 1863.5,336.5 Z"/></g>
<g><path style="opacity:0.337" fill="#2f2f2f" d="M 1131.5,337.5 C 1131.03,338.906 1130.03,339.573 1128.5,339.5C 1128.97,338.094 1129.97,337.427 1131.5,337.5 Z"/></g>
<g><path style="opacity:0.196" fill="#202020" d="M 1156.5,337.5 C 1157.91,337.973 1158.57,338.973 1158.5,340.5C 1157.09,340.027 1156.43,339.027 1156.5,337.5 Z"/></g>
<g><path style="opacity:0.192" fill="#282828" d="M 1421.5,336.5 C 1423.77,336.957 1425.11,338.29 1425.5,340.5C 1423.66,339.598 1422.33,338.264 1421.5,336.5 Z"/></g>
<g><path style="opacity:0.467" fill="#2d2d2d" d="M 1128.5,339.5 C 1128.03,340.906 1127.03,341.573 1125.5,341.5C 1125.97,340.094 1126.97,339.427 1128.5,339.5 Z"/></g>
<g><path style="opacity:0.427" fill="#292929" d="M 1832.5,339.5 C 1832.03,340.906 1831.03,341.573 1829.5,341.5C 1829.97,340.094 1830.97,339.427 1832.5,339.5 Z"/></g>
<g><path style="opacity:0.004" fill="#1a1a1a" d="M 1160.5,342.5 C 1162.5,342.5 1163.5,343.5 1163.5,345.5C 1162.17,344.833 1161.17,343.833 1160.5,342.5 Z"/></g>
<g><path style="opacity:0.094" fill="#212121" d="M 1270.5,338.5 C 1271.15,338.804 1271.82,339.137 1272.5,339.5C 1273.48,342.428 1273.82,345.428 1273.5,348.5C 1272.82,345.139 1271.82,341.806 1270.5,338.5 Z"/></g>
<g><path style="opacity:0.384" fill="#2e2e2e" d="M 1121.5,343.5 C 1121.03,344.906 1120.03,345.573 1118.5,345.5C 1118.97,344.094 1119.97,343.427 1121.5,343.5 Z"/></g>
<g><path style="opacity:0.616" fill="#303030" d="M 1216.5,344.5 C 1218.05,344.821 1218.71,345.821 1218.5,347.5C 1217.6,346.71 1216.93,345.71 1216.5,344.5 Z"/></g>
<g><path style="opacity:0.667" fill="#414141" d="M 2031.5,337.5 C 2032.64,340.304 2032.8,343.304 2032,346.5C 2031.8,348.32 2030.97,349.653 2029.5,350.5C 2031.06,346.326 2031.73,341.993 2031.5,337.5 Z"/></g>
<g><path style="opacity:0.376" fill="#272727" d="M 1823.5,344.5 C 1823.03,345.906 1822.03,346.573 1820.5,346.5C 1820.97,345.094 1821.97,344.427 1823.5,344.5 Z"/></g>
<g><path style="opacity:0.004" fill="#1b1b1b" d="M 2128.5,345.5 C 2128.5,346.833 2127.83,347.5 2126.5,347.5C 2126.83,346.5 2127.5,345.833 2128.5,345.5 Z"/></g>
<g><path style="opacity:0.357" fill="#282828" d="M 1872.5,346.5 C 1873.91,346.973 1874.57,347.973 1874.5,349.5C 1873.09,349.027 1872.43,348.027 1872.5,346.5 Z"/></g>
<g><path style="opacity:0.616" fill="#2f2f2f" d="M 1114.5,347.5 C 1113.69,348.728 1112.69,349.728 1111.5,350.5C 1110.96,350.44 1110.62,350.107 1110.5,349.5C 1111.58,348.295 1112.91,347.628 1114.5,347.5 Z"/></g>
<g><path style="opacity:0.396" fill="#2b2b2b" d="M 1165.5,347.5 C 1166.91,347.973 1167.57,348.973 1167.5,350.5C 1166.09,350.027 1165.43,349.027 1165.5,347.5 Z"/></g>
<g><path style="opacity:0.004" fill="#1b1b1b" d="M 2126.5,347.5 C 2126.5,348.833 2125.83,349.5 2124.5,349.5C 2124.83,348.5 2125.5,347.833 2126.5,347.5 Z"/></g>
<g><path style="opacity:0.216" fill="#262626" d="M 1218.5,348.5 C 1220.21,349.635 1220.88,351.302 1220.5,353.5C 1219.46,352.07 1218.8,350.403 1218.5,348.5 Z"/></g>
<g><path style="opacity:0.341" fill="#2e2e2e" d="M 2016.5,349.5 C 2016.17,351.833 2014.83,353.167 2012.5,353.5C 2013.5,351.833 2014.83,350.5 2016.5,349.5 Z"/></g>
<g><path style="opacity:0.78" fill="#333333" d="M 1819.5,352.5 C 1821.05,352.821 1821.71,353.821 1821.5,355.5C 1820.6,354.71 1819.93,353.71 1819.5,352.5 Z"/></g>
<g><path style="opacity:0.694" fill="#343434" d="M 1926.5,350.5 C 1927.12,350.611 1927.62,350.944 1928,351.5C 1928.5,353.81 1928.66,356.143 1928.5,358.5C 1927.47,356.039 1926.8,353.373 1926.5,350.5 Z"/></g>
<g><path style="opacity:0.09" fill="#1d1d1d" d="M 1876.5,351.5 C 1877.91,351.973 1878.57,352.973 1878.5,354.5C 1877.09,354.027 1876.43,353.027 1876.5,351.5 Z"/></g>
<g><path style="opacity:0.118" fill="#212121" d="M 2029.5,351.5 C 2029.57,353.027 2028.91,354.027 2027.5,354.5C 2027.43,352.973 2028.09,351.973 2029.5,351.5 Z"/></g>
<g><path style="opacity:0.561" fill="#2f2f2f" d="M 1273.5,351.5 C 1274.54,352.93 1275.2,354.597 1275.5,356.5C 1273.79,355.365 1273.12,353.698 1273.5,351.5 Z"/></g>
<g><path style="opacity:0.333" fill="#292929" d="M 1306.5,354.5 C 1306.03,355.906 1305.03,356.573 1303.5,356.5C 1303.97,355.094 1304.97,354.427 1306.5,354.5 Z"/></g>
<g><path style="opacity:0.071" fill="#161616" d="M 1322.5,353.5 C 1322.57,355.027 1321.91,356.027 1320.5,356.5C 1320.43,354.973 1321.09,353.973 1322.5,353.5 Z"/></g>
<g><path style="opacity:0.384" fill="#313131" d="M 2027.5,354.5 C 2027.57,356.027 2026.91,357.027 2025.5,357.5C 2025.43,355.973 2026.09,354.973 2027.5,354.5 Z"/></g>
<g><path style="opacity:0.573" fill="#2e2e2e" d="M 1173.5,358.5 C 1175.26,359.262 1176.26,360.596 1176.5,362.5C 1174.74,361.738 1173.74,360.404 1173.5,358.5 Z"/></g>
<g><path style="opacity:0.255" fill="#313131" d="M 1275.5,357.5 C 1276.91,357.973 1277.57,358.973 1277.5,360.5C 1276.09,360.027 1275.43,359.027 1275.5,357.5 Z"/></g>
<g><path style="opacity:0.267" fill="#2a2a2a" d="M 1989.5,358.5 C 1991.03,358.427 1992.03,359.094 1992.5,360.5C 1990.97,360.573 1989.97,359.906 1989.5,358.5 Z"/></g>
<g><path style="opacity:0.004" fill="#181818" d="M 1985.5,360.5 C 1986.83,360.5 1987.5,361.167 1987.5,362.5C 1986.5,362.167 1985.83,361.5 1985.5,360.5 Z"/></g>
<g><path style="opacity:0.357" fill="#303030" d="M 2023.5,359.5 C 2022.74,361.262 2021.4,362.262 2019.5,362.5C 2020.26,360.738 2021.6,359.738 2023.5,359.5 Z"/></g>
<g><path style="opacity:0.337" fill="#2b2b2b" d="M 1320.5,356.5 C 1319.17,359.833 1316.83,362.167 1313.5,363.5C 1315.5,360.833 1317.83,358.5 1320.5,356.5 Z"/></g>
<g><path style="opacity:0.643" fill="#303030" d="M 1882.5,360.5 C 1884.26,361.262 1885.26,362.596 1885.5,364.5C 1883.74,363.738 1882.74,362.404 1882.5,360.5 Z"/></g>
<g><path style="opacity:0.478" fill="#2a2a2a" d="M 1176.5,362.5 C 1178.26,363.262 1179.26,364.596 1179.5,366.5C 1177.74,365.738 1176.74,364.404 1176.5,362.5 Z"/></g>
<g><path style="opacity:0.831" fill="#333333" d="M 1279.5,362.5 C 1281.23,363.026 1282.56,364.026 1283.5,365.5C 1281.37,365.446 1280.03,364.446 1279.5,362.5 Z"/></g>
<g><path style="opacity:0.596" fill="#2b2b2b" d="M 1988.5,362.5 C 1989.71,362.932 1990.71,363.599 1991.5,364.5C 1989.82,364.715 1988.82,364.048 1988.5,362.5 Z"/></g>
<g><path style="opacity:0.62" fill="#323232" d="M 1885.5,364.5 C 1887.26,365.262 1888.26,366.596 1888.5,368.5C 1886.74,367.738 1885.74,366.404 1885.5,364.5 Z"/></g>
<g><path style="opacity:0.694" fill="#313131" d="M 1284.5,365.5 C 1285.71,365.932 1286.71,366.599 1287.5,367.5C 1285.82,367.715 1284.82,367.048 1284.5,365.5 Z"/></g>
<g><path style="opacity:0.443" fill="#2b2b2b" d="M 1179.5,366.5 C 1180.91,366.973 1181.57,367.973 1181.5,369.5C 1180.09,369.027 1179.43,368.027 1179.5,366.5 Z"/></g>
<g><path style="opacity:0.776" fill="#333333" d="M 1827.5,367.5 C 1829.18,368.183 1829.84,369.517 1829.5,371.5C 1828.66,370.329 1827.99,368.995 1827.5,367.5 Z"/></g>
<g><path style="opacity:0.506" fill="#3e3e3e" d="M 1220.5,353.5 C 1221.22,353.918 1221.72,354.584 1222,355.5C 1222.82,361.016 1222.65,366.35 1221.5,371.5C 1221.57,365.471 1221.24,359.471 1220.5,353.5 Z"/></g>
<g><path style="opacity:0.624" fill="#2f2f2f" d="M 1888.5,368.5 C 1890.26,369.262 1891.26,370.596 1891.5,372.5C 1889.74,371.738 1888.74,370.404 1888.5,368.5 Z"/></g>
<g><path style="opacity:0.094" fill="#151515" d="M 1772.5,371.5 C 1773.95,370.115 1774.95,370.448 1775.5,372.5C 1774.61,371.89 1773.61,371.557 1772.5,371.5 Z"/></g>
<g><path style="opacity:0.455" fill="#272727" d="M 1928.5,367.5 C 1928.83,370.228 1928.16,372.562 1926.5,374.5C 1926.72,371.933 1927.39,369.599 1928.5,367.5 Z"/></g>
<g><path style="opacity:0.843" fill="#414141" d="M 1065.5,373.5 C 1063.82,375.834 1061.49,376.834 1058.5,376.5C 1060.51,374.935 1062.84,373.935 1065.5,373.5 Z"/></g>
<g><path style="opacity:0.376" fill="#242424" d="M 1893.5,374.5 C 1895.26,375.262 1896.26,376.596 1896.5,378.5C 1894.74,377.738 1893.74,376.404 1893.5,374.5 Z"/></g>
<g><path style="opacity:0.412" fill="#262626" d="M 1186.5,375.5 C 1188.26,376.262 1189.26,377.596 1189.5,379.5C 1187.74,378.738 1186.74,377.404 1186.5,375.5 Z"/></g>
<g><path style="opacity:0.467" fill="#2d2d2d" d="M 1058.5,376.5 C 1058.03,377.906 1057.03,378.573 1055.5,378.5C 1055.97,377.094 1056.97,376.427 1058.5,376.5 Z"/></g>
<g><path style="opacity:0.404" fill="#313131" d="M 1123.5,374.5 C 1125.16,376.438 1125.83,378.772 1125.5,381.5C 1124.39,379.401 1123.72,377.067 1123.5,374.5 Z"/></g>
<g><path style="opacity:0.451" fill="#282828" d="M 1779.5,376.5 C 1781.26,377.262 1782.26,378.596 1782.5,380.5C 1780.74,379.738 1779.74,378.404 1779.5,376.5 Z"/></g>
<g><path style="opacity:0.608" fill="#3d3d3d" d="M 1830.5,374.5 C 1832.68,377.381 1833.68,380.714 1833.5,384.5C 1832.13,381.381 1831.13,378.048 1830.5,374.5 Z"/></g>
<g><path style="opacity:0.616" fill="#343434" d="M 1782.5,380.5 C 1783.91,380.973 1784.57,381.973 1784.5,383.5C 1783.09,383.027 1782.43,382.027 1782.5,380.5 Z"/></g>
<g><path style="opacity:0.2" fill="#2a2a2a" d="M 1924.5,380.5 C 1924.57,382.027 1923.91,383.027 1922.5,383.5C 1922.43,381.973 1923.09,380.973 1924.5,380.5 Z"/></g>
<g><path style="opacity:0.349" fill="#242424" d="M 1217.5,382.5 C 1217.26,384.404 1216.26,385.738 1214.5,386.5C 1214.74,384.596 1215.74,383.262 1217.5,382.5 Z"/></g>
<g><path style="opacity:0.384" fill="#313131" d="M 1784.5,383.5 C 1786.26,384.262 1787.26,385.596 1787.5,387.5C 1785.74,386.738 1784.74,385.404 1784.5,383.5 Z"/></g>
<g><path style="opacity:0.651" fill="#2d2d2d" d="M 1902.5,384.5 C 1903.71,384.932 1904.71,385.599 1905.5,386.5C 1903.82,386.715 1902.82,386.048 1902.5,384.5 Z"/></g>
<g><path style="opacity:0.392" fill="#2f2f2f" d="M 1920.5,385.5 C 1920.03,386.906 1919.03,387.573 1917.5,387.5C 1917.97,386.094 1918.97,385.427 1920.5,385.5 Z"/></g>
<g><path style="opacity:0.22" fill="#2a2a2a" d="M 1078.5,385.5 C 1079.91,385.973 1080.57,386.973 1080.5,388.5C 1079.09,388.027 1078.43,387.027 1078.5,385.5 Z"/></g>
<g><path style="opacity:0.282" fill="#282828" d="M 1214.5,386.5 C 1214.03,387.906 1213.03,388.573 1211.5,388.5C 1211.97,387.094 1212.97,386.427 1214.5,386.5 Z"/></g>
<g><path style="opacity:0.416" fill="#272727" d="M 1739.5,387.5 C 1739.03,388.906 1738.03,389.573 1736.5,389.5C 1736.97,388.094 1737.97,387.427 1739.5,387.5 Z"/></g>
<g><path style="opacity:0.149" fill="#262626" d="M 1080.5,388.5 C 1081.91,388.973 1082.57,389.973 1082.5,391.5C 1081.09,391.027 1080.43,390.027 1080.5,388.5 Z"/></g>
<g><path style="opacity:0.165" fill="#2a2a2a" d="M 1788.5,389.5 C 1789.91,389.973 1790.57,390.973 1790.5,392.5C 1789.09,392.027 1788.43,391.027 1788.5,389.5 Z"/></g>
<g><path style="opacity:0.443" fill="#2d2d2d" d="M 1729.5,392.5 C 1729.03,393.906 1728.03,394.573 1726.5,394.5C 1726.97,393.094 1727.97,392.427 1729.5,392.5 Z"/></g>
<g><path style="opacity:0.075" fill="#1c1c1c" d="M 1791.5,394.5 C 1792.91,394.973 1793.57,395.973 1793.5,397.5C 1792.09,397.027 1791.43,396.027 1791.5,394.5 Z"/></g>
<g><path style="opacity:0.384" fill="#393939" d="M 1127.5,388.5 C 1128.91,392.921 1129.58,397.588 1129.5,402.5C 1129.5,405.355 1129.16,408.022 1128.5,410.5C 1128.52,403.146 1128.19,395.813 1127.5,388.5 Z"/></g>
<g><path style="opacity:0.094" fill="#1f1f1f" d="M 1087.5,400.5 C 1088.91,400.973 1089.57,401.973 1089.5,403.5C 1088.09,403.027 1087.43,402.027 1087.5,400.5 Z"/></g>
<g><path style="opacity:0.404" fill="#464646" d="M 1834.5,391.5 C 1837.07,399.515 1837.07,407.515 1834.5,415.5C 1835.72,407.507 1835.72,399.507 1834.5,391.5 Z"/></g>
<g><path style="opacity:0.118" fill="#1d1d1d" d="M 1795.5,401.5 C 1796.91,401.973 1797.57,402.973 1797.5,404.5C 1796.09,404.027 1795.43,403.027 1795.5,401.5 Z"/></g>
<g><path style="opacity:0.231" fill="#2f2f2f" d="M 1798.5,406.5 C 1799.91,406.973 1800.57,407.973 1800.5,409.5C 1799.09,409.027 1798.43,408.027 1798.5,406.5 Z"/></g>
<g><path style="opacity:0.541" fill="#272727" d="M 1800.5,409.5 C 1802.26,410.262 1803.26,411.596 1803.5,413.5C 1801.74,412.738 1800.74,411.404 1800.5,409.5 Z"/></g>
<g><path style="opacity:0.004" fill="#171717" d="M 1737.5,412.5 C 1738.91,412.973 1739.57,413.973 1739.5,415.5C 1738.09,415.027 1737.43,414.027 1737.5,412.5 Z"/></g>
<g><path style="opacity:0.282" fill="#222222" d="M 1681.5,416.5 C 1683.17,417.5 1684.5,418.833 1685.5,420.5C 1683.17,420.167 1681.83,418.833 1681.5,416.5 Z"/></g>
<g><path style="opacity:0.89" fill="#363636" d="M 976.5,420.5 C 974.61,418.805 972.277,418.472 969.5,419.5C 972.477,416.502 974.81,416.835 976.5,420.5 Z"/></g>
<g><path style="opacity:0.82" fill="#3d3d3d" d="M 1679.5,416.5 C 1677.82,418.834 1675.49,419.834 1672.5,419.5C 1674.51,417.935 1676.84,416.935 1679.5,416.5 Z"/></g>
<g><path style="opacity:0.514" fill="#272727" d="M 1806.5,417.5 C 1808.17,418.5 1809.5,419.833 1810.5,421.5C 1808.17,421.167 1806.83,419.833 1806.5,417.5 Z"/></g>
<g><path style="opacity:0.686" fill="#2f2f2f" d="M 1034.5,419.5 C 1036.05,419.821 1036.71,420.821 1036.5,422.5C 1035.6,421.71 1034.93,420.71 1034.5,419.5 Z"/></g>
<g><path style="opacity:0.424" fill="#242424" d="M 1100.5,419.5 C 1102.5,420.833 1104.17,422.5 1105.5,424.5C 1102.83,423.833 1101.17,422.167 1100.5,419.5 Z"/></g>
<g><path style="opacity:0.388" fill="#272727" d="M 1685.5,420.5 C 1687.59,421.585 1688.92,423.251 1689.5,425.5C 1687.41,424.415 1686.08,422.749 1685.5,420.5 Z"/></g>
<g><path style="opacity:0.902" fill="#434343" d="M 967.5,420.5 C 965.824,422.834 963.491,423.834 960.5,423.5C 962.509,421.935 964.843,420.935 967.5,420.5 Z"/></g>
<g><path style="opacity:0.357" fill="#252525" d="M 979.5,422.5 C 981.262,423.262 982.262,424.596 982.5,426.5C 980.738,425.738 979.738,424.404 979.5,422.5 Z"/></g>
<g><path style="opacity:0.243" fill="#262626" d="M 1126.5,421.5 C 1126.03,424.297 1124.37,425.631 1121.5,425.5C 1123.14,424.197 1124.81,422.864 1126.5,421.5 Z"/></g>
<g><path style="opacity:0.647" fill="#333333" d="M 1829.5,423.5 C 1829.39,424.117 1829.06,424.617 1828.5,425C 1826.19,425.497 1823.86,425.663 1821.5,425.5C 1824,424.629 1826.67,423.963 1829.5,423.5 Z"/></g>
<g><path style="opacity:0.373" fill="#2e2e2e" d="M 960.5,423.5 C 958.967,425.245 956.967,426.245 954.5,426.5C 956.033,424.755 958.033,423.755 960.5,423.5 Z"/></g>
<g><path style="opacity:0.608" fill="#2f2f2f" d="M 984.5,428.5 C 986.587,429.585 987.92,431.251 988.5,433.5C 986.413,432.415 985.08,430.749 984.5,428.5 Z"/></g>
<g><path style="opacity:0.318" fill="#222222" d="M 1693.5,429.5 C 1695.26,430.262 1696.26,431.596 1696.5,433.5C 1694.74,432.738 1693.74,431.404 1693.5,429.5 Z"/></g>
<g><path style="opacity:0.251" fill="#2d2d2d" d="M 1649.5,430.5 C 1648.66,432.379 1648.33,434.379 1648.5,436.5C 1647.85,435.726 1647.52,434.726 1647.5,433.5C 1647.64,431.97 1648.31,430.97 1649.5,430.5 Z"/></g>
<g><path style="opacity:0.251" fill="#2c2c2c" d="M 1040.5,430.5 C 1042.1,431.287 1042.77,432.62 1042.5,434.5C 1041.33,433.486 1040.66,432.153 1040.5,430.5 Z"/></g>
<g><path style="opacity:0.482" fill="#292929" d="M 990.5,435.5 C 992.262,436.262 993.262,437.596 993.5,439.5C 991.738,438.738 990.738,437.404 990.5,435.5 Z"/></g>
<g><path style="opacity:0.337" fill="#282828" d="M 1042.5,436.5 C 1044.28,437.99 1044.95,439.99 1044.5,442.5C 1043.54,440.698 1042.88,438.698 1042.5,436.5 Z"/></g>
<g><path style="opacity:0.424" fill="#2c2c2c" d="M 1701.5,439.5 C 1702.91,439.973 1703.57,440.973 1703.5,442.5C 1702.09,442.027 1701.43,441.027 1701.5,439.5 Z"/></g>
<g><path style="opacity:0.184" fill="#232323" d="M 995.5,441.5 C 996.906,441.973 997.573,442.973 997.5,444.5C 996.094,444.027 995.427,443.027 995.5,441.5 Z"/></g>
<g><path style="opacity:0.388" fill="#292929" d="M 1705.5,444.5 C 1706.91,444.973 1707.57,445.973 1707.5,447.5C 1706.09,447.027 1705.43,446.027 1705.5,444.5 Z"/></g>
<g><path style="opacity:0.349" fill="#313131" d="M 943.5,443.5 C 945.074,445.102 945.741,447.102 945.5,449.5C 944.262,447.786 943.595,445.786 943.5,443.5 Z"/></g>
<g><path style="opacity:0.275" fill="#232323" d="M 999.5,446.5 C 1000.91,446.973 1001.57,447.973 1001.5,449.5C 1000.09,449.027 999.427,448.027 999.5,446.5 Z"/></g>
<g><path style="opacity:0.549" fill="#2a2a2a" d="M 1709.5,449.5 C 1711.59,450.585 1712.92,452.251 1713.5,454.5C 1711.41,453.415 1710.08,451.749 1709.5,449.5 Z"/></g>
<g><path style="opacity:0.42" fill="#2e2e2e" d="M 1003.5,451.5 C 1004.91,451.973 1005.57,452.973 1005.5,454.5C 1004.09,454.027 1003.43,453.027 1003.5,451.5 Z"/></g>
<g><path style="opacity:0.184" fill="#1c1c1c" d="M 1006.5,454.5 C 1008.26,455.262 1009.26,456.596 1009.5,458.5C 1007.74,457.738 1006.74,456.404 1006.5,454.5 Z"/></g>
<g><path style="opacity:0.769" fill="#3e3e3e" d="M 1600.5,458.5 C 1597.48,458.704 1594.48,459.037 1591.5,459.5C 1594.37,457.518 1597.37,457.185 1600.5,458.5 Z"/></g>
<g><path style="opacity:0.886" fill="#414141" d="M 888.5,459.5 C 886.824,461.834 884.491,462.834 881.5,462.5C 883.509,460.935 885.843,459.935 888.5,459.5 Z"/></g>
<g><path style="opacity:0.173" fill="#2c2c2c" d="M 1011.5,460.5 C 1013.19,460.856 1014.19,461.856 1014.5,463.5C 1012.81,463.144 1011.81,462.144 1011.5,460.5 Z"/></g>
<g><path style="opacity:0.388" fill="#272727" d="M 1586.5,461.5 C 1586.03,462.906 1585.03,463.573 1583.5,463.5C 1583.97,462.094 1584.97,461.427 1586.5,461.5 Z"/></g>
<g><path style="opacity:0.827" fill="#2f2f2f" d="M 1656.5,462.5 C 1657.59,462.62 1658.25,463.287 1658.5,464.5C 1659.27,467.115 1659.6,469.781 1659.5,472.5C 1658.51,469.257 1657.51,465.924 1656.5,462.5 Z"/></g>
<g><path style="opacity:0.663" fill="#303030" d="M 1603.5,462.5 C 1605.26,463.262 1606.26,464.596 1606.5,466.5C 1604.74,465.738 1603.74,464.404 1603.5,462.5 Z"/></g>
<g><path style="opacity:0.341" fill="#2b2b2b" d="M 1748.5,462.5 C 1748.57,464.027 1747.91,465.027 1746.5,465.5C 1746.43,463.973 1747.09,462.973 1748.5,462.5 Z"/></g>
<g><path style="opacity:0.329" fill="#2d2d2d" d="M 1042.5,463.5 C 1041.5,466.5 1039.5,468.5 1036.5,469.5C 1038.17,467.167 1040.17,465.167 1042.5,463.5 Z"/></g>
<g><path style="opacity:0.561" fill="#292929" d="M 1726.5,465.5 C 1727.71,465.932 1728.71,466.599 1729.5,467.5C 1727.82,467.715 1726.82,467.048 1726.5,465.5 Z"/></g>
<g><path style="opacity:0.329" fill="#303030" d="M 1746.5,465.5 C 1745.74,467.262 1744.4,468.262 1742.5,468.5C 1743.26,466.738 1744.6,465.738 1746.5,465.5 Z"/></g>
<g><path style="opacity:0.365" fill="#242424" d="M 870.5,467.5 C 870.027,468.906 869.027,469.573 867.5,469.5C 867.973,468.094 868.973,467.427 870.5,467.5 Z"/></g>
<g><path style="opacity:0.522" fill="#313131" d="M 899.5,467.5 C 900.906,467.973 901.573,468.973 901.5,470.5C 900.094,470.027 899.427,469.027 899.5,467.5 Z"/></g>
<g><path style="opacity:0.706" fill="#303030" d="M 1020.5,467.5 C 1021.71,467.932 1022.71,468.599 1023.5,469.5C 1021.82,469.715 1020.82,469.048 1020.5,467.5 Z"/></g>
<g><path style="opacity:0.169" fill="#272727" d="M 1606.5,466.5 C 1607.91,466.973 1608.57,467.973 1608.5,469.5C 1607.09,469.027 1606.43,468.027 1606.5,466.5 Z"/></g>
<g><path style="opacity:0.688" fill="#444444" d="M 1024.5,469.5 C 1026.47,470.162 1028.47,470.828 1030.5,471.5C 1032.45,470.628 1034.45,469.961 1036.5,469.5C 1032.41,473.464 1028.41,473.464 1024.5,469.5 Z"/></g>
<g><path style="opacity:0.173" fill="#272727" d="M 1608.5,469.5 C 1609.91,469.973 1610.57,470.973 1610.5,472.5C 1609.09,472.027 1608.43,471.027 1608.5,469.5 Z"/></g>
<g><path style="opacity:0.247" fill="#303030" d="M 901.5,470.5 C 902.906,470.973 903.573,471.973 903.5,473.5C 902.094,473.027 901.427,472.027 901.5,470.5 Z"/></g>
<g><path style="opacity:0.427" fill="#2c2c2c" d="M 1563.5,472.5 C 1563.03,473.906 1562.03,474.573 1560.5,474.5C 1560.97,473.094 1561.97,472.427 1563.5,472.5 Z"/></g>
<g><path style="opacity:0.153" fill="#272727" d="M 1610.5,472.5 C 1611.91,472.973 1612.57,473.973 1612.5,475.5C 1611.09,475.027 1610.43,474.027 1610.5,472.5 Z"/></g>
<g><path style="opacity:0.231" fill="#2f2f2f" d="M 903.5,473.5 C 904.906,473.973 905.573,474.973 905.5,476.5C 904.094,476.027 903.427,475.027 903.5,473.5 Z"/></g>
<g><path style="opacity:0.18" fill="#292929" d="M 1612.5,475.5 C 1613.91,475.973 1614.57,476.973 1614.5,478.5C 1613.09,478.027 1612.43,477.027 1612.5,475.5 Z"/></g>
<g><path style="opacity:0.38" fill="#272727" d="M 849.5,477.5 C 849.027,478.906 848.027,479.573 846.5,479.5C 846.973,478.094 847.973,477.427 849.5,477.5 Z"/></g>
<g><path style="opacity:0.243" fill="#2f2f2f" d="M 905.5,476.5 C 906.906,476.973 907.573,477.973 907.5,479.5C 906.094,479.027 905.427,478.027 905.5,476.5 Z"/></g>
<g><path style="opacity:0.592" fill="#313131" d="M 907.5,479.5 C 908.906,479.973 909.573,480.973 909.5,482.5C 908.094,482.027 907.427,481.027 907.5,479.5 Z"/></g>
<g><path style="opacity:0.224" fill="#2c2c2c" d="M 1614.5,478.5 C 1615.91,478.973 1616.57,479.973 1616.5,481.5C 1615.09,481.027 1614.43,480.027 1614.5,478.5 Z"/></g>
<g><path style="opacity:0.541" fill="#292929" d="M 1616.5,481.5 C 1618.26,482.262 1619.26,483.596 1619.5,485.5C 1617.74,484.738 1616.74,483.404 1616.5,481.5 Z"/></g>
<g><path style="opacity:0.349" fill="#303030" d="M 909.5,482.5 C 911.262,483.262 912.262,484.596 912.5,486.5C 910.738,485.738 909.738,484.404 909.5,482.5 Z"/></g>
<g><path style="opacity:0.353" fill="#414141" d="M 952.5,474.5 C 953.117,474.611 953.617,474.944 954,475.5C 954.167,477.833 954.333,480.167 954.5,482.5C 954.685,486.141 954.019,489.474 952.5,492.5C 953.726,486.479 953.726,480.479 952.5,474.5 Z"/></g>
<g><path style="opacity:0.737" fill="#313131" d="M 849.5,486.5 C 851.048,486.821 851.715,487.821 851.5,489.5C 850.599,488.71 849.932,487.71 849.5,486.5 Z"/></g>
<g><path style="opacity:0.427" fill="#252525" d="M 1619.5,485.5 C 1621.26,486.262 1622.26,487.596 1622.5,489.5C 1620.74,488.738 1619.74,487.404 1619.5,485.5 Z"/></g>
<g><path style="opacity:0.525" fill="#323232" d="M 912.5,486.5 C 913.906,486.973 914.573,487.973 914.5,489.5C 913.094,489.027 912.427,488.027 912.5,486.5 Z"/></g>
<g><path style="opacity:0.443" fill="#2c2c2c" d="M 1622.5,489.5 C 1623.91,489.973 1624.57,490.973 1624.5,492.5C 1623.09,492.027 1622.43,491.027 1622.5,489.5 Z"/></g>
<g><path style="opacity:0.318" fill="#262626" d="M 916.5,491.5 C 917.906,491.973 918.573,492.973 918.5,494.5C 917.094,494.027 916.427,493.027 916.5,491.5 Z"/></g>
<g><path style="opacity:0.345" fill="#303030" d="M 1659.5,485.5 C 1660.75,488.293 1660.41,490.96 1658.5,493.5C 1658.83,490.833 1659.17,488.167 1659.5,485.5 Z"/></g>
<g><path style="opacity:0.906" fill="#414141" d="M 1658.5,493.5 C 1658.78,496.857 1657.45,499.191 1654.5,500.5C 1655.9,498.125 1657.24,495.791 1658.5,493.5 Z"/></g>
<g><path style="opacity:0.133" fill="#232323" d="M 1512.5,495.5 C 1513.91,495.973 1514.57,496.973 1514.5,498.5C 1513.09,498.027 1512.43,497.027 1512.5,495.5 Z"/></g>
<g><path style="opacity:0.667" fill="#404040" d="M 1509.5,496.5 C 1506.69,498.897 1503.36,500.23 1499.5,500.5C 1502.52,498.6 1505.85,497.267 1509.5,496.5 Z"/></g>
<g><path style="opacity:0.431" fill="#2a2a2a" d="M 950.5,498.5 C 950.573,500.027 949.906,501.027 948.5,501.5C 948.427,499.973 949.094,498.973 950.5,498.5 Z"/></g>
<g><path style="opacity:0.09" fill="#1b1b1b" d="M 807.5,499.5 C 808.906,499.973 809.573,500.973 809.5,502.5C 808.094,502.027 807.427,501.027 807.5,499.5 Z"/></g>
<g><path style="opacity:0.525" fill="#292929" d="M 790.5,502.5 C 789.365,504.213 787.698,504.88 785.5,504.5C 786.93,503.463 788.597,502.796 790.5,502.5 Z"/></g>
<g><path style="opacity:0.314" fill="#2a2a2a" d="M 947.5,502.5 C 947.027,503.906 946.027,504.573 944.5,504.5C 944.973,503.094 945.973,502.427 947.5,502.5 Z"/></g>
<g><path style="opacity:0.808" fill="#3c3c3c" d="M 1654.5,500.5 C 1653.19,503.451 1650.86,504.784 1647.5,504.5C 1649.79,503.235 1652.12,501.902 1654.5,500.5 Z"/></g>
<g><path style="opacity:0.51" fill="#3e3e3e" d="M 1488.5,504.5 C 1486.16,506.04 1483.5,506.706 1480.5,506.5C 1482.91,505.232 1485.57,504.565 1488.5,504.5 Z"/></g>
<g><path style="opacity:0.306" fill="#2a2a2a" d="M 1563.5,502.5 C 1565.07,504.102 1565.74,506.102 1565.5,508.5C 1564.26,506.786 1563.59,504.786 1563.5,502.5 Z"/></g>
<g><path style="opacity:0.824" fill="#3b3b3b" d="M 857.5,505.5 C 859.28,506.99 859.946,508.99 859.5,511.5C 858.262,509.786 857.595,507.786 857.5,505.5 Z"/></g>
<g><path style="opacity:0.816" fill="#383838" d="M 1479.5,506.5 C 1477.38,508.655 1474.72,509.655 1471.5,509.5C 1473.94,508.129 1476.6,507.129 1479.5,506.5 Z"/></g>
<g><path style="opacity:0.082" fill="#212121" d="M 1518.5,505.5 C 1519.91,505.973 1520.57,506.973 1520.5,508.5C 1519.09,508.027 1518.43,507.027 1518.5,505.5 Z"/></g>
<g><path style="opacity:0.173" fill="#2a2a2a" d="M 811.5,506.5 C 812.906,506.973 813.573,507.973 813.5,509.5C 812.094,509.027 811.427,508.027 811.5,506.5 Z"/></g>
<g><path style="opacity:0.31" fill="#202020" d="M 1471.5,509.5 C 1471.03,510.906 1470.03,511.573 1468.5,511.5C 1468.97,510.094 1469.97,509.427 1471.5,509.5 Z"/></g>
<g><path style="opacity:0.392" fill="#2a2a2a" d="M 762.5,512.5 C 761.058,513.82 760.392,515.486 760.5,517.5C 759.402,516.399 759.235,515.066 760,513.5C 760.671,512.748 761.504,512.414 762.5,512.5 Z"/></g>
<g><path style="opacity:0.145" fill="#2b2b2b" d="M 814.5,511.5 C 815.906,511.973 816.573,512.973 816.5,514.5C 815.094,514.027 814.427,513.027 814.5,511.5 Z"/></g>
<g><path style="opacity:0.69" fill="#313131" d="M 1468.5,511.5 C 1467.7,513.042 1467.37,514.708 1467.5,516.5C 1464.52,514.128 1464.86,512.461 1468.5,511.5 Z"/></g>
<g><path style="opacity:0.145" fill="#272727" d="M 1522.5,512.5 C 1523.91,512.973 1524.57,513.973 1524.5,515.5C 1523.09,515.027 1522.43,514.027 1522.5,512.5 Z"/></g>
<g><path style="opacity:0.141" fill="#252525" d="M 817.5,516.5 C 818.906,516.973 819.573,517.973 819.5,519.5C 818.094,519.027 817.427,518.027 817.5,516.5 Z"/></g>
<g><path style="opacity:0.761" fill="#343434" d="M 761.5,519.5 C 763.048,519.821 763.715,520.821 763.5,522.5C 762.599,521.71 761.932,520.71 761.5,519.5 Z"/></g>
<g><path style="opacity:0.208" fill="#2c2c2c" d="M 1525.5,517.5 C 1526.91,517.973 1527.57,518.973 1527.5,520.5C 1526.09,520.027 1525.43,519.027 1525.5,517.5 Z"/></g>
<g><path style="opacity:0.773" fill="#313131" d="M 763.5,522.5 C 765.048,522.821 765.715,523.821 765.5,525.5C 764.599,524.71 763.932,523.71 763.5,522.5 Z"/></g>
<g><path style="opacity:0.239" fill="#2d2d2d" d="M 820.5,521.5 C 821.906,521.973 822.573,522.973 822.5,524.5C 821.094,524.027 820.427,523.027 820.5,521.5 Z"/></g>
<g><path style="opacity:0.686" fill="#323232" d="M 1528.5,522.5 C 1530.26,523.262 1531.26,524.596 1531.5,526.5C 1529.74,525.738 1528.74,524.404 1528.5,522.5 Z"/></g>
<g><path style="opacity:0.188" fill="#2c2c2c" d="M 822.5,524.5 C 823.906,524.973 824.573,525.973 824.5,527.5C 823.094,527.027 822.427,526.027 822.5,524.5 Z"/></g>
<g><path style="opacity:0.729" fill="#303030" d="M 766.5,527.5 C 768.048,527.821 768.715,528.821 768.5,530.5C 767.599,529.71 766.932,528.71 766.5,527.5 Z"/></g>
<g><path style="opacity:0.404" fill="#292929" d="M 1531.5,526.5 C 1532.91,526.973 1533.57,527.973 1533.5,529.5C 1532.09,529.027 1531.43,528.027 1531.5,526.5 Z"/></g>
<g><path style="opacity:0.498" fill="#2f2f2f" d="M 824.5,527.5 C 825.906,527.973 826.573,528.973 826.5,530.5C 825.094,530.027 824.427,529.027 824.5,527.5 Z"/></g>
<g><path style="opacity:0.11" fill="#353535" d="M 1567.5,519.5 C 1568.65,523.981 1568.82,528.648 1568,533.5C 1567.62,534.056 1567.12,534.389 1566.5,534.5C 1567.39,529.562 1567.73,524.562 1567.5,519.5 Z"/></g>
<g><path style="opacity:0.576" fill="#2f2f2f" d="M 1533.5,529.5 C 1535.26,530.262 1536.26,531.596 1536.5,533.5C 1534.74,532.738 1533.74,531.404 1533.5,529.5 Z"/></g>
<g><path style="opacity:0.831" fill="#3d3d3d" d="M 712.5,535.5 C 709.994,536.75 707.327,537.416 704.5,537.5C 706.954,535.337 709.62,534.67 712.5,535.5 Z"/></g>
<g><path style="opacity:0.6" fill="#2e2e2e" d="M 712.5,535.5 C 714.262,536.262 715.262,537.596 715.5,539.5C 713.738,538.738 712.738,537.404 712.5,535.5 Z"/></g>
<g><path style="opacity:0.384" fill="#232323" d="M 1420.5,535.5 C 1422.26,536.262 1423.26,537.596 1423.5,539.5C 1421.74,538.738 1420.74,537.404 1420.5,535.5 Z"/></g>
<g><path style="opacity:0.89" fill="#404040" d="M 1405.5,538.5 C 1403.82,540.834 1401.49,541.834 1398.5,541.5C 1400.51,539.935 1402.84,538.935 1405.5,538.5 Z"/></g>
<g><path style="opacity:0.525" fill="#2a2a2a" d="M 1423.5,539.5 C 1425.26,540.262 1426.26,541.596 1426.5,543.5C 1424.74,542.738 1423.74,541.404 1423.5,539.5 Z"/></g>
<g><path style="opacity:0.259" fill="#272727" d="M 1563.5,539.5 C 1563.03,540.906 1562.03,541.573 1560.5,541.5C 1560.97,540.094 1561.97,539.427 1563.5,539.5 Z"/></g>
<g><path style="opacity:0.702" fill="#2b2b2b" d="M 835.5,540.5 C 837.23,541.026 838.564,542.026 839.5,543.5C 837.368,543.446 836.035,542.446 835.5,540.5 Z"/></g>
<g><path style="opacity:0.216" fill="#262626" d="M 859.5,537.5 C 858.5,540.5 856.5,542.5 853.5,543.5C 855.167,541.167 857.167,539.167 859.5,537.5 Z"/></g>
<g><path style="opacity:0.388" fill="#292929" d="M 717.5,541.5 C 718.906,541.973 719.573,542.973 719.5,544.5C 718.094,544.027 717.427,543.027 717.5,541.5 Z"/></g>
<g><path style="opacity:0.396" fill="#303030" d="M 772.5,540.5 C 774.163,542.438 774.829,544.772 774.5,547.5C 773.388,545.401 772.721,543.067 772.5,540.5 Z"/></g>
<g><path style="opacity:0.329" fill="#303030" d="M 839.5,543.5 C 841.403,543.796 843.07,544.463 844.5,545.5C 842.302,545.88 840.635,545.213 839.5,543.5 Z"/></g>
<g><path style="opacity:0.878" fill="#414141" d="M 691.5,543.5 C 689.165,546.165 686.165,547.498 682.5,547.5C 685.088,545.408 688.088,544.075 691.5,543.5 Z"/></g>
<g><path style="opacity:0.125" fill="#1b1b1b" d="M 1428.5,545.5 C 1429.91,545.973 1430.57,546.973 1430.5,548.5C 1429.09,548.027 1428.43,547.027 1428.5,545.5 Z"/></g>
<g><path style="opacity:0.396" fill="#252525" d="M 682.5,547.5 C 682.027,548.906 681.027,549.573 679.5,549.5C 679.973,548.094 680.973,547.427 682.5,547.5 Z"/></g>
<g><path style="opacity:0.122" fill="#1e1e1e" d="M 721.5,546.5 C 722.906,546.973 723.573,547.973 723.5,549.5C 722.094,549.027 721.427,548.027 721.5,546.5 Z"/></g>
<g><path style="opacity:0.467" fill="#303030" d="M 1386.5,547.5 C 1386.03,548.906 1385.03,549.573 1383.5,549.5C 1383.97,548.094 1384.97,547.427 1386.5,547.5 Z"/></g>
<g><path style="opacity:0.467" fill="#2c2c2c" d="M 1430.5,548.5 C 1431.91,548.973 1432.57,549.973 1432.5,551.5C 1431.09,551.027 1430.43,550.027 1430.5,548.5 Z"/></g>
<g><path style="opacity:0.537" fill="#2d2d2d" d="M 723.5,549.5 C 725.262,550.262 726.262,551.596 726.5,553.5C 724.738,552.738 723.738,551.404 723.5,549.5 Z"/></g>
<g><path style="opacity:0.682" fill="#313131" d="M 1432.5,551.5 C 1434.26,552.262 1435.26,553.596 1435.5,555.5C 1433.74,554.738 1432.74,553.404 1432.5,551.5 Z"/></g>
<g><path style="opacity:0.506" fill="#2d2d2d" d="M 673.5,552.5 C 673.027,553.906 672.027,554.573 670.5,554.5C 670.973,553.094 671.973,552.427 673.5,552.5 Z"/></g>
<g><path style="opacity:0.537" fill="#2b2b2b" d="M 726.5,553.5 C 728.262,554.262 729.262,555.596 729.5,557.5C 727.738,556.738 726.738,555.404 726.5,553.5 Z"/></g>
<g><path style="opacity:0.859" fill="#424242" d="M 668.5,555.5 C 666.824,557.834 664.491,558.834 661.5,558.5C 663.509,556.935 665.843,555.935 668.5,555.5 Z"/></g>
<g><path style="opacity:0.608" fill="#303030" d="M 729.5,557.5 C 731.262,558.262 732.262,559.596 732.5,561.5C 730.738,560.738 729.738,559.404 729.5,557.5 Z"/></g>
<g><path style="opacity:0.357" fill="#282828" d="M 1437.5,557.5 C 1438.91,557.973 1439.57,558.973 1439.5,560.5C 1438.09,560.027 1437.43,559.027 1437.5,557.5 Z"/></g>
<g><path style="opacity:0.561" fill="#333333" d="M 661.5,558.5 C 661.027,559.906 660.027,560.573 658.5,560.5C 658.973,559.094 659.973,558.427 661.5,558.5 Z"/></g>
<g><path style="opacity:0.388" fill="#282828" d="M 1365.5,558.5 C 1365.73,560.062 1366.4,561.395 1367.5,562.5C 1364.69,562.042 1364.02,560.709 1365.5,558.5 Z"/></g>
<g><path style="opacity:0.435" fill="#2c2c2c" d="M 1441.5,562.5 C 1442.91,562.973 1443.57,563.973 1443.5,565.5C 1442.09,565.027 1441.43,564.027 1441.5,562.5 Z"/></g>
<g><path style="opacity:0.165" fill="#252525" d="M 660.5,563.5 C 662.027,563.427 663.027,564.094 663.5,565.5C 661.973,565.573 660.973,564.906 660.5,563.5 Z"/></g>
<g><path style="opacity:0.416" fill="#282828" d="M 734.5,563.5 C 736.262,564.262 737.262,565.596 737.5,567.5C 735.738,566.738 734.738,565.404 734.5,563.5 Z"/></g>
<g><path style="opacity:0.298" fill="#303030" d="M 1369.5,563.5 C 1371.03,563.427 1372.03,564.094 1372.5,565.5C 1370.97,565.573 1369.97,564.906 1369.5,563.5 Z"/></g>
<g><path style="opacity:0.655" fill="#303030" d="M 1372.5,565.5 C 1374.4,565.738 1375.74,566.738 1376.5,568.5C 1374.6,568.262 1373.26,567.262 1372.5,565.5 Z"/></g>
<g><path style="opacity:0.004" fill="#191919" d="M 1443.5,565.5 C 1444.83,565.5 1445.5,566.167 1445.5,567.5C 1444.5,567.167 1443.83,566.5 1443.5,565.5 Z"/></g>
<g><path style="opacity:0.192" fill="#272727" d="M 663.5,565.5 C 665.027,565.427 666.027,566.094 666.5,567.5C 664.973,567.573 663.973,566.906 663.5,565.5 Z"/></g>
<g><path style="opacity:0.522" fill="#2d2d2d" d="M 666.5,567.5 C 668.404,567.738 669.738,568.738 670.5,570.5C 668.596,570.262 667.262,569.262 666.5,567.5 Z"/></g>
<g><path style="opacity:0.847" fill="#383838" d="M 1480.5,565.5 C 1480.98,568.313 1479.98,570.313 1477.5,571.5C 1478.51,569.456 1479.51,567.456 1480.5,565.5 Z"/></g>
<g><path style="opacity:0.357" fill="#262626" d="M 1378.5,570.5 C 1380.4,570.738 1381.74,571.738 1382.5,573.5C 1380.6,573.262 1379.26,572.262 1378.5,570.5 Z"/></g>
<g><path style="opacity:0.318" fill="#232323" d="M 672.5,572.5 C 675.089,573.419 677.089,575.086 678.5,577.5C 675.911,576.581 673.911,574.914 672.5,572.5 Z"/></g>
<g><path style="opacity:0.259" fill="#222222" d="M 1477.5,571.5 C 1477.26,573.404 1476.26,574.738 1474.5,575.5C 1474.74,573.596 1475.74,572.262 1477.5,571.5 Z"/></g>
<g><path style="opacity:0.224" fill="#2b2b2b" d="M 771.5,572.5 C 771.573,574.027 770.906,575.027 769.5,575.5C 769.427,573.973 770.094,572.973 771.5,572.5 Z"/></g>
<g><path style="opacity:0.733" fill="#393939" d="M 768.5,576.5 C 767.313,578.975 765.313,579.975 762.5,579.5C 764.456,578.508 766.456,577.508 768.5,576.5 Z"/></g>
<g><path style="opacity:0.722" fill="#323232" d="M 1388.5,581.5 C 1390.05,581.821 1390.71,582.821 1390.5,584.5C 1389.6,583.71 1388.93,582.71 1388.5,581.5 Z"/></g>
<g><path style="opacity:0.761" fill="#363636" d="M 1315.5,583.5 C 1312.83,583.833 1310.17,584.167 1307.5,584.5C 1310.04,582.587 1312.71,582.254 1315.5,583.5 Z"/></g>
<g><path style="opacity:0.706" fill="#2f2f2f" d="M 1316.5,583.5 C 1317.71,583.932 1318.71,584.599 1319.5,585.5C 1317.82,585.715 1316.82,585.048 1316.5,583.5 Z"/></g>
<g><path style="opacity:0.404" fill="#292929" d="M 1307.5,584.5 C 1307.03,585.906 1306.03,586.573 1304.5,586.5C 1304.97,585.094 1305.97,584.427 1307.5,584.5 Z"/></g>
<g><path style="opacity:0.776" fill="#333333" d="M 1390.5,585.5 C 1392.18,586.183 1392.84,587.517 1392.5,589.5C 1391.66,588.329 1390.99,586.995 1390.5,585.5 Z"/></g>
<g><path style="opacity:0.824" fill="#343434" d="M 610.5,585.5 C 611.71,585.932 612.71,586.599 613.5,587.5C 611.821,587.715 610.821,587.048 610.5,585.5 Z"/></g>
<g><path style="opacity:0.753" fill="#323232" d="M 1319.5,585.5 C 1320.71,585.932 1321.71,586.599 1322.5,587.5C 1320.82,587.715 1319.82,587.048 1319.5,585.5 Z"/></g>
<g><path style="opacity:0.722" fill="#2b2b2b" d="M 1322.5,587.5 C 1324.23,588.026 1325.56,589.026 1326.5,590.5C 1324.37,590.446 1323.03,589.446 1322.5,587.5 Z"/></g>
<g><path style="opacity:0.004" fill="#131313" d="M 616.5,589.5 C 618.027,589.427 619.027,590.094 619.5,591.5C 617.973,591.573 616.973,590.906 616.5,589.5 Z"/></g>
<g><path style="opacity:0.18" fill="#343434" d="M 684.5,588.5 C 686.256,589.552 686.923,591.219 686.5,593.5C 685.691,591.972 685.024,590.306 684.5,588.5 Z"/></g>
<g><path style="opacity:0.463" fill="#333333" d="M 1300.5,589.5 C 1298.76,592.243 1296.43,594.243 1293.5,595.5C 1295.24,592.757 1297.57,590.757 1300.5,589.5 Z"/></g>
<g><path style="opacity:0.635" fill="#3b3b3b" d="M 593.5,591.5 C 592.089,593.914 590.089,595.581 587.5,596.5C 588.911,594.086 590.911,592.419 593.5,591.5 Z"/></g>
<g><path style="opacity:0.824" fill="#333333" d="M 1331.5,594.5 C 1333.23,595.026 1334.56,596.026 1335.5,597.5C 1333.37,597.446 1332.03,596.446 1331.5,594.5 Z"/></g>
<g><path style="opacity:0.827" fill="#333333" d="M 1335.5,597.5 C 1337.23,598.026 1338.56,599.026 1339.5,600.5C 1337.37,600.446 1336.03,599.446 1335.5,597.5 Z"/></g>
<g><path style="opacity:0.086" fill="#363636" d="M 686.5,594.5 C 687.163,596.641 687.497,598.975 687.5,601.5C 687.471,604.269 686.805,606.603 685.5,608.5C 686.383,603.897 686.717,599.23 686.5,594.5 Z"/></g>
<g><path style="opacity:0.353" fill="#242424" d="M 1285.5,603.5 C 1285.26,605.404 1284.26,606.738 1282.5,607.5C 1282.74,605.596 1283.74,604.262 1285.5,603.5 Z"/></g>
<g><path style="opacity:0.714" fill="#2f2f2f" d="M 1344.5,603.5 C 1345.71,603.932 1346.71,604.599 1347.5,605.5C 1345.82,605.715 1344.82,605.048 1344.5,603.5 Z"/></g>
<g><path style="opacity:0.004" fill="#1a1a1a" d="M 637.5,604.5 C 638.71,604.932 639.71,605.599 640.5,606.5C 638.821,606.715 637.821,606.048 637.5,604.5 Z"/></g>
<g><path style="opacity:0.655" fill="#2e2e2e" d="M 640.5,606.5 C 641.71,606.932 642.71,607.599 643.5,608.5C 641.821,608.715 640.821,608.048 640.5,606.5 Z"/></g>
<g><path style="opacity:0.592" fill="#2d2d2d" d="M 1351.5,607.5 C 1352.71,607.932 1353.71,608.599 1354.5,609.5C 1352.82,609.715 1351.82,609.048 1351.5,607.5 Z"/></g>
<g><path style="opacity:0.114" fill="#242424" d="M 575.5,609.5 C 575.573,611.027 574.906,612.027 573.5,612.5C 573.427,610.973 574.094,609.973 575.5,609.5 Z"/></g>
<g><path style="opacity:0.333" fill="#292929" d="M 1389.5,610.5 C 1389.03,611.906 1388.03,612.573 1386.5,612.5C 1386.97,611.094 1387.97,610.427 1389.5,610.5 Z"/></g>
<g><path style="opacity:0.267" fill="#292929" d="M 683.5,611.5 C 682.738,613.262 681.404,614.262 679.5,614.5C 680.262,612.738 681.596,611.738 683.5,611.5 Z"/></g>
<g><path style="opacity:0.518" fill="#343434" d="M 1386.5,612.5 C 1386.03,613.906 1385.03,614.573 1383.5,614.5C 1383.97,613.094 1384.97,612.427 1386.5,612.5 Z"/></g>
<g><path style="opacity:0.475" fill="#333333" d="M 1365.5,614.5 C 1368.37,614.802 1371.04,615.469 1373.5,616.5C 1370.45,616.889 1367.78,616.223 1365.5,614.5 Z"/></g>
<g><path style="opacity:0.573" fill="#343434" d="M 1382.5,614.5 C 1381.36,616.213 1379.7,616.88 1377.5,616.5C 1378.93,615.463 1380.6,614.796 1382.5,614.5 Z"/></g>
<g><path style="opacity:0.306" fill="#404040" d="M 1278.5,614.5 C 1277.27,618.845 1277.27,623.178 1278.5,627.5C 1275.91,623.196 1275.91,618.863 1278.5,614.5 Z"/></g>
<g><path style="opacity:0.749" fill="#343434" d="M 575.5,638.5 C 577.048,638.821 577.715,639.821 577.5,641.5C 576.599,640.71 575.932,639.71 575.5,638.5 Z"/></g>
<g><path style="opacity:0.631" fill="#2c2c2c" d="M 1283.5,640.5 C 1285.05,640.821 1285.71,641.821 1285.5,643.5C 1284.6,642.71 1283.93,641.71 1283.5,640.5 Z"/></g>
<g><path style="opacity:0.682" fill="#323232" d="M 1286.5,646.5 C 1288.05,646.821 1288.71,647.821 1288.5,649.5C 1287.6,648.71 1286.93,647.71 1286.5,646.5 Z"/></g>
<g><path style="opacity:0.761" fill="#333333" d="M 1288.5,650.5 C 1290.05,650.821 1290.71,651.821 1290.5,653.5C 1289.6,652.71 1288.93,651.71 1288.5,650.5 Z"/></g>
<g><path style="opacity:0.682" fill="#323232" d="M 1291.5,656.5 C 1293.05,656.821 1293.71,657.821 1293.5,659.5C 1292.6,658.71 1291.93,657.71 1291.5,656.5 Z"/></g>
<g><path style="opacity:0.659" fill="#2f2f2f" d="M 1293.5,660.5 C 1295.05,660.821 1295.71,661.821 1295.5,663.5C 1294.6,662.71 1293.93,661.71 1293.5,660.5 Z"/></g>
<g><path style="opacity:0.655" fill="#2c2c2c" d="M 590.5,668.5 C 592.048,668.821 592.715,669.821 592.5,671.5C 591.599,670.71 590.932,669.71 590.5,668.5 Z"/></g>
<g><path style="opacity:0.651" fill="#2b2b2b" d="M 1298.5,669.5 C 1300.45,670.035 1301.45,671.368 1301.5,673.5C 1300.03,672.564 1299.03,671.23 1298.5,669.5 Z"/></g>
</svg>
