<?xml version="1.0" encoding="UTF-8"?>
<!DOCTYPE svg PUBLIC "-//W3C//DTD SVG 1.1//EN" "http://www.w3.org/Graphics/SVG/1.1/DTD/svg11.dtd">
<svg xmlns="http://www.w3.org/2000/svg" version="1.1" width="2591px" height="1206px" style="shape-rendering:geometricPrecision; text-rendering:geometricPrecision; image-rendering:optimizeQuality; fill-rule:evenodd; clip-rule:evenodd" xmlns:xlink="http://www.w3.org/1999/xlink">
<g><path style="opacity:1" fill="#666666" d="M 1058.5,671.5 C 1058.82,673.048 1059.82,673.715 1061.5,673.5C 1065.08,674.292 1068.41,675.625 1071.5,677.5C 1071.82,679.048 1072.82,679.715 1074.5,679.5C 1079.81,681.819 1085.14,684.152 1090.5,686.5C 1090.82,688.048 1091.82,688.715 1093.5,688.5C 1097.73,689.617 1101.73,691.284 1105.5,693.5C 1105.82,695.048 1106.82,695.715 1108.5,695.5C 1119.39,699.613 1130.06,704.28 1140.5,709.5C 1141.29,711.104 1142.62,711.771 1144.5,711.5C 1148.5,712.054 1152.17,713.387 1155.5,715.5C 1155.82,717.048 1156.82,717.715 1158.5,717.5C 1162.28,718.558 1165.95,719.891 1169.5,721.5C 1170.18,723.176 1171.52,723.843 1173.5,723.5C 1176.6,724.216 1179.6,725.216 1182.5,726.5C 1183.64,728.213 1185.3,728.88 1187.5,728.5C 1198.85,732.169 1210.18,735.836 1221.5,739.5C 1223.1,741.074 1225.1,741.741 1227.5,741.5C 1229.22,741.629 1230.88,741.962 1232.5,742.5C 1233.99,744.28 1235.99,744.946 1238.5,744.5C 1239.99,746.28 1241.99,746.946 1244.5,746.5C 1247.9,746.851 1251.24,747.518 1254.5,748.5C 1255.99,750.28 1257.99,750.946 1260.5,750.5C 1263.6,750.756 1266.6,751.422 1269.5,752.5C 1272.32,754.712 1275.65,755.712 1279.5,755.5C 1283.57,756.633 1287.57,757.967 1291.5,759.5C 1291.82,761.048 1292.82,761.715 1294.5,761.5C 1301.58,765.309 1303.91,770.976 1301.5,778.5C 1297.6,779.43 1293.6,779.763 1289.5,779.5C 1268.09,778.281 1246.75,776.281 1225.5,773.5C 1221.12,771.789 1216.45,771.123 1211.5,771.5C 1176.02,767.815 1140.69,763.149 1105.5,757.5C 1101.43,755.946 1097.1,755.28 1092.5,755.5C 1084.76,755.043 1077.09,754.043 1069.5,752.5C 1066.16,750.783 1062.49,750.116 1058.5,750.5C 1055.43,750.632 1052.43,750.299 1049.5,749.5C 1049.08,748.778 1048.42,748.278 1047.5,748C 1044.52,747.502 1041.52,747.335 1038.5,747.5C 979.657,739.189 920.99,729.856 862.5,719.5C 860.162,717.96 857.495,717.294 854.5,717.5C 854.167,717.5 853.833,717.5 853.5,717.5C 853.833,716.167 854.167,714.833 854.5,713.5C 856.262,712.738 857.262,711.404 857.5,709.5C 859.833,706.5 862.5,703.833 865.5,701.5C 868.5,700.5 870.5,698.5 871.5,695.5C 874.427,694.243 876.761,692.243 878.5,689.5C 881.427,688.243 883.761,686.243 885.5,683.5C 887.749,682.92 889.415,681.587 890.5,679.5C 891.29,678.599 892.29,677.932 893.5,677.5C 895.027,677.573 896.027,676.906 896.5,675.5C 897.899,674.11 899.566,673.11 901.5,672.5C 903.027,672.573 904.027,671.906 904.5,670.5C 904.842,669.662 905.508,669.328 906.5,669.5C 908.027,669.573 909.027,668.906 909.5,667.5C 909.842,666.662 910.508,666.328 911.5,666.5C 913.027,666.573 914.027,665.906 914.5,664.5C 916.181,662.992 918.181,661.992 920.5,661.5C 922.027,661.573 923.027,660.906 923.5,659.5C 930.288,655.108 937.622,651.775 945.5,649.5C 948.152,649.59 950.485,648.924 952.5,647.5C 967.013,644.085 981.68,644.251 996.5,648C 1017.82,654.163 1038.49,661.996 1058.5,671.5 Z"/></g>
<g><path style="opacity:1" fill="#666666" d="M 280.5,647.5 C 280.611,648.117 280.944,648.617 281.5,649C 283.473,649.495 285.473,649.662 287.5,649.5C 302.226,652.964 316.559,657.631 330.5,663.5C 331.183,665.176 332.517,665.843 334.5,665.5C 337.833,666.833 341.167,668.167 344.5,669.5C 344.821,671.048 345.821,671.715 347.5,671.5C 349.579,671.971 351.579,672.637 353.5,673.5C 353.821,675.048 354.821,675.715 356.5,675.5C 356.833,675.5 357.167,675.5 357.5,675.5C 357.821,677.048 358.821,677.715 360.5,677.5C 365.403,678.952 370.07,680.952 374.5,683.5C 374.821,685.048 375.821,685.715 377.5,685.5C 377.833,685.5 378.167,685.5 378.5,685.5C 378.821,687.048 379.821,687.715 381.5,687.5C 385.667,688.778 389.667,690.444 393.5,692.5C 393.821,694.048 394.821,694.715 396.5,694.5C 400.052,695.276 403.386,696.609 406.5,698.5C 406.821,700.048 407.821,700.715 409.5,700.5C 412.38,700.94 415.046,701.94 417.5,703.5C 417.821,705.048 418.821,705.715 420.5,705.5C 428.267,708.31 435.934,711.31 443.5,714.5C 443.821,716.048 444.821,716.715 446.5,716.5C 476.491,728.83 507.158,739.164 538.5,747.5C 538.611,748.117 538.944,748.617 539.5,749C 543.754,750.314 548.087,751.147 552.5,751.5C 555.539,752.01 558.539,752.677 561.5,753.5C 562.99,755.28 564.99,755.946 567.5,755.5C 575.66,756.958 583.327,759.792 590.5,764C 595.675,768.536 597.175,774.036 595,780.5C 594.044,781.894 592.711,782.561 591,782.5C 577.502,781.13 564.002,779.796 550.5,778.5C 545.783,776.762 540.783,776.096 535.5,776.5C 525.776,776.012 516.109,775.012 506.5,773.5C 502.455,771.823 498.122,771.156 493.5,771.5C 492.5,771.5 491.5,771.5 490.5,771.5C 488.71,770.003 486.544,769.336 484,769.5C 482.293,769.508 480.793,769.842 479.5,770.5C 467.836,768.751 456.17,767.084 444.5,765.5C 440.817,763.75 436.817,763.083 432.5,763.5C 342.847,751.693 253.514,738.026 164.5,722.5C 161.781,721.087 158.781,720.42 155.5,720.5C 153.05,720.702 150.717,720.369 148.5,719.5C 147.766,718.292 147.433,716.959 147.5,715.5C 149.587,714.415 150.92,712.749 151.5,710.5C 153.5,707.833 155.833,705.5 158.5,703.5C 164.108,699.561 169.108,694.894 173.5,689.5C 176.089,688.581 178.089,686.914 179.5,684.5C 181.55,682.453 183.883,680.786 186.5,679.5C 188.027,679.573 189.027,678.906 189.5,677.5C 191.027,677.573 192.027,676.906 192.5,675.5C 194.027,675.573 195.027,674.906 195.5,673.5C 195.842,672.662 196.508,672.328 197.5,672.5C 199.027,672.573 200.027,671.906 200.5,670.5C 200.842,669.662 201.508,669.328 202.5,669.5C 204.027,669.573 205.027,668.906 205.5,667.5C 205.842,666.662 206.508,666.328 207.5,666.5C 209.027,666.573 210.027,665.906 210.5,664.5C 212.181,662.992 214.181,661.992 216.5,661.5C 218.027,661.573 219.027,660.906 219.5,659.5C 222.256,657.796 225.256,656.463 228.5,655.5C 231.947,654.917 234.947,653.584 237.5,651.5C 238.568,650.566 239.901,650.232 241.5,650.5C 243.898,650.741 245.898,650.074 247.5,648.5C 258.292,646.209 269.292,645.875 280.5,647.5 Z"/></g>
<g><path style="opacity:0.506" fill="#323232" d="M 280.5,647.5 C 283.01,647.927 285.343,648.593 287.5,649.5C 285.473,649.662 283.473,649.495 281.5,649C 280.944,648.617 280.611,648.117 280.5,647.5 Z"/></g>
<g><path style="opacity:0.588" fill="#3a3a3a" d="M 952.5,647.5 C 950.485,648.924 948.152,649.59 945.5,649.5C 947.515,648.076 949.848,647.41 952.5,647.5 Z"/></g>
<g><path style="opacity:0.82" fill="#434343" d="M 247.5,648.5 C 245.898,650.074 243.898,650.741 241.5,650.5C 243.102,648.926 245.102,648.259 247.5,648.5 Z"/></g>
<g><path style="opacity:0.886" fill="#3f3f3f" d="M 237.5,651.5 C 234.947,653.584 231.947,654.917 228.5,655.5C 231.053,653.416 234.053,652.083 237.5,651.5 Z"/></g>
<g><path style="opacity:0.322" fill="#232323" d="M 219.5,659.5 C 219.027,660.906 218.027,661.573 216.5,661.5C 216.973,660.094 217.973,659.427 219.5,659.5 Z"/></g>
<g><path style="opacity:0.416" fill="#2c2c2c" d="M 923.5,659.5 C 923.027,660.906 922.027,661.573 920.5,661.5C 920.973,660.094 921.973,659.427 923.5,659.5 Z"/></g>
<g><path style="opacity:0.733" fill="#323232" d="M 330.5,663.5 C 331.995,663.989 333.329,664.655 334.5,665.5C 332.517,665.843 331.183,665.176 330.5,663.5 Z"/></g>
<g><path style="opacity:0.341" fill="#282828" d="M 210.5,664.5 C 210.027,665.906 209.027,666.573 207.5,666.5C 207.973,665.094 208.973,664.427 210.5,664.5 Z"/></g>
<g><path style="opacity:0.341" fill="#282828" d="M 914.5,664.5 C 914.027,665.906 913.027,666.573 911.5,666.5C 911.973,665.094 912.973,664.427 914.5,664.5 Z"/></g>
<g><path style="opacity:0.443" fill="#333333" d="M 205.5,667.5 C 205.027,668.906 204.027,669.573 202.5,669.5C 202.973,668.094 203.973,667.427 205.5,667.5 Z"/></g>
<g><path style="opacity:0.408" fill="#303030" d="M 909.5,667.5 C 909.027,668.906 908.027,669.573 906.5,669.5C 906.973,668.094 907.973,667.427 909.5,667.5 Z"/></g>
<g><path style="opacity:0.675" fill="#313131" d="M 344.5,669.5 C 345.71,669.932 346.71,670.599 347.5,671.5C 345.821,671.715 344.821,671.048 344.5,669.5 Z"/></g>
<g><path style="opacity:0.455" fill="#2f2f2f" d="M 200.5,670.5 C 200.027,671.906 199.027,672.573 197.5,672.5C 197.973,671.094 198.973,670.427 200.5,670.5 Z"/></g>
<g><path style="opacity:0.384" fill="#292929" d="M 904.5,670.5 C 904.027,671.906 903.027,672.573 901.5,672.5C 901.973,671.094 902.973,670.427 904.5,670.5 Z"/></g>
<g><path style="opacity:0.761" fill="#343434" d="M 1058.5,671.5 C 1059.71,671.932 1060.71,672.599 1061.5,673.5C 1059.82,673.715 1058.82,673.048 1058.5,671.5 Z"/></g>
<g><path style="opacity:0.376" fill="#2f2f2f" d="M 195.5,673.5 C 195.027,674.906 194.027,675.573 192.5,675.5C 192.973,674.094 193.973,673.427 195.5,673.5 Z"/></g>
<g><path style="opacity:0.584" fill="#2e2e2e" d="M 353.5,673.5 C 354.71,673.932 355.71,674.599 356.5,675.5C 354.821,675.715 353.821,675.048 353.5,673.5 Z"/></g>
<g><path style="opacity:0.459" fill="#2e2e2e" d="M 192.5,675.5 C 192.027,676.906 191.027,677.573 189.5,677.5C 189.973,676.094 190.973,675.427 192.5,675.5 Z"/></g>
<g><path style="opacity:0.706" fill="#323232" d="M 357.5,675.5 C 358.71,675.932 359.71,676.599 360.5,677.5C 358.821,677.715 357.821,677.048 357.5,675.5 Z"/></g>
<g><path style="opacity:0.29" fill="#232323" d="M 896.5,675.5 C 896.027,676.906 895.027,677.573 893.5,677.5C 893.973,676.094 894.973,675.427 896.5,675.5 Z"/></g>
<g><path style="opacity:0.482" fill="#333333" d="M 189.5,677.5 C 189.027,678.906 188.027,679.573 186.5,679.5C 186.973,678.094 187.973,677.427 189.5,677.5 Z"/></g>
<g><path style="opacity:0.631" fill="#313131" d="M 1071.5,677.5 C 1072.71,677.932 1073.71,678.599 1074.5,679.5C 1072.82,679.715 1071.82,679.048 1071.5,677.5 Z"/></g>
<g><path style="opacity:0.592" fill="#313131" d="M 890.5,679.5 C 889.415,681.587 887.749,682.92 885.5,683.5C 886.585,681.413 888.251,680.08 890.5,679.5 Z"/></g>
<g><path style="opacity:0.62" fill="#313131" d="M 374.5,683.5 C 375.71,683.932 376.71,684.599 377.5,685.5C 375.821,685.715 374.821,685.048 374.5,683.5 Z"/></g>
<g><path style="opacity:0.737" fill="#343434" d="M 378.5,685.5 C 379.71,685.932 380.71,686.599 381.5,687.5C 379.821,687.715 378.821,687.048 378.5,685.5 Z"/></g>
<g><path style="opacity:0.522" fill="#393939" d="M 885.5,683.5 C 883.761,686.243 881.427,688.243 878.5,689.5C 880.239,686.757 882.573,684.757 885.5,683.5 Z"/></g>
<g><path style="opacity:0.522" fill="#353535" d="M 179.5,684.5 C 178.089,686.914 176.089,688.581 173.5,689.5C 174.911,687.086 176.911,685.419 179.5,684.5 Z"/></g>
<g><path style="opacity:0.655" fill="#303030" d="M 1090.5,686.5 C 1091.71,686.932 1092.71,687.599 1093.5,688.5C 1091.82,688.715 1090.82,688.048 1090.5,686.5 Z"/></g>
<g><path style="opacity:0.314" fill="#2d2d2d" d="M 878.5,689.5 C 876.761,692.243 874.427,694.243 871.5,695.5C 873.239,692.757 875.573,690.757 878.5,689.5 Z"/></g>
<g><path style="opacity:0.702" fill="#333333" d="M 393.5,692.5 C 394.71,692.932 395.71,693.599 396.5,694.5C 394.821,694.715 393.821,694.048 393.5,692.5 Z"/></g>
<g><path style="opacity:0.702" fill="#323232" d="M 1105.5,693.5 C 1106.71,693.932 1107.71,694.599 1108.5,695.5C 1106.82,695.715 1105.82,695.048 1105.5,693.5 Z"/></g>
<g><path style="opacity:0.592" fill="#383838" d="M 173.5,689.5 C 169.108,694.894 164.108,699.561 158.5,703.5C 162.892,698.106 167.892,693.439 173.5,689.5 Z"/></g>
<g><path style="opacity:0.737" fill="#333333" d="M 406.5,698.5 C 407.71,698.932 408.71,699.599 409.5,700.5C 407.821,700.715 406.821,700.048 406.5,698.5 Z"/></g>
<g><path style="opacity:0.62" fill="#3f3f3f" d="M 871.5,695.5 C 870.5,698.5 868.5,700.5 865.5,701.5C 867.167,699.167 869.167,697.167 871.5,695.5 Z"/></g>
<g><path style="opacity:0.733" fill="#333333" d="M 417.5,703.5 C 418.71,703.932 419.71,704.599 420.5,705.5C 418.821,705.715 417.821,705.048 417.5,703.5 Z"/></g>
<g><path style="opacity:0.337" fill="#272727" d="M 857.5,709.5 C 857.262,711.404 856.262,712.738 854.5,713.5C 854.738,711.596 855.738,710.262 857.5,709.5 Z"/></g>
<g><path style="opacity:0.208" fill="#2a2a2a" d="M 1140.5,709.5 C 1142.15,709.66 1143.49,710.326 1144.5,711.5C 1142.62,711.771 1141.29,711.104 1140.5,709.5 Z"/></g>
<g><path style="opacity:0.447" fill="#292929" d="M 151.5,710.5 C 150.92,712.749 149.587,714.415 147.5,715.5C 148.08,713.251 149.413,711.585 151.5,710.5 Z"/></g>
<g><path style="opacity:0.69" fill="#313131" d="M 443.5,714.5 C 444.71,714.932 445.71,715.599 446.5,716.5C 444.821,716.715 443.821,716.048 443.5,714.5 Z"/></g>
<g><path style="opacity:0.078" fill="#1a1a1a" d="M 854.5,713.5 C 854.167,714.833 853.833,716.167 853.5,717.5C 852.147,715.872 852.481,714.538 854.5,713.5 Z"/></g>
<g><path style="opacity:0.667" fill="#313131" d="M 1155.5,715.5 C 1156.71,715.932 1157.71,716.599 1158.5,717.5C 1156.82,717.715 1155.82,717.048 1155.5,715.5 Z"/></g>
<g><path style="opacity:0.651" fill="#373737" d="M 854.5,717.5 C 857.495,717.294 860.162,717.96 862.5,719.5C 859.572,719.435 856.905,718.768 854.5,717.5 Z"/></g>
<g><path style="opacity:0.157" fill="#2c2c2c" d="M 147.5,715.5 C 147.433,716.959 147.766,718.292 148.5,719.5C 147.414,719.38 146.747,718.713 146.5,717.5C 146.543,716.584 146.876,715.917 147.5,715.5 Z"/></g>
<g><path style="opacity:0.369" fill="#303030" d="M 155.5,720.5 C 158.781,720.42 161.781,721.087 164.5,722.5C 161.219,722.58 158.219,721.913 155.5,720.5 Z"/></g>
<g><path style="opacity:0.729" fill="#323232" d="M 1169.5,721.5 C 1171,721.989 1172.33,722.655 1173.5,723.5C 1171.52,723.843 1170.18,723.176 1169.5,721.5 Z"/></g>
<g><path style="opacity:0.212" fill="#282828" d="M 1182.5,726.5 C 1184.4,726.796 1186.07,727.463 1187.5,728.5C 1185.3,728.88 1183.64,728.213 1182.5,726.5 Z"/></g>
<g><path style="opacity:0.314" fill="#303030" d="M 1221.5,739.5 C 1223.79,739.595 1225.79,740.262 1227.5,741.5C 1225.1,741.741 1223.1,741.074 1221.5,739.5 Z"/></g>
<g><path style="opacity:0.4" fill="#2d2d2d" d="M 1232.5,742.5 C 1234.7,742.875 1236.7,743.542 1238.5,744.5C 1235.99,744.946 1233.99,744.28 1232.5,742.5 Z"/></g>
<g><path style="opacity:0.822" fill="#3e3e3e" d="M 1238.5,744.5 C 1240.79,744.595 1242.79,745.262 1244.5,746.5C 1241.99,746.946 1239.99,746.28 1238.5,744.5 Z"/></g>
<g><path style="opacity:0.857" fill="#404040" d="M 1038.5,747.5 C 1041.52,747.335 1044.52,747.502 1047.5,748C 1048.42,748.278 1049.08,748.778 1049.5,749.5C 1045.61,749.354 1041.95,748.687 1038.5,747.5 Z"/></g>
<g><path style="opacity:0.431" fill="#2c2c2c" d="M 538.5,747.5 C 543.356,748.544 548.022,749.877 552.5,751.5C 548.087,751.147 543.754,750.314 539.5,749C 538.944,748.617 538.611,748.117 538.5,747.5 Z"/></g>
<g><path style="opacity:0.431" fill="#303030" d="M 1254.5,748.5 C 1256.7,748.875 1258.7,749.542 1260.5,750.5C 1257.99,750.946 1255.99,750.28 1254.5,748.5 Z"/></g>
<g><path style="opacity:0.827" fill="#404040" d="M 1058.5,750.5 C 1062.49,750.116 1066.16,750.783 1069.5,752.5C 1065.64,752.192 1061.97,751.525 1058.5,750.5 Z"/></g>
<g><path style="opacity:0.518" fill="#303030" d="M 1269.5,752.5 C 1273.02,753.21 1276.36,754.21 1279.5,755.5C 1275.65,755.712 1272.32,754.712 1269.5,752.5 Z"/></g>
<g><path style="opacity:0.439" fill="#2f2f2f" d="M 561.5,753.5 C 563.698,753.875 565.698,754.542 567.5,755.5C 564.99,755.946 562.99,755.28 561.5,753.5 Z"/></g>
<g><path style="opacity:0.78" fill="#414141" d="M 1092.5,755.5 C 1097.1,755.28 1101.43,755.946 1105.5,757.5C 1100.95,757.376 1096.62,756.709 1092.5,755.5 Z"/></g>
<g><path style="opacity:0.686" fill="#303030" d="M 1291.5,759.5 C 1292.71,759.932 1293.71,760.599 1294.5,761.5C 1292.82,761.715 1291.82,761.048 1291.5,759.5 Z"/></g>
<g><path style="opacity:0.802" fill="#404040" d="M 432.5,763.5 C 436.817,763.083 440.817,763.75 444.5,765.5C 440.267,765.461 436.267,764.795 432.5,763.5 Z"/></g>
<g><path style="opacity:0.868" fill="#474747" d="M 479.5,770.5 C 480.793,769.842 482.293,769.508 484,769.5C 486.544,769.336 488.71,770.003 490.5,771.5C 486.821,771.276 483.154,770.942 479.5,770.5 Z"/></g>
<g><path style="opacity:0.655" fill="#3f3f3f" d="M 493.5,771.5 C 498.122,771.156 502.455,771.823 506.5,773.5C 501.972,773.23 497.639,772.563 493.5,771.5 Z"/></g>
<g><path style="opacity:0.672" fill="#3e3e3e" d="M 1211.5,771.5 C 1216.45,771.123 1221.12,771.789 1225.5,773.5C 1220.65,773.187 1215.98,772.521 1211.5,771.5 Z"/></g>
<g><path style="opacity:0.68" fill="#3d3d3d" d="M 535.5,776.5 C 540.783,776.096 545.783,776.762 550.5,778.5C 545.32,778.153 540.32,777.487 535.5,776.5 Z"/></g>
<g><path style="opacity:0.465" fill="#323232" d="M 1301.5,778.5 C 1299.95,779.794 1297.95,780.461 1295.5,780.5C 1293.3,780.495 1291.3,780.162 1289.5,779.5C 1293.6,779.763 1297.6,779.43 1301.5,778.5 Z"/></g>
</svg>
