<?xml version="1.0" encoding="UTF-8"?>
<!DOCTYPE svg PUBLIC "-//W3C//DTD SVG 1.1//EN" "http://www.w3.org/Graphics/SVG/1.1/DTD/svg11.dtd">
<svg xmlns="http://www.w3.org/2000/svg" version="1.1" width="2591px" height="1206px" style="shape-rendering:geometricPrecision; text-rendering:geometricPrecision; image-rendering:optimizeQuality; fill-rule:evenodd; clip-rule:evenodd" xmlns:xlink="http://www.w3.org/1999/xlink">
<g><path style="opacity:0.008" fill="#171717" d="M 2116.5,362.5 C 2119.09,363.419 2121.09,365.086 2122.5,367.5C 2119.91,366.581 2117.91,364.914 2116.5,362.5 Z"/></g>
<g><path style="opacity:0.396" fill="#1e1e1e" d="M 1407.5,364.5 C 1411.09,363.317 1413.75,364.65 1415.5,368.5C 1413.05,366.716 1410.39,365.382 1407.5,364.5 Z"/></g>
<g><path style="opacity:1" fill="#676767" d="M 2116.5,362.5 C 2117.91,364.914 2119.91,366.581 2122.5,367.5C 2124.83,369.167 2126.83,371.167 2128.5,373.5C 2129.58,375.587 2131.25,376.92 2133.5,377.5C 2135.17,378.5 2136.5,379.833 2137.5,381.5C 2138.26,383.262 2139.6,384.262 2141.5,384.5C 2142.5,384.833 2143.17,385.5 2143.5,386.5C 2144.17,387.833 2145.17,388.833 2146.5,389.5C 2150.8,392.463 2154.8,395.797 2158.5,399.5C 2159.26,401.262 2160.6,402.262 2162.5,402.5C 2163.5,402.833 2164.17,403.5 2164.5,404.5C 2165.03,406.446 2166.37,407.446 2168.5,407.5C 2169.5,407.833 2170.17,408.5 2170.5,409.5C 2171.03,411.446 2172.37,412.446 2174.5,412.5C 2175.83,413.167 2176.83,414.167 2177.5,415.5C 2177.97,416.906 2178.97,417.573 2180.5,417.5C 2181.5,417.833 2182.17,418.5 2182.5,419.5C 2182.97,420.906 2183.97,421.573 2185.5,421.5C 2186.5,421.833 2187.17,422.5 2187.5,423.5C 2187.97,424.906 2188.97,425.573 2190.5,425.5C 2191.5,425.833 2192.17,426.5 2192.5,427.5C 2192.97,428.906 2193.97,429.573 2195.5,429.5C 2196.17,429.5 2196.5,429.833 2196.5,430.5C 2196.97,431.906 2197.97,432.573 2199.5,432.5C 2200.17,432.5 2200.5,432.833 2200.5,433.5C 2200.97,434.906 2201.97,435.573 2203.5,435.5C 2203.97,436.906 2204.97,437.573 2206.5,437.5C 2206.97,438.906 2207.97,439.573 2209.5,439.5C 2209.97,440.906 2210.97,441.573 2212.5,441.5C 2218.3,444.233 2223.96,447.233 2229.5,450.5C 2230.66,452.25 2232.33,453.25 2234.5,453.5C 2246.09,458.582 2257.76,463.248 2269.5,467.5C 2270.78,468.931 2272.45,469.598 2274.5,469.5C 2276.86,469.674 2279.19,470.007 2281.5,470.5C 2282.99,472.28 2284.99,472.946 2287.5,472.5C 2291.34,472.417 2295,473.083 2298.5,474.5C 2306.26,476.269 2314.26,476.935 2322.5,476.5C 2331.85,476.023 2341.18,475.356 2350.5,474.5C 2354.16,474.277 2357.5,473.277 2360.5,471.5C 2364.71,471.323 2368.37,469.99 2371.5,467.5C 2374.72,467.655 2377.38,466.655 2379.5,464.5C 2383.08,464.708 2385.75,463.375 2387.5,460.5C 2387.83,460.5 2388.17,460.5 2388.5,460.5C 2390.85,460.408 2392.51,459.408 2393.5,457.5C 2393.84,456.662 2394.51,456.328 2395.5,456.5C 2397.03,456.573 2398.03,455.906 2398.5,454.5C 2398.84,453.662 2399.51,453.328 2400.5,453.5C 2402.03,453.573 2403.03,452.906 2403.5,451.5C 2405.4,451.262 2406.74,450.262 2407.5,448.5C 2409.4,448.262 2410.74,447.262 2411.5,445.5C 2413.4,445.262 2414.74,444.262 2415.5,442.5C 2416.83,441.833 2417.83,440.833 2418.5,439.5C 2422.1,437.57 2425.1,434.903 2427.5,431.5C 2429.14,429.919 2431.14,429.253 2433.5,429.5C 2433.97,430.906 2434.97,431.573 2436.5,431.5C 2437.17,431.5 2437.5,431.833 2437.5,432.5C 2439.5,435.167 2441.83,437.5 2444.5,439.5C 2445.91,439.973 2446.57,440.973 2446.5,442.5C 2446.83,443.5 2447.5,444.167 2448.5,444.5C 2448.43,446.027 2449.09,447.027 2450.5,447.5C 2450.43,449.027 2451.09,450.027 2452.5,450.5C 2452.43,452.027 2453.09,453.027 2454.5,453.5C 2455.34,453.842 2455.67,454.508 2455.5,455.5C 2455.43,457.027 2456.09,458.027 2457.5,458.5C 2457.43,460.027 2458.09,461.027 2459.5,461.5C 2460.67,462.514 2461.34,463.847 2461.5,465.5C 2461.43,467.027 2462.09,468.027 2463.5,468.5C 2467.62,475.067 2470.95,482.067 2473.5,489.5C 2473.17,492.491 2474.17,494.824 2476.5,496.5C 2476.12,498.698 2476.79,500.365 2478.5,501.5C 2478.5,501.833 2478.5,502.167 2478.5,502.5C 2478.12,504.698 2478.79,506.365 2480.5,507.5C 2480.5,507.833 2480.5,508.167 2480.5,508.5C 2480.05,511.01 2480.72,513.01 2482.5,514.5C 2483.9,518.381 2484.9,522.381 2485.5,526.5C 2485.17,529.228 2485.84,531.562 2487.5,533.5C 2488.67,537.042 2489.34,540.709 2489.5,544.5C 2489.57,547.428 2490.23,550.095 2491.5,552.5C 2493.12,557.256 2494.12,562.256 2494.5,567.5C 2494.29,570.495 2494.96,573.162 2496.5,575.5C 2498.08,581.754 2499.42,588.087 2500.5,594.5C 2500.17,597.228 2500.84,599.562 2502.5,601.5C 2502.5,601.833 2502.5,602.167 2502.5,602.5C 2502.41,605.152 2503.08,607.485 2504.5,609.5C 2506.4,612.979 2508.07,616.646 2509.5,620.5C 2509.43,622.027 2510.09,623.027 2511.5,623.5C 2511.97,624.906 2512.97,625.573 2514.5,625.5C 2516.17,625.5 2517.83,625.5 2519.5,625.5C 2520.43,647.147 2520.77,668.814 2520.5,690.5C 2521.14,713.73 2520.47,736.73 2518.5,759.5C 2401.95,768.715 2285.28,777.048 2168.5,784.5C 2162.82,784.334 2157.16,784.501 2151.5,785C 2150.26,785.232 2149.26,785.732 2148.5,786.5C 2128.18,788.01 2107.85,789.343 2087.5,790.5C 2081.16,790.334 2074.82,790.5 2068.5,791C 2066.94,791.21 2065.61,791.71 2064.5,792.5C 2053.86,793.546 2043.2,794.212 2032.5,794.5C 2029.15,794.335 2025.82,794.502 2022.5,795C 2021.94,795.383 2021.61,795.883 2021.5,796.5C 2017.34,797.119 2013.17,797.785 2009,798.5C 2007.3,798.613 2006.13,797.947 2005.5,796.5C 2005.97,793.607 2004.97,791.607 2002.5,790.5C 2002.57,788.973 2001.91,787.973 2000.5,787.5C 1999.5,787.167 1998.83,786.5 1998.5,785.5C 1996.17,781.167 1992.83,777.833 1988.5,775.5C 1987.74,773.738 1986.4,772.738 1984.5,772.5C 1984.03,771.094 1983.03,770.427 1981.5,770.5C 1980.74,768.738 1979.4,767.738 1977.5,767.5C 1975.85,767.34 1974.51,766.674 1973.5,765.5C 1973.03,764.094 1972.03,763.427 1970.5,763.5C 1968.72,763.107 1967.05,762.441 1965.5,761.5C 1964.71,759.896 1963.38,759.229 1961.5,759.5C 1955.75,757.361 1950.08,755.027 1944.5,752.5C 1942.5,750.018 1939.83,749.018 1936.5,749.5C 1933.92,747.528 1930.92,746.528 1927.5,746.5C 1925.71,746.634 1924.04,746.301 1922.5,745.5C 1918.21,743.256 1913.54,741.923 1908.5,741.5C 1896.97,739.912 1885.63,737.912 1874.5,735.5C 1868.06,733.961 1861.4,733.294 1854.5,733.5C 1818.83,732.33 1783.16,732.663 1747.5,734.5C 1636,732.357 1524.5,730.357 1413,728.5C 1398.17,728.667 1383.33,728.833 1368.5,729C 1364.43,729.114 1360.76,730.28 1357.5,732.5C 1356.01,733.312 1355.34,734.645 1355.5,736.5C 1355.52,737.726 1355.85,738.726 1356.5,739.5C 1358.73,752.524 1361.06,765.524 1363.5,778.5C 1363.5,780.167 1363.5,781.833 1363.5,783.5C 1358.19,782.902 1352.85,782.569 1347.5,782.5C 1346.5,782.5 1345.5,782.5 1344.5,782.5C 1340.41,781.105 1336.08,780.272 1331.5,780C 1323.17,779.5 1314.84,779.334 1306.5,779.5C 1306.81,775.629 1306.48,771.962 1305.5,768.5C 1304.66,768.158 1304.33,767.492 1304.5,766.5C 1304.71,764.821 1304.05,763.821 1302.5,763.5C 1302.17,761.167 1300.83,759.833 1298.5,759.5C 1298.03,758.094 1297.03,757.427 1295.5,757.5C 1295.03,756.094 1294.03,755.427 1292.5,755.5C 1290.3,755.396 1288.3,754.73 1286.5,753.5C 1284.38,751.345 1281.72,750.345 1278.5,750.5C 1276.59,750.784 1274.92,750.451 1273.5,749.5C 1269.84,747.658 1265.84,746.658 1261.5,746.5C 1259.9,746.768 1258.57,746.434 1257.5,745.5C 1255.16,743.96 1252.5,743.294 1249.5,743.5C 1247.21,743.405 1245.21,742.738 1243.5,741.5C 1240.2,739.517 1236.53,738.517 1232.5,738.5C 1229.92,736.528 1226.92,735.528 1223.5,735.5C 1220.93,735.279 1218.6,734.612 1216.5,733.5C 1214.9,731.926 1212.9,731.259 1210.5,731.5C 1210.17,731.5 1209.83,731.5 1209.5,731.5C 1208.36,729.787 1206.7,729.12 1204.5,729.5C 1198.03,727.898 1191.7,725.898 1185.5,723.5C 1184.36,721.787 1182.7,721.12 1180.5,721.5C 1172.36,719.459 1164.7,716.459 1157.5,712.5C 1156.82,710.824 1155.48,710.157 1153.5,710.5C 1134.14,702.989 1115.14,694.656 1096.5,685.5C 1096.03,684.094 1095.03,683.427 1093.5,683.5C 1086.53,681.011 1079.86,678.011 1073.5,674.5C 1073.03,673.094 1072.03,672.427 1070.5,672.5C 1060.65,668.403 1050.98,664.07 1041.5,659.5C 1039.82,657.166 1037.49,656.166 1034.5,656.5C 1032.6,656.204 1030.93,655.537 1029.5,654.5C 1028.36,652.787 1026.7,652.12 1024.5,652.5C 1020.43,651.644 1016.43,650.477 1012.5,649C 1011.03,648.29 1010.36,647.124 1010.5,645.5C 1013.57,645.127 1016.57,644.461 1019.5,643.5C 1022.15,643.59 1024.49,642.924 1026.5,641.5C 1034.56,639.316 1042.56,636.816 1050.5,634C 1051.06,633.617 1051.39,633.117 1051.5,632.5C 1055.71,632.323 1059.37,630.99 1062.5,628.5C 1065.01,628.946 1067.01,628.28 1068.5,626.5C 1070.7,626.88 1072.36,626.213 1073.5,624.5C 1075.3,623.27 1077.3,622.604 1079.5,622.5C 1084.7,621.991 1089.37,620.324 1093.5,617.5C 1095.9,617.741 1097.9,617.074 1099.5,615.5C 1102.72,615.655 1105.38,614.655 1107.5,612.5C 1111.71,612.323 1115.37,610.99 1118.5,608.5C 1121.72,608.655 1124.38,607.655 1126.5,605.5C 1130.71,605.323 1134.37,603.99 1137.5,601.5C 1140.01,601.946 1142.01,601.28 1143.5,599.5C 1146.72,599.655 1149.38,598.655 1151.5,596.5C 1152.93,595.463 1154.6,594.796 1156.5,594.5C 1160.71,594.323 1164.37,592.99 1167.5,590.5C 1170.72,590.655 1173.38,589.655 1175.5,587.5C 1179.06,585.884 1182.73,584.551 1186.5,583.5C 1188.7,583.88 1190.36,583.213 1191.5,581.5C 1193.3,580.27 1195.3,579.604 1197.5,579.5C 1225.81,578.533 1254.14,578.2 1282.5,578.5C 1289.51,578.334 1296.51,578.5 1303.5,579C 1304.79,580.292 1304.79,581.458 1303.5,582.5C 1301.97,582.427 1300.97,583.094 1300.5,584.5C 1297.86,586.804 1295.19,589.138 1292.5,591.5C 1290.25,592.08 1288.58,593.413 1287.5,595.5C 1287.5,596.167 1287.17,596.5 1286.5,596.5C 1284.41,597.585 1283.08,599.251 1282.5,601.5C 1282.17,602.5 1281.5,603.167 1280.5,603.5C 1278.74,604.262 1277.74,605.596 1277.5,607.5C 1276.74,609.368 1275.74,611.035 1274.5,612.5C 1273.03,614.117 1272.36,616.117 1272.5,618.5C 1272.51,620.045 1272.84,621.378 1273.5,622.5C 1273.5,623.167 1273.5,623.833 1273.5,624.5C 1273.05,627.01 1273.72,629.01 1275.5,630.5C 1279.89,640.948 1284.56,651.281 1289.5,661.5C 1289.43,663.027 1290.09,664.027 1291.5,664.5C 1292.67,665.514 1293.34,666.847 1293.5,668.5C 1293.43,670.027 1294.09,671.027 1295.5,671.5C 1296.34,671.842 1296.67,672.508 1296.5,673.5C 1296.43,675.027 1297.09,676.027 1298.5,676.5C 1303.37,677.789 1308.04,677.123 1312.5,674.5C 1313.57,673.566 1314.9,673.232 1316.5,673.5C 1319.92,673.472 1322.92,672.472 1325.5,670.5C 1329.53,670.483 1333.2,669.483 1336.5,667.5C 1337.57,666.566 1338.9,666.232 1340.5,666.5C 1343.15,666.59 1345.49,665.924 1347.5,664.5C 1351.55,662.74 1355.88,661.74 1360.5,661.5C 1363.15,661.59 1365.49,660.924 1367.5,659.5C 1374.06,657.788 1380.73,656.454 1387.5,655.5C 1390.78,655.58 1393.78,654.913 1396.5,653.5C 1400.94,652.01 1405.61,651.01 1410.5,650.5C 1413.43,650.435 1416.09,649.768 1418.5,648.5C 1422.24,646.898 1426.24,645.898 1430.5,645.5C 1434.16,645.277 1437.5,644.277 1440.5,642.5C 1443.15,642.59 1445.49,641.924 1447.5,640.5C 1453.17,639.61 1458.5,637.943 1463.5,635.5C 1466.72,635.655 1469.38,634.655 1471.5,632.5C 1476.35,630.66 1481.35,628.993 1486.5,627.5C 1491.7,626.991 1496.37,625.324 1500.5,622.5C 1504.71,622.323 1508.37,620.99 1511.5,618.5C 1511.83,618.5 1512.17,618.5 1512.5,618.5C 1514.15,618.34 1515.49,617.674 1516.5,616.5C 1519.72,616.655 1522.38,615.655 1524.5,613.5C 1527.49,613.834 1529.82,612.834 1531.5,610.5C 1531.84,609.662 1532.51,609.328 1533.5,609.5C 1537.16,609.498 1540.16,608.165 1542.5,605.5C 1545.49,605.834 1547.82,604.834 1549.5,602.5C 1552.49,602.834 1554.82,601.834 1556.5,599.5C 1562.43,596.073 1568.76,593.406 1575.5,591.5C 1578.49,591.834 1580.82,590.834 1582.5,588.5C 1583.93,587.463 1585.6,586.796 1587.5,586.5C 1590.49,586.834 1592.82,585.834 1594.5,583.5C 1597.72,583.655 1600.38,582.655 1602.5,580.5C 1603.93,579.463 1605.6,578.796 1607.5,578.5C 1610.49,578.834 1612.82,577.834 1614.5,575.5C 1617.74,573.049 1621.41,571.382 1625.5,570.5C 1627.97,570.245 1629.97,569.245 1631.5,567.5C 1631.84,566.662 1632.51,566.328 1633.5,566.5C 1634.87,566.657 1636.21,566.49 1637.5,566C 1639.43,565.098 1641.1,563.931 1642.5,562.5C 1650.64,558.263 1658.98,554.263 1667.5,550.5C 1671.84,550.163 1675.5,548.496 1678.5,545.5C 1681.49,545.834 1683.82,544.834 1685.5,542.5C 1687.51,540.935 1689.84,539.935 1692.5,539.5C 1695.48,539.818 1697.81,538.818 1699.5,536.5C 1702.49,536.834 1704.82,535.834 1706.5,533.5C 1708.7,533.88 1710.36,533.213 1711.5,531.5C 1714.54,529.654 1717.87,528.321 1721.5,527.5C 1724.49,527.834 1726.82,526.834 1728.5,524.5C 1733.85,521.6 1739.51,519.267 1745.5,517.5C 1748.49,517.834 1750.82,516.834 1752.5,514.5C 1753.93,513.463 1755.6,512.796 1757.5,512.5C 1760.49,512.834 1762.82,511.834 1764.5,509.5C 1766.65,508.264 1768.98,507.264 1771.5,506.5C 1774.49,506.834 1776.82,505.834 1778.5,503.5C 1779.93,502.463 1781.6,501.796 1783.5,501.5C 1787.16,501.498 1790.16,500.165 1792.5,497.5C 1793.93,496.463 1795.6,495.796 1797.5,495.5C 1800.49,495.834 1802.82,494.834 1804.5,492.5C 1805.93,491.463 1807.6,490.796 1809.5,490.5C 1813.16,490.498 1816.16,489.165 1818.5,486.5C 1819.93,485.463 1821.6,484.796 1823.5,484.5C 1826.49,484.834 1828.82,483.834 1830.5,481.5C 1831.93,480.463 1833.6,479.796 1835.5,479.5C 1838.49,479.834 1840.82,478.834 1842.5,476.5C 1844.21,475.262 1846.21,474.595 1848.5,474.5C 1850.15,474.34 1851.49,473.674 1852.5,472.5C 1855.49,472.834 1857.82,471.834 1859.5,469.5C 1859.83,469.5 1860.17,469.5 1860.5,469.5C 1862.15,469.34 1863.49,468.674 1864.5,467.5C 1867.49,467.834 1869.82,466.834 1871.5,464.5C 1874.49,464.834 1876.82,463.834 1878.5,461.5C 1879.93,460.463 1881.6,459.796 1883.5,459.5C 1886.48,459.818 1888.81,458.818 1890.5,456.5C 1893.54,454.654 1896.87,453.321 1900.5,452.5C 1904.16,452.498 1907.16,451.165 1909.5,448.5C 1911.7,448.88 1913.36,448.213 1914.5,446.5C 1915.93,445.463 1917.6,444.796 1919.5,444.5C 1922.72,444.655 1925.38,443.655 1927.5,441.5C 1930.8,439.399 1934.46,438.065 1938.5,437.5C 1941.27,437.241 1943.61,436.241 1945.5,434.5C 1946.93,433.463 1948.6,432.796 1950.5,432.5C 1952.7,432.88 1954.36,432.213 1955.5,430.5C 1958.8,428.399 1962.46,427.065 1966.5,426.5C 1968.15,426.34 1969.49,425.674 1970.5,424.5C 1974.36,424.23 1977.69,422.897 1980.5,420.5C 1985.03,419.895 1989.03,418.228 1992.5,415.5C 1993.78,414.069 1995.45,413.402 1997.5,413.5C 2000.72,413.655 2003.38,412.655 2005.5,410.5C 2007.7,410.88 2009.36,410.213 2010.5,408.5C 2014.71,408.323 2018.37,406.99 2021.5,404.5C 2024.01,404.946 2026.01,404.28 2027.5,402.5C 2030.72,402.655 2033.38,401.655 2035.5,399.5C 2036.78,398.069 2038.45,397.402 2040.5,397.5C 2044.36,397.23 2047.69,395.897 2050.5,393.5C 2054.16,393.498 2057.16,392.165 2059.5,389.5C 2062.49,389.834 2064.82,388.834 2066.5,386.5C 2068.65,385.264 2070.98,384.264 2073.5,383.5C 2076.49,383.834 2078.82,382.834 2080.5,380.5C 2080.84,379.662 2081.51,379.328 2082.5,379.5C 2085.31,379.975 2087.31,378.975 2088.5,376.5C 2094.64,373.263 2100.98,370.263 2107.5,367.5C 2109.03,367.573 2110.03,366.906 2110.5,365.5C 2112.03,365.573 2113.03,364.906 2113.5,363.5C 2114.21,362.596 2115.21,362.263 2116.5,362.5 Z"/></g>
<g><path style="opacity:1" fill="#666666" d="M 1407.5,364.5 C 1410.39,365.382 1413.05,366.716 1415.5,368.5C 1417.83,370.167 1419.83,372.167 1421.5,374.5C 1422.91,376.914 1424.91,378.581 1427.5,379.5C 1428.83,380.167 1429.83,381.167 1430.5,382.5C 1431.58,384.587 1433.25,385.92 1435.5,386.5C 1436.83,387.167 1437.83,388.167 1438.5,389.5C 1439.26,391.262 1440.6,392.262 1442.5,392.5C 1444.17,393.5 1445.5,394.833 1446.5,396.5C 1446.97,397.906 1447.97,398.573 1449.5,398.5C 1450.83,399.167 1451.83,400.167 1452.5,401.5C 1453.26,403.262 1454.6,404.262 1456.5,404.5C 1457.5,404.833 1458.17,405.5 1458.5,406.5C 1459.26,408.262 1460.6,409.262 1462.5,409.5C 1463.5,409.833 1464.17,410.5 1464.5,411.5C 1465.26,413.262 1466.6,414.262 1468.5,414.5C 1469.5,414.833 1470.17,415.5 1470.5,416.5C 1471.26,418.262 1472.6,419.262 1474.5,419.5C 1475.83,420.167 1476.83,421.167 1477.5,422.5C 1478.58,424.587 1480.25,425.92 1482.5,426.5C 1483.5,426.833 1484.17,427.5 1484.5,428.5C 1485.17,430.167 1485.83,431.833 1486.5,433.5C 1473.03,439.964 1460.03,447.297 1447.5,455.5C 1445.97,455.427 1444.97,456.094 1444.5,457.5C 1443.83,458.833 1442.83,459.833 1441.5,460.5C 1440.17,461.167 1439.17,462.167 1438.5,463.5C 1426.24,465.773 1413.91,467.94 1401.5,470C 1390.87,472.817 1380.87,476.984 1371.5,482.5C 1369.97,482.427 1368.97,483.094 1368.5,484.5C 1368.03,485.906 1367.03,486.573 1365.5,486.5C 1364.5,486.833 1363.83,487.5 1363.5,488.5C 1355.12,499.862 1343.78,505.529 1329.5,505.5C 1326.45,505.111 1323.78,505.777 1321.5,507.5C 1311.72,509.862 1302.05,512.696 1292.5,516C 1286.67,518.08 1281.34,520.913 1276.5,524.5C 1274.97,524.427 1273.97,525.094 1273.5,526.5C 1261.31,533.306 1248.64,539.473 1235.5,545C 1219.1,547.951 1202.77,551.285 1186.5,555C 1167.11,562.861 1148.11,571.528 1129.5,581C 1105.74,587.622 1085.41,599.788 1068.5,617.5C 1066.97,617.427 1065.97,618.094 1065.5,619.5C 1063.78,622.219 1061.45,624.219 1058.5,625.5C 1056.97,625.427 1055.97,626.094 1055.5,627.5C 1038.98,633.397 1022.31,639.231 1005.5,645C 994.448,643.278 983.282,642.111 972,641.5C 962.254,641.545 952.754,643.045 943.5,646C 935.812,649.512 928.145,653.012 920.5,656.5C 918.973,656.427 917.973,657.094 917.5,658.5C 906.533,664.652 895.866,671.319 885.5,678.5C 883.973,678.427 882.973,679.094 882.5,680.5C 882.167,681.5 881.5,682.167 880.5,682.5C 878.973,682.427 877.973,683.094 877.5,684.5C 876.167,686.5 874.5,688.167 872.5,689.5C 870.251,690.08 868.585,691.413 867.5,693.5C 864.167,697.5 860.5,701.167 856.5,704.5C 854.738,705.262 853.738,706.596 853.5,708.5C 850.268,716.299 844.602,718.632 836.5,715.5C 832.683,717.241 829.017,719.241 825.5,721.5C 823.973,721.427 822.973,722.094 822.5,723.5C 820.5,726.167 818.167,728.5 815.5,730.5C 803.833,730.5 792.167,730.5 780.5,730.5C 741.501,729.797 702.501,729.63 663.5,730C 658.678,729.778 654.511,731.278 651,734.5C 650.727,736.101 650.227,737.601 649.5,739C 650.444,741.719 650.777,744.552 650.5,747.5C 650.044,752.596 651.044,757.262 653.5,761.5C 654.885,767.091 655.885,772.757 656.5,778.5C 656.5,780.5 656.5,782.5 656.5,784.5C 650.171,784.1 643.838,783.767 637.5,783.5C 632.473,783.497 627.473,783.164 622.5,782.5C 615.018,781.508 607.352,781.175 599.5,781.5C 599.5,780.167 599.5,778.833 599.5,777.5C 599.426,773.206 598.426,769.206 596.5,765.5C 595.833,762.833 594.167,761.167 591.5,760.5C 590.508,760.672 589.842,760.338 589.5,759.5C 589.027,758.094 588.027,757.427 586.5,757.5C 584.716,757.107 583.05,756.441 581.5,755.5C 579.383,753.345 576.716,752.345 573.5,752.5C 563.591,751.053 553.925,748.719 544.5,745.5C 542.898,743.926 540.898,743.259 538.5,743.5C 538.167,743.5 537.833,743.5 537.5,743.5C 534.916,741.528 531.916,740.528 528.5,740.5C 526.901,740.768 525.568,740.434 524.5,739.5C 522.898,737.926 520.898,737.259 518.5,737.5C 516.214,737.405 514.214,736.738 512.5,735.5C 510.562,733.837 508.228,733.171 505.5,733.5C 503.898,731.926 501.898,731.259 499.5,731.5C 493.029,729.898 486.696,727.898 480.5,725.5C 478.497,723.018 475.831,722.018 472.5,722.5C 470.297,722.396 468.297,721.73 466.5,720.5C 464.824,718.166 462.491,717.166 459.5,717.5C 439.226,709.411 419.226,700.744 399.5,691.5C 398.817,689.824 397.483,689.157 395.5,689.5C 382.587,684.044 369.92,678.044 357.5,671.5C 356.817,669.824 355.483,669.157 353.5,669.5C 345.86,666.677 338.527,663.344 331.5,659.5C 329.824,657.166 327.491,656.166 324.5,656.5C 317.107,654.596 310.107,651.929 303.5,648.5C 303.957,647.702 304.624,647.369 305.5,647.5C 308.152,647.59 310.485,646.924 312.5,645.5C 321.556,642.982 330.556,640.149 339.5,637C 340.056,636.617 340.389,636.117 340.5,635.5C 342.421,634.637 344.421,633.971 346.5,633.5C 351.703,632.991 356.37,631.324 360.5,628.5C 363.716,628.655 366.383,627.655 368.5,625.5C 370.421,624.637 372.421,623.971 374.5,623.5C 376.898,623.741 378.898,623.074 380.5,621.5C 387.56,618.314 394.893,615.647 402.5,613.5C 405.716,613.655 408.383,612.655 410.5,610.5C 414.708,610.323 418.374,608.99 421.5,606.5C 424.716,606.655 427.383,605.655 429.5,603.5C 433.054,601.891 436.721,600.558 440.5,599.5C 443.716,599.655 446.383,598.655 448.5,596.5C 451.01,596.946 453.01,596.28 454.5,594.5C 457.716,594.655 460.383,593.655 462.5,591.5C 465.716,591.655 468.383,590.655 470.5,588.5C 473.716,588.655 476.383,587.655 478.5,585.5C 482.708,585.323 486.374,583.99 489.5,581.5C 524.809,580.526 560.142,580.193 595.5,580.5C 597.048,580.821 597.715,581.821 597.5,583.5C 595.973,583.427 594.973,584.094 594.5,585.5C 594.027,586.906 593.027,587.573 591.5,587.5C 590.5,587.833 589.833,588.5 589.5,589.5C 588.833,590.833 587.833,591.833 586.5,592.5C 584.596,592.738 583.262,593.738 582.5,595.5C 581.5,597.167 580.167,598.5 578.5,599.5C 576.738,600.262 575.738,601.596 575.5,603.5C 568.415,610.423 565.748,618.756 567.5,628.5C 567.054,631.01 567.72,633.01 569.5,634.5C 573.011,640.861 576.011,647.528 578.5,654.5C 578.427,656.027 579.094,657.027 580.5,657.5C 581.931,658.78 582.598,660.447 582.5,662.5C 582.427,664.027 583.094,665.027 584.5,665.5C 585.674,666.514 586.34,667.847 586.5,669.5C 586.427,671.027 587.094,672.027 588.5,672.5C 588.427,674.027 589.094,675.027 590.5,675.5C 591.223,677.213 592.557,678.213 594.5,678.5C 596.453,677.844 598.453,677.511 600.5,677.5C 605.529,677.08 610.195,675.746 614.5,673.5C 615.568,672.566 616.901,672.232 618.5,672.5C 623.165,671.943 627.498,670.61 631.5,668.5C 633.905,667.232 636.572,666.565 639.5,666.5C 643.479,666.258 647.146,665.258 650.5,663.5C 653.589,662.215 656.922,661.549 660.5,661.5C 663.428,661.435 666.095,660.768 668.5,659.5C 673.256,657.882 678.256,656.882 683.5,656.5C 688.12,656.26 692.453,655.26 696.5,653.5C 700.921,651.898 705.588,650.898 710.5,650.5C 714.479,650.258 718.146,649.258 721.5,647.5C 723.905,646.232 726.572,645.565 729.5,645.5C 734.165,644.943 738.498,643.61 742.5,641.5C 746.915,641.139 750.915,639.806 754.5,637.5C 755.568,636.566 756.901,636.232 758.5,636.5C 762.708,636.323 766.374,634.99 769.5,632.5C 772.152,632.59 774.485,631.924 776.5,630.5C 777.93,629.463 779.597,628.796 781.5,628.5C 784.716,628.655 787.383,627.655 789.5,625.5C 791.421,624.637 793.421,623.971 795.5,623.5C 797.698,623.88 799.365,623.213 800.5,621.5C 804.708,621.323 808.374,619.99 811.5,617.5C 814.491,617.834 816.824,616.834 818.5,614.5C 822.866,611.988 827.533,609.988 832.5,608.5C 835.491,608.834 837.824,607.834 839.5,605.5C 841.509,603.935 843.843,602.935 846.5,602.5C 850.165,602.498 853.165,601.165 855.5,598.5C 856.93,597.463 858.597,596.796 860.5,596.5C 863.491,596.834 865.824,595.834 867.5,593.5C 868.93,592.463 870.597,591.796 872.5,591.5C 875.491,591.834 877.824,590.834 879.5,588.5C 880.93,587.463 882.597,586.796 884.5,586.5C 887.491,586.834 889.824,585.834 891.5,583.5C 893.701,582.434 896.035,581.767 898.5,581.5C 900.967,581.245 902.967,580.245 904.5,578.5C 904.842,577.662 905.508,577.328 906.5,577.5C 909.313,577.975 911.313,576.975 912.5,574.5C 915.491,574.834 917.824,573.834 919.5,571.5C 919.842,570.662 920.508,570.328 921.5,570.5C 925.836,570.163 929.503,568.496 932.5,565.5C 935.491,565.834 937.824,564.834 939.5,562.5C 940.78,561.069 942.447,560.402 944.5,560.5C 946.819,560.008 948.819,559.008 950.5,557.5C 952.181,555.992 954.181,554.992 956.5,554.5C 958.027,554.573 959.027,553.906 959.5,552.5C 965.196,549.322 971.196,546.656 977.5,544.5C 980.491,544.834 982.824,543.834 984.5,541.5C 985.93,540.463 987.597,539.796 989.5,539.5C 992.491,539.834 994.824,538.834 996.5,536.5C 999.491,536.834 1001.82,535.834 1003.5,533.5C 1003.83,533.5 1004.17,533.5 1004.5,533.5C 1006.15,533.34 1007.49,532.674 1008.5,531.5C 1015.54,527.988 1022.87,524.988 1030.5,522.5C 1033.49,522.834 1035.82,521.834 1037.5,519.5C 1038.93,518.463 1040.6,517.796 1042.5,517.5C 1045.49,517.834 1047.82,516.834 1049.5,514.5C 1050.93,513.463 1052.6,512.796 1054.5,512.5C 1058.16,512.498 1061.16,511.165 1063.5,508.5C 1064.93,507.463 1066.6,506.796 1068.5,506.5C 1071.49,506.834 1073.82,505.834 1075.5,503.5C 1076.93,502.463 1078.6,501.796 1080.5,501.5C 1084.16,501.498 1087.16,500.165 1089.5,497.5C 1090.93,496.463 1092.6,495.796 1094.5,495.5C 1098.16,495.498 1101.16,494.165 1103.5,491.5C 1105.7,491.88 1107.36,491.213 1108.5,489.5C 1112.36,489.23 1115.69,487.897 1118.5,485.5C 1122.16,485.498 1125.16,484.165 1127.5,481.5C 1130.55,479.648 1133.88,478.314 1137.5,477.5C 1140.49,477.834 1142.82,476.834 1144.5,474.5C 1145.78,473.069 1147.45,472.402 1149.5,472.5C 1152.49,472.834 1154.82,471.834 1156.5,469.5C 1157.78,468.069 1159.45,467.402 1161.5,467.5C 1164.49,467.834 1166.82,466.834 1168.5,464.5C 1168.83,464.5 1169.17,464.5 1169.5,464.5C 1171.15,464.34 1172.49,463.674 1173.5,462.5C 1176.49,462.834 1178.82,461.834 1180.5,459.5C 1184.2,457.321 1188.2,455.655 1192.5,454.5C 1195.49,454.834 1197.82,453.834 1199.5,451.5C 1202.54,449.654 1205.87,448.321 1209.5,447.5C 1213.36,447.23 1216.69,445.897 1219.5,443.5C 1220.93,442.463 1222.6,441.796 1224.5,441.5C 1228.55,440.65 1232.55,439.484 1236.5,438C 1237.06,437.617 1237.39,437.117 1237.5,436.5C 1240.54,434.654 1243.87,433.321 1247.5,432.5C 1249.7,432.88 1251.36,432.213 1252.5,430.5C 1253.93,429.463 1255.6,428.796 1257.5,428.5C 1260.72,428.655 1263.38,427.655 1265.5,425.5C 1269.16,425.498 1272.16,424.165 1274.5,421.5C 1276.7,421.88 1278.36,421.213 1279.5,419.5C 1282.54,417.654 1285.87,416.321 1289.5,415.5C 1291.7,415.88 1293.36,415.213 1294.5,413.5C 1298.71,413.323 1302.37,411.99 1305.5,409.5C 1310.7,408.991 1315.37,407.324 1319.5,404.5C 1320.93,403.463 1322.6,402.796 1324.5,402.5C 1327.72,402.655 1330.38,401.655 1332.5,399.5C 1335.52,397.6 1338.85,396.267 1342.5,395.5C 1345.48,395.818 1347.81,394.818 1349.5,392.5C 1350.93,391.463 1352.6,390.796 1354.5,390.5C 1355.87,390.657 1357.21,390.49 1358.5,390C 1360.43,389.098 1362.1,387.931 1363.5,386.5C 1366.49,386.834 1368.82,385.834 1370.5,383.5C 1377.53,379.656 1384.86,376.323 1392.5,373.5C 1394.03,373.573 1395.03,372.906 1395.5,371.5C 1397.18,369.992 1399.18,368.992 1401.5,368.5C 1403.03,368.573 1404.03,367.906 1404.5,366.5C 1406.03,366.573 1407.03,365.906 1407.5,364.5 Z"/></g>
<g><path style="opacity:0.443" fill="#232323" d="M 2113.5,363.5 C 2113.03,364.906 2112.03,365.573 2110.5,365.5C 2110.97,364.094 2111.97,363.427 2113.5,363.5 Z"/></g>
<g><path style="opacity:0.392" fill="#1b1b1b" d="M 1407.5,364.5 C 1407.03,365.906 1406.03,366.573 1404.5,366.5C 1404.97,365.094 1405.97,364.427 1407.5,364.5 Z"/></g>
<g><path style="opacity:0.498" fill="#1f1f1f" d="M 2110.5,365.5 C 2110.03,366.906 2109.03,367.573 2107.5,367.5C 2107.97,366.094 2108.97,365.427 2110.5,365.5 Z"/></g>
<g><path style="opacity:0.404" fill="#171717" d="M 1404.5,366.5 C 1404.03,367.906 1403.03,368.573 1401.5,368.5C 1401.97,367.094 1402.97,366.427 1404.5,366.5 Z"/></g>
<g><path style="opacity:0.518" fill="#232323" d="M 1395.5,371.5 C 1395.03,372.906 1394.03,373.573 1392.5,373.5C 1392.97,372.094 1393.97,371.427 1395.5,371.5 Z"/></g>
<g><path style="opacity:0.016" fill="#181818" d="M 2128.5,373.5 C 2130.75,374.08 2132.42,375.413 2133.5,377.5C 2131.25,376.92 2129.58,375.587 2128.5,373.5 Z"/></g>
<g><path style="opacity:0.004" fill="#131313" d="M 1421.5,374.5 C 1424.09,375.419 1426.09,377.086 1427.5,379.5C 1424.91,378.581 1422.91,376.914 1421.5,374.5 Z"/></g>
<g><path style="opacity:0.929" fill="#373737" d="M 2088.5,376.5 C 2087.31,378.975 2085.31,379.975 2082.5,379.5C 2084.46,378.508 2086.46,377.508 2088.5,376.5 Z"/></g>
<g><path style="opacity:0.016" fill="#151515" d="M 2137.5,381.5 C 2139.4,381.738 2140.74,382.738 2141.5,384.5C 2139.6,384.262 2138.26,383.262 2137.5,381.5 Z"/></g>
<g><path style="opacity:0.004" fill="#131313" d="M 1430.5,382.5 C 1432.75,383.08 1434.42,384.413 1435.5,386.5C 1433.25,385.92 1431.58,384.587 1430.5,382.5 Z"/></g>
<g><path style="opacity:0.898" fill="#3a3a3a" d="M 2080.5,380.5 C 2078.82,382.834 2076.49,383.834 2073.5,383.5C 2075.51,381.935 2077.84,380.935 2080.5,380.5 Z"/></g>
<g><path style="opacity:0.914" fill="#3a3a3a" d="M 1370.5,383.5 C 1368.82,385.834 1366.49,386.834 1363.5,386.5C 1365.51,384.935 1367.84,383.935 1370.5,383.5 Z"/></g>
<g><path style="opacity:0.004" fill="#0e0e0e" d="M 2143.5,386.5 C 2145.5,386.5 2146.5,387.5 2146.5,389.5C 2145.17,388.833 2144.17,387.833 2143.5,386.5 Z"/></g>
<g><path style="opacity:0.545" fill="#303030" d="M 1363.5,386.5 C 1362.1,387.931 1360.43,389.098 1358.5,390C 1357.21,390.49 1355.87,390.657 1354.5,390.5C 1357.05,388.416 1360.05,387.083 1363.5,386.5 Z"/></g>
<g><path style="opacity:0.824" fill="#323232" d="M 2066.5,386.5 C 2064.82,388.834 2062.49,389.834 2059.5,389.5C 2061.51,387.935 2063.84,386.935 2066.5,386.5 Z"/></g>
<g><path style="opacity:0.012" fill="#141414" d="M 1438.5,389.5 C 1440.4,389.738 1441.74,390.738 1442.5,392.5C 1440.6,392.262 1439.26,391.262 1438.5,389.5 Z"/></g>
<g><path style="opacity:0.863" fill="#393939" d="M 2059.5,389.5 C 2057.16,392.165 2054.16,393.498 2050.5,393.5C 2053.09,391.408 2056.09,390.075 2059.5,389.5 Z"/></g>
<g><path style="opacity:0.886" fill="#313131" d="M 1349.5,392.5 C 1347.81,394.818 1345.48,395.818 1342.5,395.5C 1344.6,394.088 1346.94,393.088 1349.5,392.5 Z"/></g>
<g><path style="opacity:0.737" fill="#353535" d="M 2050.5,393.5 C 2047.69,395.897 2044.36,397.23 2040.5,397.5C 2043.52,395.6 2046.85,394.267 2050.5,393.5 Z"/></g>
<g><path style="opacity:0.02" fill="#151515" d="M 1446.5,396.5 C 1448.03,396.427 1449.03,397.094 1449.5,398.5C 1447.97,398.573 1446.97,397.906 1446.5,396.5 Z"/></g>
<g><path style="opacity:0.004" fill="#151515" d="M 2158.5,399.5 C 2160.4,399.738 2161.74,400.738 2162.5,402.5C 2160.6,402.262 2159.26,401.262 2158.5,399.5 Z"/></g>
<g><path style="opacity:0.706" fill="#313131" d="M 1332.5,399.5 C 1330.38,401.655 1327.72,402.655 1324.5,402.5C 1326.94,401.129 1329.6,400.129 1332.5,399.5 Z"/></g>
<g><path style="opacity:0.027" fill="#171717" d="M 1452.5,401.5 C 1454.4,401.738 1455.74,402.738 1456.5,404.5C 1454.6,404.262 1453.26,403.262 1452.5,401.5 Z"/></g>
<g><path style="opacity:0.776" fill="#383838" d="M 2035.5,399.5 C 2033.38,401.655 2030.72,402.655 2027.5,402.5C 2029.94,401.129 2032.6,400.129 2035.5,399.5 Z"/></g>
<g><path style="opacity:0.875" fill="#2e2e2e" d="M 2027.5,402.5 C 2026.01,404.28 2024.01,404.946 2021.5,404.5C 2023.21,403.262 2025.21,402.595 2027.5,402.5 Z"/></g>
<g><path style="opacity:0.004" fill="#171717" d="M 1458.5,406.5 C 1460.4,406.738 1461.74,407.738 1462.5,409.5C 1460.6,409.262 1459.26,408.262 1458.5,406.5 Z"/></g>
<g><path style="opacity:0.424" fill="#252525" d="M 2164.5,404.5 C 2166.23,405.026 2167.56,406.026 2168.5,407.5C 2166.37,407.446 2165.03,406.446 2164.5,404.5 Z"/></g>
<g><path style="opacity:0.816" fill="#373737" d="M 1319.5,404.5 C 1315.37,407.324 1310.7,408.991 1305.5,409.5C 1309.94,407.462 1314.61,405.796 1319.5,404.5 Z"/></g>
<g><path style="opacity:0.678" fill="#2e2e2e" d="M 2021.5,404.5 C 2018.37,406.99 2014.71,408.323 2010.5,408.5C 2013.94,406.796 2017.61,405.462 2021.5,404.5 Z"/></g>
<g><path style="opacity:0.812" fill="#2a2a2a" d="M 2010.5,408.5 C 2009.36,410.213 2007.7,410.88 2005.5,410.5C 2006.78,409.069 2008.45,408.402 2010.5,408.5 Z"/></g>
<g><path style="opacity:0.859" fill="#333333" d="M 1305.5,409.5 C 1302.37,411.99 1298.71,413.323 1294.5,413.5C 1297.94,411.796 1301.61,410.462 1305.5,409.5 Z"/></g>
<g><path style="opacity:0.004" fill="#161616" d="M 1464.5,411.5 C 1466.4,411.738 1467.74,412.738 1468.5,414.5C 1466.6,414.262 1465.26,413.262 1464.5,411.5 Z"/></g>
<g><path style="opacity:0.431" fill="#252525" d="M 2170.5,409.5 C 2172.23,410.026 2173.56,411.026 2174.5,412.5C 2172.37,412.446 2171.03,411.446 2170.5,409.5 Z"/></g>
<g><path style="opacity:0.784" fill="#373737" d="M 2005.5,410.5 C 2003.38,412.655 2000.72,413.655 1997.5,413.5C 1999.94,412.129 2002.6,411.129 2005.5,410.5 Z"/></g>
<g><path style="opacity:0.773" fill="#2a2a2a" d="M 1294.5,413.5 C 1293.36,415.213 1291.7,415.88 1289.5,415.5C 1290.93,414.463 1292.6,413.796 1294.5,413.5 Z"/></g>
<g><path style="opacity:0.031" fill="#151515" d="M 2177.5,415.5 C 2179.03,415.427 2180.03,416.094 2180.5,417.5C 2178.97,417.573 2177.97,416.906 2177.5,415.5 Z"/></g>
<g><path style="opacity:0.008" fill="#151515" d="M 1470.5,416.5 C 1472.4,416.738 1473.74,417.738 1474.5,419.5C 1472.6,419.262 1471.26,418.262 1470.5,416.5 Z"/></g>
<g><path style="opacity:0.933" fill="#3a3a3a" d="M 1992.5,415.5 C 1989.03,418.228 1985.03,419.895 1980.5,420.5C 1984.1,418.072 1988.1,416.406 1992.5,415.5 Z"/></g>
<g><path style="opacity:0.004" fill="#101010" d="M 2182.5,419.5 C 2184.03,419.427 2185.03,420.094 2185.5,421.5C 2183.97,421.573 2182.97,420.906 2182.5,419.5 Z"/></g>
<g><path style="opacity:0.796" fill="#282828" d="M 1279.5,419.5 C 1278.36,421.213 1276.7,421.88 1274.5,421.5C 1275.78,420.069 1277.45,419.402 1279.5,419.5 Z"/></g>
<g><path style="opacity:0.02" fill="#161616" d="M 1477.5,422.5 C 1479.75,423.08 1481.42,424.413 1482.5,426.5C 1480.25,425.92 1478.58,424.587 1477.5,422.5 Z"/></g>
<g><path style="opacity:0.745" fill="#353535" d="M 1980.5,420.5 C 1977.69,422.897 1974.36,424.23 1970.5,424.5C 1973.52,422.6 1976.85,421.267 1980.5,420.5 Z"/></g>
<g><path style="opacity:0.875" fill="#3a3a3a" d="M 1274.5,421.5 C 1272.16,424.165 1269.16,425.498 1265.5,425.5C 1268.09,423.408 1271.09,422.075 1274.5,421.5 Z"/></g>
<g><path style="opacity:0.008" fill="#101010" d="M 2187.5,423.5 C 2189.03,423.427 2190.03,424.094 2190.5,425.5C 2188.97,425.573 2187.97,424.906 2187.5,423.5 Z"/></g>
<g><path style="opacity:0.478" fill="#222222" d="M 1970.5,424.5 C 1969.49,425.674 1968.15,426.34 1966.5,426.5C 1967.29,424.896 1968.62,424.229 1970.5,424.5 Z"/></g>
<g><path style="opacity:0.773" fill="#363636" d="M 1265.5,425.5 C 1263.38,427.655 1260.72,428.655 1257.5,428.5C 1259.94,427.129 1262.6,426.129 1265.5,425.5 Z"/></g>
<g><path style="opacity:0.012" fill="#141414" d="M 2192.5,427.5 C 2194.03,427.427 2195.03,428.094 2195.5,429.5C 2193.97,429.573 2192.97,428.906 2192.5,427.5 Z"/></g>
<g><path style="opacity:0.604" fill="#1e1e1e" d="M 1484.5,428.5 C 1487.19,429.591 1487.86,431.257 1486.5,433.5C 1485.83,431.833 1485.17,430.167 1484.5,428.5 Z"/></g>
<g><path style="opacity:0.259" fill="#1c1c1c" d="M 2433.5,429.5 C 2431.14,429.253 2429.14,429.919 2427.5,431.5C 2428.82,427.815 2430.82,427.148 2433.5,429.5 Z"/></g>
<g><path style="opacity:0.008" fill="#111111" d="M 2433.5,429.5 C 2435.03,429.427 2436.03,430.094 2436.5,431.5C 2434.97,431.573 2433.97,430.906 2433.5,429.5 Z"/></g>
<g><path style="opacity:0.004" fill="#0f0f0f" d="M 2196.5,430.5 C 2198.03,430.427 2199.03,431.094 2199.5,432.5C 2197.97,432.573 2196.97,431.906 2196.5,430.5 Z"/></g>
<g><path style="opacity:0.757" fill="#292929" d="M 1252.5,430.5 C 1251.36,432.213 1249.7,432.88 1247.5,432.5C 1248.93,431.463 1250.6,430.796 1252.5,430.5 Z"/></g>
<g><path style="opacity:0.8" fill="#2a2a2a" d="M 1955.5,430.5 C 1954.36,432.213 1952.7,432.88 1950.5,432.5C 1951.78,431.069 1953.45,430.402 1955.5,430.5 Z"/></g>
<g><path style="opacity:0.008" fill="#171717" d="M 2437.5,432.5 C 2440.83,433.833 2443.17,436.167 2444.5,439.5C 2441.83,437.5 2439.5,435.167 2437.5,432.5 Z"/></g>
<g><path style="opacity:0.027" fill="#141414" d="M 2200.5,433.5 C 2202.03,433.427 2203.03,434.094 2203.5,435.5C 2201.97,435.573 2200.97,434.906 2200.5,433.5 Z"/></g>
<g><path style="opacity:0.004" fill="#101010" d="M 2203.5,435.5 C 2205.03,435.427 2206.03,436.094 2206.5,437.5C 2204.97,437.573 2203.97,436.906 2203.5,435.5 Z"/></g>
<g><path style="opacity:0.459" fill="#282828" d="M 1945.5,434.5 C 1943.61,436.241 1941.27,437.241 1938.5,437.5C 1940.32,435.552 1942.65,434.552 1945.5,434.5 Z"/></g>
<g><path style="opacity:0.847" fill="#343434" d="M 1237.5,436.5 C 1237.39,437.117 1237.06,437.617 1236.5,438C 1232.55,439.484 1228.55,440.65 1224.5,441.5C 1228.52,439.266 1232.86,437.599 1237.5,436.5 Z"/></g>
<g><path style="opacity:0.004" fill="#0e0e0e" d="M 2206.5,437.5 C 2208.03,437.427 2209.03,438.094 2209.5,439.5C 2207.97,439.573 2206.97,438.906 2206.5,437.5 Z"/></g>
<g><path style="opacity:0.706" fill="#2e2e2e" d="M 2427.5,431.5 C 2425.1,434.903 2422.1,437.57 2418.5,439.5C 2420.9,436.097 2423.9,433.43 2427.5,431.5 Z"/></g>
<g><path style="opacity:0.012" fill="#131313" d="M 2209.5,439.5 C 2211.03,439.427 2212.03,440.094 2212.5,441.5C 2210.97,441.573 2209.97,440.906 2209.5,439.5 Z"/></g>
<g><path style="opacity:0.271" fill="#141414" d="M 2418.5,439.5 C 2417.83,440.833 2416.83,441.833 2415.5,442.5C 2415.5,440.5 2416.5,439.5 2418.5,439.5 Z"/></g>
<g><path style="opacity:0.004" fill="#101010" d="M 2446.5,442.5 C 2447.83,442.5 2448.5,443.167 2448.5,444.5C 2447.5,444.167 2446.83,443.5 2446.5,442.5 Z"/></g>
<g><path style="opacity:0.788" fill="#393939" d="M 1927.5,441.5 C 1925.38,443.655 1922.72,444.655 1919.5,444.5C 1921.94,443.129 1924.6,442.129 1927.5,441.5 Z"/></g>
<g><path style="opacity:0.522" fill="#292929" d="M 2415.5,442.5 C 2414.74,444.262 2413.4,445.262 2411.5,445.5C 2412.26,443.738 2413.6,442.738 2415.5,442.5 Z"/></g>
<g><path style="opacity:0.776" fill="#373737" d="M 1219.5,443.5 C 1216.69,445.897 1213.36,447.23 1209.5,447.5C 1212.52,445.6 1215.85,444.267 1219.5,443.5 Z"/></g>
<g><path style="opacity:0.349" fill="#1f1f1f" d="M 2411.5,445.5 C 2410.74,447.262 2409.4,448.262 2407.5,448.5C 2408.26,446.738 2409.6,445.738 2411.5,445.5 Z"/></g>
<g><path style="opacity:0.212" fill="#181818" d="M 2448.5,444.5 C 2449.91,444.973 2450.57,445.973 2450.5,447.5C 2449.09,447.027 2448.43,446.027 2448.5,444.5 Z"/></g>
<g><path style="opacity:0.776" fill="#272727" d="M 1914.5,446.5 C 1913.36,448.213 1911.7,448.88 1909.5,448.5C 1910.78,447.069 1912.45,446.402 1914.5,446.5 Z"/></g>
<g><path style="opacity:0.392" fill="#212121" d="M 2407.5,448.5 C 2406.74,450.262 2405.4,451.262 2403.5,451.5C 2404.26,449.738 2405.6,448.738 2407.5,448.5 Z"/></g>
<g><path style="opacity:0.247" fill="#1b1b1b" d="M 2450.5,447.5 C 2451.91,447.973 2452.57,448.973 2452.5,450.5C 2451.09,450.027 2450.43,449.027 2450.5,447.5 Z"/></g>
<g><path style="opacity:0.875" fill="#3a3a3a" d="M 1909.5,448.5 C 1907.16,451.165 1904.16,452.498 1900.5,452.5C 1903.09,450.408 1906.09,449.075 1909.5,448.5 Z"/></g>
<g><path style="opacity:0.102" fill="#121212" d="M 2229.5,450.5 C 2231.67,450.75 2233.34,451.75 2234.5,453.5C 2232.33,453.25 2230.66,452.25 2229.5,450.5 Z"/></g>
<g><path style="opacity:0.604" fill="#262626" d="M 2403.5,451.5 C 2403.03,452.906 2402.03,453.573 2400.5,453.5C 2400.97,452.094 2401.97,451.427 2403.5,451.5 Z"/></g>
<g><path style="opacity:0.192" fill="#161616" d="M 2452.5,450.5 C 2453.91,450.973 2454.57,451.973 2454.5,453.5C 2453.09,453.027 2452.43,452.027 2452.5,450.5 Z"/></g>
<g><path style="opacity:0.91" fill="#383838" d="M 1199.5,451.5 C 1197.82,453.834 1195.49,454.834 1192.5,454.5C 1194.43,452.707 1196.76,451.707 1199.5,451.5 Z"/></g>
<g><path style="opacity:0.471" fill="#1f1f1f" d="M 2398.5,454.5 C 2398.03,455.906 2397.03,456.573 2395.5,456.5C 2395.97,455.094 2396.97,454.427 2398.5,454.5 Z"/></g>
<g><path style="opacity:0.008" fill="#0e0e0e" d="M 1447.5,455.5 C 1447.03,456.906 1446.03,457.573 1444.5,457.5C 1444.97,456.094 1445.97,455.427 1447.5,455.5 Z"/></g>
<g><path style="opacity:0.271" fill="#202020" d="M 2455.5,455.5 C 2456.91,455.973 2457.57,456.973 2457.5,458.5C 2456.09,458.027 2455.43,457.027 2455.5,455.5 Z"/></g>
<g><path style="opacity:0.843" fill="#2d2d2d" d="M 1890.5,456.5 C 1888.81,458.818 1886.48,459.818 1883.5,459.5C 1885.6,458.088 1887.94,457.088 1890.5,456.5 Z"/></g>
<g><path style="opacity:0.576" fill="#2b2b2b" d="M 2393.5,457.5 C 2392.51,459.408 2390.85,460.408 2388.5,460.5C 2389.66,458.75 2391.33,457.75 2393.5,457.5 Z"/></g>
<g><path style="opacity:0.196" fill="#131313" d="M 2457.5,458.5 C 2458.91,458.973 2459.57,459.973 2459.5,461.5C 2458.09,461.027 2457.43,460.027 2457.5,458.5 Z"/></g>
<g><path style="opacity:0.914" fill="#3a3a3a" d="M 1180.5,459.5 C 1178.82,461.834 1176.49,462.834 1173.5,462.5C 1175.51,460.935 1177.84,459.935 1180.5,459.5 Z"/></g>
<g><path style="opacity:0.008" fill="#090909" d="M 1441.5,460.5 C 1441.5,462.5 1440.5,463.5 1438.5,463.5C 1439.17,462.167 1440.17,461.167 1441.5,460.5 Z"/></g>
<g><path style="opacity:0.914" fill="#3c3c3c" d="M 2387.5,460.5 C 2385.75,463.375 2383.08,464.708 2379.5,464.5C 2381.85,462.659 2384.52,461.326 2387.5,460.5 Z"/></g>
<g><path style="opacity:0.533" fill="#202020" d="M 1173.5,462.5 C 1172.49,463.674 1171.15,464.34 1169.5,464.5C 1170.29,462.896 1171.62,462.229 1173.5,462.5 Z"/></g>
<g><path style="opacity:0.82" fill="#323232" d="M 1878.5,461.5 C 1876.82,463.834 1874.49,464.834 1871.5,464.5C 1873.51,462.935 1875.84,461.935 1878.5,461.5 Z"/></g>
<g><path style="opacity:0.898" fill="#393939" d="M 1168.5,464.5 C 1166.82,466.834 1164.49,467.834 1161.5,467.5C 1163.51,465.935 1165.84,464.935 1168.5,464.5 Z"/></g>
<g><path style="opacity:0.89" fill="#383838" d="M 1871.5,464.5 C 1869.82,466.834 1867.49,467.834 1864.5,467.5C 1866.51,465.935 1868.84,464.935 1871.5,464.5 Z"/></g>
<g><path style="opacity:0.753" fill="#353535" d="M 2379.5,464.5 C 2377.38,466.655 2374.72,467.655 2371.5,467.5C 2373.94,466.129 2376.6,465.129 2379.5,464.5 Z"/></g>
<g><path style="opacity:0.216" fill="#191919" d="M 2461.5,465.5 C 2462.91,465.973 2463.57,466.973 2463.5,468.5C 2462.09,468.027 2461.43,467.027 2461.5,465.5 Z"/></g>
<g><path style="opacity:0.502" fill="#222222" d="M 1864.5,467.5 C 1863.49,468.674 1862.15,469.34 1860.5,469.5C 1861.29,467.896 1862.62,467.229 1864.5,467.5 Z"/></g>
<g><path style="opacity:0.353" fill="#222222" d="M 2269.5,467.5 C 2271.55,467.402 2273.22,468.069 2274.5,469.5C 2272.45,469.598 2270.78,468.931 2269.5,467.5 Z"/></g>
<g><path style="opacity:0.788" fill="#353535" d="M 2371.5,467.5 C 2368.37,469.99 2364.71,471.323 2360.5,471.5C 2363.95,469.792 2367.62,468.459 2371.5,467.5 Z"/></g>
<g><path style="opacity:0.906" fill="#393939" d="M 1156.5,469.5 C 1154.82,471.834 1152.49,472.834 1149.5,472.5C 1151.51,470.935 1153.84,469.935 1156.5,469.5 Z"/></g>
<g><path style="opacity:0.906" fill="#393939" d="M 1859.5,469.5 C 1857.82,471.834 1855.49,472.834 1852.5,472.5C 1854.51,470.935 1856.84,469.935 1859.5,469.5 Z"/></g>
<g><path style="opacity:0.518" fill="#262626" d="M 2281.5,470.5 C 2283.7,470.875 2285.7,471.542 2287.5,472.5C 2284.99,472.946 2282.99,472.28 2281.5,470.5 Z"/></g>
<g><path style="opacity:0.62" fill="#2e2e2e" d="M 2360.5,471.5 C 2357.5,473.277 2354.16,474.277 2350.5,474.5C 2353.45,472.59 2356.79,471.59 2360.5,471.5 Z"/></g>
<g><path style="opacity:0.518" fill="#242424" d="M 1852.5,472.5 C 1851.49,473.674 1850.15,474.34 1848.5,474.5C 1849.29,472.896 1850.62,472.229 1852.5,472.5 Z"/></g>
<g><path style="opacity:0.528" fill="#323232" d="M 2298.5,474.5 C 2306.67,474.899 2314.67,475.565 2322.5,476.5C 2314.26,476.935 2306.26,476.269 2298.5,474.5 Z"/></g>
<g><path style="opacity:0.922" fill="#3b3b3b" d="M 1144.5,474.5 C 1142.82,476.834 1140.49,477.834 1137.5,477.5C 1139.51,475.935 1141.84,474.935 1144.5,474.5 Z"/></g>
<g><path style="opacity:0.875" fill="#363636" d="M 1842.5,476.5 C 1840.82,478.834 1838.49,479.834 1835.5,479.5C 1837.51,477.935 1839.84,476.935 1842.5,476.5 Z"/></g>
<g><path style="opacity:0.875" fill="#383838" d="M 1127.5,481.5 C 1125.16,484.165 1122.16,485.498 1118.5,485.5C 1121.09,483.408 1124.09,482.075 1127.5,481.5 Z"/></g>
<g><path style="opacity:0.004" fill="#0e0e0e" d="M 1371.5,482.5 C 1371.03,483.906 1370.03,484.573 1368.5,484.5C 1368.97,483.094 1369.97,482.427 1371.5,482.5 Z"/></g>
<g><path style="opacity:0.863" fill="#343434" d="M 1830.5,481.5 C 1828.82,483.834 1826.49,484.834 1823.5,484.5C 1825.51,482.935 1827.84,481.935 1830.5,481.5 Z"/></g>
<g><path style="opacity:0.741" fill="#343434" d="M 1118.5,485.5 C 1115.69,487.897 1112.36,489.23 1108.5,489.5C 1111.52,487.6 1114.85,486.267 1118.5,485.5 Z"/></g>
<g><path style="opacity:0.004" fill="#0c0c0c" d="M 1365.5,486.5 C 1365.5,487.833 1364.83,488.5 1363.5,488.5C 1363.83,487.5 1364.5,486.833 1365.5,486.5 Z"/></g>
<g><path style="opacity:0.847" fill="#373737" d="M 1818.5,486.5 C 1816.16,489.165 1813.16,490.498 1809.5,490.5C 1812.09,488.408 1815.09,487.075 1818.5,486.5 Z"/></g>
<g><path style="opacity:0.776" fill="#2a2a2a" d="M 1108.5,489.5 C 1107.36,491.213 1105.7,491.88 1103.5,491.5C 1104.93,490.463 1106.6,489.796 1108.5,489.5 Z"/></g>
<g><path style="opacity:0.831" fill="#343434" d="M 1103.5,491.5 C 1101.16,494.165 1098.16,495.498 1094.5,495.5C 1097.09,493.408 1100.09,492.075 1103.5,491.5 Z"/></g>
<g><path style="opacity:0.89" fill="#393939" d="M 1804.5,492.5 C 1802.82,494.834 1800.49,495.834 1797.5,495.5C 1799.51,493.935 1801.84,492.935 1804.5,492.5 Z"/></g>
<g><path style="opacity:0.82" fill="#353535" d="M 2473.5,489.5 C 2475.29,491.426 2476.29,493.759 2476.5,496.5C 2474.17,494.824 2473.17,492.491 2473.5,489.5 Z"/></g>
<g><path style="opacity:0.882" fill="#3a3a3a" d="M 1089.5,497.5 C 1087.16,500.165 1084.16,501.498 1080.5,501.5C 1083.09,499.408 1086.09,498.075 1089.5,497.5 Z"/></g>
<g><path style="opacity:0.871" fill="#383838" d="M 1792.5,497.5 C 1790.16,500.165 1787.16,501.498 1783.5,501.5C 1786.09,499.408 1789.09,498.075 1792.5,497.5 Z"/></g>
<g><path style="opacity:0.718" fill="#272727" d="M 2476.5,496.5 C 2477.54,497.93 2478.2,499.597 2478.5,501.5C 2476.79,500.365 2476.12,498.698 2476.5,496.5 Z"/></g>
<g><path style="opacity:0.902" fill="#393939" d="M 1075.5,503.5 C 1073.82,505.834 1071.49,506.834 1068.5,506.5C 1070.51,504.935 1072.84,503.935 1075.5,503.5 Z"/></g>
<g><path style="opacity:0.69" fill="#2b2b2b" d="M 1329.5,505.5 C 1327.04,506.531 1324.37,507.198 1321.5,507.5C 1323.78,505.777 1326.45,505.111 1329.5,505.5 Z"/></g>
<g><path style="opacity:0.882" fill="#363636" d="M 1778.5,503.5 C 1776.82,505.834 1774.49,506.834 1771.5,506.5C 1773.51,504.935 1775.84,503.935 1778.5,503.5 Z"/></g>
<g><path style="opacity:0.765" fill="#2a2a2a" d="M 2478.5,502.5 C 2479.54,503.93 2480.2,505.597 2480.5,507.5C 2478.79,506.365 2478.12,504.698 2478.5,502.5 Z"/></g>
<g><path style="opacity:0.847" fill="#373737" d="M 1063.5,508.5 C 1061.16,511.165 1058.16,512.498 1054.5,512.5C 1057.09,510.408 1060.09,509.075 1063.5,508.5 Z"/></g>
<g><path style="opacity:0.902" fill="#3a3a3a" d="M 1764.5,509.5 C 1762.82,511.834 1760.49,512.834 1757.5,512.5C 1759.51,510.935 1761.84,509.935 1764.5,509.5 Z"/></g>
<g><path style="opacity:0.878" fill="#303030" d="M 2480.5,508.5 C 2481.74,510.214 2482.41,512.214 2482.5,514.5C 2480.72,513.01 2480.05,511.01 2480.5,508.5 Z"/></g>
<g><path style="opacity:0.886" fill="#383838" d="M 1049.5,514.5 C 1047.82,516.834 1045.49,517.834 1042.5,517.5C 1044.51,515.935 1046.84,514.935 1049.5,514.5 Z"/></g>
<g><path style="opacity:0.886" fill="#353535" d="M 1752.5,514.5 C 1750.82,516.834 1748.49,517.834 1745.5,517.5C 1747.43,515.707 1749.76,514.707 1752.5,514.5 Z"/></g>
<g><path style="opacity:0.886" fill="#363636" d="M 1037.5,519.5 C 1035.82,521.834 1033.49,522.834 1030.5,522.5C 1032.51,520.935 1034.84,519.935 1037.5,519.5 Z"/></g>
<g><path style="opacity:0.008" fill="#0a0a0a" d="M 1276.5,524.5 C 1276.03,525.906 1275.03,526.573 1273.5,526.5C 1273.97,525.094 1274.97,524.427 1276.5,524.5 Z"/></g>
<g><path style="opacity:0.886" fill="#383838" d="M 1728.5,524.5 C 1726.82,526.834 1724.49,527.834 1721.5,527.5C 1723.51,525.935 1725.84,524.935 1728.5,524.5 Z"/></g>
<g><path style="opacity:0.792" fill="#2e2e2e" d="M 2485.5,526.5 C 2486.61,528.599 2487.28,530.933 2487.5,533.5C 2485.84,531.562 2485.17,529.228 2485.5,526.5 Z"/></g>
<g><path style="opacity:0.443" fill="#1c1c1c" d="M 1008.5,531.5 C 1007.49,532.674 1006.15,533.34 1004.5,533.5C 1005.29,531.896 1006.62,531.229 1008.5,531.5 Z"/></g>
<g><path style="opacity:0.804" fill="#2a2a2a" d="M 1711.5,531.5 C 1710.36,533.213 1708.7,533.88 1706.5,533.5C 1707.78,532.069 1709.45,531.402 1711.5,531.5 Z"/></g>
<g><path style="opacity:0.902" fill="#383838" d="M 1003.5,533.5 C 1001.82,535.834 999.491,536.834 996.5,536.5C 998.509,534.935 1000.84,533.935 1003.5,533.5 Z"/></g>
<g><path style="opacity:0.902" fill="#393939" d="M 1706.5,533.5 C 1704.82,535.834 1702.49,536.834 1699.5,536.5C 1701.51,534.935 1703.84,533.935 1706.5,533.5 Z"/></g>
<g><path style="opacity:0.925" fill="#3a3a3a" d="M 996.5,536.5 C 994.824,538.834 992.491,539.834 989.5,539.5C 991.426,537.707 993.759,536.707 996.5,536.5 Z"/></g>
<g><path style="opacity:0.925" fill="#363636" d="M 1699.5,536.5 C 1697.81,538.818 1695.48,539.818 1692.5,539.5C 1694.6,538.088 1696.94,537.088 1699.5,536.5 Z"/></g>
<g><path style="opacity:0.878" fill="#373737" d="M 984.5,541.5 C 982.824,543.834 980.491,544.834 977.5,544.5C 979.509,542.935 981.843,541.935 984.5,541.5 Z"/></g>
<g><path style="opacity:0.914" fill="#3a3a3a" d="M 1685.5,542.5 C 1683.82,544.834 1681.49,545.834 1678.5,545.5C 1680.43,543.707 1682.76,542.707 1685.5,542.5 Z"/></g>
<g><path style="opacity:0.863" fill="#393939" d="M 1678.5,545.5 C 1675.5,548.496 1671.84,550.163 1667.5,550.5C 1670.74,548.049 1674.41,546.382 1678.5,545.5 Z"/></g>
<g><path style="opacity:0.714" fill="#2f2f2f" d="M 2489.5,544.5 C 2491.04,546.838 2491.71,549.505 2491.5,552.5C 2490.23,550.095 2489.57,547.428 2489.5,544.5 Z"/></g>
<g><path style="opacity:0.553" fill="#212121" d="M 959.5,552.5 C 959.027,553.906 958.027,554.573 956.5,554.5C 956.973,553.094 957.973,552.427 959.5,552.5 Z"/></g>
<g><path style="opacity:0.098" fill="#171717" d="M 950.5,557.5 C 948.819,559.008 946.819,560.008 944.5,560.5C 945.911,558.461 947.911,557.461 950.5,557.5 Z"/></g>
<g><path style="opacity:0.859" fill="#343434" d="M 939.5,562.5 C 937.824,564.834 935.491,565.834 932.5,565.5C 934.509,563.935 936.843,562.935 939.5,562.5 Z"/></g>
<g><path style="opacity:0.49" fill="#2d2d2d" d="M 1642.5,562.5 C 1641.1,563.931 1639.43,565.098 1637.5,566C 1636.21,566.49 1634.87,566.657 1633.5,566.5C 1636.05,564.416 1639.05,563.083 1642.5,562.5 Z"/></g>
<g><path style="opacity:0.929" fill="#3a3a3a" d="M 932.5,565.5 C 929.503,568.496 925.836,570.163 921.5,570.5C 924.74,568.049 928.407,566.382 932.5,565.5 Z"/></g>
<g><path style="opacity:0.51" fill="#292929" d="M 1631.5,567.5 C 1629.97,569.245 1627.97,570.245 1625.5,570.5C 1627.03,568.755 1629.03,567.755 1631.5,567.5 Z"/></g>
<g><path style="opacity:0.067" fill="#1a1a1a" d="M 2494.5,567.5 C 2495.77,569.905 2496.43,572.572 2496.5,575.5C 2494.96,573.162 2494.29,570.495 2494.5,567.5 Z"/></g>
<g><path style="opacity:0.875" fill="#343434" d="M 919.5,571.5 C 917.824,573.834 915.491,574.834 912.5,574.5C 914.509,572.935 916.843,571.935 919.5,571.5 Z"/></g>
<g><path style="opacity:0.929" fill="#363636" d="M 912.5,574.5 C 911.313,576.975 909.313,577.975 906.5,577.5C 908.456,576.508 910.456,575.508 912.5,574.5 Z"/></g>
<g><path style="opacity:0.094" fill="#1b1b1b" d="M 1282.5,578.5 C 1254.14,578.2 1225.81,578.533 1197.5,579.5C 1197.92,578.778 1198.58,578.278 1199.5,578C 1227.34,577.17 1255,577.336 1282.5,578.5 Z"/></g>
<g><path style="opacity:0.898" fill="#393939" d="M 1614.5,575.5 C 1612.82,577.834 1610.49,578.834 1607.5,578.5C 1609.51,576.935 1611.84,575.935 1614.5,575.5 Z"/></g>
<g><path style="opacity:0.568" fill="#3f3f3f" d="M 595.5,580.5 C 560.142,580.193 524.809,580.526 489.5,581.5C 489.918,580.778 490.584,580.278 491.5,580C 526.336,579.169 561.002,579.336 595.5,580.5 Z"/></g>
<g><path style="opacity:0.537" fill="#2a2a2a" d="M 904.5,578.5 C 902.967,580.245 900.967,581.245 898.5,581.5C 900.033,579.755 902.033,578.755 904.5,578.5 Z"/></g>
<g><path style="opacity:0.91" fill="#393939" d="M 489.5,581.5 C 486.374,583.99 482.708,585.323 478.5,585.5C 481.939,583.796 485.605,582.462 489.5,581.5 Z"/></g>
<g><path style="opacity:0.733" fill="#2b2b2b" d="M 1191.5,581.5 C 1190.36,583.213 1188.7,583.88 1186.5,583.5C 1187.93,582.463 1189.6,581.796 1191.5,581.5 Z"/></g>
<g><path style="opacity:0.749" fill="#313131" d="M 1602.5,580.5 C 1600.38,582.655 1597.72,583.655 1594.5,583.5C 1596.94,582.129 1599.6,581.129 1602.5,580.5 Z"/></g>
<g><path style="opacity:0.004" fill="#0a0a0a" d="M 1303.5,582.5 C 1303.03,583.906 1302.03,584.573 1300.5,584.5C 1300.97,583.094 1301.97,582.427 1303.5,582.5 Z"/></g>
<g><path style="opacity:0.008" fill="#0a0a0a" d="M 597.5,583.5 C 597.027,584.906 596.027,585.573 594.5,585.5C 594.973,584.094 595.973,583.427 597.5,583.5 Z"/></g>
<g><path style="opacity:0.867" fill="#333333" d="M 891.5,583.5 C 889.824,585.834 887.491,586.834 884.5,586.5C 886.509,584.935 888.843,583.935 891.5,583.5 Z"/></g>
<g><path style="opacity:0.89" fill="#373737" d="M 1594.5,583.5 C 1592.82,585.834 1590.49,586.834 1587.5,586.5C 1589.51,584.935 1591.84,583.935 1594.5,583.5 Z"/></g>
<g><path style="opacity:0.722" fill="#303030" d="M 478.5,585.5 C 476.383,587.655 473.716,588.655 470.5,588.5C 472.936,587.129 475.603,586.129 478.5,585.5 Z"/></g>
<g><path style="opacity:0.004" fill="#0a0a0a" d="M 591.5,587.5 C 591.5,588.833 590.833,589.5 589.5,589.5C 589.833,588.5 590.5,587.833 591.5,587.5 Z"/></g>
<g><path style="opacity:0.678" fill="#2e2e2e" d="M 1175.5,587.5 C 1173.38,589.655 1170.72,590.655 1167.5,590.5C 1169.94,589.129 1172.6,588.129 1175.5,587.5 Z"/></g>
<g><path style="opacity:0.773" fill="#303030" d="M 470.5,588.5 C 468.383,590.655 465.716,591.655 462.5,591.5C 464.89,589.98 467.557,588.98 470.5,588.5 Z"/></g>
<g><path style="opacity:0.914" fill="#3b3b3b" d="M 879.5,588.5 C 877.824,590.834 875.491,591.834 872.5,591.5C 874.509,589.935 876.843,588.935 879.5,588.5 Z"/></g>
<g><path style="opacity:0.918" fill="#3c3c3c" d="M 1582.5,588.5 C 1580.82,590.834 1578.49,591.834 1575.5,591.5C 1577.51,589.935 1579.84,588.935 1582.5,588.5 Z"/></g>
<g><path style="opacity:0.788" fill="#373737" d="M 462.5,591.5 C 460.383,593.655 457.716,594.655 454.5,594.5C 456.936,593.129 459.603,592.129 462.5,591.5 Z"/></g>
<g><path style="opacity:0.024" fill="#121212" d="M 586.5,592.5 C 585.738,594.262 584.404,595.262 582.5,595.5C 583.262,593.738 584.596,592.738 586.5,592.5 Z"/></g>
<g><path style="opacity:0.639" fill="#292929" d="M 1167.5,590.5 C 1164.37,592.99 1160.71,594.323 1156.5,594.5C 1159.95,592.792 1163.62,591.459 1167.5,590.5 Z"/></g>
<g><path style="opacity:0.02" fill="#121212" d="M 1292.5,591.5 C 1291.42,593.587 1289.75,594.92 1287.5,595.5C 1288.58,593.413 1290.25,592.08 1292.5,591.5 Z"/></g>
<g><path style="opacity:0.894" fill="#313131" d="M 454.5,594.5 C 453.01,596.28 451.01,596.946 448.5,596.5C 450.214,595.262 452.214,594.595 454.5,594.5 Z"/></g>
<g><path style="opacity:0.91" fill="#3b3b3b" d="M 867.5,593.5 C 865.824,595.834 863.491,596.834 860.5,596.5C 862.509,594.935 864.843,593.935 867.5,593.5 Z"/></g>
<g><path style="opacity:0.686" fill="#2b2b2b" d="M 448.5,596.5 C 446.383,598.655 443.716,599.655 440.5,599.5C 442.936,598.129 445.603,597.129 448.5,596.5 Z"/></g>
<g><path style="opacity:0.8" fill="#393939" d="M 1151.5,596.5 C 1149.38,598.655 1146.72,599.655 1143.5,599.5C 1145.94,598.129 1148.6,597.129 1151.5,596.5 Z"/></g>
<g><path style="opacity:0.02" fill="#141414" d="M 1286.5,596.5 C 1285.92,598.749 1284.59,600.415 1282.5,601.5C 1283.08,599.251 1284.41,597.585 1286.5,596.5 Z"/></g>
<g><path style="opacity:0.792" fill="#2a2a2a" d="M 2500.5,594.5 C 2501.92,596.515 2502.59,598.848 2502.5,601.5C 2500.84,599.562 2500.17,597.228 2500.5,594.5 Z"/></g>
<g><path style="opacity:0.871" fill="#373737" d="M 855.5,598.5 C 853.165,601.165 850.165,602.498 846.5,602.5C 849.088,600.408 852.088,599.075 855.5,598.5 Z"/></g>
<g><path style="opacity:0.914" fill="#333333" d="M 1143.5,599.5 C 1142.01,601.28 1140.01,601.946 1137.5,601.5C 1139.21,600.262 1141.21,599.595 1143.5,599.5 Z"/></g>
<g><path style="opacity:0.031" fill="#121212" d="M 578.5,599.5 C 578.262,601.404 577.262,602.738 575.5,603.5C 575.738,601.596 576.738,600.262 578.5,599.5 Z"/></g>
<g><path style="opacity:0.902" fill="#393939" d="M 1556.5,599.5 C 1554.82,601.834 1552.49,602.834 1549.5,602.5C 1551.51,600.935 1553.84,599.935 1556.5,599.5 Z"/></g>
<g><path style="opacity:0.647" fill="#2b2b2b" d="M 1137.5,601.5 C 1134.37,603.99 1130.71,605.323 1126.5,605.5C 1129.94,603.796 1133.61,602.462 1137.5,601.5 Z"/></g>
<g><path style="opacity:0.914" fill="#3a3a3a" d="M 1549.5,602.5 C 1547.82,604.834 1545.49,605.834 1542.5,605.5C 1544.51,603.935 1546.84,602.935 1549.5,602.5 Z"/></g>
<g><path style="opacity:0.718" fill="#303030" d="M 429.5,603.5 C 427.383,605.655 424.716,606.655 421.5,606.5C 423.936,605.129 426.603,604.129 429.5,603.5 Z"/></g>
<g><path style="opacity:0.004" fill="#0f0f0f" d="M 1280.5,603.5 C 1280.26,605.404 1279.26,606.738 1277.5,607.5C 1277.74,605.596 1278.74,604.262 1280.5,603.5 Z"/></g>
<g><path style="opacity:0.718" fill="#2e2e2e" d="M 2502.5,602.5 C 2503.92,604.515 2504.59,606.848 2504.5,609.5C 2503.08,607.485 2502.41,605.152 2502.5,602.5 Z"/></g>
<g><path style="opacity:0.894" fill="#393939" d="M 839.5,605.5 C 837.824,607.834 835.491,608.834 832.5,608.5C 834.509,606.935 836.843,605.935 839.5,605.5 Z"/></g>
<g><path style="opacity:0.725" fill="#2e2e2e" d="M 1126.5,605.5 C 1124.38,607.655 1121.72,608.655 1118.5,608.5C 1120.89,606.98 1123.56,605.98 1126.5,605.5 Z"/></g>
<g><path style="opacity:0.847" fill="#373737" d="M 1542.5,605.5 C 1540.16,608.165 1537.16,609.498 1533.5,609.5C 1536.09,607.408 1539.09,606.075 1542.5,605.5 Z"/></g>
<g><path style="opacity:0.714" fill="#2f2f2f" d="M 421.5,606.5 C 418.374,608.99 414.708,610.323 410.5,610.5C 413.95,608.792 417.617,607.459 421.5,606.5 Z"/></g>
<g><path style="opacity:0.855" fill="#363636" d="M 1118.5,608.5 C 1115.37,610.99 1111.71,612.323 1107.5,612.5C 1110.94,610.796 1114.61,609.462 1118.5,608.5 Z"/></g>
<g><path style="opacity:0.863" fill="#2f2f2f" d="M 410.5,610.5 C 408.383,612.655 405.716,613.655 402.5,613.5C 404.792,611.733 407.458,610.733 410.5,610.5 Z"/></g>
<g><path style="opacity:0.929" fill="#3c3c3c" d="M 1531.5,610.5 C 1529.82,612.834 1527.49,613.834 1524.5,613.5C 1526.43,611.707 1528.76,610.707 1531.5,610.5 Z"/></g>
<g><path style="opacity:0.812" fill="#393939" d="M 1107.5,612.5 C 1105.38,614.655 1102.72,615.655 1099.5,615.5C 1101.94,614.129 1104.6,613.129 1107.5,612.5 Z"/></g>
<g><path style="opacity:0.796" fill="#393939" d="M 1524.5,613.5 C 1522.38,615.655 1519.72,616.655 1516.5,616.5C 1518.94,615.129 1521.6,614.129 1524.5,613.5 Z"/></g>
<g><path style="opacity:0.89" fill="#373737" d="M 818.5,614.5 C 816.824,616.834 814.491,617.834 811.5,617.5C 813.509,615.935 815.843,614.935 818.5,614.5 Z"/></g>
<g><path style="opacity:0.686" fill="#2a2a2a" d="M 1099.5,615.5 C 1097.9,617.074 1095.9,617.741 1093.5,617.5C 1095.21,616.262 1097.21,615.595 1099.5,615.5 Z"/></g>
<g><path style="opacity:0.482" fill="#202020" d="M 1516.5,616.5 C 1515.49,617.674 1514.15,618.34 1512.5,618.5C 1513.29,616.896 1514.62,616.229 1516.5,616.5 Z"/></g>
<g><path style="opacity:0.875" fill="#353535" d="M 811.5,617.5 C 808.374,619.99 804.708,621.323 800.5,621.5C 803.939,619.796 807.605,618.462 811.5,617.5 Z"/></g>
<g><path style="opacity:0.027" fill="#131313" d="M 1068.5,617.5 C 1068.03,618.906 1067.03,619.573 1065.5,619.5C 1065.97,618.094 1066.97,617.427 1068.5,617.5 Z"/></g>
<g><path style="opacity:0.18" fill="#1f1f1f" d="M 1274.5,612.5 C 1273.79,615.786 1273.46,619.119 1273.5,622.5C 1272.84,621.378 1272.51,620.045 1272.5,618.5C 1272.36,616.117 1273.03,614.117 1274.5,612.5 Z"/></g>
<g><path style="opacity:0.863" fill="#353535" d="M 1511.5,618.5 C 1508.37,620.99 1504.71,622.323 1500.5,622.5C 1503.94,620.796 1507.61,619.462 1511.5,618.5 Z"/></g>
<g><path style="opacity:0.714" fill="#2f2f2f" d="M 1093.5,617.5 C 1089.37,620.324 1084.7,621.991 1079.5,622.5C 1083.94,620.462 1088.61,618.796 1093.5,617.5 Z"/></g>
<g><path style="opacity:0.722" fill="#2a2a2a" d="M 380.5,621.5 C 378.898,623.074 376.898,623.741 374.5,623.5C 376.214,622.262 378.214,621.595 380.5,621.5 Z"/></g>
<g><path style="opacity:0.804" fill="#292929" d="M 800.5,621.5 C 799.365,623.213 797.698,623.88 795.5,623.5C 796.78,622.069 798.447,621.402 800.5,621.5 Z"/></g>
<g><path style="opacity:0.302" fill="#1c1c1c" d="M 2509.5,620.5 C 2510.91,620.973 2511.57,621.973 2511.5,623.5C 2510.09,623.027 2509.43,622.027 2509.5,620.5 Z"/></g>
<g><path style="opacity:0.008" fill="#151515" d="M 2511.5,623.5 C 2513.03,623.427 2514.03,624.094 2514.5,625.5C 2512.97,625.573 2511.97,624.906 2511.5,623.5 Z"/></g>
<g><path style="opacity:0.718" fill="#292929" d="M 1073.5,624.5 C 1072.36,626.213 1070.7,626.88 1068.5,626.5C 1069.93,625.463 1071.6,624.796 1073.5,624.5 Z"/></g>
<g><path style="opacity:0.729" fill="#303030" d="M 1500.5,622.5 C 1496.37,625.324 1491.7,626.991 1486.5,627.5C 1490.95,625.459 1495.62,623.792 1500.5,622.5 Z"/></g>
<g><path style="opacity:0.008" fill="#0b0b0b" d="M 1058.5,625.5 C 1058.03,626.906 1057.03,627.573 1055.5,627.5C 1055.97,626.094 1056.97,625.427 1058.5,625.5 Z"/></g>
<g><path style="opacity:0.714" fill="#313131" d="M 368.5,625.5 C 366.383,627.655 363.716,628.655 360.5,628.5C 362.936,627.129 365.603,626.129 368.5,625.5 Z"/></g>
<g><path style="opacity:0.729" fill="#313131" d="M 789.5,625.5 C 787.383,627.655 784.716,628.655 781.5,628.5C 783.936,627.129 786.603,626.129 789.5,625.5 Z"/></g>
<g><path style="opacity:0.855" fill="#2d2d2d" d="M 1068.5,626.5 C 1067.01,628.28 1065.01,628.946 1062.5,628.5C 1064.21,627.262 1066.21,626.595 1068.5,626.5 Z"/></g>
<g><path style="opacity:0.741" fill="#292929" d="M 1273.5,624.5 C 1274.46,626.302 1275.12,628.302 1275.5,630.5C 1273.72,629.01 1273.05,627.01 1273.5,624.5 Z"/></g>
<g><path style="opacity:0.745" fill="#323232" d="M 360.5,628.5 C 356.37,631.324 351.703,632.991 346.5,633.5C 350.94,631.462 355.607,629.796 360.5,628.5 Z"/></g>
<g><path style="opacity:0.616" fill="#272727" d="M 776.5,630.5 C 774.485,631.924 772.152,632.59 769.5,632.5C 771.515,631.076 773.848,630.41 776.5,630.5 Z"/></g>
<g><path style="opacity:0.627" fill="#292929" d="M 1062.5,628.5 C 1059.37,630.99 1055.71,632.323 1051.5,632.5C 1054.94,630.796 1058.61,629.462 1062.5,628.5 Z"/></g>
<g><path style="opacity:0.902" fill="#323232" d="M 567.5,628.5 C 568.738,630.214 569.405,632.214 569.5,634.5C 567.72,633.01 567.054,631.01 567.5,628.5 Z"/></g>
<g><path style="opacity:0.827" fill="#3a3a3a" d="M 769.5,632.5 C 766.374,634.99 762.708,636.323 758.5,636.5C 761.95,634.792 765.617,633.459 769.5,632.5 Z"/></g>
<g><path style="opacity:0.816" fill="#393939" d="M 1471.5,632.5 C 1469.38,634.655 1466.72,635.655 1463.5,635.5C 1465.89,633.98 1468.56,632.98 1471.5,632.5 Z"/></g>
<g><path style="opacity:0.706" fill="#323232" d="M 1051.5,632.5 C 1051.39,633.117 1051.06,633.617 1050.5,634C 1042.56,636.816 1034.56,639.316 1026.5,641.5C 1034.54,637.929 1042.87,634.929 1051.5,632.5 Z"/></g>
<g><path style="opacity:0.765" fill="#333333" d="M 340.5,635.5 C 340.389,636.117 340.056,636.617 339.5,637C 330.556,640.149 321.556,642.982 312.5,645.5C 321.531,641.599 330.864,638.265 340.5,635.5 Z"/></g>
<g><path style="opacity:0.733" fill="#313131" d="M 1463.5,635.5 C 1458.5,637.943 1453.17,639.61 1447.5,640.5C 1452.5,638.057 1457.83,636.39 1463.5,635.5 Z"/></g>
<g><path style="opacity:0.729" fill="#303030" d="M 754.5,637.5 C 750.915,639.806 746.915,641.139 742.5,641.5C 746.216,639.595 750.216,638.261 754.5,637.5 Z"/></g>
<g><path style="opacity:0.663" fill="#2f2f2f" d="M 1447.5,640.5 C 1445.49,641.924 1443.15,642.59 1440.5,642.5C 1442.51,641.076 1444.85,640.41 1447.5,640.5 Z"/></g>
<g><path style="opacity:0.647" fill="#313131" d="M 742.5,641.5 C 738.498,643.61 734.165,644.943 729.5,645.5C 733.491,643.394 737.824,642.061 742.5,641.5 Z"/></g>
<g><path style="opacity:0.627" fill="#2d2d2d" d="M 1026.5,641.5 C 1024.49,642.924 1022.15,643.59 1019.5,643.5C 1021.51,642.076 1023.85,641.41 1026.5,641.5 Z"/></g>
<g><path style="opacity:0.596" fill="#2d2d2d" d="M 1440.5,642.5 C 1437.5,644.277 1434.16,645.277 1430.5,645.5C 1433.5,643.723 1436.84,642.723 1440.5,642.5 Z"/></g>
<g><path style="opacity:0.702" fill="#2b2b2b" d="M 312.5,645.5 C 310.485,646.924 308.152,647.59 305.5,647.5C 307.515,646.076 309.848,645.41 312.5,645.5 Z"/></g>
<g><path style="opacity:0.71" fill="#313131" d="M 721.5,647.5 C 718.146,649.258 714.479,650.258 710.5,650.5C 713.854,648.742 717.521,647.742 721.5,647.5 Z"/></g>
<g><path style="opacity:0.592" fill="#2c2c2c" d="M 1418.5,648.5 C 1416.09,649.768 1413.43,650.435 1410.5,650.5C 1412.84,648.96 1415.5,648.294 1418.5,648.5 Z"/></g>
<g><path style="opacity:0.839" fill="#2b2b2b" d="M 1024.5,652.5 C 1026.7,652.12 1028.36,652.787 1029.5,654.5C 1027.45,654.598 1025.78,653.931 1024.5,652.5 Z"/></g>
<g><path style="opacity:0.561" fill="#2a2a2a" d="M 696.5,653.5 C 692.453,655.26 688.12,656.26 683.5,656.5C 687.547,654.74 691.88,653.74 696.5,653.5 Z"/></g>
<g><path style="opacity:0.58" fill="#2a2a2a" d="M 1396.5,653.5 C 1393.78,654.913 1390.78,655.58 1387.5,655.5C 1390.22,654.087 1393.22,653.42 1396.5,653.5 Z"/></g>
<g><path style="opacity:0.89" fill="#2c2c2c" d="M 324.5,656.5 C 327.491,656.166 329.824,657.166 331.5,659.5C 328.759,659.293 326.426,658.293 324.5,656.5 Z"/></g>
<g><path style="opacity:0.161" fill="#151515" d="M 578.5,654.5 C 579.906,654.973 580.573,655.973 580.5,657.5C 579.094,657.027 578.427,656.027 578.5,654.5 Z"/></g>
<g><path style="opacity:0.867" fill="#2e2e2e" d="M 1034.5,656.5 C 1037.49,656.166 1039.82,657.166 1041.5,659.5C 1038.84,659.065 1036.51,658.065 1034.5,656.5 Z"/></g>
<g><path style="opacity:0.004" fill="#0a0a0a" d="M 920.5,656.5 C 920.027,657.906 919.027,658.573 917.5,658.5C 917.973,657.094 918.973,656.427 920.5,656.5 Z"/></g>
<g><path style="opacity:0.647" fill="#2f2f2f" d="M 668.5,659.5 C 666.095,660.768 663.428,661.435 660.5,661.5C 662.838,659.96 665.505,659.294 668.5,659.5 Z"/></g>
<g><path style="opacity:0.698" fill="#2c2c2c" d="M 1367.5,659.5 C 1365.49,660.924 1363.15,661.59 1360.5,661.5C 1362.51,660.076 1364.85,659.41 1367.5,659.5 Z"/></g>
<g><path style="opacity:0.153" fill="#181818" d="M 1289.5,661.5 C 1290.91,661.973 1291.57,662.973 1291.5,664.5C 1290.09,664.027 1289.43,663.027 1289.5,661.5 Z"/></g>
<g><path style="opacity:0.29" fill="#202020" d="M 582.5,662.5 C 583.906,662.973 584.573,663.973 584.5,665.5C 583.094,665.027 582.427,664.027 582.5,662.5 Z"/></g>
<g><path style="opacity:0.729" fill="#313131" d="M 650.5,663.5 C 647.146,665.258 643.479,666.258 639.5,666.5C 642.854,664.742 646.521,663.742 650.5,663.5 Z"/></g>
<g><path style="opacity:0.776" fill="#353535" d="M 1347.5,664.5 C 1345.49,665.924 1343.15,666.59 1340.5,666.5C 1342.44,664.837 1344.77,664.171 1347.5,664.5 Z"/></g>
<g><path style="opacity:0.659" fill="#303030" d="M 1336.5,667.5 C 1333.2,669.483 1329.53,670.483 1325.5,670.5C 1328.91,668.926 1332.57,667.926 1336.5,667.5 Z"/></g>
<g><path style="opacity:0.867" fill="#2b2b2b" d="M 353.5,669.5 C 355.483,669.157 356.817,669.824 357.5,671.5C 355.847,671.34 354.514,670.674 353.5,669.5 Z"/></g>
<g><path style="opacity:0.651" fill="#303030" d="M 631.5,668.5 C 627.498,670.61 623.165,671.943 618.5,672.5C 622.491,670.394 626.824,669.061 631.5,668.5 Z"/></g>
<g><path style="opacity:0.169" fill="#141414" d="M 1293.5,668.5 C 1294.91,668.973 1295.57,669.973 1295.5,671.5C 1294.09,671.027 1293.43,670.027 1293.5,668.5 Z"/></g>
<g><path style="opacity:0.29" fill="#1c1c1c" d="M 586.5,669.5 C 587.906,669.973 588.573,670.973 588.5,672.5C 587.094,672.027 586.427,671.027 586.5,669.5 Z"/></g>
<g><path style="opacity:0.769" fill="#343434" d="M 1325.5,670.5 C 1322.92,672.472 1319.92,673.472 1316.5,673.5C 1319.22,671.928 1322.22,670.928 1325.5,670.5 Z"/></g>
<g><path style="opacity:0.137" fill="#151515" d="M 1070.5,672.5 C 1072.03,672.427 1073.03,673.094 1073.5,674.5C 1071.97,674.573 1070.97,673.906 1070.5,672.5 Z"/></g>
<g><path style="opacity:0.141" fill="#131313" d="M 588.5,672.5 C 589.906,672.973 590.573,673.973 590.5,675.5C 589.094,675.027 588.427,674.027 588.5,672.5 Z"/></g>
<g><path style="opacity:0.631" fill="#2d2d2d" d="M 614.5,673.5 C 610.195,675.746 605.529,677.08 600.5,677.5C 604.895,675.565 609.562,674.231 614.5,673.5 Z"/></g>
<g><path style="opacity:0.365" fill="#212121" d="M 1296.5,673.5 C 1297.91,673.973 1298.57,674.973 1298.5,676.5C 1297.09,676.027 1296.43,675.027 1296.5,673.5 Z"/></g>
<g><path style="opacity:0.682" fill="#282828" d="M 1312.5,674.5 C 1308.04,677.123 1303.37,677.789 1298.5,676.5C 1303.22,676.154 1307.88,675.487 1312.5,674.5 Z"/></g>
<g><path style="opacity:0.004" fill="#0a0a0a" d="M 885.5,678.5 C 885.027,679.906 884.027,680.573 882.5,680.5C 882.973,679.094 883.973,678.427 885.5,678.5 Z"/></g>
<g><path style="opacity:0.02" fill="#111111" d="M 880.5,682.5 C 880.027,683.906 879.027,684.573 877.5,684.5C 877.973,683.094 878.973,682.427 880.5,682.5 Z"/></g>
<g><path style="opacity:0.118" fill="#141414" d="M 1093.5,683.5 C 1095.03,683.427 1096.03,684.094 1096.5,685.5C 1094.97,685.573 1093.97,684.906 1093.5,683.5 Z"/></g>
<g><path style="opacity:0.835" fill="#292929" d="M 395.5,689.5 C 397.483,689.157 398.817,689.824 399.5,691.5C 397.847,691.34 396.514,690.674 395.5,689.5 Z"/></g>
<g><path style="opacity:0.016" fill="#101010" d="M 872.5,689.5 C 871.415,691.587 869.749,692.92 867.5,693.5C 868.585,691.413 870.251,690.08 872.5,689.5 Z"/></g>
<g><path style="opacity:0.012" fill="#131313" d="M 856.5,704.5 C 856.262,706.404 855.262,707.738 853.5,708.5C 853.738,706.596 854.738,705.262 856.5,704.5 Z"/></g>
<g><path style="opacity:0.827" fill="#2a2a2a" d="M 1153.5,710.5 C 1155.48,710.157 1156.82,710.824 1157.5,712.5C 1155.85,712.34 1154.51,711.674 1153.5,710.5 Z"/></g>
<g><path style="opacity:0.922" fill="#323232" d="M 459.5,717.5 C 462.491,717.166 464.824,718.166 466.5,720.5C 463.843,720.065 461.509,719.065 459.5,717.5 Z"/></g>
<g><path style="opacity:0.745" fill="#282828" d="M 1180.5,721.5 C 1182.7,721.12 1184.36,721.787 1185.5,723.5C 1183.6,723.204 1181.93,722.537 1180.5,721.5 Z"/></g>
<g><path style="opacity:0.933" fill="#313131" d="M 472.5,722.5 C 475.831,722.018 478.497,723.018 480.5,725.5C 477.603,724.871 474.936,723.871 472.5,722.5 Z"/></g>
<g><path style="opacity:0.02" fill="#0f0f0f" d="M 825.5,721.5 C 825.027,722.906 824.027,723.573 822.5,723.5C 822.973,722.094 823.973,721.427 825.5,721.5 Z"/></g>
<g><path style="opacity:0.462" fill="#3b3b3b" d="M 2520.5,690.5 C 2521.5,713.327 2521.83,736.327 2521.5,759.5C 2520.5,759.5 2519.5,759.5 2518.5,759.5C 2520.47,736.73 2521.14,713.73 2520.5,690.5 Z"/></g>
<g><path style="opacity:0.741" fill="#292929" d="M 1204.5,729.5 C 1206.7,729.12 1208.36,729.787 1209.5,731.5C 1207.6,731.204 1205.93,730.537 1204.5,729.5 Z"/></g>
<g><path style="opacity:0.539" fill="#363636" d="M 780.5,730.5 C 792.167,730.5 803.833,730.5 815.5,730.5C 815.217,731.289 814.717,731.956 814,732.5C 802.735,731.843 791.569,731.177 780.5,730.5 Z"/></g>
<g><path style="opacity:0.745" fill="#272727" d="M 499.5,731.5 C 501.898,731.259 503.898,731.926 505.5,733.5C 503.214,733.405 501.214,732.738 499.5,731.5 Z"/></g>
<g><path style="opacity:0.667" fill="#262626" d="M 1210.5,731.5 C 1212.9,731.259 1214.9,731.926 1216.5,733.5C 1214.21,733.405 1212.21,732.738 1210.5,731.5 Z"/></g>
<g><path style="opacity:0.712" fill="#3a3a3a" d="M 1854.5,733.5 C 1861.4,733.294 1868.06,733.961 1874.5,735.5C 1867.64,735.362 1860.97,734.696 1854.5,733.5 Z"/></g>
<g><path style="opacity:0.635" fill="#2f2f2f" d="M 505.5,733.5 C 508.228,733.171 510.562,733.837 512.5,735.5C 509.848,735.59 507.515,734.924 505.5,733.5 Z"/></g>
<g><path style="opacity:0.49" fill="#3a3a3a" d="M 1357.5,732.5 C 1356.78,734.764 1356.45,737.097 1356.5,739.5C 1355.85,738.726 1355.52,737.726 1355.5,736.5C 1355.34,734.645 1356.01,733.312 1357.5,732.5 Z"/></g>
<g><path style="opacity:0.745" fill="#282828" d="M 1223.5,735.5 C 1226.92,735.528 1229.92,736.528 1232.5,738.5C 1229.22,738.072 1226.22,737.072 1223.5,735.5 Z"/></g>
<g><path style="opacity:0.722" fill="#272727" d="M 518.5,737.5 C 520.898,737.259 522.898,737.926 524.5,739.5C 522.214,739.405 520.214,738.738 518.5,737.5 Z"/></g>
<g><path style="opacity:0.776" fill="#2b2b2b" d="M 1232.5,738.5 C 1236.53,738.517 1240.2,739.517 1243.5,741.5C 1239.57,741.074 1235.91,740.074 1232.5,738.5 Z"/></g>
<g><path style="opacity:0.749" fill="#262626" d="M 528.5,740.5 C 531.916,740.528 534.916,741.528 537.5,743.5C 534.215,743.072 531.215,742.072 528.5,740.5 Z"/></g>
<g><path style="opacity:0.675" fill="#252525" d="M 1908.5,741.5 C 1913.54,741.923 1918.21,743.256 1922.5,745.5C 1917.56,744.767 1912.89,743.434 1908.5,741.5 Z"/></g>
<g><path style="opacity:0.686" fill="#282828" d="M 538.5,743.5 C 540.898,743.259 542.898,743.926 544.5,745.5C 542.214,745.405 540.214,744.738 538.5,743.5 Z"/></g>
<g><path style="opacity:0.718" fill="#2c2c2c" d="M 1249.5,743.5 C 1252.5,743.294 1255.16,743.96 1257.5,745.5C 1254.57,745.435 1251.91,744.768 1249.5,743.5 Z"/></g>
<g><path style="opacity:0.753" fill="#282828" d="M 1927.5,746.5 C 1930.92,746.528 1933.92,747.528 1936.5,749.5C 1933.22,749.072 1930.22,748.072 1927.5,746.5 Z"/></g>
<g><path style="opacity:0.937" fill="#3e3e3e" d="M 1261.5,746.5 C 1265.84,746.658 1269.84,747.658 1273.5,749.5C 1269.16,749.416 1265.16,748.416 1261.5,746.5 Z"/></g>
<g><path style="opacity:0.894" fill="#2d2d2d" d="M 1936.5,749.5 C 1939.83,749.018 1942.5,750.018 1944.5,752.5C 1941.6,751.871 1938.94,750.871 1936.5,749.5 Z"/></g>
<g><path style="opacity:0.741" fill="#292929" d="M 1278.5,750.5 C 1281.72,750.345 1284.38,751.345 1286.5,753.5C 1283.6,752.871 1280.94,751.871 1278.5,750.5 Z"/></g>
<g><path style="opacity:0.741" fill="#272727" d="M 573.5,752.5 C 576.716,752.345 579.383,753.345 581.5,755.5C 578.603,754.871 575.936,753.871 573.5,752.5 Z"/></g>
<g><path style="opacity:0.929" fill="#333333" d="M 650.5,747.5 C 651.784,751.985 652.784,756.651 653.5,761.5C 651.044,757.262 650.044,752.596 650.5,747.5 Z"/></g>
<g><path style="opacity:0.204" fill="#1b1b1b" d="M 1292.5,755.5 C 1294.03,755.427 1295.03,756.094 1295.5,757.5C 1293.97,757.573 1292.97,756.906 1292.5,755.5 Z"/></g>
<g><path style="opacity:0.053" fill="#0e0e0e" d="M 586.5,757.5 C 588.027,757.427 589.027,758.094 589.5,759.5C 587.973,759.573 586.973,758.906 586.5,757.5 Z"/></g>
<g><path style="opacity:0.165" fill="#121212" d="M 1295.5,757.5 C 1297.03,757.427 1298.03,758.094 1298.5,759.5C 1296.97,759.573 1295.97,758.906 1295.5,757.5 Z"/></g>
<g><path style="opacity:0.557" fill="#202020" d="M 1298.5,759.5 C 1300.83,759.833 1302.17,761.167 1302.5,763.5C 1300.83,762.5 1299.5,761.167 1298.5,759.5 Z"/></g>
<g><path style="opacity:0.647" fill="#242424" d="M 591.5,760.5 C 594.167,761.167 595.833,762.833 596.5,765.5C 594.5,764.167 592.833,762.5 591.5,760.5 Z"/></g>
<g><path style="opacity:0.057" fill="#080808" d="M 1961.5,759.5 C 1963.38,759.229 1964.71,759.896 1965.5,761.5C 1963.85,761.34 1962.51,760.674 1961.5,759.5 Z"/></g>
<g><path style="opacity:0.773" fill="#2a2a2a" d="M 1302.5,763.5 C 1304.05,763.821 1304.71,764.821 1304.5,766.5C 1303.6,765.71 1302.93,764.71 1302.5,763.5 Z"/></g>
<g><path style="opacity:0.227" fill="#191919" d="M 1970.5,763.5 C 1972.03,763.427 1973.03,764.094 1973.5,765.5C 1971.97,765.573 1970.97,764.906 1970.5,763.5 Z"/></g>
<g><path style="opacity:0.443" fill="#232323" d="M 1977.5,767.5 C 1979.4,767.738 1980.74,768.738 1981.5,770.5C 1979.6,770.262 1978.26,769.262 1977.5,767.5 Z"/></g>
<g><path style="opacity:0.208" fill="#1d1d1d" d="M 1981.5,770.5 C 1983.03,770.427 1984.03,771.094 1984.5,772.5C 1982.97,772.573 1981.97,771.906 1981.5,770.5 Z"/></g>
<g><path style="opacity:0.596" fill="#232323" d="M 1984.5,772.5 C 1986.4,772.738 1987.74,773.738 1988.5,775.5C 1986.6,775.262 1985.26,774.262 1984.5,772.5 Z"/></g>
<g><path style="opacity:0.722" fill="#222222" d="M 1988.5,775.5 C 1992.83,777.833 1996.17,781.167 1998.5,785.5C 1994.83,782.5 1991.5,779.167 1988.5,775.5 Z"/></g>
<g><path style="opacity:0.593" fill="#434343" d="M 1305.5,768.5 C 1306.48,771.962 1306.81,775.629 1306.5,779.5C 1314.84,779.334 1323.17,779.5 1331.5,780C 1336.08,780.272 1340.41,781.105 1344.5,782.5C 1331.54,781.217 1318.54,780.55 1305.5,780.5C 1305.5,776.5 1305.5,772.5 1305.5,768.5 Z"/></g>
<g><path style="opacity:0.055" fill="#2a2a2a" d="M 599.5,777.5 C 599.5,778.833 599.5,780.167 599.5,781.5C 607.352,781.175 615.018,781.508 622.5,782.5C 614.5,782.5 606.5,782.5 598.5,782.5C 598.216,780.585 598.549,778.919 599.5,777.5 Z"/></g>
<g><path style="opacity:0.735" fill="#343434" d="M 1363.5,778.5 C 1364.46,780.265 1364.79,782.265 1364.5,784.5C 1358.63,784.404 1352.96,783.737 1347.5,782.5C 1352.85,782.569 1358.19,782.902 1363.5,783.5C 1363.5,781.833 1363.5,780.167 1363.5,778.5 Z"/></g>
<g><path style="opacity:0.825" fill="#3c3c3c" d="M 656.5,778.5 C 657.283,780.343 657.95,782.343 658.5,784.5C 658.291,785.086 657.957,785.586 657.5,786C 650.668,785.691 644.001,784.857 637.5,783.5C 643.838,783.767 650.171,784.1 656.5,784.5C 656.5,782.5 656.5,780.5 656.5,778.5 Z"/></g>
<g><path style="opacity:0.842" fill="#303030" d="M 2168.5,784.5 C 2162.02,785.598 2155.35,786.265 2148.5,786.5C 2149.26,785.732 2150.26,785.232 2151.5,785C 2157.16,784.501 2162.82,784.334 2168.5,784.5 Z"/></g>
<g><path style="opacity:0.008" fill="#121212" d="M 2000.5,787.5 C 2001.91,787.973 2002.57,788.973 2002.5,790.5C 2001.09,790.027 2000.43,789.027 2000.5,787.5 Z"/></g>
<g><path style="opacity:0.776" fill="#282828" d="M 2002.5,790.5 C 2004.97,791.607 2005.97,793.607 2005.5,796.5C 2004.51,794.574 2003.51,792.574 2002.5,790.5 Z"/></g>
<g><path style="opacity:0.905" fill="#303030" d="M 2087.5,790.5 C 2080.02,791.584 2072.35,792.251 2064.5,792.5C 2065.61,791.71 2066.94,791.21 2068.5,791C 2074.82,790.5 2081.16,790.334 2087.5,790.5 Z"/></g>
<g><path style="opacity:0.651" fill="#2e2e2e" d="M 2032.5,794.5 C 2029.03,795.525 2025.36,796.192 2021.5,796.5C 2021.61,795.883 2021.94,795.383 2022.5,795C 2025.82,794.502 2029.15,794.335 2032.5,794.5 Z"/></g>
</svg>
