<?xml version="1.0" encoding="UTF-8"?>
<!DOCTYPE svg PUBLIC "-//W3C//DTD SVG 1.1//EN" "http://www.w3.org/Graphics/SVG/1.1/DTD/svg11.dtd">
<svg xmlns="http://www.w3.org/2000/svg" version="1.1" width="2591px" height="1206px" style="shape-rendering:geometricPrecision; text-rendering:geometricPrecision; image-rendering:optimizeQuality; fill-rule:evenodd; clip-rule:evenodd" xmlns:xlink="http://www.w3.org/1999/xlink">
<g><path style="opacity:0.443" fill="#1f1f1f" d="M 2464.5,380.5 C 2462.49,380.392 2460.82,381.058 2459.5,382.5C 2459.41,381.504 2459.75,380.671 2460.5,380C 2462.07,379.235 2463.4,379.402 2464.5,380.5 Z"/></g>
<g><path style="opacity:0.999" fill="#636363" d="M 2464.5,380.5 C 2465.17,381.833 2466.17,382.833 2467.5,383.5C 2468.11,385.434 2469.11,387.101 2470.5,388.5C 2471.34,388.842 2471.67,389.508 2471.5,390.5C 2471.12,392.698 2471.79,394.365 2473.5,395.5C 2476.27,400.8 2478.27,406.467 2479.5,412.5C 2479.26,414.898 2479.93,416.898 2481.5,418.5C 2482.4,419.209 2482.74,420.209 2482.5,421.5C 2482.53,424.916 2483.53,427.916 2485.5,430.5C 2486.43,431.568 2486.77,432.901 2486.5,434.5C 2486.41,437.152 2487.08,439.485 2488.5,441.5C 2488.53,444.916 2489.53,447.916 2491.5,450.5C 2491.5,450.833 2491.5,451.167 2491.5,451.5C 2491.29,454.495 2491.96,457.162 2493.5,459.5C 2498.01,479.035 2502.01,498.701 2505.5,518.5C 2505.41,521.152 2506.08,523.485 2507.5,525.5C 2507.5,525.833 2507.5,526.167 2507.5,526.5C 2507.42,529.781 2508.09,532.781 2509.5,535.5C 2510.45,536.919 2510.78,538.585 2510.5,540.5C 2510.41,543.152 2511.08,545.485 2512.5,547.5C 2512.5,547.833 2512.5,548.167 2512.5,548.5C 2512.29,551.495 2512.96,554.162 2514.5,556.5C 2517.47,568.009 2519.8,579.676 2521.5,591.5C 2521.26,593.898 2521.93,595.898 2523.5,597.5C 2525.49,604.416 2526.16,611.416 2525.5,618.5C 2523.97,618.427 2522.97,619.094 2522.5,620.5C 2520.74,621.461 2518.74,621.795 2516.5,621.5C 2515.83,620.167 2514.83,619.167 2513.5,618.5C 2512.66,618.158 2512.33,617.492 2512.5,616.5C 2512.71,614.821 2512.05,613.821 2510.5,613.5C 2509.56,611.95 2508.89,610.284 2508.5,608.5C 2508.55,605.008 2507.55,602.008 2505.5,599.5C 2505.17,597.5 2504.83,595.5 2504.5,593.5C 2503.5,584.142 2501.5,575.142 2498.5,566.5C 2496.97,560.961 2495.97,555.294 2495.5,549.5C 2495.89,546.447 2495.22,543.78 2493.5,541.5C 2492.7,539.958 2492.37,538.292 2492.5,536.5C 2492.44,532.78 2491.94,529.114 2491,525.5C 2490.62,524.944 2490.12,524.611 2489.5,524.5C 2489.5,523.833 2489.5,523.167 2489.5,522.5C 2489.59,519.848 2488.92,517.515 2487.5,515.5C 2487.59,512.848 2486.92,510.515 2485.5,508.5C 2483.98,506.11 2482.98,503.443 2482.5,500.5C 2482.6,498.447 2481.93,496.78 2480.5,495.5C 2474.81,483.109 2468.81,470.776 2462.5,458.5C 2462.25,456.326 2461.25,454.659 2459.5,453.5C 2459.71,451.821 2459.05,450.821 2457.5,450.5C 2456.66,450.158 2456.33,449.492 2456.5,448.5C 2456.45,446.368 2455.45,445.035 2453.5,444.5C 2452.51,443.205 2451.51,441.872 2450.5,440.5C 2450.57,438.973 2449.91,437.973 2448.5,437.5C 2447.5,437.167 2446.83,436.5 2446.5,435.5C 2444.5,431.5 2441.5,428.5 2437.5,426.5C 2437.03,425.094 2436.03,424.427 2434.5,424.5C 2435.11,423.609 2435.44,422.609 2435.5,421.5C 2436.91,421.027 2437.57,420.027 2437.5,418.5C 2439.26,417.738 2440.26,416.404 2440.5,414.5C 2442.26,413.738 2443.26,412.404 2443.5,410.5C 2443.33,409.508 2443.66,408.842 2444.5,408.5C 2445.91,408.027 2446.57,407.027 2446.5,405.5C 2447.91,405.027 2448.57,404.027 2448.5,402.5C 2448.33,401.508 2448.66,400.842 2449.5,400.5C 2450.91,400.027 2451.57,399.027 2451.5,397.5C 2452.33,394.515 2453.66,391.849 2455.5,389.5C 2456.91,389.027 2457.57,388.027 2457.5,386.5C 2457.66,384.847 2458.33,383.514 2459.5,382.5C 2460.82,381.058 2462.49,380.392 2464.5,380.5 Z"/></g>
<g><path style="opacity:0.008" fill="#0d0d0d" d="M 2464.5,380.5 C 2466.5,380.5 2467.5,381.5 2467.5,383.5C 2466.17,382.833 2465.17,381.833 2464.5,380.5 Z"/></g>
<g><path style="opacity:0.349" fill="#212121" d="M 2467.5,383.5 C 2469.73,384.401 2470.73,386.067 2470.5,388.5C 2469.11,387.101 2468.11,385.434 2467.5,383.5 Z"/></g>
<g><path style="opacity:0.243" fill="#1d1d1d" d="M 2457.5,386.5 C 2457.57,388.027 2456.91,389.027 2455.5,389.5C 2455.43,387.973 2456.09,386.973 2457.5,386.5 Z"/></g>
<g><path style="opacity:0.847" fill="#333333" d="M 2471.5,390.5 C 2472.54,391.93 2473.2,393.597 2473.5,395.5C 2471.79,394.365 2471.12,392.698 2471.5,390.5 Z"/></g>
<g><path style="opacity:0.251" fill="#181818" d="M 2451.5,397.5 C 2451.57,399.027 2450.91,400.027 2449.5,400.5C 2449.43,398.973 2450.09,397.973 2451.5,397.5 Z"/></g>
<g><path style="opacity:0.239" fill="#181818" d="M 2448.5,402.5 C 2448.57,404.027 2447.91,405.027 2446.5,405.5C 2446.43,403.973 2447.09,402.973 2448.5,402.5 Z"/></g>
<g><path style="opacity:0.188" fill="#131313" d="M 2446.5,405.5 C 2446.57,407.027 2445.91,408.027 2444.5,408.5C 2444.43,406.973 2445.09,405.973 2446.5,405.5 Z"/></g>
<g><path style="opacity:0.486" fill="#282828" d="M 2443.5,410.5 C 2443.26,412.404 2442.26,413.738 2440.5,414.5C 2440.74,412.596 2441.74,411.262 2443.5,410.5 Z"/></g>
<g><path style="opacity:0.639" fill="#232323" d="M 2440.5,414.5 C 2440.26,416.404 2439.26,417.738 2437.5,418.5C 2437.74,416.596 2438.74,415.262 2440.5,414.5 Z"/></g>
<g><path style="opacity:0.702" fill="#272727" d="M 2479.5,412.5 C 2480.74,414.214 2481.41,416.214 2481.5,418.5C 2479.93,416.898 2479.26,414.898 2479.5,412.5 Z"/></g>
<g><path style="opacity:0.357" fill="#232323" d="M 2437.5,418.5 C 2437.57,420.027 2436.91,421.027 2435.5,421.5C 2435.43,419.973 2436.09,418.973 2437.5,418.5 Z"/></g>
<g><path style="opacity:0.737" fill="#2a2a2a" d="M 2435.5,421.5 C 2435.44,422.609 2435.11,423.609 2434.5,424.5C 2433.28,423.221 2433.62,422.221 2435.5,421.5 Z"/></g>
<g><path style="opacity:0.612" fill="#242424" d="M 2434.5,424.5 C 2436.03,424.427 2437.03,425.094 2437.5,426.5C 2435.97,426.573 2434.97,425.906 2434.5,424.5 Z"/></g>
<g><path style="opacity:0.682" fill="#222222" d="M 2482.5,421.5 C 2484.07,424.215 2485.07,427.215 2485.5,430.5C 2483.53,427.916 2482.53,424.916 2482.5,421.5 Z"/></g>
<g><path style="opacity:0.776" fill="#232323" d="M 2437.5,426.5 C 2441.5,428.5 2444.5,431.5 2446.5,435.5C 2443.17,432.833 2440.17,429.833 2437.5,426.5 Z"/></g>
<g><path style="opacity:0.71" fill="#2c2c2c" d="M 2486.5,434.5 C 2487.92,436.515 2488.59,438.848 2488.5,441.5C 2487.08,439.485 2486.41,437.152 2486.5,434.5 Z"/></g>
<g><path style="opacity:0.024" fill="#131313" d="M 2448.5,437.5 C 2449.91,437.973 2450.57,438.973 2450.5,440.5C 2449.09,440.027 2448.43,439.027 2448.5,437.5 Z"/></g>
<g><path style="opacity:0.843" fill="#2b2b2b" d="M 2453.5,444.5 C 2455.45,445.035 2456.45,446.368 2456.5,448.5C 2455.03,447.564 2454.03,446.23 2453.5,444.5 Z"/></g>
<g><path style="opacity:0.776" fill="#282828" d="M 2488.5,441.5 C 2490.07,444.215 2491.07,447.215 2491.5,450.5C 2489.53,447.916 2488.53,444.916 2488.5,441.5 Z"/></g>
<g><path style="opacity:0.839" fill="#2e2e2e" d="M 2457.5,450.5 C 2459.05,450.821 2459.71,451.821 2459.5,453.5C 2458.6,452.71 2457.93,451.71 2457.5,450.5 Z"/></g>
<g><path style="opacity:0.094" fill="#121212" d="M 2459.5,453.5 C 2461.25,454.659 2462.25,456.326 2462.5,458.5C 2460.75,457.341 2459.75,455.674 2459.5,453.5 Z"/></g>
<g><path style="opacity:0.49" fill="#272727" d="M 2491.5,451.5 C 2492.77,453.905 2493.43,456.572 2493.5,459.5C 2491.96,457.162 2491.29,454.495 2491.5,451.5 Z"/></g>
<g><path style="opacity:0.204" fill="#1b1b1b" d="M 2480.5,495.5 C 2481.93,496.78 2482.6,498.447 2482.5,500.5C 2481.07,499.22 2480.4,497.553 2480.5,495.5 Z"/></g>
<g><path style="opacity:0.043" fill="#181818" d="M 2485.5,508.5 C 2486.92,510.515 2487.59,512.848 2487.5,515.5C 2486.08,513.485 2485.41,511.152 2485.5,508.5 Z"/></g>
<g><path style="opacity:0.01" fill="#141414" d="M 2487.5,515.5 C 2488.92,517.515 2489.59,519.848 2489.5,522.5C 2488.08,520.485 2487.41,518.152 2487.5,515.5 Z"/></g>
<g><path style="opacity:0.01" fill="#1b1b1b" d="M 2505.5,518.5 C 2506.92,520.515 2507.59,522.848 2507.5,525.5C 2506.08,523.485 2505.41,521.152 2505.5,518.5 Z"/></g>
<g><path style="opacity:0.635" fill="#262626" d="M 2489.5,524.5 C 2490.12,524.611 2490.62,524.944 2491,525.5C 2491.94,529.114 2492.44,532.78 2492.5,536.5C 2491.26,532.671 2490.26,528.671 2489.5,524.5 Z"/></g>
<g><path style="opacity:0.69" fill="#2b2b2b" d="M 2507.5,526.5 C 2508.91,529.219 2509.58,532.219 2509.5,535.5C 2508.09,532.781 2507.42,529.781 2507.5,526.5 Z"/></g>
<g><path style="opacity:0.06" fill="#1a1a1a" d="M 2510.5,540.5 C 2511.92,542.515 2512.59,544.848 2512.5,547.5C 2511.08,545.485 2510.41,543.152 2510.5,540.5 Z"/></g>
<g><path style="opacity:0.722" fill="#2e2e2e" d="M 2493.5,541.5 C 2495.22,543.78 2495.89,546.447 2495.5,549.5C 2494.47,547.039 2493.8,544.373 2493.5,541.5 Z"/></g>
<g><path style="opacity:0.29" fill="#222222" d="M 2512.5,548.5 C 2513.77,550.905 2514.43,553.572 2514.5,556.5C 2512.96,554.162 2512.29,551.495 2512.5,548.5 Z"/></g>
<g><path style="opacity:0.22" fill="#252525" d="M 2498.5,566.5 C 2501.5,575.142 2503.5,584.142 2504.5,593.5C 2502.01,584.727 2500.01,575.727 2498.5,566.5 Z"/></g>
<g><path style="opacity:0.62" fill="#222222" d="M 2521.5,591.5 C 2522.74,593.214 2523.41,595.214 2523.5,597.5C 2521.93,595.898 2521.26,593.898 2521.5,591.5 Z"/></g>
<g><path style="opacity:0.494" fill="#202020" d="M 2505.5,599.5 C 2507.55,602.008 2508.55,605.008 2508.5,608.5C 2507.05,605.746 2506.05,602.746 2505.5,599.5 Z"/></g>
<g><path style="opacity:0.867" fill="#313131" d="M 2510.5,613.5 C 2512.05,613.821 2512.71,614.821 2512.5,616.5C 2511.6,615.71 2510.93,614.71 2510.5,613.5 Z"/></g>
<g><path style="opacity:0.016" fill="#121212" d="M 2513.5,618.5 C 2514.83,619.167 2515.83,620.167 2516.5,621.5C 2514.5,621.5 2513.5,620.5 2513.5,618.5 Z"/></g>
<g><path style="opacity:0.004" fill="#090909" d="M 2525.5,618.5 C 2525.03,619.906 2524.03,620.573 2522.5,620.5C 2522.97,619.094 2523.97,618.427 2525.5,618.5 Z"/></g>
</svg>
