<?xml version="1.0" encoding="UTF-8"?>
<!DOCTYPE svg PUBLIC "-//W3C//DTD SVG 1.1//EN" "http://www.w3.org/Graphics/SVG/1.1/DTD/svg11.dtd">
<svg xmlns="http://www.w3.org/2000/svg" version="1.1" width="2591px" height="1206px" style="shape-rendering:geometricPrecision; text-rendering:geometricPrecision; image-rendering:optimizeQuality; fill-rule:evenodd; clip-rule:evenodd" xmlns:xlink="http://www.w3.org/1999/xlink">
<g><path style="opacity:0.375" fill="#333333" d="M 1991.5,184.5 C 1975.4,182.791 1959.4,183.457 1943.5,186.5C 1946.2,185.037 1949.2,184.204 1952.5,184C 1965.68,181.846 1978.68,182.012 1991.5,184.5 Z"/></g>
<g><path style="opacity:1" fill="#666666" d="M 1991.5,184.5 C 1993.95,184.298 1996.28,184.631 1998.5,185.5C 2000.44,187.163 2002.77,187.829 2005.5,187.5C 2007.56,187.517 2009.56,187.85 2011.5,188.5C 2012.99,190.28 2014.99,190.946 2017.5,190.5C 2019.1,192.074 2021.1,192.741 2023.5,192.5C 2024.17,192.5 2024.83,192.5 2025.5,192.5C 2026.64,194.213 2028.3,194.88 2030.5,194.5C 2034.47,195.044 2038.13,196.377 2041.5,198.5C 2041.82,200.048 2042.82,200.715 2044.5,200.5C 2044.97,201.906 2045.97,202.573 2047.5,202.5C 2049.93,203.653 2049.93,204.653 2047.5,205.5C 2039.57,206.068 2031.9,207.734 2024.5,210.5C 2022.45,210.402 2020.78,211.069 2019.5,212.5C 2009.04,218.232 1998.7,224.232 1988.5,230.5C 1986.97,230.427 1985.97,231.094 1985.5,232.5C 1984.56,233.974 1983.23,234.974 1981.5,235.5C 1979.97,235.427 1978.97,236.094 1978.5,237.5C 1969.89,244.77 1961.56,252.437 1953.5,260.5C 1952.09,260.973 1951.43,261.973 1951.5,263.5C 1948.33,267.509 1945.33,271.676 1942.5,276C 1928.76,276.854 1915.09,276.354 1901.5,274.5C 1899.09,273.232 1896.43,272.565 1893.5,272.5C 1893.17,272.5 1892.83,272.5 1892.5,272.5C 1889.08,269.804 1885.08,268.47 1880.5,268.5C 1874.5,267.501 1868.5,266.501 1862.5,265.5C 1862.39,264.883 1862.06,264.383 1861.5,264C 1851.87,262.802 1842.2,262.302 1832.5,262.5C 1832.5,262.167 1832.5,261.833 1832.5,261.5C 1839.83,254.833 1846.83,247.833 1853.5,240.5C 1853.5,239.833 1853.83,239.5 1854.5,239.5C 1856.17,238.5 1857.5,237.167 1858.5,235.5C 1861.43,234.243 1863.76,232.243 1865.5,229.5C 1866.83,228.833 1867.83,227.833 1868.5,226.5C 1870.4,226.262 1871.74,225.262 1872.5,223.5C 1873.5,223.167 1874.17,222.5 1874.5,221.5C 1876.03,221.573 1877.03,220.906 1877.5,219.5C 1879.75,218.92 1881.42,217.587 1882.5,215.5C 1884.03,215.573 1885.03,214.906 1885.5,213.5C 1887.75,212.92 1889.42,211.587 1890.5,209.5C 1890.84,208.662 1891.51,208.328 1892.5,208.5C 1894.03,208.573 1895.03,207.906 1895.5,206.5C 1897.03,206.573 1898.03,205.906 1898.5,204.5C 1899.51,203.326 1900.85,202.66 1902.5,202.5C 1904.03,202.573 1905.03,201.906 1905.5,200.5C 1907.43,198.707 1909.76,197.707 1912.5,197.5C 1914.15,197.34 1915.49,196.674 1916.5,195.5C 1920.36,195.23 1923.69,193.897 1926.5,191.5C 1927.21,190.596 1928.21,190.263 1929.5,190.5C 1933.16,190.277 1936.5,189.277 1939.5,187.5C 1940.57,186.566 1941.9,186.232 1943.5,186.5C 1959.4,183.457 1975.4,182.791 1991.5,184.5 Z"/></g>
<g><path style="opacity:1" fill="#656565" d="M 1306.5,190.5 C 1309.08,192.472 1312.08,193.472 1315.5,193.5C 1323.31,195.08 1330.64,197.746 1337.5,201.5C 1338.03,203.446 1339.37,204.446 1341.5,204.5C 1339.84,206.06 1337.84,207.06 1335.5,207.5C 1327.91,208.753 1320.57,210.92 1313.5,214C 1301.45,220.23 1289.78,227.064 1278.5,234.5C 1276.97,234.427 1275.97,235.094 1275.5,236.5C 1275.5,237.167 1275.17,237.5 1274.5,237.5C 1272.97,237.427 1271.97,238.094 1271.5,239.5C 1262.89,246.77 1254.56,254.437 1246.5,262.5C 1244.74,263.262 1243.74,264.596 1243.5,266.5C 1240.68,270.482 1237.68,274.315 1234.5,278C 1220.7,278.566 1207.04,277.733 1193.5,275.5C 1191.09,274.232 1188.43,273.565 1185.5,273.5C 1184.04,273.567 1182.71,273.234 1181.5,272.5C 1180.36,270.787 1178.7,270.12 1176.5,270.5C 1172.71,270.341 1169.04,269.675 1165.5,268.5C 1160.2,266.126 1154.54,265.126 1148.5,265.5C 1147.83,265.5 1147.17,265.5 1146.5,265.5C 1140.01,264.672 1133.35,264.172 1126.5,264C 1127.25,263.329 1127.59,262.496 1127.5,261.5C 1134.83,254.833 1141.83,247.833 1148.5,240.5C 1148.5,239.833 1148.83,239.5 1149.5,239.5C 1150.83,238.833 1151.83,237.833 1152.5,236.5C 1155.76,234.906 1158.43,232.573 1160.5,229.5C 1161.5,229.167 1162.17,228.5 1162.5,227.5C 1164.4,227.262 1165.74,226.262 1166.5,224.5C 1168.75,223.92 1170.42,222.587 1171.5,220.5C 1173.75,219.92 1175.42,218.587 1176.5,216.5C 1178.4,216.262 1179.74,215.262 1180.5,213.5C 1182.03,213.573 1183.03,212.906 1183.5,211.5C 1185.03,211.573 1186.03,210.906 1186.5,209.5C 1188.03,209.573 1189.03,208.906 1189.5,207.5C 1191.03,207.573 1192.03,206.906 1192.5,205.5C 1194.18,203.992 1196.18,202.992 1198.5,202.5C 1200.67,202.25 1202.34,201.25 1203.5,199.5C 1204.39,198.89 1205.39,198.557 1206.5,198.5C 1209.49,198.834 1211.82,197.834 1213.5,195.5C 1215.9,195.741 1217.9,195.074 1219.5,193.5C 1223.53,192.975 1227.2,191.642 1230.5,189.5C 1255.81,181.516 1281.15,181.85 1306.5,190.5 Z"/></g>
<g><path style="opacity:0.592" fill="#292929" d="M 1998.5,185.5 C 2001.07,185.721 2003.4,186.388 2005.5,187.5C 2002.77,187.829 2000.44,187.163 1998.5,185.5 Z"/></g>
<g><path style="opacity:0.631" fill="#2b2b2b" d="M 1939.5,187.5 C 1936.5,189.277 1933.16,190.277 1929.5,190.5C 1932.5,188.723 1935.84,187.723 1939.5,187.5 Z"/></g>
<g><path style="opacity:0.537" fill="#272727" d="M 2011.5,188.5 C 2013.7,188.875 2015.7,189.542 2017.5,190.5C 2014.99,190.946 2012.99,190.28 2011.5,188.5 Z"/></g>
<g><path style="opacity:0.714" fill="#313131" d="M 1230.5,189.5 C 1227.2,191.642 1223.53,192.975 1219.5,193.5C 1222.8,191.399 1226.46,190.065 1230.5,189.5 Z"/></g>
<g><path style="opacity:0.541" fill="#2c2c2c" d="M 2017.5,190.5 C 2019.79,190.595 2021.79,191.262 2023.5,192.5C 2021.1,192.741 2019.1,192.074 2017.5,190.5 Z"/></g>
<g><path style="opacity:0.51" fill="#282828" d="M 1306.5,190.5 C 1309.78,190.928 1312.78,191.928 1315.5,193.5C 1312.08,193.472 1309.08,192.472 1306.5,190.5 Z"/></g>
<g><path style="opacity:0.71" fill="#333333" d="M 1926.5,191.5 C 1923.69,193.897 1920.36,195.23 1916.5,195.5C 1919.52,193.6 1922.85,192.267 1926.5,191.5 Z"/></g>
<g><path style="opacity:0.439" fill="#222222" d="M 2025.5,192.5 C 2027.4,192.796 2029.07,193.463 2030.5,194.5C 2028.3,194.88 2026.64,194.213 2025.5,192.5 Z"/></g>
<g><path style="opacity:0.82" fill="#323232" d="M 1219.5,193.5 C 1217.9,195.074 1215.9,195.741 1213.5,195.5C 1215.1,193.926 1217.1,193.259 1219.5,193.5 Z"/></g>
<g><path style="opacity:0.475" fill="#222222" d="M 1916.5,195.5 C 1915.49,196.674 1914.15,197.34 1912.5,197.5C 1913.29,195.896 1914.62,195.229 1916.5,195.5 Z"/></g>
<g><path style="opacity:0.941" fill="#3b3b3b" d="M 1213.5,195.5 C 1211.82,197.834 1209.49,198.834 1206.5,198.5C 1208.43,196.707 1210.76,195.707 1213.5,195.5 Z"/></g>
<g><path style="opacity:0.8" fill="#2c2c2c" d="M 2041.5,198.5 C 2042.71,198.932 2043.71,199.599 2044.5,200.5C 2042.82,200.715 2041.82,200.048 2041.5,198.5 Z"/></g>
<g><path style="opacity:0.133" fill="#131313" d="M 1203.5,199.5 C 1202.34,201.25 1200.67,202.25 1198.5,202.5C 1199.66,200.75 1201.33,199.75 1203.5,199.5 Z"/></g>
<g><path style="opacity:0.008" fill="#0f0f0f" d="M 2044.5,200.5 C 2046.03,200.427 2047.03,201.094 2047.5,202.5C 2045.97,202.573 2044.97,201.906 2044.5,200.5 Z"/></g>
<g><path style="opacity:0.576" fill="#272727" d="M 1905.5,200.5 C 1905.03,201.906 1904.03,202.573 1902.5,202.5C 1902.97,201.094 1903.97,200.427 1905.5,200.5 Z"/></g>
<g><path style="opacity:0.027" fill="#1d1d1d" d="M 1337.5,201.5 C 1339.23,202.026 1340.56,203.026 1341.5,204.5C 1339.37,204.446 1338.03,203.446 1337.5,201.5 Z"/></g>
<g><path style="opacity:0.537" fill="#222222" d="M 1898.5,204.5 C 1898.03,205.906 1897.03,206.573 1895.5,206.5C 1895.97,205.094 1896.97,204.427 1898.5,204.5 Z"/></g>
<g><path style="opacity:0.392" fill="#191919" d="M 1192.5,205.5 C 1192.03,206.906 1191.03,207.573 1189.5,207.5C 1189.97,206.094 1190.97,205.427 1192.5,205.5 Z"/></g>
<g><path style="opacity:0.076" fill="#1f1f1f" d="M 1341.5,204.5 C 1342.4,205.209 1342.74,206.209 1342.5,207.5C 1340.17,207.5 1337.83,207.5 1335.5,207.5C 1337.84,207.06 1339.84,206.06 1341.5,204.5 Z"/></g>
<g><path style="opacity:0.62" fill="#262626" d="M 1895.5,206.5 C 1895.03,207.906 1894.03,208.573 1892.5,208.5C 1892.97,207.094 1893.97,206.427 1895.5,206.5 Z"/></g>
<g><path style="opacity:0.494" fill="#222222" d="M 1189.5,207.5 C 1189.03,208.906 1188.03,209.573 1186.5,209.5C 1186.97,208.094 1187.97,207.427 1189.5,207.5 Z"/></g>
<g><path style="opacity:0.518" fill="#252525" d="M 1186.5,209.5 C 1186.03,210.906 1185.03,211.573 1183.5,211.5C 1183.97,210.094 1184.97,209.427 1186.5,209.5 Z"/></g>
<g><path style="opacity:0.045" fill="#151515" d="M 2024.5,210.5 C 2023.22,211.931 2021.55,212.598 2019.5,212.5C 2020.78,211.069 2022.45,210.402 2024.5,210.5 Z"/></g>
<g><path style="opacity:0.482" fill="#1d1d1d" d="M 1183.5,211.5 C 1183.03,212.906 1182.03,213.573 1180.5,213.5C 1180.97,212.094 1181.97,211.427 1183.5,211.5 Z"/></g>
<g><path style="opacity:0.757" fill="#2a2a2a" d="M 1890.5,209.5 C 1889.42,211.587 1887.75,212.92 1885.5,213.5C 1886.58,211.413 1888.25,210.08 1890.5,209.5 Z"/></g>
<g><path style="opacity:0.353" fill="#1d1d1d" d="M 1180.5,213.5 C 1179.74,215.262 1178.4,216.262 1176.5,216.5C 1177.26,214.738 1178.6,213.738 1180.5,213.5 Z"/></g>
<g><path style="opacity:0.624" fill="#2d2d2d" d="M 1885.5,213.5 C 1885.03,214.906 1884.03,215.573 1882.5,215.5C 1882.97,214.094 1883.97,213.427 1885.5,213.5 Z"/></g>
<g><path style="opacity:0.408" fill="#272727" d="M 1882.5,215.5 C 1881.42,217.587 1879.75,218.92 1877.5,219.5C 1878.58,217.413 1880.25,216.08 1882.5,215.5 Z"/></g>
<g><path style="opacity:0.745" fill="#2c2c2c" d="M 1176.5,216.5 C 1175.42,218.587 1173.75,219.92 1171.5,220.5C 1172.58,218.413 1174.25,217.08 1176.5,216.5 Z"/></g>
<g><path style="opacity:0.565" fill="#232323" d="M 1877.5,219.5 C 1877.03,220.906 1876.03,221.573 1874.5,221.5C 1874.97,220.094 1875.97,219.427 1877.5,219.5 Z"/></g>
<g><path style="opacity:0.149" fill="#0c0c0c" d="M 1874.5,221.5 C 1874.17,222.5 1873.5,223.167 1872.5,223.5C 1872.5,222.167 1873.17,221.5 1874.5,221.5 Z"/></g>
<g><path style="opacity:0.784" fill="#323232" d="M 1171.5,220.5 C 1170.42,222.587 1168.75,223.92 1166.5,224.5C 1167.58,222.413 1169.25,221.08 1171.5,220.5 Z"/></g>
<g><path style="opacity:0.506" fill="#282828" d="M 1872.5,223.5 C 1871.74,225.262 1870.4,226.262 1868.5,226.5C 1869.26,224.738 1870.6,223.738 1872.5,223.5 Z"/></g>
<g><path style="opacity:0.486" fill="#272727" d="M 1166.5,224.5 C 1165.74,226.262 1164.4,227.262 1162.5,227.5C 1163.26,225.738 1164.6,224.738 1166.5,224.5 Z"/></g>
<g><path style="opacity:0.173" fill="#0f0f0f" d="M 1162.5,227.5 C 1162.17,228.5 1161.5,229.167 1160.5,229.5C 1160.5,228.167 1161.17,227.5 1162.5,227.5 Z"/></g>
<g><path style="opacity:0.259" fill="#131313" d="M 1868.5,226.5 C 1867.83,227.833 1866.83,228.833 1865.5,229.5C 1865.5,227.5 1866.5,226.5 1868.5,226.5 Z"/></g>
<g><path style="opacity:0.012" fill="#0c0c0c" d="M 1988.5,230.5 C 1988.03,231.906 1987.03,232.573 1985.5,232.5C 1985.97,231.094 1986.97,230.427 1988.5,230.5 Z"/></g>
<g><path style="opacity:0.659" fill="#2d2d2d" d="M 1160.5,229.5 C 1158.43,232.573 1155.76,234.906 1152.5,236.5C 1154.57,233.427 1157.24,231.094 1160.5,229.5 Z"/></g>
<g><path style="opacity:0.69" fill="#2f2f2f" d="M 1865.5,229.5 C 1863.76,232.243 1861.43,234.243 1858.5,235.5C 1860.24,232.757 1862.57,230.757 1865.5,229.5 Z"/></g>
<g><path style="opacity:0.004" fill="#090909" d="M 1278.5,234.5 C 1278.03,235.906 1277.03,236.573 1275.5,236.5C 1275.97,235.094 1276.97,234.427 1278.5,234.5 Z"/></g>
<g><path style="opacity:0.286" fill="#111111" d="M 1858.5,235.5 C 1857.5,237.167 1856.17,238.5 1854.5,239.5C 1854.83,237.167 1856.17,235.833 1858.5,235.5 Z"/></g>
<g><path style="opacity:0.004" fill="#0d0d0d" d="M 1981.5,235.5 C 1981.03,236.906 1980.03,237.573 1978.5,237.5C 1978.97,236.094 1979.97,235.427 1981.5,235.5 Z"/></g>
<g><path style="opacity:0.286" fill="#121212" d="M 1152.5,236.5 C 1151.83,237.833 1150.83,238.833 1149.5,239.5C 1149.5,237.5 1150.5,236.5 1152.5,236.5 Z"/></g>
<g><path style="opacity:0.004" fill="#060606" d="M 1274.5,237.5 C 1274.03,238.906 1273.03,239.573 1271.5,239.5C 1271.97,238.094 1272.97,237.427 1274.5,237.5 Z"/></g>
<g><path style="opacity:0.545" fill="#272727" d="M 1148.5,240.5 C 1141.83,247.833 1134.83,254.833 1127.5,261.5C 1127.37,260.761 1127.54,260.094 1128,259.5C 1134.42,252.572 1141.26,246.238 1148.5,240.5 Z"/></g>
<g><path style="opacity:0.537" fill="#232323" d="M 1853.5,240.5 C 1846.83,247.833 1839.83,254.833 1832.5,261.5C 1832.37,260.761 1832.54,260.094 1833,259.5C 1839.42,252.572 1846.26,246.238 1853.5,240.5 Z"/></g>
<g><path style="opacity:0.02" fill="#131313" d="M 1953.5,260.5 C 1953.57,262.027 1952.91,263.027 1951.5,263.5C 1951.43,261.973 1952.09,260.973 1953.5,260.5 Z"/></g>
<g><path style="opacity:0.89" fill="#3c3c3c" d="M 1832.5,262.5 C 1842.2,262.302 1851.87,262.802 1861.5,264C 1862.06,264.383 1862.39,264.883 1862.5,265.5C 1853.19,264.779 1843.86,264.279 1834.5,264C 1833.58,263.722 1832.92,263.222 1832.5,262.5 Z"/></g>
<g><path style="opacity:0.325" fill="#333333" d="M 1127.5,261.5 C 1127.59,262.496 1127.25,263.329 1126.5,264C 1133.35,264.172 1140.01,264.672 1146.5,265.5C 1139.5,265.5 1132.5,265.5 1125.5,265.5C 1125.23,263.62 1125.9,262.287 1127.5,261.5 Z"/></g>
<g><path style="opacity:0.024" fill="#121212" d="M 1246.5,262.5 C 1246.26,264.404 1245.26,265.738 1243.5,266.5C 1243.74,264.596 1244.74,263.262 1246.5,262.5 Z"/></g>
<g><path style="opacity:0.863" fill="#343434" d="M 1148.5,265.5 C 1154.54,265.126 1160.2,266.126 1165.5,268.5C 1159.68,267.601 1154.02,266.601 1148.5,265.5 Z"/></g>
<g><path style="opacity:0.827" fill="#2b2b2b" d="M 1880.5,268.5 C 1885.08,268.47 1889.08,269.804 1892.5,272.5C 1888.3,271.458 1884.3,270.125 1880.5,268.5 Z"/></g>
<g><path style="opacity:0.773" fill="#2c2c2c" d="M 1176.5,270.5 C 1178.7,270.12 1180.36,270.787 1181.5,272.5C 1179.6,272.204 1177.93,271.537 1176.5,270.5 Z"/></g>
<g><path style="opacity:0.788" fill="#323232" d="M 1185.5,273.5 C 1188.43,273.565 1191.09,274.232 1193.5,275.5C 1190.5,275.706 1187.84,275.04 1185.5,273.5 Z"/></g>
<g><path style="opacity:0.204" fill="#1b1b1b" d="M 1893.5,272.5 C 1896.43,272.565 1899.09,273.232 1901.5,274.5C 1898.5,274.706 1895.84,274.04 1893.5,272.5 Z"/></g>
</svg>
