<?xml version="1.0" encoding="UTF-8"?>
<!DOCTYPE svg PUBLIC "-//W3C//DTD SVG 1.1//EN" "http://www.w3.org/Graphics/SVG/1.1/DTD/svg11.dtd">
<svg xmlns="http://www.w3.org/2000/svg" version="1.1" width="2591px" height="1206px" style="shape-rendering:geometricPrecision; text-rendering:geometricPrecision; image-rendering:optimizeQuality; fill-rule:evenodd; clip-rule:evenodd" xmlns:xlink="http://www.w3.org/1999/xlink">
<g><path style="opacity:0.62" fill="#282828" d="M 2050.5,213.5 C 2049.37,212.878 2048.37,212.045 2047.5,211C 2046.17,210.833 2044.83,210.667 2043.5,210.5C 2039.53,211.38 2035.53,212.047 2031.5,212.5C 2036.78,209.833 2042.45,209 2048.5,210C 2049.82,210.816 2050.49,211.983 2050.5,213.5 Z"/></g>
<g><path style="opacity:1" fill="#656565" d="M 2050.5,213.5 C 2051.42,216.089 2053.09,218.089 2055.5,219.5C 2056.08,221.749 2057.41,223.415 2059.5,224.5C 2060.42,227.089 2062.09,229.089 2064.5,230.5C 2064.74,232.404 2065.74,233.738 2067.5,234.5C 2067.74,236.404 2068.74,237.738 2070.5,238.5C 2070.43,240.027 2071.09,241.027 2072.5,241.5C 2072.43,243.027 2073.09,244.027 2074.5,244.5C 2074.74,246.404 2075.74,247.738 2077.5,248.5C 2078.34,248.842 2078.67,249.508 2078.5,250.5C 2078.43,252.027 2079.09,253.027 2080.5,253.5C 2080.43,255.027 2081.09,256.027 2082.5,256.5C 2083.34,256.842 2083.67,257.508 2083.5,258.5C 2083.43,260.027 2084.09,261.027 2085.5,261.5C 2089.23,266.97 2091.9,272.97 2093.5,279.5C 2094.02,283.533 2095.36,287.2 2097.5,290.5C 2098.77,292.905 2099.43,295.572 2099.5,298.5C 2099.41,301.152 2100.08,303.485 2101.5,305.5C 2101.5,305.833 2101.5,306.167 2101.5,306.5C 2101.71,308.179 2101.05,309.179 2099.5,309.5C 2098.51,309.672 2097.84,309.338 2097.5,308.5C 2097.03,307.094 2096.03,306.427 2094.5,306.5C 2093.51,306.672 2092.84,306.338 2092.5,305.5C 2092.03,304.094 2091.03,303.427 2089.5,303.5C 2087.18,303.008 2085.18,302.008 2083.5,300.5C 2083.03,299.094 2082.03,298.427 2080.5,298.5C 2078.18,298.008 2076.18,297.008 2074.5,295.5C 2074.03,294.094 2073.03,293.427 2071.5,293.5C 2069.18,293.008 2067.18,292.008 2065.5,290.5C 2065.03,289.094 2064.03,288.427 2062.5,288.5C 2053.83,284.831 2045.16,281.164 2036.5,277.5C 2035.36,275.787 2033.7,275.12 2031.5,275.5C 2029.9,275.768 2028.57,275.434 2027.5,274.5C 2024.15,272.742 2020.48,271.742 2016.5,271.5C 2007.53,270.282 1998.53,269.282 1989.5,268.5C 1981.79,269.221 1974.12,270.221 1966.5,271.5C 1964.45,271.402 1962.78,272.069 1961.5,273.5C 1958.09,275.074 1954.43,276.074 1950.5,276.5C 1948.82,276.715 1947.82,276.048 1947.5,274.5C 1949.26,273.738 1950.26,272.404 1950.5,270.5C 1952.59,269.415 1953.92,267.749 1954.5,265.5C 1960.5,260.167 1966.17,254.5 1971.5,248.5C 1974.09,247.581 1976.09,245.914 1977.5,243.5C 1979.4,243.262 1980.74,242.262 1981.5,240.5C 1983.4,240.262 1984.74,239.262 1985.5,237.5C 1987.03,237.573 1988.03,236.906 1988.5,235.5C 1990.03,235.573 1991.03,234.906 1991.5,233.5C 1993.03,233.573 1994.03,232.906 1994.5,231.5C 1996.03,231.573 1997.03,230.906 1997.5,229.5C 1999.03,229.573 2000.03,228.906 2000.5,227.5C 2001.51,226.326 2002.85,225.66 2004.5,225.5C 2006.03,225.573 2007.03,224.906 2007.5,223.5C 2010.52,221.326 2013.85,219.659 2017.5,218.5C 2019.97,218.245 2021.97,217.245 2023.5,215.5C 2026.72,215.655 2029.38,214.655 2031.5,212.5C 2035.53,212.047 2039.53,211.38 2043.5,210.5C 2044.83,210.667 2046.17,210.833 2047.5,211C 2048.37,212.045 2049.37,212.878 2050.5,213.5 Z"/></g>
<g><path style="opacity:0.008" fill="#111111" d="M 1340.5,211.5 C 1341.83,211.5 1342.5,212.167 1342.5,213.5C 1341.5,213.167 1340.83,212.5 1340.5,211.5 Z"/></g>
<g><path style="opacity:0.769" fill="#333333" d="M 1334.5,211.5 C 1332.49,212.924 1330.15,213.59 1327.5,213.5C 1329.44,211.837 1331.77,211.171 1334.5,211.5 Z"/></g>
<g><path style="opacity:1" fill="#656565" d="M 1340.5,211.5 C 1340.83,212.5 1341.5,213.167 1342.5,213.5C 1343.5,213.833 1344.17,214.5 1344.5,215.5C 1345.42,218.089 1347.09,220.089 1349.5,221.5C 1350.42,224.089 1352.09,226.089 1354.5,227.5C 1354.43,229.027 1355.09,230.027 1356.5,230.5C 1357.08,232.749 1358.41,234.415 1360.5,235.5C 1360.74,237.404 1361.74,238.738 1363.5,239.5C 1363.74,241.404 1364.74,242.738 1366.5,243.5C 1367.34,243.842 1367.67,244.508 1367.5,245.5C 1367.74,247.404 1368.74,248.738 1370.5,249.5C 1370.43,251.027 1371.09,252.027 1372.5,252.5C 1372.43,254.027 1373.09,255.027 1374.5,255.5C 1375.34,255.842 1375.67,256.508 1375.5,257.5C 1375.43,259.027 1376.09,260.027 1377.5,260.5C 1380.01,264.182 1382.01,268.182 1383.5,272.5C 1383.16,274.483 1383.82,275.817 1385.5,276.5C 1386.4,277.209 1386.74,278.209 1386.5,279.5C 1386.12,281.698 1386.79,283.365 1388.5,284.5C 1389.11,285.391 1389.44,286.391 1389.5,287.5C 1389.26,289.898 1389.93,291.898 1391.5,293.5C 1392.97,297.702 1393.97,302.035 1394.5,306.5C 1394.87,310.186 1393.54,311.186 1390.5,309.5C 1388.85,309.34 1387.51,308.674 1386.5,307.5C 1386.03,306.094 1385.03,305.427 1383.5,305.5C 1383.03,304.094 1382.03,303.427 1380.5,303.5C 1378.85,303.34 1377.51,302.674 1376.5,301.5C 1376.03,300.094 1375.03,299.427 1373.5,299.5C 1370.52,298.674 1367.85,297.341 1365.5,295.5C 1365.03,294.094 1364.03,293.427 1362.5,293.5C 1356.04,290.771 1349.71,287.771 1343.5,284.5C 1343.03,283.094 1342.03,282.427 1340.5,282.5C 1340.17,282.5 1339.83,282.5 1339.5,282.5C 1338.36,280.787 1336.7,280.12 1334.5,280.5C 1332.3,280.396 1330.3,279.73 1328.5,278.5C 1327.36,276.787 1325.7,276.12 1323.5,276.5C 1321.16,274.96 1318.5,274.294 1315.5,274.5C 1315.17,274.5 1314.83,274.5 1314.5,274.5C 1312.16,272.96 1309.5,272.294 1306.5,272.5C 1294.9,270.642 1283.24,270.142 1271.5,271C 1261.78,273.347 1252.11,275.847 1242.5,278.5C 1241.17,278.5 1240.5,277.833 1240.5,276.5C 1242.59,275.415 1243.92,273.749 1244.5,271.5C 1246.26,270.738 1247.26,269.404 1247.5,267.5C 1253.5,262.167 1259.17,256.5 1264.5,250.5C 1267.09,249.581 1269.09,247.914 1270.5,245.5C 1272.75,244.92 1274.42,243.587 1275.5,241.5C 1277.03,241.573 1278.03,240.906 1278.5,239.5C 1280.4,239.262 1281.74,238.262 1282.5,236.5C 1284.03,236.573 1285.03,235.906 1285.5,234.5C 1287.03,234.573 1288.03,233.906 1288.5,232.5C 1290.03,232.573 1291.03,231.906 1291.5,230.5C 1291.84,229.662 1292.51,229.328 1293.5,229.5C 1295.03,229.573 1296.03,228.906 1296.5,227.5C 1297.51,226.326 1298.85,225.66 1300.5,225.5C 1302.03,225.573 1303.03,224.906 1303.5,223.5C 1305.85,221.659 1308.52,220.326 1311.5,219.5C 1312.87,219.657 1314.21,219.49 1315.5,219C 1317.43,218.098 1319.1,216.931 1320.5,215.5C 1323.15,215.59 1325.49,214.924 1327.5,213.5C 1330.15,213.59 1332.49,212.924 1334.5,211.5C 1336.61,210.258 1338.61,210.258 1340.5,211.5 Z"/></g>
<g><path style="opacity:0.671" fill="#2a2a2a" d="M 1327.5,213.5 C 1325.49,214.924 1323.15,215.59 1320.5,215.5C 1322.51,214.076 1324.85,213.41 1327.5,213.5 Z"/></g>
<g><path style="opacity:0.812" fill="#373737" d="M 2031.5,212.5 C 2029.38,214.655 2026.72,215.655 2023.5,215.5C 2025.94,214.129 2028.6,213.129 2031.5,212.5 Z"/></g>
<g><path style="opacity:0.569" fill="#313131" d="M 1320.5,215.5 C 1319.1,216.931 1317.43,218.098 1315.5,219C 1314.21,219.49 1312.87,219.657 1311.5,219.5C 1314.05,217.416 1317.05,216.083 1320.5,215.5 Z"/></g>
<g><path style="opacity:0.451" fill="#242424" d="M 2023.5,215.5 C 2021.97,217.245 2019.97,218.245 2017.5,218.5C 2019.03,216.755 2021.03,215.755 2023.5,215.5 Z"/></g>
<g><path style="opacity:0.263" fill="#202020" d="M 2050.5,213.5 C 2052.91,214.911 2054.58,216.911 2055.5,219.5C 2053.09,218.089 2051.42,216.089 2050.5,213.5 Z"/></g>
<g><path style="opacity:0.333" fill="#1c1c1c" d="M 1344.5,215.5 C 1346.91,216.911 1348.58,218.911 1349.5,221.5C 1347.09,220.089 1345.42,218.089 1344.5,215.5 Z"/></g>
<g><path style="opacity:0.788" fill="#2a2a2a" d="M 2055.5,219.5 C 2057.59,220.585 2058.92,222.251 2059.5,224.5C 2057.41,223.415 2056.08,221.749 2055.5,219.5 Z"/></g>
<g><path style="opacity:0.561" fill="#222222" d="M 1303.5,223.5 C 1303.03,224.906 1302.03,225.573 1300.5,225.5C 1300.97,224.094 1301.97,223.427 1303.5,223.5 Z"/></g>
<g><path style="opacity:0.604" fill="#262626" d="M 2007.5,223.5 C 2007.03,224.906 2006.03,225.573 2004.5,225.5C 2004.97,224.094 2005.97,223.427 2007.5,223.5 Z"/></g>
<g><path style="opacity:0.133" fill="#171717" d="M 1349.5,221.5 C 1351.91,222.911 1353.58,224.911 1354.5,227.5C 1352.09,226.089 1350.42,224.089 1349.5,221.5 Z"/></g>
<g><path style="opacity:0.529" fill="#212121" d="M 1296.5,227.5 C 1296.03,228.906 1295.03,229.573 1293.5,229.5C 1293.97,228.094 1294.97,227.427 1296.5,227.5 Z"/></g>
<g><path style="opacity:0.537" fill="#232323" d="M 1354.5,227.5 C 1355.91,227.973 1356.57,228.973 1356.5,230.5C 1355.09,230.027 1354.43,229.027 1354.5,227.5 Z"/></g>
<g><path style="opacity:0.447" fill="#1d1d1d" d="M 2000.5,227.5 C 2000.03,228.906 1999.03,229.573 1997.5,229.5C 1997.97,228.094 1998.97,227.427 2000.5,227.5 Z"/></g>
<g><path style="opacity:0.176" fill="#1d1d1d" d="M 2059.5,224.5 C 2061.91,225.911 2063.58,227.911 2064.5,230.5C 2062.09,229.089 2060.42,227.089 2059.5,224.5 Z"/></g>
<g><path style="opacity:0.569" fill="#262626" d="M 1997.5,229.5 C 1997.03,230.906 1996.03,231.573 1994.5,231.5C 1994.97,230.094 1995.97,229.427 1997.5,229.5 Z"/></g>
<g><path style="opacity:0.498" fill="#1f1f1f" d="M 1291.5,230.5 C 1291.03,231.906 1290.03,232.573 1288.5,232.5C 1288.97,231.094 1289.97,230.427 1291.5,230.5 Z"/></g>
<g><path style="opacity:0.6" fill="#272727" d="M 1994.5,231.5 C 1994.03,232.906 1993.03,233.573 1991.5,233.5C 1991.97,232.094 1992.97,231.427 1994.5,231.5 Z"/></g>
<g><path style="opacity:0.416" fill="#202020" d="M 2064.5,230.5 C 2066.26,231.262 2067.26,232.596 2067.5,234.5C 2065.74,233.738 2064.74,232.404 2064.5,230.5 Z"/></g>
<g><path style="opacity:0.494" fill="#212121" d="M 1288.5,232.5 C 1288.03,233.906 1287.03,234.573 1285.5,234.5C 1285.97,233.094 1286.97,232.427 1288.5,232.5 Z"/></g>
<g><path style="opacity:0.243" fill="#232323" d="M 1356.5,230.5 C 1358.59,231.585 1359.92,233.251 1360.5,235.5C 1358.41,234.415 1357.08,232.749 1356.5,230.5 Z"/></g>
<g><path style="opacity:0.612" fill="#272727" d="M 1991.5,233.5 C 1991.03,234.906 1990.03,235.573 1988.5,235.5C 1988.97,234.094 1989.97,233.427 1991.5,233.5 Z"/></g>
<g><path style="opacity:0.498" fill="#252525" d="M 1285.5,234.5 C 1285.03,235.906 1284.03,236.573 1282.5,236.5C 1282.97,235.094 1283.97,234.427 1285.5,234.5 Z"/></g>
<g><path style="opacity:0.678" fill="#262626" d="M 1360.5,235.5 C 1362.26,236.262 1363.26,237.596 1363.5,239.5C 1361.74,238.738 1360.74,237.404 1360.5,235.5 Z"/></g>
<g><path style="opacity:0.51" fill="#242424" d="M 1988.5,235.5 C 1988.03,236.906 1987.03,237.573 1985.5,237.5C 1985.97,236.094 1986.97,235.427 1988.5,235.5 Z"/></g>
<g><path style="opacity:0.431" fill="#1f1f1f" d="M 2067.5,234.5 C 2069.26,235.262 2070.26,236.596 2070.5,238.5C 2068.74,237.738 2067.74,236.404 2067.5,234.5 Z"/></g>
<g><path style="opacity:0.459" fill="#232323" d="M 1282.5,236.5 C 1281.74,238.262 1280.4,239.262 1278.5,239.5C 1279.26,237.738 1280.6,236.738 1282.5,236.5 Z"/></g>
<g><path style="opacity:0.42" fill="#202020" d="M 1985.5,237.5 C 1984.74,239.262 1983.4,240.262 1981.5,240.5C 1982.26,238.738 1983.6,237.738 1985.5,237.5 Z"/></g>
<g><path style="opacity:0.545" fill="#272727" d="M 1278.5,239.5 C 1278.03,240.906 1277.03,241.573 1275.5,241.5C 1275.97,240.094 1276.97,239.427 1278.5,239.5 Z"/></g>
<g><path style="opacity:0.302" fill="#212121" d="M 2070.5,238.5 C 2071.91,238.973 2072.57,239.973 2072.5,241.5C 2071.09,241.027 2070.43,240.027 2070.5,238.5 Z"/></g>
<g><path style="opacity:0.396" fill="#202020" d="M 1363.5,239.5 C 1365.26,240.262 1366.26,241.596 1366.5,243.5C 1364.74,242.738 1363.74,241.404 1363.5,239.5 Z"/></g>
<g><path style="opacity:0.408" fill="#232323" d="M 1981.5,240.5 C 1980.74,242.262 1979.4,243.262 1977.5,243.5C 1978.26,241.738 1979.6,240.738 1981.5,240.5 Z"/></g>
<g><path style="opacity:0.392" fill="#262626" d="M 2072.5,241.5 C 2073.91,241.973 2074.57,242.973 2074.5,244.5C 2073.09,244.027 2072.43,243.027 2072.5,241.5 Z"/></g>
<g><path style="opacity:0.729" fill="#2c2c2c" d="M 1275.5,241.5 C 1274.42,243.587 1272.75,244.92 1270.5,245.5C 1271.58,243.413 1273.25,242.08 1275.5,241.5 Z"/></g>
<g><path style="opacity:0.604" fill="#282828" d="M 1977.5,243.5 C 1976.09,245.914 1974.09,247.581 1971.5,248.5C 1972.91,246.086 1974.91,244.419 1977.5,243.5 Z"/></g>
<g><path style="opacity:0.435" fill="#222222" d="M 2074.5,244.5 C 2076.26,245.262 2077.26,246.596 2077.5,248.5C 2075.74,247.738 2074.74,246.404 2074.5,244.5 Z"/></g>
<g><path style="opacity:0.545" fill="#292929" d="M 1367.5,245.5 C 1369.26,246.262 1370.26,247.596 1370.5,249.5C 1368.74,248.738 1367.74,247.404 1367.5,245.5 Z"/></g>
<g><path style="opacity:0.729" fill="#303030" d="M 1270.5,245.5 C 1269.09,247.914 1267.09,249.581 1264.5,250.5C 1265.91,248.086 1267.91,246.419 1270.5,245.5 Z"/></g>
<g><path style="opacity:0.259" fill="#1b1b1b" d="M 1370.5,249.5 C 1371.91,249.973 1372.57,250.973 1372.5,252.5C 1371.09,252.027 1370.43,251.027 1370.5,249.5 Z"/></g>
<g><path style="opacity:0.329" fill="#232323" d="M 2078.5,250.5 C 2079.91,250.973 2080.57,251.973 2080.5,253.5C 2079.09,253.027 2078.43,252.027 2078.5,250.5 Z"/></g>
<g><path style="opacity:0.096" fill="#121212" d="M 1372.5,252.5 C 1373.91,252.973 1374.57,253.973 1374.5,255.5C 1373.09,255.027 1372.43,254.027 1372.5,252.5 Z"/></g>
<g><path style="opacity:0.647" fill="#2a2a2a" d="M 1971.5,248.5 C 1966.17,254.5 1960.5,260.167 1954.5,265.5C 1959.17,258.833 1964.83,253.167 1971.5,248.5 Z"/></g>
<g><path style="opacity:0.212" fill="#1a1a1a" d="M 2080.5,253.5 C 2081.91,253.973 2082.57,254.973 2082.5,256.5C 2081.09,256.027 2080.43,255.027 2080.5,253.5 Z"/></g>
<g><path style="opacity:0.714" fill="#2e2e2e" d="M 1264.5,250.5 C 1259.17,256.5 1253.5,262.167 1247.5,267.5C 1252.17,260.833 1257.83,255.167 1264.5,250.5 Z"/></g>
<g><path style="opacity:0.161" fill="#161616" d="M 1375.5,257.5 C 1376.91,257.973 1377.57,258.973 1377.5,260.5C 1376.09,260.027 1375.43,259.027 1375.5,257.5 Z"/></g>
<g><path style="opacity:0.133" fill="#121212" d="M 2083.5,258.5 C 2084.91,258.973 2085.57,259.973 2085.5,261.5C 2084.09,261.027 2083.43,260.027 2083.5,258.5 Z"/></g>
<g><path style="opacity:0.745" fill="#2c2c2c" d="M 1247.5,267.5 C 1247.26,269.404 1246.26,270.738 1244.5,271.5C 1244.74,269.596 1245.74,268.262 1247.5,267.5 Z"/></g>
<g><path style="opacity:0.267" fill="#232323" d="M 1954.5,265.5 C 1953.92,267.749 1952.59,269.415 1950.5,270.5C 1951.08,268.251 1952.41,266.585 1954.5,265.5 Z"/></g>
<g><path style="opacity:0.635" fill="#242424" d="M 2016.5,271.5 C 2020.48,271.742 2024.15,272.742 2027.5,274.5C 2023.52,274.258 2019.85,273.258 2016.5,271.5 Z"/></g>
<g><path style="opacity:0.796" fill="#2a2a2a" d="M 1244.5,271.5 C 1243.92,273.749 1242.59,275.415 1240.5,276.5C 1241.08,274.251 1242.41,272.585 1244.5,271.5 Z"/></g>
<g><path style="opacity:0.451" fill="#232323" d="M 1950.5,270.5 C 1950.26,272.404 1949.26,273.738 1947.5,274.5C 1947.74,272.596 1948.74,271.262 1950.5,270.5 Z"/></g>
<g><path style="opacity:0.045" fill="#151515" d="M 1966.5,271.5 C 1965.22,272.931 1963.55,273.598 1961.5,273.5C 1962.78,272.069 1964.45,271.402 1966.5,271.5 Z"/></g>
<g><path style="opacity:0.01" fill="#161616" d="M 1306.5,272.5 C 1309.5,272.294 1312.16,272.96 1314.5,274.5C 1311.57,274.435 1308.91,273.768 1306.5,272.5 Z"/></g>
<g><path style="opacity:0.706" fill="#292929" d="M 1315.5,274.5 C 1318.5,274.294 1321.16,274.96 1323.5,276.5C 1320.57,276.435 1317.91,275.768 1315.5,274.5 Z"/></g>
<g><path style="opacity:0.941" fill="#333333" d="M 1383.5,272.5 C 1384.67,273.514 1385.34,274.847 1385.5,276.5C 1383.82,275.817 1383.16,274.483 1383.5,272.5 Z"/></g>
<g><path style="opacity:0.514" fill="#222222" d="M 1947.5,274.5 C 1947.82,276.048 1948.82,276.715 1950.5,276.5C 1949.43,277.434 1948.1,277.768 1946.5,277.5C 1946.26,276.209 1946.6,275.209 1947.5,274.5 Z"/></g>
<g><path style="opacity:0.757" fill="#2c2c2c" d="M 2031.5,275.5 C 2033.7,275.12 2035.36,275.787 2036.5,277.5C 2034.6,277.204 2032.93,276.537 2031.5,275.5 Z"/></g>
<g><path style="opacity:0.773" fill="#2c2c2c" d="M 1323.5,276.5 C 1325.7,276.12 1327.36,276.787 1328.5,278.5C 1326.6,278.204 1324.93,277.537 1323.5,276.5 Z"/></g>
<g><path style="opacity:0.008" fill="#0a0a0a" d="M 1240.5,276.5 C 1240.5,277.833 1241.17,278.5 1242.5,278.5C 1241.79,279.404 1240.79,279.737 1239.5,279.5C 1239.26,278.209 1239.6,277.209 1240.5,276.5 Z"/></g>
<g><path style="opacity:0.792" fill="#2e2e2e" d="M 1334.5,280.5 C 1336.7,280.12 1338.36,280.787 1339.5,282.5C 1337.6,282.204 1335.93,281.537 1334.5,280.5 Z"/></g>
<g><path style="opacity:0.859" fill="#343434" d="M 1386.5,279.5 C 1387.54,280.93 1388.2,282.597 1388.5,284.5C 1386.79,283.365 1386.12,281.698 1386.5,279.5 Z"/></g>
<g><path style="opacity:0.91" fill="#2e2e2e" d="M 2093.5,279.5 C 2095.6,282.797 2096.93,286.463 2097.5,290.5C 2095.36,287.2 2094.02,283.533 2093.5,279.5 Z"/></g>
<g><path style="opacity:0.09" fill="#171717" d="M 1340.5,282.5 C 1342.03,282.427 1343.03,283.094 1343.5,284.5C 1341.97,284.573 1340.97,283.906 1340.5,282.5 Z"/></g>
<g><path style="opacity:0.192" fill="#171717" d="M 2062.5,288.5 C 2064.03,288.427 2065.03,289.094 2065.5,290.5C 2063.97,290.573 2062.97,289.906 2062.5,288.5 Z"/></g>
<g><path style="opacity:0.655" fill="#242424" d="M 1389.5,287.5 C 1390.74,289.214 1391.41,291.214 1391.5,293.5C 1389.93,291.898 1389.26,289.898 1389.5,287.5 Z"/></g>
<g><path style="opacity:0.188" fill="#151515" d="M 1362.5,293.5 C 1364.03,293.427 1365.03,294.094 1365.5,295.5C 1363.97,295.573 1362.97,294.906 1362.5,293.5 Z"/></g>
<g><path style="opacity:0.055" fill="#0f0f0f" d="M 2071.5,293.5 C 2073.03,293.427 2074.03,294.094 2074.5,295.5C 2072.97,295.573 2071.97,294.906 2071.5,293.5 Z"/></g>
<g><path style="opacity:0.125" fill="#121212" d="M 2080.5,298.5 C 2082.03,298.427 2083.03,299.094 2083.5,300.5C 2081.97,300.573 2080.97,299.906 2080.5,298.5 Z"/></g>
<g><path style="opacity:0.282" fill="#1d1d1d" d="M 1373.5,299.5 C 1375.03,299.427 1376.03,300.094 1376.5,301.5C 1374.97,301.573 1373.97,300.906 1373.5,299.5 Z"/></g>
<g><path style="opacity:0.008" fill="#171717" d="M 2099.5,298.5 C 2100.92,300.515 2101.59,302.848 2101.5,305.5C 2100.08,303.485 2099.41,301.152 2099.5,298.5 Z"/></g>
<g><path style="opacity:0.318" fill="#212121" d="M 1380.5,303.5 C 1382.03,303.427 1383.03,304.094 1383.5,305.5C 1381.97,305.573 1380.97,304.906 1380.5,303.5 Z"/></g>
<g><path style="opacity:0.259" fill="#1c1c1c" d="M 2089.5,303.5 C 2091.03,303.427 2092.03,304.094 2092.5,305.5C 2090.97,305.573 2089.97,304.906 2089.5,303.5 Z"/></g>
<g><path style="opacity:0.133" fill="#151515" d="M 1383.5,305.5 C 1385.03,305.427 1386.03,306.094 1386.5,307.5C 1384.97,307.573 1383.97,306.906 1383.5,305.5 Z"/></g>
<g><path style="opacity:0.278" fill="#1b1b1b" d="M 2094.5,306.5 C 2096.03,306.427 2097.03,307.094 2097.5,308.5C 2095.97,308.573 2094.97,307.906 2094.5,306.5 Z"/></g>
<g><path style="opacity:0.6" fill="#1d1d1d" d="M 2101.5,306.5 C 2102.79,308.035 2102.79,309.701 2101.5,311.5C 2100.48,311.145 2099.81,310.478 2099.5,309.5C 2101.05,309.179 2101.71,308.179 2101.5,306.5 Z"/></g>
<g><path style="opacity:0.729" fill="#282828" d="M 1394.5,306.5 C 1395.31,307.997 1395.97,309.664 1396.5,311.5C 1393.99,312.588 1391.99,311.922 1390.5,309.5C 1393.54,311.186 1394.87,310.186 1394.5,306.5 Z"/></g>
<g><path style="opacity:0.999" fill="#616161" d="M 1832.5,315.5 C 1834.18,317.008 1836.18,318.008 1838.5,318.5C 1839.49,318.328 1840.16,318.662 1840.5,319.5C 1840.82,321.048 1841.82,321.715 1843.5,321.5C 1843.97,322.906 1844.97,323.573 1846.5,323.5C 1846.44,324.609 1846.11,325.609 1845.5,326.5C 1843.02,329.241 1840.02,331.241 1836.5,332.5C 1834.97,332.427 1833.97,333.094 1833.5,334.5C 1828.6,338.201 1823.26,341.368 1817.5,344C 1814.96,344.796 1812.63,344.629 1810.5,343.5C 1810.03,342.094 1809.03,341.427 1807.5,341.5C 1807.03,340.094 1806.03,339.427 1804.5,339.5C 1803.74,337.738 1802.4,336.738 1800.5,336.5C 1799.51,336.672 1798.84,336.338 1798.5,335.5C 1798.03,334.094 1797.03,333.427 1795.5,333.5C 1794.51,333.672 1793.84,333.338 1793.5,332.5C 1793.03,331.094 1792.03,330.427 1790.5,330.5C 1788.18,330.008 1786.18,329.008 1784.5,327.5C 1784.03,326.094 1783.03,325.427 1781.5,325.5C 1778.46,325.267 1775.79,324.267 1773.5,322.5C 1772.89,321.609 1772.56,320.609 1772.5,319.5C 1776.71,319.283 1780.71,318.617 1784.5,317.5C 1800.34,314.847 1816.34,314.18 1832.5,315.5 Z"/></g>
<g><path style="opacity:0.999" fill="#606060" d="M 1131.5,319.5 C 1131.82,321.048 1132.82,321.715 1134.5,321.5C 1136.86,322.435 1139.03,323.768 1141,325.5C 1141.62,326.449 1141.45,327.282 1140.5,328C 1131,333.919 1121.33,339.586 1111.5,345C 1109.06,346.392 1106.73,346.559 1104.5,345.5C 1104.03,344.094 1103.03,343.427 1101.5,343.5C 1100.74,341.738 1099.4,340.738 1097.5,340.5C 1097.03,339.094 1096.03,338.427 1094.5,338.5C 1094.03,337.094 1093.03,336.427 1091.5,336.5C 1090.51,336.672 1089.84,336.338 1089.5,335.5C 1089.03,334.094 1088.03,333.427 1086.5,333.5C 1085.51,333.672 1084.84,333.338 1084.5,332.5C 1084.03,331.094 1083.03,330.427 1081.5,330.5C 1076.31,328.403 1071.31,326.07 1066.5,323.5C 1065.17,322.5 1065.17,321.5 1066.5,320.5C 1068.76,319.781 1071.1,319.448 1073.5,319.5C 1085.67,318.726 1097.67,317.726 1109.5,316.5C 1113.75,315.398 1118.08,315.232 1122.5,316C 1126,316.119 1129,317.286 1131.5,319.5 Z"/></g>
<g><path style="opacity:0.086" fill="#161616" d="M 1832.5,315.5 C 1835.09,315.461 1837.09,316.461 1838.5,318.5C 1836.18,318.008 1834.18,317.008 1832.5,315.5 Z"/></g>
<g><path style="opacity:0.6" fill="#333333" d="M 1109.5,316.5 C 1097.67,317.726 1085.67,318.726 1073.5,319.5C 1085.26,317.311 1097.26,316.311 1109.5,316.5 Z"/></g>
<g><path style="opacity:0.596" fill="#2c2c2c" d="M 1784.5,317.5 C 1780.71,318.617 1776.71,319.283 1772.5,319.5C 1776.21,317.864 1780.21,317.198 1784.5,317.5 Z"/></g>
<g><path style="opacity:0.169" fill="#0f0f0f" d="M 1066.5,320.5 C 1065.17,321.5 1065.17,322.5 1066.5,323.5C 1063.83,322.5 1063.83,321.5 1066.5,320.5 Z"/></g>
<g><path style="opacity:0.875" fill="#2f2f2f" d="M 1131.5,319.5 C 1132.71,319.932 1133.71,320.599 1134.5,321.5C 1132.82,321.715 1131.82,321.048 1131.5,319.5 Z"/></g>
<g><path style="opacity:0.835" fill="#2f2f2f" d="M 1840.5,319.5 C 1841.71,319.932 1842.71,320.599 1843.5,321.5C 1841.82,321.715 1840.82,321.048 1840.5,319.5 Z"/></g>
<g><path style="opacity:0.153" fill="#161616" d="M 1772.5,319.5 C 1772.56,320.609 1772.89,321.609 1773.5,322.5C 1771.45,321.947 1771.11,320.947 1772.5,319.5 Z"/></g>
<g><path style="opacity:0.055" fill="#181818" d="M 1843.5,321.5 C 1845.03,321.427 1846.03,322.094 1846.5,323.5C 1844.97,323.573 1843.97,322.906 1843.5,321.5 Z"/></g>
<g><path style="opacity:0.031" fill="#202020" d="M 1846.5,323.5 C 1847.89,324.947 1847.55,325.947 1845.5,326.5C 1846.11,325.609 1846.44,324.609 1846.5,323.5 Z"/></g>
<g><path style="opacity:0.129" fill="#141414" d="M 1781.5,325.5 C 1783.03,325.427 1784.03,326.094 1784.5,327.5C 1782.97,327.573 1781.97,326.906 1781.5,325.5 Z"/></g>
<g><path style="opacity:0.239" fill="#181818" d="M 1081.5,330.5 C 1083.03,330.427 1084.03,331.094 1084.5,332.5C 1082.97,332.573 1081.97,331.906 1081.5,330.5 Z"/></g>
<g><path style="opacity:0.224" fill="#161616" d="M 1790.5,330.5 C 1792.03,330.427 1793.03,331.094 1793.5,332.5C 1791.97,332.573 1790.97,331.906 1790.5,330.5 Z"/></g>
<g><path style="opacity:0.004" fill="#0a0a0a" d="M 1836.5,332.5 C 1836.03,333.906 1835.03,334.573 1833.5,334.5C 1833.97,333.094 1834.97,332.427 1836.5,332.5 Z"/></g>
<g><path style="opacity:0.243" fill="#1a1a1a" d="M 1086.5,333.5 C 1088.03,333.427 1089.03,334.094 1089.5,335.5C 1087.97,335.573 1086.97,334.906 1086.5,333.5 Z"/></g>
<g><path style="opacity:0.294" fill="#1e1e1e" d="M 1795.5,333.5 C 1797.03,333.427 1798.03,334.094 1798.5,335.5C 1796.97,335.573 1795.97,334.906 1795.5,333.5 Z"/></g>
<g><path style="opacity:0.38" fill="#242424" d="M 1091.5,336.5 C 1093.03,336.427 1094.03,337.094 1094.5,338.5C 1092.97,338.573 1091.97,337.906 1091.5,336.5 Z"/></g>
<g><path style="opacity:0.463" fill="#252525" d="M 1800.5,336.5 C 1802.4,336.738 1803.74,337.738 1804.5,339.5C 1802.6,339.262 1801.26,338.262 1800.5,336.5 Z"/></g>
<g><path style="opacity:0.396" fill="#222222" d="M 1094.5,338.5 C 1096.03,338.427 1097.03,339.094 1097.5,340.5C 1095.97,340.573 1094.97,339.906 1094.5,338.5 Z"/></g>
<g><path style="opacity:0.271" fill="#1b1b1b" d="M 1804.5,339.5 C 1806.03,339.427 1807.03,340.094 1807.5,341.5C 1805.97,341.573 1804.97,340.906 1804.5,339.5 Z"/></g>
<g><path style="opacity:0.384" fill="#1e1e1e" d="M 1097.5,340.5 C 1099.4,340.738 1100.74,341.738 1101.5,343.5C 1099.6,343.262 1098.26,342.262 1097.5,340.5 Z"/></g>
<g><path style="opacity:0.361" fill="#222222" d="M 1807.5,341.5 C 1809.03,341.427 1810.03,342.094 1810.5,343.5C 1808.97,343.573 1807.97,342.906 1807.5,341.5 Z"/></g>
<g><path style="opacity:0.31" fill="#191919" d="M 1101.5,343.5 C 1103.03,343.427 1104.03,344.094 1104.5,345.5C 1102.97,345.573 1101.97,344.906 1101.5,343.5 Z"/></g>
<g><path style="opacity:0.998" fill="#5d5d5d" d="M 1670.5,411.5 C 1671.26,412.268 1672.26,412.768 1673.5,413C 1672.94,413.383 1672.61,413.883 1672.5,414.5C 1667.48,417.677 1662.15,420.343 1656.5,422.5C 1654.45,422.402 1652.78,423.069 1651.5,424.5C 1649.82,426.008 1647.82,427.008 1645.5,427.5C 1643.5,426.5 1641.5,425.5 1639.5,424.5C 1638.54,423.038 1637.38,421.705 1636,420.5C 1635.2,417.961 1635.37,415.628 1636.5,413.5C 1638.17,412.5 1639.5,411.167 1640.5,409.5C 1650.73,406.441 1660.73,407.107 1670.5,411.5 Z"/></g>
<g><path style="opacity:0.999" fill="#5e5e5e" d="M 957.5,410.5 C 958.635,412.213 960.302,412.88 962.5,412.5C 964.099,412.232 965.432,412.566 966.5,413.5C 966.443,414.609 966.11,415.609 965.5,416.5C 964.486,417.674 963.153,418.34 961.5,418.5C 959.447,418.402 957.78,419.069 956.5,420.5C 951.206,423.933 945.539,426.599 939.5,428.5C 938.041,428.567 936.708,428.234 935.5,427.5C 934.833,427.5 934.5,427.167 934.5,426.5C 933.167,424.5 931.5,422.833 929.5,421.5C 928.355,419.047 928.688,416.713 930.5,414.5C 932.167,413.5 933.5,412.167 934.5,410.5C 942.154,409.202 949.82,409.202 957.5,410.5 Z"/></g>
<g><path style="opacity:0.573" fill="#282828" d="M 934.5,410.5 C 933.5,412.167 932.167,413.5 930.5,414.5C 930.833,412.167 932.167,410.833 934.5,410.5 Z"/></g>
<g><path style="opacity:0.522" fill="#292929" d="M 957.5,410.5 C 959.403,410.796 961.07,411.463 962.5,412.5C 960.302,412.88 958.635,412.213 957.5,410.5 Z"/></g>
<g><path style="opacity:0.478" fill="#262626" d="M 1640.5,409.5 C 1639.5,411.167 1638.17,412.5 1636.5,413.5C 1636.83,411.167 1638.17,409.833 1640.5,409.5 Z"/></g>
<g><path style="opacity:0.039" fill="#1b1b1b" d="M 1670.5,411.5 C 1671.83,411.5 1673.17,411.5 1674.5,411.5C 1674.71,413.179 1674.05,414.179 1672.5,414.5C 1672.61,413.883 1672.94,413.383 1673.5,413C 1672.26,412.768 1671.26,412.268 1670.5,411.5 Z"/></g>
<g><path style="opacity:0.043" fill="#1b1b1b" d="M 966.5,413.5 C 969.048,415.013 968.715,416.013 965.5,416.5C 966.11,415.609 966.443,414.609 966.5,413.5 Z"/></g>
<g><path style="opacity:0.149" fill="#151515" d="M 961.5,418.5 C 960.22,419.931 958.553,420.598 956.5,420.5C 957.78,419.069 959.447,418.402 961.5,418.5 Z"/></g>
<g><path style="opacity:0.004" fill="#131313" d="M 929.5,421.5 C 931.5,422.833 933.167,424.5 934.5,426.5C 931.833,425.833 930.167,424.167 929.5,421.5 Z"/></g>
<g><path style="opacity:0.022" fill="#121212" d="M 1656.5,422.5 C 1655.22,423.931 1653.55,424.598 1651.5,424.5C 1652.78,423.069 1654.45,422.402 1656.5,422.5 Z"/></g>
<g><path style="opacity:0.361" fill="#141414" d="M 1639.5,424.5 C 1641.5,425.5 1643.5,426.5 1645.5,427.5C 1642.8,428.569 1640.8,427.569 1639.5,424.5 Z"/></g>
<g><path style="opacity:0.365" fill="#1e1e1e" d="M 935.5,427.5 C 936.708,428.234 938.041,428.567 939.5,428.5C 939.083,429.124 938.416,429.457 937.5,429.5C 936.287,429.253 935.62,428.586 935.5,427.5 Z"/></g>
<g><path style="opacity:0.87" fill="#3b3b3b" d="M 1589.5,447.5 C 1565.83,447.5 1542.17,447.5 1518.5,447.5C 1518.5,447.167 1518.5,446.833 1518.5,446.5C 1528.98,445.882 1539.48,445.549 1550,445.5C 1563.37,445.311 1576.54,445.977 1589.5,447.5 Z"/></g>
<g><path style="opacity:0.999" fill="#626262" d="M 1518.5,447.5 C 1542.17,447.5 1565.83,447.5 1589.5,447.5C 1590.03,449.446 1591.37,450.446 1593.5,450.5C 1593.5,451.5 1593.5,452.5 1593.5,453.5C 1580.05,461.222 1566.05,467.888 1551.5,473.5C 1550.17,473.167 1548.83,472.833 1547.5,472.5C 1545.83,471.5 1544.5,470.167 1543.5,468.5C 1541.43,465.427 1538.76,463.094 1535.5,461.5C 1534.74,459.738 1533.4,458.738 1531.5,458.5C 1531.03,457.094 1530.03,456.427 1528.5,456.5C 1524.18,455.008 1520.18,453.008 1516.5,450.5C 1515.09,448.402 1515.75,447.402 1518.5,447.5 Z"/></g>
<g><path style="opacity:0.999" fill="#616161" d="M 883.5,449.5 C 883.973,450.906 884.973,451.573 886.5,451.5C 886.414,452.496 886.748,453.329 887.5,454C 885.273,454.941 883.273,456.108 881.5,457.5C 873.146,462.343 864.48,466.677 855.5,470.5C 853.447,470.402 851.78,471.069 850.5,472.5C 849.486,473.674 848.153,474.34 846.5,474.5C 844.833,474.5 843.167,474.5 841.5,474.5C 839.167,472.833 837.167,470.833 835.5,468.5C 833.761,465.757 831.427,463.757 828.5,462.5C 828.027,461.094 827.027,460.427 825.5,460.5C 825.027,459.094 824.027,458.427 822.5,458.5C 822.027,457.094 821.027,456.427 819.5,456.5C 818.391,456.443 817.391,456.11 816.5,455.5C 816.027,454.094 815.027,453.427 813.5,453.5C 811.847,453.34 810.514,452.674 809.5,451.5C 808.89,450.609 808.557,449.609 808.5,448.5C 831.47,447.364 854.47,447.198 877.5,448C 879.708,448.191 881.708,448.691 883.5,449.5 Z"/></g>
<g><path style="opacity:0.404" fill="#1d1d1d" d="M 1518.5,446.5 C 1518.5,446.833 1518.5,447.167 1518.5,447.5C 1515.75,447.402 1515.09,448.402 1516.5,450.5C 1514.82,449.817 1514.16,448.483 1514.5,446.5C 1515.83,446.5 1517.17,446.5 1518.5,446.5 Z"/></g>
<g><path style="opacity:0.898" fill="#2c2c2c" d="M 1589.5,447.5 C 1591.23,448.026 1592.56,449.026 1593.5,450.5C 1591.37,450.446 1590.03,449.446 1589.5,447.5 Z"/></g>
<g><path style="opacity:0.11" fill="#181818" d="M 808.5,448.5 C 808.557,449.609 808.89,450.609 809.5,451.5C 807.448,450.947 807.115,449.947 808.5,448.5 Z"/></g>
<g><path style="opacity:0.012" fill="#151515" d="M 883.5,449.5 C 885.027,449.427 886.027,450.094 886.5,451.5C 884.973,451.573 883.973,450.906 883.5,449.5 Z"/></g>
<g><path style="opacity:0.796" fill="#2b2b2b" d="M 1593.5,450.5 C 1595.98,451.74 1595.98,452.74 1593.5,453.5C 1593.5,452.5 1593.5,451.5 1593.5,450.5 Z"/></g>
<g><path style="opacity:0.082" fill="#141414" d="M 813.5,453.5 C 815.027,453.427 816.027,454.094 816.5,455.5C 814.973,455.573 813.973,454.906 813.5,453.5 Z"/></g>
<g><path style="opacity:0.076" fill="#181818" d="M 886.5,451.5 C 888.476,452.427 888.809,453.76 887.5,455.5C 885.677,456.747 883.677,457.414 881.5,457.5C 883.273,456.108 885.273,454.941 887.5,454C 886.748,453.329 886.414,452.496 886.5,451.5 Z"/></g>
<g><path style="opacity:0.259" fill="#191919" d="M 819.5,456.5 C 821.027,456.427 822.027,457.094 822.5,458.5C 820.973,458.573 819.973,457.906 819.5,456.5 Z"/></g>
<g><path style="opacity:0.4" fill="#202020" d="M 1528.5,456.5 C 1530.03,456.427 1531.03,457.094 1531.5,458.5C 1529.97,458.573 1528.97,457.906 1528.5,456.5 Z"/></g>
<g><path style="opacity:0.275" fill="#191919" d="M 822.5,458.5 C 824.027,458.427 825.027,459.094 825.5,460.5C 823.973,460.573 822.973,459.906 822.5,458.5 Z"/></g>
<g><path style="opacity:0.498" fill="#242424" d="M 1531.5,458.5 C 1533.4,458.738 1534.74,459.738 1535.5,461.5C 1533.6,461.262 1532.26,460.262 1531.5,458.5 Z"/></g>
<g><path style="opacity:0.424" fill="#232323" d="M 825.5,460.5 C 827.027,460.427 828.027,461.094 828.5,462.5C 826.973,462.573 825.973,461.906 825.5,460.5 Z"/></g>
<g><path style="opacity:0.365" fill="#1b1b1b" d="M 1535.5,461.5 C 1538.76,463.094 1541.43,465.427 1543.5,468.5C 1540.24,466.906 1537.57,464.573 1535.5,461.5 Z"/></g>
<g><path style="opacity:0.431" fill="#212121" d="M 828.5,462.5 C 831.427,463.757 833.761,465.757 835.5,468.5C 832.573,467.243 830.239,465.243 828.5,462.5 Z"/></g>
<g><path style="opacity:0.025" fill="#0f0f0f" d="M 855.5,470.5 C 854.22,471.931 852.553,472.598 850.5,472.5C 851.78,471.069 853.447,470.402 855.5,470.5 Z"/></g>
<g><path style="opacity:0.329" fill="#191919" d="M 1547.5,472.5 C 1548.83,472.833 1550.17,473.167 1551.5,473.5C 1549.87,474.853 1548.54,474.519 1547.5,472.5 Z"/></g>
<g><path style="opacity:0.008" fill="#141414" d="M 841.5,474.5 C 843.167,474.5 844.833,474.5 846.5,474.5C 844.714,476.922 843.048,476.922 841.5,474.5 Z"/></g>
<g><path style="opacity:0.999" fill="#5f5f5f" d="M 1506.5,486.5 C 1506.43,488.027 1507.09,489.027 1508.5,489.5C 1507.83,490.5 1507.17,491.5 1506.5,492.5C 1492.71,498.27 1478.71,503.77 1464.5,509C 1462.93,509.765 1461.6,509.598 1460.5,508.5C 1460.03,507.094 1459.03,506.427 1457.5,506.5C 1457.03,505.094 1456.03,504.427 1454.5,504.5C 1454.03,503.094 1453.03,502.427 1451.5,502.5C 1449.18,502.008 1447.18,501.008 1445.5,499.5C 1445.03,498.094 1444.03,497.427 1442.5,497.5C 1440.85,497.34 1439.51,496.674 1438.5,495.5C 1437.36,493.787 1435.7,493.12 1433.5,493.5C 1431.85,493.34 1430.51,492.674 1429.5,491.5C 1428.86,490.518 1428.19,489.518 1427.5,488.5C 1428.95,487.828 1430.28,487.161 1431.5,486.5C 1455.06,483.532 1478.72,482.366 1502.5,483C 1504.32,483.66 1505.66,484.827 1506.5,486.5 Z"/></g>
<g><path style="opacity:0.999" fill="#5f5f5f" d="M 801.5,490.5 C 801.443,491.609 801.11,492.609 800.5,493.5C 786.24,500.368 771.407,506.035 756,510.5C 754.93,510.472 754.097,510.139 753.5,509.5C 753.027,508.094 752.027,507.427 750.5,507.5C 750.027,506.094 749.027,505.427 747.5,505.5C 745.847,505.34 744.514,504.674 743.5,503.5C 743.027,502.094 742.027,501.427 740.5,501.5C 738.181,501.008 736.181,500.008 734.5,498.5C 733.313,496.025 731.313,495.025 728.5,495.5C 726.597,495.204 724.93,494.537 723.5,493.5C 722.738,491.738 721.404,490.738 719.5,490.5C 722.736,489.135 726.069,488.135 729.5,487.5C 751.097,485.298 772.763,484.132 794.5,484C 798.008,485.012 800.342,487.178 801.5,490.5 Z"/></g>
<g><path style="opacity:0.694" fill="#2f2f2f" d="M 729.5,487.5 C 726.069,488.135 722.736,489.135 719.5,490.5C 718.957,490.44 718.624,490.107 718.5,489.5C 721.94,487.777 725.606,487.11 729.5,487.5 Z"/></g>
<g><path style="opacity:0.737" fill="#303030" d="M 1431.5,486.5 C 1430.28,487.161 1428.95,487.828 1427.5,488.5C 1428.19,489.518 1428.86,490.518 1429.5,491.5C 1426.51,491.052 1425.51,489.552 1426.5,487C 1428.13,486.506 1429.8,486.34 1431.5,486.5 Z"/></g>
<g><path style="opacity:0.42" fill="#2a2a2a" d="M 1506.5,486.5 C 1507.91,486.973 1508.57,487.973 1508.5,489.5C 1507.09,489.027 1506.43,488.027 1506.5,486.5 Z"/></g>
<g><path style="opacity:0.373" fill="#202020" d="M 719.5,490.5 C 721.404,490.738 722.738,491.738 723.5,493.5C 721.596,493.262 720.262,492.262 719.5,490.5 Z"/></g>
<g><path style="opacity:0.09" fill="#0c0c0c" d="M 1508.5,489.5 C 1509.72,491.332 1509.05,492.332 1506.5,492.5C 1507.17,491.5 1507.83,490.5 1508.5,489.5 Z"/></g>
<g><path style="opacity:0.008" fill="#090909" d="M 801.5,490.5 C 802.885,491.947 802.552,492.947 800.5,493.5C 801.11,492.609 801.443,491.609 801.5,490.5 Z"/></g>
<g><path style="opacity:0.843" fill="#323232" d="M 1433.5,493.5 C 1435.7,493.12 1437.36,493.787 1438.5,495.5C 1436.6,495.204 1434.93,494.537 1433.5,493.5 Z"/></g>
<g><path style="opacity:0.941" fill="#353535" d="M 728.5,495.5 C 731.313,495.025 733.313,496.025 734.5,498.5C 732.456,497.492 730.456,496.492 728.5,495.5 Z"/></g>
<g><path style="opacity:0.118" fill="#141414" d="M 1442.5,497.5 C 1444.03,497.427 1445.03,498.094 1445.5,499.5C 1443.97,499.573 1442.97,498.906 1442.5,497.5 Z"/></g>
<g><path style="opacity:0.11" fill="#121212" d="M 740.5,501.5 C 742.027,501.427 743.027,502.094 743.5,503.5C 741.973,503.573 740.973,502.906 740.5,501.5 Z"/></g>
<g><path style="opacity:0.263" fill="#191919" d="M 1451.5,502.5 C 1453.03,502.427 1454.03,503.094 1454.5,504.5C 1452.97,504.573 1451.97,503.906 1451.5,502.5 Z"/></g>
<g><path style="opacity:0.259" fill="#1b1b1b" d="M 1454.5,504.5 C 1456.03,504.427 1457.03,505.094 1457.5,506.5C 1455.97,506.573 1454.97,505.906 1454.5,504.5 Z"/></g>
<g><path style="opacity:0.388" fill="#282828" d="M 747.5,505.5 C 749.027,505.427 750.027,506.094 750.5,507.5C 748.973,507.573 747.973,506.906 747.5,505.5 Z"/></g>
<g><path style="opacity:0.263" fill="#181818" d="M 1457.5,506.5 C 1459.03,506.427 1460.03,507.094 1460.5,508.5C 1458.97,508.573 1457.97,507.906 1457.5,506.5 Z"/></g>
<g><path style="opacity:0.369" fill="#262626" d="M 750.5,507.5 C 752.027,507.427 753.027,508.094 753.5,509.5C 751.973,509.573 750.973,508.906 750.5,507.5 Z"/></g>
<g><path style="opacity:0.999" fill="#5f5f5f" d="M 703.5,527.5 C 703.937,529.074 704.937,530.241 706.5,531C 705.944,531.383 705.611,531.883 705.5,532.5C 699.477,535.795 693.144,538.629 686.5,541C 683.462,541.885 680.795,541.385 678.5,539.5C 677.365,537.787 675.698,537.12 673.5,537.5C 669.418,537.108 665.418,536.442 661.5,535.5C 660.391,534.71 659.058,534.21 657.5,534C 652.177,533.501 646.844,533.334 641.5,533.5C 632.416,533.804 623.416,533.471 614.5,532.5C 614.611,531.883 614.944,531.383 615.5,531C 619.43,530.758 623.097,529.925 626.5,528.5C 629.829,528.785 632.829,528.118 635.5,526.5C 638.096,525.735 640.763,525.401 643.5,525.5C 651.717,525.14 659.717,524.14 667.5,522.5C 676.477,521.486 685.477,521.319 694.5,522C 698.492,522.324 701.492,524.157 703.5,527.5 Z"/></g>
<g><path style="opacity:0.82" fill="#3a3a3a" d="M 667.5,522.5 C 659.717,524.14 651.717,525.14 643.5,525.5C 651.263,523.696 659.263,522.696 667.5,522.5 Z"/></g>
<g><path style="opacity:0.59" fill="#272727" d="M 635.5,526.5 C 632.829,528.118 629.829,528.785 626.5,528.5C 629.273,527.343 632.273,526.676 635.5,526.5 Z"/></g>
<g><path style="opacity:0.765" fill="#414141" d="M 626.5,528.5 C 623.097,529.925 619.43,530.758 615.5,531C 614.944,531.383 614.611,531.883 614.5,532.5C 612.712,532.785 611.045,532.452 609.5,531.5C 615.046,529.85 620.712,528.85 626.5,528.5 Z"/></g>
<g><path style="opacity:0.027" fill="#1a1a1a" d="M 703.5,527.5 C 705.464,527.977 706.798,529.144 707.5,531C 707.164,532.03 706.497,532.53 705.5,532.5C 705.611,531.883 705.944,531.383 706.5,531C 704.937,530.241 703.937,529.074 703.5,527.5 Z"/></g>
<g><path style="opacity:0.829" fill="#383838" d="M 641.5,533.5 C 646.844,533.334 652.177,533.501 657.5,534C 659.058,534.21 660.391,534.71 661.5,535.5C 654.637,535.362 647.97,534.696 641.5,533.5 Z"/></g>
<g><path style="opacity:0.999" fill="#616161" d="M 1300.5,535.5 C 1314.49,536.046 1328.49,536.38 1342.5,536.5C 1355.64,536.601 1368.64,537.935 1381.5,540.5C 1382.23,541.708 1382.57,543.041 1382.5,544.5C 1374.33,550.001 1365.5,554.334 1356,557.5C 1348.05,554.777 1339.89,552.944 1331.5,552C 1313.23,550.02 1294.89,549.02 1276.5,549C 1275.26,548.768 1274.26,548.268 1273.5,547.5C 1273.96,544.697 1275.29,542.363 1277.5,540.5C 1278.51,539.326 1279.85,538.66 1281.5,538.5C 1283.9,538.741 1285.9,538.074 1287.5,536.5C 1291.63,535.515 1295.97,535.182 1300.5,535.5 Z"/></g>
<g><path style="opacity:0.671" fill="#2e2e2e" d="M 1300.5,535.5 C 1303.31,534.835 1306.31,534.502 1309.5,534.5C 1320.67,534.921 1331.67,535.588 1342.5,536.5C 1328.49,536.38 1314.49,536.046 1300.5,535.5 Z"/></g>
<g><path style="opacity:0.671" fill="#232323" d="M 673.5,537.5 C 675.698,537.12 677.365,537.787 678.5,539.5C 676.597,539.204 674.93,538.537 673.5,537.5 Z"/></g>
<g><path style="opacity:0.89" fill="#3b3b3b" d="M 1287.5,536.5 C 1285.9,538.074 1283.9,538.741 1281.5,538.5C 1283.1,536.926 1285.1,536.259 1287.5,536.5 Z"/></g>
<g><path style="opacity:0.929" fill="#303030" d="M 1381.5,540.5 C 1384.88,541.244 1385.22,542.577 1382.5,544.5C 1382.57,543.041 1382.23,541.708 1381.5,540.5 Z"/></g>
<g><path style="opacity:0.075" fill="#161616" d="M 1277.5,540.5 C 1275.29,542.363 1273.96,544.697 1273.5,547.5C 1272.06,543.878 1273.39,541.544 1277.5,540.5 Z"/></g>
</svg>
