<?xml version="1.0" encoding="UTF-8"?>
<!DOCTYPE svg PUBLIC "-//W3C//DTD SVG 1.1//EN" "http://www.w3.org/Graphics/SVG/1.1/DTD/svg11.dtd">
<svg xmlns="http://www.w3.org/2000/svg" version="1.1" width="2275px" height="1000px" style="shape-rendering:geometricPrecision; text-rendering:geometricPrecision; image-rendering:optimizeQuality; fill-rule:evenodd; clip-rule:evenodd" xmlns:xlink="http://www.w3.org/1999/xlink">
<g><path style="opacity:0.03" fill="#0d0d0d" d="M 2105.5,539.5 C 2103.87,543.573 2102.87,547.906 2102.5,552.5C 2102.5,547.833 2102.5,543.167 2102.5,538.5C 2103.79,538.263 2104.79,538.596 2105.5,539.5 Z"/></g>
<g><path style="opacity:1" fill="#676767" d="M 2105.5,539.5 C 2106.08,541.749 2107.41,543.415 2109.5,544.5C 2112.5,546.833 2115.17,549.5 2117.5,552.5C 2119.43,556.1 2122.1,559.1 2125.5,561.5C 2126.5,561.833 2127.17,562.5 2127.5,563.5C 2128.76,566.427 2130.76,568.761 2133.5,570.5C 2134.5,570.833 2135.17,571.5 2135.5,572.5C 2136.08,574.749 2137.41,576.415 2139.5,577.5C 2140.08,579.749 2141.41,581.415 2143.5,582.5C 2143.43,584.027 2144.09,585.027 2145.5,585.5C 2145.74,587.404 2146.74,588.738 2148.5,589.5C 2148.43,591.027 2149.09,592.027 2150.5,592.5C 2150.43,594.027 2151.09,595.027 2152.5,595.5C 2152.74,597.404 2153.74,598.738 2155.5,599.5C 2156.34,599.842 2156.67,600.508 2156.5,601.5C 2156.43,603.027 2157.09,604.027 2158.5,604.5C 2158.43,606.027 2159.09,607.027 2160.5,607.5C 2160.43,609.027 2161.09,610.027 2162.5,610.5C 2163.67,611.514 2164.34,612.847 2164.5,614.5C 2164.43,616.027 2165.09,617.027 2166.5,617.5C 2167.34,617.842 2167.67,618.508 2167.5,619.5C 2167.43,621.027 2168.09,622.027 2169.5,622.5C 2170.34,622.842 2170.67,623.508 2170.5,624.5C 2170.43,626.027 2171.09,627.027 2172.5,627.5C 2176.28,633.401 2179.28,639.734 2181.5,646.5C 2181.43,648.027 2182.09,649.027 2183.5,649.5C 2184.6,651.277 2185.43,653.277 2186,655.5C 2186.67,678.833 2186.67,702.167 2186,725.5C 2185.69,731.29 2184.86,736.957 2183.5,742.5C 2182.26,744.214 2181.59,746.214 2181.5,748.5C 2179.77,756.62 2176.44,763.954 2171.5,770.5C 2170.09,770.973 2169.43,771.973 2169.5,773.5C 2165.88,779.745 2161.55,785.412 2156.5,790.5C 2154.74,791.262 2153.74,792.596 2153.5,794.5C 2152.17,796.5 2150.5,798.167 2148.5,799.5C 2147.5,799.833 2146.83,800.5 2146.5,801.5C 2144.17,803.167 2142.17,805.167 2140.5,807.5C 2140.5,807.833 2140.5,808.167 2140.5,808.5C 2136.9,810.43 2133.9,813.097 2131.5,816.5C 2130.17,818.5 2128.5,820.167 2126.5,821.5C 2124.97,821.427 2123.97,822.094 2123.5,823.5C 2121.11,826.861 2118.11,829.528 2114.5,831.5C 2112.97,831.427 2111.97,832.094 2111.5,833.5C 2108.81,836.185 2105.81,838.518 2102.5,840.5C 2100.97,840.427 2099.97,841.094 2099.5,842.5C 2095.38,846.281 2090.71,849.281 2085.5,851.5C 2083.97,851.427 2082.97,852.094 2082.5,853.5C 2066.97,863.342 2049.97,869.009 2031.5,870.5C 2028.12,870.068 2025.12,870.735 2022.5,872.5C 2014.25,874.073 2005.92,875.073 1997.5,875.5C 1992.25,875.302 1987.25,875.969 1982.5,877.5C 1938.29,884.176 1893.96,884.009 1849.5,877C 1783.36,873.428 1717.7,877.428 1652.5,889C 1630.38,892.948 1608.71,898.614 1587.5,906C 1582.17,908.667 1576.83,911.333 1571.5,914C 1560.34,917.941 1549.34,922.275 1538.5,927C 1515.3,934.383 1491.63,939.716 1467.5,943C 1430.34,948.333 1393,951.833 1355.5,953.5C 1351.49,953.334 1347.49,953.501 1343.5,954C 1342.58,954.278 1341.92,954.778 1341.5,955.5C 1341.17,955.5 1340.83,955.5 1340.5,955.5C 1333.8,954.502 1327.13,954.835 1320.5,956.5C 1273.7,957.825 1227.03,955.825 1180.5,950.5C 1170.44,948.137 1160.11,947.137 1149.5,947.5C 1071.69,944.448 994.691,935.114 918.5,919.5C 916.162,917.96 913.495,917.294 910.5,917.5C 906.709,917.341 903.042,916.675 899.5,915.5C 897.162,913.96 894.495,913.294 891.5,913.5C 885.044,912.635 878.71,911.302 872.5,909.5C 870.162,907.96 867.495,907.294 864.5,907.5C 856.725,906.212 849.058,904.545 841.5,902.5C 839.898,900.926 837.898,900.259 835.5,900.5C 829.614,899.61 823.947,898.277 818.5,896.5C 816.898,894.926 814.898,894.259 812.5,894.5C 810.901,894.768 809.568,894.434 808.5,893.5C 806.485,892.076 804.152,891.41 801.5,891.5C 801.167,891.5 800.833,891.5 800.5,891.5C 797.916,889.528 794.916,888.528 791.5,888.5C 789.485,887.076 787.152,886.41 784.5,886.5C 784.167,886.5 783.833,886.5 783.5,886.5C 781.562,884.837 779.228,884.171 776.5,884.5C 773.916,882.528 770.916,881.528 767.5,881.5C 765.162,879.96 762.495,879.294 759.5,879.5C 757.901,879.768 756.568,879.434 755.5,878.5C 753.898,876.926 751.898,876.259 749.5,876.5C 746.201,874.517 742.534,873.517 738.5,873.5C 726.734,870.915 715.734,866.582 705.5,860.5C 705.027,859.094 704.027,858.427 702.5,858.5C 701.508,858.672 700.842,858.338 700.5,857.5C 700.027,856.094 699.027,855.427 697.5,855.5C 697.027,854.094 696.027,853.427 694.5,853.5C 693.508,853.672 692.842,853.338 692.5,852.5C 692.027,851.094 691.027,850.427 689.5,850.5C 688.101,849.11 686.434,848.11 684.5,847.5C 683.508,847.672 682.842,847.338 682.5,846.5C 681.415,844.413 679.749,843.08 677.5,842.5C 676.738,840.738 675.404,839.738 673.5,839.5C 672.5,839.167 671.833,838.5 671.5,837.5C 669.761,834.757 667.427,832.757 664.5,831.5C 662.833,830.5 661.5,829.167 660.5,827.5C 659.92,825.251 658.587,823.585 656.5,822.5C 655.5,822.167 654.833,821.5 654.5,820.5C 654.573,818.973 653.906,817.973 652.5,817.5C 651.094,817.027 650.427,816.027 650.5,814.5C 650.446,812.368 649.446,811.035 647.5,810.5C 645.412,808.664 644.079,806.331 643.5,803.5C 643.573,801.973 642.906,800.973 641.5,800.5C 639.408,797.912 638.075,794.912 637.5,791.5C 637.34,789.847 636.674,788.514 635.5,787.5C 632.202,781.615 629.869,775.282 628.5,768.5C 628.077,763.46 626.744,758.793 624.5,754.5C 624.5,754.167 624.5,753.833 624.5,753.5C 624.117,747.6 623.117,741.933 621.5,736.5C 618.325,717.34 617.992,698.007 620.5,678.5C 622.217,675.155 622.884,671.489 622.5,667.5C 622.171,664.772 622.837,662.438 624.5,660.5C 626.262,659.738 627.262,658.404 627.5,656.5C 629.167,655.5 630.5,654.167 631.5,652.5C 633.404,652.262 634.738,651.262 635.5,649.5C 637.426,647.707 639.759,646.707 642.5,646.5C 662.303,648.275 682.303,648.942 702.5,648.5C 714.202,648.645 725.869,649.312 737.5,650.5C 742.853,652.575 748.52,653.909 754.5,654.5C 755.5,654.5 756.5,654.5 757.5,654.5C 758.99,656.28 760.99,656.946 763.5,656.5C 764.167,656.5 764.833,656.5 765.5,656.5C 769.445,658.626 773.778,659.626 778.5,659.5C 780.5,659.833 782.5,660.167 784.5,660.5C 786.78,662.223 789.447,662.889 792.5,662.5C 793.833,662.5 795.167,662.5 796.5,662.5C 796.611,663.117 796.944,663.617 797.5,664C 799.81,664.497 802.143,664.663 804.5,664.5C 810.4,664.883 816.067,665.883 821.5,667.5C 825.591,668.895 829.924,669.562 834.5,669.5C 853.524,673.038 872.524,676.705 891.5,680.5C 893.78,682.223 896.447,682.889 899.5,682.5C 903.557,682.848 907.557,683.514 911.5,684.5C 915.445,686.626 919.778,687.626 924.5,687.5C 929.824,688.495 935.157,689.495 940.5,690.5C 942.78,692.223 945.447,692.889 948.5,692.5C 950.735,692.205 952.735,692.539 954.5,693.5C 957.171,695.118 960.171,695.785 963.5,695.5C 968.548,695.842 973.548,696.508 978.5,697.5C 984.18,699.6 990.18,700.6 996.5,700.5C 1000.04,700.753 1003.37,701.419 1006.5,702.5C 1009.59,703.785 1012.92,704.451 1016.5,704.5C 1021.72,705.055 1026.72,706.388 1031.5,708.5C 1032.64,710.213 1034.3,710.88 1036.5,710.5C 1043.88,712.4 1050.88,715.066 1057.5,718.5C 1058.55,720.256 1060.22,720.923 1062.5,720.5C 1066.57,722.054 1070.9,722.72 1075.5,722.5C 1075.83,722.5 1076.17,722.5 1076.5,722.5C 1079.88,724.082 1083.54,724.749 1087.5,724.5C 1093.9,725.177 1100.23,726.177 1106.5,727.5C 1109.81,729.37 1113.48,730.37 1117.5,730.5C 1127.07,731.134 1135.74,734.134 1143.5,739.5C 1143.97,740.906 1144.97,741.573 1146.5,741.5C 1146.82,743.048 1147.82,743.715 1149.5,743.5C 1150.49,743.328 1151.16,743.662 1151.5,744.5C 1151.82,746.048 1152.82,746.715 1154.5,746.5C 1156.48,747.471 1158.48,748.471 1160.5,749.5C 1160.82,751.048 1161.82,751.715 1163.5,751.5C 1180.9,759.08 1198.57,766.08 1216.5,772.5C 1218.1,774.074 1220.1,774.741 1222.5,774.5C 1224.1,774.232 1225.43,774.566 1226.5,775.5C 1228.1,777.074 1230.1,777.741 1232.5,777.5C 1233.17,777.5 1233.83,777.5 1234.5,777.5C 1235.99,779.28 1237.99,779.946 1240.5,779.5C 1241.17,779.5 1241.83,779.5 1242.5,779.5C 1242.61,780.117 1242.94,780.617 1243.5,781C 1247.82,781.996 1252.15,782.83 1256.5,783.5C 1259.21,783.575 1261.87,783.908 1264.5,784.5C 1264.92,785.222 1265.58,785.722 1266.5,786C 1269.15,786.497 1271.81,786.664 1274.5,786.5C 1277.39,786.194 1280.05,786.527 1282.5,787.5C 1289.26,789.153 1296.26,789.82 1303.5,789.5C 1307.5,789.5 1311.5,789.5 1315.5,789.5C 1316.61,790.29 1317.94,790.79 1319.5,791C 1345.66,792.592 1371.66,792.759 1397.5,791.5C 1406.75,790.35 1416.08,789.683 1425.5,789.5C 1431.1,789.844 1436.43,789.178 1441.5,787.5C 1444.73,786.586 1448.06,786.253 1451.5,786.5C 1459.1,786.468 1466.43,785.468 1473.5,783.5C 1482.06,781.519 1490.72,780.185 1499.5,779.5C 1503.49,779.884 1507.16,779.217 1510.5,777.5C 1510.83,777.5 1511.17,777.5 1511.5,777.5C 1516.79,777.322 1521.79,776.322 1526.5,774.5C 1531.62,773.011 1536.95,772.011 1542.5,771.5C 1545.43,771.435 1548.09,770.768 1550.5,769.5C 1556.25,767.566 1562.25,766.233 1568.5,765.5C 1572.48,765.258 1576.15,764.258 1579.5,762.5C 1581.91,761.232 1584.57,760.565 1587.5,760.5C 1589.9,760.741 1591.9,760.074 1593.5,758.5C 1594.57,757.566 1595.9,757.232 1597.5,757.5C 1605.7,755.992 1613.36,753.325 1620.5,749.5C 1622.7,749.88 1624.36,749.213 1625.5,747.5C 1625.84,746.662 1626.51,746.328 1627.5,746.5C 1629.7,746.88 1631.36,746.213 1632.5,744.5C 1636.36,744.23 1639.69,742.897 1642.5,740.5C 1647.16,739.943 1651.5,738.61 1655.5,736.5C 1656.78,735.069 1658.45,734.402 1660.5,734.5C 1665.16,733.943 1669.5,732.61 1673.5,730.5C 1686.29,727.128 1698.62,722.794 1710.5,717.5C 1711.21,716.596 1712.21,716.263 1713.5,716.5C 1716.15,716.59 1718.49,715.924 1720.5,714.5C 1721.93,713.463 1723.6,712.796 1725.5,712.5C 1727.9,712.741 1729.9,712.074 1731.5,710.5C 1741.96,707.848 1752.29,704.681 1762.5,701C 1763.06,700.617 1763.39,700.117 1763.5,699.5C 1766.01,699.946 1768.01,699.28 1769.5,697.5C 1771.3,696.542 1773.3,695.875 1775.5,695.5C 1777.7,695.88 1779.36,695.213 1780.5,693.5C 1784.71,693.323 1788.37,691.99 1791.5,689.5C 1793.7,689.88 1795.36,689.213 1796.5,687.5C 1798.7,687.88 1800.36,687.213 1801.5,685.5C 1803.7,685.88 1805.36,685.213 1806.5,683.5C 1808.7,683.88 1810.36,683.213 1811.5,681.5C 1813.7,681.88 1815.36,681.213 1816.5,679.5C 1818.7,679.88 1820.36,679.213 1821.5,677.5C 1822.21,676.596 1823.21,676.263 1824.5,676.5C 1827.72,676.655 1830.38,675.655 1832.5,673.5C 1834.42,672.637 1836.42,671.971 1838.5,671.5C 1849.17,668.943 1859.5,665.609 1869.5,661.5C 1872.92,661.472 1875.92,660.472 1878.5,658.5C 1879.57,657.566 1880.9,657.232 1882.5,657.5C 1885.15,657.59 1887.49,656.924 1889.5,655.5C 1892.92,655.472 1895.92,654.472 1898.5,652.5C 1898.83,652.5 1899.17,652.5 1899.5,652.5C 1902.15,652.59 1904.49,651.924 1906.5,650.5C 1907.57,649.566 1908.9,649.232 1910.5,649.5C 1913.92,649.472 1916.92,648.472 1919.5,646.5C 1919.83,646.5 1920.17,646.5 1920.5,646.5C 1923.15,646.59 1925.49,645.924 1927.5,644.5C 1928.57,643.566 1929.9,643.232 1931.5,643.5C 1934.92,643.472 1937.92,642.472 1940.5,640.5C 1940.83,640.5 1941.17,640.5 1941.5,640.5C 1944.15,640.59 1946.49,639.924 1948.5,638.5C 1952.92,638.139 1956.92,636.806 1960.5,634.5C 1960.83,634.5 1961.17,634.5 1961.5,634.5C 1965.16,634.277 1968.5,633.277 1971.5,631.5C 1972.78,630.069 1974.45,629.402 1976.5,629.5C 1981.7,628.991 1986.37,627.324 1990.5,624.5C 1992.7,624.88 1994.36,624.213 1995.5,622.5C 1998.72,622.655 2001.38,621.655 2003.5,619.5C 2003.84,618.662 2004.51,618.328 2005.5,618.5C 2008.01,618.946 2010.01,618.28 2011.5,616.5C 2013.7,616.88 2015.36,616.213 2016.5,614.5C 2018.42,613.637 2020.42,612.971 2022.5,612.5C 2027.7,611.991 2032.37,610.324 2036.5,607.5C 2039.01,607.946 2041.01,607.28 2042.5,605.5C 2043.21,604.596 2044.21,604.263 2045.5,604.5C 2048.72,604.655 2051.38,603.655 2053.5,601.5C 2055.7,601.88 2057.36,601.213 2058.5,599.5C 2060.85,597.659 2063.52,596.326 2066.5,595.5C 2068.03,595.573 2069.03,594.906 2069.5,593.5C 2069.84,592.662 2070.51,592.328 2071.5,592.5C 2073.03,592.573 2074.03,591.906 2074.5,590.5C 2076.4,590.262 2077.74,589.262 2078.5,587.5C 2080.4,587.262 2081.74,586.262 2082.5,584.5C 2083.83,583.833 2084.83,582.833 2085.5,581.5C 2088.17,580.833 2089.83,579.167 2090.5,576.5C 2091.5,574.833 2092.83,573.5 2094.5,572.5C 2095.91,572.027 2096.57,571.027 2096.5,569.5C 2097.91,569.027 2098.57,568.027 2098.5,566.5C 2098.33,565.508 2098.66,564.842 2099.5,564.5C 2101.21,563.365 2101.88,561.698 2101.5,559.5C 2101.67,557.139 2102.01,554.806 2102.5,552.5C 2102.87,547.906 2103.87,543.573 2105.5,539.5 Z"/></g>
<g><path style="opacity:0.427" fill="#1b1b1b" d="M 2105.5,539.5 C 2107.59,540.585 2108.92,542.251 2109.5,544.5C 2107.41,543.415 2106.08,541.749 2105.5,539.5 Z"/></g>
<g><path style="opacity:0.643" fill="#222222" d="M 2117.5,552.5 C 2120.9,554.9 2123.57,557.9 2125.5,561.5C 2122.1,559.1 2119.43,556.1 2117.5,552.5 Z"/></g>
<g><path style="opacity:0.835" fill="#353535" d="M 2101.5,559.5 C 2101.88,561.698 2101.21,563.365 2099.5,564.5C 2099.8,562.597 2100.46,560.93 2101.5,559.5 Z"/></g>
<g><path style="opacity:0.718" fill="#242424" d="M 2127.5,563.5 C 2130.24,565.239 2132.24,567.573 2133.5,570.5C 2130.76,568.761 2128.76,566.427 2127.5,563.5 Z"/></g>
<g><path style="opacity:0.239" fill="#1c1c1c" d="M 2098.5,566.5 C 2098.57,568.027 2097.91,569.027 2096.5,569.5C 2096.43,567.973 2097.09,566.973 2098.5,566.5 Z"/></g>
<g><path style="opacity:0.341" fill="#252525" d="M 2096.5,569.5 C 2096.57,571.027 2095.91,572.027 2094.5,572.5C 2094.43,570.973 2095.09,569.973 2096.5,569.5 Z"/></g>
<g><path style="opacity:0.58" fill="#1f1f1f" d="M 2135.5,572.5 C 2137.59,573.585 2138.92,575.251 2139.5,577.5C 2137.41,576.415 2136.08,574.749 2135.5,572.5 Z"/></g>
<g><path style="opacity:0.706" fill="#343434" d="M 2090.5,576.5 C 2089.83,579.167 2088.17,580.833 2085.5,581.5C 2086.83,579.5 2088.5,577.833 2090.5,576.5 Z"/></g>
<g><path style="opacity:0.275" fill="#1f1f1f" d="M 2139.5,577.5 C 2141.59,578.585 2142.92,580.251 2143.5,582.5C 2141.41,581.415 2140.08,579.749 2139.5,577.5 Z"/></g>
<g><path style="opacity:0.275" fill="#121212" d="M 2085.5,581.5 C 2084.83,582.833 2083.83,583.833 2082.5,584.5C 2082.5,582.5 2083.5,581.5 2085.5,581.5 Z"/></g>
<g><path style="opacity:0.435" fill="#252525" d="M 2143.5,582.5 C 2144.91,582.973 2145.57,583.973 2145.5,585.5C 2144.09,585.027 2143.43,584.027 2143.5,582.5 Z"/></g>
<g><path style="opacity:0.494" fill="#282828" d="M 2082.5,584.5 C 2081.74,586.262 2080.4,587.262 2078.5,587.5C 2079.26,585.738 2080.6,584.738 2082.5,584.5 Z"/></g>
<g><path style="opacity:0.773" fill="#2e2e2e" d="M 2145.5,585.5 C 2147.26,586.262 2148.26,587.596 2148.5,589.5C 2146.74,588.738 2145.74,587.404 2145.5,585.5 Z"/></g>
<g><path style="opacity:0.333" fill="#1d1d1d" d="M 2078.5,587.5 C 2077.74,589.262 2076.4,590.262 2074.5,590.5C 2075.26,588.738 2076.6,587.738 2078.5,587.5 Z"/></g>
<g><path style="opacity:0.439" fill="#1f1f1f" d="M 2074.5,590.5 C 2074.03,591.906 2073.03,592.573 2071.5,592.5C 2071.97,591.094 2072.97,590.427 2074.5,590.5 Z"/></g>
<g><path style="opacity:0.392" fill="#242424" d="M 2148.5,589.5 C 2149.91,589.973 2150.57,590.973 2150.5,592.5C 2149.09,592.027 2148.43,591.027 2148.5,589.5 Z"/></g>
<g><path style="opacity:0.373" fill="#151515" d="M 2069.5,593.5 C 2069.03,594.906 2068.03,595.573 2066.5,595.5C 2066.97,594.094 2067.97,593.427 2069.5,593.5 Z"/></g>
<g><path style="opacity:0.42" fill="#2b2b2b" d="M 2150.5,592.5 C 2151.91,592.973 2152.57,593.973 2152.5,595.5C 2151.09,595.027 2150.43,594.027 2150.5,592.5 Z"/></g>
<g><path style="opacity:0.392" fill="#242424" d="M 2152.5,595.5 C 2154.26,596.262 2155.26,597.596 2155.5,599.5C 2153.74,598.738 2152.74,597.404 2152.5,595.5 Z"/></g>
<g><path style="opacity:0.843" fill="#2d2d2d" d="M 2058.5,599.5 C 2057.36,601.213 2055.7,601.88 2053.5,601.5C 2054.78,600.069 2056.45,599.402 2058.5,599.5 Z"/></g>
<g><path style="opacity:0.722" fill="#333333" d="M 2053.5,601.5 C 2051.38,603.655 2048.72,604.655 2045.5,604.5C 2047.94,603.129 2050.6,602.129 2053.5,601.5 Z"/></g>
<g><path style="opacity:0.376" fill="#232323" d="M 2156.5,601.5 C 2157.91,601.973 2158.57,602.973 2158.5,604.5C 2157.09,604.027 2156.43,603.027 2156.5,601.5 Z"/></g>
<g><path style="opacity:0.847" fill="#2d2d2d" d="M 2042.5,605.5 C 2041.01,607.28 2039.01,607.946 2036.5,607.5C 2038.21,606.262 2040.21,605.595 2042.5,605.5 Z"/></g>
<g><path style="opacity:0.263" fill="#1b1b1b" d="M 2158.5,604.5 C 2159.91,604.973 2160.57,605.973 2160.5,607.5C 2159.09,607.027 2158.43,606.027 2158.5,604.5 Z"/></g>
<g><path style="opacity:0.165" fill="#151515" d="M 2160.5,607.5 C 2161.91,607.973 2162.57,608.973 2162.5,610.5C 2161.09,610.027 2160.43,609.027 2160.5,607.5 Z"/></g>
<g><path style="opacity:0.788" fill="#353535" d="M 2036.5,607.5 C 2032.37,610.324 2027.7,611.991 2022.5,612.5C 2026.94,610.462 2031.61,608.796 2036.5,607.5 Z"/></g>
<g><path style="opacity:0.804" fill="#323232" d="M 2016.5,614.5 C 2015.36,616.213 2013.7,616.88 2011.5,616.5C 2012.93,615.463 2014.6,614.796 2016.5,614.5 Z"/></g>
<g><path style="opacity:1" fill="#676767" d="M 205.5,618.5 C 209.183,620.25 213.183,620.917 217.5,620.5C 221.924,620.652 226.257,621.319 230.5,622.5C 232.78,624.223 235.447,624.889 238.5,624.5C 238.833,624.5 239.167,624.5 239.5,624.5C 239.611,625.117 239.944,625.617 240.5,626C 252.126,628.492 263.792,630.659 275.5,632.5C 295.328,635.043 314.995,638.376 334.5,642.5C 334.611,643.117 334.944,643.617 335.5,644C 337.473,644.495 339.473,644.662 341.5,644.5C 342.5,644.5 343.5,644.5 344.5,644.5C 348.445,646.626 352.778,647.626 357.5,647.5C 361.86,648.007 366.193,648.673 370.5,649.5C 370.611,650.117 370.944,650.617 371.5,651C 373.473,651.495 375.473,651.662 377.5,651.5C 384.954,652.208 392.288,653.541 399.5,655.5C 405.118,657.96 411.118,659.293 417.5,659.5C 423.186,660.392 428.853,661.392 434.5,662.5C 437.123,664.265 440.123,664.932 443.5,664.5C 449.067,664.899 454.401,665.899 459.5,667.5C 463.943,668.801 468.609,669.468 473.5,669.5C 473.833,669.5 474.167,669.5 474.5,669.5C 478.236,670.989 482.236,671.656 486.5,671.5C 486.833,671.5 487.167,671.5 487.5,671.5C 489.438,673.163 491.772,673.829 494.5,673.5C 506.294,675.988 517.627,679.654 528.5,684.5C 529.78,685.931 531.447,686.598 533.5,686.5C 534.492,686.328 535.158,686.662 535.5,687.5C 536.635,689.213 538.302,689.88 540.5,689.5C 541.5,689.5 542.5,689.5 543.5,689.5C 546.123,691.265 549.123,691.932 552.5,691.5C 552.833,691.5 553.167,691.5 553.5,691.5C 557.236,692.989 561.236,693.656 565.5,693.5C 571.125,693.58 576.458,694.58 581.5,696.5C 584.909,697.903 588.575,698.57 592.5,698.5C 598.516,698.833 604.183,700.166 609.5,702.5C 610.78,703.931 612.447,704.598 614.5,704.5C 615.529,721.806 617.529,739.14 620.5,756.5C 620.171,759.228 620.837,761.562 622.5,763.5C 622.294,766.495 622.96,769.162 624.5,771.5C 625.537,772.93 626.204,774.597 626.5,776.5C 626.12,778.698 626.787,780.365 628.5,781.5C 629.11,782.391 629.443,783.391 629.5,784.5C 629.12,786.698 629.787,788.365 631.5,789.5C 634.674,794.516 637.341,799.849 639.5,805.5C 639.427,807.027 640.094,808.027 641.5,808.5C 642.674,809.514 643.34,810.847 643.5,812.5C 643.738,814.404 644.738,815.738 646.5,816.5C 646.427,818.027 647.094,819.027 648.5,819.5C 648.738,821.404 649.738,822.738 651.5,823.5C 652.757,826.427 654.757,828.761 657.5,830.5C 660.833,833.167 663.833,836.167 666.5,839.5C 667.262,841.262 668.596,842.262 670.5,842.5C 671.5,842.833 672.167,843.5 672.5,844.5C 672.973,845.906 673.973,846.573 675.5,846.5C 676.733,848.796 678.733,850.13 681.5,850.5C 681.973,851.906 682.973,852.573 684.5,852.5C 685.492,852.328 686.158,852.662 686.5,853.5C 687.035,855.446 688.368,856.446 690.5,856.5C 692.153,856.66 693.486,857.326 694.5,858.5C 694.821,860.048 695.821,860.715 697.5,860.5C 698.492,860.328 699.158,860.662 699.5,861.5C 699.973,862.906 700.973,863.573 702.5,863.5C 708.278,865.646 713.944,867.979 719.5,870.5C 720.287,872.104 721.62,872.771 723.5,872.5C 726.785,872.928 729.785,873.928 732.5,875.5C 733.78,876.931 735.447,877.598 737.5,877.5C 738.167,877.5 738.833,877.5 739.5,877.5C 740.635,879.213 742.302,879.88 744.5,879.5C 746.099,879.232 747.432,879.566 748.5,880.5C 750.102,882.074 752.102,882.741 754.5,882.5C 757.067,882.721 759.401,883.388 761.5,884.5C 763.515,885.924 765.848,886.59 768.5,886.5C 775.694,888.124 782.694,890.124 789.5,892.5C 791.102,894.074 793.102,894.741 795.5,894.5C 801.709,895.798 807.709,897.464 813.5,899.5C 815.102,901.074 817.102,901.741 819.5,901.5C 825.386,902.39 831.053,903.723 836.5,905.5C 839.763,907.568 843.43,908.568 847.5,908.5C 848.5,908.5 849.5,908.5 850.5,908.5C 850.611,909.117 850.944,909.617 851.5,910C 855.114,910.936 858.78,911.436 862.5,911.5C 868.095,912.232 873.429,913.565 878.5,915.5C 879.091,916.151 879.757,916.818 880.5,917.5C 876.094,918.746 871.76,919.746 867.5,920.5C 843.158,922.183 818.825,924.016 794.5,926C 771.821,926.636 749.155,926.303 726.5,925C 657.138,919.643 587.805,913.976 518.5,908C 472.761,902.681 427.428,895.181 382.5,885.5C 380.162,883.96 377.495,883.294 374.5,883.5C 371.061,883.212 367.728,882.546 364.5,881.5C 362.162,879.96 359.495,879.294 356.5,879.5C 355.833,879.5 355.167,879.5 354.5,879.5C 352.562,877.837 350.228,877.171 347.5,877.5C 342.908,877.118 338.575,876.118 334.5,874.5C 330.841,872.658 326.841,871.658 322.5,871.5C 319.219,871.58 316.219,870.913 313.5,869.5C 311.162,867.96 308.495,867.294 305.5,867.5C 305.167,867.5 304.833,867.5 304.5,867.5C 302.898,865.926 300.898,865.259 298.5,865.5C 295.37,865.3 292.37,864.634 289.5,863.5C 287.562,861.837 285.228,861.171 282.5,861.5C 280.898,859.926 278.898,859.259 276.5,859.5C 274.485,858.076 272.152,857.41 269.5,857.5C 266.659,857.44 263.993,856.774 261.5,855.5C 258.916,853.528 255.916,852.528 252.5,852.5C 250.485,851.076 248.152,850.41 245.5,850.5C 245.167,850.5 244.833,850.5 244.5,850.5C 241.916,848.528 238.916,847.528 235.5,847.5C 233.901,847.768 232.568,847.434 231.5,846.5C 229.485,845.076 227.152,844.41 224.5,844.5C 224.167,844.5 223.833,844.5 223.5,844.5C 221.898,842.926 219.898,842.259 217.5,842.5C 217.167,842.5 216.833,842.5 216.5,842.5C 215.365,840.787 213.698,840.12 211.5,840.5C 207.908,840.302 204.574,839.302 201.5,837.5C 199.824,835.166 197.491,834.166 194.5,834.5C 191.088,833.925 188.088,832.592 185.5,830.5C 185.027,829.094 184.027,828.427 182.5,828.5C 181.508,828.672 180.842,828.338 180.5,827.5C 179.738,825.738 178.404,824.738 176.5,824.5C 175.508,824.672 174.842,824.338 174.5,823.5C 174.027,822.094 173.027,821.427 171.5,821.5C 169.847,821.34 168.514,820.674 167.5,819.5C 167.027,818.094 166.027,817.427 164.5,817.5C 163.508,817.672 162.842,817.338 162.5,816.5C 161.415,814.413 159.749,813.08 157.5,812.5C 156.738,810.738 155.404,809.738 153.5,809.5C 153.167,808.5 152.5,807.833 151.5,807.5C 150.415,805.413 148.749,804.08 146.5,803.5C 142.833,800.5 139.5,797.167 136.5,793.5C 135.864,791.205 134.531,789.539 132.5,788.5C 132.573,786.973 131.906,785.973 130.5,785.5C 130.446,783.368 129.446,782.035 127.5,781.5C 126.662,781.158 126.328,780.492 126.5,779.5C 126.446,777.368 125.446,776.035 123.5,775.5C 122.508,773.544 121.508,771.544 120.5,769.5C 120.573,767.973 119.906,766.973 118.5,766.5C 118.5,766.167 118.5,765.833 118.5,765.5C 118.715,763.821 118.048,762.821 116.5,762.5C 115.559,760.95 114.893,759.284 114.5,757.5C 114.598,755.447 113.931,753.78 112.5,752.5C 108.797,746.051 106.464,739.051 105.5,731.5C 105.741,729.102 105.074,727.102 103.5,725.5C 101.733,719.659 100.733,713.659 100.5,707.5C 100.638,702.586 99.9715,697.919 98.5,693.5C 97.2014,680.209 97.2014,666.876 98.5,653.5C 100.211,649.119 100.877,644.453 100.5,639.5C 100.5,639.167 100.5,638.833 100.5,638.5C 101.924,636.485 102.59,634.152 102.5,631.5C 102.5,631.167 102.5,630.833 102.5,630.5C 104.262,629.738 105.262,628.404 105.5,626.5C 108.167,624.5 110.5,622.167 112.5,619.5C 114.027,619.573 115.027,618.906 115.5,617.5C 116.952,616.698 118.618,616.198 120.5,616C 148.866,615.758 177.199,616.591 205.5,618.5 Z"/></g>
<g><path style="opacity:0.298" fill="#202020" d="M 2164.5,614.5 C 2165.91,614.973 2166.57,615.973 2166.5,617.5C 2165.09,617.027 2164.43,616.027 2164.5,614.5 Z"/></g>
<g><path style="opacity:0.91" fill="#333333" d="M 2011.5,616.5 C 2010.01,618.28 2008.01,618.946 2005.5,618.5C 2007.21,617.262 2009.21,616.595 2011.5,616.5 Z"/></g>
<g><path style="opacity:0.722" fill="#303030" d="M 115.5,617.5 C 115.027,618.906 114.027,619.573 112.5,619.5C 112.973,618.094 113.973,617.427 115.5,617.5 Z"/></g>
<g><path style="opacity:0.647" fill="#2f2f2f" d="M 205.5,618.5 C 209.684,618.851 213.684,619.518 217.5,620.5C 213.183,620.917 209.183,620.25 205.5,618.5 Z"/></g>
<g><path style="opacity:0.816" fill="#3b3b3b" d="M 2003.5,619.5 C 2001.38,621.655 1998.72,622.655 1995.5,622.5C 1997.94,621.129 2000.6,620.129 2003.5,619.5 Z"/></g>
<g><path style="opacity:0.212" fill="#1d1d1d" d="M 2167.5,619.5 C 2168.91,619.973 2169.57,620.973 2169.5,622.5C 2168.09,622.027 2167.43,621.027 2167.5,619.5 Z"/></g>
<g><path style="opacity:0.514" fill="#252525" d="M 112.5,619.5 C 110.5,622.167 108.167,624.5 105.5,626.5C 106.833,623.167 109.167,620.833 112.5,619.5 Z"/></g>
<g><path style="opacity:0.014" fill="#1b1b1b" d="M 230.5,622.5 C 233.373,622.802 236.039,623.469 238.5,624.5C 235.447,624.889 232.78,624.223 230.5,622.5 Z"/></g>
<g><path style="opacity:0.847" fill="#353535" d="M 1995.5,622.5 C 1994.36,624.213 1992.7,624.88 1990.5,624.5C 1991.93,623.463 1993.6,622.796 1995.5,622.5 Z"/></g>
<g><path style="opacity:0.702" fill="#2b2b2b" d="M 239.5,624.5 C 251.695,626.803 263.695,629.47 275.5,632.5C 263.792,630.659 252.126,628.492 240.5,626C 239.944,625.617 239.611,625.117 239.5,624.5 Z"/></g>
<g><path style="opacity:0.118" fill="#131313" d="M 2170.5,624.5 C 2171.91,624.973 2172.57,625.973 2172.5,627.5C 2171.09,627.027 2170.43,626.027 2170.5,624.5 Z"/></g>
<g><path style="opacity:0.404" fill="#222222" d="M 105.5,626.5 C 105.262,628.404 104.262,629.738 102.5,630.5C 102.738,628.596 103.738,627.262 105.5,626.5 Z"/></g>
<g><path style="opacity:0.659" fill="#313131" d="M 1990.5,624.5 C 1986.37,627.324 1981.7,628.991 1976.5,629.5C 1980.94,627.462 1985.61,625.796 1990.5,624.5 Z"/></g>
<g><path style="opacity:0.682" fill="#323232" d="M 1971.5,631.5 C 1968.5,633.277 1965.16,634.277 1961.5,634.5C 1964.5,632.723 1967.84,631.723 1971.5,631.5 Z"/></g>
<g><path style="opacity:0.706" fill="#2f2f2f" d="M 1960.5,634.5 C 1956.92,636.806 1952.92,638.139 1948.5,638.5C 1952.22,636.595 1956.22,635.261 1960.5,634.5 Z"/></g>
<g><path style="opacity:0.416" fill="#2d2d2d" d="M 102.5,631.5 C 102.59,634.152 101.924,636.485 100.5,638.5C 100.41,635.848 101.076,633.515 102.5,631.5 Z"/></g>
<g><path style="opacity:0.725" fill="#343434" d="M 1948.5,638.5 C 1946.49,639.924 1944.15,640.59 1941.5,640.5C 1943.51,639.076 1945.85,638.41 1948.5,638.5 Z"/></g>
<g><path style="opacity:0.725" fill="#2c2c2c" d="M 1940.5,640.5 C 1937.92,642.472 1934.92,643.472 1931.5,643.5C 1934.15,641.747 1937.15,640.747 1940.5,640.5 Z"/></g>
<g><path style="opacity:0.722" fill="#303030" d="M 334.5,642.5 C 337.01,642.927 339.343,643.593 341.5,644.5C 339.473,644.662 337.473,644.495 335.5,644C 334.944,643.617 334.611,643.117 334.5,642.5 Z"/></g>
<g><path style="opacity:0.514" fill="#222222" d="M 344.5,644.5 C 349.035,645.137 353.368,646.137 357.5,647.5C 352.778,647.626 348.445,646.626 344.5,644.5 Z"/></g>
<g><path style="opacity:0.663" fill="#2e2e2e" d="M 1927.5,644.5 C 1925.49,645.924 1923.15,646.59 1920.5,646.5C 1922.51,645.076 1924.85,644.41 1927.5,644.5 Z"/></g>
<g><path style="opacity:0.792" fill="#393939" d="M 100.5,639.5 C 100.877,644.453 100.211,649.119 98.5,653.5C 98.8127,648.647 99.4794,643.98 100.5,639.5 Z"/></g>
<g><path style="opacity:0.822" fill="#363636" d="M 642.5,646.5 C 662.682,646.463 682.682,647.129 702.5,648.5C 682.303,648.942 662.303,648.275 642.5,646.5 Z"/></g>
<g><path style="opacity:0.753" fill="#323232" d="M 1919.5,646.5 C 1916.92,648.472 1913.92,649.472 1910.5,649.5C 1913.22,647.928 1916.22,646.928 1919.5,646.5 Z"/></g>
<g><path style="opacity:0.118" fill="#151515" d="M 2181.5,646.5 C 2182.91,646.973 2183.57,647.973 2183.5,649.5C 2182.09,649.027 2181.43,648.027 2181.5,646.5 Z"/></g>
<g><path style="opacity:0.267" fill="#262626" d="M 370.5,649.5 C 373.01,649.927 375.343,650.593 377.5,651.5C 375.473,651.662 373.473,651.495 371.5,651C 370.944,650.617 370.611,650.117 370.5,649.5 Z"/></g>
<g><path style="opacity:0.561" fill="#2c2c2c" d="M 635.5,649.5 C 634.738,651.262 633.404,652.262 631.5,652.5C 632.262,650.738 633.596,649.738 635.5,649.5 Z"/></g>
<g><path style="opacity:0.62" fill="#262626" d="M 737.5,650.5 C 743.458,651.096 749.125,652.43 754.5,654.5C 748.52,653.909 742.853,652.575 737.5,650.5 Z"/></g>
<g><path style="opacity:0.639" fill="#2e2e2e" d="M 1906.5,650.5 C 1904.49,651.924 1902.15,652.59 1899.5,652.5C 1901.51,651.076 1903.85,650.41 1906.5,650.5 Z"/></g>
<g><path style="opacity:0.349" fill="#161616" d="M 631.5,652.5 C 630.5,654.167 629.167,655.5 627.5,656.5C 627.833,654.167 629.167,652.833 631.5,652.5 Z"/></g>
<g><path style="opacity:0.729" fill="#303030" d="M 1898.5,652.5 C 1895.92,654.472 1892.92,655.472 1889.5,655.5C 1892.22,653.928 1895.22,652.928 1898.5,652.5 Z"/></g>
<g><path style="opacity:0.569" fill="#292929" d="M 757.5,654.5 C 759.698,654.875 761.698,655.542 763.5,656.5C 760.99,656.946 758.99,656.28 757.5,654.5 Z"/></g>
<g><path style="opacity:0.525" fill="#232323" d="M 399.5,655.5 C 405.7,656.471 411.7,657.804 417.5,659.5C 411.118,659.293 405.118,657.96 399.5,655.5 Z"/></g>
<g><path style="opacity:0.686" fill="#313131" d="M 1889.5,655.5 C 1887.49,656.924 1885.15,657.59 1882.5,657.5C 1884.51,656.076 1886.85,655.41 1889.5,655.5 Z"/></g>
<g><path style="opacity:0.749" fill="#2c2c2c" d="M 627.5,656.5 C 627.262,658.404 626.262,659.738 624.5,660.5C 624.738,658.596 625.738,657.262 627.5,656.5 Z"/></g>
<g><path style="opacity:0.557" fill="#242424" d="M 765.5,656.5 C 770.035,657.137 774.368,658.137 778.5,659.5C 773.778,659.626 769.445,658.626 765.5,656.5 Z"/></g>
<g><path style="opacity:0.761" fill="#333333" d="M 1878.5,658.5 C 1875.92,660.472 1872.92,661.472 1869.5,661.5C 1872.22,659.928 1875.22,658.928 1878.5,658.5 Z"/></g>
<g><path style="opacity:0.514" fill="#2b2b2b" d="M 784.5,660.5 C 787.373,660.802 790.039,661.469 792.5,662.5C 789.447,662.889 786.78,662.223 784.5,660.5 Z"/></g>
<g><path style="opacity:0.596" fill="#282828" d="M 434.5,662.5 C 437.689,662.858 440.689,663.525 443.5,664.5C 440.123,664.932 437.123,664.265 434.5,662.5 Z"/></g>
<g><path style="opacity:0.02" fill="#1a1a1a" d="M 796.5,662.5 C 799.33,662.963 801.997,663.629 804.5,664.5C 802.143,664.663 799.81,664.497 797.5,664C 796.944,663.617 796.611,663.117 796.5,662.5 Z"/></g>
<g><path style="opacity:0.329" fill="#303030" d="M 459.5,667.5 C 464.414,667.362 469.081,668.028 473.5,669.5C 468.609,669.468 463.943,668.801 459.5,667.5 Z"/></g>
<g><path style="opacity:0.631" fill="#2c2c2c" d="M 821.5,667.5 C 826.076,667.438 830.409,668.105 834.5,669.5C 829.924,669.562 825.591,668.895 821.5,667.5 Z"/></g>
<g><path style="opacity:0.776" fill="#333333" d="M 1869.5,661.5 C 1859.5,665.609 1849.17,668.943 1838.5,671.5C 1848.49,667.349 1858.83,664.015 1869.5,661.5 Z"/></g>
<g><path style="opacity:0.075" fill="#1f1f1f" d="M 474.5,669.5 C 478.733,669.539 482.733,670.205 486.5,671.5C 482.236,671.656 478.236,670.989 474.5,669.5 Z"/></g>
<g><path style="opacity:0.663" fill="#2c2c2c" d="M 487.5,671.5 C 490.067,671.721 492.401,672.388 494.5,673.5C 491.772,673.829 489.438,673.163 487.5,671.5 Z"/></g>
<g><path style="opacity:0.863" fill="#393939" d="M 622.5,667.5 C 622.884,671.489 622.217,675.155 620.5,678.5C 620.808,674.64 621.475,670.974 622.5,667.5 Z"/></g>
<g><path style="opacity:0.765" fill="#353535" d="M 1832.5,673.5 C 1830.38,675.655 1827.72,676.655 1824.5,676.5C 1826.94,675.129 1829.6,674.129 1832.5,673.5 Z"/></g>
<g><path style="opacity:0.733" fill="#282828" d="M 1821.5,677.5 C 1820.36,679.213 1818.7,679.88 1816.5,679.5C 1817.93,678.463 1819.6,677.796 1821.5,677.5 Z"/></g>
<g><path style="opacity:0.8" fill="#303030" d="M 1816.5,679.5 C 1815.36,681.213 1813.7,681.88 1811.5,681.5C 1812.93,680.463 1814.6,679.796 1816.5,679.5 Z"/></g>
<g><path style="opacity:0.557" fill="#292929" d="M 891.5,680.5 C 894.373,680.802 897.039,681.469 899.5,682.5C 896.447,682.889 893.78,682.223 891.5,680.5 Z"/></g>
<g><path style="opacity:0.82" fill="#2d2d2d" d="M 1811.5,681.5 C 1810.36,683.213 1808.7,683.88 1806.5,683.5C 1807.78,682.069 1809.45,681.402 1811.5,681.5 Z"/></g>
<g><path style="opacity:0.808" fill="#303030" d="M 1806.5,683.5 C 1805.36,685.213 1803.7,685.88 1801.5,685.5C 1802.93,684.463 1804.6,683.796 1806.5,683.5 Z"/></g>
<g><path style="opacity:0.22" fill="#212121" d="M 528.5,684.5 C 530.553,684.402 532.22,685.069 533.5,686.5C 531.447,686.598 529.78,685.931 528.5,684.5 Z"/></g>
<g><path style="opacity:0.569" fill="#262626" d="M 911.5,684.5 C 916.035,685.137 920.368,686.137 924.5,687.5C 919.778,687.626 915.445,686.626 911.5,684.5 Z"/></g>
<g><path style="opacity:0.82" fill="#333333" d="M 1801.5,685.5 C 1800.36,687.213 1798.7,687.88 1796.5,687.5C 1797.93,686.463 1799.6,685.796 1801.5,685.5 Z"/></g>
<g><path style="opacity:0.478" fill="#292929" d="M 535.5,687.5 C 537.403,687.796 539.07,688.463 540.5,689.5C 538.302,689.88 536.635,689.213 535.5,687.5 Z"/></g>
<g><path style="opacity:0.843" fill="#2f2f2f" d="M 1796.5,687.5 C 1795.36,689.213 1793.7,689.88 1791.5,689.5C 1792.78,688.069 1794.45,687.402 1796.5,687.5 Z"/></g>
<g><path style="opacity:0.675" fill="#2c2c2c" d="M 543.5,689.5 C 546.689,689.858 549.689,690.525 552.5,691.5C 549.123,691.932 546.123,691.265 543.5,689.5 Z"/></g>
<g><path style="opacity:0.89" fill="#373737" d="M 1791.5,689.5 C 1788.37,691.99 1784.71,693.323 1780.5,693.5C 1783.94,691.796 1787.61,690.462 1791.5,689.5 Z"/></g>
<g><path style="opacity:0.608" fill="#2a2a2a" d="M 940.5,690.5 C 943.373,690.802 946.039,691.469 948.5,692.5C 945.447,692.889 942.78,692.223 940.5,690.5 Z"/></g>
<g><path style="opacity:0.263" fill="#303030" d="M 553.5,691.5 C 557.733,691.539 561.733,692.205 565.5,693.5C 561.236,693.656 557.236,692.989 553.5,691.5 Z"/></g>
<g><path style="opacity:0.741" fill="#333333" d="M 954.5,693.5 C 957.781,693.42 960.781,694.087 963.5,695.5C 960.171,695.785 957.171,695.118 954.5,693.5 Z"/></g>
<g><path style="opacity:0.808" fill="#2b2b2b" d="M 1780.5,693.5 C 1779.36,695.213 1777.7,695.88 1775.5,695.5C 1776.78,694.069 1778.45,693.402 1780.5,693.5 Z"/></g>
<g><path style="opacity:0.494" fill="#313131" d="M 581.5,696.5 C 585.425,696.43 589.091,697.097 592.5,698.5C 588.575,698.57 584.909,697.903 581.5,696.5 Z"/></g>
<g><path style="opacity:0.278" fill="#252525" d="M 978.5,697.5 C 984.69,698.143 990.69,699.143 996.5,700.5C 990.18,700.6 984.18,699.6 978.5,697.5 Z"/></g>
<g><path style="opacity:0.827" fill="#2f2f2f" d="M 1769.5,697.5 C 1768.01,699.28 1766.01,699.946 1763.5,699.5C 1765.3,698.542 1767.3,697.875 1769.5,697.5 Z"/></g>
<g><path style="opacity:0.455" fill="#353535" d="M 98.5,693.5 C 99.9715,697.919 100.638,702.586 100.5,707.5C 99.1985,703.057 98.5319,698.391 98.5,693.5 Z"/></g>
<g><path style="opacity:0.469" fill="#2f2f2f" d="M 1006.5,702.5 C 1010.12,702.322 1013.46,702.989 1016.5,704.5C 1012.92,704.451 1009.59,703.785 1006.5,702.5 Z"/></g>
<g><path style="opacity:0.353" fill="#282828" d="M 609.5,702.5 C 611.553,702.402 613.22,703.069 614.5,704.5C 612.447,704.598 610.78,703.931 609.5,702.5 Z"/></g>
<g><path style="opacity:0.733" fill="#303030" d="M 1763.5,699.5 C 1763.39,700.117 1763.06,700.617 1762.5,701C 1752.29,704.681 1741.96,707.848 1731.5,710.5C 1741.95,706.459 1752.62,702.792 1763.5,699.5 Z"/></g>
<g><path style="opacity:0.329" fill="#212121" d="M 1031.5,708.5 C 1033.4,708.796 1035.07,709.463 1036.5,710.5C 1034.3,710.88 1032.64,710.213 1031.5,708.5 Z"/></g>
<g><path style="opacity:0.627" fill="#272727" d="M 1731.5,710.5 C 1729.9,712.074 1727.9,712.741 1725.5,712.5C 1727.21,711.262 1729.21,710.595 1731.5,710.5 Z"/></g>
<g><path style="opacity:0.604" fill="#262626" d="M 1720.5,714.5 C 1718.49,715.924 1716.15,716.59 1713.5,716.5C 1715.51,715.076 1717.85,714.41 1720.5,714.5 Z"/></g>
<g><path style="opacity:0.365" fill="#333333" d="M 1057.5,718.5 C 1059.31,719.024 1060.97,719.691 1062.5,720.5C 1060.22,720.923 1058.55,720.256 1057.5,718.5 Z"/></g>
<g><path style="opacity:0.271" fill="#303030" d="M 1062.5,720.5 C 1067.05,720.624 1071.38,721.291 1075.5,722.5C 1070.9,722.72 1066.57,722.054 1062.5,720.5 Z"/></g>
<g><path style="opacity:0.573" fill="#2b2b2b" d="M 1076.5,722.5 C 1080.39,722.646 1084.05,723.313 1087.5,724.5C 1083.54,724.749 1079.88,724.082 1076.5,722.5 Z"/></g>
<g><path style="opacity:0.725" fill="#303030" d="M 1710.5,717.5 C 1698.62,722.794 1686.29,727.128 1673.5,730.5C 1685.46,725.368 1697.79,721.034 1710.5,717.5 Z"/></g>
<g><path style="opacity:0.416" fill="#262626" d="M 103.5,725.5 C 105.074,727.102 105.741,729.102 105.5,731.5C 104.262,729.786 103.595,727.786 103.5,725.5 Z"/></g>
<g><path style="opacity:0.533" fill="#2b2b2b" d="M 1106.5,727.5 C 1110.45,727.882 1114.11,728.882 1117.5,730.5C 1113.48,730.37 1109.81,729.37 1106.5,727.5 Z"/></g>
<g><path style="opacity:0.655" fill="#2a2a2a" d="M 1673.5,730.5 C 1669.5,732.61 1665.16,733.943 1660.5,734.5C 1664.5,732.39 1668.84,731.057 1673.5,730.5 Z"/></g>
<g><path style="opacity:0.612" fill="#2e2e2e" d="M 621.5,736.5 C 623.117,741.933 624.117,747.6 624.5,753.5C 622.625,748.11 621.625,742.444 621.5,736.5 Z"/></g>
<g><path style="opacity:0.702" fill="#323232" d="M 1655.5,736.5 C 1651.5,738.61 1647.16,739.943 1642.5,740.5C 1646.5,738.39 1650.84,737.057 1655.5,736.5 Z"/></g>
<g><path style="opacity:0.008" fill="#0f0f0f" d="M 1143.5,739.5 C 1145.03,739.427 1146.03,740.094 1146.5,741.5C 1144.97,741.573 1143.97,740.906 1143.5,739.5 Z"/></g>
<g><path style="opacity:0.875" fill="#303030" d="M 1146.5,741.5 C 1147.71,741.932 1148.71,742.599 1149.5,743.5C 1147.82,743.715 1146.82,743.048 1146.5,741.5 Z"/></g>
<g><path style="opacity:0.749" fill="#343434" d="M 1642.5,740.5 C 1639.69,742.897 1636.36,744.23 1632.5,744.5C 1635.53,742.597 1638.86,741.263 1642.5,740.5 Z"/></g>
<g><path style="opacity:0.012" fill="#151515" d="M 2183.5,742.5 C 2183.74,744.898 2183.07,746.898 2181.5,748.5C 2181.59,746.214 2182.26,744.214 2183.5,742.5 Z"/></g>
<g><path style="opacity:0.816" fill="#2e2e2e" d="M 1151.5,744.5 C 1152.71,744.932 1153.71,745.599 1154.5,746.5C 1152.82,746.715 1151.82,746.048 1151.5,744.5 Z"/></g>
<g><path style="opacity:0.749" fill="#2c2c2c" d="M 1632.5,744.5 C 1631.36,746.213 1629.7,746.88 1627.5,746.5C 1628.93,745.463 1630.6,744.796 1632.5,744.5 Z"/></g>
<g><path style="opacity:0.761" fill="#2c2c2c" d="M 1625.5,747.5 C 1624.36,749.213 1622.7,749.88 1620.5,749.5C 1621.93,748.463 1623.6,747.796 1625.5,747.5 Z"/></g>
<g><path style="opacity:0.855" fill="#333333" d="M 1160.5,749.5 C 1161.71,749.932 1162.71,750.599 1163.5,751.5C 1161.82,751.715 1160.82,751.048 1160.5,749.5 Z"/></g>
<g><path style="opacity:0.675" fill="#2f2f2f" d="M 1620.5,749.5 C 1613.36,753.325 1605.7,755.992 1597.5,757.5C 1604.94,754.463 1612.61,751.796 1620.5,749.5 Z"/></g>
<g><path style="opacity:0.2" fill="#1f1f1f" d="M 112.5,752.5 C 113.931,753.78 114.598,755.447 114.5,757.5C 113.069,756.22 112.402,754.553 112.5,752.5 Z"/></g>
<g><path style="opacity:0.565" fill="#272727" d="M 624.5,754.5 C 626.744,758.793 628.077,763.46 628.5,768.5C 626.566,764.112 625.233,759.445 624.5,754.5 Z"/></g>
<g><path style="opacity:0.745" fill="#2d2d2d" d="M 1593.5,758.5 C 1591.9,760.074 1589.9,760.741 1587.5,760.5C 1589.21,759.262 1591.21,758.595 1593.5,758.5 Z"/></g>
<g><path style="opacity:0.769" fill="#2b2b2b" d="M 620.5,756.5 C 621.612,758.599 622.279,760.933 622.5,763.5C 620.837,761.562 620.171,759.228 620.5,756.5 Z"/></g>
<g><path style="opacity:0.851" fill="#313131" d="M 116.5,762.5 C 118.048,762.821 118.715,763.821 118.5,765.5C 117.599,764.71 116.932,763.71 116.5,762.5 Z"/></g>
<g><path style="opacity:0.671" fill="#2b2b2b" d="M 1579.5,762.5 C 1576.15,764.258 1572.48,765.258 1568.5,765.5C 1571.85,763.742 1575.52,762.742 1579.5,762.5 Z"/></g>
<g><path style="opacity:0.714" fill="#2b2b2b" d="M 622.5,763.5 C 623.768,765.905 624.435,768.572 624.5,771.5C 622.96,769.162 622.294,766.495 622.5,763.5 Z"/></g>
<g><path style="opacity:0.114" fill="#131313" d="M 118.5,766.5 C 119.906,766.973 120.573,767.973 120.5,769.5C 119.094,769.027 118.427,768.027 118.5,766.5 Z"/></g>
<g><path style="opacity:0.561" fill="#2b2b2b" d="M 1550.5,769.5 C 1548.09,770.768 1545.43,771.435 1542.5,771.5C 1544.84,769.96 1547.5,769.294 1550.5,769.5 Z"/></g>
<g><path style="opacity:0.075" fill="#0f0f0f" d="M 2171.5,770.5 C 2171.57,772.027 2170.91,773.027 2169.5,773.5C 2169.43,771.973 2170.09,770.973 2171.5,770.5 Z"/></g>
<g><path style="opacity:0.447" fill="#282828" d="M 1216.5,772.5 C 1218.79,772.595 1220.79,773.262 1222.5,774.5C 1220.1,774.741 1218.1,774.074 1216.5,772.5 Z"/></g>
<g><path style="opacity:0.808" fill="#2d2d2d" d="M 123.5,775.5 C 125.446,776.035 126.446,777.368 126.5,779.5C 125.026,778.564 124.026,777.23 123.5,775.5 Z"/></g>
<g><path style="opacity:0.455" fill="#292929" d="M 1226.5,775.5 C 1228.79,775.595 1230.79,776.262 1232.5,777.5C 1230.1,777.741 1228.1,777.074 1226.5,775.5 Z"/></g>
<g><path style="opacity:0.569" fill="#2d2d2d" d="M 1526.5,774.5 C 1521.79,776.322 1516.79,777.322 1511.5,777.5C 1516.23,775.763 1521.23,774.763 1526.5,774.5 Z"/></g>
<g><path style="opacity:0.596" fill="#292929" d="M 1234.5,777.5 C 1236.7,777.875 1238.7,778.542 1240.5,779.5C 1237.99,779.946 1235.99,779.28 1234.5,777.5 Z"/></g>
<g><path style="opacity:0.898" fill="#3c3c3c" d="M 1510.5,777.5 C 1507.16,779.217 1503.49,779.884 1499.5,779.5C 1502.95,778.313 1506.61,777.646 1510.5,777.5 Z"/></g>
<g><path style="opacity:0.749" fill="#272727" d="M 626.5,776.5 C 627.537,777.93 628.204,779.597 628.5,781.5C 626.787,780.365 626.12,778.698 626.5,776.5 Z"/></g>
<g><path style="opacity:0.569" fill="#232323" d="M 1242.5,779.5 C 1247.44,780.232 1252.11,781.565 1256.5,783.5C 1252.15,782.83 1247.82,781.996 1243.5,781C 1242.94,780.617 1242.61,780.117 1242.5,779.5 Z"/></g>
<g><path style="opacity:0.863" fill="#2f2f2f" d="M 127.5,781.5 C 129.446,782.035 130.446,783.368 130.5,785.5C 129.026,784.564 128.026,783.23 127.5,781.5 Z"/></g>
<g><path style="opacity:0.824" fill="#383838" d="M 1473.5,783.5 C 1466.43,785.468 1459.1,786.468 1451.5,786.5C 1458.63,785.024 1465.97,784.024 1473.5,783.5 Z"/></g>
<g><path style="opacity:0.035" fill="#1d1d1d" d="M 1264.5,784.5 C 1268.01,784.899 1271.34,785.566 1274.5,786.5C 1271.81,786.664 1269.15,786.497 1266.5,786C 1265.58,785.722 1264.92,785.222 1264.5,784.5 Z"/></g>
<g><path style="opacity:0.008" fill="#151515" d="M 130.5,785.5 C 131.906,785.973 132.573,786.973 132.5,788.5C 131.094,788.027 130.427,787.027 130.5,785.5 Z"/></g>
<g><path style="opacity:0.871" fill="#353535" d="M 629.5,784.5 C 630.537,785.93 631.204,787.597 631.5,789.5C 629.787,788.365 629.12,786.698 629.5,784.5 Z"/></g>
<g><path style="opacity:0.102" fill="#171717" d="M 635.5,787.5 C 636.674,788.514 637.34,789.847 637.5,791.5C 635.896,790.713 635.229,789.38 635.5,787.5 Z"/></g>
<g><path style="opacity:0.826" fill="#343434" d="M 1282.5,787.5 C 1289.71,787.458 1296.71,788.125 1303.5,789.5C 1296.26,789.82 1289.26,789.153 1282.5,787.5 Z"/></g>
<g><path style="opacity:0.733" fill="#353535" d="M 1441.5,787.5 C 1436.43,789.178 1431.1,789.844 1425.5,789.5C 1430.6,788.043 1435.93,787.376 1441.5,787.5 Z"/></g>
<g><path style="opacity:0.004" fill="#1e1e1e" d="M 132.5,788.5 C 134.531,789.539 135.864,791.205 136.5,793.5C 134.457,792.421 133.124,790.754 132.5,788.5 Z"/></g>
<g><path style="opacity:0.604" fill="#2d2d2d" d="M 1315.5,789.5 C 1342.8,791.19 1370.13,791.857 1397.5,791.5C 1371.66,792.759 1345.66,792.592 1319.5,791C 1317.94,790.79 1316.61,790.29 1315.5,789.5 Z"/></g>
<g><path style="opacity:0.004" fill="#101010" d="M 2156.5,790.5 C 2156.26,792.404 2155.26,793.738 2153.5,794.5C 2153.74,792.596 2154.74,791.262 2156.5,790.5 Z"/></g>
<g><path style="opacity:0.004" fill="#0e0e0e" d="M 2148.5,799.5 C 2148.5,800.833 2147.83,801.5 2146.5,801.5C 2146.83,800.5 2147.5,799.833 2148.5,799.5 Z"/></g>
<g><path style="opacity:0.004" fill="#0f0f0f" d="M 641.5,800.5 C 642.906,800.973 643.573,801.973 643.5,803.5C 642.094,803.027 641.427,802.027 641.5,800.5 Z"/></g>
<g><path style="opacity:0.71" fill="#2a2a2a" d="M 146.5,803.5 C 148.749,804.08 150.415,805.413 151.5,807.5C 149.251,806.92 147.585,805.587 146.5,803.5 Z"/></g>
<g><path style="opacity:0.004" fill="#141414" d="M 2146.5,801.5 C 2145.5,804.5 2143.5,806.5 2140.5,807.5C 2142.17,805.167 2144.17,803.167 2146.5,801.5 Z"/></g>
<g><path style="opacity:0.204" fill="#1a1a1a" d="M 639.5,805.5 C 640.906,805.973 641.573,806.973 641.5,808.5C 640.094,808.027 639.427,807.027 639.5,805.5 Z"/></g>
<g><path style="opacity:0.004" fill="#131313" d="M 151.5,807.5 C 152.5,807.833 153.167,808.5 153.5,809.5C 152.167,809.5 151.5,808.833 151.5,807.5 Z"/></g>
<g><path style="opacity:0.729" fill="#2c2c2c" d="M 153.5,809.5 C 155.404,809.738 156.738,810.738 157.5,812.5C 155.596,812.262 154.262,811.262 153.5,809.5 Z"/></g>
<g><path style="opacity:0.827" fill="#2c2c2c" d="M 647.5,810.5 C 649.446,811.035 650.446,812.368 650.5,814.5C 649.026,813.564 648.026,812.23 647.5,810.5 Z"/></g>
<g><path style="opacity:0.004" fill="#101010" d="M 2140.5,808.5 C 2138.1,811.903 2135.1,814.57 2131.5,816.5C 2133.9,813.097 2136.9,810.43 2140.5,808.5 Z"/></g>
<g><path style="opacity:0.569" fill="#2e2e2e" d="M 643.5,812.5 C 645.262,813.262 646.262,814.596 646.5,816.5C 644.738,815.738 643.738,814.404 643.5,812.5 Z"/></g>
<g><path style="opacity:0.208" fill="#232323" d="M 157.5,812.5 C 159.749,813.08 161.415,814.413 162.5,816.5C 160.251,815.92 158.585,814.587 157.5,812.5 Z"/></g>
<g><path style="opacity:0.22" fill="#191919" d="M 164.5,817.5 C 166.027,817.427 167.027,818.094 167.5,819.5C 165.973,819.573 164.973,818.906 164.5,817.5 Z"/></g>
<g><path style="opacity:0.38" fill="#262626" d="M 646.5,816.5 C 647.906,816.973 648.573,817.973 648.5,819.5C 647.094,819.027 646.427,818.027 646.5,816.5 Z"/></g>
<g><path style="opacity:0.008" fill="#0e0e0e" d="M 652.5,817.5 C 653.906,817.973 654.573,818.973 654.5,820.5C 653.094,820.027 652.427,819.027 652.5,817.5 Z"/></g>
<g><path style="opacity:0.753" fill="#2d2d2d" d="M 648.5,819.5 C 650.262,820.262 651.262,821.596 651.5,823.5C 649.738,822.738 648.738,821.404 648.5,819.5 Z"/></g>
<g><path style="opacity:0.251" fill="#1e1e1e" d="M 171.5,821.5 C 173.027,821.427 174.027,822.094 174.5,823.5C 172.973,823.573 171.973,822.906 171.5,821.5 Z"/></g>
<g><path style="opacity:0.004" fill="#111111" d="M 2126.5,821.5 C 2126.03,822.906 2125.03,823.573 2123.5,823.5C 2123.97,822.094 2124.97,821.427 2126.5,821.5 Z"/></g>
<g><path style="opacity:0.02" fill="#161716" d="M 656.5,822.5 C 658.587,823.585 659.92,825.251 660.5,827.5C 658.413,826.415 657.08,824.749 656.5,822.5 Z"/></g>
<g><path style="opacity:0.796" fill="#272727" d="M 651.5,823.5 C 654.243,825.239 656.243,827.573 657.5,830.5C 654.757,828.761 652.757,826.427 651.5,823.5 Z"/></g>
<g><path style="opacity:0.478" fill="#262626" d="M 176.5,824.5 C 178.404,824.738 179.738,825.738 180.5,827.5C 178.596,827.262 177.262,826.262 176.5,824.5 Z"/></g>
<g><path style="opacity:0.2" fill="#1a1a1a" d="M 182.5,828.5 C 184.027,828.427 185.027,829.094 185.5,830.5C 183.973,830.573 182.973,829.906 182.5,828.5 Z"/></g>
<g><path style="opacity:0.576" fill="#1f1f1f" d="M 664.5,831.5 C 667.427,832.757 669.761,834.757 671.5,837.5C 668.573,836.243 666.239,834.243 664.5,831.5 Z"/></g>
<g><path style="opacity:0.012" fill="#0e0e0e" d="M 2114.5,831.5 C 2114.03,832.906 2113.03,833.573 2111.5,833.5C 2111.97,832.094 2112.97,831.427 2114.5,831.5 Z"/></g>
<g><path style="opacity:0.898" fill="#2d2d2d" d="M 194.5,834.5 C 197.491,834.166 199.824,835.166 201.5,837.5C 198.843,837.065 196.509,836.065 194.5,834.5 Z"/></g>
<g><path style="opacity:0.012" fill="#151515" d="M 666.5,839.5 C 668.404,839.738 669.738,840.738 670.5,842.5C 668.596,842.262 667.262,841.262 666.5,839.5 Z"/></g>
<g><path style="opacity:0.592" fill="#252525" d="M 673.5,839.5 C 675.404,839.738 676.738,840.738 677.5,842.5C 675.596,842.262 674.262,841.262 673.5,839.5 Z"/></g>
<g><path style="opacity:0.792" fill="#2f2f2f" d="M 211.5,840.5 C 213.698,840.12 215.365,840.787 216.5,842.5C 214.597,842.204 212.93,841.537 211.5,840.5 Z"/></g>
<g><path style="opacity:0.004" fill="#0d0d0d" d="M 2102.5,840.5 C 2102.03,841.906 2101.03,842.573 2099.5,842.5C 2099.97,841.094 2100.97,840.427 2102.5,840.5 Z"/></g>
<g><path style="opacity:0.624" fill="#232323" d="M 217.5,842.5 C 219.898,842.259 221.898,842.926 223.5,844.5C 221.214,844.405 219.214,843.738 217.5,842.5 Z"/></g>
<g><path style="opacity:0.667" fill="#292929" d="M 224.5,844.5 C 227.152,844.41 229.485,845.076 231.5,846.5C 228.848,846.59 226.515,845.924 224.5,844.5 Z"/></g>
<g><path style="opacity:0.024" fill="#171717" d="M 672.5,844.5 C 674.027,844.427 675.027,845.094 675.5,846.5C 673.973,846.573 672.973,845.906 672.5,844.5 Z"/></g>
<g><path style="opacity:0.239" fill="#1e1e1e" d="M 677.5,842.5 C 679.749,843.08 681.415,844.413 682.5,846.5C 680.251,845.92 678.585,844.587 677.5,842.5 Z"/></g>
<g><path style="opacity:0.788" fill="#2c2c2c" d="M 235.5,847.5 C 238.916,847.528 241.916,848.528 244.5,850.5C 241.215,850.072 238.215,849.072 235.5,847.5 Z"/></g>
<g><path style="opacity:0.004" fill="#1b1b1b" d="M 675.5,846.5 C 677.882,847.351 679.882,848.684 681.5,850.5C 678.733,850.13 676.733,848.796 675.5,846.5 Z"/></g>
<g><path style="opacity:0.408" fill="#232323" d="M 684.5,847.5 C 686.434,848.11 688.101,849.11 689.5,850.5C 687.067,850.727 685.401,849.727 684.5,847.5 Z"/></g>
<g><path style="opacity:0.671" fill="#2d2d2d" d="M 245.5,850.5 C 248.152,850.41 250.485,851.076 252.5,852.5C 249.848,852.59 247.515,851.924 245.5,850.5 Z"/></g>
<g><path style="opacity:0.008" fill="#121212" d="M 681.5,850.5 C 683.027,850.427 684.027,851.094 684.5,852.5C 682.973,852.573 681.973,851.906 681.5,850.5 Z"/></g>
<g><path style="opacity:0.165" fill="#171717" d="M 689.5,850.5 C 691.027,850.427 692.027,851.094 692.5,852.5C 690.973,852.573 689.973,851.906 689.5,850.5 Z"/></g>
<g><path style="opacity:0.722" fill="#252525" d="M 252.5,852.5 C 255.916,852.528 258.916,853.528 261.5,855.5C 258.215,855.072 255.215,854.072 252.5,852.5 Z"/></g>
<g><path style="opacity:0.004" fill="#0f0f0f" d="M 2085.5,851.5 C 2085.03,852.906 2084.03,853.573 2082.5,853.5C 2082.97,852.094 2083.97,851.427 2085.5,851.5 Z"/></g>
<g><path style="opacity:0.788" fill="#2b2b2b" d="M 686.5,853.5 C 688.23,854.026 689.564,855.026 690.5,856.5C 688.368,856.446 687.035,855.446 686.5,853.5 Z"/></g>
<g><path style="opacity:0.278" fill="#1b1b1b" d="M 694.5,853.5 C 696.027,853.427 697.027,854.094 697.5,855.5C 695.973,855.573 694.973,854.906 694.5,853.5 Z"/></g>
<g><path style="opacity:0.267" fill="#191919" d="M 697.5,855.5 C 699.027,855.427 700.027,856.094 700.5,857.5C 698.973,857.573 697.973,856.906 697.5,855.5 Z"/></g>
<g><path style="opacity:0.667" fill="#2a2a2a" d="M 269.5,857.5 C 272.152,857.41 274.485,858.076 276.5,859.5C 273.848,859.59 271.515,858.924 269.5,857.5 Z"/></g>
<g><path style="opacity:0.729" fill="#282828" d="M 276.5,859.5 C 278.898,859.259 280.898,859.926 282.5,861.5C 280.214,861.405 278.214,860.738 276.5,859.5 Z"/></g>
<g><path style="opacity:0.749" fill="#2a2a2a" d="M 694.5,858.5 C 695.71,858.932 696.71,859.599 697.5,860.5C 695.821,860.715 694.821,860.048 694.5,858.5 Z"/></g>
<g><path style="opacity:0.349" fill="#242424" d="M 702.5,858.5 C 704.027,858.427 705.027,859.094 705.5,860.5C 703.973,860.573 702.973,859.906 702.5,858.5 Z"/></g>
<g><path style="opacity:0.741" fill="#292929" d="M 282.5,861.5 C 285.228,861.171 287.562,861.837 289.5,863.5C 286.933,863.279 284.599,862.612 282.5,861.5 Z"/></g>
<g><path style="opacity:0.094" fill="#191919" d="M 699.5,861.5 C 701.027,861.427 702.027,862.094 702.5,863.5C 700.973,863.573 699.973,862.906 699.5,861.5 Z"/></g>
<g><path style="opacity:0.776" fill="#2f2f2f" d="M 298.5,865.5 C 300.898,865.259 302.898,865.926 304.5,867.5C 302.214,867.405 300.214,866.738 298.5,865.5 Z"/></g>
<g><path style="opacity:0.78" fill="#323232" d="M 305.5,867.5 C 308.495,867.294 311.162,867.96 313.5,869.5C 310.572,869.435 307.905,868.768 305.5,867.5 Z"/></g>
<g><path style="opacity:0.745" fill="#2f2f2f" d="M 2031.5,870.5 C 2028.69,871.475 2025.69,872.142 2022.5,872.5C 2025.12,870.735 2028.12,870.068 2031.5,870.5 Z"/></g>
<g><path style="opacity:0.318" fill="#222222" d="M 719.5,870.5 C 721.153,870.66 722.486,871.326 723.5,872.5C 721.62,872.771 720.287,872.104 719.5,870.5 Z"/></g>
<g><path style="opacity:0.945" fill="#3f3f3f" d="M 322.5,871.5 C 326.841,871.658 330.841,872.658 334.5,874.5C 330.163,874.416 326.163,873.416 322.5,871.5 Z"/></g>
<g><path style="opacity:0.745" fill="#292929" d="M 738.5,873.5 C 742.534,873.517 746.201,874.517 749.5,876.5C 745.573,876.074 741.907,875.074 738.5,873.5 Z"/></g>
<g><path style="opacity:0.494" fill="#323232" d="M 1997.5,875.5 C 1992.71,876.725 1987.71,877.392 1982.5,877.5C 1987.25,875.969 1992.25,875.302 1997.5,875.5 Z"/></g>
<g><path style="opacity:0.365" fill="#242424" d="M 732.5,875.5 C 734.553,875.402 736.22,876.069 737.5,877.5C 735.447,877.598 733.78,876.931 732.5,875.5 Z"/></g>
<g><path style="opacity:0.659" fill="#242424" d="M 749.5,876.5 C 751.898,876.259 753.898,876.926 755.5,878.5C 753.214,878.405 751.214,877.738 749.5,876.5 Z"/></g>
<g><path style="opacity:0.745" fill="#2a2a2a" d="M 347.5,877.5 C 350.228,877.171 352.562,877.837 354.5,879.5C 351.933,879.279 349.599,878.612 347.5,877.5 Z"/></g>
<g><path style="opacity:0.4" fill="#262626" d="M 739.5,877.5 C 741.403,877.796 743.07,878.463 744.5,879.5C 742.302,879.88 740.635,879.213 739.5,877.5 Z"/></g>
<g><path style="opacity:0.773" fill="#2e2e2e" d="M 759.5,879.5 C 762.495,879.294 765.162,879.96 767.5,881.5C 764.572,881.435 761.905,880.768 759.5,879.5 Z"/></g>
<g><path style="opacity:0.373" fill="#292929" d="M 356.5,879.5 C 359.495,879.294 362.162,879.96 364.5,881.5C 361.572,881.435 358.905,880.768 356.5,879.5 Z"/></g>
<g><path style="opacity:0.42" fill="#262626" d="M 748.5,880.5 C 750.786,880.595 752.786,881.262 754.5,882.5C 752.102,882.741 750.102,882.074 748.5,880.5 Z"/></g>
<g><path style="opacity:0.784" fill="#2a2a2a" d="M 767.5,881.5 C 770.916,881.528 773.916,882.528 776.5,884.5C 773.215,884.072 770.215,883.072 767.5,881.5 Z"/></g>
<g><path style="opacity:0.01" fill="#1a1a1a" d="M 374.5,883.5 C 377.495,883.294 380.162,883.96 382.5,885.5C 379.572,885.435 376.905,884.768 374.5,883.5 Z"/></g>
<g><path style="opacity:0.041" fill="#191919" d="M 761.5,884.5 C 764.152,884.41 766.485,885.076 768.5,886.5C 765.848,886.59 763.515,885.924 761.5,884.5 Z"/></g>
<g><path style="opacity:0.69" fill="#262626" d="M 776.5,884.5 C 779.228,884.171 781.562,884.837 783.5,886.5C 780.933,886.279 778.599,885.612 776.5,884.5 Z"/></g>
<g><path style="opacity:0.725" fill="#2f2f2f" d="M 784.5,886.5 C 787.152,886.41 789.485,887.076 791.5,888.5C 788.848,888.59 786.515,887.924 784.5,886.5 Z"/></g>
<g><path style="opacity:0.773" fill="#292929" d="M 791.5,888.5 C 794.916,888.528 797.916,889.528 800.5,891.5C 797.215,891.072 794.215,890.072 791.5,888.5 Z"/></g>
<g><path style="opacity:0.71" fill="#2c2c2c" d="M 801.5,891.5 C 804.152,891.41 806.485,892.076 808.5,893.5C 805.848,893.59 803.515,892.924 801.5,891.5 Z"/></g>
<g><path style="opacity:0.404" fill="#262626" d="M 789.5,892.5 C 791.786,892.595 793.786,893.262 795.5,894.5C 793.102,894.741 791.102,894.074 789.5,892.5 Z"/></g>
<g><path style="opacity:0.773" fill="#2f2f2f" d="M 812.5,894.5 C 814.898,894.259 816.898,894.926 818.5,896.5C 816.214,896.405 814.214,895.738 812.5,894.5 Z"/></g>
<g><path style="opacity:0.439" fill="#292929" d="M 813.5,899.5 C 815.786,899.595 817.786,900.262 819.5,901.5C 817.102,901.741 815.102,901.074 813.5,899.5 Z"/></g>
<g><path style="opacity:0.627" fill="#242424" d="M 835.5,900.5 C 837.898,900.259 839.898,900.926 841.5,902.5C 839.214,902.405 837.214,901.738 835.5,900.5 Z"/></g>
<g><path style="opacity:0.549" fill="#2a2a2a" d="M 836.5,905.5 C 840.397,906.055 844.063,907.055 847.5,908.5C 843.43,908.568 839.763,907.568 836.5,905.5 Z"/></g>
<g><path style="opacity:0.02" fill="#1b1b1b" d="M 864.5,907.5 C 867.495,907.294 870.162,907.96 872.5,909.5C 869.572,909.435 866.905,908.768 864.5,907.5 Z"/></g>
<g><path style="opacity:0.553" fill="#242424" d="M 850.5,908.5 C 854.671,909.262 858.671,910.262 862.5,911.5C 858.78,911.436 855.114,910.936 851.5,910C 850.944,909.617 850.611,909.117 850.5,908.5 Z"/></g>
<g><path style="opacity:0.255" fill="#202020" d="M 891.5,913.5 C 894.495,913.294 897.162,913.96 899.5,915.5C 896.572,915.435 893.905,914.768 891.5,913.5 Z"/></g>
<g><path style="opacity:0.058" fill="#181818" d="M 910.5,917.5 C 913.495,917.294 916.162,917.96 918.5,919.5C 915.572,919.435 912.905,918.768 910.5,917.5 Z"/></g>
<g><path style="opacity:0.188" fill="#212121" d="M 878.5,915.5 C 881.694,915.176 882.694,916.342 881.5,919C 876.898,920.122 872.232,920.622 867.5,920.5C 871.76,919.746 876.094,918.746 880.5,917.5C 879.757,916.818 879.091,916.151 878.5,915.5 Z"/></g>
<g><path style="opacity:0.698" fill="#323232" d="M 1149.5,947.5 C 1160.11,947.137 1170.44,948.137 1180.5,950.5C 1169.98,949.986 1159.64,948.986 1149.5,947.5 Z"/></g>
<g><path style="opacity:0.553" fill="#272727" d="M 1355.5,953.5 C 1350.99,954.341 1346.32,955.008 1341.5,955.5C 1341.92,954.778 1342.58,954.278 1343.5,954C 1347.49,953.501 1351.49,953.334 1355.5,953.5 Z"/></g>
<g><path style="opacity:0.207" fill="#272727" d="M 1340.5,955.5 C 1333.84,955.954 1327.17,956.287 1320.5,956.5C 1327.13,954.835 1333.8,954.502 1340.5,955.5 Z"/></g>
</svg>
