<?xml version="1.0" encoding="UTF-8"?>
<!DOCTYPE svg PUBLIC "-//W3C//DTD SVG 1.1//EN" "http://www.w3.org/Graphics/SVG/1.1/DTD/svg11.dtd">
<svg xmlns="http://www.w3.org/2000/svg" version="1.1" width="2275px" height="1000px" style="shape-rendering:geometricPrecision; text-rendering:geometricPrecision; image-rendering:optimizeQuality; fill-rule:evenodd; clip-rule:evenodd" xmlns:xlink="http://www.w3.org/1999/xlink">
<g><path style="opacity:1" fill="#656565" d="M 1411.5,162.5 C 1413.44,164.163 1415.77,164.829 1418.5,164.5C 1422.47,165.044 1426.13,166.377 1429.5,168.5C 1429.82,170.048 1430.82,170.715 1432.5,170.5C 1434.23,171.026 1435.56,172.026 1436.5,173.5C 1436.83,174.5 1437.5,175.167 1438.5,175.5C 1438.92,177.094 1439.59,178.594 1440.5,180C 1439.69,181.643 1438.69,183.143 1437.5,184.5C 1436.83,185.833 1435.83,186.833 1434.5,187.5C 1432.97,187.427 1431.97,188.094 1431.5,189.5C 1430.5,191.167 1429.17,192.5 1427.5,193.5C 1424.83,194.167 1423.17,195.833 1422.5,198.5C 1417.92,205.753 1412.25,212.086 1405.5,217.5C 1403.97,217.427 1402.97,218.094 1402.5,219.5C 1401.06,221.063 1399.39,222.396 1397.5,223.5C 1395.97,223.427 1394.97,224.094 1394.5,225.5C 1389.87,229.49 1385.21,233.49 1380.5,237.5C 1378.5,237.5 1377.5,238.5 1377.5,240.5C 1376.86,243.198 1376.02,245.865 1375,248.5C 1374.02,249.774 1373.19,249.774 1372.5,248.5C 1372.17,247.5 1371.5,246.833 1370.5,246.5C 1370.45,244.368 1369.45,243.035 1367.5,242.5C 1365.66,240.151 1364.33,237.485 1363.5,234.5C 1363.71,232.821 1363.05,231.821 1361.5,231.5C 1360.33,230.486 1359.66,229.153 1359.5,227.5C 1359.71,225.821 1359.05,224.821 1357.5,224.5C 1356.66,224.158 1356.33,223.492 1356.5,222.5C 1356.57,220.973 1355.91,219.973 1354.5,219.5C 1353.66,219.158 1353.33,218.492 1353.5,217.5C 1353.45,215.368 1352.45,214.035 1350.5,213.5C 1349.66,213.158 1349.33,212.492 1349.5,211.5C 1349.45,209.368 1348.45,208.035 1346.5,207.5C 1346.45,205.368 1345.45,204.035 1343.5,203.5C 1343.57,201.973 1342.91,200.973 1341.5,200.5C 1341.45,198.368 1340.45,197.035 1338.5,196.5C 1337.5,196.167 1336.83,195.5 1336.5,194.5C 1336.45,192.368 1335.45,191.035 1333.5,190.5C 1332.5,190.167 1331.83,189.5 1331.5,188.5C 1331.57,186.973 1330.91,185.973 1329.5,185.5C 1327.94,182.868 1328.27,180.535 1330.5,178.5C 1334.18,175.992 1338.18,173.992 1342.5,172.5C 1345.49,172.834 1347.82,171.834 1349.5,169.5C 1349.83,169.5 1350.17,169.5 1350.5,169.5C 1352.15,169.34 1353.49,168.674 1354.5,167.5C 1354.83,167.5 1355.17,167.5 1355.5,167.5C 1358.15,167.59 1360.49,166.924 1362.5,165.5C 1365.43,165.435 1368.09,164.768 1370.5,163.5C 1384,160.003 1397.67,159.67 1411.5,162.5 Z"/></g>
<g><path style="opacity:0.592" fill="#282828" d="M 1411.5,162.5 C 1414.07,162.721 1416.4,163.388 1418.5,164.5C 1415.77,164.829 1413.44,164.163 1411.5,162.5 Z"/></g>
<g><path style="opacity:0.71" fill="#343434" d="M 1370.5,163.5 C 1368.09,164.768 1365.43,165.435 1362.5,165.5C 1364.84,163.96 1367.5,163.294 1370.5,163.5 Z"/></g>
<g><path style="opacity:0.804" fill="#383838" d="M 1362.5,165.5 C 1360.49,166.924 1358.15,167.59 1355.5,167.5C 1357.51,166.076 1359.85,165.41 1362.5,165.5 Z"/></g>
<g><path style="opacity:0.463" fill="#1e1e1e" d="M 1354.5,167.5 C 1353.49,168.674 1352.15,169.34 1350.5,169.5C 1351.29,167.896 1352.62,167.229 1354.5,167.5 Z"/></g>
<g><path style="opacity:0.816" fill="#2e2e2e" d="M 1429.5,168.5 C 1430.71,168.932 1431.71,169.599 1432.5,170.5C 1430.82,170.715 1429.82,170.048 1429.5,168.5 Z"/></g>
<g><path style="opacity:0.914" fill="#393939" d="M 1349.5,169.5 C 1347.82,171.834 1345.49,172.834 1342.5,172.5C 1344.51,170.935 1346.84,169.935 1349.5,169.5 Z"/></g>
<g><path style="opacity:0.004" fill="#0b0b0b" d="M 1436.5,173.5 C 1437.83,173.5 1438.5,174.167 1438.5,175.5C 1437.5,175.167 1436.83,174.5 1436.5,173.5 Z"/></g>
<g><path style="opacity:0.416" fill="#1a1a1a" d="M 1438.5,175.5 C 1441.25,177.053 1442.09,179.386 1441,182.5C 1440.18,183.823 1439.02,184.489 1437.5,184.5C 1438.69,183.143 1439.69,181.643 1440.5,180C 1439.59,178.594 1438.92,177.094 1438.5,175.5 Z"/></g>
<g><path style="opacity:0.827" fill="#2a2a2a" d="M 1330.5,178.5 C 1328.27,180.535 1327.94,182.868 1329.5,185.5C 1325.19,182.461 1325.52,180.128 1330.5,178.5 Z"/></g>
<g><path style="opacity:0.02" fill="#141414" d="M 1329.5,185.5 C 1330.91,185.973 1331.57,186.973 1331.5,188.5C 1330.09,188.027 1329.43,187.027 1329.5,185.5 Z"/></g>
<g><path style="opacity:0.004" fill="#111111" d="M 1434.5,187.5 C 1434.03,188.906 1433.03,189.573 1431.5,189.5C 1431.97,188.094 1432.97,187.427 1434.5,187.5 Z"/></g>
<g><path style="opacity:0.482" fill="#282828" d="M 1333.5,190.5 C 1335.45,191.035 1336.45,192.368 1336.5,194.5C 1335.03,193.564 1334.03,192.23 1333.5,190.5 Z"/></g>
<g><path style="opacity:1" fill="#666666" d="M 1933.5,193.5 C 1936.45,195.41 1939.79,196.41 1943.5,196.5C 1947.45,197.592 1951.12,199.259 1954.5,201.5C 1955.26,203.262 1956.6,204.262 1958.5,204.5C 1959.34,204.842 1959.67,205.508 1959.5,206.5C 1959.74,208.404 1960.74,209.738 1962.5,210.5C 1967.45,218.665 1971.45,227.332 1974.5,236.5C 1974.12,238.698 1974.79,240.365 1976.5,241.5C 1976.5,241.833 1976.5,242.167 1976.5,242.5C 1976.17,245.491 1977.17,247.824 1979.5,249.5C 1979.5,249.833 1979.5,250.167 1979.5,250.5C 1979.12,252.698 1979.79,254.365 1981.5,255.5C 1981.5,255.833 1981.5,256.167 1981.5,256.5C 1981.12,258.698 1981.79,260.365 1983.5,261.5C 1984.23,262.708 1984.57,264.041 1984.5,265.5C 1984.17,268.228 1984.84,270.562 1986.5,272.5C 1993.16,296.097 1994.99,320.097 1992,344.5C 1991.23,349.995 1989.39,354.995 1986.5,359.5C 1985.09,359.973 1984.43,360.973 1984.5,362.5C 1982.69,365.647 1980.02,367.647 1976.5,368.5C 1970.8,368.625 1965.13,368.292 1959.5,367.5C 1958.21,367.737 1957.21,367.404 1956.5,366.5C 1956.03,365.094 1955.03,364.427 1953.5,364.5C 1953.03,363.094 1952.03,362.427 1950.5,362.5C 1950.03,361.094 1949.03,360.427 1947.5,360.5C 1946.74,358.738 1945.4,357.738 1943.5,357.5C 1942.5,357.167 1941.83,356.5 1941.5,355.5C 1940.5,353.833 1939.17,352.5 1937.5,351.5C 1936.5,351.167 1935.83,350.5 1935.5,349.5C 1934.83,348.167 1933.83,347.167 1932.5,346.5C 1931.83,346.5 1931.5,346.167 1931.5,345.5C 1930.86,343.205 1929.53,341.539 1927.5,340.5C 1925.37,338.909 1923.7,336.909 1922.5,334.5C 1922.57,332.973 1921.91,331.973 1920.5,331.5C 1920.45,329.368 1919.45,328.035 1917.5,327.5C 1915,324.506 1913,321.173 1911.5,317.5C 1911.57,315.973 1910.91,314.973 1909.5,314.5C 1906.99,310.818 1904.99,306.818 1903.5,302.5C 1903.57,300.973 1902.91,299.973 1901.5,299.5C 1894.98,287.783 1888.98,275.783 1883.5,263.5C 1883.71,261.821 1883.05,260.821 1881.5,260.5C 1880.33,259.486 1879.66,258.153 1879.5,256.5C 1879.71,254.821 1879.05,253.821 1877.5,253.5C 1876.66,253.158 1876.33,252.492 1876.5,251.5C 1876.57,249.973 1875.91,248.973 1874.5,248.5C 1873.66,248.158 1873.33,247.492 1873.5,246.5C 1873.45,244.368 1872.45,243.035 1870.5,242.5C 1868.18,239.204 1865.85,235.871 1863.5,232.5C 1862.86,230.205 1861.53,228.539 1859.5,227.5C 1858.53,224.865 1856.86,222.865 1854.5,221.5C 1854.57,219.973 1853.91,218.973 1852.5,218.5C 1850.74,217.738 1849.74,216.404 1849.5,214.5C 1849.43,213.041 1849.77,211.708 1850.5,210.5C 1852.03,210.573 1853.03,209.906 1853.5,208.5C 1856.52,206.326 1859.85,204.659 1863.5,203.5C 1867.36,203.23 1870.69,201.897 1873.5,199.5C 1878.16,198.943 1882.5,197.61 1886.5,195.5C 1901.9,191.36 1917.57,190.693 1933.5,193.5 Z"/></g>
<g><path style="opacity:0.012" fill="#131313" d="M 1427.5,193.5 C 1426.17,195.5 1424.5,197.167 1422.5,198.5C 1423.17,195.833 1424.83,194.167 1427.5,193.5 Z"/></g>
<g><path style="opacity:0.514" fill="#212121" d="M 1933.5,193.5 C 1937.12,193.899 1940.45,194.899 1943.5,196.5C 1939.79,196.41 1936.45,195.41 1933.5,193.5 Z"/></g>
<g><path style="opacity:0.945" fill="#323232" d="M 1338.5,196.5 C 1340.45,197.035 1341.45,198.368 1341.5,200.5C 1340.03,199.564 1339.03,198.23 1338.5,196.5 Z"/></g>
<g><path style="opacity:0.784" fill="#313131" d="M 1886.5,195.5 C 1882.5,197.61 1878.16,198.943 1873.5,199.5C 1877.4,197.102 1881.74,195.769 1886.5,195.5 Z"/></g>
<g><path style="opacity:0.004" fill="#121212" d="M 1341.5,200.5 C 1342.91,200.973 1343.57,201.973 1343.5,203.5C 1342.09,203.027 1341.43,202.027 1341.5,200.5 Z"/></g>
<g><path style="opacity:0.773" fill="#383838" d="M 1873.5,199.5 C 1870.69,201.897 1867.36,203.23 1863.5,203.5C 1866.52,201.6 1869.85,200.267 1873.5,199.5 Z"/></g>
<g><path style="opacity:0.004" fill="#101010" d="M 1954.5,201.5 C 1956.4,201.738 1957.74,202.738 1958.5,204.5C 1956.6,204.262 1955.26,203.262 1954.5,201.5 Z"/></g>
<g><path style="opacity:0.004" fill="#1d1d1d" d="M 1343.5,203.5 C 1345.45,204.035 1346.45,205.368 1346.5,207.5C 1345.03,206.564 1344.03,205.23 1343.5,203.5 Z"/></g>
<g><path style="opacity:0.871" fill="#2d2d2d" d="M 1346.5,207.5 C 1348.45,208.035 1349.45,209.368 1349.5,211.5C 1348.03,210.564 1347.03,209.23 1346.5,207.5 Z"/></g>
<g><path style="opacity:0.49" fill="#262626" d="M 1959.5,206.5 C 1961.26,207.262 1962.26,208.596 1962.5,210.5C 1960.74,209.738 1959.74,208.404 1959.5,206.5 Z"/></g>
<g><path style="opacity:0.525" fill="#212121" d="M 1853.5,208.5 C 1853.03,209.906 1852.03,210.573 1850.5,210.5C 1850.97,209.094 1851.97,208.427 1853.5,208.5 Z"/></g>
<g><path style="opacity:0.271" fill="#212121" d="M 1850.5,210.5 C 1849.77,211.708 1849.43,213.041 1849.5,214.5C 1848.88,214.083 1848.54,213.416 1848.5,212.5C 1848.75,211.287 1849.41,210.62 1850.5,210.5 Z"/></g>
<g><path style="opacity:0.812" fill="#292929" d="M 1350.5,213.5 C 1352.45,214.035 1353.45,215.368 1353.5,217.5C 1352.03,216.564 1351.03,215.23 1350.5,213.5 Z"/></g>
<g><path style="opacity:0.012" fill="#0d0d0d" d="M 1405.5,217.5 C 1405.03,218.906 1404.03,219.573 1402.5,219.5C 1402.97,218.094 1403.97,217.427 1405.5,217.5 Z"/></g>
<g><path style="opacity:0.02" fill="#151515" d="M 1852.5,218.5 C 1853.91,218.973 1854.57,219.973 1854.5,221.5C 1853.09,221.027 1852.43,220.027 1852.5,218.5 Z"/></g>
<g><path style="opacity:0.004" fill="#101010" d="M 1354.5,219.5 C 1355.91,219.973 1356.57,220.973 1356.5,222.5C 1355.09,222.027 1354.43,221.027 1354.5,219.5 Z"/></g>
<g><path style="opacity:0.004" fill="#181818" d="M 1854.5,221.5 C 1856.86,222.865 1858.53,224.865 1859.5,227.5C 1857.11,226.109 1855.44,224.109 1854.5,221.5 Z"/></g>
<g><path style="opacity:0.878" fill="#313131" d="M 1357.5,224.5 C 1359.05,224.821 1359.71,225.821 1359.5,227.5C 1358.6,226.71 1357.93,225.71 1357.5,224.5 Z"/></g>
<g><path style="opacity:0.004" fill="#0a0a0a" d="M 1397.5,223.5 C 1397.03,224.906 1396.03,225.573 1394.5,225.5C 1394.97,224.094 1395.97,223.427 1397.5,223.5 Z"/></g>
<g><path style="opacity:0.004" fill="#191919" d="M 1859.5,227.5 C 1861.53,228.539 1862.86,230.205 1863.5,232.5C 1861.46,231.421 1860.12,229.754 1859.5,227.5 Z"/></g>
<g><path style="opacity:0.851" fill="#303030" d="M 1361.5,231.5 C 1363.05,231.821 1363.71,232.821 1363.5,234.5C 1362.6,233.71 1361.93,232.71 1361.5,231.5 Z"/></g>
<g><path style="opacity:0.024" fill="#131313" d="M 1380.5,237.5 C 1379.83,238.833 1378.83,239.833 1377.5,240.5C 1377.5,238.5 1378.5,237.5 1380.5,237.5 Z"/></g>
<g><path style="opacity:0.776" fill="#2c2c2c" d="M 1974.5,236.5 C 1975.54,237.93 1976.2,239.597 1976.5,241.5C 1974.79,240.365 1974.12,238.698 1974.5,236.5 Z"/></g>
<g><path style="opacity:0.8" fill="#2b2b2b" d="M 1367.5,242.5 C 1369.45,243.035 1370.45,244.368 1370.5,246.5C 1369.03,245.564 1368.03,244.23 1367.5,242.5 Z"/></g>
<g><path style="opacity:0.773" fill="#282828" d="M 1870.5,242.5 C 1872.45,243.035 1873.45,244.368 1873.5,246.5C 1872.03,245.564 1871.03,244.23 1870.5,242.5 Z"/></g>
<g><path style="opacity:0.937" fill="#303030" d="M 1976.5,242.5 C 1978.29,244.426 1979.29,246.759 1979.5,249.5C 1977.17,247.824 1976.17,245.491 1976.5,242.5 Z"/></g>
<g><path style="opacity:0.004" fill="#141414" d="M 1370.5,246.5 C 1371.5,246.833 1372.17,247.5 1372.5,248.5C 1371.17,248.5 1370.5,247.833 1370.5,246.5 Z"/></g>
<g><path style="opacity:0.008" fill="#101010" d="M 1874.5,248.5 C 1875.91,248.973 1876.57,249.973 1876.5,251.5C 1875.09,251.027 1874.43,250.027 1874.5,248.5 Z"/></g>
<g><path style="opacity:0.867" fill="#313131" d="M 1877.5,253.5 C 1879.05,253.821 1879.71,254.821 1879.5,256.5C 1878.6,255.71 1877.93,254.71 1877.5,253.5 Z"/></g>
<g><path style="opacity:0.839" fill="#323232" d="M 1979.5,250.5 C 1980.54,251.93 1981.2,253.597 1981.5,255.5C 1979.79,254.365 1979.12,252.698 1979.5,250.5 Z"/></g>
<g><path style="opacity:0.78" fill="#2c2c2c" d="M 1981.5,256.5 C 1982.54,257.93 1983.2,259.597 1983.5,261.5C 1981.79,260.365 1981.12,258.698 1981.5,256.5 Z"/></g>
<g><path style="opacity:0.851" fill="#303030" d="M 1881.5,260.5 C 1883.05,260.821 1883.71,261.821 1883.5,263.5C 1882.6,262.71 1881.93,261.71 1881.5,260.5 Z"/></g>
<g><path style="opacity:0.686" fill="#262626" d="M 1984.5,265.5 C 1985.61,267.599 1986.28,269.933 1986.5,272.5C 1984.84,270.562 1984.17,268.228 1984.5,265.5 Z"/></g>
<g><path style="opacity:0.149" fill="#151515" d="M 1901.5,299.5 C 1902.91,299.973 1903.57,300.973 1903.5,302.5C 1902.09,302.027 1901.43,301.027 1901.5,299.5 Z"/></g>
<g><path style="opacity:0.075" fill="#161616" d="M 1909.5,314.5 C 1910.91,314.973 1911.57,315.973 1911.5,317.5C 1910.09,317.027 1909.43,316.027 1909.5,314.5 Z"/></g>
<g><path style="opacity:0.792" fill="#272727" d="M 1917.5,327.5 C 1919.45,328.035 1920.45,329.368 1920.5,331.5C 1919.03,330.564 1918.03,329.23 1917.5,327.5 Z"/></g>
<g><path style="opacity:0.016" fill="#101010" d="M 1920.5,331.5 C 1921.91,331.973 1922.57,332.973 1922.5,334.5C 1921.09,334.027 1920.43,333.027 1920.5,331.5 Z"/></g>
<g><path style="opacity:0.478" fill="#272727" d="M 1927.5,340.5 C 1929.53,341.539 1930.86,343.205 1931.5,345.5C 1929.46,344.421 1928.12,342.754 1927.5,340.5 Z"/></g>
<g><path style="opacity:0.004" fill="#080808" d="M 1932.5,346.5 C 1933.83,347.167 1934.83,348.167 1935.5,349.5C 1933.5,349.5 1932.5,348.5 1932.5,346.5 Z"/></g>
<g><path style="opacity:0.004" fill="#0f0f0f" d="M 1937.5,351.5 C 1939.17,352.5 1940.5,353.833 1941.5,355.5C 1939.17,355.167 1937.83,353.833 1937.5,351.5 Z"/></g>
<g><path style="opacity:0.439" fill="#1f1f1f" d="M 1943.5,357.5 C 1945.4,357.738 1946.74,358.738 1947.5,360.5C 1945.6,360.262 1944.26,359.262 1943.5,357.5 Z"/></g>
<g><path style="opacity:0.008" fill="#101010" d="M 1986.5,359.5 C 1986.57,361.027 1985.91,362.027 1984.5,362.5C 1984.43,360.973 1985.09,359.973 1986.5,359.5 Z"/></g>
<g><path style="opacity:0.443" fill="#282828" d="M 1947.5,360.5 C 1949.03,360.427 1950.03,361.094 1950.5,362.5C 1948.97,362.573 1947.97,361.906 1947.5,360.5 Z"/></g>
<g><path style="opacity:0.361" fill="#272727" d="M 1950.5,362.5 C 1952.03,362.427 1953.03,363.094 1953.5,364.5C 1951.97,364.573 1950.97,363.906 1950.5,362.5 Z"/></g>
<g><path style="opacity:0.145" fill="#151515" d="M 1953.5,364.5 C 1955.03,364.427 1956.03,365.094 1956.5,366.5C 1954.97,366.573 1953.97,365.906 1953.5,364.5 Z"/></g>
<g><path style="opacity:0.817" fill="#343434" d="M 1959.5,367.5 C 1965.13,368.292 1970.8,368.625 1976.5,368.5C 1970.71,371.151 1965.04,370.817 1959.5,367.5 Z"/></g>
</svg>
