<?xml version="1.0" encoding="UTF-8"?>
<!DOCTYPE svg PUBLIC "-//W3C//DTD SVG 1.1//EN" "http://www.w3.org/Graphics/SVG/1.1/DTD/svg11.dtd">
<svg xmlns="http://www.w3.org/2000/svg" version="1.1" width="2275px" height="1000px" style="shape-rendering:geometricPrecision; text-rendering:geometricPrecision; image-rendering:optimizeQuality; fill-rule:evenodd; clip-rule:evenodd" xmlns:xlink="http://www.w3.org/1999/xlink">
<g><path style="opacity:1" fill="#666666" d="M 1115.5,42.5 C 1137.17,42.9549 1158.84,43.6215 1180.5,44.5C 1199.33,45.2399 1217.99,47.4065 1236.5,51C 1242.04,52.3455 1247.37,54.1788 1252.5,56.5C 1253.03,58.4456 1254.37,59.4456 1256.5,59.5C 1258.17,60.5 1259.5,61.8333 1260.5,63.5C 1260.43,65.0269 1261.09,66.0269 1262.5,66.5C 1262.43,68.0269 1263.09,69.0269 1264.5,69.5C 1266.59,72.0884 1267.93,75.0884 1268.5,78.5C 1268.53,81.9164 1269.53,84.9164 1271.5,87.5C 1275.64,103.052 1275.3,118.385 1270.5,133.5C 1266.8,133.448 1263.14,133.114 1259.5,132.5C 1257.72,132.107 1256.05,131.441 1254.5,130.5C 1253.82,128.824 1252.48,128.157 1250.5,128.5C 1250.17,128.5 1249.83,128.5 1249.5,128.5C 1248.36,126.787 1246.7,126.12 1244.5,126.5C 1242.03,126.233 1239.7,125.566 1237.5,124.5C 1235.9,122.926 1233.9,122.259 1231.5,122.5C 1214.79,119.712 1198.12,119.879 1181.5,123C 1173.58,125.627 1165.92,128.794 1158.5,132.5C 1155.17,132.5 1151.83,132.5 1148.5,132.5C 1142.09,132.106 1135.76,131.439 1129.5,130.5C 1116.34,129.34 1103.01,129.173 1089.5,130C 1087.62,130.198 1085.95,130.698 1084.5,131.5C 1071.8,132.234 1059.13,133.4 1046.5,135C 1040.09,136.026 1033.92,137.859 1028,140.5C 1011.92,137.552 995.753,135.219 979.5,133.5C 979.389,132.883 979.056,132.383 978.5,132C 979.71,130.961 980.71,129.794 981.5,128.5C 983.749,127.92 985.415,126.587 986.5,124.5C 988.027,124.573 989.027,123.906 989.5,122.5C 991.404,122.262 992.738,121.262 993.5,119.5C 995.027,119.573 996.027,118.906 996.5,117.5C 998.404,117.262 999.738,116.262 1000.5,114.5C 1002.03,114.573 1003.03,113.906 1003.5,112.5C 1003.84,111.662 1004.51,111.328 1005.5,111.5C 1007.4,111.262 1008.74,110.262 1009.5,108.5C 1011.03,108.573 1012.03,107.906 1012.5,106.5C 1014.03,106.573 1015.03,105.906 1015.5,104.5C 1017.4,104.262 1018.74,103.262 1019.5,101.5C 1021.03,101.573 1022.03,100.906 1022.5,99.5C 1024.03,99.573 1025.03,98.9063 1025.5,97.5C 1027.03,97.573 1028.03,96.9063 1028.5,95.5C 1030.03,95.573 1031.03,94.9063 1031.5,93.5C 1033.4,93.2624 1034.74,92.2624 1035.5,90.5C 1037.03,90.573 1038.03,89.9063 1038.5,88.5C 1040.4,88.2624 1041.74,87.2624 1042.5,85.5C 1044.03,85.573 1045.03,84.9063 1045.5,83.5C 1047.03,83.573 1048.03,82.9063 1048.5,81.5C 1050.03,81.573 1051.03,80.9063 1051.5,79.5C 1053.03,79.573 1054.03,78.9063 1054.5,77.5C 1056.03,77.573 1057.03,76.9063 1057.5,75.5C 1059.4,75.2624 1060.74,74.2624 1061.5,72.5C 1063.03,72.573 1064.03,71.9063 1064.5,70.5C 1064.84,69.6618 1065.51,69.3284 1066.5,69.5C 1068.03,69.573 1069.03,68.9063 1069.5,67.5C 1071.03,67.573 1072.03,66.9063 1072.5,65.5C 1074.03,65.573 1075.03,64.9063 1075.5,63.5C 1077.03,63.573 1078.03,62.9063 1078.5,61.5C 1080.03,61.573 1081.03,60.9063 1081.5,59.5C 1082.51,58.3263 1083.85,57.6596 1085.5,57.5C 1087.03,57.573 1088.03,56.9063 1088.5,55.5C 1088.84,54.6618 1089.51,54.3284 1090.5,54.5C 1092.03,54.573 1093.03,53.9063 1093.5,52.5C 1093.84,51.6618 1094.51,51.3284 1095.5,51.5C 1097.85,51.4077 1099.51,50.4077 1100.5,48.5C 1101.78,47.0687 1103.45,46.4021 1105.5,46.5C 1107.03,46.573 1108.03,45.9063 1108.5,44.5C 1111.15,44.5905 1113.49,43.9238 1115.5,42.5 Z"/></g>
<g><path style="opacity:0.586" fill="#303030" d="M 1115.5,42.5 C 1137.2,41.5618 1158.86,42.2284 1180.5,44.5C 1158.84,43.6215 1137.17,42.9549 1115.5,42.5 Z"/></g>
<g><path style="opacity:0.788" fill="#373737" d="M 1115.5,42.5 C 1113.49,43.9238 1111.15,44.5905 1108.5,44.5C 1110.51,43.0762 1112.85,42.4095 1115.5,42.5 Z"/></g>
<g><path style="opacity:0.6" fill="#2c2c2c" d="M 1108.5,44.5 C 1108.03,45.9063 1107.03,46.573 1105.5,46.5C 1105.97,45.0937 1106.97,44.427 1108.5,44.5 Z"/></g>
<g><path style="opacity:0.412" fill="#272727" d="M 1100.5,48.5 C 1099.51,50.4077 1097.85,51.4077 1095.5,51.5C 1096.66,49.7497 1098.33,48.7497 1100.5,48.5 Z"/></g>
<g><path style="opacity:0.541" fill="#262626" d="M 1093.5,52.5 C 1093.03,53.9063 1092.03,54.573 1090.5,54.5C 1090.97,53.0937 1091.97,52.427 1093.5,52.5 Z"/></g>
<g><path style="opacity:0.553" fill="#272727" d="M 1088.5,55.5 C 1088.03,56.9063 1087.03,57.573 1085.5,57.5C 1085.97,56.0937 1086.97,55.427 1088.5,55.5 Z"/></g>
<g><path style="opacity:0.827" fill="#2f2f2f" d="M 1252.5,56.5 C 1254.23,57.0256 1255.56,58.0256 1256.5,59.5C 1254.37,59.4456 1253.03,58.4456 1252.5,56.5 Z"/></g>
<g><path style="opacity:0.341" fill="#181818" d="M 1081.5,59.5 C 1081.03,60.9063 1080.03,61.573 1078.5,61.5C 1078.97,60.0937 1079.97,59.427 1081.5,59.5 Z"/></g>
<g><path style="opacity:0.443" fill="#1d1d1d" d="M 1078.5,61.5 C 1078.03,62.9063 1077.03,63.573 1075.5,63.5C 1075.97,62.0937 1076.97,61.427 1078.5,61.5 Z"/></g>
<g><path style="opacity:0.541" fill="#242424" d="M 1075.5,63.5 C 1075.03,64.9063 1074.03,65.573 1072.5,65.5C 1072.97,64.0937 1073.97,63.427 1075.5,63.5 Z"/></g>
<g><path style="opacity:0.345" fill="#252525" d="M 1260.5,63.5 C 1261.91,63.9731 1262.57,64.9731 1262.5,66.5C 1261.09,66.0269 1260.43,65.0269 1260.5,63.5 Z"/></g>
<g><path style="opacity:0.588" fill="#292929" d="M 1072.5,65.5 C 1072.03,66.9063 1071.03,67.573 1069.5,67.5C 1069.97,66.0937 1070.97,65.427 1072.5,65.5 Z"/></g>
<g><path style="opacity:0.635" fill="#2c2c2c" d="M 1069.5,67.5 C 1069.03,68.9063 1068.03,69.573 1066.5,69.5C 1066.97,68.0937 1067.97,67.427 1069.5,67.5 Z"/></g>
<g><path style="opacity:0.224" fill="#1b1b1b" d="M 1262.5,66.5 C 1263.91,66.9731 1264.57,67.9731 1264.5,69.5C 1263.09,69.0269 1262.43,68.0269 1262.5,66.5 Z"/></g>
<g><path style="opacity:0.384" fill="#1f1f1f" d="M 1064.5,70.5 C 1064.03,71.9063 1063.03,72.573 1061.5,72.5C 1061.97,71.0937 1062.97,70.427 1064.5,70.5 Z"/></g>
<g><path style="opacity:0.251" fill="#282828" d="M 1667.5,73.5 C 1667.17,73.5 1666.83,73.5 1666.5,73.5C 1655.14,73.2566 1643.8,73.59 1632.5,74.5C 1633.26,73.7321 1634.26,73.2321 1635.5,73C 1646.34,72.1745 1657.01,72.3412 1667.5,73.5 Z"/></g>
<g><path style="opacity:0.38" fill="#262626" d="M 1061.5,72.5 C 1060.74,74.2624 1059.4,75.2624 1057.5,75.5C 1058.26,73.7376 1059.6,72.7376 1061.5,72.5 Z"/></g>
<g><path style="opacity:1" fill="#666666" d="M 1666.5,73.5 C 1677.3,74.9994 1688.3,75.666 1699.5,75.5C 1703.17,75.5 1706.83,75.5 1710.5,75.5C 1711.26,76.2679 1712.26,76.7679 1713.5,77C 1720.48,77.7714 1727.48,78.2714 1734.5,78.5C 1743,78.9039 1751.33,80.2373 1759.5,82.5C 1762.01,84.554 1765.01,85.554 1768.5,85.5C 1771.06,86.0883 1773.4,87.0883 1775.5,88.5C 1777.45,91.1184 1779.79,93.4518 1782.5,95.5C 1782.74,97.4044 1783.74,98.7377 1785.5,99.5C 1787.93,103.111 1789.6,107.111 1790.5,111.5C 1790.26,113.898 1790.93,115.898 1792.5,117.5C 1796.33,132.738 1796.49,148.072 1793,163.5C 1792.62,164.056 1792.12,164.389 1791.5,164.5C 1788.83,164.5 1786.17,164.5 1783.5,164.5C 1782.51,164.672 1781.84,164.338 1781.5,163.5C 1780.36,161.787 1778.7,161.12 1776.5,161.5C 1775.36,159.787 1773.7,159.12 1771.5,159.5C 1769.3,159.396 1767.3,158.73 1765.5,157.5C 1764.36,155.787 1762.7,155.12 1760.5,155.5C 1760.17,155.5 1759.83,155.5 1759.5,155.5C 1757.56,153.837 1755.23,153.171 1752.5,153.5C 1738.91,151.551 1725.24,151.051 1711.5,152C 1700.3,154.564 1689.64,158.397 1679.5,163.5C 1676.5,163.5 1673.5,163.5 1670.5,163.5C 1634.37,160.302 1598.37,161.469 1562.5,167C 1557.85,168.106 1553.35,169.606 1549,171.5C 1532.94,168.388 1516.77,166.055 1500.5,164.5C 1499.53,163.038 1499.86,161.705 1501.5,160.5C 1503.4,160.262 1504.74,159.262 1505.5,157.5C 1506.5,157.167 1507.17,156.5 1507.5,155.5C 1509.03,155.573 1510.03,154.906 1510.5,153.5C 1512.03,153.573 1513.03,152.906 1513.5,151.5C 1515.4,151.262 1516.74,150.262 1517.5,148.5C 1519.03,148.573 1520.03,147.906 1520.5,146.5C 1522.4,146.262 1523.74,145.262 1524.5,143.5C 1524.84,142.662 1525.51,142.328 1526.5,142.5C 1528.03,142.573 1529.03,141.906 1529.5,140.5C 1531.4,140.262 1532.74,139.262 1533.5,137.5C 1535.03,137.573 1536.03,136.906 1536.5,135.5C 1536.84,134.662 1537.51,134.328 1538.5,134.5C 1540.75,133.92 1542.42,132.587 1543.5,130.5C 1543.84,129.662 1544.51,129.328 1545.5,129.5C 1547.4,129.262 1548.74,128.262 1549.5,126.5C 1551.03,126.573 1552.03,125.906 1552.5,124.5C 1554.03,124.573 1555.03,123.906 1555.5,122.5C 1557.4,122.262 1558.74,121.262 1559.5,119.5C 1561.03,119.573 1562.03,118.906 1562.5,117.5C 1564.03,117.573 1565.03,116.906 1565.5,115.5C 1567.4,115.262 1568.74,114.262 1569.5,112.5C 1571.03,112.573 1572.03,111.906 1572.5,110.5C 1574.03,110.573 1575.03,109.906 1575.5,108.5C 1577.03,108.573 1578.03,107.906 1578.5,106.5C 1580.03,106.573 1581.03,105.906 1581.5,104.5C 1583.03,104.573 1584.03,103.906 1584.5,102.5C 1586.03,102.573 1587.03,101.906 1587.5,100.5C 1589.03,100.573 1590.03,99.9063 1590.5,98.5C 1592.03,98.573 1593.03,97.9063 1593.5,96.5C 1595.03,96.573 1596.03,95.9063 1596.5,94.5C 1596.84,93.6618 1597.51,93.3284 1598.5,93.5C 1600.03,93.573 1601.03,92.9063 1601.5,91.5C 1603.03,91.573 1604.03,90.9063 1604.5,89.5C 1605.51,88.3263 1606.85,87.6596 1608.5,87.5C 1610.03,87.573 1611.03,86.9063 1611.5,85.5C 1611.84,84.6618 1612.51,84.3284 1613.5,84.5C 1615.03,84.573 1616.03,83.9063 1616.5,82.5C 1616.84,81.6618 1617.51,81.3284 1618.5,81.5C 1620.03,81.573 1621.03,80.9063 1621.5,79.5C 1624.98,77.5969 1628.65,75.9302 1632.5,74.5C 1643.8,73.59 1655.14,73.2566 1666.5,73.5 Z"/></g>
<g><path style="opacity:0.839" fill="#3c3c3c" d="M 1666.5,73.5 C 1666.83,73.5 1667.17,73.5 1667.5,73.5C 1678.38,73.2419 1689.04,73.9085 1699.5,75.5C 1688.3,75.666 1677.3,74.9994 1666.5,73.5 Z"/></g>
<g><path style="opacity:0.675" fill="#333333" d="M 1057.5,75.5 C 1057.03,76.9063 1056.03,77.573 1054.5,77.5C 1054.97,76.0937 1055.97,75.427 1057.5,75.5 Z"/></g>
<g><path style="opacity:0.588" fill="#2f2f2f" d="M 1710.5,75.5 C 1718.68,76.1482 1726.68,77.1482 1734.5,78.5C 1727.48,78.2714 1720.48,77.7714 1713.5,77C 1712.26,76.7679 1711.26,76.2679 1710.5,75.5 Z"/></g>
<g><path style="opacity:0.659" fill="#303030" d="M 1054.5,77.5 C 1054.03,78.9063 1053.03,79.573 1051.5,79.5C 1051.97,78.0937 1052.97,77.427 1054.5,77.5 Z"/></g>
<g><path style="opacity:0.624" fill="#2a2a2a" d="M 1051.5,79.5 C 1051.03,80.9063 1050.03,81.573 1048.5,81.5C 1048.97,80.0937 1049.97,79.427 1051.5,79.5 Z"/></g>
<g><path style="opacity:0.369" fill="#1a1a1a" d="M 1621.5,79.5 C 1621.03,80.9063 1620.03,81.573 1618.5,81.5C 1618.97,80.0937 1619.97,79.427 1621.5,79.5 Z"/></g>
<g><path style="opacity:0.722" fill="#242424" d="M 1268.5,78.5 C 1270.07,81.2154 1271.07,84.2154 1271.5,87.5C 1269.53,84.9164 1268.53,81.9164 1268.5,78.5 Z"/></g>
<g><path style="opacity:0.533" fill="#2a2a2a" d="M 1048.5,81.5 C 1048.03,82.9063 1047.03,83.573 1045.5,83.5C 1045.97,82.0937 1046.97,81.427 1048.5,81.5 Z"/></g>
<g><path style="opacity:0.584" fill="#292929" d="M 1616.5,82.5 C 1616.03,83.9063 1615.03,84.573 1613.5,84.5C 1613.97,83.0937 1614.97,82.427 1616.5,82.5 Z"/></g>
<g><path style="opacity:0.518" fill="#232323" d="M 1759.5,82.5 C 1762.75,83.0541 1765.75,84.0541 1768.5,85.5C 1765.01,85.554 1762.01,84.554 1759.5,82.5 Z"/></g>
<g><path style="opacity:0.514" fill="#252525" d="M 1045.5,83.5 C 1045.03,84.9063 1044.03,85.573 1042.5,85.5C 1042.97,84.0937 1043.97,83.427 1045.5,83.5 Z"/></g>
<g><path style="opacity:0.424" fill="#242424" d="M 1042.5,85.5 C 1041.74,87.2624 1040.4,88.2624 1038.5,88.5C 1039.26,86.7376 1040.6,85.7376 1042.5,85.5 Z"/></g>
<g><path style="opacity:0.608" fill="#2b2b2b" d="M 1611.5,85.5 C 1611.03,86.9063 1610.03,87.573 1608.5,87.5C 1608.97,86.0937 1609.97,85.427 1611.5,85.5 Z"/></g>
<g><path style="opacity:0.596" fill="#2c2c2c" d="M 1038.5,88.5 C 1038.03,89.9063 1037.03,90.573 1035.5,90.5C 1035.97,89.0937 1036.97,88.427 1038.5,88.5 Z"/></g>
<g><path style="opacity:0.882" fill="#282828" d="M 1775.5,88.5 C 1778.86,89.8552 1781.19,92.1886 1782.5,95.5C 1779.79,93.4518 1777.45,91.1184 1775.5,88.5 Z"/></g>
<g><path style="opacity:0.404" fill="#1d1d1d" d="M 1604.5,89.5 C 1604.03,90.9063 1603.03,91.573 1601.5,91.5C 1601.97,90.0937 1602.97,89.427 1604.5,89.5 Z"/></g>
<g><path style="opacity:0.494" fill="#282828" d="M 1035.5,90.5 C 1034.74,92.2624 1033.4,93.2624 1031.5,93.5C 1032.26,91.7376 1033.6,90.7376 1035.5,90.5 Z"/></g>
<g><path style="opacity:0.514" fill="#222222" d="M 1601.5,91.5 C 1601.03,92.9063 1600.03,93.573 1598.5,93.5C 1598.97,92.0937 1599.97,91.427 1601.5,91.5 Z"/></g>
<g><path style="opacity:0.651" fill="#303030" d="M 1031.5,93.5 C 1031.03,94.9063 1030.03,95.573 1028.5,95.5C 1028.97,94.0937 1029.97,93.427 1031.5,93.5 Z"/></g>
<g><path style="opacity:0.373" fill="#1e1e1e" d="M 1596.5,94.5 C 1596.03,95.9063 1595.03,96.573 1593.5,96.5C 1593.97,95.0937 1594.97,94.427 1596.5,94.5 Z"/></g>
<g><path style="opacity:0.584" fill="#2a2a2a" d="M 1028.5,95.5 C 1028.03,96.9063 1027.03,97.573 1025.5,97.5C 1025.97,96.0937 1026.97,95.427 1028.5,95.5 Z"/></g>
<g><path style="opacity:0.463" fill="#1f1f1f" d="M 1593.5,96.5 C 1593.03,97.9063 1592.03,98.573 1590.5,98.5C 1590.97,97.0937 1591.97,96.427 1593.5,96.5 Z"/></g>
<g><path style="opacity:0.42" fill="#222222" d="M 1782.5,95.5 C 1784.26,96.2623 1785.26,97.5956 1785.5,99.5C 1783.74,98.7377 1782.74,97.4044 1782.5,95.5 Z"/></g>
<g><path style="opacity:0.498" fill="#232323" d="M 1025.5,97.5 C 1025.03,98.9063 1024.03,99.573 1022.5,99.5C 1022.97,98.0937 1023.97,97.427 1025.5,97.5 Z"/></g>
<g><path style="opacity:0.537" fill="#202020" d="M 1590.5,98.5 C 1590.03,99.9063 1589.03,100.573 1587.5,100.5C 1587.97,99.0937 1588.97,98.427 1590.5,98.5 Z"/></g>
<g><path style="opacity:0.427" fill="#212121" d="M 1022.5,99.5 C 1022.03,100.906 1021.03,101.573 1019.5,101.5C 1019.97,100.094 1020.97,99.427 1022.5,99.5 Z"/></g>
<g><path style="opacity:0.557" fill="#252525" d="M 1587.5,100.5 C 1587.03,101.906 1586.03,102.573 1584.5,102.5C 1584.97,101.094 1585.97,100.427 1587.5,100.5 Z"/></g>
<g><path style="opacity:0.376" fill="#212121" d="M 1019.5,101.5 C 1018.74,103.262 1017.4,104.262 1015.5,104.5C 1016.26,102.738 1017.6,101.738 1019.5,101.5 Z"/></g>
<g><path style="opacity:0.553" fill="#272727" d="M 1584.5,102.5 C 1584.03,103.906 1583.03,104.573 1581.5,104.5C 1581.97,103.094 1582.97,102.427 1584.5,102.5 Z"/></g>
<g><path style="opacity:0.604" fill="#2a2a2a" d="M 1015.5,104.5 C 1015.03,105.906 1014.03,106.573 1012.5,106.5C 1012.97,105.094 1013.97,104.427 1015.5,104.5 Z"/></g>
<g><path style="opacity:0.537" fill="#282828" d="M 1581.5,104.5 C 1581.03,105.906 1580.03,106.573 1578.5,106.5C 1578.97,105.094 1579.97,104.427 1581.5,104.5 Z"/></g>
<g><path style="opacity:0.522" fill="#282828" d="M 1012.5,106.5 C 1012.03,107.906 1011.03,108.573 1009.5,108.5C 1009.97,107.094 1010.97,106.427 1012.5,106.5 Z"/></g>
<g><path style="opacity:0.537" fill="#242424" d="M 1578.5,106.5 C 1578.03,107.906 1577.03,108.573 1575.5,108.5C 1575.97,107.094 1576.97,106.427 1578.5,106.5 Z"/></g>
<g><path style="opacity:0.51" fill="#2a2a2a" d="M 1009.5,108.5 C 1008.74,110.262 1007.4,111.262 1005.5,111.5C 1006.26,109.738 1007.6,108.738 1009.5,108.5 Z"/></g>
<g><path style="opacity:0.522" fill="#212121" d="M 1575.5,108.5 C 1575.03,109.906 1574.03,110.573 1572.5,110.5C 1572.97,109.094 1573.97,108.427 1575.5,108.5 Z"/></g>
<g><path style="opacity:0.459" fill="#232323" d="M 1572.5,110.5 C 1572.03,111.906 1571.03,112.573 1569.5,112.5C 1569.97,111.094 1570.97,110.427 1572.5,110.5 Z"/></g>
<g><path style="opacity:0.412" fill="#222222" d="M 1003.5,112.5 C 1003.03,113.906 1002.03,114.573 1000.5,114.5C 1000.97,113.094 1001.97,112.427 1003.5,112.5 Z"/></g>
<g><path style="opacity:0.42" fill="#242424" d="M 1569.5,112.5 C 1568.74,114.262 1567.4,115.262 1565.5,115.5C 1566.26,113.738 1567.6,112.738 1569.5,112.5 Z"/></g>
<g><path style="opacity:0.718" fill="#272727" d="M 1790.5,111.5 C 1791.74,113.214 1792.41,115.214 1792.5,117.5C 1790.93,115.898 1790.26,113.898 1790.5,111.5 Z"/></g>
<g><path style="opacity:0.38" fill="#222222" d="M 1000.5,114.5 C 999.738,116.262 998.404,117.262 996.5,117.5C 997.262,115.738 998.596,114.738 1000.5,114.5 Z"/></g>
<g><path style="opacity:0.62" fill="#2a2a2a" d="M 1565.5,115.5 C 1565.03,116.906 1564.03,117.573 1562.5,117.5C 1562.97,116.094 1563.97,115.427 1565.5,115.5 Z"/></g>
<g><path style="opacity:0.592" fill="#2a2a2a" d="M 996.5,117.5 C 996.027,118.906 995.027,119.573 993.5,119.5C 993.973,118.094 994.973,117.427 996.5,117.5 Z"/></g>
<g><path style="opacity:0.514" fill="#262626" d="M 1562.5,117.5 C 1562.03,118.906 1561.03,119.573 1559.5,119.5C 1559.97,118.094 1560.97,117.427 1562.5,117.5 Z"/></g>
<g><path style="opacity:0.467" fill="#272727" d="M 993.5,119.5 C 992.738,121.262 991.404,122.262 989.5,122.5C 990.262,120.738 991.596,119.738 993.5,119.5 Z"/></g>
<g><path style="opacity:0.447" fill="#232323" d="M 1559.5,119.5 C 1558.74,121.262 1557.4,122.262 1555.5,122.5C 1556.26,120.738 1557.6,119.738 1559.5,119.5 Z"/></g>
<g><path style="opacity:0.639" fill="#252525" d="M 1231.5,122.5 C 1233.9,122.259 1235.9,122.926 1237.5,124.5C 1235.21,124.405 1233.21,123.738 1231.5,122.5 Z"/></g>
<g><path style="opacity:0.537" fill="#292929" d="M 989.5,122.5 C 989.027,123.906 988.027,124.573 986.5,124.5C 986.973,123.094 987.973,122.427 989.5,122.5 Z"/></g>
<g><path style="opacity:0.584" fill="#292929" d="M 1555.5,122.5 C 1555.03,123.906 1554.03,124.573 1552.5,124.5C 1552.97,123.094 1553.97,122.427 1555.5,122.5 Z"/></g>
<g><path style="opacity:0.525" fill="#232323" d="M 1552.5,124.5 C 1552.03,125.906 1551.03,126.573 1549.5,126.5C 1549.97,125.094 1550.97,124.427 1552.5,124.5 Z"/></g>
<g><path style="opacity:0.686" fill="#262626" d="M 1244.5,126.5 C 1246.7,126.12 1248.36,126.787 1249.5,128.5C 1247.6,128.204 1245.93,127.537 1244.5,126.5 Z"/></g>
<g><path style="opacity:0.702" fill="#2c2c2c" d="M 986.5,124.5 C 985.415,126.587 983.749,127.92 981.5,128.5C 982.585,126.413 984.251,125.08 986.5,124.5 Z"/></g>
<g><path style="opacity:0.424" fill="#232323" d="M 1549.5,126.5 C 1548.74,128.262 1547.4,129.262 1545.5,129.5C 1546.26,127.738 1547.6,126.738 1549.5,126.5 Z"/></g>
<g><path style="opacity:0.898" fill="#323232" d="M 1250.5,128.5 C 1252.48,128.157 1253.82,128.824 1254.5,130.5C 1252.85,130.34 1251.51,129.674 1250.5,128.5 Z"/></g>
<g><path style="opacity:0.478" fill="#404040" d="M 1129.5,130.5 C 1114.49,130.468 1099.49,130.801 1084.5,131.5C 1085.95,130.698 1087.62,130.198 1089.5,130C 1103.01,129.173 1116.34,129.34 1129.5,130.5 Z"/></g>
<g><path style="opacity:0.412" fill="#252525" d="M 981.5,128.5 C 980.71,129.794 979.71,130.961 978.5,132C 979.056,132.383 979.389,132.883 979.5,133.5C 976.864,131.079 977.531,129.412 981.5,128.5 Z"/></g>
<g><path style="opacity:0.729" fill="#313131" d="M 1148.5,132.5 C 1151.83,132.5 1155.17,132.5 1158.5,132.5C 1157.74,133.391 1156.74,134.058 1155.5,134.5C 1153.02,133.933 1150.68,133.266 1148.5,132.5 Z"/></g>
<g><path style="opacity:0.857" fill="#3e3e3e" d="M 1259.5,132.5 C 1263.14,133.114 1266.8,133.448 1270.5,133.5C 1266.71,134.902 1263.04,134.569 1259.5,132.5 Z"/></g>
<g><path style="opacity:0.788" fill="#2e2e2e" d="M 1543.5,130.5 C 1542.42,132.587 1540.75,133.92 1538.5,134.5C 1539.58,132.413 1541.25,131.08 1543.5,130.5 Z"/></g>
<g><path style="opacity:0.494" fill="#1d1d1d" d="M 1536.5,135.5 C 1536.03,136.906 1535.03,137.573 1533.5,137.5C 1533.97,136.094 1534.97,135.427 1536.5,135.5 Z"/></g>
<g><path style="opacity:0.388" fill="#222222" d="M 1533.5,137.5 C 1532.74,139.262 1531.4,140.262 1529.5,140.5C 1530.26,138.738 1531.6,137.738 1533.5,137.5 Z"/></g>
<g><path style="opacity:0.643" fill="#2b2b2b" d="M 1529.5,140.5 C 1529.03,141.906 1528.03,142.573 1526.5,142.5C 1526.97,141.094 1527.97,140.427 1529.5,140.5 Z"/></g>
<g><path style="opacity:0.302" fill="#1d1d1d" d="M 1524.5,143.5 C 1523.74,145.262 1522.4,146.262 1520.5,146.5C 1521.26,144.738 1522.6,143.738 1524.5,143.5 Z"/></g>
<g><path style="opacity:0.522" fill="#242424" d="M 1520.5,146.5 C 1520.03,147.906 1519.03,148.573 1517.5,148.5C 1517.97,147.094 1518.97,146.427 1520.5,146.5 Z"/></g>
<g><path style="opacity:0.471" fill="#232323" d="M 1517.5,148.5 C 1516.74,150.262 1515.4,151.262 1513.5,151.5C 1514.26,149.738 1515.6,148.738 1517.5,148.5 Z"/></g>
<g><path style="opacity:0.573" fill="#272727" d="M 1513.5,151.5 C 1513.03,152.906 1512.03,153.573 1510.5,153.5C 1510.97,152.094 1511.97,151.427 1513.5,151.5 Z"/></g>
<g><path style="opacity:0.71" fill="#292929" d="M 1752.5,153.5 C 1755.23,153.171 1757.56,153.837 1759.5,155.5C 1756.93,155.279 1754.6,154.612 1752.5,153.5 Z"/></g>
<g><path style="opacity:0.416" fill="#1d1d1d" d="M 1510.5,153.5 C 1510.03,154.906 1509.03,155.573 1507.5,155.5C 1507.97,154.094 1508.97,153.427 1510.5,153.5 Z"/></g>
<g><path style="opacity:0.09" fill="#0b0b0b" d="M 1507.5,155.5 C 1507.17,156.5 1506.5,157.167 1505.5,157.5C 1505.5,156.167 1506.17,155.5 1507.5,155.5 Z"/></g>
<g><path style="opacity:0.765" fill="#2c2c2c" d="M 1760.5,155.5 C 1762.7,155.12 1764.36,155.787 1765.5,157.5C 1763.6,157.204 1761.93,156.537 1760.5,155.5 Z"/></g>
<g><path style="opacity:0.522" fill="#2b2b2b" d="M 1505.5,157.5 C 1504.74,159.262 1503.4,160.262 1501.5,160.5C 1502.26,158.738 1503.6,157.738 1505.5,157.5 Z"/></g>
<g><path style="opacity:0.773" fill="#2b2b2b" d="M 1771.5,159.5 C 1773.7,159.12 1775.36,159.787 1776.5,161.5C 1774.6,161.204 1772.93,160.537 1771.5,159.5 Z"/></g>
<g><path style="opacity:0.275" fill="#141414" d="M 1501.5,160.5 C 1499.86,161.705 1499.53,163.038 1500.5,164.5C 1499.5,164.53 1498.84,164.03 1498.5,163C 1498.75,161.251 1499.75,160.418 1501.5,160.5 Z"/></g>
<g><path style="opacity:0.847" fill="#343434" d="M 1776.5,161.5 C 1778.7,161.12 1780.36,161.787 1781.5,163.5C 1779.6,163.204 1777.93,162.537 1776.5,161.5 Z"/></g>
<g><path style="opacity:0.78" fill="#2e2e2e" d="M 1670.5,163.5 C 1673.5,163.5 1676.5,163.5 1679.5,163.5C 1676.58,165.769 1673.58,165.769 1670.5,163.5 Z"/></g>
<g><path style="opacity:0.78" fill="#2d2d2d" d="M 1783.5,164.5 C 1786.17,164.5 1788.83,164.5 1791.5,164.5C 1791.13,165.695 1790.3,166.361 1789,166.5C 1786.97,166.046 1785.14,165.38 1783.5,164.5 Z"/></g>
<g><path style="opacity:0.165" fill="#111111" d="M 978.5,202.5 C 976.031,203.317 973.365,203.817 970.5,204C 971.056,204.383 971.389,204.883 971.5,205.5C 969.952,205.179 969.285,204.179 969.5,202.5C 972.5,202.5 975.5,202.5 978.5,202.5 Z"/></g>
<g><path style="opacity:0.999" fill="#616161" d="M 978.5,202.5 C 992.167,202.5 1005.83,202.5 1019.5,202.5C 1023.88,204.211 1028.55,204.877 1033.5,204.5C 1036.21,204.575 1038.87,204.908 1041.5,205.5C 1042.99,207.28 1044.99,207.946 1047.5,207.5C 1048.89,208.947 1048.55,209.947 1046.5,210.5C 1045.5,210.833 1044.83,211.5 1044.5,212.5C 1042.47,214.522 1040.14,216.189 1037.5,217.5C 1035.97,217.427 1034.97,218.094 1034.5,219.5C 1033.56,220.974 1032.23,221.974 1030.5,222.5C 1026.17,222.5 1021.83,222.5 1017.5,222.5C 1015.38,222.675 1013.38,222.341 1011.5,221.5C 1009.9,219.926 1007.9,219.259 1005.5,219.5C 1004.21,219.737 1003.21,219.404 1002.5,218.5C 1002.03,217.094 1001.03,216.427 999.5,216.5C 994.746,214.694 990.08,212.694 985.5,210.5C 984.365,208.787 982.698,208.12 980.5,208.5C 979.365,206.787 977.698,206.12 975.5,206.5C 973.901,206.768 972.568,206.434 971.5,205.5C 971.389,204.883 971.056,204.383 970.5,204C 973.365,203.817 976.031,203.317 978.5,202.5 Z"/></g>
<g><path style="opacity:0.478" fill="#2b2b2b" d="M 1019.5,202.5 C 1024.37,202.69 1029.04,203.356 1033.5,204.5C 1028.55,204.877 1023.88,204.211 1019.5,202.5 Z"/></g>
<g><path style="opacity:0.82" fill="#313131" d="M 975.5,206.5 C 977.698,206.12 979.365,206.787 980.5,208.5C 978.597,208.204 976.93,207.537 975.5,206.5 Z"/></g>
<g><path style="opacity:0.553" fill="#272727" d="M 1041.5,205.5 C 1043.7,205.875 1045.7,206.542 1047.5,207.5C 1044.99,207.946 1042.99,207.28 1041.5,205.5 Z"/></g>
<g><path style="opacity:0.678" fill="#232323" d="M 980.5,208.5 C 982.698,208.12 984.365,208.787 985.5,210.5C 983.597,210.204 981.93,209.537 980.5,208.5 Z"/></g>
<g><path style="opacity:0.004" fill="#101010" d="M 1046.5,210.5 C 1046.5,211.833 1045.83,212.5 1044.5,212.5C 1044.83,211.5 1045.5,210.833 1046.5,210.5 Z"/></g>
<g><path style="opacity:0.204" fill="#191919" d="M 999.5,216.5 C 1001.03,216.427 1002.03,217.094 1002.5,218.5C 1000.97,218.573 999.973,217.906 999.5,216.5 Z"/></g>
<g><path style="opacity:0.012" fill="#0c0c0c" d="M 1037.5,217.5 C 1037.03,218.906 1036.03,219.573 1034.5,219.5C 1034.97,218.094 1035.97,217.427 1037.5,217.5 Z"/></g>
<g><path style="opacity:0.494" fill="#2f2f2f" d="M 1005.5,219.5 C 1007.9,219.259 1009.9,219.926 1011.5,221.5C 1009.1,221.741 1007.1,221.074 1005.5,219.5 Z"/></g>
<g><path style="opacity:0.729" fill="#272727" d="M 1017.5,222.5 C 1021.83,222.5 1026.17,222.5 1030.5,222.5C 1030.13,223.695 1029.3,224.361 1028,224.5C 1024.35,223.938 1020.85,223.271 1017.5,222.5 Z"/></g>
<g><path style="opacity:0.998" fill="#606060" d="M 951.5,241.5 C 952.287,243.104 953.62,243.771 955.5,243.5C 958.004,244.584 960.337,245.917 962.5,247.5C 962.973,248.906 963.973,249.573 965.5,249.5C 966.087,250.767 966.087,251.767 965.5,252.5C 963.591,251.652 961.591,251.318 959.5,251.5C 958.833,251.5 958.167,251.5 957.5,251.5C 956.391,250.71 955.058,250.21 953.5,250C 941.659,249.174 929.993,249.341 918.5,250.5C 891.579,253.559 864.579,255.892 837.5,257.5C 835.901,257.768 834.568,257.434 833.5,256.5C 834.78,255.069 836.447,254.402 838.5,254.5C 842.162,254.277 845.495,253.277 848.5,251.5C 853.438,250.769 858.105,249.435 862.5,247.5C 865.495,247.706 868.162,247.04 870.5,245.5C 872.042,244.699 873.708,244.366 875.5,244.5C 878.781,244.58 881.781,243.913 884.5,242.5C 888.615,241.057 892.948,240.057 897.5,239.5C 901.479,239.258 905.146,238.258 908.5,236.5C 909.568,235.566 910.901,235.232 912.5,235.5C 915.716,235.655 918.383,234.655 920.5,232.5C 931.225,233.175 941.559,236.175 951.5,241.5 Z"/></g>
<g><path style="opacity:0.776" fill="#343434" d="M 920.5,232.5 C 918.383,234.655 915.716,235.655 912.5,235.5C 914.936,234.129 917.603,233.129 920.5,232.5 Z"/></g>
<g><path style="opacity:0.999" fill="#616161" d="M 1546.5,234.5 C 1550.98,235.521 1555.65,236.187 1560.5,236.5C 1561.17,236.5 1561.83,236.5 1562.5,236.5C 1564.1,238.074 1566.1,238.741 1568.5,238.5C 1568.5,239.5 1568.5,240.5 1568.5,241.5C 1567.56,242.974 1566.23,243.974 1564.5,244.5C 1562.97,244.427 1561.97,245.094 1561.5,246.5C 1559.47,248.522 1557.14,250.189 1554.5,251.5C 1552.97,251.427 1551.97,252.094 1551.5,253.5C 1546.64,254.691 1541.64,254.691 1536.5,253.5C 1532.77,251.589 1528.77,250.256 1524.5,249.5C 1520.85,248.341 1517.52,246.674 1514.5,244.5C 1513.36,242.787 1511.7,242.12 1509.5,242.5C 1506.83,241.5 1504.17,240.5 1501.5,239.5C 1500.36,237.787 1498.7,237.12 1496.5,237.5C 1495.21,237.737 1494.21,237.404 1493.5,236.5C 1492.83,235.833 1492.17,235.167 1491.5,234.5C 1509.82,233.18 1528.15,233.18 1546.5,234.5 Z"/></g>
<g><path style="opacity:0.62" fill="#353535" d="M 1546.5,234.5 C 1551.45,234.123 1556.12,234.789 1560.5,236.5C 1555.65,236.187 1550.98,235.521 1546.5,234.5 Z"/></g>
<g><path style="opacity:0.012" fill="#141414" d="M 1491.5,234.5 C 1492.17,235.167 1492.83,235.833 1493.5,236.5C 1492.32,236.719 1491.32,236.386 1490.5,235.5C 1490.62,234.893 1490.96,234.56 1491.5,234.5 Z"/></g>
<g><path style="opacity:0.667" fill="#252525" d="M 1496.5,237.5 C 1498.7,237.12 1500.36,237.787 1501.5,239.5C 1499.6,239.204 1497.93,238.537 1496.5,237.5 Z"/></g>
<g><path style="opacity:0.475" fill="#292929" d="M 1562.5,236.5 C 1564.81,236.993 1567.14,237.326 1569.5,237.5C 1569.77,239.099 1569.43,240.432 1568.5,241.5C 1568.5,240.5 1568.5,239.5 1568.5,238.5C 1566.1,238.741 1564.1,238.074 1562.5,236.5 Z"/></g>
<g><path style="opacity:0.659" fill="#2e2e2e" d="M 908.5,236.5 C 905.146,238.258 901.479,239.258 897.5,239.5C 900.854,237.742 904.521,236.742 908.5,236.5 Z"/></g>
<g><path style="opacity:0.165" fill="#1a1a1a" d="M 951.5,241.5 C 953.153,241.66 954.486,242.326 955.5,243.5C 953.62,243.771 952.287,243.104 951.5,241.5 Z"/></g>
<g><path style="opacity:0.784" fill="#2e2e2e" d="M 1509.5,242.5 C 1511.7,242.12 1513.36,242.787 1514.5,244.5C 1512.6,244.204 1510.93,243.537 1509.5,242.5 Z"/></g>
<g><path style="opacity:0.592" fill="#2b2b2b" d="M 884.5,242.5 C 881.781,243.913 878.781,244.58 875.5,244.5C 878.219,243.087 881.219,242.42 884.5,242.5 Z"/></g>
<g><path style="opacity:0.004" fill="#0b0b0b" d="M 1564.5,244.5 C 1564.03,245.906 1563.03,246.573 1561.5,246.5C 1561.97,245.094 1562.97,244.427 1564.5,244.5 Z"/></g>
<g><path style="opacity:0.541" fill="#313131" d="M 870.5,245.5 C 868.162,247.04 865.495,247.706 862.5,247.5C 864.905,246.232 867.572,245.565 870.5,245.5 Z"/></g>
<g><path style="opacity:0.012" fill="#141414" d="M 962.5,247.5 C 964.027,247.427 965.027,248.094 965.5,249.5C 963.973,249.573 962.973,248.906 962.5,247.5 Z"/></g>
<g><path style="opacity:0.627" fill="#2e2e2e" d="M 862.5,247.5 C 858.105,249.435 853.438,250.769 848.5,251.5C 852.805,249.254 857.471,247.92 862.5,247.5 Z"/></g>
<g><path style="opacity:0.763" fill="#2c2c2c" d="M 918.5,250.5 C 929.993,249.341 941.659,249.174 953.5,250C 955.058,250.21 956.391,250.71 957.5,251.5C 944.526,250.599 931.526,250.265 918.5,250.5 Z"/></g>
<g><path style="opacity:0.933" fill="#2b2b2b" d="M 1524.5,249.5 C 1528.77,250.256 1532.77,251.589 1536.5,253.5C 1532.08,253.139 1528.08,251.806 1524.5,249.5 Z"/></g>
<g><path style="opacity:0.037" fill="#181818" d="M 965.5,249.5 C 967.104,250.287 967.771,251.62 967.5,253.5C 964.572,253.435 961.905,252.768 959.5,251.5C 961.591,251.318 963.591,251.652 965.5,252.5C 966.087,251.767 966.087,250.767 965.5,249.5 Z"/></g>
<g><path style="opacity:0.651" fill="#2d2d2d" d="M 848.5,251.5 C 845.495,253.277 842.162,254.277 838.5,254.5C 841.505,252.723 844.838,251.723 848.5,251.5 Z"/></g>
<g><path style="opacity:0.004" fill="#0c0c0c" d="M 1554.5,251.5 C 1554.03,252.906 1553.03,253.573 1551.5,253.5C 1551.97,252.094 1552.97,251.427 1554.5,251.5 Z"/></g>
<g><path style="opacity:0.322" fill="#202020" d="M 833.5,256.5 C 834.568,257.434 835.901,257.768 837.5,257.5C 835.965,258.788 834.299,258.788 832.5,257.5C 832.624,256.893 832.957,256.56 833.5,256.5 Z"/></g>
<g><path style="opacity:0.998" fill="#5e5e5e" d="M 1445.5,262.5 C 1445.83,262.5 1446.17,262.5 1446.5,262.5C 1447.64,264.213 1449.3,264.88 1451.5,264.5C 1462.47,267.484 1472.8,271.817 1482.5,277.5C 1482.97,278.906 1483.97,279.573 1485.5,279.5C 1489.88,282.241 1489.38,283.574 1484,283.5C 1473.38,282.004 1462.71,281.004 1452,280.5C 1424.83,282.875 1397.67,285.208 1370.5,287.5C 1366.49,287.666 1362.49,287.499 1358.5,287C 1359.06,286.617 1359.39,286.117 1359.5,285.5C 1360.21,284.596 1361.21,284.263 1362.5,284.5C 1365.15,284.59 1367.49,283.924 1369.5,282.5C 1372.15,282.59 1374.49,281.924 1376.5,280.5C 1378.9,280.741 1380.9,280.074 1382.5,278.5C 1388.7,276.66 1395.03,275.327 1401.5,274.5C 1405.84,274.416 1409.84,273.416 1413.5,271.5C 1417.7,270.033 1422.04,269.033 1426.5,268.5C 1430.16,268.277 1433.5,267.277 1436.5,265.5C 1439.88,265.485 1442.88,264.485 1445.5,262.5 Z"/></g>
<g><path style="opacity:0.412" fill="#272727" d="M 1446.5,262.5 C 1448.4,262.796 1450.07,263.463 1451.5,264.5C 1449.3,264.88 1447.64,264.213 1446.5,262.5 Z"/></g>
<g><path style="opacity:0.682" fill="#2b2b2b" d="M 1445.5,262.5 C 1442.88,264.485 1439.88,265.485 1436.5,265.5C 1439.19,264.372 1441.85,263.038 1444.5,261.5C 1445.11,261.624 1445.44,261.957 1445.5,262.5 Z"/></g>
<g><path style="opacity:0.596" fill="#2e2e2e" d="M 1436.5,265.5 C 1433.5,267.277 1430.16,268.277 1426.5,268.5C 1429.45,266.59 1432.79,265.59 1436.5,265.5 Z"/></g>
<g><path style="opacity:0.643" fill="#2e2e2e" d="M 1413.5,271.5 C 1409.84,273.416 1405.84,274.416 1401.5,274.5C 1405.24,272.898 1409.24,271.898 1413.5,271.5 Z"/></g>
<g><path style="opacity:0.008" fill="#131313" d="M 1482.5,277.5 C 1484.03,277.427 1485.03,278.094 1485.5,279.5C 1483.97,279.573 1482.97,278.906 1482.5,277.5 Z"/></g>
<g><path style="opacity:0.71" fill="#292929" d="M 1382.5,278.5 C 1380.9,280.074 1378.9,280.741 1376.5,280.5C 1378.21,279.262 1380.21,278.595 1382.5,278.5 Z"/></g>
<g><path style="opacity:0.698" fill="#343434" d="M 1376.5,280.5 C 1374.49,281.924 1372.15,282.59 1369.5,282.5C 1371.51,281.076 1373.85,280.41 1376.5,280.5 Z"/></g>
<g><path style="opacity:0.999" fill="#5e5e5e" d="M 874.5,289.5 C 874.973,290.906 875.973,291.573 877.5,291.5C 877.833,291.5 878.167,291.5 878.5,291.5C 878.821,293.048 879.821,293.715 881.5,293.5C 883.153,293.66 884.486,294.326 885.5,295.5C 885.973,296.906 886.973,297.573 888.5,297.5C 890.819,297.992 892.819,298.992 894.5,300.5C 894.821,302.048 895.821,302.715 897.5,302.5C 900.004,303.584 902.337,304.917 904.5,306.5C 904.833,307.833 905.167,309.167 905.5,310.5C 903.372,311.629 901.039,311.796 898.5,311C 885.994,307.805 873.327,305.471 860.5,304C 834.155,302.044 807.821,300.044 781.5,298C 780.185,296.605 780.519,295.605 782.5,295C 797.042,291.458 811.708,288.625 826.5,286.5C 829.152,286.59 831.485,285.924 833.5,284.5C 848.185,279.071 861.851,280.738 874.5,289.5 Z"/></g>
<g><path style="opacity:0.592" fill="#2c2c2c" d="M 1369.5,282.5 C 1367.49,283.924 1365.15,284.59 1362.5,284.5C 1364.51,283.076 1366.85,282.41 1369.5,282.5 Z"/></g>
<g><path style="opacity:0.541" fill="#222222" d="M 833.5,284.5 C 831.485,285.924 829.152,286.59 826.5,286.5C 828.515,285.076 830.848,284.41 833.5,284.5 Z"/></g>
<g><path style="opacity:0.888" fill="#393939" d="M 1359.5,285.5 C 1359.39,286.117 1359.06,286.617 1358.5,287C 1362.49,287.499 1366.49,287.666 1370.5,287.5C 1367.04,288.482 1363.37,288.815 1359.5,288.5C 1357.59,288.784 1355.92,288.451 1354.5,287.5C 1355.93,286.463 1357.6,285.796 1359.5,285.5 Z"/></g>
<g><path style="opacity:0.208" fill="#151515" d="M 1354.5,287.5 C 1355.92,288.451 1357.59,288.784 1359.5,288.5C 1357.64,289.793 1355.64,289.793 1353.5,288.5C 1353.62,287.893 1353.96,287.56 1354.5,287.5 Z"/></g>
<g><path style="opacity:0.098" fill="#141414" d="M 874.5,289.5 C 876.027,289.427 877.027,290.094 877.5,291.5C 875.973,291.573 874.973,290.906 874.5,289.5 Z"/></g>
<g><path style="opacity:0.745" fill="#2a2a2a" d="M 878.5,291.5 C 879.71,291.932 880.71,292.599 881.5,293.5C 879.821,293.715 878.821,293.048 878.5,291.5 Z"/></g>
<g><path style="opacity:0.004" fill="#111111" d="M 885.5,295.5 C 887.027,295.427 888.027,296.094 888.5,297.5C 886.973,297.573 885.973,296.906 885.5,295.5 Z"/></g>
<g><path style="opacity:0.835" fill="#303030" d="M 894.5,300.5 C 895.71,300.932 896.71,301.599 897.5,302.5C 895.821,302.715 894.821,302.048 894.5,300.5 Z"/></g>
<g><path style="opacity:0.753" fill="#323232" d="M 904.5,306.5 C 906.519,307.538 906.853,308.872 905.5,310.5C 905.167,309.167 904.833,307.833 904.5,306.5 Z"/></g>
<g><path style="opacity:0.999" fill="#5f5f5f" d="M 1410.5,328.5 C 1410.97,329.906 1411.97,330.573 1413.5,330.5C 1417.33,332.25 1421,334.25 1424.5,336.5C 1424.83,337.5 1425.5,338.167 1426.5,338.5C 1428.44,339.078 1428.78,340.078 1427.5,341.5C 1424.5,342.643 1421.5,342.643 1418.5,341.5C 1415.24,339.432 1411.57,338.432 1407.5,338.5C 1401.08,337.818 1394.75,336.818 1388.5,335.5C 1383.1,333.795 1377.43,333.128 1371.5,333.5C 1349.81,332.401 1328.14,331.067 1306.5,329.5C 1305.74,328.732 1304.74,328.232 1303.5,328C 1303.83,327.667 1304.17,327.333 1304.5,327C 1308.43,326.276 1312.09,325.109 1315.5,323.5C 1329.35,320.198 1343.35,317.531 1357.5,315.5C 1360.15,315.59 1362.49,314.924 1364.5,313.5C 1370.08,311.205 1375.75,311.039 1381.5,313C 1391.54,317.685 1401.21,322.852 1410.5,328.5 Z"/></g>
<g><path style="opacity:0.675" fill="#282828" d="M 1364.5,313.5 C 1362.49,314.924 1360.15,315.59 1357.5,315.5C 1359.51,314.076 1361.85,313.41 1364.5,313.5 Z"/></g>
<g><path style="opacity:0.678" fill="#2d2d2d" d="M 1315.5,323.5 C 1312.09,325.109 1308.43,326.276 1304.5,327C 1304.17,327.333 1303.83,327.667 1303.5,328C 1304.74,328.232 1305.74,328.732 1306.5,329.5C 1305.13,329.657 1303.79,329.49 1302.5,329C 1301.29,328.107 1301.29,327.274 1302.5,326.5C 1306.73,325.026 1311.06,324.026 1315.5,323.5 Z"/></g>
<g><path style="opacity:0.075" fill="#151515" d="M 1410.5,328.5 C 1412.03,328.427 1413.03,329.094 1413.5,330.5C 1411.97,330.573 1410.97,329.906 1410.5,328.5 Z"/></g>
<g><path style="opacity:0.859" fill="#343434" d="M 1371.5,333.5 C 1377.43,333.128 1383.1,333.795 1388.5,335.5C 1382.61,335.55 1376.94,334.884 1371.5,333.5 Z"/></g>
<g><path style="opacity:0.008" fill="#0e0e0e" d="M 1424.5,336.5 C 1425.83,336.5 1426.5,337.167 1426.5,338.5C 1425.5,338.167 1424.83,337.5 1424.5,336.5 Z"/></g>
<g><path style="opacity:0.698" fill="#242424" d="M 1407.5,338.5 C 1411.57,338.432 1415.24,339.432 1418.5,341.5C 1414.6,340.945 1410.94,339.945 1407.5,338.5 Z"/></g>
<g><path style="opacity:0.733" fill="#2f2f2f" d="M 688.5,355.5 C 701.855,354.379 715.188,354.713 728.5,356.5C 715.161,356.34 701.828,356.007 688.5,355.5 Z"/></g>
<g><path style="opacity:0.792" fill="#3f3f3f" d="M 686.5,355.5 C 678.372,357.057 670.039,358.057 661.5,358.5C 669.59,356.614 677.924,355.614 686.5,355.5 Z"/></g>
<g><path style="opacity:1" fill="#666666" d="M 686.5,355.5 C 687.167,355.5 687.833,355.5 688.5,355.5C 701.828,356.007 715.161,356.34 728.5,356.5C 744.045,356.911 759.378,358.911 774.5,362.5C 781.163,365.037 788.163,366.704 795.5,367.5C 800.673,368.594 805.673,369.928 810.5,371.5C 811.6,372.558 812.934,373.392 814.5,374C 813.944,374.383 813.611,374.883 813.5,375.5C 811.14,377.853 808.473,379.853 805.5,381.5C 803.973,381.427 802.973,382.094 802.5,383.5C 801.71,384.794 800.71,385.961 799.5,387C 800.582,388.33 801.249,389.83 801.5,391.5C 801.427,393.027 802.094,394.027 803.5,394.5C 804.674,395.514 805.34,396.847 805.5,398.5C 805.427,400.027 806.094,401.027 807.5,401.5C 808.674,402.514 809.34,403.847 809.5,405.5C 809.674,407.861 810.007,410.194 810.5,412.5C 810.573,414.027 809.906,415.027 808.5,415.5C 807.167,416.167 806.167,417.167 805.5,418.5C 805.167,419.5 804.5,420.167 803.5,420.5C 801.973,420.427 800.973,421.094 800.5,422.5C 798.727,423.892 796.727,425.059 794.5,426C 742.45,434.874 690.117,436.874 637.5,432C 610.806,430.277 584.139,428.443 557.5,426.5C 560.098,422.562 563.098,418.895 566.5,415.5C 569.089,414.581 571.089,412.914 572.5,410.5C 575.764,408.906 578.431,406.573 580.5,403.5C 584.1,401.57 587.1,398.903 589.5,395.5C 593.1,393.57 596.1,390.903 598.5,387.5C 600.749,386.92 602.415,385.587 603.5,383.5C 605.027,383.573 606.027,382.906 606.5,381.5C 607.514,380.326 608.847,379.66 610.5,379.5C 612.027,379.573 613.027,378.906 613.5,377.5C 615.426,375.707 617.759,374.707 620.5,374.5C 622.027,374.573 623.027,373.906 623.5,372.5C 626.088,370.375 629.088,369.042 632.5,368.5C 634.027,368.573 635.027,367.906 635.5,366.5C 638.491,366.834 640.824,365.834 642.5,363.5C 645.916,363.472 648.916,362.472 651.5,360.5C 654.589,359.215 657.922,358.549 661.5,358.5C 670.039,358.057 678.372,357.057 686.5,355.5 Z"/></g>
<g><path style="opacity:0.733" fill="#2f2f2f" d="M 651.5,360.5 C 648.916,362.472 645.916,363.472 642.5,363.5C 645.215,361.928 648.215,360.928 651.5,360.5 Z"/></g>
<g><path style="opacity:0.488" fill="#262626" d="M 774.5,362.5 C 781.762,363.548 788.762,365.215 795.5,367.5C 788.163,366.704 781.163,365.037 774.5,362.5 Z"/></g>
<g><path style="opacity:0.91" fill="#3a3a3a" d="M 642.5,363.5 C 640.824,365.834 638.491,366.834 635.5,366.5C 637.509,364.935 639.843,363.935 642.5,363.5 Z"/></g>
<g><path style="opacity:0.525" fill="#222222" d="M 635.5,366.5 C 635.027,367.906 634.027,368.573 632.5,368.5C 632.973,367.094 633.973,366.427 635.5,366.5 Z"/></g>
<g><path style="opacity:0.518" fill="#2d2d2d" d="M 810.5,371.5 C 812.714,371.291 814.381,372.124 815.5,374C 815.164,375.03 814.497,375.53 813.5,375.5C 813.611,374.883 813.944,374.383 814.5,374C 812.934,373.392 811.6,372.558 810.5,371.5 Z"/></g>
<g><path style="opacity:0.525" fill="#212121" d="M 623.5,372.5 C 623.027,373.906 622.027,374.573 620.5,374.5C 620.973,373.094 621.973,372.427 623.5,372.5 Z"/></g>
<g><path style="opacity:0.639" fill="#282828" d="M 613.5,377.5 C 613.027,378.906 612.027,379.573 610.5,379.5C 610.973,378.094 611.973,377.427 613.5,377.5 Z"/></g>
<g><path style="opacity:0.4" fill="#212121" d="M 606.5,381.5 C 606.027,382.906 605.027,383.573 603.5,383.5C 603.973,382.094 604.973,381.427 606.5,381.5 Z"/></g>
<g><path style="opacity:0.004" fill="#090909" d="M 805.5,381.5 C 805.027,382.906 804.027,383.573 802.5,383.5C 802.973,382.094 803.973,381.427 805.5,381.5 Z"/></g>
<g><path style="opacity:0.733" fill="#2a2a2a" d="M 603.5,383.5 C 602.415,385.587 600.749,386.92 598.5,387.5C 599.585,385.413 601.251,384.08 603.5,383.5 Z"/></g>
<g><path style="opacity:0.77" fill="#484848" d="M 1252.5,387.5 C 1231.15,387.276 1209.82,387.609 1188.5,388.5C 1190.97,387.683 1193.64,387.183 1196.5,387C 1215.34,386.171 1234,386.338 1252.5,387.5 Z"/></g>
<g><path style="opacity:1" fill="#666666" d="M 1252.5,387.5 C 1256.7,387.183 1260.7,387.517 1264.5,388.5C 1268.94,389.801 1273.61,390.468 1278.5,390.5C 1284.54,391.284 1290.54,392.284 1296.5,393.5C 1300.45,395.626 1304.78,396.626 1309.5,396.5C 1313.4,397.055 1317.06,398.055 1320.5,399.5C 1324.16,401.416 1328.16,402.416 1332.5,402.5C 1334.99,402.539 1336.49,403.539 1337,405.5C 1333.01,407.997 1329.18,410.664 1325.5,413.5C 1323.97,413.427 1322.97,414.094 1322.5,415.5C 1322.5,416.167 1322.17,416.5 1321.5,416.5C 1320.07,418.455 1320.4,420.121 1322.5,421.5C 1322.43,423.027 1323.09,424.027 1324.5,424.5C 1326.01,426.181 1327.01,428.181 1327.5,430.5C 1327.43,432.027 1328.09,433.027 1329.5,433.5C 1331.26,435.779 1332.26,438.445 1332.5,441.5C 1332.66,443.355 1331.99,444.688 1330.5,445.5C 1329.09,445.973 1328.43,446.973 1328.5,448.5C 1324.92,452.304 1320.58,455.137 1315.5,457C 1306.6,458.962 1297.6,460.129 1288.5,460.5C 1285.15,460.335 1281.82,460.502 1278.5,461C 1277.26,461.232 1276.26,461.732 1275.5,462.5C 1222.06,466.031 1168.73,465.031 1115.5,459.5C 1103.71,457.884 1091.71,457.217 1079.5,457.5C 1079.17,457.5 1078.83,457.5 1078.5,457.5C 1080.09,454.569 1082.09,451.902 1084.5,449.5C 1085.83,448.833 1086.83,447.833 1087.5,446.5C 1089.75,445.92 1091.42,444.587 1092.5,442.5C 1095.76,440.906 1098.43,438.573 1100.5,435.5C 1104.1,433.57 1107.1,430.903 1109.5,427.5C 1112.43,426.243 1114.76,424.243 1116.5,421.5C 1116.86,419.81 1117.86,418.81 1119.5,418.5C 1121.03,418.573 1122.03,417.906 1122.5,416.5C 1124.75,415.92 1126.42,414.587 1127.5,412.5C 1128.51,411.326 1129.85,410.66 1131.5,410.5C 1133.03,410.573 1134.03,409.906 1134.5,408.5C 1137.98,406.597 1141.65,404.93 1145.5,403.5C 1147.03,403.573 1148.03,402.906 1148.5,401.5C 1150.7,401.88 1152.36,401.213 1153.5,399.5C 1154.51,398.326 1155.85,397.66 1157.5,397.5C 1159.15,397.34 1160.49,396.674 1161.5,395.5C 1164.86,395.31 1167.86,394.31 1170.5,392.5C 1172.9,392.741 1174.9,392.074 1176.5,390.5C 1179.19,390.664 1181.85,390.497 1184.5,390C 1185.42,389.722 1186.08,389.222 1186.5,388.5C 1187.17,388.5 1187.83,388.5 1188.5,388.5C 1209.82,387.609 1231.15,387.276 1252.5,387.5 Z"/></g>
<g><path style="opacity:0.259" fill="#2a2a2a" d="M 1264.5,388.5 C 1269.41,388.362 1274.08,389.028 1278.5,390.5C 1273.61,390.468 1268.94,389.801 1264.5,388.5 Z"/></g>
<g><path style="opacity:0.898" fill="#343434" d="M 1186.5,388.5 C 1186.08,389.222 1185.42,389.722 1184.5,390C 1181.85,390.497 1179.19,390.664 1176.5,390.5C 1179.63,389.419 1182.96,388.753 1186.5,388.5 Z"/></g>
<g><path style="opacity:0.741" fill="#2f2f2f" d="M 1176.5,390.5 C 1174.9,392.074 1172.9,392.741 1170.5,392.5C 1172.21,391.262 1174.21,390.595 1176.5,390.5 Z"/></g>
<g><path style="opacity:0.208" fill="#171717" d="M 801.5,391.5 C 802.906,391.973 803.573,392.973 803.5,394.5C 802.094,394.027 801.427,393.027 801.5,391.5 Z"/></g>
<g><path style="opacity:0.682" fill="#323232" d="M 1170.5,392.5 C 1167.86,394.31 1164.86,395.31 1161.5,395.5C 1164.08,393.528 1167.08,392.528 1170.5,392.5 Z"/></g>
<g><path style="opacity:0.843" fill="#383838" d="M 598.5,387.5 C 596.1,390.903 593.1,393.57 589.5,395.5C 591.9,392.097 594.9,389.43 598.5,387.5 Z"/></g>
<g><path style="opacity:0.545" fill="#242424" d="M 1296.5,393.5 C 1301.03,394.137 1305.37,395.137 1309.5,396.5C 1304.78,396.626 1300.45,395.626 1296.5,393.5 Z"/></g>
<g><path style="opacity:0.459" fill="#212121" d="M 1161.5,395.5 C 1160.49,396.674 1159.15,397.34 1157.5,397.5C 1158.29,395.896 1159.62,395.229 1161.5,395.5 Z"/></g>
<g><path style="opacity:0.514" fill="#2d2d2d" d="M 589.5,395.5 C 587.1,398.903 584.1,401.57 580.5,403.5C 582.9,400.097 585.9,397.43 589.5,395.5 Z"/></g>
<g><path style="opacity:0.029" fill="#191919" d="M 1320.5,399.5 C 1324.76,399.898 1328.76,400.898 1332.5,402.5C 1328.16,402.416 1324.16,401.416 1320.5,399.5 Z"/></g>
<g><path style="opacity:0.235" fill="#1f1f1f" d="M 805.5,398.5 C 806.906,398.973 807.573,399.973 807.5,401.5C 806.094,401.027 805.427,400.027 805.5,398.5 Z"/></g>
<g><path style="opacity:0.827" fill="#323232" d="M 1153.5,399.5 C 1152.36,401.213 1150.7,401.88 1148.5,401.5C 1149.93,400.463 1151.6,399.796 1153.5,399.5 Z"/></g>
<g><path style="opacity:0.412" fill="#1b1b1b" d="M 1148.5,401.5 C 1148.03,402.906 1147.03,403.573 1145.5,403.5C 1145.97,402.094 1146.97,401.427 1148.5,401.5 Z"/></g>
<g><path style="opacity:0.71" fill="#333333" d="M 580.5,403.5 C 578.431,406.573 575.764,408.906 572.5,410.5C 574.569,407.427 577.236,405.094 580.5,403.5 Z"/></g>
<g><path style="opacity:0.102" fill="#2c2c2c" d="M 809.5,405.5 C 811.312,407.713 811.645,410.047 810.5,412.5C 810.007,410.194 809.674,407.861 809.5,405.5 Z"/></g>
<g><path style="opacity:0.529" fill="#1f1f1f" d="M 1134.5,408.5 C 1134.03,409.906 1133.03,410.573 1131.5,410.5C 1131.97,409.094 1132.97,408.427 1134.5,408.5 Z"/></g>
<g><path style="opacity:0.718" fill="#323232" d="M 572.5,410.5 C 571.089,412.914 569.089,414.581 566.5,415.5C 567.911,413.086 569.911,411.419 572.5,410.5 Z"/></g>
<g><path style="opacity:0.008" fill="#0d0d0d" d="M 1325.5,413.5 C 1325.03,414.906 1324.03,415.573 1322.5,415.5C 1322.97,414.094 1323.97,413.427 1325.5,413.5 Z"/></g>
<g><path style="opacity:0.745" fill="#2c2c2c" d="M 1127.5,412.5 C 1126.42,414.587 1124.75,415.92 1122.5,416.5C 1123.58,414.413 1125.25,413.08 1127.5,412.5 Z"/></g>
<g><path style="opacity:0.012" fill="#101010" d="M 808.5,415.5 C 808.5,417.5 807.5,418.5 805.5,418.5C 806.167,417.167 807.167,416.167 808.5,415.5 Z"/></g>
<g><path style="opacity:0.557" fill="#2b2b2b" d="M 1122.5,416.5 C 1122.03,417.906 1121.03,418.573 1119.5,418.5C 1119.97,417.094 1120.97,416.427 1122.5,416.5 Z"/></g>
<g><path style="opacity:0.757" fill="#2e2e2e" d="M 1321.5,416.5 C 1321.63,418.216 1321.96,419.883 1322.5,421.5C 1320.4,420.121 1320.07,418.455 1321.5,416.5 Z"/></g>
<g><path style="opacity:0.004" fill="#0b0b0b" d="M 803.5,420.5 C 803.027,421.906 802.027,422.573 800.5,422.5C 800.973,421.094 801.973,420.427 803.5,420.5 Z"/></g>
<g><path style="opacity:0.094" fill="#121212" d="M 1322.5,421.5 C 1323.91,421.973 1324.57,422.973 1324.5,424.5C 1323.09,424.027 1322.43,423.027 1322.5,421.5 Z"/></g>
<g><path style="opacity:0.602" fill="#2c2c2c" d="M 566.5,415.5 C 563.098,418.895 560.098,422.562 557.5,426.5C 555.972,426.483 555.472,425.816 556,424.5C 559.098,420.893 562.598,417.893 566.5,415.5 Z"/></g>
<g><path style="opacity:0.612" fill="#303030" d="M 1116.5,421.5 C 1114.76,424.243 1112.43,426.243 1109.5,427.5C 1111.24,424.757 1113.57,422.757 1116.5,421.5 Z"/></g>
<g><path style="opacity:0.51" fill="#282828" d="M 1109.5,427.5 C 1107.1,430.903 1104.1,433.57 1100.5,435.5C 1102.9,432.097 1105.9,429.43 1109.5,427.5 Z"/></g>
<g><path style="opacity:0.212" fill="#181818" d="M 1327.5,430.5 C 1328.91,430.973 1329.57,431.973 1329.5,433.5C 1328.09,433.027 1327.43,432.027 1327.5,430.5 Z"/></g>
<g><path style="opacity:0.549" fill="#2a2a2a" d="M 1100.5,435.5 C 1098.43,438.573 1095.76,440.906 1092.5,442.5C 1094.57,439.427 1097.24,437.094 1100.5,435.5 Z"/></g>
<g><path style="opacity:0.639" fill="#2c2c2c" d="M 1092.5,442.5 C 1091.42,444.587 1089.75,445.92 1087.5,446.5C 1088.58,444.413 1090.25,443.08 1092.5,442.5 Z"/></g>
<g><path style="opacity:0.02" fill="#181818" d="M 1330.5,445.5 C 1330.57,447.027 1329.91,448.027 1328.5,448.5C 1328.43,446.973 1329.09,445.973 1330.5,445.5 Z"/></g>
<g><path style="opacity:0.22" fill="#101010" d="M 1087.5,446.5 C 1086.83,447.833 1085.83,448.833 1084.5,449.5C 1084.5,447.5 1085.5,446.5 1087.5,446.5 Z"/></g>
<g><path style="opacity:0.443" fill="#232323" d="M 1084.5,449.5 C 1082.09,451.902 1080.09,454.569 1078.5,457.5C 1077.43,456.749 1077.26,455.749 1078,454.5C 1079.78,452.21 1081.94,450.543 1084.5,449.5 Z"/></g>
<g><path style="opacity:0.787" fill="#3d3d3d" d="M 1079.5,457.5 C 1091.71,457.217 1103.71,457.884 1115.5,459.5C 1103.3,459.624 1091.3,458.958 1079.5,457.5 Z"/></g>
<g><path style="opacity:0.488" fill="#2d2d2d" d="M 1288.5,460.5 C 1284.34,461.449 1280.01,462.116 1275.5,462.5C 1276.26,461.732 1277.26,461.232 1278.5,461C 1281.82,460.502 1285.15,460.335 1288.5,460.5 Z"/></g>
</svg>
