<?xml version="1.0" standalone="yes"?>
<svg xmlns="http://www.w3.org/2000/svg" width="2118" height="1206">
<path style="fill:#ffffff; stroke:none;" d="M0 0L0 1206L2118 1206L2118 0L0 0z"/>
<path style="fill:#040404; stroke:none;" d="M1052 250.444C1046.51 251.415 1034.13 265.671 1039.62 271.143C1045.35 276.862 1063.16 277.097 1071 280.204C1077.63 282.831 1087.31 286.809 1091.29 293.09C1095.1 299.101 1086.59 306.545 1081 307.177C1067.96 308.652 1050.63 299.283 1038 296.127C1033.94 295.112 1026.33 291.813 1022.38 294.067C1018.62 296.211 1016.61 302.397 1014.58 306C1012.98 308.828 1010.98 311.737 1010.41 314.996C1009.4 320.711 1015.03 323.459 1019 326.291C1028.44 333.023 1038.25 339.673 1047 347.289C1050.06 349.949 1058.75 356.39 1056.04 361.242C1044.61 381.725 1021.94 357.34 1012 349.081C1009.03 346.613 1002.8 339.856 998.394 342.133C994.169 344.313 992.245 353.856 990.601 358C989.004 362.027 986.732 366.634 986.384 371C985.925 376.765 992.065 381.239 996 384.561C1007.4 394.181 1019.24 403.401 1031 412.576C1078.35 449.528 1122.77 483.552 1158.14 533C1168.06 546.872 1176.91 561.344 1185.6 576C1188.24 580.444 1191.59 589.48 1198 588.471C1206.83 587.082 1216.4 581.472 1225 578.67C1229.12 577.326 1235.08 577.078 1238.68 574.686C1241.71 572.678 1241.52 567.877 1244.15 565.21C1251.8 557.451 1261.79 550.594 1270 543.17C1274.98 538.662 1290.63 530.417 1292.25 523.997C1293.31 519.769 1282.46 511.341 1280.53 507C1276.06 496.922 1277.42 483.38 1280.16 473C1283.88 458.882 1291.03 446.004 1299.19 434C1302.42 429.253 1309.44 422.287 1307.24 416C1305.14 409.975 1298.41 404.699 1294.28 400C1283.05 387.188 1271.08 375.024 1259 363.001C1221.13 325.314 1178.18 291.221 1130 267.742C1107.29 256.675 1077.78 245.883 1052 250.444z"/>
<path style="fill:#1d1d1d; stroke:none;" d="M1053 251L1053 252L1068 252L1053 251M1048 252L1047 254L1048 252z"/>
<path style="fill:#333333; stroke:none;" d="M1039 270C1053.39 275.398 1068.07 276.361 1082 283.782C1086.37 286.112 1093.92 290.313 1094.17 296C1094.47 302.879 1085.16 309.134 1079 308.786C1061.17 307.779 1040.26 298.852 1023 294L1011 319C1025.1 327.034 1045.69 339.733 1055.21 353.004C1062.13 362.645 1049.24 372.355 1039.42 370.922C1024.45 368.738 1012.31 348.631 999 342C995.989 349.338 984.998 366.18 988.272 374C990.748 379.913 998.246 384.135 1003 388.081C1015.11 398.136 1027.58 407.75 1040 417.424C1079.62 448.292 1117.39 476.831 1148.35 517C1160.66 532.965 1171.83 549.723 1182.2 567C1185.29 572.157 1189.87 584.737 1196.04 586.582C1201.47 588.204 1213.58 580.807 1219 579C1224.24 577.252 1232.13 576.667 1236.69 573.686C1240.01 571.516 1240.18 566.313 1243.21 563.529C1258.17 549.784 1275.08 535.417 1292 524C1287.11 517.932 1281.37 513.583 1278.47 506C1271.52 487.841 1280.13 465.128 1288.25 449C1292.14 441.264 1297.14 434.14 1302.02 427C1304 424.107 1307.17 420.783 1305.95 417C1303.84 410.425 1295.67 403.982 1291.09 399C1280.05 386.997 1269.24 374.509 1257 363.714C1214.54 326.26 1173.85 288.017 1121 265.281C1103.4 257.71 1085.3 252 1066 252C1061.12 252 1053.5 250.589 1049.1 253.028C1043.98 255.87 1041.15 264.845 1039 270z"/>
<path style="fill:#1d1d1d; stroke:none;" d="M1077 252L1077 253L1080 253L1077 252M1084.67 253.333L1085.33 253.667L1084.67 253.333M1089 254L1090 255L1089 254M1093 255L1094 256L1093 255M1097 256L1098 257L1097 256M1100 257L1101 258L1100 257M1044 258L1045 259L1044 258M1103 258L1104 259L1103 258M1106 259L1107 260L1106 259M1043 260L1044 261L1043 260M1109 260L1110 261L1109 260M1111 261L1112 262L1111 261M1042 262L1043 263L1042 262M1114 262L1115 263L1114 262M1116 263L1117 264L1116 263M1041 264L1042 265L1041 264M1119 264L1120 265L1119 264M1121 265L1122 266L1121 265z"/>
<path style="fill:#040404; stroke:none;" d="M1827 945C1885.33 945 1943.9 936.756 2002 932.086C2018.01 930.799 2034.1 929.071 2050 926.728C2056.35 925.792 2064.86 925.326 2069.72 920.606C2077.17 913.374 2075 894.578 2075 885C2075 853.223 2074.43 821.671 2073.04 790C2071.87 763.257 2068.83 736.645 2066.17 710C2064.93 697.587 2065.23 682.792 2060.87 671C2056.82 660.057 2047.45 649.681 2041 640L2000.33 579C1952.82 507.728 1906.31 435.62 1844 376.039C1800.73 334.663 1750.67 292.06 1693 272.667C1678.69 267.856 1664.12 265.001 1649 265C1643.87 265 1636.66 263.764 1632.53 267.514C1629.76 270.032 1621.01 283.667 1624.65 286.987C1627.44 289.538 1634.42 289.237 1638 290.015C1646.94 291.953 1655.94 294.964 1664 299.309C1669.26 302.146 1680.1 307.665 1675.83 314.985C1669.9 325.174 1658.99 321.201 1650 318.576C1640.29 315.739 1617.81 304.533 1608.19 310.028C1604.46 312.152 1602.44 317.424 1600.42 321C1598.72 324.014 1596.5 327.451 1596.27 331C1595.91 336.467 1601.17 339.351 1605 342.151C1614.11 348.817 1623.29 355.422 1632 362.615C1635.3 365.343 1642.79 370.759 1640.69 375.895C1636.09 387.13 1621.89 383.598 1615 378.346C1607.79 372.852 1601.1 366.726 1594 361.1C1591.41 359.05 1587.72 356.073 1584.27 358.046C1579.86 360.574 1577.78 369.542 1576 374C1574.31 378.226 1571.64 383.312 1572.27 388C1573.11 394.259 1580.5 398.56 1585 402.197C1597.59 412.375 1610.23 422.473 1623 432.424C1669.05 468.301 1711.25 501.969 1745.57 550C1807.38 636.5 1842.26 746.762 1841 853C1840.75 873.69 1837.86 894.708 1833.8 915C1831.83 924.838 1827.46 935.024 1827 945z"/>
<path style="fill:#1d1d1d; stroke:none;" d="M1040 266L1041 267L1040 266M1123 266L1124 267L1123 266M1637 266L1638 267L1637 266z"/>
<path style="fill:#454545; stroke:none;" d="M1638 266L1638 267L1655 267L1638 266z"/>
<path style="fill:#333333; stroke:none;" d="M1625 287C1640.13 286.248 1658.1 292.734 1670.58 301.04C1680.01 307.318 1681.89 316.903 1670.17 322.552C1664.01 325.519 1656.02 322.262 1650 320.389C1636.58 316.21 1623.01 311.427 1609 310L1597 334C1610.74 343.528 1631.63 355.024 1641.16 368.964C1647.5 378.244 1632.03 387.766 1623.67 385.871C1608.49 382.434 1599.48 363.353 1585 358C1581.89 365.43 1571.39 380.831 1574.33 388.996C1576.26 394.358 1583.75 398.64 1588.01 402.119C1599.55 411.544 1611.14 420.861 1622.98 429.908C1662.46 460.087 1700.29 488.87 1731.48 528.08C1797.1 610.563 1837.62 718.672 1841.59 824C1843.09 863.511 1841.54 905.429 1828 943C1836.61 944.866 1846.24 942.539 1855 942.325C1878.01 941.761 1900.99 938.8 1924 937.424C1959.69 935.29 1995.48 931.632 2031 927.59C2040.79 926.476 2060.89 926.926 2068.2 919.49C2076.35 911.203 2073 893.431 2073 883C2073 850.537 2072.91 818.421 2071.24 786C2070.06 762.938 2067.34 740.024 2065.49 717C2064.39 703.386 2064.47 685.896 2059.93 673C2056.09 662.122 2046.38 651.571 2040 642C2026.28 621.413 2012.72 600.711 1999 580.127C1946.75 501.751 1894.85 426.267 1825.71 361.615C1787.02 325.432 1737.16 285.537 1684.87 271.702C1672.47 268.42 1660.79 266.849 1648 266.996C1644.06 267.042 1637.93 265.858 1634.49 268.179C1629.58 271.497 1625.99 281.426 1625 287z"/>
<path style="fill:#1d1d1d; stroke:none;" d="M1657 266L1658 267L1657 266z"/>
<path style="fill:#454545; stroke:none;" d="M1634 267L1635 268L1634 267M1663 267L1663 268L1667 268L1663 267z"/>
<path style="fill:#1d1d1d; stroke:none;" d="M1667 267L1668 268L1667 267M1039 268L1040 269L1039 268z"/>
<path style="fill:#454545; stroke:none;" d="M1671 268L1672 269L1671 268z"/>
<path style="fill:#1d1d1d; stroke:none;" d="M1130 269L1131 270L1130 269z"/>
<path style="fill:#454545; stroke:none;" d="M1675.67 269.333L1676.33 269.667L1675.67 269.333z"/>
<path style="fill:#1d1d1d; stroke:none;" d="M1677 269L1678 270L1677 269M1132 270L1133 271L1132 270z"/>
<path style="fill:#454545; stroke:none;" d="M1632 270L1633 271L1632 270M1679.67 270.333L1680.33 270.667L1679.67 270.333z"/>
<path style="fill:#1d1d1d; stroke:none;" d="M1043 271L1044 272L1043 271M1134 271L1135 272L1134 271M1631 271L1632 272L1631 271z"/>
<path style="fill:#454545; stroke:none;" d="M1683 271L1684 272L1683 271z"/>
<path style="fill:#1d1d1d; stroke:none;" d="M1047.67 272.333L1048.33 272.667L1047.67 272.333M1136 272L1137 273L1136 272z"/>
<path style="fill:#454545; stroke:none;" d="M1631 272L1632 273L1631 272M1686 272L1687 273L1686 272z"/>
<path style="fill:#1d1d1d; stroke:none;" d="M1053 273L1054 274L1053 273M1630 273L1631 274L1630 273z"/>
<path style="fill:#454545; stroke:none;" d="M1689 273L1690 274L1689 273z"/>
<path style="fill:#1d1d1d; stroke:none;" d="M1057.67 274.333L1058.33 274.667L1057.67 274.333z"/>
<path style="fill:#454545; stroke:none;" d="M1692 274L1693 275L1692 274z"/>
<path style="fill:#1d1d1d; stroke:none;" d="M1061 275L1062 276L1061 275z"/>
<path style="fill:#454545; stroke:none;" d="M1695 275L1696 276L1695 275z"/>
<path style="fill:#1d1d1d; stroke:none;" d="M1696 275L1697 276L1696 275M1065 276L1066 277L1065 276M1143 276L1144 277L1143 276z"/>
<path style="fill:#454545; stroke:none;" d="M1698 276L1699 277L1698 276z"/>
<path style="fill:#1d1d1d; stroke:none;" d="M1068 277L1069 278L1068 277M1145 277L1146 278L1145 277z"/>
<path style="fill:#454545; stroke:none;" d="M1628 277L1629 278L1628 277M1700 277L1701 278L1700 277z"/>
<path style="fill:#1d1d1d; stroke:none;" d="M1701 277L1702 278L1701 277M1070 278L1071 279L1070 278M1147 278L1148 279L1147 278z"/>
<path style="fill:#454545; stroke:none;" d="M1703 278L1704 279L1703 278z"/>
<path style="fill:#1d1d1d; stroke:none;" d="M1073 279L1074 280L1073 279z"/>
<path style="fill:#454545; stroke:none;" d="M1627 279L1628 280L1627 279M1705 279L1706 280L1705 279z"/>
<path style="fill:#1d1d1d; stroke:none;" d="M1706 279L1707 280L1706 279M1075 280L1076 281L1075 280z"/>
<path style="fill:#454545; stroke:none;" d="M1707 280L1708 281L1707 280z"/>
<path style="fill:#1d1d1d; stroke:none;" d="M1152 281L1153 282L1152 281z"/>
<path style="fill:#454545; stroke:none;" d="M1626 281L1627 282L1626 281M1710 281L1711 282L1710 281z"/>
<path style="fill:#1d1d1d; stroke:none;" d="M1154 282L1155 283L1154 282z"/>
<path style="fill:#454545; stroke:none;" d="M1712 282L1713 283L1712 282M1625 283L1626 284L1625 283M1714 283L1715 284L1714 283z"/>
<path style="fill:#1d1d1d; stroke:none;" d="M1083 284L1084 285L1083 284M1157 284L1158 285L1157 284z"/>
<path style="fill:#454545; stroke:none;" d="M1716 284L1717 285L1716 284z"/>
<path style="fill:#1d1d1d; stroke:none;" d="M1717 284L1718 285L1717 284M1085 285L1086 286L1085 285M1159 285L1160 286L1159 285z"/>
<path style="fill:#454545; stroke:none;" d="M1624 285L1625 286L1624 285M1718 285L1719 286L1718 285z"/>
<path style="fill:#1d1d1d; stroke:none;" d="M1719 285L1720 286L1719 285z"/>
<path style="fill:#454545; stroke:none;" d="M1626.67 286.333L1627.33 286.667L1626.67 286.333M1720 286L1721 287L1720 286z"/>
<path style="fill:#1d1d1d; stroke:none;" d="M1721 286L1722 287L1721 286M1088 287L1089 288L1088 287M1162 287L1163 288L1162 287M1631 287L1632 288L1631 287z"/>
<path style="fill:#454545; stroke:none;" d="M1632.67 287.333L1633.33 287.667L1632.67 287.333M1722 287L1723 288L1722 287z"/>
<path style="fill:#1d1d1d; stroke:none;" d="M1723 287L1724 288L1723 287M1089 288L1090 289L1089 288z"/>
<path style="fill:#454545; stroke:none;" d="M1638.67 288.333L1639.33 288.667L1638.67 288.333M1724 288L1725 289L1724 288z"/>
<path style="fill:#1d1d1d; stroke:none;" d="M1165 289L1166 290L1165 289M1641 289L1642 290L1641 289z"/>
<path style="fill:#454545; stroke:none;" d="M1642.67 289.333L1643.33 289.667L1642.67 289.333M1726 289L1727 290L1726 289z"/>
<path style="fill:#1d1d1d; stroke:none;" d="M1645 290L1646 291L1645 290z"/>
<path style="fill:#454545; stroke:none;" d="M1646.67 290.333L1647.33 290.667L1646.67 290.333M1728 290L1729 291L1728 290z"/>
<path style="fill:#1d1d1d; stroke:none;" d="M1092 291L1093 292L1092 291z"/>
<path style="fill:#454545; stroke:none;" d="M1649.67 291.333L1650.33 291.667L1649.67 291.333M1730 291L1731 292L1730 291z"/>
<path style="fill:#1d1d1d; stroke:none;" d="M1093 292L1094 293L1093 292M1170 292L1171 293L1170 292z"/>
<path style="fill:#454545; stroke:none;" d="M1652.67 292.333L1653.33 292.667L1652.67 292.333M1655 293L1656 294L1655 293M1733 293L1734 294L1733 293z"/>
<path style="fill:#1d1d1d; stroke:none;" d="M1734 293L1735 294L1734 293M1024 294L1025 295L1024 294M1173 294L1174 295L1173 294M1657 294L1658 295L1657 294z"/>
<path style="fill:#454545; stroke:none;" d="M1658 294L1659 295L1658 294M1735 294L1736 295L1735 294z"/>
<path style="fill:#1d1d1d; stroke:none;" d="M1022 295L1023 296L1022 295M1028.67 295.333L1029.33 295.667L1028.67 295.333z"/>
<path style="fill:#454545; stroke:none;" d="M1660 295L1661 296L1660 295M1737 295L1738 296L1737 295z"/>
<path style="fill:#1d1d1d; stroke:none;" d="M1033 296L1034 297L1033 296M1176 296L1177 297L1176 296z"/>
<path style="fill:#454545; stroke:none;" d="M1662 296L1663 297L1662 296z"/>
<path style="fill:#1d1d1d; stroke:none;" d="M1037 297L1038 298L1037 297M1177 297L1178 298L1177 297z"/>
<path style="fill:#454545; stroke:none;" d="M1664 297L1665 298L1664 297M1740 297L1741 298L1740 297z"/>
<path style="fill:#1d1d1d; stroke:none;" d="M1041 298L1042 299L1041 298z"/>
<path style="fill:#454545; stroke:none;" d="M1742 298L1743 299L1742 298z"/>
<path style="fill:#1d1d1d; stroke:none;" d="M1045 299L1046 300L1045 299M1093 299L1094 300L1093 299M1180 299L1181 300L1180 299z"/>
<path style="fill:#454545; stroke:none;" d="M1668 299L1669 300L1668 299z"/>
<path style="fill:#1d1d1d; stroke:none;" d="M1019 300L1020 301L1019 300M1048 300L1049 301L1048 300M1669 300L1670 301L1669 300z"/>
<path style="fill:#454545; stroke:none;" d="M1670 300L1671 301L1670 300M1745 300L1746 301L1745 300z"/>
<path style="fill:#1d1d1d; stroke:none;" d="M1051 301L1052 302L1051 301M1092 301L1093 302L1092 301M1183 301L1184 302L1183 301z"/>
<path style="fill:#454545; stroke:none;" d="M1747 301L1748 302L1747 301z"/>
<path style="fill:#1d1d1d; stroke:none;" d="M1018 302L1019 303L1018 302M1055 302L1056 303L1055 302M1672 302L1673 303L1672 302M1749 302L1750 303L1749 302M1058 303L1059 304L1058 303M1186 303L1187 304L1186 303z"/>
<path style="fill:#454545; stroke:none;" d="M1674 303L1675 304L1674 303M1750 303L1751 304L1750 303z"/>
<path style="fill:#1d1d1d; stroke:none;" d="M1017 304L1018 305L1017 304M1061 304L1062 305L1061 304M1187 304L1188 305L1187 304z"/>
<path style="fill:#454545; stroke:none;" d="M1675 304L1676 305L1675 304z"/>
<path style="fill:#1d1d1d; stroke:none;" d="M1065 305L1066 306L1065 305z"/>
<path style="fill:#454545; stroke:none;" d="M1676 305L1677 306L1676 305M1753 305L1754 306L1753 305z"/>
<path style="fill:#1d1d1d; stroke:none;" d="M1068 306L1069 307L1068 306M1190 306L1191 307L1190 306z"/>
<path style="fill:#454545; stroke:none;" d="M1677 306L1678 307L1677 306z"/>
<path style="fill:#1d1d1d; stroke:none;" d="M1072 307L1073 308L1072 307M1086 307L1087 308L1086 307z"/>
<path style="fill:#454545; stroke:none;" d="M1678 307L1679 308L1678 307M1756 307L1757 308L1756 307z"/>
<path style="fill:#1d1d1d; stroke:none;" d="M1076.67 308.333L1077.33 308.667L1076.67 308.333M1083 308L1084 309L1083 308M1014 309L1015 310L1014 309M1194 309L1195 310L1194 309M1679 309L1680 310L1679 309z"/>
<path style="fill:#454545; stroke:none;" d="M1759 309L1760 310L1759 309M1610 310L1611 311L1610 310M1613.67 310.333L1614.33 310.667L1613.67 310.333z"/>
<path style="fill:#1d1d1d; stroke:none;" d="M1013 311L1014 312L1013 311z"/>
<path style="fill:#454545; stroke:none;" d="M1618.67 311.333L1619.33 311.667L1618.67 311.333z"/>
<path style="fill:#1d1d1d; stroke:none;" d="M1620 311L1621 312L1620 311z"/>
<path style="fill:#454545; stroke:none;" d="M1762 311L1763 312L1762 311z"/>
<path style="fill:#1d1d1d; stroke:none;" d="M1198 312L1199 313L1198 312M1607 312L1608 313L1607 312z"/>
<path style="fill:#454545; stroke:none;" d="M1622.67 312.333L1623.33 312.667L1622.67 312.333z"/>
<path style="fill:#1d1d1d; stroke:none;" d="M1624 312L1625 313L1624 312z"/>
<path style="fill:#454545; stroke:none;" d="M1679 312L1680 313L1679 312z"/>
<path style="fill:#1d1d1d; stroke:none;" d="M1012 313L1013 314L1012 313z"/>
<path style="fill:#454545; stroke:none;" d="M1626 313L1627 314L1626 313M1765 313L1766 314L1765 313M1606 314L1607 315L1606 314M1630 314L1631 315L1630 314z"/>
<path style="fill:#1d1d1d; stroke:none;" d="M1631 314L1632 315L1631 314z"/>
<path style="fill:#454545; stroke:none;" d="M1678 314L1679 315L1678 314z"/>
<path style="fill:#1d1d1d; stroke:none;" d="M1767 314L1768 315L1767 314M1011 315L1012 316L1011 315M1202 315L1203 316L1202 315M1605 315L1606 316L1605 315z"/>
<path style="fill:#454545; stroke:none;" d="M1633 315L1634 316L1633 315M1768 315L1769 316L1768 315z"/>
<path style="fill:#1d1d1d; stroke:none;" d="M1203 316L1204 317L1203 316z"/>
<path style="fill:#454545; stroke:none;" d="M1636.67 316.333L1637.33 316.667L1636.67 316.333M1677 316L1678 317L1677 316M1769 316L1770 317L1769 316z"/>
<path style="fill:#1d1d1d; stroke:none;" d="M1770 316L1771 317L1770 316z"/>
<path style="fill:#454545; stroke:none;" d="M1640 317L1641 318L1640 317z"/>
<path style="fill:#1d1d1d; stroke:none;" d="M1641 317L1642 318L1641 317z"/>
<path style="fill:#454545; stroke:none;" d="M1643 318L1644 319L1643 318M1772 318L1773 319L1772 318z"/>
<path style="fill:#1d1d1d; stroke:none;" d="M1012 319L1013 320L1012 319M1207 319L1208 320L1207 319z"/>
<path style="fill:#454545; stroke:none;" d="M1603 319L1604 320L1603 319M1646.67 319.333L1647.33 319.667L1646.67 319.333z"/>
<path style="fill:#1d1d1d; stroke:none;" d="M1774 319L1775 320L1774 319M1208 320L1209 321L1208 320z"/>
<path style="fill:#454545; stroke:none;" d="M1650 320L1651 321L1650 320z"/>
<path style="fill:#1d1d1d; stroke:none;" d="M1651 320L1652 321L1651 320z"/>
<path style="fill:#454545; stroke:none;" d="M1775 320L1776 321L1775 320z"/>
<path style="fill:#1d1d1d; stroke:none;" d="M1015 321L1016 322L1015 321z"/>
<path style="fill:#454545; stroke:none;" d="M1602 321L1603 322L1602 321M1653.67 321.333L1654.33 321.667L1653.67 321.333z"/>
<path style="fill:#1d1d1d; stroke:none;" d="M1672 321L1673 322L1672 321z"/>
<path style="fill:#454545; stroke:none;" d="M1776 321L1777 322L1776 321z"/>
<path style="fill:#1d1d1d; stroke:none;" d="M1601 322L1602 323L1601 322z"/>
<path style="fill:#454545; stroke:none;" d="M1657.67 322.333L1658.33 322.667L1657.67 322.333z"/>
<path style="fill:#1d1d1d; stroke:none;" d="M1670 322L1671 323L1670 322z"/>
<path style="fill:#454545; stroke:none;" d="M1671 322L1672 323L1671 322z"/>
<path style="fill:#1d1d1d; stroke:none;" d="M1778 322L1779 323L1778 322z"/>
<path style="fill:#454545; stroke:none;" d="M1601 323L1602 324L1601 323M1661 323L1661 324L1664 324L1661 323z"/>
<path style="fill:#1d1d1d; stroke:none;" d="M1664 323L1665 324L1664 323M1666 323L1667 324L1666 323z"/>
<path style="fill:#454545; stroke:none;" d="M1668 323L1669 324L1668 323M1779 323L1780 324L1779 323z"/>
<path style="fill:#1d1d1d; stroke:none;" d="M1019 324L1020 325L1019 324M1213 324L1214 325L1213 324M1600 324L1601 325L1600 324z"/>
<path style="fill:#454545; stroke:none;" d="M1780 324L1781 325L1780 324z"/>
<path style="fill:#1d1d1d; stroke:none;" d="M1214 325L1215 326L1214 325z"/>
<path style="fill:#454545; stroke:none;" d="M1600 325L1601 326L1600 325z"/>
<path style="fill:#1d1d1d; stroke:none;" d="M1782 325L1783 326L1782 325M1022 326L1023 327L1022 326M1599 326L1600 327L1599 326z"/>
<path style="fill:#454545; stroke:none;" d="M1783 326L1784 327L1783 326M1599 327L1600 328L1599 327M1784 327L1785 328L1784 327z"/>
<path style="fill:#1d1d1d; stroke:none;" d="M1218 328L1219 329L1218 328M1598 328L1599 329L1598 328M1786 328L1787 329L1786 328M1026 329L1027 330L1026 329M1219 329L1220 330L1219 329z"/>
<path style="fill:#454545; stroke:none;" d="M1598 329L1599 330L1598 329M1787 329L1788 330L1787 329z"/>
<path style="fill:#1d1d1d; stroke:none;" d="M1220 330L1221 331L1220 330M1597 330L1598 331L1597 330z"/>
<path style="fill:#454545; stroke:none;" d="M1788 330L1789 331L1788 330M1597 331L1598 332L1597 331z"/>
<path style="fill:#1d1d1d; stroke:none;" d="M1030 332L1031 333L1030 332M1791 332L1792 333L1791 332z"/>
<path style="fill:#454545; stroke:none;" d="M1792 333L1793 334L1792 333z"/>
<path style="fill:#1d1d1d; stroke:none;" d="M1033 334L1034 335L1033 334z"/>
<path style="fill:#454545; stroke:none;" d="M1598 334L1599 335L1598 334M1793 334L1794 335L1793 334z"/>
<path style="fill:#1d1d1d; stroke:none;" d="M1034 335L1035 336L1034 335M1226 335L1227 336L1226 335z"/>
<path style="fill:#454545; stroke:none;" d="M1599 335L1600 336L1599 335z"/>
<path style="fill:#1d1d1d; stroke:none;" d="M1795 335L1796 336L1795 335M1227 336L1228 337L1227 336M1796 336L1797 337L1796 336M1037 337L1038 338L1037 337M1228 337L1229 338L1228 337M1601 337L1602 338L1601 337z"/>
<path style="fill:#454545; stroke:none;" d="M1797 337L1798 338L1797 337z"/>
<path style="fill:#1d1d1d; stroke:none;" d="M1038 338L1039 339L1038 338z"/>
<path style="fill:#454545; stroke:none;" d="M1603 338L1604 339L1603 338M1798 338L1799 339L1798 338M1799 339L1800 340L1799 339z"/>
<path style="fill:#1d1d1d; stroke:none;" d="M1041 340L1042 341L1041 340z"/>
<path style="fill:#454545; stroke:none;" d="M1606 340L1607 341L1606 340z"/>
<path style="fill:#1d1d1d; stroke:none;" d="M1801 340L1802 341L1801 340M1042 341L1043 342L1042 341z"/>
<path style="fill:#454545; stroke:none;" d="M1607 341L1608 342L1607 341z"/>
<path style="fill:#1d1d1d; stroke:none;" d="M1608 342L1609 343L1608 342z"/>
<path style="fill:#454545; stroke:none;" d="M1803 342L1804 343L1803 342z"/>
<path style="fill:#1d1d1d; stroke:none;" d="M998 343L999 344L998 343M1045 343L1046 344L1045 343M1235 343L1236 344L1235 343z"/>
<path style="fill:#454545; stroke:none;" d="M1610 343L1611 344L1610 343M1804 343L1805 344L1804 343z"/>
<path style="fill:#1d1d1d; stroke:none;" d="M1003 344L1004 345L1003 344M1046 344L1047 345L1046 344M1236 344L1237 345L1236 344z"/>
<path style="fill:#454545; stroke:none;" d="M1611 344L1612 345L1611 344M1805 344L1806 345L1805 344z"/>
<path style="fill:#1d1d1d; stroke:none;" d="M997 345L998 346L997 345M1004 345L1005 346L1004 345M1237 345L1238 346L1237 345M1612 345L1613 346L1612 345M1807 345L1808 346L1807 345M1238 346L1239 347L1238 346z"/>
<path style="fill:#454545; stroke:none;" d="M1614 346L1615 347L1614 346z"/>
<path style="fill:#1d1d1d; stroke:none;" d="M996 347L997 348L996 347M1050 347L1051 348L1050 347z"/>
<path style="fill:#454545; stroke:none;" d="M1809 347L1810 348L1809 347z"/>
<path style="fill:#1d1d1d; stroke:none;" d="M1008 348L1009 349L1008 348M1051 348L1052 349L1051 348M1616 348L1617 349L1616 348z"/>
<path style="fill:#454545; stroke:none;" d="M1810 348L1811 349L1810 348z"/>
<path style="fill:#1d1d1d; stroke:none;" d="M1009 349L1010 350L1009 349M1052 349L1053 350L1052 349z"/>
<path style="fill:#454545; stroke:none;" d="M1618 349L1619 350L1618 349M1811 349L1812 350L1811 349z"/>
<path style="fill:#1d1d1d; stroke:none;" d="M995 350L996 351L995 350M1053 350L1054 351L1053 350M1054 351L1055 352L1054 351z"/>
<path style="fill:#454545; stroke:none;" d="M1621 351L1622 352L1621 351z"/>
<path style="fill:#1d1d1d; stroke:none;" d="M1814 351L1815 352L1814 351M994 352L995 353L994 352M1013 352L1014 353L1013 352z"/>
<path style="fill:#454545; stroke:none;" d="M1622 352L1623 353L1622 352z"/>
<path style="fill:#1d1d1d; stroke:none;" d="M1815 352L1816 353L1815 352M1014 353L1015 354L1014 353M1015 354L1016 355L1015 354M1056 354L1057 355L1056 354z"/>
<path style="fill:#454545; stroke:none;" d="M1817 354L1818 355L1817 354z"/>
<path style="fill:#1d1d1d; stroke:none;" d="M1248 355L1249 356L1248 355z"/>
<path style="fill:#454545; stroke:none;" d="M1626 355L1627 356L1626 355M1818 355L1819 356L1818 355z"/>
<path style="fill:#1d1d1d; stroke:none;" d="M1249 356L1250 357L1249 356z"/>
<path style="fill:#454545; stroke:none;" d="M1819 356L1820 357L1819 356z"/>
<path style="fill:#1d1d1d; stroke:none;" d="M992 357L993 358L992 357M1250 357L1251 358L1250 357M1628 357L1629 358L1628 357z"/>
<path style="fill:#454545; stroke:none;" d="M1820 357L1821 358L1820 357z"/>
<path style="fill:#1d1d1d; stroke:none;" d="M1020 358L1021 359L1020 358M1058 358L1059 359L1058 358M1251 358L1252 359L1251 358z"/>
<path style="fill:#454545; stroke:none;" d="M1587 358L1588 359L1587 358M1630 358L1631 359L1630 358z"/>
<path style="fill:#1d1d1d; stroke:none;" d="M1021 359L1022 360L1021 359M1252 359L1253 360L1252 359z"/>
<path style="fill:#454545; stroke:none;" d="M1584 359L1585 360L1584 359M1588 359L1589 360L1588 359M1631 359L1632 360L1631 359z"/>
<path style="fill:#1d1d1d; stroke:none;" d="M1823 359L1824 360L1823 359M1253 360L1254 361L1253 360M1583 360L1584 361L1583 360M1590 360L1591 361L1590 360M1824 360L1825 361L1824 360M1058 361L1059 362L1058 361M1254 361L1255 362L1254 361z"/>
<path style="fill:#454545; stroke:none;" d="M1583 361L1584 362L1583 361z"/>
<path style="fill:#1d1d1d; stroke:none;" d="M1633 361L1634 362L1633 361M1825 361L1826 362L1825 361M990 362L991 363L990 362M1025 362L1026 363L1025 362M1255 362L1256 363L1255 362z"/>
<path style="fill:#454545; stroke:none;" d="M1592 362L1593 363L1592 362z"/>
<path style="fill:#1d1d1d; stroke:none;" d="M1634 362L1635 363L1634 362M1256 363L1257 364L1256 363z"/>
<path style="fill:#454545; stroke:none;" d="M1582 363L1583 364L1582 363M1593 363L1594 364L1593 363M1636 363L1637 364L1636 363M1827 363L1828 364L1827 363z"/>
<path style="fill:#1d1d1d; stroke:none;" d="M1257 364L1258 365L1257 364z"/>
<path style="fill:#454545; stroke:none;" d="M1637 364L1638 365L1637 364M1828 364L1829 365L1828 364z"/>
<path style="fill:#1d1d1d; stroke:none;" d="M989 365L990 366L989 365M1029 365L1030 366L1029 365z"/>
<path style="fill:#454545; stroke:none;" d="M1581 365L1582 366L1581 365z"/>
<path style="fill:#1d1d1d; stroke:none;" d="M1596 365L1597 366L1596 365z"/>
<path style="fill:#454545; stroke:none;" d="M1638 365L1639 366L1638 365M1829 365L1830 366L1829 365z"/>
<path style="fill:#1d1d1d; stroke:none;" d="M1030 366L1031 367L1030 366M1053 366L1054 367L1053 366z"/>
<path style="fill:#454545; stroke:none;" d="M1639 366L1640 367L1639 366M1830 366L1831 367L1830 366z"/>
<path style="fill:#1d1d1d; stroke:none;" d="M988 367L989 368L988 367M1051 367L1052 368L1051 367z"/>
<path style="fill:#454545; stroke:none;" d="M1598 367L1599 368L1598 367M1640 367L1641 368L1640 367M1831 367L1832 368L1831 367z"/>
<path style="fill:#1d1d1d; stroke:none;" d="M1033 368L1034 369L1033 368M1049 368L1050 369L1049 368z"/>
<path style="fill:#454545; stroke:none;" d="M1580 368L1581 369L1580 368M1599 368L1600 369L1599 368M1832 368L1833 369L1832 368z"/>
<path style="fill:#1d1d1d; stroke:none;" d="M1046 369L1047 370L1046 369M1579 369L1580 370L1579 369M1641 369L1642 370L1641 369z"/>
<path style="fill:#454545; stroke:none;" d="M1833 369L1834 370L1833 369z"/>
<path style="fill:#1d1d1d; stroke:none;" d="M987 370L988 371L987 370M1043.67 370.333L1044.33 370.667L1043.67 370.333z"/>
<path style="fill:#454545; stroke:none;" d="M1579 370L1580 371L1579 370z"/>
<path style="fill:#1d1d1d; stroke:none;" d="M1602 370L1603 371L1602 370z"/>
<path style="fill:#454545; stroke:none;" d="M1642 370L1643 371L1642 370z"/>
<path style="fill:#1d1d1d; stroke:none;" d="M1039 371L1040 372L1039 371z"/>
<path style="fill:#454545; stroke:none;" d="M1578 372L1579 373L1578 372M1604 372L1605 373L1604 372M1643 372L1644 373L1643 372z"/>
<path style="fill:#1d1d1d; stroke:none;" d="M1837 372L1838 373L1837 372M987 373L988 374L987 373z"/>
<path style="fill:#454545; stroke:none;" d="M1605 373L1606 374L1605 373z"/>
<path style="fill:#1d1d1d; stroke:none;" d="M1838 373L1839 374L1838 373M1577 374L1578 375L1577 374z"/>
<path style="fill:#454545; stroke:none;" d="M1606 374L1607 375L1606 374z"/>
<path style="fill:#1d1d1d; stroke:none;" d="M1839 374L1840 375L1839 374z"/>
<path style="fill:#454545; stroke:none;" d="M1577 375L1578 376L1577 375z"/>
<path style="fill:#1d1d1d; stroke:none;" d="M1608 375L1609 376L1608 375z"/>
<path style="fill:#454545; stroke:none;" d="M1643.33 375.667L1643.67 376.333L1643.33 375.667z"/>
<path style="fill:#1d1d1d; stroke:none;" d="M1840 375L1841 376L1840 375M989 376L990 377L989 376M1841 376L1842 377L1841 376z"/>
<path style="fill:#454545; stroke:none;" d="M1576 377L1577 378L1576 377M1610 377L1611 378L1610 377z"/>
<path style="fill:#1d1d1d; stroke:none;" d="M1642 377L1643 378L1642 377M1842 377L1843 378L1842 377M1271 378L1272 379L1271 378z"/>
<path style="fill:#454545; stroke:none;" d="M1611 378L1612 379L1611 378z"/>
<path style="fill:#1d1d1d; stroke:none;" d="M1843 378L1844 379L1843 378M1272 379L1273 380L1272 379M1575 379L1576 380L1575 379M1613 379L1614 380L1613 379M1844 379L1845 380L1844 379M1273 380L1274 381L1273 380z"/>
<path style="fill:#454545; stroke:none;" d="M1575 380L1576 381L1575 380M1614 380L1615 381L1614 380z"/>
<path style="fill:#1d1d1d; stroke:none;" d="M1274 381L1275 382L1274 381z"/>
<path style="fill:#454545; stroke:none;" d="M1615 381L1616 382L1615 381z"/>
<path style="fill:#1d1d1d; stroke:none;" d="M1637 381L1638 382L1637 381z"/>
<path style="fill:#454545; stroke:none;" d="M1638 381L1639 382L1638 381z"/>
<path style="fill:#1d1d1d; stroke:none;" d="M996 382L997 383L996 382M1275 382L1276 383L1275 382M1574 382L1575 383L1574 382M1635 382L1636 383L1635 382z"/>
<path style="fill:#454545; stroke:none;" d="M1636 382L1637 383L1636 382z"/>
<path style="fill:#1d1d1d; stroke:none;" d="M997 383L998 384L997 383M1276 383L1277 384L1276 383z"/>
<path style="fill:#454545; stroke:none;" d="M1574 383L1575 384L1574 383M1618 383L1619 384L1618 383z"/>
<path style="fill:#1d1d1d; stroke:none;" d="M1633 383L1634 384L1633 383z"/>
<path style="fill:#454545; stroke:none;" d="M1634 383L1635 384L1634 383z"/>
<path style="fill:#1d1d1d; stroke:none;" d="M1277 384L1278 385L1277 384z"/>
<path style="fill:#454545; stroke:none;" d="M1631 384L1632 385L1631 384z"/>
<path style="fill:#1d1d1d; stroke:none;" d="M1278 385L1279 386L1278 385M1573 385L1574 386L1573 385z"/>
<path style="fill:#454545; stroke:none;" d="M1621 385L1622 386L1621 385z"/>
<path style="fill:#1d1d1d; stroke:none;" d="M1622 385L1623 386L1622 385M1627 385L1628 386L1627 385z"/>
<path style="fill:#454545; stroke:none;" d="M1628.67 385.333L1629.33 385.667L1628.67 385.333z"/>
<path style="fill:#1d1d1d; stroke:none;" d="M1001 386L1002 387L1001 386M1279 386L1280 387L1279 386z"/>
<path style="fill:#454545; stroke:none;" d="M1573.33 386.667L1573.67 387.333L1573.33 386.667M1624 386L1625 387L1624 386z"/>
<path style="fill:#1d1d1d; stroke:none;" d="M1002 387L1003 388L1002 387M1854 389L1855 390L1854 389M1574 390L1575 391L1574 390M1855 390L1856 391L1855 390M1007 391L1008 392L1007 391M1575 391L1576 392L1575 391M1856 391L1857 392L1856 391M1008 392L1009 393L1008 392M1576 392L1577 393L1576 392M1857 392L1858 393L1857 392M1577 393L1578 394L1577 393M1858 393L1859 394L1858 393M1578 394L1579 395L1578 394M1859 394L1860 395L1859 394M1012 395L1013 396L1012 395z"/>
<path style="fill:#454545; stroke:none;" d="M1580 395L1581 396L1580 395z"/>
<path style="fill:#1d1d1d; stroke:none;" d="M1860 395L1861 396L1860 395M1013 396L1014 397L1013 396M1288 396L1289 397L1288 396z"/>
<path style="fill:#454545; stroke:none;" d="M1581 396L1582 397L1581 396z"/>
<path style="fill:#1d1d1d; stroke:none;" d="M1289 397L1290 398L1289 397z"/>
<path style="fill:#454545; stroke:none;" d="M1582 397L1583 398L1582 397z"/>
<path style="fill:#1d1d1d; stroke:none;" d="M1290 398L1291 399L1290 398M1017 399L1018 400L1017 399M1291 399L1292 400L1291 399M1584 399L1585 400L1584 399M1018 400L1019 401L1018 400z"/>
<path style="fill:#454545; stroke:none;" d="M1586 400L1587 401L1586 400M1864 400L1865 401L1864 400M1587 401L1588 402L1587 401M1865 401L1866 402L1865 401M1588 402L1589 403L1588 402M1866 402L1867 403L1866 402z"/>
<path style="fill:#1d1d1d; stroke:none;" d="M1022 403L1023 404L1022 403M1589 403L1590 404L1589 403z"/>
<path style="fill:#454545; stroke:none;" d="M1867 403L1868 404L1867 403z"/>
<path style="fill:#1d1d1d; stroke:none;" d="M1023 404L1024 405L1023 404z"/>
<path style="fill:#454545; stroke:none;" d="M1868 404L1869 405L1868 404M1592 405L1593 406L1592 405M1869 405L1870 406L1869 405z"/>
<path style="fill:#1d1d1d; stroke:none;" d="M1297 406L1298 407L1297 406z"/>
<path style="fill:#454545; stroke:none;" d="M1593 406L1594 407L1593 406M1870 406L1871 407L1870 406z"/>
<path style="fill:#1d1d1d; stroke:none;" d="M1027 407L1028 408L1027 407M1298 407L1299 408L1298 407M1299 408L1300 409L1299 408M1595 408L1596 409L1595 408z"/>
<path style="fill:#454545; stroke:none;" d="M1597 409L1598 410L1597 409z"/>
<path style="fill:#1d1d1d; stroke:none;" d="M1873 409L1874 410L1873 409M1031 410L1032 411L1031 410z"/>
<path style="fill:#454545; stroke:none;" d="M1598 410L1599 411L1598 410z"/>
<path style="fill:#1d1d1d; stroke:none;" d="M1874 410L1875 411L1874 410M1032 411L1033 412L1032 411M1600 412L1601 413L1600 412z"/>
<path style="fill:#454545; stroke:none;" d="M1602 413L1603 414L1602 413M1876 413L1877 414L1876 413z"/>
<path style="fill:#1d1d1d; stroke:none;" d="M1036 414L1037 415L1036 414M1304 414L1305 415L1304 414z"/>
<path style="fill:#454545; stroke:none;" d="M1603 414L1604 415L1603 414M1877 414L1878 415L1877 414z"/>
<path style="fill:#1d1d1d; stroke:none;" d="M1037 415L1038 416L1037 415M1305 415L1306 416L1305 415z"/>
<path style="fill:#454545; stroke:none;" d="M1878 415L1879 416L1878 415z"/>
<path style="fill:#1d1d1d; stroke:none;" d="M1605 416L1606 417L1605 416z"/>
<path style="fill:#454545; stroke:none;" d="M1879 416L1880 417L1879 416z"/>
<path style="fill:#1d1d1d; stroke:none;" d="M1040 417L1041 418L1040 417z"/>
<path style="fill:#454545; stroke:none;" d="M1607 417L1608 418L1607 417M1880 417L1881 418L1880 417z"/>
<path style="fill:#1d1d1d; stroke:none;" d="M1041 418L1042 419L1041 418z"/>
<path style="fill:#454545; stroke:none;" d="M1608 418L1609 419L1608 418z"/>
<path style="fill:#1d1d1d; stroke:none;" d="M1882 419L1883 420L1882 419M1610 420L1611 421L1610 420M1883 420L1884 421L1883 420M1045 421L1046 422L1045 421z"/>
<path style="fill:#454545; stroke:none;" d="M1612 421L1613 422L1612 421M1613 422L1614 423L1613 422z"/>
<path style="fill:#1d1d1d; stroke:none;" d="M1304 423L1305 424L1304 423M1614 423L1615 424L1614 423z"/>
<path style="fill:#454545; stroke:none;" d="M1885 423L1886 424L1885 423z"/>
<path style="fill:#1d1d1d; stroke:none;" d="M1049 424L1050 425L1049 424M1303 424L1304 425L1303 424z"/>
<path style="fill:#454545; stroke:none;" d="M1616 424L1617 425L1616 424M1886 424L1887 425L1886 424z"/>
<path style="fill:#1d1d1d; stroke:none;" d="M1050 425L1051 426L1050 425z"/>
<path style="fill:#454545; stroke:none;" d="M1617 425L1618 426L1617 425M1887 425L1888 426L1887 425z"/>
<path style="fill:#1d1d1d; stroke:none;" d="M1053 427L1054 428L1053 427M1301 427L1302 428L1301 427M1619 427L1620 428L1619 427M1889 427L1890 428L1889 427M1054 428L1055 429L1054 428z"/>
<path style="fill:#454545; stroke:none;" d="M1621 428L1622 429L1621 428z"/>
<path style="fill:#1d1d1d; stroke:none;" d="M1890 428L1891 429L1890 428z"/>
<path style="fill:#454545; stroke:none;" d="M1622 429L1623 430L1622 429z"/>
<path style="fill:#1d1d1d; stroke:none;" d="M1057 430L1058 431L1057 430M1299 430L1300 431L1299 430M1623 430L1624 431L1623 430z"/>
<path style="fill:#454545; stroke:none;" d="M1891 430L1892 431L1891 430z"/>
<path style="fill:#1d1d1d; stroke:none;" d="M1058 431L1059 432L1058 431z"/>
<path style="fill:#454545; stroke:none;" d="M1625 431L1626 432L1625 431M1892 431L1893 432L1892 431M1626 432L1627 433L1626 432M1893 432L1894 433L1893 432z"/>
<path style="fill:#1d1d1d; stroke:none;" d="M1061 433L1062 434L1061 433M1297 433L1298 434L1297 433M1062 434L1063 435L1062 434z"/>
<path style="fill:#040404; stroke:none;" d="M1320.3 435.176C1316.27 436.801 1313.35 443.515 1311.19 447C1304 458.604 1299.37 470.419 1297.43 484C1296.75 488.741 1294.9 504.458 1303.99 501.377C1308.99 499.68 1311.57 493.333 1313.75 489C1319.79 477.013 1327.51 463.406 1329.67 450C1330.4 445.492 1327.38 432.323 1320.3 435.176z"/>
<path style="fill:#1d1d1d; stroke:none;" d="M1628 434L1629 435L1628 434M1895 434L1896 435L1895 434M1321 435L1320 437L1321 435z"/>
<path style="fill:#454545; stroke:none;" d="M1630 435L1631 436L1630 435z"/>
<path style="fill:#1d1d1d; stroke:none;" d="M1896 435L1897 436L1896 435M1065 436L1066 437L1065 436M1295 436L1296 437L1295 436z"/>
<path style="fill:#333333; stroke:none;" d="M1321.05 437.346C1317.24 438.435 1314.36 444.89 1312.43 448C1305.34 459.368 1301.1 470.777 1298.92 484C1298.37 487.331 1295.84 501.994 1303.01 500.248C1307.39 499.185 1310.31 492.591 1312.22 489C1318.61 476.974 1325.06 463.297 1328.24 450C1329.14 446.196 1326.98 435.654 1321.05 437.346z"/>
<path style="fill:#454545; stroke:none;" d="M1631 436L1632 437L1631 436z"/>
<path style="fill:#1d1d1d; stroke:none;" d="M1632 437L1633 438L1632 437z"/>
<path style="fill:#454545; stroke:none;" d="M1897 437L1898 438L1897 437M1634 438L1635 439L1634 438M1898 438L1899 439L1898 438z"/>
<path style="fill:#1d1d1d; stroke:none;" d="M1069 439L1070 440L1069 439M1293 439L1294 440L1293 439M1325 439L1326 440L1325 439z"/>
<path style="fill:#454545; stroke:none;" d="M1635 439L1636 440L1635 439M1899 439L1900 440L1899 439z"/>
<path style="fill:#1d1d1d; stroke:none;" d="M1317 440L1318 441L1317 440M1326 440L1327 441L1326 440M1900 440L1901 441L1900 440M1072 441L1073 442L1072 441z"/>
<path style="fill:#454545; stroke:none;" d="M1638 441L1639 442L1638 441z"/>
<path style="fill:#1d1d1d; stroke:none;" d="M1901 441L1902 442L1901 441M1073 442L1074 443L1073 442M1291 442L1292 443L1291 442z"/>
<path style="fill:#454545; stroke:none;" d="M1639 442L1640 443L1639 442z"/>
<path style="fill:#1d1d1d; stroke:none;" d="M1315 443L1316 444L1315 443z"/>
<path style="fill:#454545; stroke:none;" d="M1902 443L1903 444L1902 443z"/>
<path style="fill:#1d1d1d; stroke:none;" d="M1076 444L1077 445L1076 444M1290 444L1291 445L1290 444M1641 444L1642 445L1641 444z"/>
<path style="fill:#454545; stroke:none;" d="M1903 444L1904 445L1903 444z"/>
<path style="fill:#1d1d1d; stroke:none;" d="M1077 445L1078 446L1077 445z"/>
<path style="fill:#454545; stroke:none;" d="M1643 445L1644 446L1643 445z"/>
<path style="fill:#1d1d1d; stroke:none;" d="M1289 446L1290 447L1289 446M1313 446L1314 447L1313 446M1905 446L1906 447L1905 446M1645 447L1646 448L1645 447M1081 448L1082 449L1081 448z"/>
<path style="fill:#454545; stroke:none;" d="M1647 448L1648 449L1647 448M1906 448L1907 449L1906 448z"/>
<path style="fill:#1d1d1d; stroke:none;" d="M1082 449L1083 450L1082 449M1311 449L1312 450L1311 449M1328 449L1329 450L1328 449z"/>
<path style="fill:#454545; stroke:none;" d="M1907 449L1908 450L1907 449M1650 450L1651 451L1650 450M1908 450L1909 451L1908 450z"/>
<path style="fill:#1d1d1d; stroke:none;" d="M1310 451L1311 452L1310 451z"/>
<path style="fill:#454545; stroke:none;" d="M1651 451L1652 452L1651 451z"/>
<path style="fill:#1d1d1d; stroke:none;" d="M1086 452L1087 453L1086 452M1327 452L1328 453L1327 452M1652 452L1653 453L1652 452M1910 452L1911 453L1910 452M1087 453L1088 454L1087 453z"/>
<path style="fill:#454545; stroke:none;" d="M1654 453L1655 454L1654 453z"/>
<path style="fill:#1d1d1d; stroke:none;" d="M1308 454L1309 455L1308 454z"/>
<path style="fill:#454545; stroke:none;" d="M1655 454L1656 455L1655 454M1911 454L1912 455L1911 454z"/>
<path style="fill:#1d1d1d; stroke:none;" d="M1326 455L1327 456L1326 455M1656 455L1657 456L1656 455z"/>
<path style="fill:#454545; stroke:none;" d="M1912 455L1913 456L1912 455z"/>
<path style="fill:#1d1d1d; stroke:none;" d="M1284 456L1285 457L1284 456M1307 456L1308 457L1307 456z"/>
<path style="fill:#454545; stroke:none;" d="M1658 456L1659 457L1658 456z"/>
<path style="fill:#1d1d1d; stroke:none;" d="M1913 456L1914 457L1913 456M1092 457L1093 458L1092 457M1093 458L1094 459L1093 458M1283 458L1284 459L1283 458M1325 458L1326 459L1325 458z"/>
<path style="fill:#454545; stroke:none;" d="M1661 458L1662 459L1661 458M1662 459L1663 460L1662 459M1915 459L1916 460L1915 459z"/>
<path style="fill:#1d1d1d; stroke:none;" d="M1324 461L1325 462L1324 461M1664 461L1665 462L1664 461M1917 461L1918 462L1917 461M1304 462L1305 463L1304 462z"/>
<path style="fill:#454545; stroke:none;" d="M1666 462L1667 463L1666 462z"/>
<path style="fill:#1d1d1d; stroke:none;" d="M1099 463L1100 464L1099 463M1281 463L1282 464L1281 463M1323 463L1324 464L1323 463z"/>
<path style="fill:#454545; stroke:none;" d="M1667 463L1668 464L1667 463M1918 463L1919 464L1918 463z"/>
<path style="fill:#1d1d1d; stroke:none;" d="M1100 464L1101 465L1100 464z"/>
<path style="fill:#454545; stroke:none;" d="M1919 464L1920 465L1919 464z"/>
<path style="fill:#1d1d1d; stroke:none;" d="M1303 465L1304 466L1303 465M1669 465L1670 466L1669 465M1280 466L1281 467L1280 466M1322 466L1323 467L1322 466z"/>
<path style="fill:#454545; stroke:none;" d="M1671 466L1672 467L1671 466M1672 467L1673 468L1672 467z"/>
<path style="fill:#1d1d1d; stroke:none;" d="M1302 468L1303 469L1302 468M1321 468L1322 469L1321 468z"/>
<path style="fill:#454545; stroke:none;" d="M1922 468L1923 469L1922 468z"/>
<path style="fill:#1d1d1d; stroke:none;" d="M1279 469L1280 470L1279 469M1674 469L1675 470L1674 469z"/>
<path style="fill:#454545; stroke:none;" d="M1676 470L1677 471L1676 470z"/>
<path style="fill:#1d1d1d; stroke:none;" d="M1924 470L1925 471L1924 470M1301 471L1302 472L1301 471z"/>
<path style="fill:#454545; stroke:none;" d="M1677 471L1678 472L1677 471z"/>
<path style="fill:#1d1d1d; stroke:none;" d="M1109 472L1110 473L1109 472z"/>
<path style="fill:#454545; stroke:none;" d="M1678 472L1679 473L1678 472M1925 472L1926 473L1925 472z"/>
<path style="fill:#1d1d1d; stroke:none;" d="M1110 473L1111 474L1110 473M1278 473L1279 474L1278 473M1319 473L1320 474L1319 473z"/>
<path style="fill:#454545; stroke:none;" d="M1926 473L1927 474L1926 473z"/>
<path style="fill:#1d1d1d; stroke:none;" d="M1111 474L1112 475L1111 474M1680 474L1681 475L1680 474M1927 474L1928 475L1927 474M1112 475L1113 476L1112 475M1300 475L1301 476L1300 475M1318 475L1319 476L1318 475M1681 475L1682 476L1681 475M1113 476L1114 477L1113 476z"/>
<path style="fill:#454545; stroke:none;" d="M1683 476L1684 477L1683 476M1928 476L1929 477L1928 476z"/>
<path style="fill:#1d1d1d; stroke:none;" d="M1114 477L1115 478L1114 477M1277 477L1277 480L1278 480L1277 477M1317 477L1318 478L1317 477z"/>
<path style="fill:#454545; stroke:none;" d="M1684 477L1685 478L1684 477z"/>
<path style="fill:#1d1d1d; stroke:none;" d="M1929 477L1930 478L1929 477M1115 478L1116 479L1115 478z"/>
<path style="fill:#454545; stroke:none;" d="M1685 478L1686 479L1685 478z"/>
<path style="fill:#1d1d1d; stroke:none;" d="M1116 479L1117 480L1116 479M1299.33 479.667L1299.67 480.333L1299.33 479.667z"/>
<path style="fill:#454545; stroke:none;" d="M1930 479L1931 480L1930 479z"/>
<path style="fill:#1d1d1d; stroke:none;" d="M1117 480L1118 481L1117 480M1687 480L1688 481L1687 480M1118 481L1119 482L1118 481M1688 481L1689 482L1688 481M1932 481L1933 482L1932 481z"/>
<path style="fill:#454545; stroke:none;" d="M1932 482L1933 483L1932 482M1691 483L1692 484L1691 483M1933 483L1934 484L1933 483z"/>
<path style="fill:#1d1d1d; stroke:none;" d="M1298 484L1298 487L1299 487L1298 484M1314 484L1315 485L1314 484z"/>
<path style="fill:#454545; stroke:none;" d="M1692 484L1693 485L1692 484z"/>
<path style="fill:#1d1d1d; stroke:none;" d="M1934 484L1935 485L1934 484z"/>
<path style="fill:#454545; stroke:none;" d="M1693 485L1694 486L1693 485M1694 486L1695 487L1694 486M1935 486L1936 487L1935 486M1695 487L1696 488L1695 487M1696 488L1697 489L1696 488M1697 489L1698 490L1697 489M1937 489L1938 490L1937 489z"/>
<path style="fill:#1d1d1d; stroke:none;" d="M1126 490L1127 491L1126 490z"/>
<path style="fill:#454545; stroke:none;" d="M1698 490L1699 491L1698 490z"/>
<path style="fill:#1d1d1d; stroke:none;" d="M1127 491L1128 492L1127 491z"/>
<path style="fill:#454545; stroke:none;" d="M1699 491L1700 492L1699 491z"/>
<path style="fill:#1d1d1d; stroke:none;" d="M1128 492L1129 493L1128 492z"/>
<path style="fill:#454545; stroke:none;" d="M1700 492L1701 493L1700 492M1939 492L1940 493L1939 492z"/>
<path style="fill:#1d1d1d; stroke:none;" d="M1129 493L1130 494L1129 493M1309 493L1310 494L1309 493z"/>
<path style="fill:#454545; stroke:none;" d="M1701 493L1702 494L1701 493M1940 493L1941 494L1940 493M1702 494L1703 495L1702 494z"/>
<path style="fill:#1d1d1d; stroke:none;" d="M1941 494L1942 495L1941 494M1308 495L1309 496L1308 495z"/>
<path style="fill:#454545; stroke:none;" d="M1703 495L1704 496L1703 495M1941 495L1942 496L1941 495z"/>
<path style="fill:#1d1d1d; stroke:none;" d="M1307 496L1308 497L1307 496z"/>
<path style="fill:#454545; stroke:none;" d="M1704 496L1705 497L1704 496M1942 496L1943 497L1942 496z"/>
<path style="fill:#1d1d1d; stroke:none;" d="M1298 497L1299 498L1298 497z"/>
<path style="fill:#454545; stroke:none;" d="M1705 497L1706 498L1705 497z"/>
<path style="fill:#1d1d1d; stroke:none;" d="M1943 497L1944 498L1943 497M1133 498L1134 499L1133 498z"/>
<path style="fill:#454545; stroke:none;" d="M1706 498L1707 499L1706 498z"/>
<path style="fill:#1d1d1d; stroke:none;" d="M1134 499L1135 500L1134 499z"/>
<path style="fill:#454545; stroke:none;" d="M1944 499L1945 500L1944 499z"/>
<path style="fill:#1d1d1d; stroke:none;" d="M1945 500L1946 501L1945 500M1708 501L1709 502L1708 501M1277.33 502.667L1277.67 503.333L1277.33 502.667M1709 502L1710 503L1709 502z"/>
<path style="fill:#454545; stroke:none;" d="M1946 502L1947 503L1946 502z"/>
<path style="fill:#1d1d1d; stroke:none;" d="M1947 503L1948 504L1947 503M1138 504L1139 505L1138 504M1139 505L1140 506L1139 505z"/>
<path style="fill:#454545; stroke:none;" d="M1712 505L1713 506L1712 505M1948 505L1949 506L1948 505z"/>
<path style="fill:#1d1d1d; stroke:none;" d="M1278 506L1279 507L1278 506z"/>
<path style="fill:#454545; stroke:none;" d="M1713 506L1714 507L1713 506M1714 507L1715 508L1714 507z"/>
<path style="fill:#1d1d1d; stroke:none;" d="M1279 508L1280 509L1279 508z"/>
<path style="fill:#454545; stroke:none;" d="M1715 508L1716 509L1715 508M1950 508L1951 509L1950 508z"/>
<path style="fill:#1d1d1d; stroke:none;" d="M1143 510L1144 511L1143 510M1717 511L1718 512L1717 511z"/>
<path style="fill:#454545; stroke:none;" d="M1952 511L1953 512L1952 511z"/>
<path style="fill:#1d1d1d; stroke:none;" d="M1281 512L1282 513L1281 512z"/>
<path style="fill:#454545; stroke:none;" d="M1719 513L1720 514L1719 513z"/>
<path style="fill:#1d1d1d; stroke:none;" d="M1146 514L1147 515L1146 514z"/>
<path style="fill:#454545; stroke:none;" d="M1720 514L1721 515L1720 514M1954 514L1955 515L1954 514z"/>
<path style="fill:#1d1d1d; stroke:none;" d="M1147 515L1148 516L1147 515M1283 515L1284 516L1283 515z"/>
<path style="fill:#454545; stroke:none;" d="M1721 515L1722 516L1721 515z"/>
<path style="fill:#1d1d1d; stroke:none;" d="M1284 516L1285 517L1284 516M1285 517L1286 518L1285 517M1722 517L1723 518L1722 517z"/>
<path style="fill:#454545; stroke:none;" d="M1956 517L1957 518L1956 517z"/>
<path style="fill:#1d1d1d; stroke:none;" d="M1286 518L1287 519L1286 518M1723 518L1724 519L1723 518z"/>
<path style="fill:#454545; stroke:none;" d="M1957 518L1958 519L1957 518z"/>
<path style="fill:#1d1d1d; stroke:none;" d="M1150 519L1151 520L1150 519M1287 519L1288 520L1287 519M1958 519L1959 520L1958 519M1288 520L1289 521L1288 520z"/>
<path style="fill:#454545; stroke:none;" d="M1725 520L1726 521L1725 520M1958 520L1959 521L1958 520M1726 521L1727 522L1726 521M1959 521L1960 522L1959 521z"/>
<path style="fill:#1d1d1d; stroke:none;" d="M1291 522L1292 523L1291 522M1960 522L1961 523L1960 522M1153 523L1154 524L1153 523z"/>
<path style="fill:#454545; stroke:none;" d="M1960 523L1961 524L1960 523z"/>
<path style="fill:#1d1d1d; stroke:none;" d="M1728 524L1729 525L1728 524z"/>
<path style="fill:#454545; stroke:none;" d="M1961 524L1962 525L1961 524z"/>
<path style="fill:#1d1d1d; stroke:none;" d="M1289 525L1290 526L1289 525M1962 525L1963 526L1962 525M1155 526L1156 527L1155 526z"/>
<path style="fill:#454545; stroke:none;" d="M1730 526L1731 527L1730 526M1962 526L1963 527L1962 526z"/>
<path style="fill:#1d1d1d; stroke:none;" d="M1156 527L1157 528L1156 527M1286 527L1287 528L1286 527z"/>
<path style="fill:#454545; stroke:none;" d="M1731 527L1732 528L1731 527M1963 527L1964 528L1963 527z"/>
<path style="fill:#1d1d1d; stroke:none;" d="M1964 528L1965 529L1964 528M1283 529L1284 530L1283 529M1732 529L1733 530L1732 529M1158 530L1159 531L1158 530M1282 530L1283 531L1282 530z"/>
<path style="fill:#454545; stroke:none;" d="M1965 530L1966 531L1965 530M1734 531L1735 532L1734 531z"/>
<path style="fill:#1d1d1d; stroke:none;" d="M1966 531L1967 532L1966 531M1279 532L1280 533L1279 532M1278 533L1279 534L1278 533M1735 533L1736 534L1735 533z"/>
<path style="fill:#454545; stroke:none;" d="M1967 533L1968 534L1967 533z"/>
<path style="fill:#1d1d1d; stroke:none;" d="M1161 534L1162 535L1161 534M1968 534L1969 535L1968 534z"/>
<path style="fill:#454545; stroke:none;" d="M1737 535L1738 536L1737 535M1738 536L1739 537L1738 536M1969 536L1970 537L1969 536z"/>
<path style="fill:#1d1d1d; stroke:none;" d="M1163 537L1164 538L1163 537M1273 537L1274 538L1273 537M1970 537L1971 538L1970 537M1272 538L1273 539L1272 538M1271 539L1272 540L1271 539z"/>
<path style="fill:#454545; stroke:none;" d="M1740 539L1741 540L1740 539M1971 539L1972 540L1971 539z"/>
<path style="fill:#1d1d1d; stroke:none;" d="M1165 540L1166 541L1165 540M1972 540L1973 541L1972 540M1741 541L1742 542L1741 541z"/>
<path style="fill:#454545; stroke:none;" d="M1973 542L1974 543L1973 542z"/>
<path style="fill:#1d1d1d; stroke:none;" d="M1167 543L1168 544L1167 543z"/>
<path style="fill:#454545; stroke:none;" d="M1743 543L1744 544L1743 543z"/>
<path style="fill:#1d1d1d; stroke:none;" d="M1974 543L1975 544L1974 543M1744 545L1745 546L1744 545z"/>
<path style="fill:#454545; stroke:none;" d="M1975 545L1976 546L1975 545z"/>
<path style="fill:#1d1d1d; stroke:none;" d="M1169 546L1170 547L1169 546z"/>
<path style="fill:#454545; stroke:none;" d="M1745 546L1746 547L1745 546z"/>
<path style="fill:#1d1d1d; stroke:none;" d="M1976 546L1977 547L1976 546z"/>
<path style="fill:#454545; stroke:none;" d="M1746 547L1747 548L1746 547M1977 548L1978 549L1977 548z"/>
<path style="fill:#1d1d1d; stroke:none;" d="M1171 549L1172 550L1171 549M1978 549L1979 550L1978 549z"/>
<path style="fill:#454545; stroke:none;" d="M1748 550L1749 551L1748 550M1979 551L1980 552L1979 551z"/>
<path style="fill:#1d1d1d; stroke:none;" d="M1173 552L1174 553L1173 552M1980 552L1981 553L1980 552z"/>
<path style="fill:#454545; stroke:none;" d="M1750 553L1751 554L1750 553z"/>
<path style="fill:#1d1d1d; stroke:none;" d="M1255 554L1256 555L1255 554z"/>
<path style="fill:#454545; stroke:none;" d="M1981 554L1982 555L1981 554z"/>
<path style="fill:#1d1d1d; stroke:none;" d="M1175 555L1176 556L1175 555M1254 555L1255 556L1254 555M1751 555L1752 556L1751 555M1982 555L1983 556L1982 555z"/>
<path style="fill:#454545; stroke:none;" d="M1752 556L1753 557L1752 556z"/>
<path style="fill:#1d1d1d; stroke:none;" d="M1176 557L1177 558L1176 557z"/>
<path style="fill:#454545; stroke:none;" d="M1983 557L1984 558L1983 557z"/>
<path style="fill:#1d1d1d; stroke:none;" d="M1250 558L1251 559L1250 558M1753 558L1754 559L1753 558M1984 558L1985 559L1984 558M1249 559L1250 560L1249 559z"/>
<path style="fill:#454545; stroke:none;" d="M1754 559L1755 560L1754 559z"/>
<path style="fill:#1d1d1d; stroke:none;" d="M1178 560L1179 561L1178 560M1247 560L1248 561L1247 560z"/>
<path style="fill:#454545; stroke:none;" d="M1985 560L1986 561L1985 560z"/>
<path style="fill:#1d1d1d; stroke:none;" d="M1245 561L1246 562L1245 561M1755 561L1756 562L1755 561z"/>
<path style="fill:#454545; stroke:none;" d="M1756 562L1757 563L1756 562z"/>
<path style="fill:#1d1d1d; stroke:none;" d="M1242 563L1243 564L1242 563z"/>
<path style="fill:#454545; stroke:none;" d="M1987 563L1988 564L1987 563z"/>
<path style="fill:#1d1d1d; stroke:none;" d="M1241 564L1242 565L1241 564M1757 564L1758 565L1757 564M1181 565L1182 566L1181 565z"/>
<path style="fill:#454545; stroke:none;" d="M1758 565L1759 566L1758 565M1989 566L1990 567L1989 566z"/>
<path style="fill:#1d1d1d; stroke:none;" d="M1182 567L1183 568L1182 567M1239 568L1240 569L1239 568z"/>
<path style="fill:#454545; stroke:none;" d="M1760 568L1761 569L1760 568z"/>
<path style="fill:#1d1d1d; stroke:none;" d="M1760 569L1761 570L1760 569z"/>
<path style="fill:#454545; stroke:none;" d="M1991 569L1992 570L1991 569z"/>
<path style="fill:#1d1d1d; stroke:none;" d="M1184 570L1185 571L1184 570M1239 570L1239 573L1240 573L1239 570z"/>
<path style="fill:#454545; stroke:none;" d="M1761 570L1762 571L1761 570z"/>
<path style="fill:#1d1d1d; stroke:none;" d="M1185 572L1186 573L1185 572M1762 572L1763 573L1762 572z"/>
<path style="fill:#454545; stroke:none;" d="M1993 572L1994 573L1993 572z"/>
<path style="fill:#1d1d1d; stroke:none;" d="M1238 573L1239 574L1238 573z"/>
<path style="fill:#454545; stroke:none;" d="M1763 573L1764 574L1763 573z"/>
<path style="fill:#1d1d1d; stroke:none;" d="M1235 574L1236 575L1235 574M1187 575L1188 576L1187 575M1230 575L1231 576L1230 575z"/>
<path style="fill:#454545; stroke:none;" d="M1995 575L1996 576L1995 575z"/>
<path style="fill:#1d1d1d; stroke:none;" d="M1226 576L1227 577L1226 576z"/>
<path style="fill:#454545; stroke:none;" d="M1765 576L1766 577L1765 576z"/>
<path style="fill:#1d1d1d; stroke:none;" d="M1188 577L1189 578L1188 577M1223 577L1224 578L1223 577M1765 577L1766 578L1765 577M1220 578L1221 579L1220 578z"/>
<path style="fill:#454545; stroke:none;" d="M1766 578L1767 579L1766 578M1997 578L1998 579L1997 578z"/>
<path style="fill:#1d1d1d; stroke:none;" d="M1217 579L1218 580L1217 579M1214 580L1215 581L1214 580M1211 581L1212 582L1211 581z"/>
<path style="fill:#454545; stroke:none;" d="M1999 581L2000 582L1999 581z"/>
<path style="fill:#1d1d1d; stroke:none;" d="M1191 582L1192 583L1191 582M1209 582L1210 583L1209 582M1768 582L1769 583L1768 582M1206 583L1207 584L1206 583z"/>
<path style="fill:#454545; stroke:none;" d="M1769 583L1770 584L1769 583z"/>
<path style="fill:#1d1d1d; stroke:none;" d="M1203 584L1204 585L1203 584z"/>
<path style="fill:#454545; stroke:none;" d="M2001 584L2002 585L2001 584z"/>
<path style="fill:#1d1d1d; stroke:none;" d="M1193 585L1194 586L1193 585M1201 585L1202 586L1201 585z"/>
<path style="fill:#454545; stroke:none;" d="M1770 585L1771 586L1770 585z"/>
<path style="fill:#1d1d1d; stroke:none;" d="M1194 586L1195 587L1194 586M1199 586L1200 587L1199 586M1195 587L1196 588L1195 587M1197 587L1198 588L1197 587z"/>
<path style="fill:#454545; stroke:none;" d="M2003 587L2004 588L2003 587M1772 588L1773 589L1772 588z"/>
<path style="fill:#1d1d1d; stroke:none;" d="M1772 589L1773 590L1772 589z"/>
<path style="fill:#454545; stroke:none;" d="M1773 590L1774 591L1773 590M2005 590L2006 591L2005 590M1774 592L1775 593L1774 592M2007 593L2008 594L2007 593z"/>
<path style="fill:#1d1d1d; stroke:none;" d="M2008 594L2009 595L2008 594M1776 596L1777 597L1776 596z"/>
<path style="fill:#454545; stroke:none;" d="M2009 596L2010 597L2009 596M1777 597L1778 598L1777 597z"/>
<path style="fill:#1d1d1d; stroke:none;" d="M2010 597L2011 598L2010 597M1777 598L1778 599L1777 598z"/>
<path style="fill:#454545; stroke:none;" d="M1778 599L1779 600L1778 599M2011 599L2012 600L2011 599z"/>
<path style="fill:#1d1d1d; stroke:none;" d="M2012 600L2013 601L2012 600z"/>
<path style="fill:#454545; stroke:none;" d="M1779 601L1780 602L1779 601M2013 602L2014 603L2013 602M1780 603L1781 604L1780 603z"/>
<path style="fill:#1d1d1d; stroke:none;" d="M2014 603L2015 604L2014 603z"/>
<path style="fill:#454545; stroke:none;" d="M1781 605L1782 606L1781 605M2015 605L2016 606L2015 605z"/>
<path style="fill:#1d1d1d; stroke:none;" d="M2016 606L2017 607L2016 606z"/>
<path style="fill:#454545; stroke:none;" d="M1782 607L1783 608L1782 607M2017 608L2018 609L2017 608M1783 609L1784 610L1783 609z"/>
<path style="fill:#1d1d1d; stroke:none;" d="M2018 609L2019 610L2018 609z"/>
<path style="fill:#454545; stroke:none;" d="M1784 611L1785 612L1784 611M2019 611L2020 612L2019 611z"/>
<path style="fill:#1d1d1d; stroke:none;" d="M2020 612L2021 613L2020 612z"/>
<path style="fill:#454545; stroke:none;" d="M1785 613L1786 614L1785 613M2021 614L2022 615L2021 614M1786 615L1787 616L1786 615z"/>
<path style="fill:#1d1d1d; stroke:none;" d="M2022 615L2023 616L2022 615z"/>
<path style="fill:#454545; stroke:none;" d="M1787 617L1788 618L1787 617M2023 617L2024 618L2023 617z"/>
<path style="fill:#1d1d1d; stroke:none;" d="M2024 618L2025 619L2024 618z"/>
<path style="fill:#454545; stroke:none;" d="M1788 619L1789 620L1788 619M2025 620L2026 621L2025 620M1789 621L1790 622L1789 621z"/>
<path style="fill:#1d1d1d; stroke:none;" d="M2026 621L2027 622L2026 621z"/>
<path style="fill:#454545; stroke:none;" d="M1790 623L1791 624L1790 623M2027 623L2028 624L2027 623z"/>
<path style="fill:#1d1d1d; stroke:none;" d="M2028 624L2029 625L2028 624z"/>
<path style="fill:#454545; stroke:none;" d="M1791 625L1792 626L1791 625M2029 626L2030 627L2029 626M1792 627L1793 628L1792 627z"/>
<path style="fill:#1d1d1d; stroke:none;" d="M2030 627L2031 628L2030 627M1792 628L1793 629L1792 628z"/>
<path style="fill:#454545; stroke:none;" d="M1793 629L1794 630L1793 629M2031 629L2032 630L2031 629z"/>
<path style="fill:#1d1d1d; stroke:none;" d="M1793 630L1794 631L1793 630M2032 630L2033 631L2032 630z"/>
<path style="fill:#454545; stroke:none;" d="M2033 632L2034 633L2033 632z"/>
<path style="fill:#1d1d1d; stroke:none;" d="M2034 633L2035 634L2034 633z"/>
<path style="fill:#454545; stroke:none;" d="M1795 634L1796 635L1795 634M2035 635L2036 636L2035 635M1796 636L1797 637L1796 636z"/>
<path style="fill:#1d1d1d; stroke:none;" d="M2036 636L2037 637L2036 636z"/>
<path style="fill:#454545; stroke:none;" d="M1797 638L1798 639L1797 638M2037 638L2038 639L2037 638z"/>
<path style="fill:#1d1d1d; stroke:none;" d="M1797 639L1798 640L1797 639M2038 639L2039 640L2038 639z"/>
<path style="fill:#454545; stroke:none;" d="M2039 641L2040 642L2039 641z"/>
<path style="fill:#1d1d1d; stroke:none;" d="M2040 642L2041 643L2040 642z"/>
<path style="fill:#454545; stroke:none;" d="M1799 643L1800 644L1799 643M2041 644L2042 645L2041 644M1800 645L1801 646L1800 645z"/>
<path style="fill:#1d1d1d; stroke:none;" d="M2042 645L2043 646L2042 645M1800 646L1801 647L1800 646z"/>
<path style="fill:#454545; stroke:none;" d="M2043 647L2044 648L2043 647M1801 648L1802 649L1801 648z"/>
<path style="fill:#1d1d1d; stroke:none;" d="M2044 648L2045 649L2044 648z"/>
<path style="fill:#454545; stroke:none;" d="M1802 650L1803 651L1802 650M2045 650L2046 651L2045 650z"/>
<path style="fill:#1d1d1d; stroke:none;" d="M1802 651L1803 652L1802 651M2046 651L2047 652L2046 651z"/>
<path style="fill:#454545; stroke:none;" d="M1803 652L1804 653L1803 652M2047 653L2048 654L2047 653z"/>
<path style="fill:#1d1d1d; stroke:none;" d="M2048 654L2049 655L2048 654z"/>
<path style="fill:#454545; stroke:none;" d="M1804 655L1805 656L1804 655z"/>
<path style="fill:#1d1d1d; stroke:none;" d="M1804 656L1805 657L1804 656z"/>
<path style="fill:#454545; stroke:none;" d="M2049 656L2050 657L2049 656z"/>
<path style="fill:#1d1d1d; stroke:none;" d="M2050 657L2051 658L2050 657z"/>
<path style="fill:#454545; stroke:none;" d="M1805 658L1806 659L1805 658M2051 659L2052 660L2051 659M1806 660L1807 661L1806 660z"/>
<path style="fill:#1d1d1d; stroke:none;" d="M2052 660L2053 661L2052 660M1806 661L1807 662L1806 661z"/>
<path style="fill:#454545; stroke:none;" d="M2053 662L2054 663L2053 662M1807 663L1808 664L1807 663z"/>
<path style="fill:#1d1d1d; stroke:none;" d="M2054 663L2055 664L2054 663z"/>
<path style="fill:#454545; stroke:none;" d="M1808 665L1809 666L1808 665M2055 665L2056 666L2055 665z"/>
<path style="fill:#1d1d1d; stroke:none;" d="M2056 666L2057 667L2056 666z"/>
<path style="fill:#454545; stroke:none;" d="M1809 668L1810 669L1809 668M2057 668L2058 669L2057 668z"/>
<path style="fill:#1d1d1d; stroke:none;" d="M1809 669L1810 670L1809 669M2058 669L2059 670L2058 669z"/>
<path style="fill:#454545; stroke:none;" d="M1810 671L1811 672L1810 671M2059 671L2060 672L2059 671M1811.33 673.667L1811.67 674.333L1811.33 673.667M2060.33 675.667L2060.67 676.333L2060.33 675.667M1812 676L1813 677L1812 676M1813 679L1814 680L1813 679z"/>
<path style="fill:#1d1d1d; stroke:none;" d="M2061 680L2062 681L2061 680z"/>
<path style="fill:#454545; stroke:none;" d="M2061 681L2061 684L2062 684L2061 681M1814 682L1815 683L1814 682M1815 685L1816 686L1815 685z"/>
<path style="fill:#1d1d1d; stroke:none;" d="M2062 687L2063 688L2062 687z"/>
<path style="fill:#454545; stroke:none;" d="M1816 688L1817 689L1816 688M2062 688L2062 691L2063 691L2062 688M1817 691L1818 692L1817 691M1818.33 694.667L1818.67 695.333L1818.33 694.667z"/>
<path style="fill:#1d1d1d; stroke:none;" d="M2063 695L2064 696L2063 695z"/>
<path style="fill:#454545; stroke:none;" d="M2063 696L2063 700L2064 700L2063 696M1819 698L1820 699L1819 698M1820 701L1821 702L1820 701z"/>
<path style="fill:#1d1d1d; stroke:none;" d="M1820 702L1821 703L1820 702z"/>
<path style="fill:#454545; stroke:none;" d="M1821.33 704.667L1821.67 705.333L1821.33 704.667z"/>
<path style="fill:#1d1d1d; stroke:none;" d="M2064 704L2065 705L2064 704z"/>
<path style="fill:#454545; stroke:none;" d="M2064 706L2064 709L2065 709L2064 706M1822 708L1823 709L1822 708z"/>
<path style="fill:#1d1d1d; stroke:none;" d="M1822 709L1823 710L1822 709z"/>
<path style="fill:#454545; stroke:none;" d="M1823 711L1824 712L1823 711z"/>
<path style="fill:#1d1d1d; stroke:none;" d="M2065 713L2066 714L2065 713z"/>
<path style="fill:#454545; stroke:none;" d="M1824 715L1825 716L1824 715M2065 715L2065 719L2066 719L2065 715M1825 719L1826 720L1825 719z"/>
<path style="fill:#1d1d1d; stroke:none;" d="M1825 720L1826 721L1825 720z"/>
<path style="fill:#454545; stroke:none;" d="M1826.33 722.667L1826.67 723.333L1826.33 722.667z"/>
<path style="fill:#1d1d1d; stroke:none;" d="M2066 723L2067 724L2066 723M1826 724L1827 725L1826 724z"/>
<path style="fill:#454545; stroke:none;" d="M2066 725L2066 729L2067 729L2066 725M1827.33 726.667L1827.67 727.333L1827.33 726.667z"/>
<path style="fill:#1d1d1d; stroke:none;" d="M1827 728L1828 729L1827 728z"/>
<path style="fill:#454545; stroke:none;" d="M1828.33 730.667L1828.67 731.333L1828.33 730.667z"/>
<path style="fill:#1d1d1d; stroke:none;" d="M1828 732L1829 733L1828 732z"/>
<path style="fill:#454545; stroke:none;" d="M1829 735L1830 736L1829 735M2067 735L2067 740L2068 740L2067 735M1830.33 739.667L1830.67 740.333L1830.33 739.667z"/>
<path style="fill:#1d1d1d; stroke:none;" d="M1830 741L1831 742L1830 741z"/>
<path style="fill:#454545; stroke:none;" d="M1831 744L1832 745L1831 744z"/>
<path style="fill:#1d1d1d; stroke:none;" d="M2068 744L2069 745L2068 744z"/>
<path style="fill:#454545; stroke:none;" d="M2068 746L2068 750L2069 750L2068 746M1832.33 748.667L1832.67 749.333L1832.33 748.667M1833.33 754.667L1833.67 755.333L1833.33 754.667z"/>
<path style="fill:#1d1d1d; stroke:none;" d="M2069 755L2070 756L2069 755M1833 756L1834 757L1833 756z"/>
<path style="fill:#454545; stroke:none;" d="M2069 757L2069 762L2070 762L2069 757M1834.33 759.667L1834.67 760.333L1834.33 759.667z"/>
<path style="fill:#1d1d1d; stroke:none;" d="M1834 761L1835 762L1834 761z"/>
<path style="fill:#454545; stroke:none;" d="M1835 764L1835 767L1836 767L1835 764z"/>
<path style="fill:#1d1d1d; stroke:none;" d="M1835 767L1836 768L1835 767M2070 768L2071 769L2070 768z"/>
<path style="fill:#454545; stroke:none;" d="M1836 770L1836 773L1837 773L1836 770M2070 770L2070 775L2071 775L2070 770M1837 777L1837 780L1838 780L1837 777z"/>
<path style="fill:#1d1d1d; stroke:none;" d="M2071 780L2072 781L2071 780z"/>
<path style="fill:#454545; stroke:none;" d="M2071 782L2071 789L2072 789L2071 782M1838 784L1838 787L1839 787L1838 784z"/>
<path style="fill:#1d1d1d; stroke:none;" d="M1838 788L1839 789L1838 788z"/>
<path style="fill:#454545; stroke:none;" d="M1839 793L1839 796L1840 796L1839 793z"/>
<path style="fill:#1d1d1d; stroke:none;" d="M2072 796L2073 797L2072 796M1839 797L1840 798L1839 797z"/>
<path style="fill:#454545; stroke:none;" d="M2072 799L2072 809L2073 809L2072 799M1840 802L1840 806L1841 806L1840 802z"/>
<path style="fill:#1d1d1d; stroke:none;" d="M1840 808L1841 809L1840 808z"/>
<path style="fill:#454545; stroke:none;" d="M1841 815L1841 822L1842 822L1841 815z"/>
<path style="fill:#1d1d1d; stroke:none;" d="M2073 822L2073 826L2074 826L2073 822M1841.33 824.667L1841.67 825.333L1841.33 824.667z"/>
<path style="fill:#454545; stroke:none;" d="M2073 830L2073 857L2074 857L2073 830z"/>
<path style="fill:#1d1d1d; stroke:none;" d="M1841.33 861.667L1841.67 862.333L1841.33 861.667z"/>
<path style="fill:#454545; stroke:none;" d="M1841 865L1841 871L1842 871L1841 865M2073 865L2073 895L2074 895L2073 865z"/>
<path style="fill:#1d1d1d; stroke:none;" d="M1840 877L1841 878L1840 877z"/>
<path style="fill:#454545; stroke:none;" d="M1840 879L1840 883L1841 883L1840 879z"/>
<path style="fill:#1d1d1d; stroke:none;" d="M1839 887L1840 888L1839 887z"/>
<path style="fill:#454545; stroke:none;" d="M1839 889L1839 892L1840 892L1839 889z"/>
<path style="fill:#1d1d1d; stroke:none;" d="M1838 895L1839 896L1838 895z"/>
<path style="fill:#454545; stroke:none;" d="M1838 897L1838 900L1839 900L1838 897z"/>
<path style="fill:#1d1d1d; stroke:none;" d="M2073.33 897.667L2073.67 898.333L2073.33 897.667M1837 902L1838 903L1837 902z"/>
<path style="fill:#454545; stroke:none;" d="M1837.33 903.667L1837.67 904.333L1837.33 903.667M2072 907L2072 910L2073 910L2072 907M1836.33 909.667L1836.67 910.333L1836.33 909.667z"/>
<path style="fill:#1d1d1d; stroke:none;" d="M2072 911L2073 912L2072 911M1835 913L1836 914L1835 913z"/>
<path style="fill:#454545; stroke:none;" d="M2071.33 913.667L2071.67 914.333L2071.33 913.667M1835.33 914.667L1835.67 915.333L1835.33 914.667M2070 916L2071 917L2070 916z"/>
<path style="fill:#1d1d1d; stroke:none;" d="M2070 917L2071 918L2070 917M1834 918L1835 919L1834 918z"/>
<path style="fill:#454545; stroke:none;" d="M2069 918L2070 919L2069 918M1834.33 919.667L1834.67 920.333L1834.33 919.667M2068 919L2069 920L2068 919M2065 921L2066 922L2065 921M2062 922L2063 923L2062 922z"/>
<path style="fill:#1d1d1d; stroke:none;" d="M2063 922L2064 923L2063 922z"/>
<path style="fill:#454545; stroke:none;" d="M2058.67 923.333L2059.33 923.667L2058.67 923.333z"/>
<path style="fill:#1d1d1d; stroke:none;" d="M2060 923L2061 924L2060 923z"/>
<path style="fill:#454545; stroke:none;" d="M1833 924L1834 925L1833 924M2053.67 924.333L2054.33 924.667L2053.67 924.333z"/>
<path style="fill:#1d1d1d; stroke:none;" d="M2055 924L2056 925L2055 924z"/>
<path style="fill:#454545; stroke:none;" d="M2046 925L2046 926L2049 926L2046 925z"/>
<path style="fill:#1d1d1d; stroke:none;" d="M2049 925L2050 926L2049 925z"/>
<path style="fill:#454545; stroke:none;" d="M2039 926L2039 927L2042 927L2039 926z"/>
<path style="fill:#1d1d1d; stroke:none;" d="M2042 926L2043 927L2042 926z"/>
<path style="fill:#454545; stroke:none;" d="M2030 927L2030 928L2034 928L2030 927z"/>
<path style="fill:#1d1d1d; stroke:none;" d="M2035 927L2036 928L2035 927z"/>
<path style="fill:#454545; stroke:none;" d="M1832 928L1833 929L1832 928M2021 928L2021 929L2025 929L2021 928z"/>
<path style="fill:#1d1d1d; stroke:none;" d="M2026 928L2027 929L2026 928z"/>
<path style="fill:#454545; stroke:none;" d="M2012 929L2012 930L2016 930L2012 929M2001 930L2001 931L2006 931L2001 930z"/>
<path style="fill:#1d1d1d; stroke:none;" d="M2006 930L2007 931L2006 930M1831 931L1832 932L1831 931z"/>
<path style="fill:#454545; stroke:none;" d="M1991 931L1991 932L1995 932L1991 931z"/>
<path style="fill:#1d1d1d; stroke:none;" d="M1996 931L1997 932L1996 931z"/>
<path style="fill:#454545; stroke:none;" d="M1831.33 932.667L1831.67 933.333L1831.33 932.667M1980 932L1980 933L1984 933L1980 932z"/>
<path style="fill:#1d1d1d; stroke:none;" d="M1985 932L1986 933L1985 932z"/>
<path style="fill:#454545; stroke:none;" d="M1968 933L1968 934L1973 934L1968 933z"/>
<path style="fill:#1d1d1d; stroke:none;" d="M1974 933L1975 934L1974 933z"/>
<path style="fill:#454545; stroke:none;" d="M1957 934L1957 935L1961 935L1957 934z"/>
<path style="fill:#1d1d1d; stroke:none;" d="M1962 934L1963 935L1962 934z"/>
<path style="fill:#454545; stroke:none;" d="M1945 935L1945 936L1950 936L1945 935z"/>
<path style="fill:#1d1d1d; stroke:none;" d="M1951 935L1952 936L1951 935z"/>
<path style="fill:#454545; stroke:none;" d="M1830 936L1831 937L1830 936M1933 936L1933 937L1938 937L1933 936z"/>
<path style="fill:#1d1d1d; stroke:none;" d="M1939 936L1940 937L1939 936z"/>
<path style="fill:#454545; stroke:none;" d="M1921 937L1921 938L1925 938L1921 937z"/>
<path style="fill:#1d1d1d; stroke:none;" d="M1926.67 937.333L1927.33 937.667L1926.67 937.333z"/>
<path style="fill:#454545; stroke:none;" d="M1908 938L1908 939L1913 939L1908 938z"/>
<path style="fill:#1d1d1d; stroke:none;" d="M1914 938L1915 939L1914 938z"/>
<path style="fill:#454545; stroke:none;" d="M1829 939L1830 940L1829 939M1895 939L1895 940L1900 940L1895 939z"/>
<path style="fill:#1d1d1d; stroke:none;" d="M1901 939L1902 940L1901 939z"/>
<path style="fill:#454545; stroke:none;" d="M1881 940L1881 941L1887 941L1881 940z"/>
<path style="fill:#1d1d1d; stroke:none;" d="M1888 940L1889 941L1888 940z"/>
<path style="fill:#454545; stroke:none;" d="M1828 941L1829 942L1828 941M1867 941L1867 942L1873 942L1867 941z"/>
<path style="fill:#1d1d1d; stroke:none;" d="M1874 941L1875 942L1874 941z"/>
<path style="fill:#454545; stroke:none;" d="M1852 942L1852 943L1858 943L1852 942z"/>
<path style="fill:#1d1d1d; stroke:none;" d="M1860 942L1861 943L1860 942z"/>
<path style="fill:#454545; stroke:none;" d="M1828 943L1829 944L1828 943M1832 943L1832 944L1841 944L1832 943z"/>
<path style="fill:#1d1d1d; stroke:none;" d="M1843 943L1844 944L1843 943z"/>
</svg>
