<?xml version="1.0" standalone="yes"?>
<svg xmlns="http://www.w3.org/2000/svg" width="2118" height="1206">
<path style="fill:#ffffff; stroke:none;" d="M0 0L0 1206L2118 1206L2118 0L0 0z"/>
<path style="fill:#020202; stroke:none;" d="M932 200C942.828 199.049 952.836 193.854 964 193.089C985.321 191.629 1002.74 198.314 1023 203L1023 204C1002.13 199.172 982.901 191.874 961 194.718C954.666 195.541 946.446 195.768 941.105 199.703C936.829 202.853 935.461 208.695 932.641 213C929.619 217.614 925.818 221.399 925 227L937 227L937 226L926 226C930.295 219.102 935.772 205.707 942.213 200.995C958.011 189.436 987.856 195.312 1005 200.011C1013.14 202.241 1021.53 204.908 1029 208.89C1031.35 210.14 1035.57 211.98 1035.69 215.104C1035.88 219.911 1027.52 230.688 1022.96 231.829C1017.96 233.08 1011.03 230.569 1006 229.87C995.68 228.435 985.412 228 975 228L975 229C986.103 229 996.991 229.799 1008 231.282C1012.71 231.917 1019.36 234.633 1024 233.168C1031.32 230.857 1038.98 218.288 1037 211L1043 212C1049.1 185.378 1058.84 158.733 1072.43 135C1078.29 124.758 1091.97 114.813 1095 104C1081 100.057 1066.58 97 1052 97L1052 98L1094 105C1067.25 131.749 1047.54 173.319 1042 211C1005.03 195.067 972.729 185.559 933 199C936.383 156.194 951.743 112.879 997 100.155C1014.41 95.2611 1033.1 97 1051 97C1043.36 93.7943 1031.27 96 1023 96C996.303 96 968.265 105.604 951.927 128C938.801 145.995 932.454 177.98 932 200z"/>
<path style="fill:#141414; stroke:none;" d="M1010.67 97.3334L1011.33 97.6666L1010.67 97.3334z"/>
<path style="fill:#212121; stroke:none;" d="M1012 97L1012 98L1016 98L1012 97z"/>
<path style="fill:#333333; stroke:none;" d="M933 198C946.128 196.684 958.442 191.906 972 191.209C996.284 189.961 1020.12 199.887 1041 211C1049.08 192.232 1052.69 171.771 1061.31 153C1069.93 134.231 1081.75 121.021 1094 105C1048.3 95.5734 980.965 84.5554 951.229 132C938.971 151.559 938.382 176.154 933 198z"/>
<path style="fill:#212121; stroke:none;" d="M1044 97L1044 98L1049 98L1044 97z"/>
<path style="fill:#141414; stroke:none;" d="M1049 97L1049 98L1052 98L1049 97M1003 98L1004 99L1003 98z"/>
<path style="fill:#212121; stroke:none;" d="M1004.67 98.3334L1005.33 98.6666L1004.67 98.3334M1059.67 98.3334L1060.33 98.6666L1059.67 98.3334z"/>
<path style="fill:#141414; stroke:none;" d="M1061.67 98.3334L1062.33 98.6666L1061.67 98.3334z"/>
<path style="fill:#212121; stroke:none;" d="M999.667 99.3334L1000.33 99.6666L999.667 99.3334M1067.67 99.3334L1068.33 99.6666L1067.67 99.3334z"/>
<path style="fill:#141414; stroke:none;" d="M1069 99L1070 100L1069 99M995 100L996 101L995 100z"/>
<path style="fill:#212121; stroke:none;" d="M996 100L997 101L996 100M1073 100L1074 101L1073 100z"/>
<path style="fill:#141414; stroke:none;" d="M1074 100L1075 101L1074 100M992 101L993 102L992 101z"/>
<path style="fill:#212121; stroke:none;" d="M1078 101L1079 102L1078 101z"/>
<path style="fill:#141414; stroke:none;" d="M1079 101L1080 102L1079 101z"/>
<path style="fill:#212121; stroke:none;" d="M990 102L991 103L990 102M1082 102L1083 103L1082 102z"/>
<path style="fill:#141414; stroke:none;" d="M1083 102L1084 103L1083 102M987 103L988 104L987 103z"/>
<path style="fill:#212121; stroke:none;" d="M1087 103L1088 104L1087 103z"/>
<path style="fill:#141414; stroke:none;" d="M1088 103L1089 104L1088 103M985 104L986 105L985 104M1091 104L1092 105L1091 104z"/>
<path style="fill:#212121; stroke:none;" d="M983 105L984 106L983 105M981 106L982 107L981 106M979 107L980 108L979 107z"/>
<path style="fill:#141414; stroke:none;" d="M977 108L978 109L977 108M975 109L976 110L975 109z"/>
<path style="fill:#212121; stroke:none;" d="M1089 109L1090 110L1089 109M974 110L975 111L974 110M1088 110L1089 111L1088 110z"/>
<path style="fill:#141414; stroke:none;" d="M972 111L973 112L972 111z"/>
<path style="fill:#212121; stroke:none;" d="M1087 111L1088 112L1087 111z"/>
<path style="fill:#020202; stroke:none;" d="M1604 216L1604 217L1567 210L1567 211C1583.3 211.135 1602.94 216.589 1616.99 224.88C1625.78 230.059 1617.66 243.545 1609.96 246.532C1605.56 248.238 1598.55 245.764 1594 245.13C1583 243.598 1572.1 243 1561 243L1561 244C1571.76 244 1582.34 244.633 1593 246.13C1598.09 246.846 1604.91 249.536 1609.99 248.477C1617.6 246.886 1624.92 233.059 1623 226C1632.74 228.053 1633.66 210.092 1636 203C1642.51 183.276 1650.07 163.715 1661.06 146C1666.53 137.199 1678.28 128.697 1681 119C1638.98 107.164 1578.79 101.277 1545.01 135.015C1529.2 150.813 1525.61 172.951 1521.4 194C1520.67 197.663 1515.93 211.34 1519.62 213.879C1521.93 215.47 1525.78 213.231 1528 212.435C1534.41 210.141 1541.26 209.092 1548 208.286C1567.64 205.937 1585.24 211.66 1604 216z"/>
<path style="fill:#212121; stroke:none;" d="M1086 112L1087 113L1086 112z"/>
<path style="fill:#141414; stroke:none;" d="M1597 112L1598 113L1597 112z"/>
<path style="fill:#212121; stroke:none;" d="M1598 112L1598 113L1602 113L1598 112z"/>
<path style="fill:#333333; stroke:none;" d="M1520 213C1533.22 210.726 1545.24 206.179 1559 206.179C1584.56 206.179 1605.23 216.187 1628 226C1634 197.001 1645.53 166.826 1661.7 142C1666.99 133.871 1674.48 127.832 1680 120C1634.94 110.7 1567.89 99.5422 1538.09 146C1531.66 156.029 1528.75 167.539 1526.12 179C1523.6 189.972 1520.23 201.714 1520 213z"/>
<path style="fill:#212121; stroke:none;" d="M1630 112L1630 113L1635 113L1630 112z"/>
<path style="fill:#141414; stroke:none;" d="M1635 112L1635 113L1638 113L1635 112z"/>
<path style="fill:#212121; stroke:none;" d="M969 113L970 114L969 113M1085 113L1086 114L1085 113z"/>
<path style="fill:#141414; stroke:none;" d="M1590 113L1591 114L1590 113z"/>
<path style="fill:#212121; stroke:none;" d="M1591 113L1592 114L1591 113M1645.67 113.333L1646.33 113.667L1645.67 113.333z"/>
<path style="fill:#141414; stroke:none;" d="M1647.67 113.333L1648.33 113.667L1647.67 113.333z"/>
<path style="fill:#212121; stroke:none;" d="M1084 114L1085 115L1084 114z"/>
<path style="fill:#141414; stroke:none;" d="M1585 114L1586 115L1585 114z"/>
<path style="fill:#212121; stroke:none;" d="M1586 114L1587 115L1586 114M1653.67 114.333L1654.33 114.667L1653.67 114.333z"/>
<path style="fill:#141414; stroke:none;" d="M1655 114L1656 115L1655 114M966 115L967 116L966 115z"/>
<path style="fill:#212121; stroke:none;" d="M1582 115L1583 116L1582 115M1659 115L1660 116L1659 115z"/>
<path style="fill:#141414; stroke:none;" d="M1660 115L1661 116L1660 115z"/>
<path style="fill:#212121; stroke:none;" d="M965 116L966 117L965 116M1579 116L1580 117L1579 116M1664 116L1665 117L1664 116z"/>
<path style="fill:#141414; stroke:none;" d="M1665 116L1666 117L1665 116M1576 117L1577 118L1576 117z"/>
<path style="fill:#212121; stroke:none;" d="M1669 117L1670 118L1669 117z"/>
<path style="fill:#141414; stroke:none;" d="M1081 118L1082 119L1081 118z"/>
<path style="fill:#212121; stroke:none;" d="M1574 118L1575 119L1574 118M1673 118L1674 119L1673 118z"/>
<path style="fill:#141414; stroke:none;" d="M1674 118L1675 119L1674 118z"/>
<path style="fill:#212121; stroke:none;" d="M1080 119L1081 120L1080 119z"/>
<path style="fill:#141414; stroke:none;" d="M1571 119L1572 120L1571 119z"/>
<path style="fill:#212121; stroke:none;" d="M1677 119L1678 120L1677 119z"/>
<path style="fill:#141414; stroke:none;" d="M960 120L961 121L960 120M1569 120L1570 121L1569 120M959 121L960 122L959 121M1567 121L1568 122L1567 121M1679 121L1680 122L1679 121M958 122L959 123L958 122M1078 122L1079 123L1078 122M1565 122L1566 123L1565 122z"/>
<path style="fill:#212121; stroke:none;" d="M1077 123L1078 124L1077 123M1562 124L1563 125L1562 124z"/>
<path style="fill:#141414; stroke:none;" d="M1076 125L1077 126L1076 125z"/>
<path style="fill:#212121; stroke:none;" d="M1560 125L1561 126L1560 125M1075 126L1076 127L1075 126z"/>
<path style="fill:#141414; stroke:none;" d="M1558 126L1559 127L1558 126z"/>
<path style="fill:#212121; stroke:none;" d="M954 127L955 128L954 127M1557 127L1558 128L1557 127z"/>
<path style="fill:#141414; stroke:none;" d="M953 128L954 129L953 128M1074 128L1075 129L1074 128M1555 128L1556 129L1555 128z"/>
<path style="fill:#212121; stroke:none;" d="M1073 129L1074 130L1073 129M1554 129L1555 130L1554 129z"/>
<path style="fill:#141414; stroke:none;" d="M951 131L952 132L951 131z"/>
<path style="fill:#212121; stroke:none;" d="M1072 131L1073 132L1072 131z"/>
<path style="fill:#141414; stroke:none;" d="M1551 131L1552 132L1551 131z"/>
<path style="fill:#212121; stroke:none;" d="M1550 132L1551 133L1550 132z"/>
<path style="fill:#141414; stroke:none;" d="M1668 132L1669 133L1668 132z"/>
<path style="fill:#212121; stroke:none;" d="M950 133L951 134L950 133z"/>
<path style="fill:#141414; stroke:none;" d="M1071 133L1072 134L1071 133z"/>
<path style="fill:#212121; stroke:none;" d="M1667 133L1668 134L1667 133z"/>
<path style="fill:#141414; stroke:none;" d="M948 136L949 137L948 136z"/>
<path style="fill:#212121; stroke:none;" d="M1069 136L1070 137L1069 136z"/>
<path style="fill:#141414; stroke:none;" d="M1665 136L1666 137L1665 136z"/>
<path style="fill:#212121; stroke:none;" d="M1664 137L1665 138L1664 137z"/>
<path style="fill:#141414; stroke:none;" d="M947 138L948 139L947 138z"/>
<path style="fill:#212121; stroke:none;" d="M1068 138L1069 139L1068 138z"/>
<path style="fill:#141414; stroke:none;" d="M1067 140L1068 141L1067 140z"/>
<path style="fill:#212121; stroke:none;" d="M1662 140L1663 141L1662 140M946 141L947 142L946 141M1541 141L1542 142L1541 141z"/>
<path style="fill:#141414; stroke:none;" d="M1066 142L1067 143L1066 142M1540 142L1541 143L1540 142M945 143L946 144L945 143z"/>
<path style="fill:#212121; stroke:none;" d="M1660 143L1661 144L1660 143z"/>
<path style="fill:#141414; stroke:none;" d="M1065 144L1066 145L1065 144z"/>
<path style="fill:#212121; stroke:none;" d="M1538 145L1539 146L1538 145z"/>
<path style="fill:#141414; stroke:none;" d="M1659 145L1660 146L1659 145z"/>
<path style="fill:#212121; stroke:none;" d="M944 146L945 147L944 146z"/>
<path style="fill:#141414; stroke:none;" d="M1064 146L1065 147L1064 146M1063 148L1064 149L1063 148M1536 148L1537 149L1536 148z"/>
<path style="fill:#212121; stroke:none;" d="M1657 148L1658 149L1657 148M943 149L944 150L943 149M1062 150L1063 151L1062 150M1535 150L1536 151L1535 150z"/>
<path style="fill:#141414; stroke:none;" d="M1656 150L1657 151L1656 150M942 152L943 153L942 152z"/>
<path style="fill:#212121; stroke:none;" d="M1061 152L1062 153L1061 152M1534 152L1535 153L1534 152z"/>
<path style="fill:#141414; stroke:none;" d="M1655 152L1656 153L1655 152z"/>
<path style="fill:#212121; stroke:none;" d="M1060 154L1061 155L1060 154M1533 154L1534 155L1533 154M1653 155L1654 156L1653 155M941 156L942 157L941 156z"/>
<path style="fill:#141414; stroke:none;" d="M1532 156L1533 157L1532 156M1059 157L1060 158L1059 157z"/>
<path style="fill:#212121; stroke:none;" d="M1652 157L1653 158L1652 157M1058 159L1059 160L1058 159M1531 159L1532 160L1531 159M1651 159L1652 160L1651 159z"/>
<path style="fill:#141414; stroke:none;" d="M940 160L941 161L940 160z"/>
<path style="fill:#212121; stroke:none;" d="M940 161L941 162L940 161M1057 161L1058 162L1057 161z"/>
<path style="fill:#141414; stroke:none;" d="M1530 161L1531 162L1530 161z"/>
<path style="fill:#212121; stroke:none;" d="M1650 161L1651 162L1650 161M1530 162L1531 163L1530 162M1649 163L1650 164L1649 163z"/>
<path style="fill:#141414; stroke:none;" d="M939 164L940 165L939 164M1056 164L1057 165L1056 164M1529 164L1530 165L1529 164z"/>
<path style="fill:#212121; stroke:none;" d="M939 165L940 166L939 165M1529 165L1530 166L1529 165M1055 166L1056 167L1055 166z"/>
<path style="fill:#141414; stroke:none;" d="M1528 168L1529 169L1528 168M1647 168L1648 169L1647 168M938 169L939 170L938 169z"/>
<path style="fill:#212121; stroke:none;" d="M1054 169L1055 170L1054 169M938 170L939 171L938 170M1646 170L1647 171L1646 170z"/>
<path style="fill:#141414; stroke:none;" d="M1053 172L1054 173L1053 172z"/>
<path style="fill:#212121; stroke:none;" d="M1527 172L1528 173L1527 172M1645 172L1646 173L1645 172z"/>
<path style="fill:#141414; stroke:none;" d="M937 173L938 174L937 173z"/>
<path style="fill:#212121; stroke:none;" d="M937 174L938 175L937 174M1052 174L1053 175L1052 174z"/>
<path style="fill:#141414; stroke:none;" d="M1052 175L1053 176L1052 175M1644 175L1645 176L1644 175M1526 176L1527 177L1526 176z"/>
<path style="fill:#212121; stroke:none;" d="M1051 177L1052 178L1051 177M1526 177L1527 178L1526 177M1643 177L1644 178L1643 177z"/>
<path style="fill:#141414; stroke:none;" d="M936 178L937 179L936 178z"/>
<path style="fill:#212121; stroke:none;" d="M936 179L937 180L936 179M1642 179L1643 180L1642 179M1050 180L1051 181L1050 180z"/>
<path style="fill:#141414; stroke:none;" d="M1525 180L1526 181L1525 180M1642 180L1643 181L1642 180z"/>
<path style="fill:#212121; stroke:none;" d="M1525 181L1526 182L1525 181M1641 182L1642 183L1641 182z"/>
<path style="fill:#141414; stroke:none;" d="M935 183L936 184L935 183z"/>
<path style="fill:#212121; stroke:none;" d="M1049 183L1050 184L1049 183M935 184L936 185L935 184z"/>
<path style="fill:#141414; stroke:none;" d="M1524 185L1525 186L1524 185M1640 185L1641 186L1640 185z"/>
<path style="fill:#212121; stroke:none;" d="M1048 186L1049 187L1048 186M1524 186L1525 187L1524 186z"/>
<path style="fill:#141414; stroke:none;" d="M1048 187L1049 188L1048 187z"/>
<path style="fill:#212121; stroke:none;" d="M1639 187L1640 188L1639 187z"/>
<path style="fill:#141414; stroke:none;" d="M934 188L935 189L934 188z"/>
<path style="fill:#212121; stroke:none;" d="M934.333 189.667L934.667 190.333L934.333 189.667M1047 189L1048 190L1047 189z"/>
<path style="fill:#141414; stroke:none;" d="M1047 190L1048 191L1047 190z"/>
<path style="fill:#212121; stroke:none;" d="M1523 190L1524 191L1523 190M1638 190L1639 191L1638 190M969 191L969 192L977 192L969 191M955.667 192.333L956.333 192.667L955.667 192.333z"/>
<path style="fill:#141414; stroke:none;" d="M957.667 192.333L958.333 192.667L957.667 192.333M986.667 192.333L987.333 192.667L986.667 192.333z"/>
<path style="fill:#212121; stroke:none;" d="M988.667 192.333L989.333 192.667L988.667 192.333M949.667 193.333L950.333 193.667L949.667 193.333z"/>
<path style="fill:#141414; stroke:none;" d="M951 193L952 194L951 193M993.667 193.333L994.333 193.667L993.667 193.333z"/>
<path style="fill:#212121; stroke:none;" d="M995 193L996 194L995 193M1046 193L1047 194L1046 193M1637 193L1638 194L1637 193z"/>
<path style="fill:#141414; stroke:none;" d="M933 194L934 195L933 194z"/>
<path style="fill:#212121; stroke:none;" d="M945 194L946 195L945 194z"/>
<path style="fill:#141414; stroke:none;" d="M946 194L947 195L946 194M999 194L1000 195L999 194z"/>
<path style="fill:#212121; stroke:none;" d="M1000 194L1001 195L1000 194z"/>
<path style="fill:#141414; stroke:none;" d="M1522 194L1523 195L1522 194z"/>
<path style="fill:#212121; stroke:none;" d="M933.333 195.667L933.667 196.333L933.333 195.667z"/>
<path style="fill:#141414; stroke:none;" d="M942 195L943 196L942 195M963.667 195.333L964.333 195.667L963.667 195.333z"/>
<path style="fill:#212121; stroke:none;" d="M965 195L965 196L977 196L965 195z"/>
<path style="fill:#141414; stroke:none;" d="M977 195L977 196L980 196L977 195M1003 195L1004 196L1003 195z"/>
<path style="fill:#212121; stroke:none;" d="M1004 195L1005 196L1004 195M1522.33 195.667L1522.67 196.333L1522.33 195.667M939 196L940 197L939 196z"/>
<path style="fill:#141414; stroke:none;" d="M955 196L956 197L955 196z"/>
<path style="fill:#212121; stroke:none;" d="M956.667 196.333L957.333 196.667L956.667 196.333z"/>
<path style="fill:#333333; stroke:none;" d="M926 226C948.329 226 970.743 226.564 993 228.089C1002.2 228.72 1011.86 232.008 1021 231.852C1026.85 231.752 1036.19 221.075 1035.75 215.093C1035.15 206.988 1011.36 201.893 1005 200.152C988.644 195.675 957.224 190.144 942.133 200.843C935.911 205.254 929.851 219.24 926 226z"/>
<path style="fill:#212121; stroke:none;" d="M986.667 196.333L987.333 196.667L986.667 196.333z"/>
<path style="fill:#141414; stroke:none;" d="M988 196L989 197L988 196z"/>
<path style="fill:#212121; stroke:none;" d="M1007 196L1008 197L1007 196M1045 196L1046 197L1045 196M1636 196L1637 197L1636 196M937 197L938 198L937 197z"/>
<path style="fill:#141414; stroke:none;" d="M951 197L952 198L951 197z"/>
<path style="fill:#212121; stroke:none;" d="M952 197L953 198L952 197M993 197L994 198L993 197z"/>
<path style="fill:#141414; stroke:none;" d="M994 197L995 198L994 197M1010 197L1011 198L1010 197M1045 197L1046 198L1045 197M933 198L934 199L933 198z"/>
<path style="fill:#212121; stroke:none;" d="M934 198L935 199L934 198M947 198L948 199L947 198M998 198L999 199L998 198z"/>
<path style="fill:#141414; stroke:none;" d="M1013 198L1014 199L1013 198z"/>
<path style="fill:#212121; stroke:none;" d="M944 199L945 200L944 199M1002 199L1003 200L1002 199z"/>
<path style="fill:#141414; stroke:none;" d="M1003 199L1004 200L1003 199M1016 199L1017 200L1016 199M1521 199L1522 200L1521 199z"/>
<path style="fill:#212121; stroke:none;" d="M1635 199L1636 200L1635 199M1006 200L1007 201L1006 200M1019 200L1020 201L1019 200M1044 200L1045 201L1044 200M1521.33 200.667L1521.67 201.333L1521.33 200.667z"/>
<path style="fill:#141414; stroke:none;" d="M940 201L941 202L940 201z"/>
<path style="fill:#212121; stroke:none;" d="M1009 201L1010 202L1009 201z"/>
<path style="fill:#141414; stroke:none;" d="M1010 201L1011 202L1010 201z"/>
<path style="fill:#212121; stroke:none;" d="M1022 201L1023 202L1022 201M1012 202L1013 203L1012 202z"/>
<path style="fill:#141414; stroke:none;" d="M1013 202L1014 203L1013 202M1024 202L1025 203L1024 202z"/>
<path style="fill:#212121; stroke:none;" d="M1634 202L1635 203L1634 202M1015 203L1016 204L1015 203z"/>
<path style="fill:#141414; stroke:none;" d="M1016 203L1017 204L1016 203z"/>
<path style="fill:#212121; stroke:none;" d="M1027 203L1028 204L1027 203M1043 203L1044 204L1043 203M1018 204L1019 205L1018 204z"/>
<path style="fill:#ffffff; stroke:none;" d="M1023 204L1023 205L1037 211L1037 210L1023 204z"/>
<path style="fill:#212121; stroke:none;" d="M1029 204L1030 205L1029 204z"/>
<path style="fill:#141414; stroke:none;" d="M1043 204L1044 205L1043 204z"/>
<path style="fill:#212121; stroke:none;" d="M938 205L939 206L938 205z"/>
<path style="fill:#141414; stroke:none;" d="M1021 205L1022 206L1021 205z"/>
<path style="fill:#212121; stroke:none;" d="M1031 205L1032 206L1031 205z"/>
<path style="fill:#141414; stroke:none;" d="M1520 205L1521 206L1520 205z"/>
<path style="fill:#212121; stroke:none;" d="M1633 205L1634 206L1633 205M1023 206L1024 207L1023 206M1033 206L1034 207L1033 206M1520 206L1521 207L1520 206M1555 206L1555 207L1563 207L1555 206z"/>
<path style="fill:#141414; stroke:none;" d="M1633 206L1634 207L1633 206M937 207L938 208L937 207M1026 207L1027 208L1026 207z"/>
<path style="fill:#212121; stroke:none;" d="M1042 207L1043 208L1042 207M1542.67 207.333L1543.33 207.667L1542.67 207.333z"/>
<path style="fill:#141414; stroke:none;" d="M1544.67 207.333L1545.33 207.667L1544.67 207.333M1572.67 207.333L1573.33 207.667L1572.67 207.333z"/>
<path style="fill:#212121; stroke:none;" d="M1574.67 207.333L1575.33 207.667L1574.67 207.333z"/>
<path style="fill:#141414; stroke:none;" d="M1028 208L1029 209L1028 208M1036 208L1037 209L1036 208z"/>
<path style="fill:#212121; stroke:none;" d="M1536 208L1537 209L1536 208z"/>
<path style="fill:#141414; stroke:none;" d="M1537 208L1538 209L1537 208M1580 208L1581 209L1580 208z"/>
<path style="fill:#212121; stroke:none;" d="M1581 208L1582 209L1581 208z"/>
<path style="fill:#141414; stroke:none;" d="M936 209L937 210L936 209M1030 209L1031 210L1030 209z"/>
<path style="fill:#212121; stroke:none;" d="M1038 209L1039 210L1038 209M1531 209L1532 210L1531 209z"/>
<path style="fill:#141414; stroke:none;" d="M1532 209L1533 210L1532 209z"/>
<path style="fill:#020202; stroke:none;" d="M1512 242L1523 242L1523 241L1513 241C1515.95 233.983 1522.83 220.095 1529.04 215.703C1538.6 208.955 1554.9 210 1566 210C1544.24 200.867 1513.7 218.622 1512 242z"/>
<path style="fill:#141414; stroke:none;" d="M1585 209L1586 210L1585 209z"/>
<path style="fill:#212121; stroke:none;" d="M1586 209L1587 210L1586 209M1632 209L1633 210L1632 209M1041 210L1042 211L1041 210M1528 210L1529 211L1528 210z"/>
<path style="fill:#141414; stroke:none;" d="M1549 210L1549 211L1552 211L1549 210z"/>
<path style="fill:#212121; stroke:none;" d="M1552 210L1552 211L1564 211L1552 210z"/>
<path style="fill:#141414; stroke:none;" d="M1564 210L1564 211L1567 211L1564 210M1589 210L1590 211L1589 210z"/>
<path style="fill:#212121; stroke:none;" d="M1590 210L1591 211L1590 210z"/>
<path style="fill:#141414; stroke:none;" d="M935 211L936 212L935 211z"/>
<path style="fill:#212121; stroke:none;" d="M1033 211L1034 212L1033 211z"/>
<path style="fill:#141414; stroke:none;" d="M1519 211L1520 212L1519 211z"/>
<path style="fill:#212121; stroke:none;" d="M1525 211L1526 212L1525 211z"/>
<path style="fill:#141414; stroke:none;" d="M1542 211L1543 212L1542 211z"/>
<path style="fill:#212121; stroke:none;" d="M1543 211L1544 212L1543 211z"/>
<path style="fill:#333333; stroke:none;" d="M1513 241C1535.23 241 1557.87 241.064 1580 243.17C1588.12 243.943 1602.33 249.089 1609.99 246.382C1616.14 244.207 1621.63 233.981 1623 228C1601.37 216.62 1579.41 211 1555 211C1546.83 211 1535.18 210.996 1528.21 216.005C1522.6 220.045 1515.49 234.534 1513 241z"/>
<path style="fill:#212121; stroke:none;" d="M1572.67 211.333L1573.33 211.667L1572.67 211.333z"/>
<path style="fill:#141414; stroke:none;" d="M1574 211L1575 212L1574 211M1593 211L1594 212L1593 211M1035 212L1036 213L1035 212z"/>
<path style="fill:#212121; stroke:none;" d="M1519 212L1521 214L1519 212M1523 212L1524 213L1523 212z"/>
<path style="fill:#141414; stroke:none;" d="M1537 212L1538 213L1537 212z"/>
<path style="fill:#212121; stroke:none;" d="M1538 212L1539 213L1538 212M1579 212L1580 213L1579 212z"/>
<path style="fill:#141414; stroke:none;" d="M1580 212L1581 213L1580 212M1596 212L1597 213L1596 212z"/>
<path style="fill:#212121; stroke:none;" d="M1597 212L1598 213L1597 212M1631 212L1632 213L1631 212M934 213L935 214L934 213M1036 213L1037 214L1036 213z"/>
<path style="fill:#141414; stroke:none;" d="M1519 213L1520 214L1519 213M1521 213L1522 214L1521 213M1533 213L1534 214L1533 213z"/>
<path style="fill:#212121; stroke:none;" d="M1534 213L1535 214L1534 213M1584 213L1585 214L1584 213z"/>
<path style="fill:#141414; stroke:none;" d="M1585 213L1586 214L1585 213M1599 213L1600 214L1599 213z"/>
<path style="fill:#212121; stroke:none;" d="M1600 213L1601 214L1600 213z"/>
<path style="fill:#141414; stroke:none;" d="M1631 213L1632 214L1631 213z"/>
<path style="fill:#212121; stroke:none;" d="M1530 214L1531 215L1530 214M1588 214L1589 215L1588 214z"/>
<path style="fill:#141414; stroke:none;" d="M1589 214L1590 215L1589 214M1602 214L1603 215L1602 214z"/>
<path style="fill:#212121; stroke:none;" d="M1603 214L1604 215L1603 214M1036 215L1037 216L1036 215M1528 215L1529 216L1528 215M1592 215L1593 216L1592 215z"/>
<path style="fill:#141414; stroke:none;" d="M1605 215L1606 216L1605 215z"/>
<path style="fill:#212121; stroke:none;" d="M932 216L933 217L932 216M1595 216L1596 217L1595 216z"/>
<path style="fill:#141414; stroke:none;" d="M1596 216L1597 217L1596 216z"/>
<path style="fill:#212121; stroke:none;" d="M1608 216L1609 217L1608 216M1630 216L1631 217L1630 216z"/>
<path style="fill:#141414; stroke:none;" d="M1035 217L1036 218L1035 217M1599 217L1600 218L1599 217z"/>
<path style="fill:#ffffff; stroke:none;" d="M1604 217L1604 218L1614 221L1614 220L1604 217z"/>
<path style="fill:#141414; stroke:none;" d="M1610 217L1611 218L1610 217z"/>
<path style="fill:#212121; stroke:none;" d="M1525 218L1526 219L1525 218z"/>
<path style="fill:#141414; stroke:none;" d="M1602 218L1603 219L1602 218z"/>
<path style="fill:#212121; stroke:none;" d="M1613 218L1614 219L1613 218M930 219L931 220L930 219M1604 219L1605 220L1604 219z"/>
<path style="fill:#141414; stroke:none;" d="M1605 219L1606 220L1605 219z"/>
<path style="fill:#212121; stroke:none;" d="M1615 219L1616 220L1615 219M1629 219L1630 220L1629 219z"/>
<path style="fill:#141414; stroke:none;" d="M929 220L930 221L929 220M1033 220L1034 221L1033 220M1524 220L1525 221L1524 220z"/>
<path style="fill:#212121; stroke:none;" d="M1607 220L1608 221L1607 220z"/>
<path style="fill:#141414; stroke:none;" d="M1617 220L1618 221L1617 220M1629 220L1630 221L1629 220z"/>
<path style="fill:#212121; stroke:none;" d="M1609 221L1610 222L1609 221z"/>
<path style="fill:#ffffff; stroke:none;" d="M1614.67 221.333L1615.33 221.667L1614.67 221.333z"/>
<path style="fill:#212121; stroke:none;" d="M1619 221L1620 222L1619 221z"/>
<path style="fill:#141414; stroke:none;" d="M1612 222L1613 223L1612 222z"/>
<path style="fill:#ffffff; stroke:none;" d="M1616.67 222.333L1617.33 222.667L1616.67 222.333z"/>
<path style="fill:#212121; stroke:none;" d="M1621 222L1622 223L1621 222M927 223L928 224L927 223z"/>
<path style="fill:#141414; stroke:none;" d="M1031 223L1032 224L1031 223z"/>
<path style="fill:#212121; stroke:none;" d="M1523 223L1524 224L1523 223z"/>
<path style="fill:#141414; stroke:none;" d="M1614 223L1615 224L1614 223z"/>
<path style="fill:#ffffff; stroke:none;" d="M1618 223L1618 224L1623 226L1623 225L1618 223z"/>
<path style="fill:#212121; stroke:none;" d="M1628 223L1629 224L1628 223z"/>
<path style="fill:#141414; stroke:none;" d="M926 224L927 225L926 224M1616 224L1617 225L1616 224M1624 224L1625 225L1624 224z"/>
<path style="fill:#212121; stroke:none;" d="M1522 225L1523 226L1522 225z"/>
<path style="fill:#141414; stroke:none;" d="M1618 225L1619 226L1618 225z"/>
<path style="fill:#212121; stroke:none;" d="M1626 225L1627 226L1626 225z"/>
<path style="fill:#141414; stroke:none;" d="M937 226L937 227L945 227L937 226z"/>
<path style="fill:#212121; stroke:none;" d="M945 226L945 227L954 227L945 226z"/>
<path style="fill:#141414; stroke:none;" d="M1029 226L1030 227L1029 226z"/>
<path style="fill:#020202; stroke:none;" d="M941 227L941 228L972 228L941 227z"/>
<path style="fill:#141414; stroke:none;" d="M972 227L972 228L978 228L972 227z"/>
<path style="fill:#212121; stroke:none;" d="M978 227L978 228L983 228L978 227M1028 227L1029 228L1028 227M1621 227L1622 228L1621 227z"/>
<path style="fill:#141414; stroke:none;" d="M992.667 228.333L993.333 228.667L992.667 228.333z"/>
<path style="fill:#212121; stroke:none;" d="M994 228L994 229L997 229L994 228z"/>
<path style="fill:#141414; stroke:none;" d="M1520 228L1521 229L1520 228M1003 229L1004 230L1003 229z"/>
<path style="fill:#212121; stroke:none;" d="M1004.67 229.333L1005.33 229.667L1004.67 229.333z"/>
<path style="fill:#141414; stroke:none;" d="M1010 230L1011 231L1010 230z"/>
<path style="fill:#212121; stroke:none;" d="M1011.67 230.333L1012.33 230.667L1011.67 230.333z"/>
<path style="fill:#141414; stroke:none;" d="M1026 230L1027 231L1026 230z"/>
<path style="fill:#212121; stroke:none;" d="M1519 230L1520 231L1519 230z"/>
<path style="fill:#141414; stroke:none;" d="M1016 231L1017 232L1016 231z"/>
<path style="fill:#212121; stroke:none;" d="M1017 231L1018 232L1017 231z"/>
<path style="fill:#141414; stroke:none;" d="M1025 231L1026 232L1025 231M1518 231L1519 232L1518 231M1022.67 232.333L1023.33 232.667L1022.67 232.333z"/>
<path style="fill:#212121; stroke:none;" d="M1621 232L1622 233L1621 232M1517 233L1518 234L1517 233z"/>
<path style="fill:#141414; stroke:none;" d="M1516 234L1517 235L1516 234M1620 234L1621 235L1620 234z"/>
<path style="fill:#212121; stroke:none;" d="M1514 237L1515 238L1514 237z"/>
<path style="fill:#141414; stroke:none;" d="M1618 237L1619 238L1618 237M1513 238L1514 239L1513 238z"/>
<path style="fill:#212121; stroke:none;" d="M1617 238L1618 239L1617 238z"/>
<path style="fill:#141414; stroke:none;" d="M1616 240L1617 241L1616 240M1523 241L1523 242L1531 242L1523 241z"/>
<path style="fill:#212121; stroke:none;" d="M1531 241L1531 242L1541 242L1531 241M1615 241L1616 242L1615 241z"/>
<path style="fill:#020202; stroke:none;" d="M1527 242L1527 243L1559 243L1527 242z"/>
<path style="fill:#141414; stroke:none;" d="M1559 242L1559 243L1565 243L1559 242z"/>
<path style="fill:#212121; stroke:none;" d="M1565 242L1565 243L1569 243L1565 242z"/>
<path style="fill:#141414; stroke:none;" d="M1578 243L1578 244L1581 244L1578 243z"/>
<path style="fill:#212121; stroke:none;" d="M1581.67 243.333L1582.33 243.667L1581.67 243.333z"/>
<path style="fill:#141414; stroke:none;" d="M1589 244L1590 245L1589 244z"/>
<path style="fill:#212121; stroke:none;" d="M1590.67 244.333L1591.33 244.667L1590.67 244.333z"/>
<path style="fill:#141414; stroke:none;" d="M1613 244L1614 245L1613 244M1596.67 245.333L1597.33 245.667L1596.67 245.333z"/>
<path style="fill:#212121; stroke:none;" d="M1598 245L1599 246L1598 245M1612 245L1613 246L1612 245M1603.67 246.333L1604.33 246.667L1603.67 246.333M1611 246L1612 247L1611 246z"/>
<path style="fill:#141414; stroke:none;" d="M1608.67 247.333L1609.33 247.667L1608.67 247.333z"/>
</svg>
