<?xml version="1.0" standalone="yes"?>99
<svg xmlns="http://www.w3.org/2000/svg" width="2118" height="1206">
<path style="fill:#ffffff; stroke:none;" d="M0 0L0 1206L2118 1206L2118 0L0 0z"/>
<path style="fill:#040404; stroke:none;" d="M2016 400C2016 367.935 2015.78 338.198 2023 307L2024 307C2017.94 333.187 2018 356.265 2018 383C2018 390.889 2015.34 399.227 2016.19 407C2018.78 430.658 2026.18 454.652 2031 478C2041.31 477.18 2046.62 452.508 2050 444C2065.54 404.894 2072.15 365.637 2065.73 324C2062.93 305.881 2049.48 277.586 2029 297L2029 291C2015.29 291 2001.66 290 1988 290C1983.34 290 1976.26 288.681 1972.3 291.603C1959.72 300.884 1953.38 325.192 1953.01 340C1952.92 343.962 1951.71 351.076 1954.03 354.505C1956.38 357.988 1962.47 360.456 1966 362.6C1973.97 367.434 1981.65 372.695 1989 378.424C1997.07 384.716 2005.45 399.205 2016 400z"/>
<path style="fill:#454545; stroke:none;" d="M1974 291L1973 293L1974 291z"/>
<path style="fill:#333333; stroke:none;" d="M2014 399L2015.67 330L2028 292C2015.6 294.953 2000.74 291.705 1988 291.946C1983.84 292.025 1979 289.981 1975.09 292.025C1962.12 298.799 1955.28 324.763 1954.67 338C1954.46 342.477 1952.74 348.503 1955.32 352.586C1957.8 356.519 1963.87 359.001 1967.7 361.384C1976.02 366.548 1984.54 372.089 1992.04 378.379C1999.55 384.675 2005.32 394.458 2014 399z"/>
<path style="fill:#454545; stroke:none;" d="M1982 291L1982 292L1993 292L1982 291z"/>
<path style="fill:#1c1c1c; stroke:none;" d="M1997.67 291.333L1998.33 291.667L1997.67 291.333z"/>
<path style="fill:#333333; stroke:none;" d="M2033 477C2039.65 468.969 2043 457.037 2046.83 447.414C2057.71 420.044 2069.22 386.799 2067.96 357C2067.46 345.062 2066.17 332.72 2063.77 321C2062.61 315.317 2059.36 309.726 2059 304C2054.56 299.751 2051.38 293.711 2045 291.989C2027.48 287.264 2020.83 321.194 2019.66 333C2015.08 379.273 2016.41 433.032 2033 477z"/>
<path style="fill:#454545; stroke:none;" d="M2040 291L2040 292L2043 292L2040 291M2013 292L2013 293L2027 293L2013 292M2037 292L2038 293L2037 292z"/>
<path style="fill:#1c1c1c; stroke:none;" d="M1972 293L1973 294L1972 293z"/>
<path style="fill:#454545; stroke:none;" d="M2035 293L2036 294L2035 293M2048 293L2049 294L2048 293M2034 294L2035 295L2034 294z"/>
<path style="fill:#1c1c1c; stroke:none;" d="M2050 294L2051 295L2050 294z"/>
<path style="fill:#454545; stroke:none;" d="M1971 295L1972 296L1971 295M2033 295L2034 296L2033 295M2051 295L2052 296L2051 295M1970 296L1971 297L1970 296M2032 296L2033 297L2032 296M2052 296L2053 297L2052 296z"/>
<path style="fill:#ffffff; stroke:none;" d="M2028 297L2027 300L2028 297z"/>
<path style="fill:#454545; stroke:none;" d="M2031 297L2032 298L2031 297M2053 297L2054 298L2053 297M2025 298L2026 299L2025 298z"/>
<path style="fill:#1c1c1c; stroke:none;" d="M2030 298L2031 299L2030 298z"/>
<path style="fill:#454545; stroke:none;" d="M2054 298L2055 299L2054 298M1968 299L1969 300L1968 299z"/>
<path style="fill:#1c1c1c; stroke:none;" d="M2025 299L2026 300L2025 299M2055 299L2056 300L2055 299z"/>
<path style="fill:#454545; stroke:none;" d="M2024 300L2025 301L2024 300M2029 300L2030 301L2029 300z"/>
<path style="fill:#1c1c1c; stroke:none;" d="M2024 301L2025 302L2024 301z"/>
<path style="fill:#ffffff; stroke:none;" d="M2026 301L2027 302L2026 301z"/>
<path style="fill:#1c1c1c; stroke:none;" d="M2028 301L2029 302L2028 301z"/>
<path style="fill:#454545; stroke:none;" d="M2056 301L2057 302L2056 301M1966 302L1967 303L1966 302M2023 302L2024 303L2023 302M2028 302L2029 303L2028 302z"/>
<path style="fill:#1c1c1c; stroke:none;" d="M2057 302L2058 303L2057 302z"/>
<path style="fill:#ffffff; stroke:none;" d="M2025 303L2024 307L2025 307L2025 303z"/>
<path style="fill:#1c1c1c; stroke:none;" d="M2027 303L2028 304L2027 303z"/>
<path style="fill:#454545; stroke:none;" d="M2057 303L2058 304L2057 303M2022 304L2023 305L2022 304M2027 304L2028 305L2027 304M1964 305L1965 306L1964 305z"/>
<path style="fill:#1c1c1c; stroke:none;" d="M2022 305L2023 306L2022 305M2026 305L2027 306L2026 305z"/>
<path style="fill:#454545; stroke:none;" d="M2058 305L2059 306L2058 305M2026 306L2027 307L2026 306z"/>
<path style="fill:#1c1c1c; stroke:none;" d="M2059 306L2060 307L2059 306z"/>
<path style="fill:#454545; stroke:none;" d="M1963 307L1964 308L1963 307M2021 307L2022 308L2021 307M2059 307L2060 308L2059 307M2025.33 308.667L2025.67 309.333L2025.33 308.667M1962 309L1963 310L1962 309M2020 309L2021 310L2020 309M2060 309L2061 310L2060 309z"/>
<path style="fill:#1c1c1c; stroke:none;" d="M2024 310L2025 311L2024 310z"/>
<path style="fill:#454545; stroke:none;" d="M2024 311L2025 312L2024 311z"/>
<path style="fill:#1c1c1c; stroke:none;" d="M2061 311L2062 312L2061 311z"/>
<path style="fill:#454545; stroke:none;" d="M2019 312L2020 313L2019 312M2061 312L2062 313L2061 312z"/>
<path style="fill:#1c1c1c; stroke:none;" d="M2019 313L2020 314L2019 313z"/>
<path style="fill:#454545; stroke:none;" d="M1960 314L1961 315L1960 314M2023.33 314.667L2023.67 315.333L2023.33 314.667z"/>
<path style="fill:#1c1c1c; stroke:none;" d="M2062 314L2063 315L2062 314z"/>
<path style="fill:#454545; stroke:none;" d="M2018.33 315.667L2018.67 316.333L2018.33 315.667M2062.33 315.667L2062.67 316.333L2062.33 315.667M1959.33 316.667L1959.67 317.333L1959.33 316.667M2022 318L2023 319L2022 318M1958 319L1959 320L1958 319M2017 319L2018 320L2017 319M2063.33 320.667L2063.67 321.333L2063.33 320.667M1957.33 322.667L1957.67 323.333L1957.33 322.667M2021 322L2022 323L2021 322M2016.33 323.667L2016.67 324.333L2016.33 323.667z"/>
<path style="fill:#1c1c1c; stroke:none;" d="M1956 325L1957 326L1956 325M2020 325L2021 326L2020 325z"/>
<path style="fill:#454545; stroke:none;" d="M2064 325L2064 328L2065 328L2064 325M1956.33 326.667L1956.67 327.333L1956.33 326.667M2020 326L2020 329L2021 329L2020 326M2015 330L2015 336L2016 336L2015 330M1955.33 331.667L1955.67 332.333L1955.33 331.667z"/>
<path style="fill:#1c1c1c; stroke:none;" d="M2019 331L2020 332L2019 331z"/>
<path style="fill:#454545; stroke:none;" d="M2065.33 332.667L2065.67 333.333L2065.33 332.667M2019 333L2019 337L2020 337L2019 333M1954 337L1954 342L1955 342L1954 337z"/>
<path style="fill:#1c1c1c; stroke:none;" d="M2066 337L2067 338L2066 337M2015 338L2015 341L2016 341L2015 338z"/>
<path style="fill:#454545; stroke:none;" d="M2066 339L2066 343L2067 343L2066 339z"/>
<path style="fill:#1c1c1c; stroke:none;" d="M2018 346L2018 361L2019 361L2018 346z"/>
<path style="fill:#454545; stroke:none;" d="M2067 348L2067 353L2068 353L2067 348M1954.33 351.667L1954.67 352.333L1954.33 351.667z"/>
<path style="fill:#1c1c1c; stroke:none;" d="M1954 353L1955 354L1954 353M1955 354L1956 355L1955 354z"/>
<path style="fill:#454545; stroke:none;" d="M1956 354L1957 355L1956 354z"/>
<path style="fill:#1c1c1c; stroke:none;" d="M1958 355L1959 356L1958 355z"/>
<path style="fill:#454545; stroke:none;" d="M1959 355L1960 356L1959 355M1960 356L1961 357L1960 356M1961 357L1962 358L1961 357M1964 359L1965 360L1964 359M1966 360L1967 361L1966 360z"/>
<path style="fill:#1c1c1c; stroke:none;" d="M1967 361L1968 362L1967 361z"/>
<path style="fill:#454545; stroke:none;" d="M1968 361L1969 362L1968 361M1971 363L1972 364L1971 363M1974 365L1975 366L1974 365M1977 367L1978 368L1977 367M2067 368L2067 371L2068 371L2067 368M1980 369L1981 370L1980 369M1983 371L1984 372L1983 371z"/>
<path style="fill:#1c1c1c; stroke:none;" d="M2067 371L2068 372L2067 371z"/>
<path style="fill:#454545; stroke:none;" d="M1984 372L1985 373L1984 372z"/>
<path style="fill:#1c1c1c; stroke:none;" d="M1985 373L1986 374L1985 373z"/>
<path style="fill:#454545; stroke:none;" d="M1987 374L1988 375L1987 374M2066 375L2066 378L2067 378L2066 375z"/>
<path style="fill:#1c1c1c; stroke:none;" d="M1989 376L1990 377L1989 376z"/>
<path style="fill:#454545; stroke:none;" d="M1991 377L1992 378L1991 377M1992 378L1993 379L1992 378z"/>
<path style="fill:#1c1c1c; stroke:none;" d="M2066 378L2067 379L2066 378M1993 379L1994 380L1993 379M1994 380L1995 381L1994 380z"/>
<path style="fill:#454545; stroke:none;" d="M2065 381L2065 384L2066 384L2065 381z"/>
<path style="fill:#1c1c1c; stroke:none;" d="M2065 384L2066 385L2065 384z"/>
<path style="fill:#454545; stroke:none;" d="M2064.33 387.667L2064.67 388.333L2064.33 387.667M2014 389L2014 399L2015 399L2014 389z"/>
<path style="fill:#1c1c1c; stroke:none;" d="M2004 390L2005 391L2004 390M2005 391L2006 392L2005 391z"/>
<path style="fill:#454545; stroke:none;" d="M2063.33 391.667L2063.67 392.333L2063.33 391.667z"/>
<path style="fill:#1c1c1c; stroke:none;" d="M2006 392L2007 393L2006 392M2018.33 394.667L2018.67 395.333L2018.33 394.667z"/>
<path style="fill:#454545; stroke:none;" d="M2062.33 396.667L2062.67 397.333L2062.33 396.667M2018 397L2018 400L2019 400L2018 397z"/>
<path style="fill:#1c1c1c; stroke:none;" d="M2012 398L2013 399L2012 398M2062 398L2063 399L2062 398z"/>
<path style="fill:#454545; stroke:none;" d="M2061.33 400.667L2061.67 401.333L2061.33 400.667M2017.33 402.667L2017.67 403.333L2017.33 402.667z"/>
<path style="fill:#1c1c1c; stroke:none;" d="M2061 402L2062 403L2061 402z"/>
<path style="fill:#454545; stroke:none;" d="M2060.33 404.667L2060.67 405.333L2060.33 404.667M2017.33 406.667L2017.67 407.333L2017.33 406.667z"/>
<path style="fill:#1c1c1c; stroke:none;" d="M2060 406L2061 407L2060 406z"/>
<path style="fill:#454545; stroke:none;" d="M2059.33 408.667L2059.67 409.333L2059.33 408.667M2018 409L2019 410L2018 409M2019 412L2020 413L2019 412M2058 412L2059 413L2058 412z"/>
<path style="fill:#1c1c1c; stroke:none;" d="M2019 413L2020 414L2019 413M2058 413L2059 414L2058 413z"/>
<path style="fill:#454545; stroke:none;" d="M2057.33 415.667L2057.67 416.333L2057.33 415.667M2020 416L2020 419L2021 419L2020 416z"/>
<path style="fill:#1c1c1c; stroke:none;" d="M2057 417L2058 418L2057 417z"/>
<path style="fill:#454545; stroke:none;" d="M2056 419L2057 420L2056 419z"/>
<path style="fill:#1c1c1c; stroke:none;" d="M2056 420L2057 421L2056 420z"/>
<path style="fill:#454545; stroke:none;" d="M2055 422L2056 423L2055 422M2021.33 423.667L2021.67 424.333L2021.33 423.667M2054 425L2055 426L2054 425M2053.33 428.667L2053.67 429.333L2053.33 428.667M2022.33 429.667L2022.67 430.333L2022.33 429.667z"/>
<path style="fill:#1c1c1c; stroke:none;" d="M2022 431L2023 432L2022 431z"/>
<path style="fill:#454545; stroke:none;" d="M2052 431L2053 432L2052 431M2023.33 434.667L2023.67 435.333L2023.33 434.667M2051 434L2052 435L2051 434z"/>
<path style="fill:#1c1c1c; stroke:none;" d="M2023 436L2024 437L2023 436z"/>
<path style="fill:#454545; stroke:none;" d="M2050 437L2051 438L2050 437z"/>
<path style="fill:#1c1c1c; stroke:none;" d="M2050 438L2051 439L2050 438z"/>
<path style="fill:#454545; stroke:none;" d="M2024.33 439.667L2024.67 440.333L2024.33 439.667M2049 440L2050 441L2049 440z"/>
<path style="fill:#1c1c1c; stroke:none;" d="M2024 441L2025 442L2024 441z"/>
<path style="fill:#454545; stroke:none;" d="M2048 442L2049 443L2048 442M2025.33 444.667L2025.67 445.333L2025.33 444.667M2047 445L2048 446L2047 445z"/>
<path style="fill:#1c1c1c; stroke:none;" d="M2025 446L2026 447L2025 446z"/>
<path style="fill:#454545; stroke:none;" d="M2046 447L2047 448L2046 447M2026.33 449.667L2026.67 450.333L2026.33 449.667M2045 450L2046 451L2045 450z"/>
<path style="fill:#1c1c1c; stroke:none;" d="M2026 451L2027 452L2026 451M2045 451L2046 452L2045 451z"/>
<path style="fill:#454545; stroke:none;" d="M2044 452L2045 453L2044 452M2027.33 454.667L2027.67 455.333L2027.33 454.667M2043 455L2044 456L2043 455z"/>
<path style="fill:#1c1c1c; stroke:none;" d="M2027 456L2028 457L2027 456z"/>
<path style="fill:#454545; stroke:none;" d="M2042 457L2043 458L2042 457M2028.33 458.667L2028.67 459.333L2028.33 458.667z"/>
<path style="fill:#1c1c1c; stroke:none;" d="M2042 458L2043 459L2042 458z"/>
<path style="fill:#454545; stroke:none;" d="M2041 460L2042 461L2041 460M2040 462L2041 463L2040 462M2029.33 463.667L2029.67 464.333L2029.33 463.667z"/>
<path style="fill:#1c1c1c; stroke:none;" d="M2040 463L2041 464L2040 463z"/>
<path style="fill:#454545; stroke:none;" d="M2039 464L2040 465L2039 464z"/>
<path style="fill:#1c1c1c; stroke:none;" d="M2029 465L2030 466L2029 465z"/>
<path style="fill:#454545; stroke:none;" d="M2038 467L2039 468L2038 467M2030.33 468.667L2030.67 469.333L2030.33 468.667M2037 469L2038 470L2037 469M2036 471L2037 472L2036 471M2031.33 472.667L2031.67 473.333L2031.33 472.667z"/>
<path style="fill:#1c1c1c; stroke:none;" d="M2036 472L2037 473L2036 472z"/>
<path style="fill:#454545; stroke:none;" d="M2035 473L2036 474L2035 473z"/>
<path style="fill:#1c1c1c; stroke:none;" d="M2031 474L2032 475L2031 474M2035 474L2036 475L2035 474z"/>
<path style="fill:#454545; stroke:none;" d="M2034 475L2035 476L2034 475M2032 476L2033 477L2032 476z"/>
<path style="fill:#1c1c1c; stroke:none;" d="M2034 476L2035 477L2034 476z"/>
</svg>
