<?xml version="1.0" standalone="yes"?>
<svg xmlns="http://www.w3.org/2000/svg" width="2118" height="1206">
<path style="fill:#ffffff; stroke:none;" d="M0 0L0 1206L2118 1206L2118 0L0 0z"/>
<path style="fill:#040404; stroke:none;" d="M133 807L133 810C165.055 818.293 198.167 818 231 818C256.664 818 282.421 818.662 308 816.911C360.124 813.341 410.511 805 463 805L463 804C434.564 804 406.288 804.432 378 807.17C354.278 809.465 330.794 814.281 307 815.911C250.006 819.813 190.147 819.888 134 809L134 808C216.687 788.871 298.404 758.058 378 728.947C413.307 716.034 452.836 690.126 491 700C486.097 706.411 477.41 710.565 480.995 720C488.354 739.373 509.589 740.711 525 749.185C536.445 755.479 546.271 765.747 557 773.279C574.956 785.885 593.973 796.468 611 810.424C620.126 817.905 643.454 834.589 643.041 848C642.914 852.128 638.947 855.784 636.745 859C635.055 861.469 633.571 864.657 630.896 866.226C626.597 868.747 620.741 865.26 617 863.127C606.162 856.949 596.533 848.737 586 842.053C547.784 817.802 509.419 805 464 805C470.032 807.531 479.383 806.554 486 807.086C497.939 808.045 510.344 809.882 522 812.654C548.071 818.855 574.451 835.771 596 851.141C603.247 856.311 624.219 875.414 633.621 866.681C655.18 846.659 635.19 828.101 618 813.59C598.867 797.439 577.524 785.145 557 770.975C546.775 763.914 537.787 754.349 527 748.21C517.717 742.926 507.127 741.834 498 735.641C492.078 731.623 482.031 723.897 481.539 716C480.989 707.185 501.196 699.697 483 697.13L477 696.286C458.858 694.087 444.583 701.367 428 708C407.46 716.215 386.716 723.83 366 731.576C289.342 760.239 210.839 782.111 133 807z"/>
<path style="fill:#1d1d1d; stroke:none;" d="M463 696L463 697L467 697L463 696M459 697L460 698L459 697z"/>
<path style="fill:#333333; stroke:none;" d="M134 808L134 809C192.811 820.08 256.471 820.591 316 814.83C384.008 808.249 453.028 795.236 521 810.887C545.586 816.549 570.281 831.705 591 845.67C601.404 852.682 613.916 865.761 626.996 866.796C633.736 867.33 640.096 856.613 642.153 851C644.151 845.546 640.466 840.199 637.334 836C629.593 825.622 619.941 817.279 610 809.084C593.103 795.155 573.863 784.82 556 772.279C545.668 765.026 536.245 754.698 525 748.995C509.897 741.336 484.044 737.624 479.883 717C478.403 709.661 487.314 705.19 491 700C451.805 690.56 413.173 716.434 377 729.308C297.363 757.651 216.539 789.078 134 808z"/>
<path style="fill:#1d1d1d; stroke:none;" d="M474 697L474 698L477 698L474 697M456 698L457 699L456 698M482 698L482 699L485 699L482 698M453 699L454 700L453 699M489 699L490 700L489 699M451 700L452 701L451 700M448 701L449 702L448 701M490 701L491 702L490 701M489 702L490 703L489 702M443 703L444 704L443 703M488 703L489 704L488 703M438 705L439 706L438 705M433 707L434 708L433 707M483 707L484 708L483 707M431 708L432 709L431 708M482 708L483 709L482 708M428 709L429 710L428 709M481 709L482 710L481 709M426 710L427 711L426 710M480 710L481 711L480 710z"/>
<path style="fill:#040404; stroke:none;" d="M1079 714C1069.97 711.665 1058.33 709.099 1049 710.185C1031.89 712.178 1013.96 723.006 998 729.189C971.497 739.455 944.612 748.627 918 758.576C868.182 777.2 816.924 793.005 766 808.28C754.059 811.862 742.008 815.086 730 818.424C727.746 819.051 719.249 820.227 719.921 823.819C720.705 828.006 736.503 828.675 740 829.246C761.406 832.745 782.703 830.773 804 833.286C820.856 835.274 838.138 833.778 855 833.039C869.698 832.396 884.334 833.226 899 831.83C961.327 825.899 1023.35 813.804 1086 824.08C1128.27 831.015 1160.81 852.726 1196 875.996C1205.44 882.236 1222.25 889.509 1229.56 875.985C1241.32 854.23 1207.3 829.959 1193 819.13C1176.89 806.935 1159.4 797.029 1143 785.29C1133.11 778.208 1123.76 768.422 1113 762.824C1098.15 755.1 1073.04 751.92 1068.08 732C1066.22 724.531 1077.53 720.95 1079 714z"/>
<path style="fill:#1d1d1d; stroke:none;" d="M423 711L424 712L423 711z"/>
<path style="fill:#333333; stroke:none;" d="M720 823L720 824C779.153 833.689 840.166 835.448 900 830.22C969.912 824.111 1040.2 809.891 1110 826.492C1143.95 834.566 1172.01 859.525 1201.09 877.195C1211.5 883.52 1225.28 884.671 1229.76 870.996C1235.56 853.298 1207.87 833.232 1196.42 824.167C1179.44 810.712 1160.63 800.267 1143.04 787.707C1132.47 780.164 1122.6 769.684 1111 763.88C1095.78 756.262 1069.69 752.308 1066.19 731.17C1065.02 724.126 1074.19 720.45 1077 715L1049 711.728L1017 723.6L957.089 746.486L720 823z"/>
<path style="fill:#454545; stroke:none;" d="M1049 711L1049 712L1053 712L1049 711z"/>
<path style="fill:#1d1d1d; stroke:none;" d="M1054 711L1055 712L1054 711M421 712L422 713L421 712M1044 712L1045 713L1044 712z"/>
<path style="fill:#454545; stroke:none;" d="M1045 712L1046 713L1045 712M1059 712L1059 713L1063 713L1059 712z"/>
<path style="fill:#1d1d1d; stroke:none;" d="M1063 712L1064 713L1063 712M418 713L419 714L418 713M479 713L479 717L480 717L479 713z"/>
<path style="fill:#454545; stroke:none;" d="M1042 713L1043 714L1042 713M1067 713L1067 714L1070 714L1067 713z"/>
<path style="fill:#1d1d1d; stroke:none;" d="M1070 713L1071 714L1070 713z"/>
<path style="fill:#454545; stroke:none;" d="M1039 714L1040 715L1039 714M1073 714L1073 715L1076 715L1073 714z"/>
<path style="fill:#1d1d1d; stroke:none;" d="M1076 714L1077 715L1076 714M413 715L414 716L413 715M1036 715L1037 716L1036 715z"/>
<path style="fill:#454545; stroke:none;" d="M1037 715L1038 716L1037 715z"/>
<path style="fill:#1d1d1d; stroke:none;" d="M1077 715L1078 716L1077 715z"/>
<path style="fill:#454545; stroke:none;" d="M1034 716L1035 717L1034 716z"/>
<path style="fill:#1d1d1d; stroke:none;" d="M408 717L409 718L408 717z"/>
<path style="fill:#454545; stroke:none;" d="M1032 717L1033 718L1032 717z"/>
<path style="fill:#1d1d1d; stroke:none;" d="M1076 717L1077 718L1076 717M405 718L406 719L405 718z"/>
<path style="fill:#454545; stroke:none;" d="M1029 718L1030 719L1029 718M1074 718L1075 719L1074 718z"/>
<path style="fill:#1d1d1d; stroke:none;" d="M403 719L404 720L403 719M480 719L481 720L480 719z"/>
<path style="fill:#454545; stroke:none;" d="M1027 719L1028 720L1027 719M1073 719L1074 720L1073 719z"/>
<path style="fill:#1d1d1d; stroke:none;" d="M400 720L401 721L400 720z"/>
<path style="fill:#454545; stroke:none;" d="M1024 720L1025 721L1024 720z"/>
<path style="fill:#1d1d1d; stroke:none;" d="M397 721L398 722L397 721M481 721L482 722L481 721M1021 721L1022 722L1021 721z"/>
<path style="fill:#454545; stroke:none;" d="M1022 721L1023 722L1022 721z"/>
<path style="fill:#1d1d1d; stroke:none;" d="M1071 721L1072 722L1071 721M395 722L396 723L395 722z"/>
<path style="fill:#454545; stroke:none;" d="M1019 722L1020 723L1019 722z"/>
<path style="fill:#1d1d1d; stroke:none;" d="M392 723L393 724L392 723M482 723L483 724L482 723M1016 723L1017 724L1016 723z"/>
<path style="fill:#454545; stroke:none;" d="M1017 723L1018 724L1017 723M1068 723L1069 724L1068 723z"/>
<path style="fill:#1d1d1d; stroke:none;" d="M389 724L390 725L389 724M483 724L484 725L483 724z"/>
<path style="fill:#454545; stroke:none;" d="M1014 724L1015 725L1014 724M1067 724L1068 725L1067 724z"/>
<path style="fill:#1d1d1d; stroke:none;" d="M387 725L388 726L387 725M1011 725L1012 726L1011 725z"/>
<path style="fill:#454545; stroke:none;" d="M1012 725L1013 726L1012 725z"/>
<path style="fill:#1d1d1d; stroke:none;" d="M384 726L385 727L384 726z"/>
<path style="fill:#454545; stroke:none;" d="M1009 726L1010 727L1009 726z"/>
<path style="fill:#1d1d1d; stroke:none;" d="M381 727L382 728L381 727M1006 727L1007 728L1006 727z"/>
<path style="fill:#454545; stroke:none;" d="M1007 727L1008 728L1007 727z"/>
<path style="fill:#1d1d1d; stroke:none;" d="M379 728L380 729L379 728M486 728L487 729L486 728z"/>
<path style="fill:#454545; stroke:none;" d="M1004 728L1005 729L1004 728z"/>
<path style="fill:#1d1d1d; stroke:none;" d="M376 729L377 730L376 729M487 729L488 730L487 729M1001 729L1002 730L1001 729z"/>
<path style="fill:#454545; stroke:none;" d="M1002 729L1003 730L1002 729M1065 729L1066 730L1065 729z"/>
<path style="fill:#1d1d1d; stroke:none;" d="M373 730L374 731L373 730M488 730L489 731L488 730z"/>
<path style="fill:#454545; stroke:none;" d="M999 730L1000 731L999 730z"/>
<path style="fill:#1d1d1d; stroke:none;" d="M370 731L371 732L370 731M489 731L490 732L489 731z"/>
<path style="fill:#454545; stroke:none;" d="M997 731L998 732L997 731z"/>
<path style="fill:#1d1d1d; stroke:none;" d="M993 732L994 733L993 732z"/>
<path style="fill:#454545; stroke:none;" d="M994 732L995 733L994 732z"/>
<path style="fill:#1d1d1d; stroke:none;" d="M1066 732L1067 733L1066 732M365 733L366 734L365 733z"/>
<path style="fill:#454545; stroke:none;" d="M991 733L992 734L991 733M1066 733L1067 734L1066 733z"/>
<path style="fill:#1d1d1d; stroke:none;" d="M362 734L363 735L362 734M988 734L989 735L988 734z"/>
<path style="fill:#454545; stroke:none;" d="M989 734L990 735L989 734z"/>
<path style="fill:#1d1d1d; stroke:none;" d="M359 735L360 736L359 735M494 735L495 736L494 735z"/>
<path style="fill:#454545; stroke:none;" d="M986 735L987 736L986 735z"/>
<path style="fill:#1d1d1d; stroke:none;" d="M356 736L357 737L356 736z"/>
<path style="fill:#454545; stroke:none;" d="M984 736L985 737L984 736z"/>
<path style="fill:#1d1d1d; stroke:none;" d="M354 737L355 738L354 737M497 737L498 738L497 737M980 737L981 738L980 737z"/>
<path style="fill:#454545; stroke:none;" d="M981 737L982 738L981 737M1068 737L1069 738L1068 737z"/>
<path style="fill:#1d1d1d; stroke:none;" d="M351 738L352 739L351 738z"/>
<path style="fill:#454545; stroke:none;" d="M978 738L979 739L978 738z"/>
<path style="fill:#1d1d1d; stroke:none;" d="M348 739L349 740L348 739M500 739L501 740L500 739z"/>
<path style="fill:#454545; stroke:none;" d="M976 739L977 740L976 739M1069 739L1070 740L1069 739z"/>
<path style="fill:#1d1d1d; stroke:none;" d="M345 740L346 741L345 740M502 740L503 741L502 740M972 740L973 741L972 740z"/>
<path style="fill:#454545; stroke:none;" d="M973 740L974 741L973 740M1070 740L1071 741L1070 740z"/>
<path style="fill:#1d1d1d; stroke:none;" d="M342 741L343 742L342 741M504 741L505 742L504 741z"/>
<path style="fill:#454545; stroke:none;" d="M970 741L971 742L970 741z"/>
<path style="fill:#1d1d1d; stroke:none;" d="M1071 741L1072 742L1071 741M340 742L341 743L340 742M506 742L507 743L506 742z"/>
<path style="fill:#454545; stroke:none;" d="M967.667 742.333L968.333 742.667L967.667 742.333z"/>
<path style="fill:#1d1d1d; stroke:none;" d="M1072 742L1073 743L1072 742M337 743L338 744L337 743M508 743L509 744L508 743z"/>
<path style="fill:#454545; stroke:none;" d="M965 743L966 744L965 743z"/>
<path style="fill:#1d1d1d; stroke:none;" d="M334 744L335 745L334 744M511 744L512 745L511 744M961 744L962 745L961 744z"/>
<path style="fill:#454545; stroke:none;" d="M962 744L963 745L962 744z"/>
<path style="fill:#1d1d1d; stroke:none;" d="M331 745L332 746L331 745M514 745L515 746L514 745z"/>
<path style="fill:#454545; stroke:none;" d="M959 745L960 746L959 745z"/>
<path style="fill:#1d1d1d; stroke:none;" d="M328 746L329 747L328 746M518 746L519 747L518 746z"/>
<path style="fill:#454545; stroke:none;" d="M956.667 746.333L957.333 746.667L956.667 746.333z"/>
<path style="fill:#1d1d1d; stroke:none;" d="M1076 746L1077 747L1076 746M325 747L326 748L325 747M521 747L522 748L521 747z"/>
<path style="fill:#454545; stroke:none;" d="M954 747L955 748L954 747z"/>
<path style="fill:#1d1d1d; stroke:none;" d="M1077 747L1078 748L1077 747M322 748L323 749L322 748M524 748L525 749L524 748M950 748L951 749L950 748z"/>
<path style="fill:#454545; stroke:none;" d="M951 748L952 749L951 748z"/>
<path style="fill:#1d1d1d; stroke:none;" d="M320 749L321 750L320 749M947 749L948 750L947 749z"/>
<path style="fill:#454545; stroke:none;" d="M948 749L949 750L948 749M1079 749L1080 750L1079 749z"/>
<path style="fill:#1d1d1d; stroke:none;" d="M317 750L318 751L317 750M527 750L528 751L527 750z"/>
<path style="fill:#454545; stroke:none;" d="M945 750L946 751L945 750M1080 750L1081 751L1080 750z"/>
<path style="fill:#1d1d1d; stroke:none;" d="M314 751L315 752L314 751z"/>
<path style="fill:#454545; stroke:none;" d="M943 751L944 752L943 751z"/>
<path style="fill:#1d1d1d; stroke:none;" d="M311 752L312 753L311 752M530 752L531 753L530 752M939 752L940 753L939 752z"/>
<path style="fill:#454545; stroke:none;" d="M940 752L941 753L940 752M1083 752L1084 753L1083 752z"/>
<path style="fill:#1d1d1d; stroke:none;" d="M308 753L309 754L308 753M531 753L532 754L531 753M936 753L937 754L936 753z"/>
<path style="fill:#454545; stroke:none;" d="M937 753L938 754L937 753z"/>
<path style="fill:#1d1d1d; stroke:none;" d="M305 754L306 755L305 754z"/>
<path style="fill:#454545; stroke:none;" d="M934 754L935 755L934 754M1086 754L1087 755L1086 754z"/>
<path style="fill:#1d1d1d; stroke:none;" d="M1087 754L1088 755L1087 754M302 755L303 756L302 755z"/>
<path style="fill:#454545; stroke:none;" d="M931.667 755.333L932.333 755.667L931.667 755.333M1088 755L1089 756L1088 755z"/>
<path style="fill:#1d1d1d; stroke:none;" d="M299 756L300 757L299 756z"/>
<path style="fill:#454545; stroke:none;" d="M929 756L930 757L929 756M1090 756L1091 757L1090 756z"/>
<path style="fill:#1d1d1d; stroke:none;" d="M296 757L297 758L296 757M536 757L537 758L536 757M925 757L926 758L925 757z"/>
<path style="fill:#454545; stroke:none;" d="M926 757L927 758L926 757M1092 757L1093 758L1092 757z"/>
<path style="fill:#1d1d1d; stroke:none;" d="M1093 757L1094 758L1093 757M293 758L294 759L293 758M537 758L538 759L537 758M922 758L923 759L922 758z"/>
<path style="fill:#454545; stroke:none;" d="M923 758L924 759L923 758M1094 758L1095 759L1094 758z"/>
<path style="fill:#1d1d1d; stroke:none;" d="M290 759L291 760L290 759z"/>
<path style="fill:#454545; stroke:none;" d="M920 759L921 760L920 759M1097 759L1098 760L1097 759z"/>
<path style="fill:#1d1d1d; stroke:none;" d="M1098 759L1099 760L1098 759M287 760L288 761L287 760z"/>
<path style="fill:#454545; stroke:none;" d="M917 760L918 761L917 760M1100 760L1101 761L1100 760z"/>
<path style="fill:#1d1d1d; stroke:none;" d="M284 761L285 762L284 761M541 761L542 762L541 761z"/>
<path style="fill:#454545; stroke:none;" d="M914.667 761.333L915.333 761.667L914.667 761.333M1104 761L1105 762L1104 761z"/>
<path style="fill:#1d1d1d; stroke:none;" d="M281 762L282 763L281 762M542 762L543 763L542 762z"/>
<path style="fill:#454545; stroke:none;" d="M911.667 762.333L912.333 762.667L911.667 762.333M1107.67 762.333L1108.33 762.667L1107.67 762.333z"/>
<path style="fill:#1d1d1d; stroke:none;" d="M278 763L279 764L278 763z"/>
<path style="fill:#454545; stroke:none;" d="M909 763L910 764L909 763M1110 763L1111 764L1110 763z"/>
<path style="fill:#1d1d1d; stroke:none;" d="M1111 763L1112 764L1111 763M275 764L276 765L275 764z"/>
<path style="fill:#454545; stroke:none;" d="M906 764L907 765L906 764M1112 764L1113 765L1112 764z"/>
<path style="fill:#1d1d1d; stroke:none;" d="M272.667 765.333L273.333 765.667L272.667 765.333M546 765L547 766L546 765M902 765L903 766L902 765z"/>
<path style="fill:#454545; stroke:none;" d="M903 765L904 766L903 765z"/>
<path style="fill:#1d1d1d; stroke:none;" d="M1114 765L1115 766L1114 765M269.667 766.333L270.333 766.667L269.667 766.333M899 766L900 767L899 766z"/>
<path style="fill:#454545; stroke:none;" d="M900 766L901 767L900 766M1115 766L1116 767L1115 766z"/>
<path style="fill:#1d1d1d; stroke:none;" d="M267 767L268 768L267 767M549 767L550 768L549 767M896 767L897 768L896 767z"/>
<path style="fill:#454545; stroke:none;" d="M897 767L898 768L897 767M1116 767L1117 768L1116 767z"/>
<path style="fill:#1d1d1d; stroke:none;" d="M264 768L265 769L264 768M550 768L551 769L550 768z"/>
<path style="fill:#454545; stroke:none;" d="M894 768L895 769L894 768z"/>
<path style="fill:#1d1d1d; stroke:none;" d="M1118 768L1119 769L1118 768M261 769L262 770L261 769z"/>
<path style="fill:#454545; stroke:none;" d="M891 769L892 770L891 769z"/>
<path style="fill:#1d1d1d; stroke:none;" d="M1119 769L1120 770L1119 769M258 770L259 771L258 770M553 770L554 771L553 770z"/>
<path style="fill:#454545; stroke:none;" d="M888.667 770.333L889.333 770.667L888.667 770.333z"/>
<path style="fill:#1d1d1d; stroke:none;" d="M255 771L256 772L255 771M554 771L555 772L554 771z"/>
<path style="fill:#454545; stroke:none;" d="M885.667 771.333L886.333 771.667L885.667 771.333M1121 771L1122 772L1121 771z"/>
<path style="fill:#1d1d1d; stroke:none;" d="M251 772L252 773L251 772z"/>
<path style="fill:#454545; stroke:none;" d="M883 772L884 773L883 772M1122 772L1123 773L1122 772z"/>
<path style="fill:#1d1d1d; stroke:none;" d="M248 773L249 774L248 773M557 773L558 774L557 773z"/>
<path style="fill:#454545; stroke:none;" d="M880 773L881 774L880 773z"/>
<path style="fill:#1d1d1d; stroke:none;" d="M1124 773L1125 774L1124 773M245 774L246 775L245 774z"/>
<path style="fill:#454545; stroke:none;" d="M877 774L878 775L877 774z"/>
<path style="fill:#1d1d1d; stroke:none;" d="M242 775L243 776L242 775M560 775L561 776L560 775z"/>
<path style="fill:#454545; stroke:none;" d="M874 775L875 776L874 775M1126 775L1127 776L1126 775z"/>
<path style="fill:#1d1d1d; stroke:none;" d="M239 776L240 777L239 776z"/>
<path style="fill:#454545; stroke:none;" d="M871 776L872 777L871 776M1127 776L1128 777L1127 776z"/>
<path style="fill:#1d1d1d; stroke:none;" d="M236 777L237 778L236 777M563 777L564 778L563 777z"/>
<path style="fill:#454545; stroke:none;" d="M868 777L869 778L868 777z"/>
<path style="fill:#1d1d1d; stroke:none;" d="M1129 777L1130 778L1129 777M233 778L234 779L233 778z"/>
<path style="fill:#454545; stroke:none;" d="M865 778L866 779L865 778z"/>
<path style="fill:#1d1d1d; stroke:none;" d="M230 779L231 780L230 779M566 779L567 780L566 779z"/>
<path style="fill:#454545; stroke:none;" d="M862 779L863 780L862 779M1131 779L1132 780L1131 779z"/>
<path style="fill:#1d1d1d; stroke:none;" d="M226.667 780.333L227.333 780.667L226.667 780.333z"/>
<path style="fill:#454545; stroke:none;" d="M859 780L860 781L859 780z"/>
<path style="fill:#1d1d1d; stroke:none;" d="M1133 780L1134 781L1133 780M223 781L224 782L223 781M569 781L570 782L569 781z"/>
<path style="fill:#454545; stroke:none;" d="M856 781L857 782L856 781z"/>
<path style="fill:#1d1d1d; stroke:none;" d="M220 782L221 783L220 782z"/>
<path style="fill:#454545; stroke:none;" d="M853 782L854 783L853 782M1135 782L1136 783L1135 782z"/>
<path style="fill:#1d1d1d; stroke:none;" d="M217 783L218 784L217 783M572 783L573 784L572 783z"/>
<path style="fill:#454545; stroke:none;" d="M850 783L851 784L850 783z"/>
<path style="fill:#1d1d1d; stroke:none;" d="M1137 783L1138 784L1137 783M214 784L215 785L214 784M574 784L575 785L574 784z"/>
<path style="fill:#454545; stroke:none;" d="M847 784L848 785L847 784z"/>
<path style="fill:#1d1d1d; stroke:none;" d="M211 785L212 786L211 785z"/>
<path style="fill:#454545; stroke:none;" d="M844 785L845 786L844 785M1139 785L1140 786L1139 785z"/>
<path style="fill:#1d1d1d; stroke:none;" d="M208 786L209 787L208 786M577 786L578 787L577 786z"/>
<path style="fill:#454545; stroke:none;" d="M841 786L842 787L841 786z"/>
<path style="fill:#1d1d1d; stroke:none;" d="M1141 786L1142 787L1141 786M204 787L205 788L204 787z"/>
<path style="fill:#454545; stroke:none;" d="M838 787L839 788L838 787M1142 787L1143 788L1142 787z"/>
<path style="fill:#1d1d1d; stroke:none;" d="M201 788L202 789L201 788z"/>
<path style="fill:#454545; stroke:none;" d="M834.667 788.333L835.333 788.667L834.667 788.333z"/>
<path style="fill:#1d1d1d; stroke:none;" d="M1144 788L1145 789L1144 788M198 789L199 790L198 789M582 789L583 790L582 789z"/>
<path style="fill:#454545; stroke:none;" d="M831.667 789.333L832.333 789.667L831.667 789.333M1145 789L1146 790L1145 789z"/>
<path style="fill:#1d1d1d; stroke:none;" d="M195 790L196 791L195 790z"/>
<path style="fill:#454545; stroke:none;" d="M828 790L829 791L828 790M1146 790L1147 791L1146 790z"/>
<path style="fill:#1d1d1d; stroke:none;" d="M191 791L192 792L191 791M585 791L586 792L585 791M824 791L825 792L824 791z"/>
<path style="fill:#454545; stroke:none;" d="M825 791L826 792L825 791z"/>
<path style="fill:#1d1d1d; stroke:none;" d="M188 792L189 793L188 792M821 792L822 793L821 792z"/>
<path style="fill:#454545; stroke:none;" d="M822 792L823 793L822 792M1149 792L1150 793L1149 792z"/>
<path style="fill:#1d1d1d; stroke:none;" d="M185 793L186 794L185 793M588 793L589 794L588 793M818 793L819 794L818 793z"/>
<path style="fill:#454545; stroke:none;" d="M819 793L820 794L819 793z"/>
<path style="fill:#1d1d1d; stroke:none;" d="M181 794L182 795L181 794z"/>
<path style="fill:#454545; stroke:none;" d="M816 794L817 795L816 794M1152 794L1153 795L1152 794z"/>
<path style="fill:#1d1d1d; stroke:none;" d="M178 795L179 796L178 795M591 795L592 796L591 795z"/>
<path style="fill:#454545; stroke:none;" d="M813 795L814 796L813 795M1154 795L1155 796L1154 795z"/>
<path style="fill:#1d1d1d; stroke:none;" d="M174.667 796.333L175.333 796.667L174.667 796.333z"/>
<path style="fill:#454545; stroke:none;" d="M810 796L811 797L810 796M1155 796L1156 797L1155 796z"/>
<path style="fill:#1d1d1d; stroke:none;" d="M1156 796L1157 797L1156 796M171 797L172 798L171 797M594 797L595 798L594 797z"/>
<path style="fill:#454545; stroke:none;" d="M806.667 797.333L807.333 797.667L806.667 797.333M1157 797L1158 798L1157 797z"/>
<path style="fill:#1d1d1d; stroke:none;" d="M167.667 798.333L168.333 798.667L167.667 798.333z"/>
<path style="fill:#454545; stroke:none;" d="M803 798L804 799L803 798z"/>
<path style="fill:#1d1d1d; stroke:none;" d="M1159 798L1160 799L1159 798M164 799L165 800L164 799M799 799L800 800L799 799z"/>
<path style="fill:#454545; stroke:none;" d="M800 799L801 800L800 799M1160 799L1161 800L1160 799z"/>
<path style="fill:#1d1d1d; stroke:none;" d="M160.667 800.333L161.333 800.667L160.667 800.333M598 800L599 801L598 800M796 800L797 801L796 800z"/>
<path style="fill:#454545; stroke:none;" d="M797 800L798 801L797 800z"/>
<path style="fill:#1d1d1d; stroke:none;" d="M157 801L158 802L157 801z"/>
<path style="fill:#454545; stroke:none;" d="M794 801L795 802L794 801M1163 801L1164 802L1163 801z"/>
<path style="fill:#1d1d1d; stroke:none;" d="M1164 801L1165 802L1164 801M153 802L154 803L153 802M601 802L602 803L601 802z"/>
<path style="fill:#454545; stroke:none;" d="M790.667 802.333L791.333 802.667L790.667 802.333M1165 802L1166 803L1165 802z"/>
<path style="fill:#1d1d1d; stroke:none;" d="M150 803L151 804L150 803M602 803L603 804L602 803M786 803L787 804L786 803z"/>
<path style="fill:#454545; stroke:none;" d="M787 803L788 804L787 803z"/>
<path style="fill:#1d1d1d; stroke:none;" d="M146 804L147 805L146 804M413 804L413 805L421 805L413 804M463 804L463 805L471 805L463 804M783 804L784 805L783 804z"/>
<path style="fill:#454545; stroke:none;" d="M784 804L785 805L784 804M1168 804L1169 805L1168 804z"/>
<path style="fill:#1d1d1d; stroke:none;" d="M142.667 805.333L143.333 805.667L142.667 805.333M395 805L395 806L400 806L395 805M481 805L481 806L485 806L481 805z"/>
<path style="fill:#454545; stroke:none;" d="M781 805L782 806L781 805M1170 805L1171 806L1170 805z"/>
<path style="fill:#1d1d1d; stroke:none;" d="M139 806L140 807L139 806M383 806L383 807L387 807L383 806M491 806L491 807L494 807L491 806M606 806L607 807L606 806z"/>
<path style="fill:#454545; stroke:none;" d="M777.667 806.333L778.333 806.667L777.667 806.333M1171 806L1172 807L1171 806z"/>
<path style="fill:#1d1d1d; stroke:none;" d="M1172 806L1173 807L1172 806M136 807L137 808L136 807M373 807L373 808L376 808L373 807M499.667 807.333L500.333 807.667L499.667 807.333M773 807L774 808L773 807z"/>
<path style="fill:#454545; stroke:none;" d="M774 807L775 808L774 807M1173 807L1174 808L1173 807z"/>
<path style="fill:#1d1d1d; stroke:none;" d="M365.667 808.333L366.333 808.667L365.667 808.333M506.667 808.333L507.333 808.667L506.667 808.333z"/>
<path style="fill:#454545; stroke:none;" d="M771 808L772 809L771 808M1174 808L1175 809L1174 808z"/>
<path style="fill:#1d1d1d; stroke:none;" d="M1175 808L1176 809L1175 808M136 809L137 810L136 809M357 809L357 810L360 810L357 809M512.667 809.333L513.333 809.667L512.667 809.333z"/>
<path style="fill:#454545; stroke:none;" d="M767.667 809.333L768.333 809.667L767.667 809.333M1176 809L1177 810L1176 809z"/>
<path style="fill:#1d1d1d; stroke:none;" d="M141.667 810.333L142.333 810.667L141.667 810.333M350 810L350 811L353 811L350 810M518.667 810.333L519.333 810.667L518.667 810.333M611 810L612 811L611 810M763 810L764 811L763 810z"/>
<path style="fill:#454545; stroke:none;" d="M764 810L765 811L764 810M1177 810L1178 811L1177 810z"/>
<path style="fill:#1d1d1d; stroke:none;" d="M146.667 811.333L147.333 811.667L146.667 811.333M343 811L343 812L346 812L343 811M523 811L524 812L523 811M612 811L613 812L612 811z"/>
<path style="fill:#454545; stroke:none;" d="M761 811L762 812L761 811z"/>
<path style="fill:#1d1d1d; stroke:none;" d="M152.667 812.333L153.333 812.667L152.667 812.333M335 812L335 813L338 813L335 812M527 812L528 813L527 812M756 812L757 813L756 812z"/>
<path style="fill:#454545; stroke:none;" d="M757 812L758 813L757 812M1180 812L1181 813L1180 812z"/>
<path style="fill:#1d1d1d; stroke:none;" d="M158.667 813.333L159.333 813.667L158.667 813.333M327 813L327 814L330 814L327 813M530 813L531 814L530 813z"/>
<path style="fill:#454545; stroke:none;" d="M754 813L755 814L754 813z"/>
<path style="fill:#1d1d1d; stroke:none;" d="M1182 813L1183 814L1182 813M165 814L165 815L168 815L165 814M318 814L318 815L321 815L318 814M532 814L533 815L532 814M749 814L750 815L749 814z"/>
<path style="fill:#454545; stroke:none;" d="M750.667 814.333L751.333 814.667L750.667 814.333M1183 814L1184 815L1183 814z"/>
<path style="fill:#1d1d1d; stroke:none;" d="M174 815L174 816L178 816L174 815M307 815L307 816L311 816L307 815M534 815L535 816L534 815M617 815L618 816L617 815z"/>
<path style="fill:#454545; stroke:none;" d="M747 815L748 816L747 815z"/>
<path style="fill:#1d1d1d; stroke:none;" d="M1185 815L1186 816L1185 815M188 816L188 817L195 817L188 816M287 816L287 817L296 817L287 816M536 816L537 817L536 816M618 816L619 817L618 816M742 816L743 817L742 816z"/>
<path style="fill:#454545; stroke:none;" d="M743 816L744 817L743 816z"/>
<path style="fill:#1d1d1d; stroke:none;" d="M619 817L620 818L619 817z"/>
<path style="fill:#454545; stroke:none;" d="M739.667 817.333L740.333 817.667L739.667 817.333M1187 817L1188 818L1187 817z"/>
<path style="fill:#1d1d1d; stroke:none;" d="M541 818L542 819L541 818z"/>
<path style="fill:#454545; stroke:none;" d="M736 818L737 819L736 818z"/>
<path style="fill:#1d1d1d; stroke:none;" d="M1189 818L1190 819L1189 818M543 819L544 820L543 819M731 819L732 820L731 819z"/>
<path style="fill:#454545; stroke:none;" d="M732 819L733 820L732 819M999 819L999 820L1008 820L999 819z"/>
<path style="fill:#1d1d1d; stroke:none;" d="M1013 819L1013 820L1017 820L1013 819M1042 819L1042 820L1045 820L1042 819z"/>
<path style="fill:#454545; stroke:none;" d="M1049 819L1049 820L1057 820L1049 819z"/>
<path style="fill:#1d1d1d; stroke:none;" d="M546 820L547 821L546 820z"/>
<path style="fill:#454545; stroke:none;" d="M729 820L730 821L729 820M981 820L981 821L987 821L981 820z"/>
<path style="fill:#1d1d1d; stroke:none;" d="M988.667 820.333L989.333 820.667L988.667 820.333M1064 820L1065 821L1064 820z"/>
<path style="fill:#454545; stroke:none;" d="M1067 820L1067 821L1071 821L1067 820M1191 820L1192 821L1191 820z"/>
<path style="fill:#1d1d1d; stroke:none;" d="M548 821L549 822L548 821M724 821L725 822L724 821z"/>
<path style="fill:#454545; stroke:none;" d="M725 821L726 822L725 821M969 821L969 822L973 822L969 821z"/>
<path style="fill:#1d1d1d; stroke:none;" d="M974 821L975 822L974 821M1075 821L1076 822L1075 821z"/>
<path style="fill:#454545; stroke:none;" d="M1077 821L1077 822L1080 822L1077 821M1192 821L1193 822L1192 821z"/>
<path style="fill:#1d1d1d; stroke:none;" d="M550 822L551 823L550 822z"/>
<path style="fill:#454545; stroke:none;" d="M722 822L723 823L722 822M959 822L959 823L963 823L959 822z"/>
<path style="fill:#1d1d1d; stroke:none;" d="M963 822L964 823L963 822M1083 822L1084 823L1083 822z"/>
<path style="fill:#454545; stroke:none;" d="M1085.67 822.333L1086.33 822.667L1085.67 822.333z"/>
<path style="fill:#1d1d1d; stroke:none;" d="M1194 822L1195 823L1194 822z"/>
<path style="fill:#454545; stroke:none;" d="M951 823L951 824L954 824L951 823z"/>
<path style="fill:#1d1d1d; stroke:none;" d="M1090 823L1091 824L1090 823z"/>
<path style="fill:#454545; stroke:none;" d="M1092.67 823.333L1093.33 823.667L1092.67 823.333z"/>
<path style="fill:#1d1d1d; stroke:none;" d="M721 824L722 825L721 824z"/>
<path style="fill:#454545; stroke:none;" d="M722.667 824.333L723.333 824.667L722.667 824.333M943 824L943 825L946 825L943 824z"/>
<path style="fill:#1d1d1d; stroke:none;" d="M1097 824L1098 825L1097 824z"/>
<path style="fill:#454545; stroke:none;" d="M1098 824L1098 825L1101 825L1098 824M1196 824L1197 825L1196 824M727.667 825.333L728.333 825.667L727.667 825.333M936 825L936 826L939 826L936 825M1104.67 825.333L1105.33 825.667L1104.67 825.333M1197 825L1198 826L1197 825z"/>
<path style="fill:#1d1d1d; stroke:none;" d="M731 826L732 827L731 826z"/>
<path style="fill:#454545; stroke:none;" d="M732 826L732 827L735 827L732 826M929 826L929 827L932 827L929 826z"/>
<path style="fill:#1d1d1d; stroke:none;" d="M1108 826L1109 827L1108 826z"/>
<path style="fill:#454545; stroke:none;" d="M1109.67 826.333L1110.33 826.667L1109.67 826.333z"/>
<path style="fill:#1d1d1d; stroke:none;" d="M1199 826L1200 827L1199 826z"/>
<path style="fill:#454545; stroke:none;" d="M738.667 827.333L739.333 827.667L738.667 827.333M922 827L922 828L925 828L922 827z"/>
<path style="fill:#1d1d1d; stroke:none;" d="M925 827L926 828L925 827M1112 827L1113 828L1112 827z"/>
<path style="fill:#454545; stroke:none;" d="M1113 827L1114 828L1113 827M744 828L744 829L747 829L744 828M914 828L914 829L917 829L914 828z"/>
<path style="fill:#1d1d1d; stroke:none;" d="M1115 828L1116 829L1115 828z"/>
<path style="fill:#454545; stroke:none;" d="M1116 828L1117 829L1116 828z"/>
<path style="fill:#1d1d1d; stroke:none;" d="M564 829L565 830L564 829z"/>
<path style="fill:#454545; stroke:none;" d="M751 829L751 830L754 830L751 829M904 829L904 830L908 830L904 829z"/>
<path style="fill:#1d1d1d; stroke:none;" d="M909 829L910 830L909 829z"/>
<path style="fill:#454545; stroke:none;" d="M1118 829L1119 830L1118 829M1202 829L1203 830L1202 829z"/>
<path style="fill:#1d1d1d; stroke:none;" d="M566 830L567 831L566 830M758 830L759 831L758 830z"/>
<path style="fill:#454545; stroke:none;" d="M760 830L760 831L764 831L760 830M893 830L893 831L898 831L893 830z"/>
<path style="fill:#1d1d1d; stroke:none;" d="M899 830L900 831L899 830z"/>
<path style="fill:#454545; stroke:none;" d="M1120 830L1121 831L1120 830M1203 830L1204 831L1203 830z"/>
<path style="fill:#1d1d1d; stroke:none;" d="M568 831L569 832L568 831M633 831L634 832L633 831M770 831L771 832L770 831z"/>
<path style="fill:#454545; stroke:none;" d="M774 831L774 832L783 832L774 831M872 831L872 832L882 832L872 831z"/>
<path style="fill:#1d1d1d; stroke:none;" d="M884.667 831.333L885.333 831.667L884.667 831.333z"/>
<path style="fill:#454545; stroke:none;" d="M1122 831L1123 832L1122 831M1204 831L1205 832L1204 831z"/>
<path style="fill:#1d1d1d; stroke:none;" d="M634 832L635 833L634 832M807 832L807 833L821 833L807 832M835 832L835 833L849 833L835 832M1124 832L1125 833L1124 832z"/>
<path style="fill:#454545; stroke:none;" d="M1125 832L1126 833L1125 832M1127 833L1128 834L1127 833z"/>
<path style="fill:#1d1d1d; stroke:none;" d="M1207 833L1208 834L1207 833M573 834L574 835L573 834z"/>
<path style="fill:#454545; stroke:none;" d="M1130 834L1131 835L1130 834z"/>
<path style="fill:#1d1d1d; stroke:none;" d="M1208 834L1209 835L1208 834z"/>
<path style="fill:#454545; stroke:none;" d="M1132 835L1133 836L1132 835z"/>
<path style="fill:#1d1d1d; stroke:none;" d="M1209 835L1210 836L1209 835M637 836L638 837L637 836z"/>
<path style="fill:#454545; stroke:none;" d="M1134 836L1135 837L1134 836z"/>
<path style="fill:#1d1d1d; stroke:none;" d="M578 837L579 838L578 837M638 837L639 838L638 837z"/>
<path style="fill:#454545; stroke:none;" d="M1139 838L1140 839L1139 838z"/>
<path style="fill:#1d1d1d; stroke:none;" d="M581 839L582 840L581 839M1140 839L1141 840L1140 839z"/>
<path style="fill:#454545; stroke:none;" d="M1141 839L1142 840L1141 839z"/>
<path style="fill:#1d1d1d; stroke:none;" d="M583 840L584 841L583 840M640 840L641 841L640 840M1142 840L1143 841L1142 840z"/>
<path style="fill:#454545; stroke:none;" d="M1143 840L1144 841L1143 840z"/>
<path style="fill:#1d1d1d; stroke:none;" d="M1144 841L1145 842L1144 841z"/>
<path style="fill:#454545; stroke:none;" d="M1145 841L1146 842L1145 841z"/>
<path style="fill:#1d1d1d; stroke:none;" d="M586 842L587 843L586 842M641 842L642 843L641 842M1217 843L1218 844L1217 843M589 844L590 845L589 844M642 844L643 845L642 844z"/>
<path style="fill:#454545; stroke:none;" d="M1150 844L1151 845L1150 844z"/>
<path style="fill:#1d1d1d; stroke:none;" d="M1218 844L1219 845L1218 844z"/>
<path style="fill:#454545; stroke:none;" d="M1152 845L1153 846L1152 845z"/>
<path style="fill:#1d1d1d; stroke:none;" d="M592 846L593 847L592 846M1153 846L1154 847L1153 846z"/>
<path style="fill:#454545; stroke:none;" d="M1154 846L1155 847L1154 846z"/>
<path style="fill:#1d1d1d; stroke:none;" d="M643 847L643 850L644 850L643 847M1155 847L1156 848L1155 847z"/>
<path style="fill:#454545; stroke:none;" d="M1220 847L1221 848L1220 847z"/>
<path style="fill:#1d1d1d; stroke:none;" d="M595 848L596 849L595 848z"/>
<path style="fill:#454545; stroke:none;" d="M1157 848L1158 849L1157 848M1221 848L1222 849L1221 848M1159 849L1160 850L1159 849z"/>
<path style="fill:#1d1d1d; stroke:none;" d="M1160 850L1161 851L1160 850M1223 850L1224 851L1223 850M599 851L600 852L599 851M642 851L643 852L642 851z"/>
<path style="fill:#454545; stroke:none;" d="M1162 851L1163 852L1162 851z"/>
<path style="fill:#1d1d1d; stroke:none;" d="M641 852L642 853L641 852z"/>
<path style="fill:#454545; stroke:none;" d="M1164 852L1165 853L1164 852M1224 852L1225 853L1224 852z"/>
<path style="fill:#1d1d1d; stroke:none;" d="M602 853L603 854L602 853M1165 853L1166 854L1165 853z"/>
<path style="fill:#454545; stroke:none;" d="M1167 854L1168 855L1167 854z"/>
<path style="fill:#1d1d1d; stroke:none;" d="M605 855L606 856L605 855M639 855L640 856L639 855M1168 855L1169 856L1168 855z"/>
<path style="fill:#454545; stroke:none;" d="M1169 855L1170 856L1169 855M1226 855L1227 856L1226 855z"/>
<path style="fill:#1d1d1d; stroke:none;" d="M606 856L607 857L606 856z"/>
<path style="fill:#454545; stroke:none;" d="M1170 856L1171 857L1170 856M1172 857L1173 858L1172 857z"/>
<path style="fill:#1d1d1d; stroke:none;" d="M609 858L610 859L609 858M636 859L637 860L636 859z"/>
<path style="fill:#454545; stroke:none;" d="M1175 859L1176 860L1175 859z"/>
<path style="fill:#1d1d1d; stroke:none;" d="M612 860L613 861L612 860M1229 860L1230 861L1229 860z"/>
<path style="fill:#454545; stroke:none;" d="M1178 861L1179 862L1178 861M1229 861L1230 862L1229 861z"/>
<path style="fill:#1d1d1d; stroke:none;" d="M615 862L616 863L615 862M634 862L635 863L634 862z"/>
<path style="fill:#454545; stroke:none;" d="M1181 863L1182 864L1181 863z"/>
<path style="fill:#1d1d1d; stroke:none;" d="M633 864L634 865L633 864M621 865L622 866L621 865z"/>
<path style="fill:#454545; stroke:none;" d="M1184 865L1185 866L1184 865z"/>
<path style="fill:#1d1d1d; stroke:none;" d="M623.667 866.333L624.333 866.667L623.667 866.333M628 867L628 868L631 868L628 867z"/>
<path style="fill:#454545; stroke:none;" d="M1187 867L1188 868L1187 867M1188 868L1189 869L1188 868z"/>
<path style="fill:#1d1d1d; stroke:none;" d="M1189 869L1190 870L1189 869z"/>
<path style="fill:#454545; stroke:none;" d="M1190 869L1191 870L1190 869M1191 870L1192 871L1191 870z"/>
<path style="fill:#1d1d1d; stroke:none;" d="M1192 871L1193 872L1192 871z"/>
<path style="fill:#454545; stroke:none;" d="M1229.33 871.667L1229.67 872.333L1229.33 871.667M1194 872L1195 873L1194 872z"/>
<path style="fill:#1d1d1d; stroke:none;" d="M1195 873L1196 874L1195 873z"/>
<path style="fill:#454545; stroke:none;" d="M1197 874L1198 875L1197 874M1228 874L1229 875L1228 874M1200 876L1201 877L1200 876z"/>
<path style="fill:#1d1d1d; stroke:none;" d="M1201 877L1202 878L1201 877z"/>
<path style="fill:#454545; stroke:none;" d="M1226 877L1227 878L1226 877M1225 878L1226 879L1225 878M1205 879L1206 880L1205 879M1207 880L1208 881L1207 880M1222 880L1223 881L1222 880z"/>
<path style="fill:#1d1d1d; stroke:none;" d="M1209 881L1210 882L1209 881z"/>
<path style="fill:#454545; stroke:none;" d="M1210 881L1211 882L1210 881M1219.67 881.333L1220.33 881.667L1219.67 881.333z"/>
<path style="fill:#1d1d1d; stroke:none;" d="M1214 882L1215 883L1214 882M1216 882L1217 883L1216 882z"/>
</svg>
